<?xml version="1.0" encoding="utf-8"?>
<!-- Generator: Adobe Illustrator 23.0.1, SVG Export Plug-In . SVG Version: 6.00 Build 0)  -->
<svg version="1.2" baseProfile="tiny" id="Layer_1" xmlns="http://www.w3.org/2000/svg" xmlns:xlink="http://www.w3.org/1999/xlink"
	 x="0px" y="0px" viewBox="0 0 181 181" xml:space="preserve">
<style type="text/css">
	.otp-code{fill:#000000}
</style>
<path class="otp-code" d="M169.3,69.9H11.7c-5.6,0-10.2,4.6-10.2,10.2v21.8c0,5.6,4.6,10.2,10.2,10.2h157.5c5.6,0,10.2-4.6,10.2-10.2
	V80.1C179.5,74.5,174.9,69.9,169.3,69.9z M173.5,101.9c0,2.4-1.9,4.3-4.3,4.3H11.7c-2.4,0-4.3-1.9-4.3-4.3V80.1
	c0-2.4,1.9-4.3,4.3-4.3h157.5c2.4,0,4.3,1.9,4.3,4.3V101.9z"/>
<path class="otp-code" d="M124.2,99.1c0.8,0,1.5-0.3,2.1-0.9l3-3l3,3c0.6,0.6,1.3,0.9,2.1,0.9s1.5-0.3,2.1-0.9s0.9-1.3,0.9-2.1
	s-0.3-1.5-0.9-2.1l-3-3l3-3c1.2-1.2,1.1-3.1,0-4.2l0,0c-1.2-1.2-3.1-1.2-4.2,0l-3,3l-3-3c-0.6-0.6-1.3-0.9-2.1-0.9
	c-0.8,0-1.5,0.3-2.1,0.9s-0.9,1.3-0.9,2.1c0,0.8,0.3,1.5,0.9,2.1l3,3l-3,3c-0.6,0.6-0.9,1.3-0.9,2.1s0.3,1.5,0.9,2.1
	S123.4,99.1,124.2,99.1z"/>
<path class="otp-code" d="M149.6,99.1c0.8,0,1.5-0.3,2.1-0.9l3-3l3,3c0.6,0.6,1.3,0.9,2.1,0.9s1.5-0.3,2.1-0.9s0.9-1.3,0.9-2.1
	s-0.3-1.5-0.9-2.1l-3.1-3l3-3c1.2-1.2,1.2-3,0-4.2c-0.6-0.6-1.3-0.9-2.1-0.9c0,0,0,0,0,0c-0.8,0-1.5,0.3-2.1,0.9l-3,3l-3-3
	c-0.6-0.6-1.3-0.9-2.1-0.9s-1.5,0.3-2.1,0.9s-0.9,1.3-0.9,2.1c0,0.8,0.3,1.5,0.9,2.1l3.1,3l-3.1,3c-0.6,0.6-0.9,1.3-0.9,2.1
	s0.3,1.5,0.9,2.1S148.8,99.1,149.6,99.1z"/>
<path class="otp-code" d="M98.6,99.1c0.8,0,1.5-0.3,2.1-0.9l3-3l3,3c0.6,0.6,1.3,0.9,2.1,0.9s1.5-0.3,2.1-0.9s0.9-1.3,0.9-2.1
	s-0.3-1.5-0.9-2.1l-3-3l3-3c1.2-1.2,1.1-3.1,0-4.2l0,0c-1.2-1.2-3.1-1.2-4.2,0l-3,3l-3-3c-0.6-0.6-1.3-0.9-2.1-0.9s-1.5,0.3-2.1,0.9
	s-0.9,1.3-0.9,2.1c0,0.8,0.3,1.5,0.9,2.1l3,3l-3,3c-0.6,0.6-0.9,1.3-0.9,2.1s0.3,1.5,0.9,2.1S97.8,99.1,98.6,99.1z"/>
<path class="otp-code" d="M73,99.1c0.8,0,1.5-0.3,2.1-0.9l3-3l3,3c0.6,0.6,1.3,0.9,2.1,0.9s1.5-0.3,2.1-0.9c0.6-0.6,0.9-1.3,0.9-2.1
	s-0.3-1.5-0.9-2.1l-3-3l3-3c1.2-1.2,1.1-3.1,0-4.2l0,0c-0.6-0.6-1.3-0.9-2.1-0.9c0,0,0,0,0,0c-0.8,0-1.5,0.3-2.1,0.9l-3,3l-3-3
	c-0.6-0.6-1.3-0.9-2.1-0.9c-0.8,0-1.5,0.3-2.1,0.9s-0.9,1.3-0.9,2.1c0,0.8,0.3,1.5,0.9,2.1l3,3l-3,3c-0.6,0.6-0.9,1.3-0.9,2.1
	s0.3,1.5,0.9,2.1S72.2,99.1,73,99.1z"/>
<path class="otp-code" d="M47.3,99.1c0.8,0,1.5-0.3,2.1-0.9l3-3l3,3c0.6,0.6,1.3,0.9,2.1,0.9c0.8,0,1.5-0.3,2.1-0.9
	c0.6-0.6,0.9-1.3,0.9-2.1s-0.3-1.5-0.9-2.1l-3-3l3-3c1.2-1.2,1.1-3.1,0-4.2l0,0c-0.6-0.6-1.3-0.9-2.1-0.9c0,0,0,0,0,0
	c-0.8,0-1.5,0.3-2.1,0.9l-3,3l-3-3c-0.6-0.6-1.3-0.9-2.1-0.9s-1.5,0.3-2.1,0.9c-1.2,1.2-1.2,3.1,0,4.2l3,3l-3,3
	c-0.6,0.6-0.9,1.3-0.9,2.1s0.3,1.5,0.9,2.1C45.8,98.8,46.5,99.1,47.3,99.1z"/>
<path class="otp-code" d="M29.9,98.3c0.6,0.6,1.3,0.9,2.1,0.9c0.8,0,1.5-0.3,2.1-0.9c0.6-0.6,0.9-1.3,0.9-2.1s-0.3-1.5-0.9-2.1l-3-3
	l3-3c1.2-1.2,1.1-3.1,0-4.2l0,0c-0.6-0.6-1.3-0.9-2.1-0.9c0,0,0,0,0,0c-0.8,0-1.5,0.3-2.1,0.9l-3,3l-3-3c-0.6-0.6-1.3-0.9-2.1-0.9
	s-1.5,0.3-2.1,0.9c-1.2,1.2-1.2,3.1,0,4.2l3,3l-3,3c-0.6,0.6-0.9,1.3-0.9,2.1s0.3,1.5,0.9,2.1c0.6,0.6,1.3,0.9,2.1,0.9
	c0.8,0,1.5-0.3,2.1-0.9l3-3L29.9,98.3z"/>
</svg>
