<?xml version="1.0" encoding="utf-8"?>
<!-- Generator: Adobe Illustrator 25.0.1, SVG Export Plug-In . SVG Version: 6.00 Build 0)  -->
<svg version="1.2" baseProfile="tiny" id="Layer_1" xmlns="http://www.w3.org/2000/svg" xmlns:xlink="http://www.w3.org/1999/xlink"
	 x="0px" y="0px" viewBox="0 0 150 150" overflow="visible" xml:space="preserve">
<g>
	<path class="otp-active" fill="#FFFFFF" d="M103,63.8c-0.7-0.9-1.6-1.8-2.5-2.5l-0.4-0.2V44.5c0-13.8-11.2-25.1-25-25.1c0,0-0.1,0-0.1,0
		c-13.8,0-25.1,11.3-25.1,25.1v16.6l-0.4,0.2C34.1,75.4,33,99.4,47,114.8c14.1,15.5,38,16.6,53.5,2.5C116,103.2,117.1,79.3,103,63.8
		z M55.9,44.5L55.9,44.5c-0.1-10.6,8.4-19.2,19-19.3c10.6-0.1,19.2,8.4,19.3,19c0,0.1,0,0.2,0,0.3v12.2l-1.5-0.8
		c-11.1-5.8-24.3-5.8-35.3,0l-1.5,0.8L55.9,44.5z M106.9,89.3c0,17.6-14.3,31.9-31.9,31.9c-17.6,0-31.9-14.3-31.9-31.9
		c0-17.6,14.3-31.9,31.9-31.9c17.6,0,31.8,14.2,31.9,31.8C106.9,89.3,106.9,89.3,106.9,89.3L106.9,89.3z"/>
	<path class="otp-active" fill="#FFFFFF" d="M83.7,78.5L83.7,78.5L83.7,78.5c-1,0-1.9,0.4-2.5,1.1l-9.7,12.3l-3.4-3.4c-0.7-0.6-1.6-1-2.5-0.9
		c-0.9,0-1.8,0.4-2.4,1.1c-1.2,1.3-1.2,3.4,0.1,4.8l6,6c0.6,0.7,1.5,1.1,2.5,1.1c0,0,0,0,0,0c1,0,1.9-0.4,2.6-1.2l11.9-14.9
		c0.6-0.6,0.9-1.4,1-2.3c0-0.9-0.3-1.8-1-2.5C85.5,79,84.6,78.6,83.7,78.5z"/>
</g>
</svg>
