<?xml version="1.0" encoding="utf-8"?>
<!-- Generator: Adobe Illustrator 25.0.1, SVG Export Plug-In . SVG Version: 6.00 Build 0)  -->
<svg version="1.2" baseProfile="tiny" id="Layer_1" xmlns="http://www.w3.org/2000/svg" xmlns:xlink="http://www.w3.org/1999/xlink"
	 x="0px" y="0px" viewBox="0 0 150 150" overflow="visible" xml:space="preserve">
<g id="Group_2679" transform="translate(-17.931 -8.917)">
	<path class="otp-inactive" id="Path_2349" fill="#FFFFFF" d="M118.2,53.4c0-14.2-12-25.1-25.1-25.1C79.2,28.4,68,39.6,68,53.4v16.6l-0.4,0.2
		c-15.5,14.1-16.6,38-2.5,53.5s38,16.6,53.5,2.5c15.5-14.1,16.6-38,2.5-53.5c-0.7-0.9-1.6-1.8-2.5-2.5l-0.4-0.2l-6-4.4l-1.5-0.8
		c-11.1-5.8-24.3-5.8-35.3,0l-1.5,0.8l0.2-12.2l0,0c0.1-10.5,8.6-19,19.1-19.1c10.4,0,19.1,8.4,19.1,15.3L118.2,53.4z M124.9,98.2
		c0,17.6-14.3,31.9-31.9,31.9s-31.9-14.3-31.9-31.9c0-17.6,14.3-31.9,31.9-31.9c17.6,0,31.8,14.2,31.9,31.8
		C124.9,98.2,124.9,98.2,124.9,98.2L124.9,98.2z"/>
	<path class="otp-inactive" id="Path_2350" fill="#FFFFFF" d="M109.1,101.6c1.6,0.1,3-1.2,3-2.8c0.1-1.6-1.2-3-2.8-3c-0.1,0-0.2,0-0.3,0H77
		c-1.6-0.1-3,1.2-3,2.8c-0.1,1.6,1.2,3,2.8,3c0.1,0,0.2,0,0.3,0H109.1z"/>
</g>
</svg>
