<?xml version="1.0" encoding="utf-8"?>
<!-- Generator: Adobe Illustrator 24.0.1, SVG Export Plug-In . SVG Version: 6.00 Build 0)  -->
<svg version="1.1" id="Layer_1" xmlns="http://www.w3.org/2000/svg" xmlns:xlink="http://www.w3.org/1999/xlink" x="0px" y="0px"
	 viewBox="0 0 91 90" style="enable-background:new 0 0 91 90;" xml:space="preserve">
<style type="text/css">
	.bonus-offer-icon{fill:#000000;}
</style>
<g>
	<path class="bonus-offer-icon" d="M64.7,51.5h-1.1L57,45.7H37.7l-0.2,2.3c0,0.8,0.1,1.6,0.4,2.5l-3.4-5.2c-1.5-2.9-4.8-5.2-8.2-4.1l-1.5,0.5
		c-0.1,0-0.2,0.1-0.3,0.1l-1.6,0.8l0.4,0.7c-2.3-0.7-4.8-0.5-6.6,1.3l-1.1,1.1c-0.1,0.1-0.1,0.1-0.2,0.2l-1.2,1.4L31,59l24.7,9.2h9
		V71h9.6l4-23.7H64.7V51.5z M31.5,46.8l1,1.5l-4-2.3l0,0l-1-1.8C29.1,43.9,30.7,45.3,31.5,46.8z M64.7,64.8h-8.4L32.8,56l-13.6-9.3
		c1.2-0.9,3.3-0.5,4.6,0.5l13.3,7.7h6c0.1,0,0.2,0,0.4,0l9.6,0l0-3.4h-9.8c-1-0.2-2-1.3-2.3-2.5h14.7l6.6,5.8h2.4
		C64.7,54.9,64.7,64.8,64.7,64.8z"/>
	<path class="bonus-offer-icon" d="M45.7,43.8c7.5,0,13.6-6.1,13.6-13.6c0-7.5-6.1-13.6-13.6-13.6c-7.5,0-13.6,6.1-13.6,13.6C32.1,37.7,38.2,43.8,45.7,43.8z
		 M40.6,33.7H44v0.8c0,0.4,0.3,0.7,0.7,0.7h1.9c0.4,0,0.7-0.3,0.7-0.7v-1.7c0,0-0.1-0.2-0.5-0.4l-3.4-1.3l0,0l-0.8-0.3
		c-1.8-1.1-2.2-2.4-2.2-3.3v-1.6c0-2.1,1.5-3.8,3.6-4.1v-1.1h3.4v1.2c1.9,0.4,3.3,2.1,3.3,4v0.8h-3.4v-0.8c0-0.4-0.3-0.7-0.7-0.7
		h-1.9c-0.4,0-0.7,0.3-0.7,0.7v1.6c0,0,0.1,0.2,0.5,0.4l0.3,0.1v0l0.2,0.1l3,1.1l0,0l0.6,0.2c1.4,0.9,2.2,2.1,2.2,3.4v1.7
		c0,2-1.4,3.6-3.3,4v1h-3.4v-0.9c-2-0.3-3.6-2-3.6-4.1L40.6,33.7L40.6,33.7z"/>
</g>
</svg>
