<?xml version="1.0" encoding="utf-8"?>
<!-- Generator: Adobe Illustrator 23.1.0, SVG Export Plug-In . SVG Version: 6.00 Build 0)  -->
<svg version="1.2" baseProfile="tiny" id="Layer_1" xmlns="http://www.w3.org/2000/svg" xmlns:xlink="http://www.w3.org/1999/xlink"
	 x="0px" y="0px" viewBox="0 0 77.5 71.5" xml:space="preserve">
<rect x="36.9" y="0.6" fill="#E2B766" width="3.6" height="5.8"/>
<rect x="36.9" y="65.1" fill="#E2B766" width="3.6" height="5.8"/>
<rect x="8.9" y="16.8" transform="matrix(0.4984 -0.8669 0.8669 0.4984 -11.6795 19.1732)" fill="#E2B766" width="3.6" height="5.8"/>
<rect x="64.8" y="48.9" transform="matrix(0.4984 -0.8669 0.8669 0.4984 -11.5041 83.7461)" fill="#E2B766" width="3.6" height="5.8"/>
<rect x="9" y="49" transform="matrix(-0.5014 -0.8652 0.8652 -0.5014 -28.7204 87.2724)" fill="#E2B766" width="3.6" height="5.8"/>
<rect x="64.7" y="16.7" transform="matrix(-0.5014 -0.8652 0.8652 -0.5014 83.0009 86.9979)" fill="#E2B766" width="3.6" height="5.8"/>
<path fill="#E2B766" d="M38.4,9.7C24,9.7,12.3,21.4,12.3,35.8S24,61.8,38.4,61.8s26.1-11.7,26.1-26.1S52.8,9.7,38.4,9.7z M38.4,13.1
	c12.5,0,22.7,10.1,22.7,22.7S50.9,58.5,38.4,58.5S15.7,48.3,15.7,35.8S25.8,13.1,38.4,13.1z"/>
<g>
	<path fill="#E2B766" d="M49.5,28.9c-0.4-3.9-3.7-5.1-7.9-5.5l0-5.4l-3.3,0l0.1,5.3l-2.6,0.1L35.7,18l-3.2,0.1l0,5.3l-2.1,0.1
		l-4.5,0l0,3.4c0,0,2.4-0.1,2.4,0c0.9-0.1,1.8,0.5,1.9,1.4c0,0,0,0.1,0,0.1l0,6l0.3-0.1l-0.3,0.1l0,8.5c0,0.6-0.5,1.1-1.1,1.1
		c0,0,0,0-0.1,0l-2.4,0L26,48.1l4.2,0l2.3,0l0.1,5.4l3.3,0l0-5.2l2.6,0l0,5.4l3.3,0l0-5.4c5.5-0.3,9.3-1.7,9.8-6.9
		c0.7-3-1.2-6-4.2-6.6c-0.2,0-0.3-0.1-0.5-0.1c2.1-1,3.2-3.3,2.8-5.5L49.5,28.9z M45,40.5c0,4.1-6.9,3.6-9.1,3.7l0-7.2
		C38,37,45,36.3,45,40.5 M43.4,30.4c0,3.7-5.8,3.3-7.6,3.3l0-6.6C37.7,27.2,43.5,26.5,43.4,30.4L43.4,30.4z"/>
</g>
</svg>
