<?xml version="1.0" encoding="utf-8"?>
<!-- Generator: Adobe Illustrator 22.1.0, SVG Export Plug-In . SVG Version: 6.00 Build 0)  -->
<svg version="1.1" id="Layer_1" xmlns="http://www.w3.org/2000/svg" xmlns:xlink="http://www.w3.org/1999/xlink" x="0px" y="0px"
	 viewBox="0 0 189 189" style="enable-background:new 0 0 189 189;" xml:space="preserve">
<style type="text/css">
	.st0{fill:#5D5D5D;}
	.st1{opacity:0.5;fill:#D0D2D3;}
	.st2{fill:#FFFFFF;}
	.st3{fill:#21201F;}
	.st4{fill:none;stroke:#B6B5CD;stroke-width:0.9815;stroke-miterlimit:10;}
	.st5{fill:#FAAF40;}
	.st6{fill:none;stroke:#000000;stroke-width:9;stroke-linecap:round;stroke-miterlimit:10;}
	.st7{fill:none;stroke:#FFFFFF;stroke-width:9;stroke-linecap:round;stroke-miterlimit:10;}
	.st8{fill:#00A651;}
	.st9{fill:#1F212A;}
	.st10{fill:#454162;}
	.st11{fill:#B6B5CD;}
	.st12{fill:none;stroke:#454162;stroke-width:9;stroke-linecap:round;stroke-miterlimit:10;}
	.st13{fill:none;stroke:#1F212A;stroke-width:9;stroke-linecap:round;stroke-miterlimit:10;}
</style>
<g>
	<path id="XMLID_54_" class="st11" d="M107.2,147.7l8.4,0.3c0,0-5.2,14.9-19.8,18.5s-35-3.6-38.6-6.2c-3.6-2.6-25.6-14.9-33.7-28.9
		S-2.1,91.9,5.4,76s18.5-23.3,18.5-23.3l4.9-2.3c0,0-4.5,12.6-3.2,23.3s11,33.1,15.9,38.3c4.9,5.2,25.9,23.7,35.7,28.2
		C86.8,144.7,103,147.3,107.2,147.7z"/>
	<path id="XMLID_43_" class="st10" d="M187.3,83.8L152.8,49c-1.5-1.5-3.5-1.5-4.9,0c-0.7,0.7-0.9,1.8-0.9,2.9c0,0.2,0,0.2,0,0.4v18
		h-14.2c-2,0-3.7,1.3-3.7,3.3s1.7,3.3,3.7,3.3h17.5c2,0,3.4-1.2,3.4-3.3V60.6l25.6,25.8l-25.6,25.8V99.8c0-2-1.4-3.9-3.4-3.9h-14.5
		c-2,0-3.7,1.8-3.7,3.8c0,2,1.7,3.8,3.7,3.8H147v17.6l0,0c0,0.2,0,0.6,0,0.7c0,0.2-0.2,0.2,0,0.4c0,0.2-0.1,0.2,0.1,0.4
		c0,0.2,0.1,0.2,0.1,0.4c0,0,0,0.2,0.2,0.2c0.2,0.2,0.4,0.4,0.5,0.6l0,0l0,0c0.2,0.2,0.4,0.4,0.5,0.4l0.2,0.2c0.2,0,0.2,0.2,0.4,0.2
		c0.2,0,0.2-0.2,0.4,0c0.2,0,0.2,0,0.4,0s0.6,0,0.7,0c0.2,0,0.6,0,0.7,0s0.2,0.2,0.4,0c0.2,0,0.2,0.1,0.4-0.1c0.2,0,0.2-0.1,0.4-0.1
		s0.2,0,0.4-0.2c0.2-0.2,0.4-0.4,0.6-0.5l0,0l34.4-34.6C188.7,87.5,188.7,85.1,187.3,83.8z"/>
	<path id="XMLID_34_" class="st10" d="M123.3,95.9h-9.7c-2,0-3.7,1.8-3.7,3.8c0,2,1.7,3.8,3.7,3.8h9.7c2,0,3.7-1.8,3.7-3.8
		C127,97.7,125.3,95.9,123.3,95.9z"/>
	<path id="XMLID_25_" class="st10" d="M121.3,70.3h-10.7c-2,0-3.7,1.3-3.7,3.3s1.7,3.3,3.7,3.3h10.7c2,0,3.7-1.3,3.7-3.3
		C125,71.6,123.3,70.3,121.3,70.3z"/>
	<path id="XMLID_8_" class="st10" d="M96.2,70.3h-3.3c-2,0-3.7,1.3-3.7,3.3s1.7,3.3,3.7,3.3h3.3c2,0,3.7-1.3,3.7-3.3
		C99.9,71.6,98.3,70.3,96.2,70.3z"/>
	<path class="st10" d="M144.6,180.1c-1.3,0-2.6-0.6-3.5-1.7L8.7,13.4C7.1,11.4,7.5,8.6,9.4,7c1.9-1.6,4.8-1.2,6.3,0.7l132.3,165.1
		c1.6,1.9,1.2,4.8-0.7,6.3C146.5,179.8,145.5,180.1,144.6,180.1z"/>
	<g>
		<path class="st10" d="M127.8,133.1l5.4,6.8c3.8-5.7,5.7-13.1,5.4-21.5c-0.2-2.2-2-3.9-4.3-3.9c-2.2,0.2-4.1,2-3.9,4.3
			C130.7,124.2,129.8,129.1,127.8,133.1z"/>
		<path class="st10" d="M54.8,42.1C66.3,43,80,48.6,93.1,58.6c1.8,1.4,4.3,1,5.7-0.8c1.4-1.8,1-4.3-0.8-5.7
			C80.8,39,62.8,32.8,48.3,33.9L54.8,42.1z"/>
		<path class="st10" d="M121.9,140.2c-14.6,10.7-44.5,1.1-67.6-22C29.9,93.8,20.8,61.7,34.2,48.3c2.6-2.6,5.9-4.4,9.8-5.4L38.4,36
			c-3.8,1.4-7.3,3.6-10.1,6.4L9.4,61.3c-17.3,17.3-8.3,53,20.1,81.5c18.7,18.5,40.6,28.8,58.1,28.8c9.3,0,17.5-2.8,23.4-8.7
			l16.2-16.2L121.9,140.2z M15.3,67l4.7-4.7c-0.2,2.6-0.2,5.3,0,7.9L9.2,81C9.8,75.3,11.6,70.4,15.3,67z M9.8,92l12-12
			c0.8,2.8,1.6,5.7,2.8,8.5L12,101.1C11,98.1,10.4,95,9.8,92z M15.5,109.2l12.8-12.8c1.4,2.8,3.2,5.9,5.1,8.7l-13,13
			C18.5,115.1,16.9,112.3,15.5,109.2z M25,125.1l13.2-13.2c2.2,3,4.9,5.9,7.5,8.9L32.5,134C29.9,131.2,27.3,128.1,25,125.1z
			 M38.2,139.7l13.2-13.2c3,2.6,5.9,5.1,8.7,7.3L47,147C43.9,144.8,41.1,142.3,38.2,139.7z M53.7,151.9l13-13
			c3.3,1.8,6.1,3.5,8.9,5.1l-13,13C59.6,155.5,56.7,153.9,53.7,151.9z M79.9,162.6c-1.4-0.2-2.8-0.6-4.3-1c-1.6-0.4-3.2-1-4.7-1.4
			l12.6-12.6c2.8,1.2,5.7,2,8.5,2.8L79.9,162.6z M105.3,157c-3.7,3.7-8.5,5.7-14.6,6.3l11-11c1.6,0.2,3.5,0.2,5.1,0.2
			c1,0,2.2,0,3.2-0.2L105.3,157z"/>
	</g>
</g>
</svg>
