<?xml version="1.0" encoding="utf-8"?>
<!-- Generator: Adobe Illustrator 24.0.0, SVG Export Plug-In . SVG Version: 6.00 Build 0)  -->
<svg version="1.2" baseProfile="tiny" id="Layer_1" xmlns="http://www.w3.org/2000/svg" xmlns:xlink="http://www.w3.org/1999/xlink"
	 x="0px" y="0px" viewBox="0 0 30 30" xml:space="preserve">
<style type="text/css">
	.emoji-face-icon{fill:#999999;}
</style>
<g>
	<g>
		<path class="emoji-face-icon" d="M17.76,18.26c-0.9,0.73-2.03,1.09-3.19,1.03c-1.15,0.06-2.29-0.31-3.19-1.03
			c-0.25-0.21-0.63-0.18-0.85,0.07c-0.19,0.23-0.19,0.56,0.01,0.78c1.12,0.95,2.56,1.44,4.03,1.38c1.47,0.06,2.91-0.43,4.03-1.38
			c0.22-0.25,0.19-0.63-0.06-0.85C18.32,18.07,17.99,18.07,17.76,18.26"/>
		<path class="emoji-face-icon" d="M12.17,12.68c0-0.66-0.54-1.2-1.2-1.2c-0.66,0-1.2,0.54-1.2,1.2c0,0.66,0.54,1.2,1.2,1.2
			C11.63,13.88,12.17,13.34,12.17,12.68"/>
		<path class="emoji-face-icon" d="M18.18,11.48c-0.66,0-1.2,0.54-1.2,1.2c0,0.66,0.54,1.2,1.2,1.2c0.66,0,1.2-0.54,1.2-1.2
			C19.38,12.02,18.84,11.48,18.18,11.48"/>
		<path class="emoji-face-icon" d="M14.57,3.66c-6.31,0-11.43,5.12-11.43,11.43c0,6.31,5.12,11.43,11.43,11.43C20.88,26.51,26,21.4,26,15.09
			C25.99,8.78,20.88,3.66,14.57,3.66 M14.57,25.31c-5.65,0-10.23-4.58-10.23-10.23c0-5.65,4.58-10.23,10.23-10.23
			c5.65,0,10.23,4.58,10.23,10.23C24.79,20.73,20.22,25.3,14.57,25.31"/>
	</g>
</g>
</svg>
