<?xml version="1.0" encoding="utf-8"?>
<!-- Generator: Adobe Illustrator 25.2.3, SVG Export Plug-In . SVG Version: 6.00 Build 0)  -->
<svg version="1.2" baseProfile="tiny" id="Layer_1" xmlns="http://www.w3.org/2000/svg" xmlns:xlink="http://www.w3.org/1999/xlink"
	 x="0px" y="0px" viewBox="0 0 65 65" overflow="visible" xml:space="preserve">
<g id="Group_245" transform="translate(-1008 -332)">
	<g id="Group_241" transform="translate(995.451 328.473)">
		<g id="Group_236" transform="translate(12.552 3.541)">
			<path class="generate-reference-number" id="Path_1607" fill="#FFFFFF" d="M10,4.4l2.5,2.5L15,4.4l2.5,2.5L20,4.3l2.5,2.5l2.5-2.5l2.5,2.5l2.5-2.5L33.8,8l-1.3,1.3
				L30,6.8l-2.5,2.5L25,6.8l-2.5,2.5L20,6.8l-2.5,2.5l-2.5-2.5l-2.5,2.5L8.7,5.7L10,4.4z"/>
		</g>
		<g id="Group_237" transform="translate(35.108 3.527)">
			<path class="generate-reference-number" id="Path_1608" fill="#FFFFFF" d="M33.8,5.7L30,9.4l-2.5-2.5L25,9.4l-2.5-2.5L20,9.3l-2.5-2.5l-2.5,2.5l-2.5-2.5L10,9.3
				L8.7,8l3.7-3.7l2.5,2.5l2.5-2.5l2.5,2.5l2.5-2.5L25,6.8l2.5-2.5L30,6.9l2.5-2.5L33.8,5.7z"/>
		</g>
		<g id="Group_238" transform="translate(12.55 54.845)">
			<path class="generate-reference-number" id="Path_1609" fill="#FFFFFF" d="M8.7,8l3.7-3.7l2.5,2.5l2.5-2.5L20,6.8l2.5-2.5L25,6.9l2.5-2.5L30,6.9l2.5-2.5l1.3,1.3
				l-3.7,3.7l-2.5-2.5l-2.5,2.5l-2.5-2.5L20,9.4l-2.6-2.6L15,9.3l-2.5-2.5L10,9.3L8.7,8z"/>
		</g>
		<g id="Group_239" transform="translate(35.105 54.859)">
			<path class="generate-reference-number" id="Path_1610" fill="#FFFFFF" d="M32.5,9.3L30,6.8l-2.5,2.5L25,6.8l-2.6,2.6l-2.5-2.5l-2.5,2.5l-2.5-2.5l-2.5,2.5L8.7,5.7
				l1.3-1.3l2.5,2.5l2.5-2.5l2.5,2.5L20,4.3l2.5,2.5L25,4.3l2.5,2.5L30,4.3L33.8,8L32.5,9.3z"/>
		</g>
		<rect class="generate-reference-number" id="Rectangle_490" x="21.2" y="9.2" fill="#FFFFFF" width="1.9" height="53.6"/>
		<rect class="generate-reference-number" id="Rectangle_491" x="67" y="9.2" fill="#FFFFFF" width="1.9" height="53.7"/>
		<g id="Group_240" transform="translate(28.838 21.294)">
			<path class="generate-reference-number" id="Path_1611" fill="#FFFFFF" d="M16.3,12.4c-0.1,0-0.1,0-0.2,0V9.9c1.2,0.2,2.4,0.7,3.4,1.4l2.1-3c-1.6-1.2-3.5-1.9-5.5-2
				V4.3h-1.1v2.1c-3.5,0.1-5.7,2.1-5.7,4.9v0c0,3.1,2.5,4,5.7,4.8v2.5c-1.5-0.2-2.9-0.8-4-1.8l-2.4,2.8c1.8,1.5,4,2.4,6.4,2.5V24
				h1.1v-1.8c3.6-0.1,5.9-1.9,5.9-5v0C22,14.3,19.9,13.1,16.3,12.4z M13.7,10.9L13.7,10.9c0-0.6,0.5-1,1.4-1v2.2
				C14,11.7,13.7,11.4,13.7,10.9z M17.8,17.6c0,0.6-0.6,1-1.6,1v-2.3C17.4,16.7,17.8,17,17.8,17.6L17.8,17.6z"/>
		</g>
	</g>
</g>
</svg>
