<?xml version="1.0" encoding="utf-8"?>
<!-- Generator: Adobe Illustrator 23.1.0, SVG Export Plug-In . SVG Version: 6.00 Build 0)  -->
<svg version="1.1" id="Layer_1" xmlns="http://www.w3.org/2000/svg" xmlns:xlink="http://www.w3.org/1999/xlink" x="0px" y="0px"
	 viewBox="0 0 600 583" style="enable-background:new 0 0 600 583;" xml:space="preserve">
<g>
	<path class="hap-icon" d="M179.8,73.7c-12.6,17-32.9,23.1-32.9,23.1s0.2-21.5,12.8-38.5c12.6-17,32.9-23,32.9-23S192.4,56.7,179.8,73.7z"/>
	<path class="hap-icon"  d="M161.3,125c-20.7,3-39.3-7.2-39.3-7.2s15-15.1,35.8-18.1c20.7-3,39.3,7.3,39.3,7.3S182,122,161.3,125z"/>
	<path class="hap-icon" d="M119.8,169.1c-18.3,10.3-39.3,7.4-39.3,7.4s8.8-19.5,27.1-29.9c18.3-10.3,39.2-7.4,39.2-7.4S138.1,158.8,119.8,169.1z"/>
	<path class="hap-icon" d="M93.6,234.7C80.6,251.4,60.3,257,60.3,257s0.6-21.5,13.5-38.2c12.9-16.8,33.3-22.4,33.3-22.4S106.5,217.9,93.6,234.7z"/>
	<path class="hap-icon" d="M95.9,303.8c-5.4,20.6-21.9,34-21.9,34s-7.8-20-2.4-40.6c5.4-20.6,21.9-33.9,21.9-33.9S101.2,283.3,95.9,303.8z"/>
	<path class="hap-icon" d="M119.5,360.8c3.8,20.9-5.6,40.2-5.6,40.2s-15.4-14.7-19.1-35.6c-3.8-21,5.6-40.2,5.6-40.2S115.7,339.9,119.5,360.8z"/>
	<path class="hap-icon" d="M158.1,397.7c9.3,19.1,5.5,40.2,5.5,40.2s-18.8-9.8-28.1-28.9c-9.3-19.1-5.5-40.2-5.5-40.2S148.9,378.6,158.1,397.7z"/>
	<path class="hap-icon" d="M212.6,425.1c15,14.9,18.2,36.1,18.2,36.1s-20.9-2.9-35.9-17.8c-14.9-14.9-18.3-36.1-18.3-36.1S197.6,410.3,212.6,425.1z"
		/>
	<path class="hap-icon" d="M77.1,179c0.4,21.3-11.8,38.8-11.8,38.8s-12.9-17-13.3-38.3c-0.4-21.3,11.9-38.8,11.9-38.8S76.7,157.7,77.1,179z"/>
	<path class="hap-icon" d="M55.5,266.1c10.8,18.2,8.9,39.6,8.9,39.6s-19.6-8.1-30.4-26.3c-10.8-18.2-8.8-39.6-8.8-39.6S44.7,247.9,55.5,266.1z"/>
	<path class="hap-icon" d="M69.6,341.2c17,12.4,23.4,32.9,23.4,32.9s-21.1,0.3-38.1-12.2c-17-12.4-23.4-32.9-23.4-32.9S52.6,328.7,69.6,341.2z"/>
	<path class="hap-icon" d="M114.1,407.6c20.2,5.5,33.4,22.3,33.4,22.3s-19.7,7.9-39.9,2.4C87.3,426.9,74.2,410,74.2,410S93.8,402.1,114.1,407.6z"/>
	<path class="hap-icon" d="M158.7,443c20.9-1.4,38.6,10.3,38.6,10.3s-16.1,13.9-37,15.2c-20.9,1.4-38.6-10.3-38.6-10.3S137.8,444.3,158.7,443z"/>
	<path class="hap-icon" d="M217.1,469.2c20-6.4,39.9,0.5,39.9,0.5s-12.4,17.4-32.3,23.9c-19.9,6.5-39.9-0.5-39.9-0.5S197.2,475.7,217.1,469.2z"/>
	<path class="hap-icon" d="M118.3,116.3c-6.5,20.2-23.8,32.6-23.8,32.6s-6.6-20.4-0.1-40.6c6.6-20.2,23.8-32.6,23.8-32.6S124.9,96.1,118.3,116.3z"/>
	<path class="hap-icon" d="M276.3,448.4c-17.1-12.3-38.2-11.8-38.2-11.8s6.6,20.4,23.7,32.7c17.1,12.3,38.2,11.8,38.2,11.8S293.4,460.7,276.3,448.4z"
		/>
	<path class="hap-icon" d="M420.2,73.7c12.6,17,32.9,23.1,32.9,23.1s-0.2-21.5-12.8-38.5c-12.7-17-32.9-23-32.9-23S407.6,56.7,420.2,73.7z"/>
	<path class="hap-icon" d="M438.7,125c20.7,3,39.3-7.2,39.3-7.2s-15-15.1-35.7-18.1c-20.7-3-39.3,7.3-39.3,7.3S418,122,438.7,125z"/>
	<path class="hap-icon" d="M480.2,169.1c18.3,10.3,39.3,7.4,39.3,7.4s-8.8-19.5-27.1-29.9c-18.3-10.3-39.2-7.4-39.2-7.4S461.9,158.8,480.2,169.1z"/>
	<path class="hap-icon" d="M506.4,234.7c12.9,16.7,33.3,22.4,33.3,22.4s-0.6-21.5-13.5-38.2c-12.9-16.8-33.3-22.4-33.3-22.4S493.5,217.9,506.4,234.7z
		"/>
	<path class="hap-icon" d="M504.1,303.8c5.4,20.6,22,34,22,34s7.8-20,2.4-40.6c-5.4-20.6-21.9-33.9-21.9-33.9S498.7,283.3,504.1,303.8z"/>
	<path class="hap-icon" d="M480.5,360.8c-3.7,20.9,5.6,40.2,5.6,40.2s15.4-14.7,19.2-35.6c3.7-21-5.6-40.2-5.6-40.2S484.3,339.9,480.5,360.8z"/>
	<path class="hap-icon" d="M441.8,397.7c-9.3,19.1-5.5,40.2-5.5,40.2s18.8-9.8,28.1-28.9c9.3-19.1,5.5-40.2,5.5-40.2S451.1,378.6,441.8,397.7z"/>
	<path class="hap-icon" d="M387.4,425.1c-15,14.9-18.2,36.1-18.2,36.1s20.9-2.9,35.9-17.8c14.9-14.9,18.3-36.1,18.3-36.1S402.4,410.3,387.4,425.1z"/>
	<path class="hap-icon" d="M522.9,179c-0.4,21.3,11.9,38.8,11.9,38.8s12.9-17,13.3-38.3c0.4-21.3-11.9-38.8-11.9-38.8S523.3,157.7,522.9,179z"/>
	<path class="hap-icon" d="M544.5,266.1c-10.8,18.2-8.9,39.6-8.9,39.6s19.6-8.1,30.4-26.3c10.8-18.2,8.8-39.6,8.8-39.6S555.3,247.9,544.5,266.1z"/>
	<path class="hap-icon" d="M530.4,341.2c-17,12.4-23.4,32.9-23.4,32.9s21.1,0.3,38.1-12.2c17-12.4,23.4-32.9,23.4-32.9S547.4,328.7,530.4,341.2z"/>
	<path class="hap-icon" d="M485.9,407.6c-20.2,5.5-33.4,22.3-33.4,22.3s19.7,7.9,39.9,2.4c20.3-5.5,33.4-22.3,33.4-22.3S506.2,402.1,485.9,407.6z"/>
	<path class="hap-icon" d="M441.3,443c-20.9-1.4-38.6,10.3-38.6,10.3s16.1,13.9,37,15.2c20.9,1.4,38.6-10.3,38.6-10.3S462.2,444.3,441.3,443z"/>
	<path class="hap-icon" d="M382.9,469.2c-20-6.4-39.9,0.5-39.9,0.5s12.4,17.4,32.3,23.9c19.9,6.5,39.9-0.5,39.9-0.5S402.8,475.7,382.9,469.2z"/>
	<path class="hap-icon" d="M481.7,116.3c6.5,20.2,23.8,32.6,23.8,32.6s6.6-20.4,0.1-40.6c-6.5-20.2-23.8-32.6-23.8-32.6S475.1,96.1,481.7,116.3z"/>
	<path class="hap-icon" d="M323.7,448.4c17.1-12.3,38.2-11.8,38.2-11.8s-6.6,20.4-23.7,32.7c-17.1,12.3-38.2,11.8-38.2,11.8S306.6,460.7,323.7,448.4z
		"/>
	<path class="hap-icon" d="M228.1,564.8c-0.6,0-1.2-0.2-1.7-0.5c-1.5-0.9-2-3-1.1-4.5c0.6-1,14.7-24.5,45.3-46.1c30.3-21.3,51.1-30.4,52-30.7
		c1.6-0.7,3.6,0.1,4.2,1.8c0.7,1.7-0.1,3.6-1.7,4.3c-0.2,0.1-21.1,9.2-50.8,30.1c-29.4,20.7-43.3,43.9-43.5,44.1
		C230.3,564.2,229.2,564.8,228.1,564.8z"/>
	<path class="hap-icon" d="M371.9,564.8c-1.1,0-2.2-0.6-2.8-1.6c-0.1-0.2-14.1-23.4-43.5-44.1c-29.7-20.9-50.6-30-50.8-30.1c-1.6-0.7-2.4-2.6-1.7-4.3
		c0.7-1.7,2.6-2.5,4.2-1.8c0.9,0.4,21.7,9.4,52,30.7c30.6,21.6,44.7,45.1,45.3,46.1c0.9,1.6,0.4,3.6-1.1,4.5
		C373,564.6,372.4,564.8,371.9,564.8z"/>
	<path class="hap-icon" d="M298.7,101c-88.8,0-160.9,72.1-160.9,161c0,88.9,72.1,160.9,160.9,160.9c88.9,0,161-72.1,161-160.9
		C459.7,173,387.6,101,298.7,101z M298.7,410.7c-82,0-148.8-66.7-148.8-148.8c0-82.1,66.7-148.8,148.8-148.8
		c82.1,0,148.8,66.8,148.8,148.8C447.5,344,380.8,410.7,298.7,410.7z"/>
	<path class="hap-icon" d="M298.7,119.1C220,119.1,156,183.2,156,261.9c0,78.7,64,142.8,142.7,142.8c78.7,0,142.8-64,142.8-142.8
		C441.5,183.2,377.4,119.1,298.7,119.1z M357.3,303.9H240.2v-79.1l25.6,23l32.9-51.4l32.9,51.4l25.6-23V303.9z"/>
</g>
</svg>
