<?xml version="1.0" encoding="utf-8"?>
<!-- Generator: Adobe Illustrator 23.1.0, SVG Export Plug-In . SVG Version: 6.00 Build 0)  -->
<svg version="1.1" id="Layer_1" xmlns="http://www.w3.org/2000/svg" xmlns:xlink="http://www.w3.org/1999/xlink" x="0px" y="0px"
	 viewBox="0 0 77.5 71.5" style="enable-background:new 0 0 77.5 71.5;" xml:space="preserve">
<style type="text/css">
	.hex-icon{fill:#000000;}
</style>
<g>
	<path class="hex-icon" d="M47.5,12.3l19.4,23.6L47.5,59.5h-18L10.2,35.9l19.4-23.6H47.5 M49.1,9H28L5.9,35.9L28,62.8h21.2l22-26.9L49.1,9L49.1,9z"/>
	<path class="hex-icon" d="M45.7,54H31.4L16.6,35.9l14.9-18.1h14.3l14.9,18.1L45.7,54z M32,52.9h13.2l13.9-17L45.1,19H32L18,35.9L32,52.9z"/>
	<path class="hex-icon" d="M41.9,44.5h-6.8l-0.1-0.1l-6.9-8.5l7-8.6h6.8l0.1,0.1l6.9,8.5L41.9,44.5z M35.5,43.9h6.2l6.5-8l-6.6-8h-6.2l-6.6,8
		L35.5,43.9z"/>
</g>
</svg>
