<?xml version="1.0" encoding="utf-8"?>
<!-- Generator: Adobe Illustrator 23.1.0, SVG Export Plug-In . SVG Version: 6.00 Build 0)  -->
<svg version="1.2" baseProfile="tiny" id="Layer_1" xmlns="http://www.w3.org/2000/svg" xmlns:xlink="http://www.w3.org/1999/xlink"
	 x="0px" y="0px" viewBox="0 0 55 16" xml:space="preserve">
<g>
	<g>
		<path fill="#FFFFFF" d="M46,11.3l1.6,2h4.8l-4-4.9L46,11.3z M52.2,2.6h-4.4l-2.1,2.6l-2.1-2.6h-4.7l4.3,5.3l-4.3,5.4h4.5L52.2,2.6
			z"/>
		<path fill="#FFFFFF" d="M24.6,9.8L24.6,9.8v3.6h3.7V2.6h-3.7v3.7l0,0V9.8z M16.9,2.6v10.7h3.7V9.8h3.3V6.3h-3.3V2.6H16.9z"/>
		<g>
			<polygon fill="#FFFFFF" points="28.9,2.6 28.9,5.9 32.7,5.9 36.3,5.9 38.8,5.9 38.8,2.6 			"/>
			<polygon fill="#FFFFFF" points="28.9,6.6 28.9,13.4 38.8,13.4 38.8,10.1 33.2,10.1 33.2,10.1 32.7,10.1 32.7,9.4 38.8,9.4 
				38.8,6.6 			"/>
		</g>
	</g>
	<path fill="#FFFFFF" d="M10.9,3.3L14.7,8l-3.9,4.7H7.3L3.4,8l3.9-4.7L10.9,3.3 M11.2,2.6H7L2.6,8L7,13.4h4.2L15.6,8L11.2,2.6
		L11.2,2.6z"/>
	<path fill="#00C3FF" d="M10.5,11.6H7.6L4.7,8l3-3.6h2.8l3,3.6L10.5,11.6z M7.8,11.4h2.6L13.2,8l-2.8-3.4H7.8L5,8L7.8,11.4z"/>
	<path fill="#00C3FF" d="M9.7,9.7H8.4l0,0L7,8l1.4-1.7h1.3l0,0L11.1,8L9.7,9.7z M8.5,9.6h1.2L11,8L9.7,6.4H8.5L7.1,8L8.5,9.6z"/>
</g>
</svg>
