<?xml version="1.0" encoding="utf-8"?>
<!-- Generator: Adobe Illustrator 23.1.0, SVG Export Plug-In . SVG Version: 6.00 Build 0)  -->
<svg version="1.2" baseProfile="tiny" id="Layer_1" xmlns="http://www.w3.org/2000/svg" xmlns:xlink="http://www.w3.org/1999/xlink"
	 x="0px" y="0px" viewBox="0 0 86 86" xml:space="preserve">
<g>
	<g>
		<path fill="#FFFFFF" d="M998.8,660.8h-15.4c-0.5,0-0.9-0.2-1.1-0.6l-7.7-12.8c-0.2-0.4-0.2-0.9,0-1.3l7.7-12.8
			c0.2-0.4,0.6-0.6,1.1-0.6h3.8v2.6h-3.1l-6.9,11.5l6.9,11.5H998l6.9-11.5l-6.9-11.5h-3.1v-2.6h3.8c0.5,0,0.9,0.2,1.1,0.6l7.7,12.8
			c0.2,0.4,0.2,0.9,0,1.3l-7.7,12.8C999.6,660.6,999.2,660.8,998.8,660.8z"/>
		<rect x="989.8" y="632.6" fill="#FFFFFF" width="2.6" height="2.6"/>
		<rect x="1034.7" y="632.6" fill="#FFFFFF" width="2.6" height="2.6"/>
		<path fill="#FFFFFF" d="M1043,635.2h-3.2v-2.6h2.5l6.3-10.3l-6.3-10.3h-12.7l-6.3,10.3l6.3,10.3h2.5v2.6h-3.2
			c-0.4,0-0.9-0.2-1.1-0.6l-7.1-11.5c-0.3-0.4-0.3-0.9,0-1.3l7.1-11.5c0.2-0.4,0.6-0.6,1.1-0.6h14.1c0.4,0,0.9,0.2,1.1,0.6l7.1,11.5
			c0.3,0.4,0.3,0.9,0,1.3l-7.1,11.5C1043.9,634.9,1043.4,635.2,1043,635.2z"/>
		<path fill="#FFFFFF" d="M1021.8,650.6c-2.1,0-3.8-1.7-3.8-3.8s1.7-3.8,3.8-3.8s3.8,1.7,3.8,3.8S1024,650.6,1021.8,650.6z
			 M1021.8,645.4c-0.7,0-1.3,0.6-1.3,1.3c0,0.7,0.6,1.3,1.3,1.3c0.7,0,1.3-0.6,1.3-1.3C1023.1,646,1022.6,645.4,1021.8,645.4z"/>
		<rect x="1010.3" y="645.4" fill="#FFFFFF" width="5.1" height="2.6"/>
		
			<rect x="1023.4" y="638.4" transform="matrix(0.5547 -0.8321 0.8321 0.5547 -75.4825 1138.304)" fill="#FFFFFF" width="4.6" height="2.6"/>
	</g>
</g>
<g>
	<path fill="#FFFFFF" d="M28.7,35.3c0.3,0.2,0.5,0.2,0.8,0.2c0.6,0,1.1-0.3,1.4-0.8c0.5-0.8,0.2-1.8-0.6-2.3l-2.1-1.2
		c-0.8-0.5-1.8-0.2-2.3,0.6c-0.5,0.8-0.2,1.8,0.6,2.3L28.7,35.3z"/>
	<path fill="#FFFFFF" d="M35.7,48.5c0.9,0,1.7-0.7,1.7-1.7v-9.5c0-0.6-0.3-1.1-0.8-1.4l-2.2-1.2c-0.8-0.5-1.8-0.2-2.3,0.6
		c-0.5,0.8-0.2,1.8,0.6,2.3l1.3,0.8v8.5C34,47.8,34.8,48.5,35.7,48.5z"/>
	<path fill="#FFFFFF" d="M62.3,48.9c0.3,0.5,0.9,0.8,1.4,0.8c0.3,0,0.6-0.1,0.8-0.2l2.1-1.2c0.5-0.3,0.8-0.8,0.8-1.4v-5.4
		c0-0.9-0.7-1.7-1.7-1.7s-1.7,0.7-1.7,1.7v4.5l-1.2,0.7C62.1,47.1,61.8,48.1,62.3,48.9z"/>
	<path fill="#FFFFFF" d="M59.1,48.8l-2.4,1.4c-0.8,0.5-1.1,1.5-0.6,2.3c0.3,0.5,0.9,0.8,1.4,0.8c0.3,0,0.6-0.1,0.8-0.2l2.4-1.4
		c0.8-0.5,1.1-1.5,0.6-2.3C60.9,48.6,59.9,48.4,59.1,48.8z"/>
	<path fill="#FFFFFF" d="M79.1,31.4c0.8-0.5,1.1-1.5,0.6-2.3c-0.5-0.8-1.5-1.1-2.3-0.6l-5.1,3l-6.4-3.7c-0.8-0.5-1.8-0.2-2.3,0.6
		c-0.5,0.8-0.2,1.8,0.6,2.3l6.6,3.8v15.3l-13.3,7.7l-13.3-7.7V34.5l13.3-7.7l2.7,1.5c0.8,0.5,1.8,0.2,2.3-0.6
		c0.5-0.8,0.2-1.8-0.6-2.3l-2.7-1.5v-5.7c0-0.9-0.7-1.7-1.7-1.7s-1.7,0.7-1.7,1.7v5.7l-13.4,7.7l-13.4-7.7v-5.7
		c0-0.9-0.7-1.7-1.7-1.7s-1.7,0.7-1.7,1.7v5.7l-13,7.5l-5.1-3c-0.8-0.5-1.8-0.2-2.3,0.6c-0.5,0.8-0.2,1.8,0.6,2.3l4.9,2.8v15.3
		L6,52.3c-0.8,0.5-1.1,1.5-0.6,2.3c0.3,0.5,0.9,0.8,1.4,0.8c0.3,0,0.6-0.1,0.8-0.2l4.7-2.7l2.9,1.7c0.8,0.5,1.8,0.2,2.3-0.6
		c0.5-0.8,0.2-1.8-0.6-2.3l-2.6-1.5V34.5l13.3-7.7l13.3,7.7v15.3l-13.3,7.7l-6.8-3.9c-0.8-0.5-1.8-0.2-2.3,0.6
		C18,55,18.3,56,19.1,56.4l6.8,3.9V66c0,0.9,0.7,1.7,1.7,1.7s1.7-0.7,1.7-1.7v-5.7l13.4-7.7l13.4,7.7V66c0,0.9,0.7,1.7,1.7,1.7
		s1.7-0.7,1.7-1.7v-5.7l13.5-7.8l4.7,2.7c0.3,0.2,0.5,0.2,0.8,0.2c0.6,0,1.1-0.3,1.4-0.8c0.5-0.8,0.2-1.8-0.6-2.3l-4.9-2.8V34.2
		L79.1,31.4z"/>
</g>
</svg>
