<?xml version="1.0" encoding="utf-8"?>
<!-- Generator: Adobe Illustrator 19.0.0, SVG Export Plug-In . SVG Version: 6.00 Build 0)  -->
<svg version="1.1" id="Layer_1" xmlns="http://www.w3.org/2000/svg" xmlns:xlink="http://www.w3.org/1999/xlink" x="0px" y="0px"
	 viewBox="-443 244.9 72 72.1" style="enable-background:new -443 244.9 72 72.1;" xml:space="preserve">
<style type="text/css">
	.st0{fill:#3A3A3A;}
</style>
<g id="XMLID_4_">
	<path id="XMLID_57_" class="st0" d="M-443,244.9V317h35.9h36.1v-72.1H-443z M-399.2,273.9c-1.9-1.9-4.5-3.1-7.4-3.1
		s-5.5,1.2-7.4,3.1h-12.8v-5.3c0-2.7,1.3-5.1,3.4-6.5v8.6h1.6v-9.5c0.4-0.1,0.8-0.3,1.2-0.4v9.9h1.6v-10.1c0.1,0,0.1,0,0.2,0h0.9
		v10.1h1.6v-10.1h21.9c4.4,0,8,3.6,8,8l0,0v5.3H-399.2z M-398.6,281.1c0,4.4-3.6,8-8,8s-8-3.6-8-8c0-2.4,1.1-4.5,2.7-6
		c0.6-0.5,1.2-0.9,2-1.3c1-0.5,2.1-0.7,3.3-0.7c1.2,0,2.3,0.3,3.3,0.7c0.7,0.3,1.4,0.8,2,1.3C-399.7,276.6-398.6,278.8-398.6,281.1z
		 M-418.8,301.3c-4.4,0-8-3.6-8-8v-18.2h11.8c-1.2,1.7-1.9,3.8-1.9,6c0,5.7,4.6,10.4,10.4,10.4c5.7,0,10.4-4.6,10.4-10.4
		c0-2.2-0.7-4.3-1.9-6h11.8v18.2c0,4.4-3.6,8-8,8C-394.2,301.3-418.8,301.3-418.8,301.3z"/>
	<circle id="XMLID_6_" class="st0" cx="-406.6" cy="281.1" r="5.9"/>
	<path id="XMLID_5_" class="st0" d="M-391.3,264h-4.3c-0.7,0-1.3,0.6-1.3,1.3v4.4c0,0.7,0.6,1.3,1.3,1.3h4.3c0.7,0,1.3-0.6,1.3-1.3
		v-4.4C-390,264.5-390.6,264-391.3,264z"/>
</g>
</svg>
