<?xml version="1.0" encoding="utf-8"?>
<!-- Generator: Adobe Illustrator 25.2.3, SVG Export Plug-In . SVG Version: 6.00 Build 0)  -->
<svg version="1.1" id="layer" xmlns="http://www.w3.org/2000/svg" xmlns:xlink="http://www.w3.org/1999/xlink" x="0px" y="0px"
	 viewBox="0 0 652 652" style="enable-background:new 0 0 652 652;" xml:space="preserve">
<path class="osko-logo" d="M383.4,326.2c0.4-11.6-4.1-22.8-12.2-31c-8.2-8.3-19.6-12.8-31.3-12.4c-23-1-42.5,16.9-43.4,40
	c0,1.1,0,2.3,0,3.4c-0.4,11.6,4,22.8,12,31.2c8.3,8.3,19.7,12.7,31.4,12.2c11.7,0.5,23-3.9,31.2-12.2
	C379.4,349.1,383.8,337.9,383.4,326.2z M368.5,326.2c0.5,8.2-2.4,16.3-8.1,22.3c-5.5,5.3-12.9,8.1-20.5,7.8
	c-7.7,0.2-15.1-2.6-20.6-7.8c-5.6-6-8.5-14.1-7.9-22.3c-0.5-8.2,2.3-16.3,7.9-22.3c5.6-5.3,13-8.1,20.6-7.8c7.6-0.3,15,2.6,20.5,7.8
	C366.1,309.9,369.1,318,368.5,326.2z M261,320.6l34.3-36.1H276l-30.9,33.1v-66.4h-14.5V368h14.6v-31.4l5.4-5.5l30.9,36.8h18.9
	L261,320.6z M168.9,305c0-6.2,6.9-9.6,14.4-9.6c9,0,15.2,4.3,16.8,12.3h14.8c-2-15.9-13.9-24.9-31.6-24.9
	c-7.4-0.3-14.8,2.1-20.6,6.7c-5,3.8-7.9,9.7-8,15.9c0,12.7,7.8,19.9,24.8,24c17.7,4.5,24.3,7.8,24.3,15s-7.6,11.8-17.1,11.8
	c-11.1,0-17.8-4.4-20.7-12.7h-14.2c2.1,16.5,15.1,26.2,34.7,26.2c8.4,0.4,16.6-2.3,23-7.7c5.8-4.8,9-12.1,8.8-19.6
	c0-12.5-8.6-19.1-27.4-24C175,314.4,168.9,311.1,168.9,305z M127.9,352.8c11.3-11.2,16.9-25.7,16.9-43.4s-5.6-31.9-16.9-43.1
	c-11.1-11.1-26.2-17.2-41.9-16.9c-15.7-0.4-30.8,5.7-41.9,16.9c-11.3,11.2-16.9,25.5-16.9,43.2s5.6,32.3,16.9,43.4
	C55.2,364,70.3,370,86,369.6c15.7,0.4,30.8-5.6,41.9-16.7V352.8z M128.3,309.4c0.5,12-3.6,23.8-11.5,32.9
	c-7.9,8.5-19.2,13-30.8,12.5c-11.6,0.5-22.8-4-30.8-12.5c-7.8-9.1-12-20.8-11.5-32.8c-0.5-12,3.6-23.7,11.5-32.7
	c7.9-8.6,19.1-13.3,30.8-12.7c11.6-0.5,22.9,4.1,30.8,12.7C124.7,285.8,128.8,297.6,128.3,309.4L128.3,309.4z M527.3,366.3
	c-22.3,0-40.4-18.1-40.4-40.4s18.1-40.4,40.4-40.4s40.4,18.1,40.4,40.4l0,0C567.6,348.2,549.6,366.2,527.3,366.3 M587.8,325.9
	c0-33.4-27.1-60.5-60.5-60.5s-60.5,27.1-60.5,60.5s27.1,60.5,60.5,60.5S587.8,359.3,587.8,325.9 M535.4,227.4v20.2
	c17.9,2.2,34.6,10.2,47.5,22.9c31.4,30.8,31.8,81.2,1,112.6c-0.3,0.3-0.7,0.7-1,1c-12.8,12.7-29.6,20.8-47.5,22.9v20.2
	c51.7-4.8,91.4-48,91.7-100C626.8,275.5,587.2,232.2,535.4,227.4 M445.9,327.5c0-21.5,8.6-42.1,24-57.1c12.9-12.7,29.7-20.8,47.8-23
	v-20.3c-52,4.7-92,48.1-92.4,100.3c0.4,52.2,40.4,95.6,92.4,100.3v-20.3c-18-2.2-34.8-10.3-47.8-23
	C454.5,369.6,445.9,349,445.9,327.5"/>
</svg>
