<?xml version="1.0" encoding="utf-8"?>
<!-- Generator: Adobe Illustrator 24.2.3, SVG Export Plug-In . SVG Version: 6.00 Build 0)  -->
<svg version="1.2" baseProfile="tiny" id="Layer_1" xmlns="http://www.w3.org/2000/svg" xmlns:xlink="http://www.w3.org/1999/xlink"
	 x="0px" y="0px" viewBox="0 0 140 140" overflow="visible" xml:space="preserve">
<path class="quick-trade-success" d="M123.7,34.8c0-18.2-14.8-33-33-33c-18.3,0-33,14.8-33,33c0,5.5,1.4,10.7,3.7,15.3c-0.4,0-0.8,0-1.2,0
	c-20.4,0-36.9,7.2-36.9,16.1c0,2.5,0,11.4,0,13.8c0,3.4,2.4,6.5,6.5,9.1c0,1.5,0,4.1,0,6.6c-8.2,3-13.4,7.4-13.4,12.4
	c0,2.5,0,11.4,0,13.8c0,8.9,16.5,16.1,36.9,16.1c20.4,0,36.9-7.2,36.9-16.1c0-1.3,0-4.4,0-7.4c8.2-3,13.4-7.4,13.4-12.4
	c0-2.5,0-11.4,0-13.8c0-3.4-2.4-6.5-6.5-9.1c0-2.8,0-9,0-12C112.2,64.2,123.7,50.9,123.7,34.8z M77.7,32.5c1.3-1,3.2-0.8,4.2,0.5
	l4.5,5.7l15.4-19.1c1-1.3,2.9-1.5,4.2-0.5c1.3,1,1.5,2.9,0.5,4.2l-17.7,22c-0.6,0.7-1.4,1.1-2.3,1.1c0,0,0,0,0,0
	c-0.9,0-1.8-0.4-2.3-1.2l-6.8-8.7C76.1,35.4,76.4,33.5,77.7,32.5z M60.2,54.2c20,0,32.8,7.1,32.8,12s-12.8,12-32.8,12
	s-32.8-7.1-32.8-12S40.2,54.2,60.2,54.2z M92.9,73.7v6.4c0,1.2-0.8,2.6-2.3,3.9v-8.7C91.5,74.8,92.2,74.2,92.9,73.7z M87.9,76.9V86
	c-0.8,0.5-1.8,1-2.8,1.4v-9.3C86.1,77.7,87,77.3,87.9,76.9z M82.3,79.1v9.4c-0.9,0.3-1.8,0.6-2.8,0.9V80
	C80.5,79.7,81.4,79.4,82.3,79.1z M76.8,80.6v9.6c-0.9,0.2-1.8,0.4-2.8,0.6v-9.6C75,81,75.9,80.8,76.8,80.6z M71.2,81.6v9.6
	c-1,0.2-2.1,0.3-3.2,0.4l-2.8,0.2C64,92,62.8,92,61.6,92v-9.7c1.2,0,2.5-0.1,3.7-0.1L68,82C69.1,81.9,70.2,81.8,71.2,81.6z
	 M58.8,82.3V92c-1.3,0-2.5-0.1-3.7-0.1l-2.8-0.2c-1.1-0.1-2.2-0.2-3.2-0.4v-9.6c1.1,0.1,2.1,0.3,3.2,0.4l2.8,0.2
	C56.3,82.3,57.5,82.3,58.8,82.3z M46.3,81.2v9.6c-1-0.2-1.9-0.4-2.8-0.6l-2.8-0.7c-1-0.3-1.9-0.6-2.8-0.9v-9.4
	c0.9,0.3,1.8,0.6,2.8,0.8l2.8,0.7C44.5,80.8,45.4,81,46.3,81.2z M29.7,84c-1.5-1.4-2.3-2.7-2.3-3.9v-6.4c0.7,0.6,1.5,1.2,2.3,1.7
	l2.8,1.5c0.9,0.4,1.8,0.8,2.8,1.2v9.3c-1-0.5-1.9-0.9-2.8-1.4L29.7,84z M36.2,97.5l2.8,1.5c0.9,0.4,1.8,0.8,2.8,1.2v9.3
	c-1-0.5-1.9-0.9-2.8-1.4l-2.8-2c-1.5-1.4-2.3-2.7-2.3-3.9v-6.4C34.6,96.4,35.3,97,36.2,97.5z M22.8,126c-1.5-1.4-2.3-2.7-2.3-3.9
	v-6.4c0.7,0.6,1.5,1.2,2.3,1.7V126z M33.9,131.5c-1-0.3-1.9-0.6-2.8-0.9l-2.8-1.1c-1-0.5-1.9-0.9-2.8-1.4v-9.1
	c0.9,0.4,1.8,0.8,2.8,1.2l2.8,1c0.9,0.3,1.8,0.6,2.8,0.8V131.5z M39.4,132.8c-1-0.2-1.9-0.4-2.8-0.6v-9.6c0.9,0.2,1.8,0.4,2.8,0.6
	V132.8z M51.9,134c-1.3,0-2.5-0.1-3.7-0.1l-2.8-0.2c-1.1-0.1-2.2-0.2-3.2-0.4v-9.6c1.1,0.1,2.1,0.3,3.2,0.4l2.8,0.2
	c1.2,0.1,2.4,0.1,3.7,0.1V134z M20.5,108.2c0-2.5,3.3-5.6,9.2-8c0,0.8,0,1.5,0,2c0,8.9,16.5,16.1,36.9,16.1c1.2,0,2.4,0,3.6-0.1
	c-4.8,1.2-10.5,1.9-16.9,1.9C33.2,120.2,20.5,113.1,20.5,108.2z M44.5,110.7v-9.4c0.9,0.3,1.8,0.6,2.8,0.8v9.5
	C46.3,111.4,45.4,111,44.5,110.7z M50,112.4v-9.6c0.9,0.2,1.8,0.4,2.8,0.6l2.8,0.4c1.1,0.1,2.1,0.3,3.2,0.4v9.7
	c-1.1-0.1-2.2-0.2-3.2-0.4l-2.8-0.5C51.8,112.8,50.9,112.6,50,112.4z M61.6,114v-9.7c1.2,0.1,2.4,0.1,3.7,0.1H68
	c1.2,0,2.5-0.1,3.7-0.1v9.7c-1.2,0.1-2.4,0.1-3.7,0.1h-2.8C64,114.2,62.8,114.1,61.6,114z M64.3,133.3c-1,0.2-2.1,0.3-3.2,0.4
	l-2.8,0.2c-1.2,0.1-2.4,0.1-3.7,0.1v-9.7c1.2,0,2.5-0.1,3.7-0.1l2.8-0.2c1.1-0.1,2.2-0.2,3.2-0.4V133.3z M75.4,130.6
	c-0.9,0.3-1.8,0.6-2.8,0.9l-2.8,0.7c-0.9,0.2-1.8,0.4-2.8,0.6v-9.6c0.9-0.2,1.9-0.4,2.8-0.6l2.8-0.7c1-0.3,1.9-0.5,2.8-0.8V130.6z
	 M77.7,113.4c-1,0.2-2.1,0.3-3.2,0.4v-9.7c1.1-0.1,2.2-0.2,3.2-0.4V113.4z M80.9,128c-0.8,0.5-1.8,1-2.8,1.4v-9.3
	c1-0.4,1.9-0.8,2.8-1.2V128z M83.2,112.4c-0.9,0.2-1.8,0.4-2.8,0.6v-9.6c0.9-0.2,1.9-0.4,2.8-0.6V112.4z M86,122.1L86,122.1
	c0,1.2-0.8,2.6-2.3,3.9v-8.7c0.6-0.4,1.2-0.8,1.8-1.2c0.2,0,0.4-0.1,0.5-0.1V122.1z M88.8,110.7c-0.9,0.3-1.8,0.6-2.8,0.9v-9.5
	c1-0.3,1.9-0.5,2.8-0.8V110.7z M94.3,108.2c-0.8,0.5-1.8,1-2.8,1.4v-9.3c1-0.4,1.9-0.8,2.8-1.2V108.2z M99.4,102.2
	c0,1.2-0.8,2.6-2.3,3.9v-8.7c0.8-0.5,1.6-1.1,2.3-1.7V102.2z M99.4,88.4c0,4.9-12.8,12-32.8,12c-15,0-25.9-4-30.4-8
	c6.5,2.4,14.8,3.9,24,3.9c17.6,0,32.2-5.4,36-12.5C98.2,85.3,99.4,86.9,99.4,88.4z"/>
</svg>
