<?xml version="1.0" encoding="utf-8"?>
<!-- Generator: Adobe Illustrator 24.2.3, SVG Export Plug-In . SVG Version: 6.00 Build 0)  -->
<svg version="1.2" baseProfile="tiny" id="Layer_1" xmlns="http://www.w3.org/2000/svg" xmlns:xlink="http://www.w3.org/1999/xlink"
	 x="0px" y="0px" viewBox="0 0 140 140" overflow="visible" xml:space="preserve">
<g>
	<path class="quick-trade-insufficient-funds" d="M26.6,53.5v59c0,1.3,1,2.3,2.3,2.3h82.2c1.3,0,2.3-1,2.3-2.3v-16H79.1c-6.3,0-11.4-5.1-11.4-11.4c0-6.3,5.1-11.4,11.4-11.4
		h34.3V57.7c0-1.2-1-2.3-2.2-2.3l-4.8-0.1H32.5C30.3,55.3,28.3,54.6,26.6,53.5z M22.1,45.7c0-0.3,0-0.6,0-0.9v-0.9
		c0-6.3,5.1-11.4,11.4-11.4h13.7c1.3,0,2.3,1,2.3,2.3s-1,2.3-2.3,2.3H33.4c-3.8,0-6.9,3.1-6.9,6.9v0.9c0,3.3,2.7,5.9,5.9,5.9h71.7
		V37H92.8c-1.3,0-2.3-1-2.3-2.3s1-2.3,2.3-2.3h13.7c1.3,0,2.3,1,2.3,2.3v16.1l2.5,0.1c3.7,0.1,6.7,3.1,6.7,6.9v54.7
		c0,3.8-3.1,6.9-6.9,6.9H28.9c-3.8,0-6.9-3.1-6.9-6.9V46.2C22,46,22,45.9,22.1,45.7z M113.4,91.8V78.1H79.1c-3.8,0-6.9,3.1-6.9,6.9
		s3.1,6.9,6.9,6.9H113.4z M72.3,34.7c0,1.3-1,2.3-2.3,2.3s-2.3-1-2.3-2.3V21c0-1.3,1-2.3,2.3-2.3s2.3,1,2.3,2.3V34.7z M59.8,33.4
		c0.5,1.1,0,2.5-1.1,3c-1.1,0.5-2.5,0-3-1.1l-2.9-6.2c-0.5-1.1,0-2.5,1.1-3s2.5,0,3,1.1L59.8,33.4z M84.3,35.4
		c-0.5,1.1-1.9,1.6-3,1.1c-1.1-0.5-1.6-1.9-1.1-3l2.9-6.2c0.5-1.1,1.9-1.6,3-1.1s1.6,1.9,1.1,3L84.3,35.4z M83.7,89.6
		c-2.5,0-4.6-2-4.6-4.6c0-2.5,2-4.6,4.6-4.6c2.5,0,4.6,2,4.6,4.6C88.3,87.5,86.2,89.6,83.7,89.6z"/>
</g>
</svg>
