<svg xmlns="http://www.w3.org/2000/svg" width="156.52" height="169.6" viewBox="0 0 156.52 169.6">
    <g transform="translate(-8476 -2052.399)">
        <g transform="translate(8468.26 2049.99)">
            <path class="send-email-code" d="M11.61,172c.01,0,.01.01.02.01A.035.035,0,0,1,11.61,172Zm.7-2.46a.824.824,0,0,1,.19.06,4.036,4.036,0,0,0,1.35.27H160.09a3.759,3.759,0,0,0,2.23-.81c.04-.03.13-.09.21-.14a3.4,3.4,0,0,0,.68-.76l1.05.73-1.06-.71,1.06.71-1.04-.74c.04-.06.07-.11.11-.16a3.65,3.65,0,0,0,.69-2.05,3.347,3.347,0,0,0-.06-.47l-.04-.36V92.87a3.892,3.892,0,0,0-.25-1.28.59.59,0,0,0-.04-.08l-.08-.19a3.825,3.825,0,0,0-.86-1.29l-.4-.39L143.05,71.45V6.85a3.94,3.94,0,0,0-7.88,0v97.57l-18.81,12.33L89.7,90.08a3.938,3.938,0,0,0-2.78-1.16,3.879,3.879,0,0,0-2.78,1.16L57.49,116.73,38.66,104.4V10.29h100a3.94,3.94,0,1,0,0-7.88H34.73a3.948,3.948,0,0,0-3.94,3.94V71.44L11.14,90.02a3.934,3.934,0,0,0-.87,1.32l-.05.12c-.02.03-.03.07-.05.1a4.2,4.2,0,0,0-.25,1.31v72.98a1.134,1.134,0,0,1,.03.25,2.836,2.836,0,0,0,.07.45l.03.16a4.75,4.75,0,0,0,.14.57.64.64,0,0,1,.05.19l.02.01.15.24a3.645,3.645,0,0,0,.32.54,3.334,3.334,0,0,0,.35.39,4.686,4.686,0,0,0,.47.43,3.224,3.224,0,0,0,.48.28c.12.08.19.13.28.18Zm-4.57-1.47a.944.944,0,0,1,.03.09A.944.944,0,0,1,7.74,168.07ZM150.48,162H23.36L86.92,98.44ZM17.79,156.43V100.16l34,22.27Zm138.26-.01-34-34,34-22.27Zm-13-57.17V82.28L153.66,92.3Zm-112.26,0L20.18,92.31,30.79,82.28Z" fill="#010101"/>
        </g>
        <path class="send-email-code" d="M13.726,7.306a.776.776,0,0,1,1.492.4h0a.776.776,0,0,0,1.258.726h0a.776.776,0,0,1,1.092,1.092h0a.776.776,0,0,0,.726,1.258h0a.776.776,0,0,1,.4,1.492h0a.776.776,0,0,0,0,1.452h0a.776.776,0,0,1-.4,1.492h0a.776.776,0,0,0-.726,1.258h0a.776.776,0,0,1-1.092,1.092h0a.776.776,0,0,0-1.258.726h0a.776.776,0,0,1-1.492.4h0a.776.776,0,0,0-1.452,0h0a.776.776,0,0,1-1.492-.4h0a.776.776,0,0,0-1.258-.726h0a.776.776,0,0,1-1.092-1.092h0a.776.776,0,0,0-.726-1.258h0a.776.776,0,0,1-.4-1.492h0a.776.776,0,0,0,0-1.452h0a.776.776,0,0,1,.4-1.492h0a.776.776,0,0,0,.726-1.258h0A.776.776,0,0,1,9.524,8.432h0a.776.776,0,0,0,1.258-.726h0a.776.776,0,0,1,1.492-.4h0a.776.776,0,0,0,1.452,0Z" transform="translate(8508 2085)"/>
        <path class="send-email-code" d="M13.726,7.306a.776.776,0,0,1,1.492.4h0a.776.776,0,0,0,1.258.726h0a.776.776,0,0,1,1.092,1.092h0a.776.776,0,0,0,.726,1.258h0a.776.776,0,0,1,.4,1.492h0a.776.776,0,0,0,0,1.452h0a.776.776,0,0,1-.4,1.492h0a.776.776,0,0,0-.726,1.258h0a.776.776,0,0,1-1.092,1.092h0a.776.776,0,0,0-1.258.726h0a.776.776,0,0,1-1.492.4h0a.776.776,0,0,0-1.452,0h0a.776.776,0,0,1-1.492-.4h0a.776.776,0,0,0-1.258-.726h0a.776.776,0,0,1-1.092-1.092h0a.776.776,0,0,0-.726-1.258h0a.776.776,0,0,1-.4-1.492h0a.776.776,0,0,0,0-1.452h0a.776.776,0,0,1,.4-1.492h0a.776.776,0,0,0,.726-1.258h0A.776.776,0,0,1,9.524,8.432h0a.776.776,0,0,0,1.258-.726h0a.776.776,0,0,1,1.492-.4h0a.776.776,0,0,0,1.452,0Z" transform="translate(8542 2085)"/>
        <path class="send-email-code" d="M13.726,7.306a.776.776,0,0,1,1.492.4h0a.776.776,0,0,0,1.258.726h0a.776.776,0,0,1,1.092,1.092h0a.776.776,0,0,0,.726,1.258h0a.776.776,0,0,1,.4,1.492h0a.776.776,0,0,0,0,1.452h0a.776.776,0,0,1-.4,1.492h0a.776.776,0,0,0-.726,1.258h0a.776.776,0,0,1-1.092,1.092h0a.776.776,0,0,0-1.258.726h0a.776.776,0,0,1-1.492.4h0a.776.776,0,0,0-1.452,0h0a.776.776,0,0,1-1.492-.4h0a.776.776,0,0,0-1.258-.726h0a.776.776,0,0,1-1.092-1.092h0a.776.776,0,0,0-.726-1.258h0a.776.776,0,0,1-.4-1.492h0a.776.776,0,0,0,0-1.452h0a.776.776,0,0,1,.4-1.492h0a.776.776,0,0,0,.726-1.258h0A.776.776,0,0,1,9.524,8.432h0a.776.776,0,0,0,1.258-.726h0a.776.776,0,0,1,1.492-.4h0a.776.776,0,0,0,1.452,0Z" transform="translate(8525 2085)"/>
        <path class="send-email-code" d="M13.726,7.306a.776.776,0,0,1,1.492.4h0a.776.776,0,0,0,1.258.726h0a.776.776,0,0,1,1.092,1.092h0a.776.776,0,0,0,.726,1.258h0a.776.776,0,0,1,.4,1.492h0a.776.776,0,0,0,0,1.452h0a.776.776,0,0,1-.4,1.492h0a.776.776,0,0,0-.726,1.258h0a.776.776,0,0,1-1.092,1.092h0a.776.776,0,0,0-1.258.726h0a.776.776,0,0,1-1.492.4h0a.776.776,0,0,0-1.452,0h0a.776.776,0,0,1-1.492-.4h0a.776.776,0,0,0-1.258-.726h0a.776.776,0,0,1-1.092-1.092h0a.776.776,0,0,0-.726-1.258h0a.776.776,0,0,1-.4-1.492h0a.776.776,0,0,0,0-1.452h0a.776.776,0,0,1,.4-1.492h0a.776.776,0,0,0,.726-1.258h0A.776.776,0,0,1,9.524,8.432h0a.776.776,0,0,0,1.258-.726h0a.776.776,0,0,1,1.492-.4h0a.776.776,0,0,0,1.452,0Z" transform="translate(8559 2085)"/>
        <path class="send-email-code" d="M13.726,7.306a.776.776,0,0,1,1.492.4h0a.776.776,0,0,0,1.258.726h0a.776.776,0,0,1,1.092,1.092h0a.776.776,0,0,0,.726,1.258h0a.776.776,0,0,1,.4,1.492h0a.776.776,0,0,0,0,1.452h0a.776.776,0,0,1-.4,1.492h0a.776.776,0,0,0-.726,1.258h0a.776.776,0,0,1-1.092,1.092h0a.776.776,0,0,0-1.258.726h0a.776.776,0,0,1-1.492.4h0a.776.776,0,0,0-1.452,0h0a.776.776,0,0,1-1.492-.4h0a.776.776,0,0,0-1.258-.726h0a.776.776,0,0,1-1.092-1.092h0a.776.776,0,0,0-.726-1.258h0a.776.776,0,0,1-.4-1.492h0a.776.776,0,0,0,0-1.452h0a.776.776,0,0,1,.4-1.492h0a.776.776,0,0,0,.726-1.258h0A.776.776,0,0,1,9.524,8.432h0a.776.776,0,0,0,1.258-.726h0a.776.776,0,0,1,1.492-.4h0a.776.776,0,0,0,1.452,0Z" transform="translate(8576 2085)"/>
    </g>
</svg>
