<?xml version="1.0" encoding="utf-8"?>
<!-- Generator: Adobe Illustrator 23.1.0, SVG Export Plug-In . SVG Version: 6.00 Build 0)  -->
<svg version="1.2" baseProfile="tiny" id="Layer_1" xmlns="http://www.w3.org/2000/svg" xmlns:xlink="http://www.w3.org/1999/xlink"
	 x="0px" y="0px" viewBox="0 0 16.4 19.1" xml:space="preserve">
<style type="text/css">
	.send-request{fill:#292B2C;}
</style>
<path class="send-request" d="M16.2,6.4c-0.9-4.1-4.8-6.9-9-6.4C3,0.6,0,4.2,0.1,8.2c0,0.4-0.1,8-0.1,10.5c0,0.3,0.4,0.5,0.6,0.3l4.7-3.3
	c1.4,0.5,2.8,0.6,4.3,0.4C14.2,15.3,17.2,10.9,16.2,6.4z M12.5,6.7l-4.1,4.1c-0.2,0.2-0.5,0.3-0.7,0.3c-0.3,0-0.5-0.1-0.7-0.3
	L4.8,8.8c-0.4-0.4-0.4-1,0-1.4c0.4-0.4,1-0.4,1.4,0l1.4,1.4L11,5.3c0.4-0.4,1-0.4,1.4,0C12.9,5.6,12.9,6.3,12.5,6.7z"/>
</svg>
