<?xml version="1.0" encoding="utf-8"?>
<!-- Generator: Adobe Illustrator 19.0.0, SVG Export Plug-In . SVG Version: 6.00 Build 0)  -->
<svg version="1.1" id="Layer_1" xmlns="http://www.w3.org/2000/svg" xmlns:xlink="http://www.w3.org/1999/xlink" x="0px" y="0px"
	 viewBox="0 0 72 72.1" style="enable-background:new 0 0 72 72.1;" xml:space="preserve">
<path id="XMLID_4_" d="M72,0H0v72.1h72V0z M30.4,54.7c-4.7,0-9.1-1.4-12.8-3.8c4.4,0.5,8.9-0.7,12.4-3.5c-3.7-0.1-6.7-2.5-7.8-5.8
	c1.3,0.3,2.6,0.2,3.8-0.1c-4-0.8-6.8-4.4-6.7-8.3c1.1,0.6,2.4,1,3.8,1c-3.7-2.5-4.8-7.4-2.6-11.1c4.1,5.1,10.3,8.4,17.2,8.7
	c-1.2-5.2,2.7-10.3,8.1-10.3c2.4,0,4.6,1,6.1,2.6c1.9-0.4,3.7-1.1,5.3-2c-0.6,2-1.9,3.6-3.7,4.6c1.7-0.2,3.3-0.7,4.8-1.3
	c-1.1,1.7-2.5,3.1-4.2,4.3C54.7,41.6,45.9,54.7,30.4,54.7z"/>
</svg>
