<?xml version="1.0" encoding="utf-8"?>
<!-- Generator: Adobe Illustrator 23.1.0, SVG Export Plug-In . SVG Version: 6.00 Build 0)  -->
<svg version="1.2" baseProfile="tiny" xmlns="http://www.w3.org/2000/svg" xmlns:xlink="http://www.w3.org/1999/xlink" x="0px"
	 y="0px" viewBox="0 0 100 100.7" xml:space="preserve">
<g id="Layer_2">
</g>
<g id="Layer_1">
	<g>
		<path  d="M50,28.1c-12.1,0-21.9,9.8-21.9,21.9S37.9,71.9,50,71.9S71.9,62.1,71.9,50S62.1,28.1,50,28.1z" class="sun-icon"/>
		<path d="M46.9,20.5h6.3c0.8,0,1.5-0.7,1.5-1.5V4c0-0.8-0.7-1.5-1.5-1.5h-6.3c-0.8,0-1.5,0.7-1.5,1.5v15.1
			C45.4,19.9,46.1,20.5,46.9,20.5z" class="sun-icon"/>
		<path d="M24.9,31.4c0.6,0.6,1.5,0.6,2.1,0l4.4-4.4c0.6-0.6,0.6-1.5,0-2.1L20.7,14.2c-0.6-0.6-1.5-0.6-2.1,0l-4.4,4.4
			c-0.6,0.6-0.6,1.5,0,2.1L24.9,31.4z" class="sun-icon"/>
		<path d="M20.5,53.1v-6.3c0-0.8-0.7-1.5-1.5-1.5H4c-0.8,0-1.5,0.7-1.5,1.5v6.3c0,0.8,0.7,1.5,1.5,1.5h15.1
			C19.9,54.6,20.5,53.9,20.5,53.1z" class="sun-icon"/>
		<path d="M27,68.6c-0.6-0.6-1.5-0.6-2.1,0L14.2,79.3c-0.6,0.6-0.6,1.5,0,2.1l4.4,4.4c0.6,0.6,1.5,0.6,2.1,0l10.7-10.7
			c0.6-0.6,0.6-1.5,0-2.1L27,68.6z" class="sun-icon"/>
		<path d="M53.1,79.5h-6.3c-0.8,0-1.5,0.7-1.5,1.5v15c0,0.8,0.7,1.5,1.5,1.5h6.3c0.8,0,1.5-0.7,1.5-1.5V80.9
			C54.6,80.1,53.9,79.5,53.1,79.5z" class="sun-icon"/>
		<path d="M75.1,68.6c-0.6-0.6-1.5-0.6-2.1,0L68.6,73c-0.6,0.6-0.6,1.5,0,2.1l10.7,10.7c0.6,0.6,1.5,0.6,2.1,0l4.4-4.4
			c0.6-0.6,0.6-1.5,0-2.1L75.1,68.6z" class="sun-icon"/>
		<path d="M96,45.4H80.9c-0.8,0-1.5,0.7-1.5,1.5v6.3c0,0.8,0.7,1.5,1.5,1.5H96c0.8,0,1.5-0.7,1.5-1.5v-6.3
			C97.5,46.1,96.8,45.4,96,45.4z" class="sun-icon"/>
		<path d="M73,31.4c0.6,0.6,1.5,0.6,2.1,0l10.7-10.7c0.6-0.6,0.6-1.5,0-2.1l-4.4-4.4c-0.6-0.6-1.5-0.6-2.1,0L68.6,24.9
			c-0.6,0.6-0.6,1.5,0,2.1L73,31.4z" class="sun-icon"/>
	</g>
</g>
</svg>
