<?xml version="1.0" encoding="utf-8"?>
<!-- Generator: Adobe Illustrator 22.1.0, SVG Export Plug-In . SVG Version: 6.00 Build 0)  -->
<svg version="1.1" id="Layer_1" xmlns="http://www.w3.org/2000/svg" xmlns:xlink="http://www.w3.org/1999/xlink" x="0px" y="0px"
	 viewBox="0 0 69 69" style="enable-background:new 0 0 69 69;" xml:space="preserve">
<style type="text/css">
	.st0{fill:#5D5D5D;}
	.st1{opacity:0.5;fill:#D0D2D3;}
	.st2{fill:#929497;}
	.st3{fill:#FFFFFF;}
	.st4{fill:none;stroke:#21201F;stroke-miterlimit:10;}
	.st5{fill:none;stroke:#CBCACA;stroke-miterlimit:10;}
	.st6{fill:#1F212A;}
	.st7{fill:#454162;}
	.st8{opacity:0.44;fill:#231F20;}
	.st9{fill:#231F20;}
	.st10{fill:none;stroke:#B6B5CD;stroke-width:0.9815;stroke-miterlimit:10;}
	.st11{fill:#B6B5CD;}
	.st12{fill:none;stroke:#B6B5CD;stroke-width:2;stroke-miterlimit:10;}
	.st13{fill:#21201F;}
	.st14{fill:none;stroke:#231F20;stroke-width:2;stroke-miterlimit:10;}
	.st15{fill:none;stroke:#FFFFFF;stroke-width:2;stroke-miterlimit:10;}
	.st16{fill:none;stroke:#231F20;stroke-miterlimit:10;}
</style>
<g>
	<path class="st7" d="M34.5,67.5c-18.2,0-33-14.8-33-33c0-18.2,14.8-33,33-33c18.2,0,33,14.8,33,33C67.5,52.7,52.7,67.5,34.5,67.5z
		 M34.5,4.8C18.1,4.8,4.8,18.1,4.8,34.5c0,16.4,13.3,29.7,29.7,29.7c16.4,0,29.7-13.3,29.7-29.7C64.2,18.1,50.9,4.8,34.5,4.8z"/>
	<path class="st11" d="M31.9,40.1c0.8,0.6,1.6,1.2,2.3,1.7c-0.8,0.8-1.6,1.6-2.4,2.4c-0.1,0.1-0.1,0.2-0.2,0.2l0-0.5
		C31.7,42.6,31.8,41.4,31.9,40.1z"/>
	<path class="st11" d="M28.3,38.4c0.1-0.1,0.3-0.3,0.4-0.4c0,0,0.1-0.1,0.1-0.1c0.1-0.1,0.1-0.1,0.2-0.2c0.3-0.3,0.7-0.6,1-0.9
		c0.2-0.2,0.4-0.4,0.6-0.5c0.5-0.5,1-0.9,1.5-1.4c1.3-1.2,2.7-2.4,4-3.5c1.7-1.5,3.3-3,5-4.6c0.1-0.2,0.2-0.4,0.3-0.6
		c-0.3,0-0.6,0-0.9,0.1c-1.4,0.8-2.8,1.7-4.1,2.6c-3.9,2.5-7.9,5-11.9,7.5c-0.1,0.1-0.2,0.1-0.3,0.1c0.5,1.7,1,3.3,1.6,5
		c0.4,1.2,0.8,2.3,1.1,3.5c0.1,0.5,0.4,0.7,0.9,0.7c0.1-2,0.3-4,0.4-5.9L28.3,38.4z"/>
	<path class="st11" d="M43.1,51.1c-0.7,0-1.4-0.3-2.1-0.8c-1.5-1.1-2.9-2.2-4.4-3.3L35,45.7l-2.7,2.7c-0.1,0.1-0.2,0.2-0.3,0.3
		l-0.2,0.2c-0.1,0.1-0.2,0.2-0.4,0.3c0,0-0.1,0.1-0.2,0.2c-0.6,0.5-1.7,1.5-3.5,1.4c-0.1,0-0.2,0-0.2,0c-1.4,0-3-0.8-3.7-2.9
		C23.6,47,23.3,46,23,45.1l-2.4-7.6c0-0.1-0.1-0.2-0.1-0.3l-6.3-2c-0.2,0-0.4-0.1-0.6-0.3c-0.1-0.1-0.2-0.1-0.3-0.2
		c-0.4-0.3-0.8-0.7-0.9-1.2c-0.1-0.7,0.5-1.5,1.1-1.9c0.7-0.5,1.6-0.8,2.3-1.1l0.3-0.1c0.7-0.3,1.4-0.5,2.1-0.8L34,23.5
		c1.4-0.5,2.8-1.1,4.3-1.6c0.6-0.2,1.1-0.5,1.7-0.7l0.8-0.3l1.2-0.4c1-0.3,1.9-0.7,2.9-1c0.6-0.2,1.1-0.4,1.6-0.7l1.1-0.4
		c0.1,0,0.3-0.1,0.4-0.1c1-0.3,1.7-0.3,2.4,0c0.6,0.4,1,1,1.2,2c0,0.1,0,0.2,0.1,0.3l0,0.2L50.1,28c0,0.1,0,0.2-0.1,0.3l-0.5,2.4
		l-2,9.3l-0.9,4.4l-1,4.6c-0.5,1.1-1.1,1.8-1.9,2C43.5,51,43.3,51.1,43.1,51.1z M34.8,43.6l1,0.7l1.9,1.4c1.5,1.1,2.9,2.2,4.4,3.3
		c0.5,0.4,1,0.6,1.3,0.5c0.3-0.1,0.6-0.6,0.8-1L45,44l0.9-4.4l0.6-2.5l2-9.2c0-0.1,0-0.2,0.1-0.3l1.5-6.9c0-0.1,0-0.1,0-0.2
		c-0.1-0.5-0.3-0.8-0.4-0.9c-0.2-0.1-0.6-0.1-1,0.1c-0.2,0.1-0.3,0.1-0.5,0.1l-0.1,0l-0.7,0.3c-0.6,0.2-1.1,0.5-1.7,0.7
		c-1,0.4-1.9,0.7-2.9,1.1l-1.2,0.4l-0.7,0.3c-0.6,0.2-1.1,0.5-1.7,0.7C37.5,24,36,24.5,34.6,25l-15.8,6.1c-0.7,0.3-1.3,0.5-2,0.8
		L16.5,32c-0.8,0.3-1.5,0.6-2.1,1c-0.1,0-0.2,0.2-0.2,0.3c0.1,0.1,0.2,0.1,0.2,0.2c0.1,0.1,0.2,0.1,0.3,0.2l7.5,2.3l0,0.6
		c0,0.2,0,0.3,0.1,0.4l2.4,7.6c0.3,0.9,0.6,1.9,0.9,2.8c0.5,1.5,1.6,1.7,2.1,1.7c0.1,0,0.1,0,0.2,0l0.1,0c1.1,0.1,1.8-0.5,2.3-1
		c0.1-0.1,0.2-0.2,0.3-0.2c0.1-0.1,0.1-0.1,0.2-0.1l0.2-0.2c0.1-0.1,0.2-0.2,0.3-0.3L34.8,43.6z M14.7,33.8
		C14.7,33.8,14.8,33.8,14.7,33.8C14.8,33.8,14.7,33.8,14.7,33.8z"/>
</g>
</svg>
