<?xml version="1.0" encoding="utf-8"?>
<!-- Generator: Adobe Illustrator 19.0.0, SVG Export Plug-In . SVG Version: 6.00 Build 0)  -->
<svg version="1.1" id="Layer_1" xmlns="http://www.w3.org/2000/svg" xmlns:xlink="http://www.w3.org/1999/xlink" x="0px" y="0px"
	 viewBox="-443 244.9 72 72.1" style="enable-background:new -443 244.9 72 72.1;" xml:space="preserve">
<style type="text/css">
	.st0{fill:#3A3A3A;}
</style>
<path id="XMLID_4_" class="st0" d="M-371,244.9h-72V317h72V244.9z M-412.6,299.6c-4.7,0-9.1-1.4-12.8-3.8c4.4,0.5,8.9-0.7,12.4-3.5
	c-3.7-0.1-6.7-2.5-7.8-5.8c1.3,0.3,2.6,0.2,3.8-0.1c-4-0.8-6.8-4.4-6.7-8.3c1.1,0.6,2.4,1,3.8,1c-3.7-2.5-4.8-7.4-2.6-11.1
	c4.1,5.1,10.3,8.4,17.2,8.7c-1.2-5.2,2.7-10.3,8.1-10.3c2.4,0,4.6,1,6.1,2.6c1.9-0.4,3.7-1.1,5.3-2c-0.6,2-1.9,3.6-3.7,4.6
	c1.7-0.2,3.3-0.7,4.8-1.3c-1.1,1.7-2.5,3.1-4.2,4.3C-388.3,286.5-397.1,299.6-412.6,299.6z"/>
</svg>
