<?xml version="1.0" encoding="utf-8"?>
<!-- Generator: Adobe Illustrator 23.1.0, SVG Export Plug-In . SVG Version: 6.00 Build 0)  -->
<svg version="1.2" baseProfile="tiny" id="Layer_1" xmlns="http://www.w3.org/2000/svg" xmlns:xlink="http://www.w3.org/1999/xlink"
	 x="0px" y="0px" viewBox="0 0 11.5 11.5" xml:space="preserve">
<rect fill="#2CA5E0" width="11.5" height="11.5"/>
<path fill="#FFFFFF" d="M8.6,4.2C8.4,4.3,8.2,4.4,7.9,4.4C8.2,4.3,8.4,4,8.5,3.8C8.2,3.9,8,4,7.7,4.1C7.5,3.8,7.2,3.7,6.8,3.7
	c-0.7,0-1.2,0.5-1.2,1.2c0,0.1,0,0.2,0,0.3c-1,0-1.8-0.5-2.4-1.2C3.2,4.1,3.1,4.3,3.1,4.5c0,0.4,0.2,0.8,0.5,1
	c-0.2,0-0.4-0.1-0.5-0.1v0c0,0.6,0.4,1,0.9,1.2c-0.1,0-0.2,0-0.3,0c-0.1,0-0.1,0-0.2,0C3.7,7,4.1,7.3,4.6,7.3
	C4.2,7.6,3.7,7.8,3.1,7.8c-0.1,0-0.2,0-0.3,0C3.4,8.2,4,8.3,4.7,8.3C6.8,8.3,8,6.6,8,5c0-0.1,0-0.1,0-0.2C8.3,4.7,8.5,4.5,8.6,4.2"
	/>
</svg>
