<?xml version="1.0" encoding="utf-8"?>
<!-- Generator: Adobe Illustrator 26.0.3, SVG Export Plug-In . SVG Version: 6.00 Build 0)  -->
<svg version="1.2" baseProfile="tiny" id="Layer_1" xmlns="http://www.w3.org/2000/svg" xmlns:xlink="http://www.w3.org/1999/xlink"
	 x="0px" y="0px" viewBox="0 0 20 20" overflow="visible" xml:space="preserve">
<g>
	<polygon id="Rectangle_2880" fill="#FFFFFF" points="4.7,4.3 15.5,4.3 15.5,15.8 11.6,17.4 8.3,17.4 4.7,15.9 	"/>
</g>
<path fill="#0000FF" d="M13.8,2.6H6.2c-2,0-3.7,1.7-3.7,3.7v7.4c0,2,1.7,3.7,3.7,3.7h3V7.2L6.8,9.7C6.5,10,6,10,5.7,9.7
	c-0.3-0.3-0.3-0.8,0-1.1l3.8-3.8C9.6,4.7,9.8,4.6,10,4.6c0.2,0,0.4,0.1,0.6,0.2l3.8,3.8c0.3,0.3,0.3,0.8,0,1.1
	c-0.3,0.3-0.8,0.3-1.1,0l-2.5-2.5v10.2h2.8c2.1,0,3.7-1.6,3.8-3.6V6.3C17.5,4.3,15.8,2.6,13.8,2.6z"/>
</svg>
