<?xml version="1.0" encoding="utf-8"?>
<!-- Generator: Adobe Illustrator 23.0.3, SVG Export Plug-In . SVG Version: 6.00 Build 0)  -->
<svg version="1.2" baseProfile="tiny" id="Layer_1" xmlns="http://www.w3.org/2000/svg" xmlns:xlink="http://www.w3.org/1999/xlink"
	 x="0px" y="0px" viewBox="0 0 77.5 71.5" xml:space="preserve">
<g>
	<g>
		<g transform="matrix(0.26458333,0,0,0.26458333,-33.403463,56.772625)">
			<path fill="#2BB673" d="M271.9-199.5c-66.2,0-120,53.8-120,120s53.8,120,120,120s120-53.8,120-120S338.1-199.5,271.9-199.5z
				 M271.9-187.5c59.7,0,108,48.3,108,108s-48.3,108-108,108s-108-48.3-108-108S212.2-187.5,271.9-187.5z"/>
		</g>
	</g>
	<path fill="#2BB673" d="M54.1,36.7c0-1.9-5.2-3.5-12.1-3.9l0-3h8.6v-6.3H27.2v6.3h8.6v3.1c-6.8,0.4-11.8,2-11.8,3.8
		c0,1.9,5.1,3.5,11.8,3.8v10.9h6.3V40.6C49,40.2,54.1,38.6,54.1,36.7z M39,38.6c-7.4,0-13.4-1.1-13.4-2.6c0-1.2,4.3-2.2,10.1-2.5
		v0.7h0v2.9c1,0.1,2.1,0.1,3.3,0.1c1,0,2.1,0,3-0.1v-3.7c5.9,0.3,10.4,1.3,10.4,2.5C52.4,37.4,46.4,38.6,39,38.6z"/>
</g>
</svg>
