<?xml version="1.0" encoding="utf-8"?>
<!-- Generator: Adobe Illustrator 23.1.0, SVG Export Plug-In . SVG Version: 6.00 Build 0)  -->
<svg version="1.1" id="Layer_1" xmlns="http://www.w3.org/2000/svg" xmlns:xlink="http://www.w3.org/1999/xlink" x="0px" y="0px"
	 viewBox="0 0 77.5 71.5" style="enable-background:new 0 0 77.5 71.5;" xml:space="preserve">
<style type="text/css">
	.xht-icon{fill:#FFFFFF !important;}
	.xht-icon-1{fill:#000000 !important;}
</style>
<path class="xht-icon-1" d="M49.1,9H28L5.9,35.9L28,62.8h21.2l22-26.9L49.1,9L49.1,9z"/>
<path class="xht-icon" d="M45.3,53H31.7l-14-17.1l14.1-17.1h13.5l14.1,17.1L45.3,53z M32.3,52h12.5L58,35.9L44.8,19.8H32.3L19.1,35.9
	L32.3,52z"/>
<path class="xht-icon" d="M41.8,44h-6.4l-0.1-0.1l-6.6-8l6.6-8.1h6.4l0.1,0.1l6.6,8L41.8,44z M35.6,43.5h5.9l6.2-7.6l-6.2-7.6h-5.9
	l-6.2,7.6L35.6,43.5z"/>
<path class="xht-icon" d="M47.1,13.5l18.4,22.4L47.1,58.3H30L11.7,35.9L30,13.5H47.1 M48.5,10.4h-20L7.6,35.9l20.9,25.5h20l20.9-25.5
	L48.5,10.4L48.5,10.4z"/>
</svg>
