<?xml version="1.0" encoding="utf-8"?>
<!-- Generator: Adobe Illustrator 24.1.3, SVG Export Plug-In . SVG Version: 6.00 Build 0)  -->
<svg version="1.2" baseProfile="tiny" id="Layer_1" xmlns="http://www.w3.org/2000/svg" xmlns:xlink="http://www.w3.org/1999/xlink"
	 x="0px" y="0px" viewBox="0 0 77.5 71.5" overflow="visible" xml:space="preserve">
<g>
	<path class="xlm-icon" d="M14.8,40.6c-0.4-1.7-0.6-3.5-0.6-5.3C14.2,21.8,25,11,38.5,11c5,0,9.7,1.5,13.6,4.1l3.1-1.7
		c-4.6-3.5-10.4-5.6-16.6-5.6C23.3,7.8,11,20.1,11,35.3c0,2.3,0.3,4.6,0.9,6.8l-5.2,2.7V48l63.6-32.7v-3.2L14.8,40.6z"/>
	<path class="xlm-icon" d="M6.7,59.4l55.7-28.6c0.3,1.5,0.4,3,0.4,4.5c0,13.4-10.9,24.3-24.3,24.3c-4.7,0-9-1.3-12.7-3.6l-3.3,1.6
		c4.5,3.3,10.1,5.2,16,5.2C53.6,62.8,66,50.4,66,35.3c0-2.1-0.2-4.1-0.7-6.1l5-2.6v-3.4L6.7,55.9V59.4z"/>
</g>
</svg>
