<?xml version="1.0" encoding="utf-8"?>
<!-- Generator: Adobe Illustrator 19.0.0, SVG Export Plug-In . SVG Version: 6.00 Build 0)  -->
<svg version="1.1" id="Layer_1" xmlns="http://www.w3.org/2000/svg" xmlns:xlink="http://www.w3.org/1999/xlink" x="0px" y="0px"
	 viewBox="0 0 340 245.5" style="enable-background:new 0 0 340 245.5;" xml:space="preserve">
<style type="text/css">
	.coin-base-1{fill:#21201F;}
	.coin-base-2{font-family:'Raleway-Medium';}
	.coin-base-3{font-size:8.826px;}
	.coin-base-4{fill:none;stroke:#000000;stroke-width:0.937;stroke-linecap:round;stroke-miterlimit:10;stroke-dasharray:2.8111,5.6223;}
	.coin-base-5{fill:#00A551;}
</style>
<g id="XMLID_1_">
	<g id="XMLID_21_">
		<text id="XMLID_177_" transform="matrix(0.9932 -0.1164 0.1164 0.9932 324.6809 16.6205)" class="coin-base-1 coin-base-2 coin-base-3">T</text>
	</g>
	<path id="XMLID_20_" class="coin-base-4" d="M308.4,17.1c0,0-84.9-4.1-135.6,166.6c0,0-82-80.4-173.2,56.6"/>
	<path id="XMLID_19_" class="coin-base-5" d="M327.5,23.5l0.6,0.7L327,25l-1.6,0.7l-2.4,0.2l-1.9-0.5c0,0-1.8,0.1-3.8-1.6
		c-2.1-1.8-4.6-4.6-4.5-8.3s1.3-6,2.3-7.1s4-3,4-3l-0.4,1.3L317.3,9c0,0-1,3.1-0.3,5.8c0.7,2.7,2,5.3,4.3,6.7
		C323.5,22.9,325.8,23.5,327.5,23.5z"/>
	<g id="XMLID_2_">
		<g id="XMLID_3_">
			<path id="XMLID_7_" class="coin-base-1" d="M336.3,7.9c-2.9-5.4-9.5-7.6-14.7-4.8c-0.5,0.3-0.9,0.5-1.3,0.8l-2.6,1.4
				c-5.2,2.8-7,9.4-4.1,14.8s9.4,7.5,14.6,4.8l3.6-1.9l0,0c0.1-0.1,0.3-0.1,0.4-0.2C337.3,20,339.2,13.4,336.3,7.9z M318,6.5
				c-0.4,0.6-0.8,1.3-1.1,2l-2.2,1.2C315.5,8.4,316.6,7.3,318,6.5z M313.9,11.3l2.6-1.4c-0.2,0.9-0.3,1.8-0.3,2.7l-2.8,1.5
				C313.3,13.1,313.5,12.2,313.9,11.3z M313.3,15.3l2.9-1.6c0.1,0.8,0.2,1.5,0.5,2.3l-3,1.6C313.4,16.9,313.3,16.1,313.3,15.3z
				 M314.5,19.7c-0.2-0.3-0.3-0.7-0.5-1l3-1.6c0.1,0.3,0.3,0.6,0.5,0.9c0.2,0.3,0.4,0.7,0.6,1l-3,1.6
				C314.8,20.3,314.7,20,314.5,19.7z M315.7,21.5l3-1.6c0.5,0.6,1,1.2,1.6,1.6l-3,1.6C316.8,22.6,316.2,22.1,315.7,21.5z
				 M318.4,23.8l2.9-1.6c0.8,0.5,1.6,0.9,2.4,1.2l-2.7,1.4C320.1,24.6,319.2,24.3,318.4,23.8z M327.6,24c-1.5,0.8-3.2,1.1-4.8,1.1
				l2.4-1.3C326.1,24,326.9,24,327.6,24L327.6,24z M331.6,21.9c-4.7,2.5-10.6,0.5-13.2-4.4s-1-10.9,3.7-13.4s10.6-0.5,13.2,4.4
				S336.3,19.4,331.6,21.9z"/>
			<path id="XMLID_4_" class="coin-base-1" d="M323.4,6.4c-3.4,1.8-4.7,6.3-2.8,9.9c1.9,3.6,6.3,5,9.7,3.2c3.4-1.8,4.7-6.3,2.8-9.9
				C331.2,6,326.8,4.6,323.4,6.4z M329.9,18.6c-2.9,1.6-6.6,0.3-8.3-2.7c-1.6-3.1-0.6-6.9,2.3-8.4s6.6-0.3,8.3,2.7
				C333.8,13.2,332.8,17,329.9,18.6z"/>
		</g>
	</g>
</g>
</svg>
