<?xml version="1.0" encoding="utf-8"?>
<!-- Generator: Adobe Illustrator 23.0.1, SVG Export Plug-In . SVG Version: 6.00 Build 0)  -->
<svg version="1.2" baseProfile="tiny" id="Layer_1" xmlns="http://www.w3.org/2000/svg" xmlns:xlink="http://www.w3.org/1999/xlink"
	 x="0px" y="0px" viewBox="0 0 62 62" xml:space="preserve">
<style type="text/css">
	.kraken-trader0{fill:none;stroke:#B7B5CD;stroke-miterlimit:10;}
	.kraken-trader1{fill:#29ABE2}
</style>
<path class="kraken-trader0" d="M-113.3,71.2"/>
<g>
	<g>
		<path class="kraken-trader1" d="M30.4,39.2c-2.7,0-5.5-0.7-8.3-1.5C15,35.6,8.4,36.2,4.8,37.7c-0.5,0.2-1.1,0-1.3-0.5
			c-0.2-0.5,0-1.1,0.5-1.3c3.8-1.7,11-2.4,18.6-0.2c6.7,2,11.3,2.3,14.4-1.6c0.3-0.4,0.9-0.5,1.4-0.2c0.4,0.3,0.5,0.9,0.2,1.4
			C36.3,38.2,33.5,39.2,30.4,39.2z"/>
	</g>
	<g>
		<path class="kraken-trader1" d="M32.1,44c-2.1,0-4.7-0.4-8.2-1.4c-7.3-2.2-12.8-0.8-13.8-0.4c-0.5,0.2-1.1,0-1.3-0.5
			c-0.2-0.5,0-1.1,0.5-1.3c1.4-0.7,7.3-2.1,15.2,0.3c8.5,2.5,11.3,1.1,12.9-0.6c0.4-0.4,1-0.4,1.4,0c0.4,0.4,0.4,1,0,1.4
			C37.5,42.8,35.6,44,32.1,44z"/>
	</g>
	<g>
		<path class="kraken-trader1" d="M31.7,48.5c-2.3,0-4.7-0.3-7.1-1c-4.7-1.3-7.6-1-8.5-0.6c-0.5,0.2-1.1,0-1.3-0.5c-0.2-0.5,0-1.1,0.5-1.3
			c0.1-0.1,3.2-1.3,9.8,0.5c3.2,0.9,6.4,1.2,9.2,0.8c2.5-0.4,4.6-1.2,6-2.5l0,0c0,0,0.1-0.1,0.1-0.1c0.5-0.4,2.9-2.3,3.6-6.2
			c1-5.6,2-6.6,3.5-8.1c0.1-0.1,0.2-0.2,0.3-0.3c1.8-1.8,1.1-3.9,0.7-4.5c-0.3-0.4-0.2-0.9,0.1-1.2c0,0,4.3-4.4,3-9.7
			c-0.6-2.5-2.3-3.7-3.5-4.2c-2.3-1-4.7-0.8-5.7-0.2c-1.9,1-5,3.8-4.2,11.6c0,0.3-0.1,0.6-0.4,0.9l0,0c-0.8,0.6-2,2-1.3,4.1
			c1,2.7,0.2,4.4-0.1,4.8c-0.2,0.3-0.8,1.5-2.3,2.5c-2.7,1.7-6,1.2-8.2,0.6c-1.1-0.3-2-0.6-2.9-0.9c-4.6-1.5-6.7-2.2-13.2-1.2
			c-0.5,0.1-1-0.3-1.1-0.8c-0.1-0.5,0.3-1,0.8-1.1c7-1,9.4-0.3,14.1,1.2c0.8,0.3,1.8,0.6,2.9,0.9c6.3,1.9,8.2-1.9,8.2-2
			c0-0.1,0-0.1,0.1-0.1c0.1-0.1,0.6-1.2-0.1-3.2c-0.8-2.2-0.3-4.4,1.5-6c-0.3-3.5,0.1-6.5,1.3-8.8c1.2-2.4,2.8-3.6,4-4.2
			c1.6-0.8,4.7-1,7.4,0.2c1.7,0.7,3.8,2.3,4.6,5.5c1.3,5.2-1.7,9.5-3,11c0.6,1.5,0.7,4.1-1.3,6.2c-0.1,0.1-0.2,0.2-0.3,0.3
			c-1.3,1.3-2,2-3,7.1c-0.8,4.4-3.5,6.7-4.3,7.3C39.4,47.4,35.8,48.5,31.7,48.5z"/>
	</g>
	<g>
		<path class="kraken-trader1" d="M28.8,28.8c-1.8,0-3.6-0.5-5.6-1.1c-2.5-0.7-5.2-1.6-8.6-1.6c-0.5,0-1-0.4-1-1s0.4-1,1-1
			c3.6,0,6.6,0.9,9.2,1.7c2.6,0.8,4.6,1.4,6.4,0.9c0.5-0.1,1,0.2,1.2,0.7c0.1,0.5-0.2,1-0.7,1.2C30,28.8,29.4,28.8,28.8,28.8z"/>
	</g>
	<g>
		<path class="kraken-trader1" d="M28.9,23.7c-1.9,0-4-0.5-6.3-1c-3.8-0.9-8-1.8-13.4-1.2c-0.5,0.1-1-0.3-1.1-0.8c-0.1-0.5,0.3-1,0.8-1.1
			C14.7,19,19.3,20,23,20.9c3.1,0.7,5.6,1.3,7.8,0.7c0.5-0.1,1,0.2,1.2,0.7c0.1,0.5-0.2,1-0.7,1.2C30.5,23.6,29.7,23.7,28.9,23.7z"
			/>
	</g>
	<g>
		<path class="kraken-trader1" d="M29.4,18.5c-1.8,0-3.6-0.5-5.4-1c-1.7-0.4-3.3-0.9-4.7-0.9c-0.5,0-1-0.4-1-1c0-0.5,0.4-1,1-1
			c1.7,0,3.4,0.5,5.2,0.9c2.8,0.7,5.4,1.4,7.4,0.4c0.5-0.2,1.1-0.1,1.3,0.4c0.2,0.5,0.1,1.1-0.4,1.3C31.7,18.3,30.6,18.5,29.4,18.5z
			"/>
	</g>
	<g>
		<path class="kraken-trader1" d="M32.3,52.8c-1.5,0-3.2-0.1-5-0.2c-0.5,0-0.9-0.5-0.9-1c0-0.5,0.5-0.9,1-0.9c12.3,1.1,16.1-1.8,18.4-5.2
			c0.3-0.4,0.9-0.5,1.3-0.2c0.4,0.3,0.5,0.9,0.2,1.3c-1.1,1.6-2.7,3.5-6,4.8C39,52.3,36,52.8,32.3,52.8z"/>
	</g>
	<g>
		<ellipse transform="matrix(0.9721 -0.2347 0.2347 0.9721 -5.208 9.8604)" class="kraken-trader1" cx="38.8" cy="26.8" rx="0.9" ry="1.6"/>
	</g>
	<g>
		
			<ellipse transform="matrix(0.7058 -0.7084 0.7084 0.7058 -6.8788 40.637)" class="kraken-trader1" cx="45.5" cy="28.6" rx="1.6" ry="0.9"/>
	</g>
</g>
</svg>
