<?xml version="1.0" encoding="UTF-8" standalone="no"?>
<!DOCTYPE svg PUBLIC "-//W3C//DTD SVG 1.1//EN"
"http://www.w3.org/Graphics/SVG/1.1/DTD/svg11.dtd">


<!-- Page 4 -->
<svg x="0" y="0" width="275" height="275" viewBox="0 0 275 275" version="1.1" xmlns="http://www.w3.org/2000/svg" xmlns:xlink="http://www.w3.org/1999/xlink"
style="display: block;margin-left: auto;margin-right: auto;">
<path d="M194.7,200c0,10.4,-8.5,18.9,-18.9,19l-82.6,0C82.8,218.9,74.3,210.4,74.3,200l0,-99.4l31.2,0C114.1,100.5,121,93.6,121,85l0,-31.2l54.8,0c10.4,0,18.9,8.5,18.9,18.9ZM113,59.5l0,25.6c0,4.1,-3.4,7.4,-7.5,7.4l-25.6,0ZM202.7,200l0,-127.3c0,-14.9,-12.1,-27,-27,-27l-58.7,0c-0.3,0,-0.5,0,-0.8,0.1c-0.1,0,-0.2,0,-0.4,0.1L115.4,46c-0.1,0.1,-0.2,0.2,-0.3,0.2l-0.4,0.2c-0.2,0.2,-0.4,0.3,-0.5,0.5L67.4,93.7C67.2,93.8,67.1,94,67,94.2c-0.1,0,-0.1,0.2,-0.2,0.2c-0.1,0.1,-0.1,0.2,-0.2,0.3c0,0.3,-0.1,0.6,-0.3,0.8c0,0.1,0,0.2,0,0.2c-0.1,0.3,-0.1,0.5,-0.1,0.8l0,103.5c0,14.8,12.2,27,27,27l82.5,0c14.9,0,27,-12.2,27,-27Z" class="data-1" />
<path d="M101.3,172.7c-2.7,0,-4.9,2.2,-4.9,4.9l0,8.3c0,2.7,2.2,4.9,4.9,4.9c2.7,0,4.9,-2.2,4.9,-4.9l0,-8.3c0,-2.7,-2.2,-4.9,-4.9,-4.9Z" class="data-1" />
<path d="M134.5,155.5c-2.7,0,-4.9,2.2,-4.9,4.9l0,25.5c0,2.7,2.2,4.9,4.9,4.9c2.7,0,4.9,-2.2,4.9,-4.9l0,-25.5c0,-2.7,-2.2,-4.9,-4.9,-4.9Z" class="data-1" />
<path d="M167.6,148.8c-2.7,0,-4.9,2.2,-4.9,4.9l0,32.2c0,2.7,2.2,4.9,4.9,4.9c2.7,0,4.9,-2.2,4.9,-4.9l0,-32.2c0,-2.7,-2.2,-4.9,-4.9,-4.9Z" class="data-1" />
<path d="M171.6,136.3c2.7,0,4.8,-2.2,4.8,-4.9l0,-21.8c0,-2.7,-2.1,-4.9,-4.8,-4.9l-21.8,0c-2.7,0,-4.9,2.2,-4.9,4.9c0,2.7,2.2,4.9,4.9,4.9l10.2,0l-9.4,9.3l-5.3,-5.2c-1.8,-1.9,-4.9,-2,-6.8,-0.2l-16,15.1l-6.4,-6.3c-1.7,-1.8,-4.5,-1.9,-6.5,-0.4L92.8,140.4L99,148l13.3,-10.8l6.7,6.6c1.8,1.9,4.8,2,6.8,0.1l15.9,-15l5.4,5.3c1.9,1.9,5,1.9,6.9,0l12.7,-12.7l0,9.9c0,2.7,2.2,4.9,4.9,4.9Z" class="data-1" />

</svg>
