<?xml version="1.0" encoding="UTF-8" standalone="no"?>
<!DOCTYPE svg PUBLIC "-//W3C//DTD SVG 1.1//EN"
"http://www.w3.org/Graphics/SVG/1.1/DTD/svg11.dtd">


<!-- Page 27 -->
<svg x="0" y="0" width="280" height="280" viewBox="0 0 280 280" version="1.1" xmlns="http://www.w3.org/2000/svg" xmlns:xlink="http://www.w3.org/1999/xlink"
style="display: block;margin-left: auto;margin-right: auto;">
<defs>

<style type="text/css"><![CDATA[

.deposit-history-1{
fill: #231F20;
}
.deposit-history-2{
fill: none;
stroke: #231F20;
stroke-width: 2.1495833;
stroke-linecap: butt;
stroke-linejoin: miter;
}
.deposit-history-3{
fill: #F7931D;
}
.deposit-history-4{
fill: none;
stroke: #F7931D;
stroke-width: 2.192361;
stroke-linecap: butt;
stroke-linejoin: miter;
}


]]></style>

</defs>
<path d="M94.6,139.8c2,-2.9,5.9,-3.7,8.8,-1.7l25.4,17.4c2.9,2,3.6,5.9,1.6,8.8L113,189.7c-0.1,0.1,-0.2,0.3,-0.4,0.5c-2.2,2.6,-6.2,3,-8.9,0.7c-2.5,-2.2,-2.9,-6,-0.9,-8.7l4.9,-7.1c0.3,-0.6,0.5,-1.2,0.4,-1.9c-0.1,-1.4,-1.5,-2.5,-2.9,-2.3c-37.1,5.2,-65.4,36.6,-66,73.1c0,3.3,0.1,6.5,0.5,9.8l0,0.5c0.2,3,-1.9,5.7,-4.8,6.4c-1.7,0.5,-3.6,0.1,-5.1,-0.9c-1.5,-1.1,-2.4,-2.7,-2.7,-4.6c-0.4,-3.8,-0.6,-7.6,-0.5,-11.4c0.7,-42.1,33.4,-78.7,76,-85.2c0.7,-0.2,1.4,-0.6,1.8,-1.2c0.9,-1.2,0.5,-2.9,-0.7,-3.7l-7.5,-5.1c0,-0.1,0,-0.1,0,-0.1c-2.8,-1.9,-3.6,-5.9,-1.6,-8.7Z" class="deposit-history-1" />
<path d="M94.6,139.8c2,-2.9,5.9,-3.7,8.8,-1.7l25.4,17.4c2.9,2,3.6,5.9,1.6,8.8L113,189.7c-0.1,0.1,-0.2,0.3,-0.4,0.5c-2.2,2.6,-6.2,3,-8.9,0.7c-2.5,-2.2,-2.9,-6,-0.9,-8.7l4.9,-7.1c0.3,-0.6,0.5,-1.2,0.4,-1.9c-0.1,-1.4,-1.5,-2.5,-2.9,-2.3c-37.1,5.2,-65.4,36.6,-66,73.1c0,3.3,0.1,6.5,0.5,9.8l0,0.5c0.2,3,-1.9,5.7,-4.8,6.4c-1.7,0.5,-3.6,0.1,-5.1,-0.9c-1.5,-1.1,-2.4,-2.7,-2.7,-4.6c-0.4,-3.8,-0.6,-7.6,-0.5,-11.4c0.7,-42.1,33.4,-78.7,76,-85.2c0.7,-0.2,1.4,-0.6,1.8,-1.2c0.9,-1.2,0.5,-2.9,-0.7,-3.7l-7.5,-5.1c0,-0.1,0,-0.1,0,-0.1c-2.8,-1.9,-3.6,-5.9,-1.6,-8.7Z" class="deposit-history-2" />
<path d="M168.6,232.8c0,0,38.7,-37.4,38.7,-99.5C207.3,71.2,182.7,33.6,161.5,28.6c24.7,-3.4,31.7,-5.3,45.5,2.1c13.8,7.4,42.3,39.9,42.3,102.9c0,63,-22.3,94.8,-59,97.3c-36.8,2.5,-21.7,1.9,-21.7,1.9Z" class="deposit-history-3" />
<path d="M168.6,232.8c0,0,38.7,-37.4,38.7,-99.5C207.3,71.2,182.7,33.6,161.5,28.6c24.7,-3.4,31.7,-5.3,45.5,2.1c13.8,7.4,42.3,39.9,42.3,102.9c0,63,-22.3,94.8,-59,97.3c-36.8,2.5,-21.7,1.9,-21.7,1.9Z" class="deposit-history-4" />
<path d="M179.7,34.5l9.9,0c7.6,-0.2,14.7,3.1,21.3,8.4l-22.8,0c-2.6,-3,-5.4,-5.8,-8.4,-8.4m3.7,187.4c1.7,-1.7,3.6,-3.7,5.2,-5.6l23.2,0c-7.1,5.8,-14.4,8.8,-22.2,8.8l-9.9,0c1.3,-0.9,2.6,-2.2,3.7,-3.2M226,198.6c-1.1,2,-2.2,3.9,-3.5,5.6l-25.8,0c2.2,-3.8,4.3,-7.7,6,-12l26.7,0c-1.1,1.9,-2.1,4.3,-3.4,6.4M211.3,165.1l27.6,0c-1.1,5.4,-2.4,10.1,-4.1,14.8l-27.5,0c1.3,-4.7,2.5,-9.4,4,-14.8m3.1,-29.3l27.9,0c-0.2,5.9,-0.6,11.4,-1.5,17l-27.9,0c0.6,-5.3,1,-10.9,1.5,-17m26.4,-29.4c0.9,5.6,1.3,11.6,1.5,17.4l-27.9,0c-0.5,-6,-0.7,-11.8,-1.5,-17.4ZM229.2,67.2l-26.7,0c-1.7,-4.3,-3.8,-8.1,-6,-12l25.4,0c2.6,3.9,5.1,7.7,7.3,12m9.2,26.9l-27.5,0C209.8,89.2,208.6,84,207,79.5l27.1,0c1.8,4.7,3.1,9.5,4.3,14.6m16.4,35.7c0,-60.2,-28.4,-107.5,-65,-107.5l-40,0c-30.7,0.2,-57,34.6,-63.4,84.1c-0.4,3.4,1.7,6.4,5.2,6.9c3.4,0.4,6.4,-1.8,6.8,-5.2C104,65.5,125.8,34.8,149.8,34.8c28.4,0,52.7,43.6,52.7,95.2c0,51.7,-23.8,95.3,-52.7,95.3c-9.6,-0.2,-19.1,-4.9,-27.3,-14c-2.1,-2.5,-6,-2.5,-8.6,-0.4c-2.3,2.4,-2.6,6,-0.4,8.6c10.7,11.6,23.4,17.9,36.3,17.9l40,0c12.5,0,24.1,-5.6,34,-15.5c18.5,-18.5,30.8,-52.7,31,-92.1Z" class="deposit-history-1" />

</svg>
