<?xml version="1.0" encoding="utf-8"?>
<!-- Generator: Adobe Illustrator 23.0.1, SVG Export Plug-In . SVG Version: 6.00 Build 0)  -->
<svg version="1.2" baseProfile="tiny" id="Layer_1" xmlns="http://www.w3.org/2000/svg" xmlns:xlink="http://www.w3.org/1999/xlink"
	 x="0px" y="0px" viewBox="0 0 280 280" xml:space="preserve">
<style type="text/css">
	.deposit-bitcoin-1{fill:#FBB040};
	.deposit-bitcoin-2{fill:#000000};
	.deposit-bitcoin-3{fill:#000000};
</style>
<path class="deposit-bitcoin-1" d="M187.6,61.4l-7.5-8.1c0,0,18.7-9,35.7,1.2c16.9,10.3,29.3,35.9,30.2,41.7s10,37.8,4.6,58.3s-13,60.7-34.7,68.5
	c-21.8,7.8-39,4.6-39,4.6l-6.6-2.4c0,0,16-7.6,24.8-18.7c8.7-11.2,20.5-41.1,20.8-50.5c0.3-9.3-2.2-46.2-6.9-59.5
	C204,83.1,191.3,65.7,187.6,61.4z"/>
<path class="deposit-bitcoin-2" d="M172.1,168.5c0.9,0,2.2-0.6,2.8-1.2c1.6-1.6,1.6-4.1,0-5.6L158.2,145h37.2c2.2,0,4.1-1.9,4.1-4.1
	c0-2.1-1.9-4-4.1-4h-37.2l16.8-16.8c1.6-1.5,1.6-4,0-5.6c-1.6-1.5-4.1-1.5-5.6,0l-23.2,23.2c-1.6,1.6-1.6,4.1,0,5.6l23.2,23.2
	C170.3,167.3,171.2,168.5,172.1,168.5L172.1,168.5z"/>
<path class="deposit-bitcoin-1" d="M128.5,35v58.7l21.4-27.5V35H128.5z"/>
<path class="deposit-bitcoin-1" d="M128.5,189.7v55.4h21.4v-30.3L128.5,189.7z"/>
<path class="deposit-bitcoin-1" d="M130.7,244.2h-22.2V35.5h22.2V244.2z"/>
<line fill="none" x1="279.2" y1="278.7" x2="1.1" y2="278.7"/>
<line fill="none" x1="1.1" y1="0.7" x2="279.2" y2="0.7"/>
<g>
	<path class="deposit-bitcoin-3" d="M172.1,218.1c-21,0-38.7-35.3-38.7-77.5c0-42.1,17.7-77.4,38.7-77.4s38.7,35.3,38.7,77.4
		C210.8,182.8,193.2,218.1,172.1,218.1 M202.2,218.1c0.9-1,1.5-1.9,2.5-2.9h9.2c-3.1,1.9-6.4,2.9-9.6,2.9H202.2z M222.2,207.5h-12
		c0.6-0.9,0.9-1.8,1.5-2.8h13.4c-0.7,1-1.6,1.9-2.2,2.8H222.2z M229.1,197.3h-13.3c0.6-1.5,1.2-3.4,1.9-5h14.5
		c-0.9,1.6-1.5,3.5-2.5,5C229.4,197,229.1,197,229.1,197.3 M234.3,184.6h-14.2c0.6-2.1,1.2-4.6,1.8-6.7h15.2
		c-0.6,2.2-1.5,4.7-2.2,6.7C234.6,184.6,234.6,184.3,234.3,184.6 M238.7,170.1h-14.9c0.3-2.8,0.9-5.6,1.3-8.3h15.5
		c-0.7,2.8-1,5.6-1.6,8.3H238.7z M241.2,153.9l-15.5-0.3c0.3-3.1,0.6-6.1,0.6-9.2h15.5C241.5,147.8,241.5,150.9,241.2,153.9
		 M241.8,136.7h-15.5c-0.3-3.1-0.3-6.2-0.6-9.3h15.5C241.5,130.4,241.8,133.6,241.8,136.7 M240.2,119.6h-15.5
		c-0.3-2.8-0.6-5.6-1.2-8.3h14.9h0.6C239.6,114.1,239.9,116.8,240.2,119.6 M237.1,103.6h-15.2c-0.6-2.5-1.2-4.7-1.8-6.8h14.2h0.6
		C235.9,98.9,236.5,101.4,237.1,103.6 M231.8,89.3h-14.5c-0.7-1.8-1.3-3.4-1.9-5h13.3c0.3,0,0.6-0.3,0.9-0.3
		C230.7,85.9,231.2,87.5,231.8,89.3 M225.1,76.6h-13.4c-0.6-0.9-0.9-1.8-1.5-2.8h12h0.7C223.5,74.8,224.1,75.7,225.1,76.6
		 M214.2,66.1H205c-1-0.9-1.6-1.9-2.5-2.8h1.8C207.7,63.3,210.8,64.2,214.2,66.1 M110.2,241.3V40.1h38.7v16.4
		C130.4,71,118,103,118,140.6c0,37.8,12.4,69.6,30.9,84.2v16.5H110.2z M172.1,48.1h-0.9h-0.7c-5,0.3-9.5,1.6-13.9,3.8V36.4
		c0-2.2-1.9-4.1-4.1-4.1h-46.4c-2.2,0-4,1.9-4,4.1v208.9c0,2.2,1.8,4.1,4,4.1h46.4c2.2,0,4.1-1.9,4.1-4.1v-15.5
		c4.4,2.2,8.9,3.4,13.9,3.8h0.7h0.9v30.9H87V16.9h85.1V48.1z M187.6,272.3v-38.7h16.7c29.8,0,53-40.9,53-92.9
		c0-52-23.2-92.8-53-92.8h-16.7V9.1c0-4.4-3.4-7.7-7.7-7.7l-100.6,0c-4.4,0-7.7,3.4-7.7,7.7v263.1c0,4.3,3.4,7.7,7.7,7.7h100.6
		C184.2,280,187.6,276.5,187.6,272.3L187.6,272.3z"/>
</g>
</svg>
