<?xml version="1.0" encoding="UTF-8" standalone="no"?>
<!DOCTYPE svg PUBLIC "-//W3C//DTD SVG 1.1//EN"
"http://www.w3.org/Graphics/SVG/1.1/DTD/svg11.dtd">


<!-- Page 1 -->
<svg x="0" y="0" width="80" height="80" viewBox="0 0 80 80" version="1.1" xmlns="http://www.w3.org/2000/svg" xmlns:xlink="http://www.w3.org/1999/xlink"
style="display: block;margin-left: auto;margin-right: auto;">
<defs>

<style type="text/css"><![CDATA[

.g1_1{
fill: #787877;
}
.g2_1{
fill: none;
stroke: #787877;
stroke-width: 0.48583332;
stroke-linecap: butt;
stroke-linejoin: miter;
}


]]></style>

</defs>
<path d="M0,0
L0,80
L80,80
L80,0 Z " 
fill="#FFFFFF" stroke="none" />
<path d="M31.4,35.2c0.5,-0.7,1.4,-0.8,2,-0.4l5.8,3.9c0.6,0.5,0.8,1.4,0.3,2l-3.9,5.8c0,0,-0.1,0.1,-0.1,0.1c-0.5,0.6,-1.4,0.7,-2,0.2c-0.6,-0.5,-0.7,-1.4,-0.2,-2l1.1,-1.6c0.1,-0.1,0.1,-0.3,0.1,-0.4c0,-0.4,-0.3,-0.6,-0.7,-0.6C25.4,43.4,19,50.5,18.9,58.8c0,0.7,0,1.5,0.1,2.2l0,0.1c0,0.7,-0.4,1.3,-1.1,1.5c-0.4,0.1,-0.8,0,-1.1,-0.3c-0.4,-0.2,-0.6,-0.6,-0.6,-1C16.1,60.5,16,59.6,16,58.7C16.2,49.2,23.6,40.9,33.2,39.4c0.2,0,0.4,-0.1,0.5,-0.2c0.1,-0.3,0.1,-0.7,-0.2,-0.9L31.8,37.2C31.1,36.7,31,35.8,31.4,35.2Z" class="g1_1" />
<path d="M31.4,35.2c0.5,-0.7,1.4,-0.8,2,-0.4l5.8,3.9c0.6,0.5,0.8,1.4,0.3,2l-3.9,5.8c0,0,-0.1,0.1,-0.1,0.1c-0.5,0.6,-1.4,0.7,-2,0.2c-0.6,-0.5,-0.7,-1.4,-0.2,-2l1.1,-1.6c0.1,-0.1,0.1,-0.3,0.1,-0.4c0,-0.4,-0.3,-0.6,-0.7,-0.6C25.4,43.4,19,50.5,18.9,58.8c0,0.7,0,1.5,0.1,2.2l0,0.1c0,0.7,-0.4,1.3,-1.1,1.5c-0.4,0.1,-0.8,0,-1.1,-0.3c-0.4,-0.2,-0.6,-0.6,-0.6,-1C16.1,60.5,16,59.6,16,58.7C16.2,49.2,23.6,40.9,33.2,39.4c0.2,0,0.4,-0.1,0.5,-0.2c0.1,-0.3,0.1,-0.7,-0.2,-0.9L31.8,37.2C31.1,36.7,31,35.8,31.4,35.2Z" class="g2_1" />
<path d="M50.7,11.4l2.2,0c1.7,-0.1,3.3,0.7,4.9,1.9l-5.2,0C52,12.6,51.4,12,50.7,11.4m0.8,42.4c0.4,-0.4,0.8,-0.9,1.2,-1.3l5.2,0c-1.6,1.3,-3.2,2,-5,2l-2.2,0C51,54.3,51.3,54,51.5,53.8m9.7,-5.3c-0.3,0.5,-0.5,0.9,-0.8,1.3l-5.9,0c0.5,-0.9,1,-1.8,1.4,-2.7l6,0c-0.2,0.4,-0.5,0.9,-0.7,1.4M57.8,40.9l6.3,0c-0.3,1.2,-0.6,2.3,-0.9,3.4l-6.3,0c0.3,-1.1,0.6,-2.2,0.9,-3.4m0.7,-6.6l6.4,0c-0.1,1.3,-0.2,2.6,-0.4,3.8l-6.3,0c0.1,-1.2,0.2,-2.4,0.3,-3.8m6,-6.7c0.2,1.3,0.3,2.7,0.4,4l-6.4,0c-0.1,-1.4,-0.1,-2.7,-0.3,-4ZM61.9,18.8l-6,0C55.5,17.8,55,16.9,54.5,16l5.7,0c0.6,0.9,1.2,1.8,1.7,2.8M64,24.9l-6.2,0C57.5,23.7,57.2,22.6,56.9,21.5l6.1,0c0.4,1.1,0.7,2.2,1,3.4m3.7,8C67.7,19.3,61.3,8.6,53,8.6l-9.1,0C37,8.6,31,16.4,29.6,27.6c-0.1,0.8,0.4,1.5,1.1,1.6c0.8,0.1,1.5,-0.4,1.6,-1.2C33.6,18.4,38.5,11.4,43.9,11.4c6.5,0,12,9.9,12,21.6c0,11.7,-5.5,21.5,-12,21.5c-2.2,0,-4.3,-1.1,-6.2,-3.1C37.3,50.8,36.4,50.8,35.8,51.3c-0.5,0.5,-0.6,1.4,-0.1,1.9c2.4,2.7,5.3,4.1,8.2,4.1l9.1,0c2.8,0,5.4,-1.3,7.7,-3.5c4.2,-4.2,6.9,-12,7,-20.9Z" class="g1_1" />

</svg>
