<?xml version="1.0" encoding="utf-8"?>
<!-- Generator: Adobe Illustrator 19.0.0, SVG Export Plug-In . SVG Version: 6.00 Build 0)  -->
<svg version="1.1" id="Layer_1" xmlns="http://www.w3.org/2000/svg" xmlns:xlink="http://www.w3.org/1999/xlink" x="0px" y="0px"
	 viewBox="0 0 183 183" style="enable-background:new 0 0 183 183;" xml:space="preserve">
<style type="text/css">
	.deposit-complete-btc-01{fill:#212120;}
	.deposit-complete-btc-02{fill:#FBB040;}
</style>
<path id="XMLID_133_" class="deposit-complete-btc-01" d="M42.5,28.2c-13.8,0-24.7,10.9-24.7,24.7v87l-6.4-6.4c-2-2-4.9-2-6.9,0c-2,2-2,4.9,0,6.9
	l14.8,14.8c1,1,2,1.5,3.5,1.5s2.5-0.5,3.5-1.5L41,140.3c2-2,2-4.9,0-6.9c-2-2-4.9-2-6.9,0l-6.4,6.4v-87c0-8.4,6.4-14.8,14.8-14.8
	h19.8c3,0,4.9-2,4.9-4.9s-2-4.9-4.9-4.9H42.5z"/>
<path id="XMLID_130_" class="deposit-complete-btc-01" d="M116.6,28.2c-35.6,0-64.2,28.7-64.2,64.2s28.7,64.2,64.2,64.2s64.2-28.7,64.2-64.2
	S152.2,28.2,116.6,28.2z M116.6,146.8c-30.1,0-54.4-24.2-54.4-54.4c0-30.1,24.2-54.4,54.4-54.4S171,62.3,171,92.4
	C171,122.6,146.8,146.8,116.6,146.8z"/>
<path id="XMLID_129_" class="deposit-complete-btc-02" d="M146.3,67.7c-1.2,0-2.5,0.5-3.5,1.5l-36.1,36.1L90.5,89c-2-2-4.9-2-6.9,0c-2,2-2,4.9,0,6.9
	l19.8,19.8c1,1,2,1.5,3.5,1.5s2.5-0.5,3.5-1.5l39.5-39.5c2-2,2-4.9,0-6.9C148.8,68.2,147.5,67.7,146.3,67.7z"/>
</svg>
