<?xml version="1.0" encoding="UTF-8" standalone="no"?>
<!DOCTYPE svg PUBLIC "-//W3C//DTD SVG 1.1//EN"
"http://www.w3.org/Graphics/SVG/1.1/DTD/svg11.dtd">


<!-- Page 3 -->
<svg x="0" y="0" width="280" height="280" viewBox="0 0 280 280" version="1.1" xmlns="http://www.w3.org/2000/svg" xmlns:xlink="http://www.w3.org/1999/xlink"
style="display: block;margin-left: auto;margin-right: auto;">
<defs>

<style type="text/css"><![CDATA[

.deposit-complete-01{
fill: #1F1F1E;
}
.deposit-complete-02{
fill: #00A54F;
}


]]></style>

</defs>
<path d="M65,41.5C43.8,41.5,27.2,58.1,27.2,79.3l0,132.8l-9.8,-9.8c-3,-3,-7.5,-3,-10.5,0c-3.1,3,-3.1,7.6,0,10.6l22.6,22.6c1.5,1.5,3,2.3,5.3,2.3c2.2,0,3.7,-0.8,5.3,-2.3L62.7,212.9c3,-3,3,-7.6,0,-10.6c-3,-3,-7.5,-3,-10.6,0l-9.8,9.8l0,-132.8C42.3,66.4,52.1,56.6,65,56.6l30.2,0c4.5,0,7.5,-3,7.5,-7.5c0,-4.6,-3,-7.6,-7.5,-7.6Z" class="deposit-complete-01" />
<path d="M178.2,222.7c-46,0,-83,-37,-83,-83c0,-46.1,37,-83.1,83,-83.1c46.1,0,83.1,37,83.1,83.1c0,46,-37,83,-83.1,83m0,-181.2c-54.3,0,-98.1,43.8,-98.1,98.2c0,54.3,43.8,98.1,98.1,98.1c54.4,0,98.2,-43.8,98.2,-98.1c0,-54.4,-43.8,-98.2,-98.2,-98.2Z" class="deposit-complete-01" />
<path d="M223.5,101.9c-1.9,0,-3.8,0.8,-5.3,2.3l-55.1,55.1L138.2,134.4c-3,-3,-7.5,-3,-10.6,0c-3,3,-3,7.5,0,10.5l30.2,30.2c1.5,1.5,3,2.3,5.3,2.3c2.3,0,3.8,-0.8,5.3,-2.3l60.4,-60.4c3,-3,3,-7.5,0,-10.5c-1.5,-1.5,-3.4,-2.3,-5.3,-2.3Z" class="deposit-complete-02" />

</svg>
