<?xml version="1.0" encoding="utf-8"?>
<!-- Generator: Adobe Illustrator 23.0.1, SVG Export Plug-In . SVG Version: 6.00 Build 0)  -->
<svg version="1.1" id="Layer_1" xmlns="http://www.w3.org/2000/svg" xmlns:xlink="http://www.w3.org/1999/xlink" x="0px" y="0px"
	 viewBox="0 0 50 50" style="enable-background:new 0 0 50 50;" xml:space="preserve">
<style type="text/css">
	.chat-special{fill:#777677;}
</style>
<path class="chat-special" d="M21.1,15.2c0,0-0.3-1.8-2.5-2.9c0,0-1.1-0.5,0.8-0.7c0,0,4.2-0.4,7,1.8c0,0,9.4-2.3,17.1,4.1c0,0,1.3,1,1.9,3.1
	c0,0,1.7,0.6,2.4,1.6c0,0,0.6,0.8-0.3,0.6c0,0,0.6,0.7-1,0.6c0,0-7.2,0.6-10.8-0.5c0,0,0.4,4.2-4.3,5.3c0,0-2.6,0.6-1-1.3
	c0,0,1.6-2.2,0.4-3.9c0,0-7.3-0.1-12.5,4.4c0,0-5.4,4.9-6.1,8.3c0,0,2.6,0.9,2.4,4.7c0,0,0.1,2-1.1,0.3c0,0-0.7-1.8-3.5-1.9
	c0,0-3.7-0.3-5.9,1.4c0,0-2,1.2-0.9-0.6c0,0,1.7-3.3,6.5-4.4C9.7,35.2,10.4,21.4,21.1,15.2z"/>
</svg>
