<?xml version="1.0" encoding="utf-8"?>
<!-- Generator: Adobe Illustrator 19.0.0, SVG Export Plug-In . SVG Version: 6.00 Build 0)  -->
<svg version="1.1" id="Layer_1" xmlns="http://www.w3.org/2000/svg" xmlns:xlink="http://www.w3.org/1999/xlink" x="0px" y="0px"
	 viewBox="-429 218 100 100" style="enable-background:new -429 218 100 100;" xml:space="preserve">
<g>
	<g>
		<path d="M-356,287.2c-0.1,4.9-0.7,9.7-1.8,14.5c-0.3,1.2-1.1,1.8-2,1.6c-1-0.2-1.5-1.1-1.2-2.2c1.1-4.8,1.7-9.7,1.7-14.6
			c0-12.3-8.5-22.4-20.6-24.6c-13.3-2.4-26.4,7-28.4,20.4c-0.1,0.8-0.2,1.7-0.3,2.5c-0.1,1.2-0.8,1.8-1.8,1.7
			c-0.9-0.1-1.5-0.8-1.5-1.9c0.3-5.9,2.3-11.3,6.2-15.8c7.5-8.8,17.1-12.3,28.3-9.5c11.2,2.8,18.1,10.3,20.8,21.5
			c0.2,0.9,0.3,1.8,0.4,2.8C-356.1,284.6-356,285.9-356,287.2z"/>
		<path d="M-349.4,287.9c-0.1,1.2-0.1,2.5-0.2,3.7c-0.1,1.2-0.8,1.9-1.7,1.9c-1,0-1.7-0.9-1.6-2.1c0.3-4.1,0.3-8.2-0.6-12.3
			c-2.8-12.4-13.5-22.3-26.2-23.9c-13.4-1.7-25.6,4.6-32,16.5c-0.6,1.1-1.3,1.4-2.2,1.2c-1-0.3-1.4-1.4-0.9-2.4
			c1.4-2.7,3.1-5.3,5.2-7.5c9.7-10.1,21.4-13.8,34.8-10c13.6,3.8,21.7,13.1,24.8,26.8c0.2,0.9,0.3,1.8,0.4,2.8
			C-349.5,284.3-349.5,286.1-349.4,287.9L-349.4,287.9z"/>
		<path d="M-362.5,287.1c-0.2,6.8-1.5,13.4-3.6,19.9c-0.4,1.2-1.2,1.7-2.2,1.4c-1-0.4-1.3-1.2-0.9-2.5c2-6,3-12.1,3.3-18.3
			c0.3-9.4-5.5-17.3-14.2-19.1c-11.4-2.4-21.7,5.9-22,17.5c-0.1,2.8-0.5,5.5-1.4,8.2c-0.1,0.2-0.1,0.5-0.2,0.7
			c-0.4,0.8-1.2,1.2-2,0.9c-0.8-0.3-1.4-1.1-1.1-1.9c1.3-3.5,1.2-7.1,1.6-10.7c1-9.1,8.5-16.8,17.4-18.2
			c11.9-1.9,22.5,5.5,24.7,17.3C-362.6,284-362.6,285.6-362.5,287.1z"/>
		<path d="M-344,276.8c0,1-0.5,1.6-1.3,1.8c-0.8,0.2-1.6-0.3-1.9-1.2c-0.3-1.1-0.6-2.2-1-3.3c-5.3-14.4-15.5-23.1-30.7-25.3
			c-12.6-1.9-23.4,2.2-32.4,11.2c-0.2,0.2-0.3,0.3-0.4,0.5c-0.8,0.8-1.7,0.9-2.5,0.2c-0.7-0.7-0.7-1.6,0.1-2.5
			c4.1-4.4,8.9-7.8,14.5-10.1c23.1-9.6,49.4,3.6,55.6,27.9C-344,276.3-344,276.6-344,276.8z"/>
		<path d="M-369.1,288.1c-0.4,7.4-2.1,14.4-4.8,21.2c-0.4,1.1-1.3,1.6-2.3,1.2c-0.9-0.4-1.2-1.3-0.8-2.4c2.1-5.2,3.6-10.5,4.1-16.1
			c0.2-2.7,0.4-5.4,0.1-8.1c-0.7-5.3-5.7-9.2-11.1-9.3c-5.5,0-10.4,3.9-11.3,9.2c-0.4,2.2-0.3,4.4-0.6,6.6c-0.4,3.6-1.6,6.9-3,10.2
			c-0.4,1-1.4,1.3-2.2,0.9s-1.2-1.3-0.8-2.2c1.2-3,2.3-6,2.7-9.3c0.2-2,0.2-4,0.5-5.9c0.9-7.3,7.2-12.8,14.7-12.8
			c7.3,0,13.7,5.5,14.6,12.7C-369.2,285.4-369.2,286.7-369.1,288.1z"/>
		<path d="M-382.1,238.4c15.3,0.6,28.9,7.8,38.4,22.3c0.2,0.3,0.3,0.5,0.5,0.8c0.3,0.8,0.1,1.6-0.6,2c-0.7,0.4-1.5,0.3-2.1-0.3
			c-0.1-0.2-0.3-0.3-0.4-0.5c-7.3-11.3-17.6-18.3-30.9-20.4c-11.4-1.8-21.9,0.7-31.6,7c-0.3,0.2-0.6,0.4-0.9,0.5
			c-0.7,0.4-1.6,0.1-2.1-0.5c-0.5-0.7-0.4-1.5,0.2-2.1c0.2-0.2,0.5-0.4,0.8-0.6C-402.6,241.2-393.7,238.5-382.1,238.4z"/>
		<path d="M-375.7,287.9c-0.3,7.4-2.3,14.5-5.3,21.2c-0.2,0.5-0.8,1.1-1.3,1.3c-0.4,0.1-1.2-0.2-1.5-0.5c-0.6-0.5-0.5-1.2-0.2-1.9
			c1.1-2.8,2.2-5.6,3.1-8.5c1.3-4.3,2-8.7,2-13.2c0-3-2.1-5.2-4.9-5.2c-2.8,0-4.9,2.2-4.9,5.2c-0.3,6.6-2.1,12.7-4.8,18.5
			c-0.5,1-1.3,1.3-2.2,1c-0.9-0.4-1.2-1.3-0.7-2.4c1.8-4,3.3-8.2,3.9-12.6c0.2-1.8,0.2-3.7,0.4-5.6c0.5-4.5,4.1-7.6,8.6-7.4
			c4.2,0.2,7.6,3.7,7.8,8.1C-375.7,286.7-375.7,287.3-375.7,287.9z"/>
		<path d="M-346.6,247.1c0.3,0.5,0.3,1.2-0.1,1.6c-0.2,0.2-0.4,0.5-0.6,0.6c-0.7,0.4-1.3,0.1-1.9-0.4c-1.7-1.4-3.3-2.9-5-4.1
			c-10.2-7.3-21.6-10.4-34.1-9.4c-5.3,0.4-10.4,1.7-15.4,3.8c-1.1,0.4-1.8,0.3-2.3-0.4c-0.6-0.9-0.2-2,1-2.5
			c3.8-1.6,7.8-2.8,11.9-3.5c13.2-2.2,25.5,0.2,37,6.9c3.2,1.9,6.2,4.2,9,6.8C-346.9,246.6-346.7,246.8-346.6,247.1z"/>
		<path d="M-384,225.5c9.4-0.1,18.4,1.9,26.8,6.1c0.2,0.1,0.3,0.2,0.5,0.2c1,0.5,1.4,1.5,1,2.4c-0.4,0.9-1.4,1.1-2.4,0.6
			c-5.1-2.5-10.4-4.3-16-5.3c-6.2-1.1-12.5-1.1-18.7-0.2c-0.3,0-0.6,0.1-0.8,0.1c-1,0.1-1.7-0.5-1.8-1.3c-0.2-1,0.4-1.8,1.4-1.9
			c1.9-0.3,3.7-0.6,5.6-0.7C-386.9,225.4-385.4,225.5-384,225.5z"/>
		<path d="M-382.3,288.4c-0.3,7.3-2.3,14-5.3,20.4c-0.5,1-1.4,1.3-2.2,0.9c-0.9-0.4-1.2-1.3-0.7-2.4c1.8-4,3.4-8.1,4.1-12.4
			c0.4-2.5,0.6-5,0.8-7.6c0.1-1.2,0.7-2,1.6-2c1,0,1.6,0.8,1.6,2C-382.3,287.8-382.3,288.2-382.3,288.4z"/>
	</g>
</g>
</svg>
