<?xml version="1.0" encoding="utf-8"?>
<!-- Generator: Adobe Illustrator 23.0.3, SVG Export Plug-In . SVG Version: 6.00 Build 0)  -->
<svg version="1.2" baseProfile="tiny" id="Layer_1" xmlns="http://www.w3.org/2000/svg" xmlns:xlink="http://www.w3.org/1999/xlink"
	 x="0px" y="0px" viewBox="0 0 110 110" xml:space="preserve">
<style type="text/css">
	.hex-coin-stack{fill:#292B2C;}
</style>
<path class="hex-coin-stack" d="M65.9,39c-5.9-3.6-18.6-3.3-18.6-3.3c-0.3,0-0.6,0-0.9,0c-16.1,0-29.2,5.7-29.2,12.8c0,2,0,9,0,11c0,2.7,1.9,5.2,5.1,7.2
	c0,1.2,0,3.2,0,5.2c-6.5,2.3-10.6,5.9-10.6,9.9c0,2,0,9,0,11c0,7.1,13.1,12.8,29.2,12.8c16.1,0,29.2-5.7,29.2-12.8c0-1,0-3.5,0-5.9
	c6.5-2.3,10.6-5.9,10.6-9.9c0-2,0-9,0-11c0-2.7-1.9-5.2-5.1-7.2c0-2.2,0-7.2,0-9.5 M46.4,39c15.8,0,26,5.6,26,9.5S62.2,58,46.4,58
	s-26-5.6-26-9.5S30.5,39,46.4,39z M72.3,54.4v5.1c0,1-0.6,2-1.8,3.1v-6.9C71.2,55.3,71.8,54.8,72.3,54.4z M68.3,56.9v7.2
	c-0.7,0.4-1.4,0.8-2.2,1.1v-7.4C66.9,57.6,67.6,57.3,68.3,56.9z M63.9,58.7v7.5c-0.7,0.3-1.4,0.5-2.2,0.7v-7.6
	C62.5,59.2,63.2,59,63.9,58.7z M59.5,59.9v7.6c-0.7,0.2-1.4,0.3-2.2,0.5v-7.6C58.1,60.2,58.8,60.1,59.5,59.9z M55.2,60.7v7.6
	c-0.8,0.1-1.7,0.2-2.6,0.3l-2.2,0.2c-0.9,0.1-1.9,0.1-2.9,0.1v-7.7c1,0,2-0.1,2.9-0.1l2.2-0.2C53.5,60.9,54.3,60.8,55.2,60.7z
	 M45.3,61.3v7.7c-1,0-2-0.1-2.9-0.1l-2.2-0.2c-0.9-0.1-1.7-0.2-2.6-0.3v-7.6c0.8,0.1,1.7,0.2,2.6,0.3l2.2,0.2
	C43.3,61.2,44.3,61.3,45.3,61.3z M35.4,60.4V68c-0.8-0.1-1.5-0.3-2.2-0.5L31,66.9c-0.8-0.2-1.5-0.5-2.2-0.7v-7.5
	c0.7,0.2,1.4,0.5,2.2,0.7l2.2,0.5C33.9,60.1,34.7,60.2,35.4,60.4z M22.3,62.6c-1.2-1.1-1.8-2.2-1.8-3.1v-5.1
	c0.6,0.5,1.2,0.9,1.8,1.3l2.2,1.2c0.7,0.3,1.4,0.7,2.2,1v7.4c-0.8-0.4-1.5-0.7-2.2-1.1L22.3,62.6z M27.4,73.3l2.2,1.2
	c0.7,0.3,1.4,0.7,2.2,1v7.4c-0.8-0.4-1.5-0.7-2.2-1.1l-2.2-1.6c-1.2-1.1-1.8-2.2-1.8-3.1v-5.1C26.1,72.4,26.7,72.8,27.4,73.3z
	 M16.8,95.8c-1.2-1.1-1.8-2.2-1.8-3.1v-5.1c0.6,0.5,1.2,0.9,1.8,1.3V95.8z M25.5,100.2c-0.8-0.2-1.5-0.5-2.2-0.7l-2.2-0.9
	c-0.8-0.4-1.5-0.7-2.2-1.1v-7.2c0.7,0.3,1.4,0.7,2.2,1l2.2,0.8c0.7,0.2,1.4,0.5,2.2,0.7V100.2z M29.9,101.2
	c-0.8-0.1-1.5-0.3-2.2-0.5v-7.6c0.7,0.2,1.4,0.3,2.2,0.4V101.2z M39.8,102.2c-1,0-2-0.1-2.9-0.1l-2.2-0.2c-0.9-0.1-1.7-0.2-2.6-0.3
	V94c0.8,0.1,1.7,0.2,2.6,0.3l2.2,0.2c1,0.1,1.9,0.1,2.9,0.1V102.2z M14.9,81.8c0-2,2.6-4.4,7.3-6.3c0,0.7,0,1.2,0,1.6
	c0,7.1,13.1,12.8,29.2,12.8c0.9,0,1.9,0,2.8-0.1c-3.8,0.9-8.3,1.5-13.4,1.5C25.1,91.3,14.9,85.6,14.9,81.8z M34,83.7v-7.5
	c0.7,0.2,1.4,0.5,2.2,0.7v7.6C35.4,84.2,34.7,84,34,83.7z M38.3,85.1v-7.6c0.7,0.2,1.4,0.3,2.2,0.4l2.2,0.3c0.8,0.1,1.7,0.2,2.6,0.3
	v7.7c-0.9-0.1-1.7-0.2-2.6-0.3l-2.2-0.4C39.8,85.4,39,85.2,38.3,85.1z M47.5,86.4v-7.7c1,0.1,1.9,0.1,2.9,0.1h2.2c1,0,2-0.1,2.9-0.1
	v7.7c-1,0.1-1.9,0.1-2.9,0.1h-2.2C49.4,86.5,48.4,86.4,47.5,86.4z M49.7,101.6c-0.8,0.1-1.7,0.2-2.6,0.3l-2.2,0.2
	c-0.9,0.1-1.9,0.1-2.9,0.1v-7.7c1,0,2-0.1,2.9-0.1l2.2-0.2c0.9-0.1,1.7-0.2,2.6-0.3V101.6z M58.4,99.5c-0.7,0.3-1.4,0.5-2.2,0.7
	l-2.2,0.6c-0.7,0.2-1.4,0.3-2.2,0.5v-7.6c0.7-0.1,1.5-0.3,2.2-0.4l2.2-0.5c0.8-0.2,1.5-0.4,2.2-0.7V99.5z M60.3,85.9
	c-0.8,0.1-1.7,0.2-2.6,0.3v-7.7c0.9-0.1,1.7-0.2,2.6-0.3V85.9z M62.8,97.4c-0.7,0.4-1.4,0.8-2.2,1.1v-7.4c0.8-0.3,1.5-0.6,2.2-1
	V97.4z M64.7,85.1c-0.7,0.2-1.4,0.3-2.2,0.5v-7.6c0.7-0.1,1.5-0.3,2.2-0.4V85.1z M66.8,92.7L66.8,92.7c0,1-0.6,2-1.8,3.1V89
	c0.5-0.3,1-0.7,1.4-1c0.1,0,0.3-0.1,0.4-0.1V92.7z M69,83.7c-0.7,0.3-1.4,0.5-2.2,0.7v-7.6c0.8-0.2,1.5-0.4,2.2-0.7V83.7z
	 M73.4,81.7c-0.6,0.4-1.4,0.8-2.2,1.1v-7.4c0.8-0.3,1.5-0.6,2.2-1V81.7z M77.4,77c0,1-0.6,2-1.8,3.1v-6.9c0.7-0.4,1.3-0.9,1.8-1.3
	V77z M77.4,66c0,3.9-10.1,9.5-25.9,9.5c-11.8,0-20.5-3.1-24.1-6.4c5.1,1.9,11.7,3.1,19,3.1c13.9,0,25.5-4.3,28.5-9.9
	C76.5,63.6,77.4,64.9,77.4,66z"/>
<path class="hex-coin-stack" d="M86.9,3.9H60.8L47.8,26.5l7.6,13.1c10.6,1.6,17,5.8,17,8.9c0,0.2,0,0.4-0.1,0.6h14.7L100,26.5L86.9,3.9z M69.7,20.1h10.6
	v1.4h-8.7v4h7.9v1.4h-5.3v0h-4.5V20.1z M57,26.8L57,26.8l0,6h-1.9V20.1H57v5.4h0V26.8z M66.9,32.8H65v-6h-6.5v-1.3H65v-5.4h1.9V32.8
	z M80.6,32.8H69.7v-4.7h1.9v3.2h9V32.8z M83.2,32.8H81l4.5-5.6l1,1.2L83.2,32.8z M87.2,27.5l-1-1.2l-4.8-6.2h2.2l3.7,5.1h0l3.8-5.1
	h2.1l-4.9,6.2l5.1,6.5h-2.3L87.2,27.5z"/>
</svg>
