<?xml version="1.0" encoding="utf-8"?>
<!-- Generator: Adobe Illustrator 23.0.2, SVG Export Plug-In . SVG Version: 6.00 Build 0)  -->
<svg version="1.2" baseProfile="tiny" id="Layer_1" xmlns="http://www.w3.org/2000/svg" xmlns:xlink="http://www.w3.org/1999/xlink"
	 x="0px" y="0px" viewBox="0 0 85 85" xml:space="preserve">
<style type="text/css">
	.interface-setting{fill:#BBBDBF}
</style>
<path class="interface-setting" d="M72.7,16.6H13.6c-0.7,0-1.3,0.6-1.3,1.3v46.3c0,0.7,0.6,1.3,1.3,1.3h59.1c0.7,0,1.3-0.6,1.3-1.3V17.9
	C73.9,17.2,73.4,16.6,72.7,16.6z M71.4,19.2v10.3H14.8V19.2H71.4z M14.8,62.9V32h56.5v30.8H14.8z M18.7,24.3c0-0.7,0.6-1.3,1.3-1.3
	h5.1c0.7,0,1.3,0.6,1.3,1.3s-0.6,1.3-1.3,1.3H20C19.3,25.6,18.7,25.1,18.7,24.3z M29,24.3c0-0.7,0.6-1.3,1.3-1.3h5.1
	c0.7,0,1.3,0.6,1.3,1.3s-0.6,1.3-1.3,1.3h-5.1C29.5,25.6,29,25.1,29,24.3z M39.3,24.3c0-0.7,0.6-1.3,1.3-1.3h5.1
	c0.7,0,1.3,0.6,1.3,1.3s-0.6,1.3-1.3,1.3h-5.1C39.8,25.6,39.3,25.1,39.3,24.3z M40.5,35.9H22.8c-0.7,0-1.3,0.6-1.3,1.3v7.7
	c0,0.7,0.6,1.3,1.3,1.3h17.7c0.7,0,1.3-0.6,1.3-1.3v-7.7C41.8,36.5,41.2,35.9,40.5,35.9z M39.3,43.6H24.1v-5.1h15.1V43.6z
	 M40.5,48.8H22.8c-0.7,0-1.3,0.6-1.3,1.3v7.7c0,0.7,0.6,1.3,1.3,1.3h17.7c0.7,0,1.3-0.6,1.3-1.3V50C41.8,49.3,41.2,48.8,40.5,48.8z
	 M39.3,56.5H24.1v-5.1h15.1V56.5z M63.4,48.8H45.7c-0.7,0-1.3,0.6-1.3,1.3v7.7c0,0.7,0.6,1.3,1.3,1.3h17.7c0.7,0,1.3-0.6,1.3-1.3V50
	C64.7,49.3,64.1,48.8,63.4,48.8z M62.1,56.5H47v-5.1h15.1V56.5z"/>
</svg>
