<?xml version="1.0" encoding="iso-8859-1"?>
<!-- Generator: Adobe Illustrator 16.0.0, SVG Export Plug-In . SVG Version: 6.00 Build 0)  -->
<!DOCTYPE svg PUBLIC "-//W3C//DTD SVG 1.1//EN" "http://www.w3.org/Graphics/SVG/1.1/DTD/svg11.dtd">
<svg version="1.1" id="Capa_1" xmlns="http://www.w3.org/2000/svg" xmlns:xlink="http://www.w3.org/1999/xlink" x="0px" y="0px"
	 width="45.583px" height="45.583px" viewBox="0 0 45.583 45.583" style="enable-background:new 0 0 45.583 45.583;"
	 xml:space="preserve">
<g>
	<g>
		<path d="M22.793,12.196c-3.361,0-6.078-2.729-6.078-6.099C16.715,2.73,19.432,0,22.793,0c3.353,0,6.073,2.729,6.073,6.097
			C28.866,9.466,26.145,12.196,22.793,12.196z"/>
		<path d="M22.794,28.889c-3.361,0-6.079-2.729-6.079-6.099c0-3.366,2.717-6.099,6.078-6.099c3.353,0,6.073,2.732,6.075,6.099
			C28.866,26.162,26.144,28.889,22.794,28.889z"/>
		<path d="M22.794,45.583c-3.361,0-6.079-2.729-6.079-6.099s2.717-6.098,6.078-6.098c3.353-0.002,6.073,2.729,6.073,6.098
			S26.144,45.583,22.794,45.583z"/>
	</g>
</g>
<g>
</g>
<g>
</g>
<g>
</g>
<g>
</g>
<g>
</g>
<g>
</g>
<g>
</g>
<g>
</g>
<g>
</g>
<g>
</g>
<g>
</g>
<g>
</g>
<g>
</g>
<g>
</g>
<g>
</g>
</svg>
