<?xml version="1.0" encoding="UTF-8" standalone="no"?>
<!DOCTYPE svg PUBLIC "-//W3C//DTD SVG 1.1//EN"
"http://www.w3.org/Graphics/SVG/1.1/DTD/svg11.dtd">


<!-- Page 5 -->
<svg x="0" y="0" width="275" height="275" viewBox="0 0 275 275" version="1.1" xmlns="http://www.w3.org/2000/svg" xmlns:xlink="http://www.w3.org/1999/xlink"
style="display: block;margin-left: auto;margin-right: auto;">
<defs>

<style type="text/css"><![CDATA[

.g1_5{
fill: #050604;
}


]]></style>

</defs>
<path d="M0,0
L0,275
L275,275
L275,0 Z " 
fill="#FFFFFF" stroke="none" />
<path d="M240.5,175.3c-3.5,1.4,-7.1,2.9,-11.3,2.9c-8.4,0,-14.1,-5.7,-22.5,-5.7c-8.5,0,-14.1,5.7,-22.6,5.7c-8.4,0,-14.1,-5.7,-22.5,-5.7c-8.5,0,-14.1,5.7,-22.6,5.7c-8.4,0,-14.1,-5.7,-22.5,-5.7c-8.5,0,-14.1,5.7,-22.6,5.7c-8.4,0,-14.1,-5.7,-22.5,-5.7c-8.5,0,-14.1,5.7,-22.6,5.7c-4.2,0,-7.7,-1.5,-11.2,-2.9l0,7.8c3.5,1.4,7,2.8,11.2,2.8c8.5,0,14.1,-5.6,22.6,-5.6c8.4,0,14.1,5.6,22.5,5.6c8.5,0,14.1,-5.6,22.6,-5.6c8.4,0,14.1,5.6,22.5,5.6c8.5,0,14.1,-5.6,22.6,-5.6c8.4,0,14.1,5.6,22.5,5.6c8.5,0,14.1,-5.6,22.6,-5.6c8.4,0,14.1,5.6,22.5,5.6c4.2,0,7.8,-1.4,11.3,-2.8Z" class="g1_5" />
<path d="M240.5,149.5c-3.5,1.4,-7.1,2.8,-11.3,2.8c-8.4,0,-14.1,-5.6,-22.5,-5.6c-8.5,0,-14.1,5.6,-22.6,5.6c-8.4,0,-14.1,-5.6,-22.5,-5.6c-8.5,0,-14.1,5.6,-22.6,5.6c-8.4,0,-14.1,-5.6,-22.5,-5.6c-8.5,0,-14.1,5.6,-22.6,5.6c-8.4,0,-14.1,-5.6,-22.5,-5.6c-8.5,0,-14.1,5.6,-22.6,5.6c-4.2,0,-7.7,-1.4,-11.2,-2.8l0,7.7c3.5,1.4,7,2.8,11.2,2.8c8.5,0,14.1,-5.6,22.6,-5.6c8.4,0,14.1,5.6,22.5,5.6c8.5,0,14.1,-5.6,22.6,-5.6c8.4,0,14.1,5.6,22.5,5.6c8.5,0,14.1,-5.6,22.6,-5.6c8.4,0,14.1,5.6,22.5,5.6c8.5,0,14.1,-5.6,22.6,-5.6c8.4,0,14.1,5.6,22.5,5.6c4.2,0,7.8,-1.4,11.3,-2.8Z" class="g1_5" />
<path d="M240.5,123.6c-3.5,1.4,-7.1,2.8,-11.3,2.8c-8.4,0,-14.1,-5.6,-22.5,-5.6c-8.5,0,-14.1,5.6,-22.6,5.6c-8.4,0,-14.1,-5.6,-22.5,-5.6c-8.5,0,-14.1,5.6,-22.6,5.6c-8.4,0,-14.1,-5.6,-22.5,-5.6c-8.5,0,-14.1,5.6,-22.6,5.6c-8.4,0,-14.1,-5.6,-22.5,-5.6c-8.5,0,-14.1,5.6,-22.6,5.6c-4.2,0,-7.7,-1.4,-11.2,-2.8l0,7.8c3.5,1.4,7,2.8,11.2,2.8c8.5,0,14.1,-5.7,22.6,-5.7c8.4,0,14.1,5.7,22.5,5.7c8.5,0,14.1,-5.7,22.6,-5.7c8.4,0,14.1,5.7,22.5,5.7c8.5,0,14.1,-5.7,22.6,-5.7c8.4,0,14.1,5.7,22.5,5.7c8.5,0,14.1,-5.7,22.6,-5.7c8.4,0,14.1,5.7,22.5,5.7c4.2,0,7.8,-1.4,11.3,-2.8Z" class="g1_5" />
<path d="M240.5,97.8c-3.5,1.4,-7.1,2.8,-11.3,2.8c-8.4,0,-14.1,-5.6,-22.5,-5.6c-8.5,0,-14.1,5.6,-22.6,5.6C175.7,100.6,170,95,161.6,95c-8.5,0,-14.1,5.6,-22.6,5.6c-8.4,0,-14.1,-5.6,-22.5,-5.6c-8.5,0,-14.1,5.6,-22.6,5.6C85.5,100.6,79.8,95,71.4,95c-8.5,0,-14.1,5.6,-22.6,5.6c-4.2,0,-7.7,-1.4,-11.2,-2.8l0,7.7c3.5,1.4,7,2.8,11.2,2.8c8.5,0,14.1,-5.6,22.6,-5.6c8.4,0,14.1,5.6,22.5,5.6c8.5,0,14.1,-5.6,22.6,-5.6c8.4,0,14.1,5.6,22.5,5.6c8.5,0,14.1,-5.6,22.6,-5.6c8.4,0,14.1,5.6,22.5,5.6c8.5,0,14.1,-5.6,22.6,-5.6c8.4,0,14.1,5.6,22.5,5.6c4.2,0,7.8,-1.4,11.3,-2.8Z" class="g1_5" />

</svg>
