<?xml version="1.0" encoding="utf-8"?>
<!-- Generator: Adobe Illustrator 23.0.1, SVG Export Plug-In . SVG Version: 6.00 Build 0)  -->
<svg version="1.2" baseProfile="tiny" id="Layer_1" xmlns="http://www.w3.org/2000/svg" xmlns:xlink="http://www.w3.org/1999/xlink"
	 x="0px" y="0px" viewBox="0 0 62 62" xml:space="preserve">
<style type="text/css">
	.snapper-trader0{fill:none;stroke:#B7B5CD;stroke-miterlimit:10;}
	.snapper-trader1{fill:#F43E15}
</style>
<path class="snapper-trader0" d="M-113.3,71.2"/>
<g>
	<g>
		<path class="snapper-trader1" d="M24.8,21.3c-0.1,0.4,0.1,0.9,0.6,1c0.1,0,10.8,3.3,17.9,6.5c1,0.5,1.9,0.9,2.7,1.2
			c0.6,0.3,1.1,0.5,1.6,0.7c3.2,1.2,4.2,1,5.8,0.4l0.2-0.1c2.5-0.9,3.9-3.5,4.4-4.5c0.2-0.4,0.4-0.6,0.5-0.8c0,0.5-0.1,1.5-0.7,3.3
			c-0.5,1.7-1.1,3.2-1.1,3.2c0,0.1-0.1,0.2-0.1,0.3c0,0.8,0.8,4.9,1.1,6.1c0.1,0.4,0.4,0.7,0.8,0.7c0.1,0,0.1,0,0.2,0
			c0.5-0.1,0.7-0.5,0.6-1c-0.5-2.3-1-4.9-1-5.5c0.2-0.5,0.7-1.8,1.2-3.2c1.1-3.4,0.8-4.5,0.5-5c-0.3-0.4-0.7-0.7-1.2-0.6
			c-0.8,0-1.6,0.8-2.2,2c-1.3,2.6-2.9,3.5-3.5,3.7l-0.2,0.1c-1.1,0.4-1.7,0.6-4.1-0.2l0.5-0.7c0.3-0.4,0.2-0.9-0.1-1.2
			c-0.4-0.3-0.9-0.2-1.2,0.1L47,28.8c-0.9-0.4-1.9-0.8-3.1-1.4c-7.2-3.3-18-6.6-18.1-6.6C25.4,20.6,24.9,20.9,24.8,21.3z"/>
		<path class="snapper-trader1" d="M51.4,34.4c-0.7,0-1.3,0.3-2.4,0.9c-0.6,0.3-1.4,0.7-2.3,1.2c-0.6,0.3-1.3,0.6-2.1,0.9
			c-0.5,0.2-1,0.4-1.6,0.6c-0.6,0.2-1.3,0.4-2,0.7c0,0-0.1,0-0.1,0c-1.5,0.4-3,0.8-4.5,1c-0.6,0.1-1.2,0.2-1.9,0.3
			c-4,0.5-7.8,0.4-10.4,0.4c-0.5,0-1,0-1.5,0c-0.5,0-0.8,0.4-0.8,0.8c0,0.5,0.4,0.8,0.8,0.8c0.4,0,0.9,0,1.5,0
			c2.9,0,7.2,0.1,11.6-0.6c1,1,2.7,2.3,4.8,2.3h0c0.4,0,0.8-0.4,0.8-0.8c0-0.5-0.3-0.9-0.8-0.9c-1.1,0-2-0.5-2.7-1
			c1.2-0.2,2.4-0.5,3.6-0.9c0.4-0.1,0.9-0.3,1.3-0.4c0.5,0.3,1.1,0.7,1.6,1.1c0.1,0.1,0.3,0.1,0.5,0.1c0.3,0,0.5-0.1,0.7-0.4
			c0.3-0.4,0.2-0.9-0.2-1.2c-0.2-0.1-0.4-0.3-0.6-0.4c0.7-0.3,1.4-0.6,2-0.8c0.6,0.2,1.1,0.5,1.6,0.7c0.1,0.1,0.2,0.1,0.3,0.1
			c0.3,0,0.6-0.2,0.8-0.5c0.2-0.4,0-0.9-0.4-1.1c-0.1,0-0.2-0.1-0.3-0.1c0.4-0.2,0.8-0.4,1.1-0.6c0.6-0.3,1.3-0.7,1.5-0.7h0
			c0.2,0,1,0.4,2.5,1.9c1.4,1.3,2.8,3.1,4,5c0.2,0.2,0.4,0.4,0.7,0.4c0.2,0,0.3,0,0.5-0.1c0.4-0.3,0.5-0.8,0.2-1.2
			C56.8,38.3,53.3,34.5,51.4,34.4z"/>
		<path class="snapper-trader1" d="M23.6,43.6c0,0-0.8-0.2-1.7-0.7c-0.8-0.4-1.9-1.2-2.4-2.3c-0.1-0.2-0.3-0.4-0.5-0.5
			c-0.1,0-0.2-0.1-0.5-0.2c-1.7-0.5-3.1-1-4.5-1.5c1.2-1.7,1.9-3.6,2-5.8c2.5-0.7,6.4-1.5,9.7-0.9c-1.1,0.5-2.5,1.2-4.1,2.2
			c-0.7-0.1-2.6-0.3-3.2-0.4c-0.5-0.1-0.9,0.3-0.9,0.7c-0.1,0.5,0.3,0.9,0.7,0.9c0.7,0.1,3.4,0.4,3.5,0.4c0,0,0.1,0,0.1,0
			c0.2,0,0.3,0,0.4-0.1c3.6-2.2,6.3-3,6.3-3c0.3-0.1,0.6-0.4,0.6-0.7c0-0.3-0.2-0.7-0.5-0.8c-2.6-1.2-6-1.4-10.3-0.6
			c-0.9,0.2-1.7,0.4-2.4,0.5c-0.1-0.6-0.1-1.1-0.2-1.6c6.2-2.1,12.5-1.7,16.8-0.9c5.2,1,8.8,2.6,8.9,2.7c0.1,0.1,0.2,0.1,0.4,0.1
			c0.3,0,0.6-0.2,0.8-0.5c0.2-0.4,0-0.9-0.4-1.1c-0.2-0.1-3.8-1.8-9.2-2.8C28.5,26,22,25.5,15.5,27.7c-0.1-0.4-0.3-0.7-0.3-0.7
			c-0.2-0.4-0.7-0.6-1.1-0.4c-0.4,0.2-0.6,0.7-0.4,1.1c0,0,0.1,0.2,0.2,0.6v0c0.1,0.4,0.3,1,0.4,1.6c0.1,0.5,0.1,1,0.2,1.5
			c0,0.1,0,0.2,0,0.3c0,0.5,0,1-0.1,1.5c-0.2,1.8-0.8,3.4-1.9,4.7c-8.5-3.3-9-5.1-9-5.6c0-1.8,5.4-5.1,10.3-7.2
			c3.9-1.6,6-2.4,7.2-2.9c1.3-0.5,1.6-0.6,2.1-0.9c0.8-0.4,3.3-2.7,4.8-4.3c0.5,1.3,1.5,2.7,3.5,3.3c3.4,1,7.9,3.4,10.3,5.4
			c0.4,0.3,0.9,0.2,1.2-0.1c0.3-0.4,0.2-0.9-0.1-1.2c-2.5-2.1-7.3-4.6-10.9-5.7c-2.6-0.8-2.6-3.4-2.6-3.5c0-0.4-0.2-0.7-0.6-0.8
			c-0.4-0.1-0.7,0-0.9,0.3c-0.4,0.6-4.6,4.7-5.3,5.1c-0.5,0.2-0.7,0.3-2,0.8c-1.2,0.5-3.2,1.3-7.2,2.9c-1.8,0.7-4.5,2-6.8,3.5
			c-3.1,2-4.6,3.7-4.6,5.2c0,1.9,2.3,3.8,7.3,6c0.7,0.3,1.4,0.6,2,0.9c0.6,0.2,1.2,0.5,1.8,0.7c2.3,0.8,4.3,1.5,5.1,1.7
			c0,0,0.1,0,0.1,0c1.4,2.7,4.9,3.5,5,3.6c0.1,0,0.1,0,0.2,0c0.4,0,0.7-0.3,0.8-0.6C24.4,44.2,24.1,43.7,23.6,43.6z"/>
	</g>
	<circle class="snapper-trader1" cx="8.5" cy="30.7" r="1.2"/>
</g>
</svg>
