<?xml version="1.0" encoding="UTF-8" standalone="no"?>
<!DOCTYPE svg PUBLIC "-//W3C//DTD SVG 1.1//EN"
"http://www.w3.org/Graphics/SVG/1.1/DTD/svg11.dtd">


<!-- Page 6 -->
<svg x="0" y="0" width="275" height="275" viewBox="0 0 275 275" version="1.1" xmlns="http://www.w3.org/2000/svg" xmlns:xlink="http://www.w3.org/1999/xlink"
style="display: block;margin-left: auto;margin-right: auto;">
<defs>

<style type="text/css"><![CDATA[

.g1_6{
fill: #050604;
}


]]></style>

</defs>
<path d="M0,0
L0,275
L275,275
L275,0 Z " 
fill="#FFFFFF" stroke="none" />
<path d="M211.7,109.1c-3.6,2.7,-8.7,1.9,-11.4,-1.7l-7,-9.5c-1.1,-1.5,-3.3,-1.8,-4.8,-0.7c-0.8,0.6,-1.3,1.4,-1.4,2.4C180.5,155,134.6,198.8,80.3,201.5c-5,0.3,-9.9,0.2,-14.9,-0.2c-2.3,-0.2,-4.5,-1.4,-5.9,-3.3c-1.4,-1.9,-2,-4.2,-1.5,-6.5c0.8,-3.8,4.2,-6.6,8.1,-6.5l0.7,0c4.2,0.3,8.4,0.4,12.6,0.2C126.5,182.9,166,144.9,171,96.8c0.2,-1.9,-1.2,-3.6,-3.2,-3.7c-0.8,-0.1,-1.6,0.2,-2.3,0.7l-9,6.6c-3.4,2.6,-8.3,2.3,-11.3,-0.8c-3,-3.4,-2.8,-8.6,0.6,-11.6c0.2,-0.2,0.4,-0.3,0.6,-0.5l32,-23.6c3.7,-2.7,8.8,-1.9,11.5,1.7l23.6,32.1c2.7,3.7,1.8,8.8,-1.8,11.4ZM195.5,61.6l0,0c-5,-6.8,-14.4,-8.2,-21.2,-3.3l-32,23.5c-6.7,5,-8.2,14.5,-3.2,21.2c0.3,0.4,0.6,0.7,0.9,1.1c5.4,5.8,14.3,6.6,20.6,1.8l2.3,-1.7c-8,40.8,-42.7,72,-83.8,74.2c-3.9,0.1,-7.7,0.1,-11.6,-0.2c-8.3,-1.1,-15.9,4.7,-17,13c-1.1,8.3,4.8,15.9,13,17c0.5,0,1,0.1,1.5,0.1c3.2,0.3,6.5,0.4,9.8,0.4c2,0,4,0,5.9,-0.2c54.9,-2.7,101.7,-44.9,112.1,-99.6l1.9,2.7c5.2,6.6,14.7,7.8,21.3,2.6c6.3,-4.9,7.7,-13.9,3.1,-20.5Z" class="g1_6" />

</svg>
