<?xml version="1.0" encoding="utf-8"?>
<!-- Generator: Adobe Illustrator 19.0.0, SVG Export Plug-In . SVG Version: 6.00 Build 0)  -->
<svg version="1.1" id="Layer_1" xmlns="http://www.w3.org/2000/svg" xmlns:xlink="http://www.w3.org/1999/xlink" x="0px" y="0px"
	 viewBox="-170 262 270 270" style="enable-background:new -170 262 270 270;" xml:space="preserve">
<style type="text/css">
	.st0{fill:#00A551;}
</style>
<ellipse id="XMLID_423_" transform="matrix(0.8843 -0.467 0.467 0.8843 -188.3272 34.3747)" class="st0" cx="-24.8" cy="397.1" rx="73.7" ry="86.6"/>
<g id="XMLID_369_" transform="translate(0,-952.36218)">
	<path id="XMLID_421_" d="M-118.5,1286.7c-10,14.6-13.5,36.6-10.7,55.2c7.2,62.9,47.9,91.5,82,97.1c8,0.4,16.4,0,23.1-1.6
		c0.8,2,2.9,3.4,5.1,3.5l25.8,0.1c2.9,0,5.5-2.6,5.5-5.6v-13c5.6-3.6,10.6-8.2,14.7-13.8c1.9-2.6,3.5-5.4,5-8.4h15.3
		c2.9,0,5.5-2.6,5.5-5.5l0.1-25.9c0-2.9-2.6-5.6-5.5-5.6h-9c-1.2-11.4-3.2-22.5-6-31.5c-11.5-42.2-44.9-77.6-90.2-77.6
		C-86.9,1254.6-106.8,1268.5-118.5,1286.7L-118.5,1286.7z M-37.2,1268.1c0.9,0.3,1.8,0.6,2.7,0.9l-3.3,1.9c-0.7-0.3-1.3-0.7-2-1
		L-37.2,1268.1z M-76.3,1272.6c32.6,0.1,58.4,21.1,72.3,50c-5,0-10.2,0-15.2-0.1c-3,0.3-5.4,2.8-5.4,5.6c0,11.7,0,23.5,0,35.2h-35
		c-2.9,0-5.5,2.6-5.5,5.6l-0.1,25.9c0,2.9,2.6,5.6,5.5,5.6h35.1v25.9c-6.5,1.8-13.6,2.5-21.1,1.9c-29.6-5-65.8-29-72.5-87.4
		c-2.6-19.3,1.6-35.3,9.1-48.3C-101.6,1280-90.8,1272.6-76.3,1272.6L-76.3,1272.6z M-22.1,1274.6c0.9,0.5,1.8,1.1,2.7,1.6l-5.3,3.1
		c-0.8-0.6-1.7-1.2-2.5-1.8L-22.1,1274.6z M-9.5,1283.3c1.1,0.9,2.1,1.9,3.1,2.8l-6.5,3.8c-0.9-1-1.9-2-2.9-3L-9.5,1283.3z
		 M1.4,1294.5c1.5,1.9,3,3.8,4.4,5.8l-7.3,4.2c-1.3-2-2.7-4-4.2-6L1.4,1294.5z M11.7,1309.7c0.9,1.6,1.7,3.2,2.5,4.8l-7.7,4.4
		c-0.8-1.6-1.6-3.3-2.4-4.9L11.7,1309.7z M18.7,1324.8c0.6,1.6,1.1,3.3,1.7,4.9l-7.9,4.1c-0.3-1.7-0.1-3.6-0.1-5.4L18.7,1324.8z
		 M-13.5,1333.6l14.8,0.1v35.1c0,2.9,2.6,5.6,5.5,5.6h35.1l-0.1,14.8H6.8c-2.9,0-5.5,2.6-5.5,5.6v35.2l-14.8-0.1v-35.1
		c0-2.9-2.6-5.6-5.5-5.6h-35.1l0.1-14.8h35c2.9,0,5.5-2.6,5.5-5.6L-13.5,1333.6z M23.5,1340.7c0.3,1.2,0.6,2.4,0.9,3.6l-7.9,4.1
		c-0.3-1.2-0.6-2.4-0.9-3.6L23.5,1340.7z M26.6,1355.8c0.3,2.1,0.5,4.1,0.7,6l-3.6,1.4h-4.4c-0.1-1.1-0.2-2.3-0.4-3.4L26.6,1355.8z"
		/>
</g>
</svg>
