<?xml version="1.0" encoding="utf-8"?>
<!-- Generator: Adobe Illustrator 23.0.3, SVG Export Plug-In . SVG Version: 6.00 Build 0)  -->
<svg version="1.2" baseProfile="tiny" id="Layer_1" xmlns="http://www.w3.org/2000/svg" xmlns:xlink="http://www.w3.org/1999/xlink"
	 x="0px" y="0px" viewBox="0 0 104.96 104.96" xml:space="preserve">
<style type="text/css">
	.partial-fill{fill:#000000;}
</style>
<path class='partial-fill' d="M51.77,2.48C24.08,2.48,1.56,25,1.56,52.69c0,12.67,4.74,24.77,13.35,34.08c9.48,10.25,22.92,16.13,36.87,16.13
	c27.69,0,50.21-22.52,50.21-50.21S79.45,2.48,51.77,2.48z M16.46,82.47C9.43,74.14,5.57,63.62,5.57,52.69
	c0-24.67,19.7-45.09,44.19-46.15v42.64L16.46,82.47z M51.77,98.88c-12.16,0-23.96-4.89-32.58-13.46l34-34
	c0.38-0.38,0.59-0.88,0.59-1.42V6.54C78.26,7.6,97.96,28.02,97.96,52.69C97.96,78.16,77.24,98.88,51.77,98.88z"/>
</svg>
