<?xml version="1.0" encoding="utf-8"?>
<!-- Generator: Adobe Illustrator 23.0.3, SVG Export Plug-In . SVG Version: 6.00 Build 0)  -->
<svg version="1.2" baseProfile="tiny" id="Layer_1" xmlns="http://www.w3.org/2000/svg" xmlns:xlink="http://www.w3.org/1999/xlink"
	 x="0px" y="0px" viewBox="0 0 161.9 173.9" xml:space="preserve" style="display: block;margin-left: auto;margin-right: auto;">
<style type="text/css">
	.quick-trade-1 {
		fill: #1F1F1E;
	}
</style>
<g>
	<g>
		<path class="quick-trade-1" d="M95.7,112.6l18.9,19.9l-18.9,19.9H58l-18.9-19.9L58,112.6h13.6l-0.6,2.7H60.5l-16.3,17.2l16.3,17.2h32.7
			l16.3-17.2l-16.3-17.2L95.7,112.6z"/>
	</g>
	<path class="quick-trade-1" d="M100.8,161.9v-17.7c1.5-0.6,3-3.2,4.3-4V157c-0.6,0.4-1.2,2-2,2.5C102.4,159.9,101.6,161.5,100.8,161.9
		 M95.6,166c-1.7,0.6-3.4,1.1-5.3,1.4v-16.1c2-0.6,3.7-1,5.3-1.5 M95.6,149.9 M85.9,150.6v17.5c-2,0.3-4,0.4-6.1,0.5v-18
		C81.9,150.4,83.9,150.9,85.9,150.6 M69.2,150.6c2,0.3,4.1,0.4,6.2,0.6v17.5c-2-0.1-4.2-0.2-6.2-0.5V150.6z M48.5,157.9v-18
		c1.4,0.7,2.8,2.7,4.3,3.3v18.6C51.3,161,49.9,158.8,48.5,157.9 M57.8,167v-17.2c1.6,0.6,3.5,1,5.3,1.4v17.4
		c-1.9-0.4-1.9-0.9-3.6-1.5"/>
	<polygon class="quick-trade-1" points="44.2,132.2 44.2,148.9 61.1,166.7 92.7,166.7 109.5,148.9 109.6,148.8 109.6,132.2 114.6,132.3 
		114.1,150.2 95.7,169.9 58,169.9 39.1,150 39.2,132.4 	"/>
	<path class="quick-trade-1" d="M86.3,32l-5.2,30L80,68.6h6.7H114l-32,45.7l4.2-29.4l0.9-6.4h-6.5H53.9L86.3,32 M96.1,8L43.1,84.1h37.5
		l-7.5,52.7L124.9,63H86.7L96.1,8L96.1,8z"/>
	<line fill="none" x1="148.8" y1="141.2" x2="148.8" y2="141.1"/>
</g>
</svg>
