<?xml version="1.0" encoding="utf-8"?>
<!-- Generator: Adobe Illustrator 23.0.3, SVG Export Plug-In . SVG Version: 6.00 Build 0)  -->
<svg version="1.2" baseProfile="tiny" id="Layer_1" xmlns="http://www.w3.org/2000/svg" xmlns:xlink="http://www.w3.org/1999/xlink"
	 x="0px" y="0px" viewBox="0 0 97.76 98.71" xml:space="preserve">
<path fill="#000000" d="M36.37,6.82C12.97,13.73-0.39,38.3,6.51,61.69l-3.85,1.14l10.21,10.94l2.63-14.73l-3.85,1.14
	c-6.06-20.53,5.71-42.16,26.24-48.22c11.29-3.33,22.9-1.27,32.09,4.68L67.8,9.28C58.33,4.78,47.22,3.62,36.37,6.82z"/>
<path fill="#000000" d="M84.89,24.6l-2.63,14.73l3.85-1.14c6.06,20.53-5.71,42.16-26.24,48.22c-11.29,3.33-22.9,1.27-32.09-4.68
	l2.17,7.35c9.48,4.5,20.58,5.66,31.43,2.46c23.4-6.91,36.77-31.47,29.86-54.87l3.85-1.14L84.89,24.6z"/>
<polygon fill="#000000" points="48.88,50.22 31.14,41.21 31.14,60.19 66.62,60.19 66.62,41.21 "/>
<polygon fill="#000000" points="48.88,33.79 66.62,41.21 48.88,41.21 31.14,41.21 "/>
</svg>
