<?xml version="1.0" encoding="utf-8"?>
<!-- Generator: Adobe Illustrator 23.0.0, SVG Export Plug-In . SVG Version: 6.00 Build 0)  -->
<svg version="1.1" id="Layer_1" xmlns="http://www.w3.org/2000/svg" xmlns:xlink="http://www.w3.org/1999/xlink" x="0px" y="0px"
	 viewBox="0 0 12.5 12.5" style="enable-background:new 0 0 12.5 12.5;" xml:space="preserve">
<style type="text/css">
	.st0{fill:#808080;}
</style>
<path class="st0" d="M12.5,11.7L8.9,8.1C9.6,7.3,10,6.2,10,5c0-2.7-2.2-4.9-4.9-4.9s-5,2.2-5,4.9S2.3,9.9,5,9.9
	c1.2,0,2.3-0.4,3.1-1.1l3.6,3.6L12.5,11.7z M0.6,5c0-2.5,2-4.4,4.4-4.4s4.4,2,4.4,4.4c0,1.2-0.5,2.3-1.3,3.1l0,0
	c-0.7,0.8-1.8,1.3-3,1.3C2.6,9.4,0.6,7.5,0.6,5z"/>
</svg>
