<?xml version="1.0" encoding="utf-8"?>
<!-- Generator: Adobe Illustrator 23.0.0, SVG Export Plug-In . SVG Version: 6.00 Build 0)  -->
<svg version="1.1" id="Layer_1" xmlns="http://www.w3.org/2000/svg" xmlns:xlink="http://www.w3.org/1999/xlink" x="0px" y="0px"
	 viewBox="0 0 16 16" style="enable-background:new 0 0 16 16;" xml:space="preserve">
<style type="text/css">
	.tab-verify0{fill:#808184;}
</style>
<g id="white">
</g>
<g id="Layer_4">
	<path class="tab-verify0" d="M14.62,6.29c-0.21-0.66-1.08-0.99-1.47-1.53c-0.4-0.55-0.45-1.47-1-1.88c-0.55-0.4-1.44-0.16-2.09-0.37
		C9.41,2.3,8.84,1.58,8.13,1.58c-0.7,0-1.28,0.72-1.91,0.93C5.56,2.72,4.67,2.48,4.13,2.88c-0.55,0.4-0.6,1.33-1,1.88
		C2.73,5.3,1.86,5.63,1.65,6.29c-0.21,0.63,0.29,1.4,0.29,2.1s-0.5,1.47-0.29,2.11c0.21,0.66,1.08,0.99,1.48,1.53
		c0.4,0.55,0.45,1.47,1,1.88c0.55,0.4,1.44,0.16,2.09,0.37c0.63,0.21,1.21,0.93,1.91,0.93s1.28-0.72,1.91-0.93
		c0.66-0.21,1.55,0.02,2.09-0.37c0.55-0.4,0.6-1.33,1-1.88s1.26-0.88,1.47-1.53c0.21-0.63-0.29-1.41-0.29-2.11
		C14.33,7.69,14.83,6.92,14.62,6.29z M7.33,11.17L4.76,8.6l0.93-0.94L7.33,9.3l3.25-3.25l0.94,0.93L7.33,11.17z"/>
</g>
</svg>
