<?xml version="1.0" encoding="utf-8"?>
<!-- Generator: Adobe Illustrator 19.0.0, SVG Export Plug-In . SVG Version: 6.00 Build 0)  -->
<svg version="1.1" id="Layer_1" xmlns="http://www.w3.org/2000/svg" xmlns:xlink="http://www.w3.org/1999/xlink" x="0px" y="0px"
	 viewBox="0 0 19.1 18.2" style="enable-background:new 0 0 19.1 18.2;" xml:space="preserve">
<style type="text/css">
	.st0{fill:#292B2C;}
</style>
<g id="XMLID_94_">
	<path id="XMLID_96_" class="st0" d="M1.9,3.1l11.8-2.1c0,0,0,0,0,0c0,0,0,0,0,0l-0.1-0.5c0,0,0-0.1-0.1-0.2c-0.1-0.1-0.2-0.1-0.4,0
		L1.9,3.1C1.9,3,1.9,3,1.9,3.1C1.9,3.1,1.9,3.1,1.9,3.1z"/>
	<path id="XMLID_95_" class="st0" d="M3.3,3.4C3.3,3.4,3.3,3.4,3.3,3.4l11.3-0.8c0,0,0,0,0,0c0,0,0,0,0,0l-0.2-0.8
		c0,0,0-0.1-0.1-0.2c-0.1-0.1-0.3-0.1-0.6-0.1L3.3,3.4C3.3,3.4,3.3,3.4,3.3,3.4z"/>
</g>
<path id="XMLID_90_" class="st0" d="M19.1,14.1L16.4,3.7c0,0-0.1-0.7-1.3-0.6L0.9,4.2c0,0-1.1,0.1-0.9,1.4l1.8,11.6c0,0,0.1,1,1.5,1
	c1.5,0,13.2-1.2,13.6-1.3c0.4,0,1.1-0.4,1-1L17.9,15l0.6-0.1C18.8,14.9,19.2,14.7,19.1,14.1z M17.1,15.8c-0.3,0.4-0.6,0.4-0.8,0.4
	L3.5,17.5c-0.2,0-0.4,0-0.6-0.1c-0.1-0.1-0.1-0.1-0.1-0.2c0-0.1,0-0.2,0.1-0.2c0.2-0.3,0.9-0.3,0.9-0.3l13.3-1.5c0,0,0,0,0,0
	C17.3,15.4,17.3,15.6,17.1,15.8z"/>
</svg>
