<?xml version="1.0" encoding="UTF-8" standalone="no"?>
<!DOCTYPE svg PUBLIC "-//W3C//DTD SVG 1.1//EN"
"http://www.w3.org/Graphics/SVG/1.1/DTD/svg11.dtd">


<!-- Page 3 -->
<svg x="0" y="0" width="80" height="80" viewBox="0 0 80 80" version="1.1" xmlns="http://www.w3.org/2000/svg" xmlns:xlink="http://www.w3.org/1999/xlink"
style="display: block;margin-left: auto;margin-right: auto;">
<defs>

<style type="text/css"><![CDATA[

.g1_3{
fill: #787877;
}
.g2_3{
fill: none;
stroke: #787877;
stroke-width: 0.48583332;
stroke-linecap: butt;
stroke-linejoin: miter;
}


]]></style>

</defs>
<path d="M0,0
L0,80
L80,80
L80,0 Z " 
fill="#FFFFFF" stroke="none" />
<path d="M65.6,50.3c-0.8,0,-1.4,-0.7,-1.3,-1.5l0.2,-2.1c0,-0.3,-0.2,-0.6,-0.6,-0.6c-0.1,0,-0.3,0,-0.4,0.1C56.1,52.7,45,53,37.6,47C37,46.4,36.3,45.8,35.7,45.2C35.5,44.9,35.3,44.5,35.3,44.1c0.1,-0.4,0.3,-0.8,0.6,-1.1c0.6,-0.4,1.3,-0.3,1.8,0.1l0.1,0.1c0.5,0.6,1.1,1.1,1.6,1.5c6.4,5.3,16,4.9,22.3,-0.7c0.3,-0.3,0.3,-0.6,0,-0.9C61.6,43,61.5,42.9,61.4,42.9l-2,-0.2c-0.8,0,-1.3,-0.6,-1.4,-1.4c0,-0.8,0.7,-1.4,1.5,-1.4c0,0,0.1,0,0.1,0l6.9,0.7c0.8,0,1.4,0.7,1.3,1.5l-0.7,7c0,0.8,-0.8,1.3,-1.5,1.2Z" class="g1_3" />
<path d="M65.6,50.3c-0.8,0,-1.4,-0.7,-1.3,-1.5l0.2,-2.1c0,-0.3,-0.2,-0.6,-0.6,-0.6c-0.1,0,-0.3,0,-0.4,0.1C56.1,52.7,45,53,37.6,47C37,46.4,36.3,45.8,35.7,45.2C35.5,44.9,35.3,44.5,35.3,44.1c0.1,-0.4,0.3,-0.8,0.6,-1.1c0.6,-0.4,1.3,-0.3,1.8,0.1l0.1,0.1c0.5,0.6,1.1,1.1,1.6,1.5c6.4,5.3,16,4.9,22.3,-0.7c0.3,-0.3,0.3,-0.6,0,-0.9C61.6,43,61.5,42.9,61.4,42.9l-2,-0.2c-0.8,0,-1.3,-0.6,-1.4,-1.4c0,-0.8,0.7,-1.4,1.5,-1.4c0,0,0.1,0,0.1,0l6.9,0.7c0.8,0,1.4,0.7,1.3,1.5l-0.7,7c0,0.8,-0.8,1.3,-1.5,1.2Z" class="g2_3" />
<path d="M28.5,19.8l-5.1,0c1.5,-1.3,3.1,-2,4.8,-1.9l2.2,0c-0.6,0.6,-1.3,1.2,-1.9,1.9M30.4,61l-2.2,0c-1.7,0,-3.4,-0.7,-5,-2l5.2,0c0.4,0.4,0.8,0.9,1.2,1.3c0.3,0.2,0.6,0.5,0.8,0.7M19.2,53.5l6,0c0.4,1,0.9,1.9,1.4,2.8l-5.8,0C20.5,55.9,20.2,55.4,20,55C19.7,54.5,19.4,54,19.2,53.5m5,-2.7l-6.2,0C17.6,49.7,17.3,48.6,17.1,47.4l6.2,0c0.3,1.2,0.6,2.3,0.9,3.4M22.9,44.6l-6.3,0C16.4,43.4,16.3,42.1,16.3,40.8l6.3,0c0.1,1.4,0.2,2.6,0.3,3.8m0,-10.5c-0.1,1.3,-0.2,2.6,-0.3,4l-6.3,0c0,-1.3,0.1,-2.7,0.3,-4Zm-2,-11.6l5.7,0c-0.4,0.9,-0.9,1.8,-1.3,2.8l-6,0c0.4,-1,1,-1.9,1.6,-2.8M18.1,28l6.2,0c-0.4,1.1,-0.7,2.2,-0.9,3.3l-6.2,0c0.2,-1.1,0.5,-2.2,0.9,-3.3m2.4,32.3c2.2,2.2,4.8,3.5,7.7,3.5l9,0c2.9,0,5.8,-1.4,8.2,-4.1c0.5,-0.6,0.5,-1.4,-0.1,-1.9c-0.5,-0.5,-1.4,-0.5,-1.9,0.1c-1.9,2,-4,3.1,-6.2,3.1C30.7,61,25.3,51.2,25.3,39.5c0,-11.7,5.5,-21.6,11.9,-21.6c5.5,0,10.4,7,11.6,16.6c0.1,0.8,0.8,1.3,1.6,1.2c0.8,-0.1,1.3,-0.8,1.2,-1.6C50.1,22.9,44.2,15.1,37.2,15.1l-9,0c-8.3,0,-14.7,10.7,-14.7,24.3c0,8.9,2.8,16.7,7,20.9Z" class="g1_3" />

</svg>
