<?xml version="1.0" encoding="utf-8"?>
<!-- Generator: Adobe Illustrator 19.0.0, SVG Export Plug-In . SVG Version: 6.00 Build 0)  -->
<svg version="1.1" id="Layer_1" xmlns="http://www.w3.org/2000/svg" xmlns:xlink="http://www.w3.org/1999/xlink" x="0px" y="0px"
	 viewBox="0 0 220.3 96.6" style="enable-background:new 0 0 220.3 96.6;" xml:space="preserve">
<style type="text/css">
	.st0{fill:#000000;}
</style>
<g id="XMLID_40_">
	<path id="XMLID_57_" class="st0" d="M111.7,54c0-11.3-8.8-20.1-20.2-20.1c-11,0-20,8.9-20,19.8c0,10.9,9,19.8,20.1,19.8
		C102.5,73.5,111.7,64.6,111.7,54z M80.6,53.6c0-6.2,5-11.3,10.9-11.3c6.1,0,11,5.2,11,11.5c0,6.3-4.9,11.5-10.9,11.5
		C85.5,65.2,80.6,60.1,80.6,53.6z"/>
	<rect id="XMLID_61_" x="116.5" y="24.2" class="st0" width="9.9" height="48.3"/>
	<rect id="XMLID_62_" x="133.6" y="24.2" class="st0" width="8.5" height="48.3"/>
	<path id="XMLID_65_" class="st0" d="M187.6,72.5V34.1h-8.5v5.7c-2.8-4.2-6.7-5.9-12.2-5.9c-11.2,0-19.1,8.4-19.1,19.9
		c0,11.4,7.9,19.7,18.9,19.7c5.3,0,9.5-1.7,12.3-5.8v4.8H187.6z M168.3,65.2c-6.6,0-11.2-4.5-11.2-11.1c0-6.9,4.6-11.8,11.1-11.8
		c6.5,0,11.1,4.9,11.1,11.7C179.3,60.3,175.2,65.2,168.3,65.2z"/>
	<path id="XMLID_66_" class="st0" d="M215.6,0H4.5C1.6,0,0,1.7,0,4.6v87.1c0,2.9,1.6,5,4.5,5h42.4v-9.9h-37V9.9h200.4v76.7H89.2
		H65.4v-1.4V68.9V51.3v-0.1c0-12.4-6.3-17.4-15.4-17.4c-3.9,0-7.4,1.1-10.2,3.5V24.2h-8.5v48.3h8.5v-19c0-8.3,2.9-11.2,8.1-11.2
		c5.3,0,7.5,3.2,7.5,11.1v16v15.9v1.4v4.9c0,2.5,2.3,5,4.8,5h2.3h31.2h121.9c2.9,0,4.7-2.1,4.7-5V4.6C220.3,1.7,218.4,0,215.6,0z"/>
</g>
<g id="XMLID_42_">
</g>
<g id="XMLID_43_">
</g>
<g id="XMLID_44_">
</g>
<g id="XMLID_46_">
</g>
<g id="XMLID_47_">
</g>
</svg>
