<?xml version="1.0" encoding="utf-8"?>
<!-- Generator: Adobe Illustrator 23.0.1, SVG Export Plug-In . SVG Version: 6.00 Build 0)  -->
<svg version="1.2" baseProfile="tiny" id="Layer_1" xmlns="http://www.w3.org/2000/svg" xmlns:xlink="http://www.w3.org/1999/xlink"
	 x="0px" y="0px" viewBox="0 0 181 181" xml:space="preserve">
<style type="text/css">
	.otp-key{fill:#000000}
</style>
<g>
	<g>
		<path class="otp-key" d="M78.1,110.2c5.4,11.3,1.8,22.8-6.6,28.6c-9.8,6.9-23.4,4.6-30.4-5.3c-5-7.1-5.3-16.5-0.8-23.9
			c2.8-4.9,7.6-8.4,13.1-9.8c5.4-1.4,11.1-0.7,16,1.9l63-62.6l8.7,8l-6.4,6.6c4.4,4.4,8.7,8.7,13.3,13.4l-7.8,7.8l-8.4-8.3
			c-2.7,2.4-5,4.9-7.6,7.5l8.1,7.7l-8,8L112.1,77L78.1,110.2 M68.6,120.9c-0.1-5.3-4.5-9.7-9.6-9.5c-5.6,0.2-9.3,4-9.6,9.6
			c-0.2,5,4.5,9.6,9.6,9.6C64.3,130.4,68.5,126.1,68.6,120.9"/>
		<path class="otp-key" d="M96,103.1l8.7-8.7l7.3,7.1c3.5-1.7,7.3-2.5,11.1-2.5c9.3,0.3,17.4,6.5,20.1,15.4
			c3.4,11.5-3,23.8-14.4,27.1c-8.4,2.5-15.9,0.7-22-5.6s-7.7-13.6-5.2-21.9c0.1-0.6,0.3-1.1,0.6-1.6c1.1-1.8,0.5-3-0.9-4.2
			C99.5,106.7,97.7,104.8,96,103.1 M131.9,121.2c0.2-5.3-3.8-9.7-9.1-10c-0.1,0-0.2,0-0.3,0c-5.3,0.1-9.5,4.5-9.4,9.8
			c0.1,5.1,4.2,9.2,9.3,9.4C127.5,130.5,131.7,126.4,131.9,121.2"/>
		<path class="otp-key" d="M48.8,39l36.5,36.1l-8.6,8.6l-7-6.8L56.6,90.1c-2.5-2.7-4.8-5.3-7.4-8.2l7.7-7.8l-7.9-7.5l-7.3,7.7
			c-2.7-2.7-5.2-5.2-7.9-7.9l12.8-12.9l-6-6.2L48.8,39"/>
	</g>
</g>
</svg>
