<?xml version="1.0" encoding="utf-8"?>
<!-- Generator: Adobe Illustrator 19.0.0, SVG Export Plug-In . SVG Version: 6.00 Build 0)  -->
<svg version="1.1" id="Layer_1" xmlns="http://www.w3.org/2000/svg" xmlns:xlink="http://www.w3.org/1999/xlink" x="0px" y="0px"
	 viewBox="0 0 49.3 49.3" style="enable-background:new 0 0 49.3 49.3;" xml:space="preserve">
<g class="gender-male" id="XMLID_2284_">
	<path id="XMLID_1917_" d="M32,2.8l5.8,5.8l-7.1,7.4c-2.9-2.2-6.5-3.5-10.4-3.5c-9.6,0-17.4,7.8-17.4,17.4c0,9.6,7.8,17.4,17.4,17.4
		S37.6,39.6,37.6,30c0-4-1.4-7.7-3.7-10.7l7.3-7.8l5.8,6V2.8H32z M20.2,43c-7.2,0-13-5.8-13-13s5.8-13,13-13s13,5.8,13,13
		S27.4,43,20.2,43z"/>
</g>
</svg>
