<?xml version="1.0" encoding="utf-8"?>
<!-- Generator: Adobe Illustrator 19.0.0, SVG Export Plug-In . SVG Version: 6.00 Build 0)  -->
<svg version="1.1" id="Layer_1" xmlns="http://www.w3.org/2000/svg" xmlns:xlink="http://www.w3.org/1999/xlink" x="0px" y="0px"
	 viewBox="0 0 49.3 49.3" style="enable-background:new 0 0 49.3 49.3;" xml:space="preserve">
<g class="gender-female" id="XMLID_2259_">
	<path id="XMLID_1923_" d="M27.7,28.1c6.4-1.4,11.2-7.1,11.2-13.9C38.9,6.4,32.5,0,24.7,0S10.4,6.4,10.4,14.2
		c0,6.8,4.8,12.5,11.1,13.9v7.9h-7.3v6.1h7.3v7.3h6.1v-7.3H35v-6.1h-7.3V28.1z M15.6,14.2c0-5,4.1-9.1,9.1-9.1c5,0,9.1,4.1,9.1,9.1
		c0,5-4.1,9.1-9.1,9.1C19.6,23.3,15.6,19.2,15.6,14.2z"/>
</g>
</svg>
