<?xml version="1.0" encoding="utf-8"?>
<!-- Generator: Adobe Illustrator 19.0.0, SVG Export Plug-In . SVG Version: 6.00 Build 0)  -->
<svg version="1.1" id="Layer_1" xmlns="http://www.w3.org/2000/svg" xmlns:xlink="http://www.w3.org/1999/xlink" x="0px" y="0px"
	 viewBox="-452 253.1 54.9 54.9" style="enable-background:new -452 253.1 54.9 54.9;" xml:space="preserve">
<style type="text/css">
	.icon-clip-1{fill:#00ACED;}
	.icon-clip-2{fill:#FFFFFF;}
	.icon-clip-3{clip-path:url(#SVGID_2_);fill:#FFFFFF;}
</style>
<circle id="XMLID_2240_" class="icon-clip-1" cx="-424.6" cy="280.5" r="27.4"/>
<g id="XMLID_2313_">
	<g id="XMLID_2314_">
		<g id="XMLID_2315_">
			<g>
				<path id="XMLID_2317_" class="icon-clip-2" d="M-419.2,265.4c-1.4,0-2.7,0.6-3.7,1.6l-14.2,14.9c-1.3,1.4-1.8,3.1-1.8,4.9
					c0,4.6,4,8.8,8.6,8.8c2,0,3.8-0.7,5.3-2.2l15-15.6l-1.5-1.4l-15.3,15.6c-1,1.1-2.4,1.6-3.8,1.6c-3.4,0-6.4-3.1-6.4-6.6
					c0-1.3,0.4-2.5,1.3-3.5l14.3-15c0.6-0.7,1.5-1.1,2.4-1.1c2.1,0,4,1.9,4,4c0,0.9-0.2,1.6-0.9,2.3l-14.3,15
					c-0.2,0.2-0.6,0.3-0.9,0.3c-0.8,0-1.3-0.5-1.3-1.4c0-0.3,0.1-0.6,0.3-0.8l10.7-11.3l-1.5-1.5l-10.8,11.2c-0.5,0.6-0.8,1.3-0.8,2
					c0,2,1.6,3.7,3.6,3.7c0.9,0,1.6-0.2,2.1-0.9l14.3-15c0.9-0.9,1.3-2.1,1.3-3.4C-413.1,268.4-415.8,265.4-419.2,265.4"/>
			</g>
			<g>
				<defs>
					<path id="SVGID_1_" d="M-419.2,265.4c-1.4,0-2.7,0.6-3.7,1.6l-14.2,14.9c-1.3,1.4-1.8,3.1-1.8,4.9c0,4.6,4,8.8,8.6,8.8
						c2,0,3.8-0.7,5.3-2.2l15-15.6l-1.5-1.4l-15.3,15.6c-1,1.1-2.4,1.6-3.8,1.6c-3.4,0-6.4-3.1-6.4-6.6c0-1.3,0.4-2.5,1.3-3.5
						l14.3-15c0.6-0.7,1.5-1.1,2.4-1.1c2.1,0,4,1.9,4,4c0,0.9-0.2,1.6-0.9,2.3l-14.3,15c-0.2,0.2-0.6,0.3-0.9,0.3
						c-0.8,0-1.3-0.5-1.3-1.4c0-0.3,0.1-0.6,0.3-0.8l10.7-11.3l-1.5-1.5l-10.8,11.2c-0.5,0.6-0.8,1.3-0.8,2c0,2,1.6,3.7,3.6,3.7
						c0.9,0,1.6-0.2,2.1-0.9l14.3-15c0.9-0.9,1.3-2.1,1.3-3.4C-413.1,268.4-415.8,265.4-419.2,265.4"/>
				</defs>
				<clipPath id="SVGID_2_">
					<use xlink:href="#SVGID_1_"  style="overflow:visible;"/>
				</clipPath>
				<rect id="XMLID_2316_" x="-441.3" y="263.1" class="icon-clip-3" width="33.4" height="34.8"/>
			</g>
		</g>
	</g>
</g>
</svg>
