<?xml version="1.0" encoding="utf-8"?>
<!-- Generator: Adobe Illustrator 23.0.1, SVG Export Plug-In . SVG Version: 6.00 Build 0)  -->
<svg version="1.2" baseProfile="tiny" id="Layer_1" xmlns="http://www.w3.org/2000/svg" xmlns:xlink="http://www.w3.org/1999/xlink"
	 x="0px" y="0px" viewBox="0 0 50 50" xml:space="preserve">
<path d="M29.7,10.3c-0.9,0-1.6,0.8-1.6,1.7c0,0,0,0,0,0c0,0.9,0.7,1.6,1.6,1.6c0,0,0,0,0,0l5-0.1l-7.5,7.5
	c-5.5-4.3-13.4-3.2-17.7,2.3s-3.2,13.4,2.3,17.7s13.4,3.2,17.7-2.3c3.5-4.5,3.5-10.8,0-15.4l7.6-7.5l-0.1,5c0,0.9,0.7,1.7,1.6,1.7
	c0,0,0,0,0,0c0,0,0,0,0,0c0.9,0,1.6-0.7,1.6-1.6L40.5,10L29.7,10.3z M26.1,37.5c-3.6,3.6-9.6,3.6-13.2,0c-3.6-3.6-3.6-9.6,0-13.2
	s9.6-3.6,13.2,0c0,0,0,0,0,0C29.8,27.9,29.8,33.8,26.1,37.5C26.2,37.4,26.1,37.5,26.1,37.5z"/>
</svg>
