<?xml version="1.0" encoding="utf-8"?>
<!-- Generator: Adobe Illustrator 19.0.0, SVG Export Plug-In . SVG Version: 6.00 Build 0)  -->
<svg version="1.1" id="Layer_1" xmlns="http://www.w3.org/2000/svg" xmlns:xlink="http://www.w3.org/1999/xlink" x="0px" y="0px"
	 viewBox="0 0 51.2 51.2" style="enable-background:new 0 0 51.2 51.2;" xml:space="preserve">
<g id="XMLID_1_">
	<path class="contact-1" id="XMLID_2321_" d="M25.6,0C11.5,0,0,11.5,0,25.6c0,14.2,11.5,25.6,25.6,25.6c14.2,0,25.6-11.5,25.6-25.6
		C51.2,11.5,39.8,0,25.6,0z M47.1,18l-8.6,2.1c-1.4-3.2-3.9-5.8-7-7.2l2.1-8.6C39.9,6.6,44.9,11.7,47.1,18z M25.6,36.9
		c-6.2,0-11.3-5-11.3-11.3c0-5.2,3.5-9.6,8.3-10.9h5.9c4.8,1.3,8.3,5.7,8.3,10.9C36.9,31.8,31.8,36.9,25.6,36.9z M17.6,4.3l2.1,8.6
		c-3.2,1.5-5.7,4.2-7.1,7.4l-8.5-2.3C6.3,11.7,11.3,6.6,17.6,4.3z M4.4,33.9l8.6-2.3c1.5,3.1,4,5.6,7.1,6.9L17.7,47
		C11.6,44.7,6.7,39.9,4.4,33.9z M33.6,47l-2.4-8.5c3.1-1.3,5.6-3.7,7-6.7l8.6,2.1C44.5,40,39.6,44.8,33.6,47z"/>
</g>
</svg>
