<?xml version="1.0" encoding="utf-8"?>
<!-- Generator: Adobe Illustrator 24.3.0, SVG Export Plug-In . SVG Version: 6.00 Build 0)  -->
<svg version="1.2" baseProfile="tiny" id="Layer_1" xmlns="http://www.w3.org/2000/svg" xmlns:xlink="http://www.w3.org/1999/xlink"
	 x="0px" y="0px" viewBox="0 0 50 50" overflow="visible" xml:space="preserve">
<g id="Icon_1_">
	<g>
		<path fill="#FFFFFF" d="M43.5,22.7L24.6,40.1c-3.8,3.5-10,3.5-13.8,0c-3.8-3.5-3.8-9.2,0-12.7L30.6,9.2C33,7,36.8,7,39.2,9.2
			c2.4,2.2,2.4,5.7,0,7.9L19.4,35.3c-0.9,0.9-2.5,0.9-3.4,0C15,34.5,15,33,16,32.2l16.4-15l-2.6-2.4l-16.4,15
			c-2.4,2.2-2.4,5.7,0,7.9c2.4,2.2,6.2,2.2,8.6,0l19.8-18.2c3.8-3.5,3.8-9.2,0-12.7c-3.8-3.5-10-3.5-13.8,0L8.2,25
			C3,29.9,3,37.6,8.2,42.4s13.7,4.8,18.9,0L46.1,25L43.5,22.7z"/>
	</g>
</g>
</svg>
