<?xml version="1.0" encoding="utf-8"?>
<!-- Generator: Adobe Illustrator 25.2.1, SVG Export Plug-In . SVG Version: 6.00 Build 0)  -->
<svg version="1.2" baseProfile="tiny" id="Layer_1" xmlns="http://www.w3.org/2000/svg" xmlns:xlink="http://www.w3.org/1999/xlink"
	 x="0px" y="0px" viewBox="0 0 170 170" overflow="visible" xml:space="preserve">
<g>
	<g id="XMLID_1_">
		<g id="XMLID_10_">
			<path class="unknown-error-icon" id="XMLID_19_" fill="#FFFFFF" d="M90.8,89.7c0.2-1,0.3-2.1,0.2-3.1c-0.1-1.6-0.4-3.3-0.9-4.9c-0.7-2.1-1.9-4.2-3.4-6.1
				c-2.3-3-5.5-5.8-9.4-7.9c-1.7-0.9-3.7-0.4-4.7,1.2c-0.1,0.1-0.1,0.2-0.2,0.3c-0.6,1.2-0.5,2.5,0.1,3.6c0.3,0.5,0.8,1,1.4,1.3
				c3.5,1.9,6.3,4.4,8,7.1c1.5,2.4,2.2,4.9,1.8,7.2c-0.4,2,1,3.9,2.9,4.2c0.2,0,0.4,0.1,0.6,0.1C89,92.7,90.5,91.4,90.8,89.7z"/>
			<path class="unknown-error-icon" id="XMLID_15_" fill="#FFFFFF" d="M12.1,115.8c-1.4,1.5-1.3,3.8,0.2,5.1l4.1,3.8c0.7,0.6,1.6,1,2.5,1c1,0,1.9-0.4,2.7-1.2
				c1.2-1.3,1.3-3.3,0.2-4.7l5.5-6.2c6.7,4.5,14.4,8.5,22.6,11.8c5.8,2.3,11.6,4.2,17.3,5.7l-1.4,7.7c-1.8,0-3.3,1.3-3.5,3.1
				c-0.3,2,1.1,3.8,3.1,4.1l5.6,0.8c0.2,0,0.4,0,0.5,0c1.8,0,3.3-1.3,3.6-3.1c0.2-1.6-0.7-3.1-2.1-3.8l1.3-7.3
				c5.9,1.1,11.7,1.7,17,1.7c15.3,0,25.6-4.7,29.1-13.3c3.3-8.1-0.2-18-9.9-28.1c-2.4-2.5-5.2-5-8.3-7.4
				c-1.6-12.2-10.6-23.9-24.2-29.4c-5.1-2.1-10.5-3.1-15.8-3.1c-8.4,0-16.1,2.7-22,7.3c-3-0.3-5.9-0.5-8.7-0.5
				c-15.3,0-25.6,4.7-29.1,13.3c-3.3,8.1,0.2,18,9.9,28.1c2.7,2.8,5.7,5.5,9.1,8.1l-4.9,5.6C15,114.3,13.2,114.5,12.1,115.8z
				 M52.5,118.7c-14.4-5.9-26.9-13.8-35.1-22.4C9.9,88.5,6.9,81.1,9,75.9c2.3-5.6,10.4-8.8,22.4-8.8c0.8,0,1.6,0,2.4,0.1
				c-1.1,1.6-2,3.3-2.7,5.1c-3.8,9.3,8.7,23.1,27.8,30.9c7.9,3.2,16.4,5,23.8,5c9.3,0,15.7-2.8,17.7-7.7c0.7-1.8,1.2-3.7,1.6-5.6
				c1.1,1,2.2,2.1,3.3,3.2c7.4,7.8,10.5,15.2,8.4,20.4c-2.3,5.6-10.4,8.8-22.4,8.8C79.7,127.2,66,124.2,52.5,118.7z M94.6,84.6
				c0.3,1.6,0.5,3.2,0.5,4.8c0,2.8-0.5,5.6-1.5,8.3c-0.5,1.3-3.9,3.2-11,3.2c-6.5,0-13.9-1.6-21-4.5c-17.1-6.9-25.2-18-23.8-21.5
				c1.1-2.6,2.7-5,4.7-7c1.1-1.1,2.4-2.2,3.8-3.1c1.6-1.1,3.4-1.9,5.2-2.7c3.3-1.2,6.9-1.9,10.7-1.9c4.4,0,8.8,0.9,13.1,2.6
				c8.2,3.3,14.3,9.3,17.5,16.1C93.6,80.9,94.2,82.7,94.6,84.6z"/>
			
				<ellipse class="unknown-error-icon" id="XMLID_14_" transform="matrix(5.309943e-02 -0.9986 0.9986 5.309943e-02 -17.2234 210.2498)" fill="#FFFFFF" cx="102.3" cy="114.2" rx="3.6" ry="3.7"/>
			
				<ellipse class="unknown-error-icon" id="XMLID_13_" transform="matrix(5.309943e-02 -0.9986 0.9986 5.309943e-02 -57.221 91.9193)" fill="#FFFFFF" cx="19.9" cy="76.1" rx="3.6" ry="3.7"/>
			
				<ellipse class="unknown-error-icon" id="XMLID_12_" transform="matrix(5.309943e-02 -0.9986 0.9986 5.309943e-02 -49.2616 178.0342)" fill="#FFFFFF" cx="69.2" cy="115" rx="3.6" ry="3.7"/>
			
				<ellipse class="unknown-error-icon" id="XMLID_11_" transform="matrix(5.309943e-02 -0.9986 0.9986 5.309943e-02 -65.8937 129.2512)" fill="#FFFFFF" cx="35.2" cy="99.4" rx="3.6" ry="3.7"/>
		</g>
	</g>
	<g>
		<path class="unknown-error-icon" fill="#FFFFFF" d="M124.9,23.1c-21.7,0-39.7,15.7-43.4,36.3c10.1,6.2,16.6,16,18,26.2c3.1,2.4,5.8,4.9,8.3,7.4
			c5.8,6.1,9.4,12.1,10.6,17.7c2.1,0.3,4.3,0.5,6.5,0.5c24.3,0,44.1-19.7,44.1-44.1S149.2,23.1,124.9,23.1z M124.1,94.2h-4.4v-8h4.4
			V94.2z M139.9,59.9c-0.6,1.4-1.3,2.5-2.3,3.5c-0.9,1-2,1.9-3.2,2.6c-1.2,0.7-2.4,1.4-3.7,2.1c-0.9,0.5-1.7,1-2.5,1.5
			c-0.8,0.5-1.5,1.2-2.2,2c-0.6,0.8-1.2,1.8-1.5,3c-0.4,1.2-0.6,2.7-0.6,4.5h-4.3c0-3.3,0.5-5.9,1.5-7.8c1-1.9,2.6-3.6,4.8-4.8
			c1-0.6,2.1-1.2,3.3-1.8c1.2-0.6,2.3-1.4,3.4-2.3c1-0.9,1.9-2,2.6-3.2c0.7-1.2,1.1-2.8,1.1-4.6c0-1.6-0.3-3.1-0.9-4.2
			c-0.6-1.2-1.3-2.2-2.3-3c-0.9-0.8-2-1.4-3.2-1.8c-1.2-0.4-2.5-0.6-3.8-0.6c-2.7,0-5.1,0.7-7.2,2.2c-2.1,1.5-3.7,3.3-4.8,5.4
			l-3.5-2.2c0.7-1.5,1.6-2.9,2.7-4.1c1.1-1.2,2.3-2.2,3.7-3c1.4-0.8,2.8-1.4,4.4-1.9c1.6-0.4,3.2-0.6,4.8-0.6c1.8,0,3.6,0.3,5.4,0.9
			c1.7,0.6,3.3,1.5,4.7,2.6c1.4,1.2,2.5,2.7,3.3,4.5c0.8,1.8,1.2,3.9,1.2,6.3C140.8,56.9,140.5,58.6,139.9,59.9z"/>
	</g>
</g>
</svg>
