<?xml version="1.0" encoding="utf-8"?>
<!-- Generator: Adobe Illustrator 19.0.0, SVG Export Plug-In . SVG Version: 6.00 Build 0)  -->
<svg version="1.1" id="Layer_1" xmlns="http://www.w3.org/2000/svg" xmlns:xlink="http://www.w3.org/1999/xlink" x="0px" y="0px"
	 viewBox="0 0 67 67" style="enable-background:new 0 0 67 67;" xml:space="preserve">
<style type="text/css">
	.st0{fill:none;stroke:#CFD1D2;stroke-miterlimit:10;}
</style>
<g id="XMLID_2291_">
	<rect id="XMLID_646_" x="14.7" y="14.7" width="6.9" height="6.9"/>
	<rect id="XMLID_1827_" x="29.8" y="14.7" width="6.9" height="6.9"/>
	<rect id="XMLID_1919_" x="45" y="14.7" width="6.9" height="6.9"/>
	<rect id="XMLID_1939_" x="14.7" y="29.8" width="6.9" height="6.9"/>
	<rect id="XMLID_1922_" x="29.8" y="29.8" width="6.9" height="6.9"/>
	<rect id="XMLID_1920_" x="45" y="29.8" width="6.9" height="6.9"/>
	<rect id="XMLID_1948_" x="14.7" y="45" width="6.9" height="6.9"/>
	<rect id="XMLID_1945_" x="29.8" y="45" width="6.9" height="6.9"/>
	<rect id="XMLID_1941_" x="45" y="45" width="6.9" height="6.9"/>
	<path id="XMLID_1326_" class="st0" d="M64.1,66.3H2.9c-1.2,0-2.3-1-2.3-2.3V3c0-1.2,1-2.3,2.3-2.3h61.1c1.2,0,2.3,1,2.3,2.3v61
		C66.3,65.2,65.3,66.3,64.1,66.3z"/>
</g>
</svg>
