<?xml version="1.0" encoding="utf-8"?>
<!-- Generator: Adobe Illustrator 23.0.1, SVG Export Plug-In . SVG Version: 6.00 Build 0)  -->
<svg version="1.2" baseProfile="tiny" id="Layer_1" xmlns="http://www.w3.org/2000/svg" xmlns:xlink="http://www.w3.org/1999/xlink"
	 x="0px" y="0px" viewBox="0 0 50 50" xml:space="preserve">
<path d="M34.2,26c5.1-5.1,5.1-13.3,0.1-18.4S20.9,2.5,15.8,7.6S10.7,20.9,15.8,26c2.1,2.1,4.8,3.4,7.6,3.7v6.4l-5.4,0
	c-0.9,0-1.7,0.8-1.7,1.7c0,0.9,0.8,1.7,1.7,1.7h0l5.4,0v5.3c0,0.9,0.8,1.7,1.7,1.7c0.9,0,1.7-0.8,1.7-1.7v-5.3l5.4,0
	c0.9,0,1.7-0.8,1.7-1.7c0-0.9-0.8-1.7-1.7-1.7l0,0h0l-5.4,0v-6.4C29.6,29.3,32.2,28,34.2,26z M18.2,10.1c3.7-3.7,9.8-3.7,13.6,0
	c3.7,3.7,3.7,9.8,0,13.6s-9.8,3.7-13.6,0c0,0,0,0,0,0C14.5,19.9,14.5,13.8,18.2,10.1z"/>
</svg>
