<?xml version="1.0" encoding="utf-8"?>
<!-- Generator: Adobe Illustrator 19.0.0, SVG Export Plug-In . SVG Version: 6.00 Build 0)  -->
<svg version="1.1" id="Layer_1" xmlns="http://www.w3.org/2000/svg" xmlns:xlink="http://www.w3.org/1999/xlink" x="0px" y="0px"
	 viewBox="0 0 55.5 55.5" style="enable-background:new 0 0 55.5 55.5;" xml:space="preserve">
<g id="XMLID_2310_">
	<g id="XMLID_1928_">
		<g id="XMLID_1936_">
			<path id="XMLID_1938_" d="M36.8,47.1L39,45l-2.2-2.2c-0.5-0.6-0.5-1.3,0-1.8l2.2-2.1l-2.1-2.2c-0.5-0.6-0.5-1.3,0-1.8l2.2-2.1
				l-2.1-2.2c-0.5-0.6-0.5-1.3,0-1.8c0.6-0.6,0.6-1.7-0.2-2.1c-1.4-0.7-2.6-1.8-3.6-3.1c-3.8-4.7-3.7-11.3,0.1-15.8
				c2.2-2.8,5.5-4.4,9.1-4.6c4.1-0.2,8.1,1.6,10.7,5c3.2,4.1,3.5,9.9,0.6,14.3c-1.1,1.7-2.6,3.2-4.3,4.1l0,21.4c0,0.3,0,0.6-0.3,0.9
				l-5.1,5.1c-0.6,0.5-1.3,0.5-1.8,0L37,48.8C36.4,48.2,36.4,47.6,36.8,47.1z M46.8,47.3l0-21.7c0-0.3,0.3-0.8,0.7-1
				c1.6-0.8,3-2.1,3.9-3.6c2.2-3.4,2.1-8.2-0.5-11.5c-2-2.6-5.2-4-8.5-3.9C39.6,5.7,37,7,35.2,9.3c-3,3.6-3,8.9,0,12.6
				c0.8,1.2,1.8,2,2.9,2.6c0.4,0.1,0.5,0.3,0.8,0.6c1.2,1.2,1.4,3,0.7,4.5l2.3,2.3c0.5,0.6,0.5,1.3,0,1.8l-2.2,2.1l2.2,2.1
				c0.5,0.6,0.5,1.3,0,1.8l-2.2,2.1l2.1,2.2c0.5,0.6,0.5,1.3,0,1.8l-2.2,2.1l3.3,3.3L46.8,47.3z"/>
		</g>
		<g id="XMLID_1933_">
			<path id="XMLID_1935_" d="M40.3,12.8c-1.5,1.5-1.5,3.8,0,5.3s3.8,1.5,5.3,0c1.5-1.5,1.5-3.8,0-5.3C44.1,11.4,41.8,11.3,40.3,12.8
				z"/>
		</g>
	</g>
	<path id="XMLID_1947_" d="M35.9,26c-0.7-0.3-1.3-0.8-1.9-1.3c-0.2,0-0.4,0-0.6,0c-1.8-0.1-3.6-0.7-5-1.7c-0.5-0.3-1-0.3-1.3-0.1
		l-19,10.6l-5.3-1.5l1.3-4.5L7,28.3c0.7,0.2,1.3-0.1,1.6-0.9l0.9-2.9l2.9,0.9c0.7,0.2,1.3-0.1,1.6-0.9l0.8-3l2.9,0.9
		c0.7,0.2,1.3-0.1,1.6-0.9l0.9-3.2c1.6-0.1,3.1-1.2,3.6-2.8c0.1-0.4,0.2-0.6,0.1-1c0-1.3,0.2-2.6,0.9-3.8c1.7-4.1,6-6.7,10.4-6.2
		c1.1-0.8,2.3-1.3,3.6-1.7c-0.8-0.3-1.7-0.6-2.6-0.7c-5.7-1.1-11.6,2-13.9,7.6c-0.6,1.5-1,3.1-0.9,4.7c0,0.9-0.9,1.5-1.8,1.2
		c-0.7-0.2-1.3,0.1-1.6,0.9L17,19.4l-2.9-0.9c-0.7-0.2-1.3,0.1-1.6,0.9l-0.9,2.9l-2.9-0.9c-0.7-0.2-1.3,0.1-1.6,0.9l-0.9,3l-2.9-0.9
		c-0.6-0.1-1.2,0.3-1.4,1l-2,6.9c-0.2,0.7,0.1,1.3,0.9,1.6l6.9,2c0.4,0.1,0.7,0.1,0.9-0.1l18.7-10.4c1.6,1,3.6,1.6,5.7,1.7
		c1.2,0.1,2.3,0,3.4-0.3C36.5,26.5,36.3,26.2,35.9,26z"/>
</g>
</svg>
