<?xml version="1.0" encoding="utf-8"?>
<!-- Generator: Adobe Illustrator 23.0.2, SVG Export Plug-In . SVG Version: 6.00 Build 0)  -->
<svg version="1.2" baseProfile="tiny" id="Layer_1" xmlns="http://www.w3.org/2000/svg" xmlns:xlink="http://www.w3.org/1999/xlink"
	 x="0px" y="0px" viewBox="0 0 86.13 86.13" xml:space="preserve">
<style type="text/css">
	.contact-us-icon{fill:'';}
</style>
<path class="contact-us-icon" d="M44.11,11.28c-17.77,0-32.17,14.4-32.17,32.17s14.4,32.17,32.17,32.17s32.17-14.4,32.17-32.17
	C76.27,25.68,61.88,11.28,44.11,11.28z M67.54,30.43c0,0-2.76,0-3.52,0.08c-1.91-2.91-4.06-5.05-7.43-7.28
	c-0.31-0.23-0.31-3.68-0.31-3.68C61.03,22.01,64.94,25.76,67.54,30.43z M38.59,14.88c1.76-0.31,3.6-0.54,5.51-0.54
	c2.07,0,4.06,0.23,6.05,0.61c0.61,1.99,0.92,4.29,0.92,6.66c0,2.22-0.31,4.29-0.77,6.13c-1.91-0.77-3.98-1.15-6.2-1.15
	c-1.99,0-3.91,0.38-5.74,1c-0.46-1.84-0.69-3.83-0.69-5.97C37.67,19.17,37.98,16.87,38.59,14.88z M28.41,49.43
	c-1.76,0.46-3.75,0.69-5.82,0.69c-2.53,0-4.9-0.38-6.97-1C15.23,47.28,15,45.37,15,43.45c0-1.91,0.23-3.83,0.54-5.67
	c2.07-0.61,4.44-1,6.97-1c2.07,0,4.06,0.23,5.82,0.69c-0.69,1.84-1.07,3.83-1.07,5.97S27.64,47.59,28.41,49.43z M50.16,71.94
	c-1.99,0.38-3.98,0.61-6.05,0.61c-1.91,0-3.68-0.15-5.51-0.54c-0.61-1.99-0.92-4.29-0.92-6.74c0-2.14,0.23-4.14,0.69-5.97
	c1.76,0.61,3.68,1,5.74,1c2.14,0,4.29-0.38,6.2-1.15c0.46,1.84,0.77,3.98,0.77,6.13C51.08,67.65,50.69,69.95,50.16,71.94z
	 M44.11,57.24c-7.58,0-13.79-6.2-13.79-13.79s6.2-13.79,13.79-13.79s13.79,6.2,13.79,13.79S51.69,57.24,44.11,57.24z M64.17,60.38
	l-2.07-2.22c0.69-0.84,1.38-1.69,1.99-2.6c2.14,0.23,3.45,0.15,3.45,0.15C66.62,57.31,65.32,59,64.17,60.38z M66.16,50.11
	c-2.22,0-4.37-0.31-6.28-0.84c0.69-1.84,1.07-3.83,1.07-5.9c0-2.07-0.38-4.06-1.07-5.9c1.91-0.54,4.06-0.84,6.28-0.84
	c2.3,0,4.52,0.31,6.43,0.84c0.38,1.91,0.61,3.83,0.61,5.82s-0.23,3.98-0.61,5.82C70.68,49.81,68.46,50.11,66.16,50.11z"/>
<path class="contact-us-icon" d="M63.25,10.52c7.58,0,13.79,6.2,13.79,13.79c0,1.99-0.46,3.91-1.23,5.67c0.54,1.23,1,2.53,1.38,3.83
	c1.84-2.76,2.91-5.97,2.91-9.5c0-9.27-7.58-16.85-16.85-16.85c-3.52,0-6.74,1.07-9.5,2.91c1.3,0.38,2.6,0.84,3.83,1.38
	C59.35,10.98,61.26,10.52,63.25,10.52z"/>
<path class="contact-us-icon" d="M12.09,29.97c-0.77-1.76-1.23-3.6-1.23-5.67c0-7.58,6.2-13.79,13.79-13.79c1.99,0,3.91,0.46,5.67,1.23
	c1.23-0.54,2.53-1,3.83-1.38c-2.68-1.84-5.97-2.91-9.5-2.91C15.39,7.45,7.8,15.04,7.8,24.3c0,3.52,1.07,6.74,2.91,9.5
	C11.1,32.5,11.56,31.2,12.09,29.97z"/>
<path class="contact-us-icon" d="M75.82,57.24c0.77,1.76,1.23,3.6,1.23,5.67c0,7.58-6.2,13.79-13.79,13.79c-1.99,0-3.91-0.46-5.67-1.23
	c-1.23,0.54-2.53,1-3.83,1.38c2.68,1.84,5.97,2.91,9.5,2.91c9.27,0,16.85-7.58,16.85-16.85c0-3.52-1.07-6.74-2.91-9.5
	C76.81,54.71,76.35,56.01,75.82,57.24z"/>
<path class="contact-us-icon" d="M24.65,76.69c-7.58,0-13.79-6.2-13.79-13.79c0-1.99,0.46-3.91,1.23-5.67c-0.54-1.23-1-2.53-1.38-3.83
	c-1.84,2.68-2.91,5.97-2.91,9.5c0,9.27,7.58,16.85,16.85,16.85c3.52,0,6.74-1.07,9.5-2.91c-1.3-0.38-2.6-0.84-3.83-1.38
	C28.64,76.23,26.72,76.69,24.65,76.69z"/>
</svg>
