<?xml version="1.0" encoding="utf-8"?>
<!-- Generator: Adobe Illustrator 19.0.0, SVG Export Plug-In . SVG Version: 6.00 Build 0)  -->
<svg version="1.1" id="Layer_1" xmlns="http://www.w3.org/2000/svg" xmlns:xlink="http://www.w3.org/1999/xlink" x="0px" y="0px"
	 viewBox="0 0 127.9 38.2" style="enable-background:new 0 0 127.9 38.2;" xml:space="preserve">
<style type="text/css">
	.st0{fill:#010101;}
	.st1{fill:#00AEEF;}
</style>
<g id="XMLID_74_">
	<polygon id="XMLID_136_" class="st0" points="76.8,1.4 65.4,1.4 59.9,10.9 59.7,10.9 54.2,1.4 52.2,1.4 52.2,1.4 18.7,1.4 
		14.5,9.3 32.8,9.3 47.3,9.3 47.3,9.2 53.2,18.3 41.1,37 52.8,37 59.3,25.9 59.4,25.9 65.5,37 77.9,37 66.1,18.2 	"/>
	<rect id="XMLID_133_" x="79.4" y="1.4" class="st0" width="10.4" height="35.6"/>
	<path id="XMLID_131_" class="st0" d="M124.5,26.7c-0.6-2.8-2.1-4.8-5-5.9v-0.1c3.7-1.7,5.8-4.6,5.8-8.7c0-7.2-6.2-10.6-13.5-10.6
		H94.2V37h10.4V24.6h4.8c3,0,4.2,1.4,4.9,4.2c0.8,3.2,0.3,7.6,1.3,8.3h10.3v-0.6C124.7,36.1,125.5,31,124.5,26.7z M110.2,17.2h-5.6
		V9.6h5.7c3,0,4.5,1.5,4.5,3.8C114.9,15.9,113.2,17.2,110.2,17.2z"/>
	<polygon id="XMLID_737_" class="st1" points="12.4,15.3 8.2,23.1 23.1,23.1 41,23.1 45.8,15.3 	"/>
	<polygon id="XMLID_91_" class="st0" points="1.9,37 17.5,37 34.7,37 39.5,29.2 6.1,29.2 	"/>
</g>
</svg>
