<?xml version="1.0" ?><svg height="182px" version="1.1" viewBox="0 0 182 182" width="182px" xmlns="http://www.w3.org/2000/svg" xmlns:sketch="http://www.bohemiancoding.com/sketch/ns" xmlns:xlink="http://www.w3.org/1999/xlink"><title/><defs/><g fill="none" fill-rule="evenodd" id="Ameria" stroke="none" stroke-width="1"><g id="Group" transform="translate(-237.000000, -599.000000)"><g id="Argentina" transform="translate(238.000000, 600.000000)"><path d="M174.873463,120.000001 C162.51875,154.955773 129.182603,180 89.9972382,180 C50.8118738,180 17.475726,154.955772 5.12101363,120 L174.873467,120 Z M174.873463,59.9999995 C162.51875,25.0442275 129.182603,0 89.9972382,0 C50.8118738,0 17.475726,25.0442275 5.12101363,59.9999996 L174.873467,60 Z M0.00552338319,88.9924465 C0.00184431554,89.3278605 0,89.6637149 0,90 C0,90.3362851 0.00184431554,90.6721395 0.00552338319,91.0075535 L0.00552366097,88.9924212 Z M0.00552338319,88.9924465" fill="#4086CD" id="Rectangle-3-copy-2"/><path d="M174.880131,119.996318 C178.18791,110.636446 179.991355,100.566011 179.999969,90.07551 L179.999969,89.92449 C179.991354,79.4319256 178.1872,69.359592 174.878178,59.9981583 L5.1218178,59.9981587 C1.9105976,69.0829152 0.116604104,78.8371719 0.00549254921,88.9952769 L0.00549283143,91.0047489 C0.116581589,101.160769 1.90987047,110.913131 5.11986928,119.996318 L174.880135,119.996317 Z M174.880131,119.996318" fill="#FFFFFF" id="Oval-15-copy"/><g id="sun" transform="translate(67.629834, 65.635359)"><path d="M23.844192,26.4616561 C23.844192,26.4616561 33.1205831,47.2404706 33.2139919,47.4434083 C33.3074006,47.646346 33.3752154,47.8444822 33.6354913,47.7340092 C33.8957013,47.6234346 33.733885,47.2223945 33.733885,47.2223945 L26.6595023,25.4065347 M24.0458736,32.0267186 C23.8781588,35.4509183 26.6850706,37.3341955 26.3180342,40.3919966 C25.9516753,43.4501609 28.1899057,45.1790044 28.7089261,46.3681291 C29.2284306,47.5573991 28.1474566,48.2685131 28.6130891,48.4377291 C29.0793798,48.6070541 30.0990471,47.6674857 29.7666669,45.9768148 C29.4342624,44.2861439 27.723886,43.7842345 28.1259175,40.0493514 C28.5276586,36.314541 26.0901066,35.4446712 26.6835218,32.0378326 M23.28105,25.9765587 C23.28105,25.9765587 24.0980892,48.7173373 24.1086744,48.9404894 C24.1192597,49.1636414 24.1079133,49.372754 24.3906209,49.3678263 C24.6733053,49.3627797 24.6735042,48.9303244 24.6735042,48.9303244 L26.2866157,26.052901 M22.9314029,25.2831121 C22.9314029,25.2831121 14.7979613,46.5353518 14.7205127,46.7449004 C14.643064,46.954449 14.5509128,47.1425047 14.8130719,47.2484313 C15.0752561,47.3542396 15.244413,46.95624 15.244413,46.95624 L25.6682114,26.5277536 M22.876217,24.5418949 C22.876217,24.5418949 7.3737922,41.1997876 7.22348477,41.3650649 C7.07317735,41.5303421 6.9172893,41.670184 7.12067815,41.8666039 C7.32413472,42.0629236 7.63006744,41.7572721 7.63006744,41.7572721 L24.9474908,26.721133 M23.1193199,23.8043163 C23.1193199,23.8043163 2.34050547,33.0807074 2.13756777,33.1741161 C1.93463008,33.2675249 1.73649382,33.3353397 1.84696685,33.5956155 C1.95754141,33.8558255 2.35858152,33.6940093 2.35858152,33.6940093 L24.1744413,26.6196266 M23.6044173,23.2411743 C23.6044173,23.2411743 0.863638766,24.0582134 0.640486682,24.0687987 C0.417334595,24.079384 0.208221997,24.0680376 0.213149745,24.3507451 C0.218196308,24.6334296 0.650651653,24.6336285 0.650651653,24.6336285 L23.5280751,26.24674 M24.2978639,22.8915271 C24.2978639,22.8915271 3.04562425,14.7580856 2.83607567,14.6806369 C2.62652709,14.6031883 2.43847132,14.5110371 2.33254471,14.7731961 C2.22673647,15.0353804 2.62473601,15.2045372 2.62473601,15.2045372 L23.0532224,25.6283357 M25.0390811,22.8363413 C25.0390811,22.8363413 8.38118846,7.33391646 8.21591118,7.18360903 C8.0506339,7.03330161 7.91079207,6.87741356 7.71437211,7.08080241 C7.51805245,7.28425899 7.82370395,7.5901917 7.82370395,7.5901917 L22.8598431,24.907615 M25.7766598,23.0794442 C25.7766598,23.0794442 16.5002687,2.30062973 16.4068599,2.09769204 C16.3134512,1.89475434 16.2456364,1.69661809 15.9853605,1.80709111 C15.7251505,1.91766568 15.8869667,2.31870578 15.8869667,2.31870578 L22.9613494,24.1345656 M26.3398018,23.5645416 C26.3398018,23.5645416 25.5227626,0.82376303 25.5121773,0.600610945 C25.501592,0.377458859 25.5129384,0.168346261 25.2302309,0.173274008 C24.9475464,0.178320571 24.9473476,0.610775916 24.9473476,0.610775916 L23.3342361,23.4881993 M26.6894489,24.2579882 C26.6894489,24.2579882 34.8228905,3.00574851 34.9003391,2.79619994 C34.9777878,2.58665136 35.069939,2.39859558 34.8077799,2.29266897 C34.5455956,2.18686073 34.3764388,2.58486028 34.3764388,2.58486028 L23.9526404,23.0133467 M26.7446348,24.9992054 C26.7446348,24.9992054 42.2470596,8.34131272 42.397367,8.17603544 C42.5476744,8.01075816 42.7035625,7.87091633 42.5001736,7.67449638 C42.2967171,7.47817672 41.9907843,7.78382821 41.9907843,7.78382821 L24.673361,22.8199673 M26.5015318,25.736784 C26.5015318,25.736784 47.2803463,16.4603929 47.483284,16.3669842 C47.6862217,16.2735754 47.884358,16.2057607 47.7738849,15.9454848 C47.6633104,15.6852748 47.2622703,15.847091 47.2622703,15.847091 L25.4464104,22.9214737 M26.0164344,26.299926 C26.0164344,26.299926 48.757213,25.4828869 48.9803651,25.4723016 C49.2035172,25.4617163 49.4126298,25.4730627 49.407702,25.1903552 C49.4026555,24.9076707 48.9702001,24.9074718 48.9702001,24.9074718 L26.0927767,23.2943603 M25.3229878,26.6495732 C25.3229878,26.6495732 46.5752275,34.7830147 46.7847761,34.8604634 C46.9943247,34.937912 47.1823805,35.0300633 47.2883071,34.7679042 C47.3941153,34.5057199 46.9961158,34.3365631 46.9961158,34.3365631 L26.5676294,23.9127646 M24.5817706,26.704759 C24.5817706,26.704759 41.2396633,42.2071838 41.4049406,42.3574913 C41.5702179,42.5077987 41.7100597,42.6636867 41.9064797,42.4602979 C42.1027993,42.2568413 41.7971478,41.9509086 41.7971478,41.9509086 L26.7610087,24.6334853 M21.3833368,31.2119461 C19.9451066,34.3239817 21.8421419,37.1216135 20.3563591,39.8192631 C18.8710686,42.5175032 20.2986835,44.9589148 20.3344569,46.2558805 C20.3706247,47.5531623 19.1019751,47.8075557 19.4703125,48.1388791 C19.8392195,48.47055 21.1366071,47.9813715 21.461766,46.2892969 C21.7869024,44.5972132 20.3890875,43.4911327 22.1609565,40.178813 C23.932529,36.866452 21.998329,35.1467997 23.8247582,32.2103312 M19.1389199,29.360816 C16.5990528,31.6634985 17.2521611,34.979963 14.8304352,36.8826209 C12.4089317,38.7860148 12.7691226,41.5911596 12.2952873,42.7990006 C11.8216916,44.0072867 10.554494,43.7457562 10.7640921,44.1946618 C10.9740786,44.64411 12.3594674,44.7007485 13.319924,43.2702353 C14.2803634,41.839705 13.4258482,40.2753827 16.3510885,37.9187008 C19.2760721,35.5618648 18.1675534,33.2231645 20.99616,31.2337736 M17.8323533,26.901987 C14.6148294,28.0855461 13.9780115,31.4051771 11.0198781,32.2620963 C8.06167521,33.1197812 7.34481265,35.8555961 6.45301504,36.7979849 C5.56127283,37.7408761 4.48431875,37.0236887 4.51049169,37.5184236 C4.53682154,38.013807 5.8001145,38.5852972 7.22651397,37.6187418 C8.65290399,36.6521641 8.44661673,34.8816427 12.0416809,33.7923795 C15.6365648,32.7028775 15.4848567,30.1192138 18.852734,29.3342975 M17.5542574,24.0059979 C14.1300577,23.8382831 12.2467806,26.6451949 9.18897946,26.2781584 C6.13081513,25.9117996 4.40197164,28.1500299 3.21284694,28.6690504 C2.02357696,29.1885549 1.31246295,28.1075809 1.14324695,28.5732134 C0.973921983,29.0395041 1.91349031,30.0591714 3.60416122,29.7267911 C5.29483214,29.3943867 5.79674155,27.6840103 9.53162461,28.0860418 C13.266435,28.4877829 14.1363048,26.0502309 17.5431435,26.643646 M18.36903,21.3434611 C15.2569944,19.9052309 12.4593625,21.8022661 9.76171297,20.3164834 C7.06347282,18.8311929 4.62206121,20.2588077 3.3250955,20.2945812 C2.02781376,20.330749 1.77342032,19.0620993 1.44209698,19.4304368 C1.11042603,19.7993438 1.59960451,21.0967313 3.29167912,21.4218902 C4.9837628,21.7470266 6.08984339,20.3492118 9.40216301,22.1210808 C12.7145241,23.8926532 14.4341763,21.9584533 17.3706449,23.7848825 M20.2201601,19.0990442 C17.9174775,16.559177 14.6010131,17.2122854 12.6983551,14.7905595 C10.7949612,12.3690559 7.98981643,12.7292468 6.7819754,12.2554116 C5.57368939,11.7818159 5.83521988,10.5146183 5.38631423,10.7242164 C4.93686606,10.9342029 4.88022752,12.3195917 6.31074073,13.2800482 C7.74127104,14.2404876 9.30559336,13.3859724 11.6622753,16.3112128 C14.0191112,19.2361964 16.3578116,18.1276777 18.3472024,20.9562843 M22.6789891,17.7924775 C21.4954299,14.5749537 18.175799,13.9381357 17.3188798,10.9800024 C16.4611949,8.02179947 13.72538,7.30493692 12.7829911,6.41313931 C11.8400999,5.52139709 12.5572873,4.44444302 12.0625524,4.47061596 C11.567169,4.49694581 10.9956789,5.76023877 11.9622343,7.18663824 C12.9288119,8.61302825 14.6993334,8.406741 15.7885965,12.0018052 C16.8780986,15.5966891 19.4617622,15.444981 20.2466786,18.8128583 M25.5749781,17.5143817 C25.7426929,14.090182 22.9357811,12.2069048 23.3028176,9.14910372 C23.6691765,6.0909394 21.4309461,4.36209591 20.9119256,3.17297121 C20.3924212,1.98370122 21.4733951,1.27258722 21.0077627,1.10337121 C20.541472,0.934046246 19.5218046,1.87361457 19.8541849,3.56428549 C20.1865894,5.2549564 21.8969658,5.75686582 21.4949343,9.49174888 C21.0931932,13.2265593 23.5307452,14.0964291 22.93733,17.5032677 M28.2375149,18.3291542 C29.6757452,15.2171186 27.7787099,12.4194868 29.2644927,9.72183723 C30.7497832,7.02359709 29.3221683,4.58218547 29.2863949,3.28521976 C29.2502271,1.98793803 30.5188767,1.73354458 30.1505392,1.40222124 C29.7816323,1.07055029 28.4842447,1.55972877 28.1590858,3.25180338 C27.8339494,4.94388706 29.2317642,6.04996765 27.4598953,9.36228727 C25.6883228,12.6746483 27.6225227,14.3943006 25.7960936,17.3307691 M30.4819319,20.1802843 C33.021799,17.8776018 32.3686907,14.5611373 34.7904166,12.6584794 C37.2119201,10.7550855 36.8517292,7.94994069 37.3255645,6.74209966 C37.7991602,5.53381365 39.0663578,5.79534414 38.8567597,5.34643849 C38.6467732,4.89699032 37.2613844,4.84035179 36.3009278,6.27086499 C35.3404884,7.7013953 36.1950036,9.26571762 33.2697633,11.6223996 C30.3447796,13.9792355 31.4532984,16.3179359 28.6246918,18.3073267 M31.7884985,22.6391133 C35.0060224,21.4555542 35.6428403,18.1359232 38.6009737,17.279004 C41.5591766,16.4213191 42.2760391,13.6855043 43.1678367,12.7431154 C44.059579,11.8002242 45.136533,12.5174116 45.1103601,12.0226767 C45.0840302,11.5272933 43.8207373,10.9558031 42.3943378,11.9223585 C40.9679478,12.8889362 41.174235,14.6594576 37.5791708,15.7487208 C33.984287,16.8382228 34.1359951,19.4218865 30.7681178,20.2068028 M32.0665943,25.5351024 C35.490794,25.7028172 37.3740712,22.8959054 40.4318723,23.2629419 C43.4900366,23.6293007 45.2188801,21.3910704 46.4080048,20.8720499 C47.5972748,20.3525454 48.3083888,21.4335194 48.4776048,20.9678869 C48.6469298,20.5015962 47.7073615,19.4819289 46.0166906,19.8143092 C44.3260196,20.1467136 43.8241102,21.85709 40.0892272,21.4550585 C36.3544167,21.0533174 35.484547,23.4908694 32.0777083,22.8974543 M31.2518218,28.1976392 C34.3638574,29.6358694 37.1614893,27.7388342 39.8591388,29.2246169 C42.557379,30.7099075 44.9987906,29.2822926 46.2957563,29.2465191 C47.593038,29.2103514 47.8474315,30.479001 48.1787548,30.1106635 C48.5104258,29.7417565 48.0212473,28.444369 46.3291727,28.1192101 C44.637089,27.7940737 43.5310084,29.1918885 40.2186888,27.4200195 C36.9063277,25.6484471 35.1866754,27.582647 32.2502069,25.7562178 M29.4006917,30.4420561 C31.7033743,32.9819233 35.0198387,32.3288149 36.9224966,34.7505408 C38.8258905,37.1720444 41.6310354,36.8118535 42.8388764,37.2856887 C44.0471624,37.7592845 43.7856319,39.026482 44.2345376,38.8168839 C44.6839857,38.6068974 44.7406243,37.2215086 43.3101111,36.2610521 C41.8795807,35.3006127 40.3152584,36.1551279 37.9585765,33.2298875 C35.6017406,30.3049039 33.2630402,31.4134226 31.2736494,28.5848161 M26.9418627,31.7486228 C28.1254218,34.9661466 31.4450528,35.6029646 32.301972,38.5610979 C33.1596569,41.5193008 35.8954718,42.2361634 36.8378607,43.127961 C37.7807519,44.0197032 37.0635645,45.0966573 37.5582994,45.0704844 C38.0536828,45.0441545 38.6251729,43.7808615 37.6586175,42.3544621 C36.6920398,40.9280721 34.9215184,41.1343593 33.8322553,37.5392951 C32.7427532,33.9444112 30.1590896,34.0961193 29.3741732,30.728242" fill="#F6B40E" id="ray1" stroke="#85340A"/><path d="M25.0265267,32.9296403 C25.2307119,35.7272229 27.5427881,36.9660473 27.0887828,39.5155684 C28.0856577,37.4994043 25.6820419,35.9364746 25.8186488,32.9586859 M24.4523984,26.4457942 L30.8693974,40.4662471 L25.4923164,26.0144159 M21.9083287,32.4795453 C21.0496531,35.1499079 22.729301,37.1646449 21.3532872,39.3584463 C23.032842,37.8625274 21.3897319,35.5129939 22.6318909,32.8032101 M19.0782364,30.7982505 C17.2444276,32.9208209 18.0033312,35.4316868 15.8795173,36.9134402 C18.0100577,36.1926939 17.4156028,33.3879227 19.6178131,31.3789038 M17.1916027,28.2750864 C14.6961959,29.5561425 14.4592522,32.1684671 11.9350116,32.7467302 C14.1804106,32.8765804 14.6799274,30.0533551 17.4743729,29.0155877 M16.3792803,25.0850539 C13.5816977,25.2892392 12.3428733,27.6013154 9.79335221,27.1473101 C11.8095163,28.144185 13.372446,25.7405692 16.3502347,25.8771761 M16.8293753,21.966856 C14.1590127,21.1081804 12.1442758,22.7878283 9.95047436,21.4118145 C11.4463932,23.0913692 13.7959267,21.4482592 16.5057105,22.6904182 M18.5106701,19.1367637 C16.3880997,17.3029549 13.8772338,18.0618585 12.3954804,15.9380446 C13.1162267,18.068585 15.9209979,17.4741301 17.9300168,19.6763404 M21.0338342,17.25013 C19.7527781,14.7547232 17.1404535,14.5177795 16.5621904,11.9935389 C16.4323402,14.2389379 19.2555655,14.7384547 20.2933329,17.5329002 M24.2238667,16.4378076 C24.0196814,13.640225 21.7076052,12.4014006 22.1616106,9.8518795 C21.1647356,11.8680436 23.5683514,13.4309733 23.4317445,16.408762 M27.3420646,16.8879026 C28.2007402,14.21754 26.5210923,12.2028031 27.8971061,10.0090016 C26.2175514,11.5049205 27.8606614,13.854454 26.6185024,16.5642378 M30.1721569,18.5691974 C32.0059657,16.446627 31.2470621,13.9357611 33.370876,12.4540077 C31.2403356,13.174754 31.8347906,15.9795252 29.6325802,17.9885441 M32.0587906,21.0923615 C34.5541974,19.8113054 34.7911411,17.1989808 37.3153817,16.6207177 C35.0699827,16.4908675 34.5704659,19.3140928 31.7760204,20.3518602 M32.871113,24.282394 C35.6686956,24.0782087 36.90752,21.7661325 39.4570411,22.2201378 C37.440877,21.2232629 35.8779473,23.6268787 32.9001586,23.4902718 M32.4210181,27.4005919 C35.0913806,28.2592675 37.1061176,26.5796196 39.299919,27.9556334 C37.8040001,26.2760787 35.4544666,27.9191887 32.7446828,26.6770297 M30.7397232,30.2306842 C32.8622936,32.064493 35.3731595,31.3055894 36.8549129,33.4294033 C36.1341666,31.2988629 33.3293954,31.8933178 31.3203765,29.6911075 M28.2165591,32.1173179 C29.4976152,34.6127247 32.1099398,34.8496684 32.6882029,37.373909 C32.8180531,35.12851 29.9948278,34.6289932 28.9570604,31.8345477 M23.8048978,26.2527556 L24.5024815,41.6561434 L24.9306901,26.2423488 M23.257038,25.8075089 L17.8805842,40.2589698 L24.2974016,26.2378115 M22.9356848,25.213158 L12.5371111,36.5982641 L23.739099,26.0018546 M22.8631265,24.5109257 L8.8426735,30.9279247 L23.2945048,25.5508437 M23.056165,23.8634251 L7.65277724,24.5610088 L23.0665718,24.9892174 M23.5014117,23.3155653 L9.04995083,17.9391115 L23.0711091,24.3559289 M24.0957626,22.9942121 L12.7106565,12.5956384 L23.307066,23.7976263 M24.797995,22.9216538 L18.3809959,8.90120079 L23.7580769,23.353032 M25.4454956,23.1146923 L24.7479118,7.71130453 L24.3197032,23.1250991 M25.9933553,23.559939 L31.3698091,9.10847812 L24.9529917,23.1296364 M26.3147085,24.1542899 L36.7132822,12.7691838 L25.5112943,23.3655933 M26.3872669,24.8565222 L40.4077198,18.4395232 L25.9558886,23.8166042 M26.1942283,25.5040229 L41.5976161,24.8064391 L26.1838215,24.3782305 M25.7489816,26.0518826 L40.2004425,31.4283364 L26.1792842,25.011519 M25.1546307,26.3732358 L36.5397368,36.7718095 L25.9433274,25.5698216" fill="#85340A" id="ray2"/><circle cx="24.6241264" cy="23.6362372" d="M24.6241264,32.7834327 C29.6759833,32.7834327 33.7713219,28.6880941 33.7713219,23.6362372 C33.7713219,18.5843804 29.6759833,14.4890417 24.6241264,14.4890417 C19.5722696,14.4890417 15.476931,18.5843804 15.476931,23.6362372 C15.476931,28.6880941 19.5722696,32.7834327 24.6241264,32.7834327 Z M24.6241264,32.7834327" fill="#F6B40E" id="Oval" r="9.14719549" stroke="#85340A" stroke-width="1.5"/><path d="M27.9181442,21.7335791 C27.2935677,21.733589 26.6954338,22.0042047 26.3437123,22.5670941 C27.0473199,23.2002323 28.6015331,23.2690882 29.6570927,22.4950606 C29.1999305,22.0026307 28.542589,21.7335626 27.9180125,21.7335626 L27.9180125,21.7335626 L27.9181442,21.7335791 L27.9181442,21.7335791 Z M27.9078702,21.7339373 C28.5158172,21.7208777 29.0840181,22.0514443 29.1633127,22.379586 C28.4597051,23.2958599 27.3354542,23.2162941 26.6318466,22.5501399 C26.9396729,21.9670601 27.4350335,21.7440731 27.9078702,21.7338983 C27.9078702,21.7338983 27.4350335,21.7440731 27.9078702,21.7338983 L27.9078702,21.7339373 L27.9078702,21.7339373 Z M27.9078702,21.7339373" fill="#843511" id="loweyecontour"/><g fill="#85340A" id="Group" transform="translate(27.825546, 21.898211) scale(-1, 1) translate(-27.825546, -21.898211) translate(25.355823, 21.074970)"><path d="M2.44337931,0.243679338 C3.35773664,0.243679338 3.569112,0.454988841 3.99130292,0.806776188 C4.41388899,1.15856354 4.62463869,1.08802825 4.69491054,1.15856354 C4.7648531,1.22909883 4.69491054,1.43981559 4.5544327,1.3692803 C4.41395485,1.29874501 4.13184662,1.15856354 3.71034722,0.80664447 C3.28776115,0.454429037 2.86626175,0.454857122 2.44377447,0.454857122 C1.17720171,0.454857122 0.473594087,1.51012038 0.333182101,1.43968388 C0.192704255,1.36914859 1.03678973,0.24351469 2.44377447,0.24351469 C2.44377447,0.24351469 1.03678973,0.24351469 2.44377447,0.24351469 L2.44337931,0.243679338 L2.44337931,0.243679338 Z M2.44337931,0.243679338" id="uppalpebra"/></g><g fill="#85340A" id="Group" transform="translate(27.660898, 22.721452) scale(-1, 1) translate(-27.660898, -22.721452) translate(24.697230, 20.087081)"><path d="M0.240386374,1.65306794 C1.85874648,0.246017343 3.89886942,0.0346749113 5.02506312,1.09043211 C5.3006842,1.45947459 5.47728587,1.85407047 5.549764,2.26588855 C5.69142732,3.0670667 5.4409974,3.93268816 4.81322674,4.81987853 C4.8840584,4.81954923 5.02512897,4.88982108 5.0953679,4.96035637 C5.6540851,3.89211884 5.85166295,2.79487029 5.66834364,1.7512312 C5.62033222,1.47857378 5.54535143,1.21019721 5.44784677,0.949163953 C3.89992316,-0.317046577 1.78936373,-0.457886649 0.241341334,1.65310087 C0.241341334,1.65310087 1.78936373,-0.457886649 0.241341334,1.65310087 L0.240386374,1.65306794 L0.240386374,1.65306794 Z M0.240386374,1.65306794" id="eyebrow_nose"/></g><g fill="#85340A" id="Group" transform="translate(27.002305, 21.733563)"><circle cx="0.836412865" cy="0.707987267" d="M0.836412865,1.34122425 C1.18614001,1.34122425 1.46964985,1.05771441 1.46964985,0.707987267 C1.46964985,0.358260121 1.18614001,0.0747502836 0.836412865,0.0747502836 C0.486685718,0.0747502836 0.203175881,0.358260121 0.203175881,0.707987267 C0.203175881,1.05771441 0.486685718,1.34122425 0.836412865,1.34122425 Z M0.836412865,1.34122425" id="pupil" r="0.633236984"/></g><g fill="#85340A" id="Group" transform="translate(27.660898, 23.215396) scale(-1, 1) translate(-27.660898, -23.215396) translate(25.685119, 22.721452)"><path d="M0.095495957,0.144890417 C1.291731,1.05977461 2.48783433,0.989338114 3.19144195,0.567048407 C3.89504958,0.144890417 3.89504958,0.0044125718 3.7545388,0.0044125718 C3.61406096,0.0044125718 3.47358311,0.144890417 2.91045333,0.426241264 C2.34735648,0.708086056 1.5033698,0.708086056 0.0962862683,0.144989206 C0.0962862683,0.144989206 1.5033698,0.708086056 0.0962862683,0.144989206 L0.095495957,0.144890417 L0.095495957,0.144890417 Z M0.095495957,0.144890417" id="lowpalpebra"/></g><path d="M23.2359775,25.0265267 C22.9351948,25.0814138 22.7214518,25.3483382 22.7214518,25.6542315 C22.7214518,26.0037467 23.0104028,26.2819363 23.3594636,26.2819363 C23.5658238,26.2819363 23.7554425,26.1842011 23.8739892,26.0143829 C24.1175105,26.1975178 24.4550657,26.2169364 24.6354872,26.2201932 C24.6632469,26.2208518 24.6990809,26.2201932 24.7178113,26.2201932 C24.8982361,26.2169002 25.2357945,26.1975047 25.4793092,26.0143829 C25.5978559,26.1842011 25.7874747,26.2819363 25.9938348,26.2819363 C26.342889,26.2819363 26.6318466,26.0037203 26.6318466,25.6542315 C26.6318466,25.3483217 26.418074,25.0813874 26.117321,25.0265267 C26.28625,25.0860964 26.3951648,25.2492957 26.3951648,25.4278731 C26.3951648,25.6608174 26.2070576,25.8497677 25.9732703,25.8497677 C25.749217,25.8497677 25.5645147,25.6718982 25.5513757,25.4484212 C25.4826779,25.5855304 25.2108503,25.9934397 24.6766986,26.0144159 C24.142514,25.9934726 23.8707127,25.5855402 23.8020215,25.4484212 C23.7888497,25.6718817 23.6041638,25.8497677 23.380127,25.8497677 C23.1463232,25.8497677 22.9582324,25.6608009 22.9582324,25.4278731 C22.9582324,25.2493121 23.0671472,25.0861293 23.2360763,25.0265267 C23.2360763,25.0265267 23.0671472,25.0861293 23.2360763,25.0265267 L23.2359775,25.0265267 L23.2359775,25.0265267 Z M23.2359775,25.0265267" fill="#85340A" id="Shape"/><path d="M24.0077494,27.0023051 C23.3037137,27.0023051 23.0254912,27.6400863 22.3921554,28.0622443 C22.7440745,27.9218554 23.0209798,27.6442684 23.5138048,27.3624895 C24.0064323,27.081132 24.4265157,27.4242326 24.7075043,27.4242326 L24.7177783,27.4242326 C24.998734,27.4242326 25.4188504,27.0812374 25.9114778,27.3624895 C26.4043357,27.6443343 26.6915151,27.9218653 27.0434342,28.0622443 C26.4100984,27.6400863 26.121536,27.0023051 25.4175332,27.0023051 C25.2770554,27.0023051 24.9987999,27.0782244 24.7177783,27.2184058 L24.7075043,27.2184058 C24.4265025,27.0779873 24.1482602,27.0023051 24.0077494,27.0023051 L24.0077494,27.0023051 L24.0077494,27.0023051 L24.0077494,27.0023051 Z M24.0077494,27.0023051" fill="#85340A" id="Shape"/><path d="M23.8945703,27.6684491 C23.616677,27.6807648 23.249281,27.7365312 22.7214518,27.8948404 C23.9883539,27.6135093 24.2678936,28.0389076 24.8309905,28.0389076 L24.8412645,28.0389076 C25.4043613,28.0389076 25.6838681,27.6134566 26.9508031,27.8948404 C25.5432586,27.4726824 25.2634225,27.7507732 24.8412645,27.7507732 L24.8309905,27.7507732 C24.5671417,27.7507732 24.3577257,27.647901 23.8945373,27.6684491 C23.8945373,27.6684491 24.3577257,27.647901 23.8945373,27.6684491 L23.8945703,27.6684491 L23.8945703,27.6684491 Z M23.8945703,27.6684491" fill="#85340A" id="Shape"/><path d="M22.6597088,27.9946251 C22.5779807,27.995613 22.4888994,27.9962716 22.3921554,28.0048991 C23.8700377,28.145726 23.1596136,28.9927883 24.7075043,28.9927883 L24.7177783,28.9927883 C26.265702,28.9927883 25.5655519,28.1457063 27.0434342,28.0048991 C25.4955106,27.8644213 25.984878,28.776704 24.7177783,28.776704 L24.7075043,28.776704 C23.5195675,28.776704 23.8856134,27.9793128 22.6596758,27.9946251 C22.6596758,27.9946251 23.8856134,27.9793128 22.6596758,27.9946251 L22.6597088,27.9946251 L22.6597088,27.9946251 Z M22.6597088,27.9946251" fill="#85340A" id="Shape"/><path d="M25.9131902,30.2447221 C25.9131902,29.5454941 25.3457137,28.9780835 24.6466174,28.9780835 C23.9474223,28.9780835 23.3800446,29.5454612 23.3800446,30.2447221 C23.519337,29.6582452 24.0441038,29.2438916 24.6466174,29.2438916 C25.2503165,29.2438916 25.7741283,29.658344 25.9131902,30.2447221 L25.9131902,30.2447221 L25.9131902,30.2447221 L25.9131902,30.2447221 L25.9131902,30.2447221 Z M25.9131902,30.2447221" fill="#85340A" id="Shape"/><path d="M19.0991914,21.7143507 C20.7175515,20.3073001 22.7576744,20.0959577 23.8838681,21.1517149 C24.1594892,21.5207574 24.3360909,21.9153533 24.408569,22.3271713 C24.5502323,23.1283495 24.2998024,23.9939709 23.6720318,24.8811613 C23.7428634,24.880832 23.883934,24.9511039 23.9541729,25.0216392 C24.5128901,23.9534016 24.710468,22.8561531 24.5271487,21.812514 C24.4791372,21.5398566 24.4041565,21.27148 24.3066518,21.0104467 C22.7587282,19.7442362 20.6481687,19.6033961 19.1001464,21.7143837 C19.1001464,21.7143837 20.6481687,19.6033961 19.1001464,21.7143837 L19.0991914,21.7143507 L19.0991914,21.7143507 Z M19.0991914,21.7143507" fill="#85340A" id="eyebrow_nose"/><path d="M21.5538743,21.4044309 C22.4682316,21.4044309 22.679607,21.6157404 23.1017979,21.9675277 C23.524384,22.3193151 23.7351337,22.2487798 23.8054055,22.3193151 C23.8753481,22.3898504 23.8054055,22.6005671 23.6649277,22.5300318 C23.5244498,22.4594965 23.2423416,22.3193151 22.8208422,21.967396 C22.3982561,21.6151806 21.9767567,21.6156086 21.5542695,21.6156086 C20.2876967,21.6156086 19.5840891,22.6708719 19.4436771,22.6004354 C19.3031992,22.5299001 20.1472847,21.4042662 21.5542695,21.4042662 C21.5542695,21.4042662 20.1472847,21.4042662 21.5542695,21.4042662 L21.5538743,21.4044309 L21.5538743,21.4044309 Z M21.5538743,21.4044309" fill="#85340A" id="uppalpebra"/><g fill="#843511" id="Group" transform="translate(19.757784, 21.733563)"><path d="M1.80125133,0.0197577842 C1.17667484,0.0197676631 0.578540851,0.290383447 0.226819363,0.85327284 C0.930426988,1.48641104 2.48464015,1.55526691 3.54019977,0.781239252 C3.08303758,0.288809411 2.4256961,0.0197413194 1.80111961,0.0197413194 L1.80111961,0.0197413194 L1.80125133,0.0197577842 L1.80125133,0.0197577842 Z M1.79097728,0.163824961 C2.3989243,0.152793531 2.96712524,0.432023709 3.04641982,0.709205664 C2.34281219,1.48318393 1.21856134,1.41597453 0.514953716,0.85327284 C0.822779993,0.36074421 1.31814057,0.172386667 1.79097728,0.163792031 C1.79097728,0.163792031 1.31814057,0.172386667 1.79097728,0.163792031 L1.79097728,0.163824961 L1.79097728,0.163824961 Z M1.79097728,0.163824961" id="loweyecontour"/></g><circle cx="21.7082068" cy="22.3667996" d="M21.7082068,23.0000366 C22.0579339,23.0000366 22.3414438,22.7165268 22.3414438,22.3667996 C22.3414438,22.0170725 22.0579339,21.7335626 21.7082068,21.7335626 C21.3584797,21.7335626 21.0749698,22.0170725 21.0749698,22.3667996 C21.0749698,22.7165268 21.3584797,23.0000366 21.7082068,23.0000366 Z M21.7082068,23.0000366" fill="#85340A" id="pupil" r="0.633236984"/><path d="M19.7577842,22.8619297 C20.9540192,23.7768139 22.1501226,23.7063774 22.8537302,23.2840877 C23.5573378,22.8619297 23.5573378,22.7214518 23.416827,22.7214518 C23.2763492,22.7214518 23.1358714,22.8619297 22.5727416,23.1432805 C22.0096447,23.4251253 21.165658,23.4251253 19.7585745,22.8620285 C19.7585745,22.8620285 21.165658,23.4251253 19.7585745,22.8620285 L19.7577842,22.8619297 L19.7577842,22.8619297 Z M19.7577842,22.8619297" fill="#85340A" id="lowpalpebra"/></g></g></g></g></svg>