<svg width="21" height="20" viewBox="0 0 21 20" fill="none" xmlns="http://www.w3.org/2000/svg">
<g clip-path="url(#clip0)">
<path d="M20.8823 10C20.8823 15.5228 16.4051 20 10.8823 20C5.35951 20 0.882324 15.5228 0.882324 10C0.882324 10.0023 10.8823 0.00113281 10.8823 0C16.4051 0 20.8823 4.47719 20.8823 10Z" fill="#0064DC"/>
<path d="M10.8823 5.21836C10.8823 3.45879 10.8823 2.30578 10.8823 0.000976562H10.8806C5.35857 0.001875 0.882324 4.47863 0.882324 10.0009H6.0997V7.06297L9.03767 10.0009H10.8556C10.8646 9.99203 10.8735 9.98313 10.8823 9.97418C10.8823 9.30047 10.8823 8.69934 10.8823 8.15637L7.94435 5.21836H10.8823Z" fill="#F0F0F0"/>
<path d="M5.94137 1.30432C4.37734 2.19491 3.07711 3.49514 2.18652 5.05917V9.99999H4.79523V3.91307L10.8822 3.91303C10.8822 3.09026 10.8822 2.30643 10.8822 1.30432H5.94137Z" fill="#D80027"/>
<path d="M10.8822 8.77024L7.32933 5.21742H6.09961L10.8821 9.99996C10.8821 9.99996 10.8822 9.15211 10.8822 8.77024Z" fill="#D80027"/>
<path d="M16.1288 4.92167L15.8544 4.34784L15.5799 4.92167L14.9603 4.77843L15.2378 5.35073L14.7395 5.74589L15.3599 5.88577L15.3582 6.52178L15.8544 6.12386L16.3505 6.52178L16.3488 5.88577L16.9692 5.74589L16.471 5.35073L16.7485 4.77843L16.1288 4.92167Z" fill="#F0F0F0"/>
<path d="M13.3014 7.82611L13.5758 8.39994L14.1955 8.25666L13.918 8.82896L14.4163 9.22416L13.7959 9.364L13.7976 10L13.3014 9.60209L12.8053 10L12.807 9.364L12.1865 9.22416L12.6848 8.82896L12.4073 8.25666L13.027 8.39994L13.3014 7.82611Z" fill="#F0F0F0"/>
<path d="M7.46222 12.8868L6.91339 11.7392L6.3646 12.8868L5.12519 12.6003L5.68027 13.7449L4.68359 14.5353L5.92453 14.815L5.92105 16.087L6.91339 15.2912L7.90578 16.087L7.9023 14.815L9.1432 14.5353L8.14656 13.7449L8.70156 12.6003L7.46222 12.8868Z" fill="#F0F0F0"/>
<path d="M16.1288 14.4869L15.8544 13.9131L15.5799 14.4869L14.9603 14.3436L15.2378 14.9159L14.7395 15.3111L15.3599 15.451L15.3582 16.087L15.8544 15.6891L16.3505 16.087L16.3488 15.451L16.9693 15.3111L16.4709 14.9159L16.7485 14.3436L16.1288 14.4869Z" fill="#F0F0F0"/>
<path d="M18.0842 6.95654L18.3585 7.53037L18.9782 7.38709L18.7007 7.95939L19.199 8.35459L18.5786 8.49447L18.5803 9.13045L18.0842 8.73256L17.588 9.13045L17.5897 8.49447L16.9692 8.35459L17.4676 7.95939L17.1901 7.38709L17.8097 7.53037L18.0842 6.95654Z" fill="#F0F0F0"/>
<path d="M16.7056 10.6643L16.4898 10L16.2739 10.6643H15.5754L16.1405 11.0749L15.9247 11.7391L16.4898 11.3286L17.0549 11.7391L16.839 11.0749L17.4041 10.6643H16.7056Z" fill="#F0F0F0"/>
</g>
<defs>
<clipPath id="clip0">
<rect width="20" height="20" fill="white" transform="translate(0.882324)"/>
</clipPath>
</defs>
</svg>
