<?xml version="1.0" encoding="utf-8"?>
<!-- Generator: Adobe Illustrator 27.4.1, SVG Export Plug-In . SVG Version: 6.00 Build 0)  -->
<svg version="1.2" baseProfile="tiny" id="Layer_1" xmlns="http://www.w3.org/2000/svg" xmlns:xlink="http://www.w3.org/1999/xlink"
	 x="0px" y="0px" viewBox="0 0 21 20" overflow="visible" xml:space="preserve">
<g id="Page-1">
	<g id="circle_azerbaijan">
		<path id="Rectangle-3-copy-2" fill-rule="evenodd" fill="#57BB63" d="M20.3,13.3H1.5c1.4,3.9,5.1,6.7,9.4,6.7S18.9,17.2,20.3,13.3
			L20.3,13.3z"/>
		<path id="Rectangle-3-copy-3_00000042012176573503943550000018036183765836982204_" fill-rule="evenodd" fill="#CA4638" d="
			M1.5,13.3h18.9c0.4-1,0.6-2.2,0.6-3.3s-0.2-2.3-0.6-3.3H1.5c-0.4,1-0.6,2.2-0.6,3.3S1.1,12.3,1.5,13.3L1.5,13.3z"/>
		<path id="Rectangle-3" fill-rule="evenodd" fill="#4086CD" d="M1.5,6.7h18.9C18.9,2.8,15.2,0,10.9,0S2.8,2.8,1.5,6.7L1.5,6.7z"/>
		<path id="Oval-8" fill-rule="evenodd" fill="#FFFFFF" d="M11.2,13c-0.3,0.1-0.5,0.1-0.8,0.1c-1.7,0-3.1-1.4-3.1-3.1
			s1.4-3.1,3.1-3.1c0.3,0,0.6,0,0.8,0.1c0,0-0.1,0-0.1,0c-1.5,0-2.8,1.3-2.8,3S9.6,13,11.2,13C11.1,13,11.2,13,11.2,13
			C11.2,13,11.2,13,11.2,13z M13.6,11.5l-1-0.5l-0.4,1.1L11.8,11l-1,0.5l0.5-1l-1.1-0.4l1.1-0.4l-0.5-1l1,0.5l0.4-1.1l0.4,1.1l1-0.5
			l-0.5,1l1.1,0.4l-1.1,0.4L13.6,11.5z"/>
	</g>
</g>
</svg>
