<?xml version="1.0" ?><svg height="180px" version="1.1" viewBox="0 0 180 180" width="180px" xmlns="http://www.w3.org/2000/svg" xmlns:sketch="http://www.bohemiancoding.com/sketch/ns" xmlns:xlink="http://www.w3.org/1999/xlink"><title/><defs/><g fill="none" fill-rule="evenodd" id="Others" stroke="none" stroke-width="1"><g id="bangladesh"><circle cx="90" cy="90" d="M90,180 C139.70563,180 180,139.70563 180,90 C180,40.2943701 139.70563,0 90,0 C40.2943701,0 0,40.2943701 0,90 C0,139.70563 40.2943701,180 90,180 Z M90,180" fill="#479951" id="Oval-3" r="90"/><circle cx="72" cy="90" d="M72,135 C96.852815,135 117,114.852815 117,90 C117,65.147185 96.852815,45 72,45 C47.147185,45 27,65.147185 27,90 C27,114.852815 47.147185,135 72,135 Z M72,135" fill="#CA4638" id="Oval-3-copy" r="45"/></g></g></svg>