<?xml version="1.0" ?><svg height="180px" version="1.1" viewBox="0 0 180 180" width="180px" xmlns="http://www.w3.org/2000/svg" xmlns:sketch="http://www.bohemiancoding.com/sketch/ns" xmlns:xlink="http://www.w3.org/1999/xlink"><title/><defs/><g fill="none" fill-rule="evenodd" id="Page-1" stroke="none" stroke-width="1"><g id="circle_bahrain"><ellipse cx="89.9972382" cy="90" fill="#FFFFFF" id="path-1" rx="89.9972382" ry="90"/><path d="M60.336968,5.00218082 L80,16.8 L80,19.2 L52,36 L80,52.8 L80,55.2 L52,72 L80,88.8 L80,91.2 L52,108 L80,124.8 L80,127.2 L52,144 L80,160.8 L80,163.2 L60.336968,174.997819 C69.6241423,178.238515 79.604988,180 89.9972382,180 C139.701343,180 179.994476,139.70563 179.994476,90 C179.994476,40.2943701 139.701343,0 89.9972382,0 C79.604988,0 69.6241423,1.76148541 60.336968,5.00218082 Z" fill="#CA4638" id="Rectangle-3-copy-3"/></g></g></svg>