<svg width="21" height="20" viewBox="0 0 21 20" fill="none" xmlns="http://www.w3.org/2000/svg">
<g clip-path="url(#clip0)">
<path d="M10.5 20C16.0228 20 20.5 15.5228 20.5 10C20.5 4.47715 16.0228 0 10.5 0C4.97715 0 0.5 4.47715 0.5 10C0.5 15.5228 4.97715 20 10.5 20Z" fill="#6DA544"/>
<path d="M10.5001 3.91302L18.761 9.99998L10.5001 16.0869L2.23926 9.99998L10.5001 3.91302Z" fill="#FFDA44"/>
<path d="M10.5 13.4782C12.421 13.4782 13.9782 11.921 13.9782 10C13.9782 8.07902 12.421 6.52176 10.5 6.52176C8.57899 6.52176 7.02173 8.07902 7.02173 10C7.02173 11.921 8.57899 13.4782 10.5 13.4782Z" fill="#F0F0F0"/>
<path d="M8.76071 9.78262C8.15587 9.78262 7.57216 9.87462 7.02271 10.0453C7.04704 11.9453 8.59407 13.4783 10.4998 13.4783C11.6783 13.4783 12.7191 12.8917 13.3482 11.9952C12.2718 10.6476 10.6155 9.78262 8.76071 9.78262Z" fill="#0052B4"/>
<path d="M13.9138 10.6664C13.9556 10.4506 13.9783 10.228 13.9783 10C13.9783 8.07899 12.421 6.52176 10.5 6.52176C9.06668 6.52176 7.83621 7.38899 7.30371 8.62719C7.77441 8.52965 8.26176 8.47828 8.76093 8.47828C10.7811 8.47824 12.6087 9.31801 13.9138 10.6664Z" fill="#0052B4"/>
</g>
<defs>
<clipPath id="clip0">
<rect width="20" height="20" fill="white" transform="translate(0.5)"/>
</clipPath>
</defs>
</svg>
