<svg width="20" height="20" fill="none" xmlns="http://www.w3.org/2000/svg"><g clip-path="url(#clip0)"><path d="M.472 6.956A9.99 9.99 0 000 10a9.99 9.99 0 00.472 3.043l9.528.435 9.528-.435c.306-.96.472-1.982.472-3.043a9.99 9.99 0 00-.472-3.044L10 6.522l-9.528.434z" fill="#F0F0F0"/><path d="M20 10c0-.593-.052-1.174-.151-1.74H.15a10.053 10.053 0 000 3.48H19.85c.099-.566.151-1.147.151-1.74z" fill="#000"/><path d="M10 20c4.461 0 8.24-2.922 9.528-6.957H.472C1.76 17.078 5.538 20 10 20zM10 0C5.538 0 1.76 2.922.472 6.956h19.056C18.24 2.922 14.462 0 10 0z" fill="#338AF3"/></g><defs><clipPath id="clip0"><path fill="#fff" d="M0 0h20v20H0z"/></clipPath></defs></svg>