<svg width="21" height="20" viewBox="0 0 21 20" fill="none" xmlns="http://www.w3.org/2000/svg">
<g clip-path="url(#clip0)">
<path d="M10.8823 20C16.4051 20 20.8823 15.5228 20.8823 10C20.8823 4.47715 16.4051 0 10.8823 0C5.35947 0 0.882324 4.47715 0.882324 10C0.882324 15.5228 5.35947 20 10.8823 20Z" fill="#F0F0F0"/>
<path d="M20.8824 9.99998C20.8824 6.03537 18.5752 2.60975 15.2302 0.992249V19.0077C18.5752 17.3902 20.8824 13.9646 20.8824 9.99998Z" fill="#D80027"/>
<path d="M0.882324 9.99998C0.882324 13.9646 3.18955 17.3902 6.53451 19.0077V0.992249C3.18955 2.60975 0.882324 6.03537 0.882324 9.99998Z" fill="#D80027"/>
<path d="M12.6214 11.3043L14.3605 10.4347L13.491 9.99996V9.13039L11.7518 9.99996L12.6214 8.26082H11.7518L10.8823 6.95648L10.0127 8.26082H9.14315L10.0127 9.99996L8.27358 9.13039V9.99996L7.40405 10.4347L9.14315 11.3043L8.70838 12.1739H10.4475V13.4782H11.317V12.1739H13.0562L12.6214 11.3043Z" fill="#D80027"/>
</g>
<defs>
<clipPath id="clip0">
<rect width="20" height="20" fill="white" transform="translate(0.882324)"/>
</clipPath>
</defs>
</svg>
