<?xml version="1.0" ?><svg height="182px" version="1.1" viewBox="0 0 182 182" width="182px" xmlns="http://www.w3.org/2000/svg" xmlns:sketch="http://www.bohemiancoding.com/sketch/ns" xmlns:xlink="http://www.w3.org/1999/xlink"><title/><defs/><g fill="none" fill-rule="evenodd" id="Ameria" stroke="none" stroke-width="1"><g id="Group" transform="translate(-37.000000, -399.000000)"><g id="Chile" transform="translate(38.000000, 400.000000)"><path d="M180,90 L0,90 C0,139.70563 40.2943701,180 90,180 C139.705526,180 179.999831,139.705799 180,90.0003125 Z M180,90" fill="#CA4638" id="red"/><path d="M180,90 L90,90 L90,0 C139.70563,1.7894295e-14 180,40.2943701 180,90 Z M180,90" fill="#FFFFFF" id="white"/><path d="M90,0 C40.2943701,0 2.68414424e-14,40.2943701 1.34099943e-29,90 L90,90 L90,0 Z M90,0" fill="#346DA6" id="blue"/><polygon d="M54.4999993,69.5 L36.5725512,79.0795279 L39.9963883,58.789764 L25.492776,44.4204739 L45.5362778,41.4602345 L54.5000004,23 L63.4637284,41.460239 L83.5072287,44.4204886 L69.0036104,58.7897679 L72.4274482,79.0795283 L54.4999993,69.5 Z M54.4999993,69.5" fill="#FFFFFF" id="Star-1" points="54.4999993 69.5 36.5725512 79.0795279 39.9963883 58.789764 25.492776 44.4204739 45.5362778 41.4602345 54.5000004 23 63.4637284 41.460239 83.5072287 44.4204886 69.0036104 58.7897679 72.4274482 79.0795283 "/></g><g id="St.Kitts-and-Nevis" transform="translate(0.000000, 162.000000)"><path d="M212.878829,158.000001 C200.523738,192.955772 167.186567,218 128,218 C88.8134331,218 55.4762623,192.955772 43.1211708,158 L212.878833,158 Z M217.999969,128.07551 C217.99999,128.050342 218,128.025172 218,128 C218,127.974825 217.99999,127.949653 217.999969,127.924483 L217.999969,128.07551 Z M38.0054925,126.995277 C38.001834,127.32975 38,127.664661 38,128 C38,128.335339 38.001834,128.67025 38.0054925,129.004723 L38.0054928,126.995251 Z M38.0054925,126.995277" fill="#CA4638" id="Oval-15-copy-2" transform="translate(128.000000, 128.000000) rotate(-45.000000) translate(-128.000000, -128.000000) "/><path d="M212.85805,157.979221 C200.502958,192.934993 167.165788,217.979221 127.979221,217.979221 C88.7926537,217.979221 55.4554829,192.934993 43.1003914,157.979221 L212.858054,157.979221 Z M217.97919,128.054731 C217.97921,128.029563 217.979221,128.004393 217.979221,127.979221 C217.979221,127.954046 217.97921,127.928874 217.97919,127.903704 L217.97919,128.054731 Z M37.9847132,126.974498 C37.9810546,127.308971 37.9792206,127.643881 37.9792206,127.979221 C37.9792206,128.31456 37.9810546,128.649471 37.9847132,128.983944 L37.9847134,126.974472 Z M37.9847132,126.974498" fill="#479951" id="Oval-15-copy-3" transform="translate(127.979221, 127.979221) scale(-1, -1) rotate(-45.000000) translate(-127.979221, -127.979221) "/></g></g></g></svg>