<?xml version="1.0" encoding="utf-8"?>
<!-- Generator: Adobe Illustrator 27.4.1, SVG Export Plug-In . SVG Version: 6.00 Build 0)  -->
<svg version="1.2" baseProfile="tiny" id="Layer_1" xmlns="http://www.w3.org/2000/svg" xmlns:xlink="http://www.w3.org/1999/xlink"
	 x="0px" y="0px" viewBox="0 0 21 20" overflow="visible" xml:space="preserve">
<g id="Page-1">
	<g id="circle_costa_rica">
		<circle id="Oval-6" fill-rule="evenodd" fill="#FFFFFF" cx="10.9" cy="10" r="10"/>
		<path id="Rectangle-42" fill-rule="evenodd" fill="#346DA6" d="M18.3,16.7c-1.8,2-4.5,3.3-7.5,3.3s-5.6-1.3-7.5-3.3H18.3z
			 M18.3,3.3c-1.8-2-4.5-3.3-7.5-3.3S5.3,1.3,3.4,3.3H18.3z"/>
		<path id="Rectangle-42_00000023240896097493336530000005744806612185935279_" fill-rule="evenodd" fill="#CA4638" d="M1.5,13.3
			h18.9c0.4-1,0.6-2.2,0.6-3.3s-0.2-2.3-0.6-3.3H1.5c-0.4,1-0.6,2.2-0.6,3.3S1.1,12.3,1.5,13.3z"/>
		<g id="costa-rica" transform="translate(30.000000, 61.000000)">
			<ellipse id="Oval" fill-rule="evenodd" fill="#FFFFFF" cx="-22.9" cy="-51" rx="2.9" ry="3.2"/>
			<g id="Group_00000094610227607075403940000017234975246261656471_" transform="translate(4.218367, 4.652586)">
				<g transform="translate(0.000000, 6.356897)">
					<g id="Shape">
						<path fill-rule="evenodd" fill="#CEA849" stroke="#000000" stroke-width="0.1" d="M-28.9-62.6L-28.9-62.6l-0.1-0.1l-0.1,0.1
							L-28.9-62.6L-28.9-62.6L-28.9-62.6L-28.9-62.6z"/>
						<path fill-rule="evenodd" fill="#DCA842" stroke="#000000" stroke-width="0.1" d="M-27.2-64l-0.2,0c-0.1,0-0.2,0.1-0.1,0.2
							c-0.2,0-0.5,0.1-0.7,0.2c-0.1,0-0.1,0-0.1,0.1c0,0,0,0.1,0.1,0.1c0,0.1-0.6,0.1-0.6,0.3c0,0,0.1-0.1,0.1,0l0,0.1
							c-0.1,0-0.1,0-0.2,0.1c0,0.1-0.1,0.2-0.1,0.3c0,0,0,0.1,0,0.1c0,0,0,0.1,0.1,0.1c0.1,0,0.1,0,0.1-0.1c0,0,0-0.1-0.1-0.1
							c0.1,0,0.2,0,0.3,0.1c0.1,0.1,0.1,0.2,0.1,0.3c-0.1,0.1-0.2,0.2-0.4,0.1c-0.2-0.1-0.3,0-0.4,0.2c-0.2,0.7,0.2,1.3,0.7,1.6
							c0.5,0.3,0.6,0.4,0.7,0.6c0.1,0.2,0.3,0.4,0.5,0.4c0,0,0.1,0,0.1,0c0.1,0,0.1,0,0.3,0.1v0c0,0,0,0,0,0c0,0,0,0,0,0v0
							c0.2,0,0.2-0.1,0.3-0.1c0,0,0.1,0,0.1,0c0.2,0,0.3-0.2,0.5-0.4c0.1-0.2,0.2-0.3,0.7-0.6c0.5-0.3,0.9-0.9,0.7-1.6
							c-0.1-0.2-0.2-0.2-0.4-0.2c-0.2,0.1-0.3,0-0.4-0.1c-0.1-0.1,0-0.3,0.1-0.3c0.1,0,0.2-0.1,0.3-0.1c-0.1,0-0.1,0-0.1,0.1
							c0,0,0,0.1,0.1,0.1c0.1,0,0.1-0.1,0.1-0.1c0,0,0-0.1,0-0.1c0-0.1-0.1-0.2-0.1-0.3c0-0.1-0.1-0.1-0.2-0.1l0-0.1
							c0,0,0.1,0,0.1,0c0-0.2-0.6-0.2-0.6-0.3c0.1,0,0.1,0,0.1-0.1c0-0.1-0.1-0.1-0.1-0.1c-0.2-0.1-0.4-0.2-0.7-0.2
							c0.1-0.1,0-0.2-0.1-0.2L-27.2-64L-27.2-64L-27.2-64L-27.2-64L-27.2-64L-27.2-64L-27.2-64z"/>
						<path fill="none" stroke="#000000" stroke-width="0.1" d="M-26-63.5C-26-63.5-26-63.6-26-63.5"/>
					</g>
					
						<g id="g" transform="translate(11.603571, 24.532759) scale(-1, 1) translate(-11.603571, -24.532759) translate(2.078571, 9.907759)">
						
							<path id="Shape_00000043423124138029098080000002971029430131398279_" fill-rule="evenodd" fill="#825123" stroke="#000000" stroke-width="0.1" d="
							M49.8-72.8C49.8-72.8,49.7-72.8,49.8-72.8C49.7-72.8,49.7-72.8,49.8-72.8C49.7-72.7,49.7-72.7,49.8-72.8
							c-0.3,0.6-0.2,0.8,0,1.2c0.2,0.5,0.1,1.3-0.5,1.6c-0.3,0.2-0.5,0.2-0.6,0.3c-0.1,0-0.1,0-0.2,0.1c-0.1,0-0.1,0.1-0.1,0.1
							c0.1,0,0.1,0,0.2,0c0.1-0.1,0.2-0.2,0.4-0.2c0.2-0.1,0.3-0.1,0.4-0.1h0c0.3-0.1,0.6-0.3,0.8-0.6c0.2-0.3,0.3-0.6,0.3-1
							c0-0.1,0-0.1-0.1-0.2s-0.1,0-0.2,0c-0.1,0-0.2,0-0.3-0.1c-0.1-0.1-0.2-0.2-0.2-0.4s0.1-0.3,0.2-0.5
							C49.8-72.7,49.8-72.7,49.8-72.8C49.8-72.8,49.8-72.8,49.8-72.8C49.8-72.8,49.8-72.8,49.8-72.8C49.8-72.8,49.8-72.8,49.8-72.8
							L49.8-72.8L49.8-72.8L49.8-72.8L49.8-72.8L49.8-72.8z"/>
					</g>
					
						<g id="g_00000153699123156085518400000012565537169358628263_" transform="translate(31.744898, 24.457759) scale(-1, 1) translate(-31.744898, -24.457759) translate(22.144898, 9.757759)">
						
							<g id="Group" transform="translate(9.635204, 14.775000) scale(-1, 1) translate(-9.635204, -14.775000) translate(0.110204, 0.150000)">
							
								<path id="Shape_00000125561015697452006780000005190370319393089967_" fill-rule="evenodd" fill="#825123" stroke="#000000" stroke-width="0.1" d="
								M-47.8-72.8C-47.8-72.8-47.8-72.8-47.8-72.8C-47.9-72.8-47.9-72.8-47.8-72.8C-47.9-72.7-47.9-72.7-47.8-72.8
								c-0.3,0.6-0.2,0.8,0,1.2c0.2,0.5,0.1,1.3-0.5,1.6c-0.3,0.2-0.5,0.2-0.6,0.3c-0.1,0-0.1,0-0.2,0.1c-0.1,0-0.1,0.1-0.1,0.1
								c0.1,0,0.1,0,0.2,0c0.1-0.1,0.2-0.2,0.4-0.2c0.2-0.1,0.3-0.1,0.4-0.1h0c0.3-0.1,0.6-0.3,0.8-0.6c0.2-0.3,0.3-0.6,0.3-1
								c0-0.1,0-0.1-0.1-0.2c0,0-0.1,0-0.2,0c-0.1,0-0.2,0-0.3-0.1c-0.1-0.1-0.2-0.2-0.2-0.4s0.1-0.3,0.2-0.5
								C-47.7-72.7-47.7-72.7-47.8-72.8C-47.7-72.8-47.7-72.8-47.8-72.8C-47.8-72.8-47.8-72.8-47.8-72.8
								C-47.8-72.8-47.8-72.8-47.8-72.8L-47.8-72.8L-47.8-72.8L-47.8-72.8L-47.8-72.8L-47.8-72.8z"/>
						</g>
					</g>
				</g>
				<g id="Shape_00000025439097444158376360000013409454806484003456_" transform="translate(8.142857, 12.362069)">
					<path fill-rule="evenodd" fill="#89C5E3" stroke="#000000" stroke-width="0.1" d="M-36.6-67.9c0.1-0.2,0.1-0.5,0-0.9
						c0.4-0.3,0.7-0.5,1.3-0.5c0.7,0,1,0.2,1.3,0.5c-0.1,0.4-0.1,0.7,0,0.9H-36.6"/>
					<path fill-rule="evenodd" fill="#FCDD09" d="M-36.3-68.3l0,0.2c0,0,0,0,0,0l-0.1-0.2l0,0.2c0,0,0,0,0,0l-0.1-0.1l0.1,0.1
						l-0.1,0l0,0.1c0,0,0,0,0,0l-0.1,0l0,0c0,0,0,0,0,0.1c0,0,0,0,0,0h0.3c0,0,0,0,0,0c0,0,0,0,0-0.1l0.1-0.1l-0.1,0c0,0,0,0,0,0
						c0,0,0.1-0.2,0.1-0.2c0,0-0.2,0.1-0.2,0.1c0,0,0,0,0,0l0.1-0.2l-0.2,0.2c0,0,0,0,0,0l0-0.2l-0.1,0.2L-36.3-68.3L-36.3-68.3
						L-36.3-68.3L-36.3-68.3L-36.3-68.3z"/>
					<path fill-rule="evenodd" fill="#0F47AF" d="M-36.6-68c0,0.1-0.1,0.2-0.1,0.3c-0.1,0.2-0.1,0.8,0.2,1.2c0.5,0.6,1,0.4,1.2,0.7
						h0c0.2-0.3,0.6-0.1,1.2-0.7c0.4-0.4,0.3-1,0.2-1.2c0-0.1-0.1-0.2-0.1-0.3H-36.6"/>
					<path fill-rule="evenodd" fill="#FFFFFF" d="M-35.8-68.5C-35.8-68.5-35.9-68.5-35.8-68.5c-0.1-0.1-0.1-0.2,0-0.2
						c0,0,0.1-0.1,0.1,0c0-0.1,0.1,0,0.1,0c0,0,0,0.1,0,0.1C-35.7-68.5-35.8-68.5-35.8-68.5C-35.8-68.5-35.8-68.5-35.8-68.5
						C-35.8-68.5-35.8-68.5-35.8-68.5L-35.8-68.5L-35.8-68.5L-35.8-68.5L-35.8-68.5z"/>
					<path fill-rule="evenodd" fill="#FFFFFF" d="M-34.8-68.5C-34.8-68.5-34.8-68.5-34.8-68.5c-0.1-0.1-0.1-0.2,0-0.2
						c0,0,0.1-0.1,0.1,0c0,0,0.1,0,0.1,0c0,0,0,0.1,0,0.1C-34.6-68.5-34.7-68.5-34.8-68.5C-34.7-68.5-34.7-68.5-34.8-68.5
						C-34.8-68.5-34.8-68.5-34.8-68.5L-34.8-68.5L-34.8-68.5L-34.8-68.5L-34.8-68.5L-34.8-68.5z"/>
					<path fill-rule="evenodd" fill="#FFFFFF" d="M-34.2-68.3C-34.2-68.4-34.3-68.4-34.2-68.3C-34.3-68.4-34.3-68.4-34.2-68.3
						C-34.2-68.5-34.1-68.5-34.2-68.3c0.1-0.1,0.1-0.1,0.1-0.1C-34-68.4-34-68.4-34.2-68.3C-34.1-68.4-34.1-68.4-34.2-68.3
						C-34.1-68.4-34.2-68.4-34.2-68.3C-34.2-68.4-34.2-68.4-34.2-68.3L-34.2-68.3L-34.2-68.3L-34.2-68.3L-34.2-68.3L-34.2-68.3z"/>
					<g id="Group_00000096047884108688853470000018321191827004571276_" transform="translate(0.000000, 7.006034)">
						<path id="Shape_00000183216535396025271220000010914696493012525486_" fill-rule="evenodd" fill="#509164" d="M-34.5-74.8
							c0-0.1,0.1-0.2,0.1-0.3c0-0.1,0-0.1,0.1-0.2c0-0.1,0-0.1,0.1-0.2c0-0.1,0.1-0.1,0.1,0c0,0.1,0.1,0.2,0.1,0.3c0,0,0,0.1,0,0.1
							c0,0,0,0,0,0.1c0,0,0,0.1,0.1,0.1c0,0.1,0.1,0.1,0.1,0.1c0,0.1,0.1,0.3,0.1,0.4h-3c0,0,0-0.1,0-0.1c0.3-0.1,0.4-0.3,0.5-0.3
							c0.1-0.1,0.1-0.2,0.2-0.3c0.1-0.1,0.2-0.3,0.2-0.5c0-0.2,0.1-0.2,0.1-0.2c0,0,0,0,0.1,0.2c0.1,0.2,0.1,0.2,0.1,0.3
							c0,0.1,0.1,0.3,0.2,0.4c0.1-0.1,0.2-0.1,0.2-0.2c0,0,0.1-0.1,0.1-0.1c0-0.1,0-0.2,0.1-0.2c0,0,0,0,0-0.1c0,0,0-0.1,0.1-0.2
							c0-0.1,0.1-0.1,0.1,0c0,0.1,0.1,0.3,0.1,0.4C-34.6-75-34.6-74.9-34.5-74.8L-34.5-74.8C-34.5-74.7-34.5-74.8-34.5-74.8
							C-34.5-74.8-34.5-74.8-34.5-74.8L-34.5-74.8L-34.5-74.8L-34.5-74.8L-34.5-74.8z"/>
						<path id="Shape_00000107550739149244438040000017586636838144461491_" fill-rule="evenodd" fill="#078930" d="M-36.8-74.3
							c0,0,0.1,0,0.1,0c0,0,0,0,0.1,0c0,0,0,0,0.1,0c0,0,0.1,0,0.1,0c0,0,0.1,0,0.1,0c0,0,0.1-0.1,0.1,0c0,0,0.1,0,0.1,0
							c0,0,0,0,0.1,0c0,0,0.1,0,0.1,0c0,0,0,0,0,0c0-0.1,0-0.1,0.1-0.1c0,0,0.1-0.1,0.1,0c0,0,0.1,0,0.1,0c0,0,0.1,0,0.1,0.1
							s0.1,0.1,0.1,0c0,0,0.1,0,0.1,0c0,0,0,0,0.1,0c0,0,0.1,0,0.1,0c0,0,0,0,0.1,0c0,0,0.1,0.1,0.2,0.1s0.1-0.1,0.2,0
							c0,0,0.1,0,0.1,0c0,0,0.1,0,0.1,0c0,0,0.1-0.1,0.1-0.1c0,0,0.1,0,0.1,0c0,0,0.1,0,0.1,0c0,0,0.1,0,0.1,0c0,0,0.1,0,0.1,0
							c0,0,0.1,0,0.1,0.1c0,0,0-0.1,0-0.1c0,0,0,0,0.1,0c0,0,0.1,0,0.1,0c0,0,0.1,0,0.1,0c0,0,0,0,0.1,0c0,0.1,0,0.2,0,0.3h-3
							C-36.8-74.1-36.8-74.2-36.8-74.3"/>
					</g>
					<g id="Group_00000031173603244021921840000007902109497913842817_" transform="translate(2.424490, 2.001724)">
						<path id="Shape_00000085948481988428110940000013775782803633103035_" fill-rule="evenodd" fill="#FFFFFF" d="M-37.8-71.1
							L-37.8-71.1l-0.1,0.1l0.1,0.1l0,0.1l0.1-0.1l0.1,0.1l0-0.1l0.1-0.1L-37.8-71.1L-37.8-71.1"/>
						<path id="Shape_00000089547853728556363930000003594469723815553975_" fill-rule="evenodd" fill="#FFFFFF" d="M-38.1-71
							L-38.1-71l-0.1,0.1l0.1,0l0,0.1l0.1-0.1l0.1,0l0-0.1L-38-71L-38.1-71L-38.1-71"/>
						<path id="Shape_00000093168793235645367260000005753172424849721003_" fill-rule="evenodd" fill="#FFFFFF" d="M-38.5-70.9
							l0,0.1l-0.1,0l0.1,0v0.1l0.1-0.1l0.1,0l-0.1-0.1l0.1-0.1l-0.1,0L-38.5-70.9"/>
						<path id="Shape_00000174577003020497195340000010921177246854533001_" fill-rule="evenodd" fill="#FFFFFF" d="M-38.9-70.8
							L-38.9-70.8l-0.1,0.1l0.1,0l0,0.1l0-0.1l0.1,0l-0.1-0.1l0-0.1L-38.9-70.8L-38.9-70.8"/>
						<path id="Shape_00000134235901156144904710000014669536579550094219_" fill-rule="evenodd" fill="#FFFFFF" d="M-37.3-71
							L-37.3-71l0.1,0.1l-0.1,0l0,0.1l-0.1-0.1l-0.1,0l0-0.1l-0.1-0.1L-37.3-71L-37.3-71"/>
						<path id="Shape_00000034065496252706154610000009252376025318252428_" fill-rule="evenodd" fill="#FFFFFF" d="M-36.9-70.9
							l0,0.1l0.1,0l-0.1,0v0.1l-0.1-0.1l-0.1,0l0.1-0.1l-0.1-0.1l0.1,0L-36.9-70.9"/>
						<path id="Shape_00000167366163239418111760000000417022572352378804_" fill-rule="evenodd" fill="#FFFFFF" d="M-36.5-70.8
							L-36.5-70.8l0.1,0.1l-0.1,0l0,0.1l0-0.1l-0.1,0l0.1-0.1l0-0.1L-36.5-70.8L-36.5-70.8"/>
					</g>
					<g id="Group_00000072252121318402866790000001563759077169890205_" transform="translate(7.705102, 17.914655)">
						<path id="Shape_00000048461946146440100240000017747457009904643506_" fill-rule="evenodd" fill="#865800" d="M-42.7-84.5
							l0-0.8c0,0,0,0,0,0L-42.7-84.5"/>
						<path id="Shape_00000085229423566434591470000014006708658295165825_" fill-rule="evenodd" fill="#865800" d="M-43.1-84.5
							l0-0.8c0,0,0,0,0,0L-43.1-84.5"/>
						<path id="Shape_00000127021520130776558500000010860919827018550689_" fill-rule="evenodd" fill="#865800" d="M-42.9-84.5
							l0-0.8c0,0,0,0,0,0L-42.9-84.5"/>
						<path id="Shape_00000138561929787861814840000003612268125072393369_" fill-rule="evenodd" fill="#FFFFFF" d="M-43.1-85.3
							c0,0,0.1,0.1,0.1,0C-43-85.1-43.1-85.2-43.1-85.3L-43.1-85.3"/>
						<path id="Shape_00000077289844044474345310000008161678478042146965_" fill-rule="evenodd" fill="#FFFFFF" d="M-42.9-85.3
							c0,0,0.1,0.1,0.1,0C-42.8-85.1-42.9-85.2-42.9-85.3L-42.9-85.3"/>
						<path id="Shape_00000150085768047294784390000003097292842386116017_" fill-rule="evenodd" fill="#FFFFFF" d="M-42.7-85.2
							c0,0,0.1,0.1,0.1,0C-42.6-85.1-42.7-85.2-42.7-85.2L-42.7-85.2"/>
						<path id="Shape_00000144301463600427396950000013747140514424121234_" fill-rule="evenodd" fill="#704D25" d="M-42.6-84.4
							C-42.6-84.4-42.6-84.4-42.6-84.4c-0.1,0-0.2,0-0.2,0c0,0-0.1,0-0.1,0c0,0-0.1,0-0.1,0c0,0-0.1,0-0.1,0c0-0.1-0.1-0.1-0.2-0.2
							c-0.1,0-0.2-0.1-0.3-0.1c0,0-0.1-0.1,0,0c0.1,0,0.2,0.1,0.3,0.1c0.1,0.1,0.7,0.1,0.8,0c0,0,0.1,0,0.1-0.1c0,0,0,0,0,0
							c0,0-0.1,0-0.1,0.1C-42.5-84.4-42.5-84.4-42.6-84.4"/>
						<path id="Shape_00000023987595786896704660000004373907088717979060_" fill-rule="evenodd" fill="#704D25" d="M-42.6-84.4
							C-42.6-84.4-42.6-84.4-42.6-84.4c-0.1,0-0.2,0-0.2,0c0,0-0.1,0-0.1,0c0,0-0.1,0-0.1,0c0,0-0.1,0-0.1,0c0-0.1-0.1-0.1-0.2-0.2
							c-0.1,0-0.2-0.1-0.3-0.1c0,0-0.1-0.1,0,0c0.1,0,0.2,0.1,0.3,0.1c0.1,0.1,0.7,0.1,0.8,0c0,0,0.1,0,0.1-0.1c0,0,0,0,0,0
							c0,0-0.1,0-0.1,0.1C-42.5-84.4-42.5-84.4-42.6-84.4L-42.6-84.4L-42.6-84.4L-42.6-84.4L-42.6-84.4L-42.6-84.4z"/>
						<path id="Shape_00000173864953666514363290000018393891241536471209_" fill-rule="evenodd" fill="#FFFFFF" d="M-42.6-85.1
							l-0.2,0c0,0.1,0,0.2,0,0.2c0.1-0.1,0.2,0,0.2,0C-42.6-85-42.6-85.1-42.6-85.1"/>
						<path id="Shape_00000150814005334122550230000012256564997820140192_" fill-rule="evenodd" fill="#FFFFFF" d="M-42.6-84.9
							c0,0-0.2,0-0.2,0c0,0.1,0,0.2,0,0.2c0-0.1,0.2,0,0.2,0C-42.6-84.8-42.6-84.8-42.6-84.9"/>
						<path id="Shape_00000014612943447830557860000006058710849942981784_" fill-rule="evenodd" fill="#FFFFFF" d="M-42.4-84.7
							c-0.1,0-0.2,0-0.3,0c0,0-0.1,0.1-0.1,0.2c0.1-0.1,0.3,0,0.3,0.1C-42.5-84.5-42.5-84.6-42.4-84.7"/>
						<path id="Shape_00000126301338804153633960000018283837033372856755_" fill-rule="evenodd" fill="#FFFFFF" d="M-42.8-85.1
							l-0.2,0c0,0,0,0.1,0,0.2c0,0,0.2,0,0.2,0C-42.8-85-42.8-85.1-42.8-85.1"/>
						<path id="Shape_00000120557429468944907660000015619249631153197968_" fill-rule="evenodd" fill="#FFFFFF" d="M-42.7-84.9
							l-0.3,0c0,0,0,0.1,0,0.2c0.1,0,0.3,0,0.3,0C-42.7-84.8-42.7-84.8-42.7-84.9"/>
						<path id="Shape_00000018938025245440561040000000969569002363830668_" fill-rule="evenodd" fill="#FFFFFF" d="M-42.7-84.7
							l-0.3,0c0,0-0.1,0.1-0.1,0.2c0-0.1,0.2,0,0.3,0.1C-42.8-84.5-42.8-84.6-42.7-84.7"/>
						<path id="Shape_00000171688942242781905240000012802186642304305083_" fill-rule="evenodd" fill="#FFFFFF" d="M-43.2-85.1
							C-43.2-85.1-43.3-85.1-43.2-85.1c0,0.1,0.1,0.1,0.1,0.1c0,0,0-0.1,0-0.1C-43.1-85.1-43.1-85.1-43.2-85.1"/>
						<path id="Shape_00000175295974030980029300000004902876067411216824_" fill-rule="evenodd" fill="#FFFFFF" d="M-43.2-85
							c0.1,0,0.2,0,0.3,0c0,0.1,0,0.1,0,0.2c-0.1-0.1-0.2-0.1-0.3-0.1C-43.3-84.9-43.2-84.9-43.2-85"/>
						<path id="Shape_00000019661068855957603820000005318050574259686331_" fill-rule="evenodd" fill="#FFFFFF" d="M-42.9-84.7
							c-0.1,0-0.2,0-0.3-0.1c0,0.1,0,0.2,0,0.3c0.1-0.1,0.3-0.1,0.3,0.1C-43-84.5-43-84.7-42.9-84.7"/>
						<path id="Shape_00000029735139755757202300000005661847580850378928_" fill-rule="evenodd" fill="#FFFFFF" d="M-43.2-85.1
							c-0.2,0.1-0.3,0.3-0.4,0.5c0,0,0.1,0,0.1,0.1C-43.3-84.8-43.2-85-43.2-85.1"/>
					</g>
				</g>
				<g id="Shape_00000178895932024907862340000014755008912296681119_" transform="translate(5.286735, 0.000000)">
					<g transform="translate(0.912245, 0.051724)">
						<path fill-rule="evenodd" fill="#89C5E3" stroke="#000000" stroke-width="0.1" d="M-33.4-57.9c0.1,0.1,0.2,0.1,0.5,0.1
							c0.2,0,0.3,0,0.4,0c0,0,0,0.1,0,0.1c0,0,0,0.1,0.1,0c0.1,0,0.2-0.1,0.2,0c0.1,0.1,0.3,0.1,0.4,0.2c0-0.1-0.1-0.2-0.2-0.2
							c0.1,0,0.2,0,0.2,0c-0.1-0.1-0.2-0.1-0.3-0.1c-0.1,0-0.2-0.1-0.2-0.1c0,0,0,0,0-0.1c0,0-0.1,0-0.2-0.1c0,0,0,0,0,0v-0.1
							c0,0,0-0.1,0-0.1c-0.2-0.1-0.4-0.2-0.8-0.2c-0.4,0-0.6,0.1-0.8,0.2c0,0,0,0,0,0.1v0.1c0,0,0,0,0,0c-0.1,0-0.2,0-0.2,0.1
							c0,0,0,0,0,0.1c-0.1,0-0.1,0.1-0.2,0.1c-0.1,0-0.2,0-0.3,0.1c0,0,0.1,0,0.2,0c-0.1,0.1-0.2,0.1-0.2,0.2
							c0.1-0.1,0.3-0.1,0.4-0.2c0.1-0.1,0.2,0,0.2,0c0.1,0,0.1,0,0.1,0c0,0,0-0.1,0-0.1c0.1,0,0.2,0,0.4,0
							C-33.7-57.7-33.5-57.8-33.4-57.9c-0.1,0-0.1-0.1-0.1-0.1c-0.1,0-0.2-0.1-0.3-0.1c-0.1,0-0.1,0-0.1,0.1v0c-0.1,0-0.2,0-0.2-0.1
							c0.1-0.1,0.4-0.1,0.7-0.1c0.3,0,0.5,0.1,0.7,0.1c0,0-0.1,0.1-0.2,0.1v0c0,0,0-0.1-0.1-0.1c-0.1,0-0.2,0-0.3,0.1
							C-33.3-58-33.3-57.9-33.4-57.9z"/>
					</g>
					<g transform="translate(0.000000, 10.259483)">
						<path fill-rule="evenodd" fill="#FFFFFF" stroke="#000000" stroke-width="0.1" d="M-32.5-67.3c0.1,0,0.1,0,0.1,0v-0.1
							c0,0,0.1-0.1,0.2,0c0.5,0.1,0.6,0.3,1,0.5c0,0,0,0,0,0c0,0,0,0,0-0.1c0,0,0.1,0,0.1,0c0.1,0,0.1,0.1,0.1,0.1c0,0,0,0,0,0.1
							c0.1,0,0.3,0.1,0.2,0.3c0,0-0.1-0.1-0.2-0.1c-0.1,0-0.2,0-0.1-0.1c0,0,0,0,0,0c0,0,0,0,0,0c0,0-0.1,0.1-0.2,0
							c-0.4-0.1-0.5-0.5-1-0.5v0c0,0-0.1,0.1-0.2,0.1c-0.1,0-0.2,0-0.2-0.1v0c-0.5,0-0.6,0.3-1,0.5c-0.1,0-0.1,0-0.2,0c0,0,0,0,0,0
							c0,0,0,0,0,0c0,0.1-0.1,0.1-0.1,0.1c-0.1,0-0.2,0-0.2,0.1c-0.1-0.2,0.1-0.3,0.2-0.3c0,0,0,0,0-0.1c0,0,0-0.1,0.1-0.1
							c0.1,0,0.1,0,0.1,0c0,0,0,0.1,0,0.1c0,0,0,0,0,0c0.4-0.1,0.5-0.4,1-0.5c0.1,0,0.2,0,0.2,0v0.1C-32.6-67.3-32.5-67.3-32.5-67.3
							C-32.5-67.3-32.5-67.3-32.5-67.3L-32.5-67.3L-32.5-67.3L-32.5-67.3L-32.5-67.3z"/>
					</g>
				</g>
			</g>
		</g>
	</g>
</g>
</svg>
