<svg width="21" height="20" viewBox="0 0 21 20" fill="none" xmlns="http://www.w3.org/2000/svg">
<g clip-path="url(#clip0)">
<path d="M10.8823 20C16.4051 20 20.8823 15.5228 20.8823 10C20.8823 4.47715 16.4051 0 10.8823 0C5.35947 0 0.882324 4.47715 0.882324 10C0.882324 15.5228 5.35947 20 10.8823 20Z" fill="#F0F0F0"/>
<path d="M10.0128 10C10.0128 10 3.81713 17.0725 3.81128 17.0711C5.62088 18.8807 8.12092 20 10.8823 20C16.4052 20 20.8823 15.5228 20.8823 10H10.0128Z" fill="#D80027"/>
<path d="M3.81125 2.92889C-0.0939856 6.83413 -0.0939856 13.1658 3.81125 17.0711C5.42503 15.4573 6.9771 13.9052 10.8823 9.99999L3.81125 2.92889Z" fill="#0052B4"/>
</g>
<defs>
<clipPath id="clip0">
<rect width="20" height="20" fill="white" transform="translate(0.882324)"/>
</clipPath>
</defs>
</svg>
