<svg width="21" height="20" viewBox="0 0 21 20" fill="none" xmlns="http://www.w3.org/2000/svg">
<g clip-path="url(#clip0)">
<path d="M10.5 20C16.0228 20 20.5 15.5228 20.5 10C20.5 4.47715 16.0228 0 10.5 0C4.97715 0 0.5 4.47715 0.5 10C0.5 15.5228 4.97715 20 10.5 20Z" fill="#F0F0F0"/>
<path d="M20.4154 8.69566H8.32621L8.32617 0.237695C9.02617 0.0825391 9.7534 0 10.5001 0C15.5808 0 19.7763 3.78914 20.4154 8.69566Z" fill="#D80027"/>
<path d="M5.71745 1.21588V8.69561L0.584717 8.69565C1.00593 5.46217 2.97163 2.71408 5.71745 1.21588Z" fill="#D80027"/>
<path d="M5.71741 11.3043H0.584717C1.00593 14.5378 2.97163 17.2859 5.71745 18.784L5.71741 11.3043Z" fill="#D80027"/>
<path d="M8.32617 19.7623V11.3044L20.4154 11.3043C19.7763 16.2108 15.5808 20 10.5001 20C9.7534 20 9.02617 19.9174 8.32617 19.7623Z" fill="#D80027"/>
</g>
<defs>
<clipPath id="clip0">
<rect width="20" height="20" fill="white" transform="translate(0.5)"/>
</clipPath>
</defs>
</svg>
