<?xml version="1.0" encoding="utf-8"?>
<!-- Generator: Adobe Illustrator 27.4.1, SVG Export Plug-In . SVG Version: 6.00 Build 0)  -->
<svg version="1.2" baseProfile="tiny" id="Layer_1" xmlns="http://www.w3.org/2000/svg" xmlns:xlink="http://www.w3.org/1999/xlink"
	 x="0px" y="0px" viewBox="0 0 21 20" overflow="visible" xml:space="preserve">
<g id="Page-1_00000006679277232534269910000002943231649613368248_">
	<g id="circle_egypt">
		<path id="Rectangle-3-copy-2" fill-rule="evenodd" fill="#262626" d="M20.3,13.3H1.5c1.4,3.9,5.1,6.7,9.4,6.7S18.9,17.2,20.3,13.3
			L20.3,13.3z"/>
		<path id="Rectangle-3-copy-3" fill-rule="evenodd" fill="#FFFFFF" d="M1.5,13.3h18.9c0.4-1,0.6-2.2,0.6-3.3s-0.2-2.3-0.6-3.3H1.5
			c-0.4,1-0.6,2.2-0.6,3.3S1.1,12.3,1.5,13.3L1.5,13.3z"/>
		<path id="Rectangle-3" fill-rule="evenodd" fill="#CA4638" d="M1.5,6.7h18.9C18.9,2.8,15.2,0,10.9,0S2.8,2.8,1.5,6.7L1.5,6.7z"/>
		<g id="egypt" transform="translate(70.000000, 62.000000)">
			<g>
				<path id="_x32_1445608_00000132803015455543762350000017754158684511041923_" fill-rule="evenodd" fill="#FFFFFF" d="
					M-57.5-49.1c0.2,0,0.2-0.1,0.2-0.2c0.2,0,0.1-0.2,0.2-0.2c-0.1,0-0.1-0.2-0.3-0.1c0-0.2-0.2-0.2-0.3-0.1
					c-0.3,0.1-0.9,0.1-1.4,0.1c-0.5,0-1.1,0-1.4-0.1c-0.2,0-0.3,0-0.3,0.1c-0.1,0-0.2,0.2-0.3,0.1c0.1,0,0,0.2,0.2,0.2
					c0,0.1,0,0.2,0.2,0.2c0.4,0.1,1,0.1,1.7,0.1C-58.5-49-57.8-49-57.5-49.1z"/>
				<path fill="#C09300" d="M-59.1-49c-0.7,0-1.3-0.1-1.7-0.1c-0.2,0-0.2-0.1-0.2-0.2c-0.1,0-0.1-0.1-0.1-0.2c0,0,0-0.1,0-0.1
					c0,0,0,0,0,0l0-0.1c0,0,0,0,0,0c0,0,0,0,0.1-0.1c0,0,0.1-0.1,0.1-0.1c0-0.1,0-0.1,0.1-0.1c0.1-0.1,0.2-0.1,0.3,0
					c0.3,0.1,0.7,0.1,1.1,0.1c0.1,0,0.2,0,0.3,0c0.7,0,1.1,0,1.4-0.1c0.1,0,0.2,0,0.3,0c0,0,0.1,0.1,0.1,0.1c0.1,0,0.1,0.1,0.1,0.1
					c0,0,0,0.1,0.1,0.1c0,0,0,0,0,0l0,0.1c0,0,0,0,0,0c0,0,0,0,0,0.1c0,0.1,0,0.1-0.1,0.2c0,0.1,0,0.2-0.2,0.2
					C-57.8-49-58.4-49-59.1-49z M-61-49.6C-61-49.5-61-49.5-61-49.6c0,0.1,0,0.2,0.1,0.2l0,0v0c0,0.1,0,0.2,0.1,0.2
					c0.3,0.1,0.9,0.1,1.6,0.1c0.7,0,1.3-0.1,1.7-0.1l0,0c0.1,0,0.1-0.1,0.1-0.2v0l0,0c0.1,0,0.1-0.1,0.1-0.1c0,0,0,0,0-0.1
					c0,0,0,0-0.1-0.1c0-0.1-0.1-0.1-0.1-0.1l0,0v0c0,0,0-0.1,0-0.1c-0.1,0-0.2,0-0.3,0c-0.3,0.1-0.7,0.1-1.4,0.1c-0.1,0-0.2,0-0.3,0
					c-0.4,0-0.9,0-1.1-0.1c-0.1,0-0.2,0-0.3,0c0,0,0,0.1,0,0.1v0l0,0C-60.9-49.7-60.9-49.7-61-49.6C-61-49.6-61-49.6-61-49.6z"/>
			</g>
			<g>
				<path id="_x32_1312736_00000000905310980447193960000002041145730290695865_" fill-rule="evenodd" fill="#FFFFFF" d="M-59-51.9
					l2.3,2l-0.2-3.7c0-0.6-0.5-0.4-0.9-0.2c-0.4,0.2-0.8,0.2-1.2,0.1c-0.4,0.2-0.9,0.2-1.2-0.1c-0.4-0.2-0.9-0.3-0.9,0.2l-0.2,3.7
					L-59-51.9L-59-51.9z"/>
				<path fill="#C09300" d="M-56.8-49.8l-2.3-2.1l-2.3,2.1l0.2-3.8c0-0.2,0.1-0.3,0.2-0.4c0.2-0.1,0.6,0,0.7,0.1
					c0.3,0.2,0.7,0.2,1.2,0.1l0,0l0,0c0.5,0.2,0.9,0.1,1.2-0.1c0.1-0.1,0.5-0.3,0.7-0.1c0.1,0.1,0.2,0.2,0.2,0.4L-56.8-49.8z
					 M-60.8-54c-0.1,0-0.1,0-0.2,0c-0.1,0.1-0.1,0.2-0.2,0.3l-0.2,3.6l2.3-2l2.2,2l-0.2-3.6c0-0.2-0.1-0.3-0.2-0.3
					c-0.2-0.1-0.5,0.1-0.7,0.1c-0.3,0.2-0.8,0.2-1.2,0.1c-0.5,0.2-0.9,0.1-1.2-0.1C-60.4-53.9-60.6-54-60.8-54z"/>
			</g>
			<path id="_x32_1313880" fill-rule="evenodd" fill="#C09300" d="M-58.1-53.1l-0.1,1.8l-0.2,0.2l0.1-2
				C-58.3-53.1-58.1-53.1-58.1-53.1L-58.1-53.1z"/>
			<path id="_x32_1313440" fill-rule="evenodd" fill="#C09300" d="M-58.7-50.2l-0.1,0.1l-0.1-0.1L-59-51l0.1,0.8l-0.1,0.1l-0.1-0.1
				l0.1-0.8l-0.1,0.8l-0.1,0.1l-0.1-0.1l0.3-1.4h0.1L-58.7-50.2z"/>
			<path id="_x32_1313528" fill-rule="evenodd" fill="#C09300" d="M-60.9-53.8l-0.2,3.7l-0.3,0.2l0.2-3.8
				C-61.1-53.7-61-53.8-60.9-53.8L-60.9-53.8z M-60.6-53.5l-0.1,3.1l-0.3,0.3l0.2-3.6C-60.8-53.6-60.6-53.5-60.6-53.5L-60.6-53.5z
				 M-60.3-53.3l-0.1,2.5l-0.2,0.2l0.1-2.9C-60.5-53.4-60.4-53.3-60.3-53.3L-60.3-53.3z M-60-53.1l-0.1,2.2l-0.2,0.2l0.1-2.4
				C-60.2-53.2-60.1-53.1-60-53.1L-60-53.1z M-59.7-53.1l-0.1,1.8l-0.2,0.2l0.1-2C-59.9-53.1-59.7-53.1-59.7-53.1L-59.7-53.1z
				 M-57.2-53.8l0.2,3.7l0.3,0.2l-0.2-3.8C-57-53.7-57.2-53.8-57.2-53.8L-57.2-53.8z M-57.6-53.5l0.1,3.1l0.3,0.3l-0.2-3.6
				C-57.4-53.6-57.5-53.5-57.6-53.5L-57.6-53.5z M-57.8-53.3l0.1,2.5l0.2,0.2l-0.1-2.9C-57.6-53.4-57.8-53.3-57.8-53.3L-57.8-53.3z
				 M-58.1-53.1l0.1,2.2l0.2,0.2l-0.1-2.4C-58-53.2-58.1-53.1-58.1-53.1L-58.1-53.1z"/>
			<g>
				<path id="_x32_1314408_00000152968257613960057360000014115009716522899876_" fill-rule="evenodd" fill="#FFFFFF" d="M-60.5-50
					l0.9,0.1l0.4-1.6l-0.7-0.7L-60.5-50z M-57.7-50l-0.9,0.1l-0.4-1.6l0.6-0.7L-57.7-50z"/>
				<path fill="#C09300" d="M-59.5-49.9l-1-0.1l0.6-2.3l0.7,0.7l0,0L-59.5-49.9z M-60.4-50l0.8,0.1l0.4-1.6l-0.6-0.7L-60.4-50z
					 M-58.6-49.9L-58.6-49.9l-0.4-1.6l0,0l0.7-0.8l0.8,2.3L-58.6-49.9z M-59-51.5l0.4,1.6l0.9-0.1l-0.7-2.1L-59-51.5z"/>
			</g>
			<g>
				<path id="_x32_1315816_00000016064122365218927870000016844147429645686415_" fill-rule="evenodd" fill="#FFFFFF" d="M-60-50
					c0.2,0,0.4,0,0.6,0c0.1,0,0.2,0.2,0,0.2c-0.2,0-0.5,0-0.6,0c-0.1,0-0.4-0.1-0.6-0.1c-0.2-0.1-0.1-0.2,0.1-0.2
					C-60.4-50.1-60.2-50-60-50L-60-50z"/>
				<path fill="#C09300" d="M-59.5-49.8c-0.2,0-0.3,0-0.4,0c-0.1,0-0.4-0.1-0.6-0.1c-0.1,0-0.1-0.1-0.1-0.1c0-0.1,0.1-0.1,0.1-0.1
					c0.1,0,0.3,0.1,0.6,0.1l0,0c0.2,0,0.4,0,0.6,0c0,0,0,0,0,0c0.1,0,0.1,0,0.1,0.1c0,0,0,0.1-0.1,0.1
					C-59.4-49.8-59.5-49.8-59.5-49.8z M-60.6-50.1c0,0-0.1,0-0.1,0.1c0,0,0,0.1,0.1,0.1c0.2,0,0.5,0.1,0.6,0.1c0.1,0,0.4,0,0.6,0
					c0.1,0,0.1,0,0.1-0.1c0,0,0-0.1-0.1-0.1c-0.2,0-0.4,0-0.6,0l0,0C-60.2-50-60.4-50.1-60.6-50.1C-60.5-50.1-60.5-50.1-60.6-50.1z"
					/>
			</g>
			<g>
				<path id="_x32_1315904_00000021120952197169537130000015626505461238478478_" fill-rule="evenodd" fill="#FFFFFF" d="M-58.2-50
					c-0.2,0-0.4,0-0.6,0c-0.1,0-0.2,0.2,0,0.2c0.2,0,0.5,0,0.6,0c0.1,0,0.4-0.1,0.6-0.1c0.2-0.1,0.1-0.2-0.1-0.2
					C-57.8-50.1-58-50-58.2-50L-58.2-50z"/>
				<path fill="#C09300" d="M-58.6-49.8c-0.1,0-0.1,0-0.2,0c-0.1,0-0.1-0.1-0.1-0.1c0,0,0.1-0.1,0.1-0.1c0.2,0,0.4,0,0.6,0l0,0
					c0.2,0,0.5-0.1,0.6-0.1c0.1,0,0.1,0,0.1,0.1c0,0,0,0.1-0.1,0.1c-0.2,0-0.5,0.1-0.6,0.1C-58.2-49.8-58.4-49.8-58.6-49.8z
					 M-58.8-50c-0.1,0-0.1,0-0.1,0.1c0,0,0,0.1,0.1,0.1c0.2,0,0.5,0,0.6,0c0.1,0,0.4-0.1,0.6-0.1c0.1,0,0.1-0.1,0.1-0.1
					c0,0-0.1-0.1-0.1-0.1c-0.1,0-0.3,0.1-0.6,0.1l0,0C-58.4-50-58.6-49.9-58.8-50z"/>
			</g>
			<g>
				<path id="_x32_1315992_00000128461619811324603100000001504875771667169958_" fill-rule="evenodd" fill="#FFFFFF" d="
					M-60.6-50.1c-0.2,0-0.3,0.1-0.2,0.2c0,0,0.1,0,0.2-0.1C-60.6-50-60.6-50-60.6-50.1z M-59.9-49.7c0-0.1,0.1-0.1,0.1-0.2
					c0-0.1,0-0.1-0.1-0.1c-0.1,0-0.1,0.1-0.1,0.1C-60-49.8-59.9-49.8-59.9-49.7L-59.9-49.7z M-59.3-49.9c0.2,0,0.2,0.2,0.1,0.3
					c0-0.1-0.2-0.1-0.2-0.2C-59.3-49.8-59.2-49.8-59.3-49.9z M-57.6-50.1c0.2,0,0.3,0.1,0.2,0.2c0,0-0.1,0-0.2-0.1
					C-57.6-50-57.5-50-57.6-50.1L-57.6-50.1z M-58.1-49.7c0-0.1-0.1-0.1-0.1-0.2c0-0.1,0-0.1,0.1-0.1c0.1,0,0.1,0.1,0.1,0.1
					C-58-49.8-58.1-49.8-58.1-49.7L-58.1-49.7z M-58.9-49.9c-0.2,0-0.2,0.2-0.1,0.3c0-0.1,0.2-0.1,0.2-0.2
					C-58.8-49.8-58.9-49.8-58.9-49.9z"/>
				<path fill="#C09300" d="M-58.9-49.5L-58.9-49.5c-0.1-0.1-0.1-0.2-0.1-0.3c0,0,0.1-0.1,0.1-0.1h0l0,0c0,0,0,0,0,0c0,0,0,0,0,0
					c0,0,0.1,0,0.1,0.1c0,0,0,0-0.1,0.1C-58.9-49.6-58.9-49.6-58.9-49.5L-58.9-49.5z M-58.9-49.9c-0.1,0-0.1,0-0.1,0.1
					c0,0.1,0,0.2,0,0.2c0,0,0.1-0.1,0.1-0.1c0,0,0.1,0,0.1-0.1C-58.8-49.8-58.8-49.8-58.9-49.9C-58.9-49.8-58.9-49.8-58.9-49.9
					C-58.9-49.9-58.9-49.9-58.9-49.9z M-59.2-49.5L-59.2-49.5c0-0.1,0-0.1-0.1-0.1c0,0-0.1,0-0.1-0.1c0,0,0-0.1,0.1-0.1c0,0,0,0,0,0
					c0,0,0,0,0,0l0,0h0c0.1,0,0.1,0,0.1,0.1C-59.1-49.7-59.1-49.6-59.2-49.5L-59.2-49.5z M-59.2-49.9
					C-59.2-49.9-59.2-49.9-59.2-49.9C-59.2-49.8-59.3-49.8-59.2-49.9c-0.1,0.1-0.1,0.1-0.1,0.2c0,0,0,0,0.1,0.1c0,0,0.1,0.1,0.1,0.1
					c0.1-0.1,0.1-0.2,0-0.2C-59.2-49.9-59.2-49.9-59.2-49.9z M-58.1-49.7L-58.1-49.7C-58.1-49.7-58.1-49.7-58.1-49.7
					c-0.1-0.1-0.1-0.1-0.1-0.2c0-0.1,0-0.1,0.1-0.1c0.1,0,0.1,0.1,0.1,0.1c0,0.1,0,0.1,0,0.1C-58.1-49.7-58.1-49.7-58.1-49.7z
					 M-58.1-50c-0.1,0-0.1,0.1-0.1,0.1c0,0.1,0,0.1,0.1,0.1c0,0,0,0,0.1,0.1c0,0,0-0.1,0-0.1c0,0,0.1-0.1,0-0.1l0,0
					C-58-49.9-58.1-50-58.1-50z M-59.9-49.7L-59.9-49.7c0,0,0-0.1-0.1-0.1c0,0-0.1-0.1,0-0.1c0-0.1,0.1-0.1,0.1-0.1
					c0.1,0,0.1,0.1,0.1,0.1C-59.8-49.8-59.8-49.8-59.9-49.7C-59.9-49.7-59.9-49.7-59.9-49.7z M-59.9-50c-0.1,0-0.1,0.1-0.1,0.1l0,0
					c0,0.1,0,0.1,0,0.1c0,0,0,0,0,0.1c0,0,0,0,0.1-0.1c0,0,0.1,0,0.1-0.1C-59.8-49.9-59.8-50-59.9-50z M-60.8-49.9L-60.8-49.9
					c0,0,0-0.1,0-0.2c0-0.1,0.1-0.1,0.2-0.1l0,0l0,0c0,0,0,0,0,0.1c0,0,0,0,0,0.1C-60.6-49.9-60.6-49.9-60.8-49.9
					C-60.7-49.9-60.7-49.9-60.8-49.9L-60.8-49.9z M-60.6-50.1c-0.1,0-0.1,0-0.2,0.1c0,0,0,0.1,0,0.1c0,0,0.1,0,0.1,0
					c0,0,0.1,0,0.1,0C-60.6-50-60.6-50-60.6-50.1C-60.6-50.1-60.6-50.1-60.6-50.1C-60.6-50.1-60.6-50.1-60.6-50.1z M-57.4-49.9
					L-57.4-49.9C-57.4-49.9-57.4-49.9-57.4-49.9c-0.1-0.1-0.2-0.1-0.2-0.1c0,0,0-0.1,0-0.1c0,0,0,0,0-0.1l0,0l0,0
					c0.1,0,0.2,0,0.2,0.1C-57.3-50-57.3-49.9-57.4-49.9L-57.4-49.9z M-57.6-50.1C-57.5-50.1-57.5-50.1-57.6-50.1c0,0.1,0,0.1,0,0.1
					c0,0,0,0,0.1,0c0,0,0.1,0,0.1,0c0,0,0-0.1,0-0.1C-57.4-50.1-57.5-50.1-57.6-50.1z"/>
			</g>
			<path id="_x32_1315024" fill-rule="evenodd" fill="#C09300" d="M-58.6-51.3L-58.6-51.3l0.1-0.2l-0.1-0.2l0,0l0.1,0.1l0-0.3
				c0,0,0-0.1,0-0.1l0,0.4l0.2,0.2l0.1-0.2l0,0l-0.1,0.2l-0.2-0.2l0,0l0,0.3L-58.6-51.3l-0.1,0.4l0,0l0.2,0.3l0.1-0.5l0.2,0.2
				l0.1-0.3l0.3,0.3l-0.1,0.5l0,0l-0.2-0.3l-0.1,0.3l-0.2-0.3l0-0.1l0.2,0.2l0.1-0.3l0.2,0.3l0.1-0.4l-0.3-0.2l-0.1,0.3l-0.2-0.2
				l-0.2,0.8l0,0l0.1-0.3l0,0l-0.3-0.4l0,0l0.1,0.1l0,0l0,0L-58.6-51.3z M-58.6-51.3l-0.1-0.2l0,0L-58.6-51.3l-0.2,0.4L-58.6-51.3z
				 M-59.4-51.3l0.1-0.1l0,0l-0.2,0.3l0-0.4l0,0l0,0l0,0l0-0.2c0,0,0-0.1,0-0.1l0,0.3l-0.3,0.3l-0.1-0.2l0,0l0.1,0.2l0.3-0.3l0,0
				l0,0.4L-59.4-51.3l0.1,0.4l-0.2,0.3l-0.1-0.5l-0.2,0.2l-0.1-0.3l-0.3,0.3l0.1,0.5l0,0l0.2-0.3l0.1,0.3l0.2-0.3l0-0.1l-0.2,0.2
				l-0.1-0.3l-0.2,0.3l-0.1-0.4l0.3-0.2l0.1,0.3l0.2-0.2l0.2,0.8l0,0l-0.1-0.3l0,0l0.2-0.3l0,0l0,0l0-0.1l0,0l0,0l0,0L-59.4-51.3
				L-59.4-51.3L-59.4-51.3z M-60-50.2l0.1,0.2l0.1-0.1l0.1,0.1l0,0l-0.1-0.2l-0.1,0.2L-60-50.2l-0.2,0.2l0,0L-60-50.2z M-58.1-50.2
				l-0.1,0.2l-0.1-0.1l-0.1,0.1l0,0l0.1-0.2l0.1,0.2L-58.1-50.2l0.2,0.2l0,0L-58.1-50.2z"/>
			<g>
				<path id="_66795168-9_00000072968632243451427320000017749557139139169429_" fill-rule="evenodd" fill="#FFFFFF" d="M-59-51.1
					c1.1-0.8,1-2,1-2c0,0-0.1,0-0.1,0c-0.2,0-0.8-0.1-0.9-0.3c-0.1,0.1-0.7,0.3-0.9,0.3c0,0-0.1,0-0.1,0C-60-53.2-60.1-51.9-59-51.1
					L-59-51.1z"/>
				<path fill="#C09300" d="M-59-51.1L-59-51.1c-1.1-0.8-1-2.1-1-2.1l0,0l0,0c0,0,0.1,0,0.1,0c0.2,0,0.8-0.1,0.9-0.3l0,0l0,0
					c0.1,0.2,0.7,0.3,0.9,0.3c0,0,0.1,0,0.1,0l0,0l0,0C-58-53.1-57.9-51.9-59-51.1L-59-51.1z M-60-53.1c0,0.1,0,1.2,1,2
					c1-0.8,1-1.9,1-2c0,0,0,0-0.1,0c-0.2,0-0.8-0.1-0.9-0.3C-59.1-53.3-59.7-53.1-60-53.1C-59.9-53.1-60-53.1-60-53.1z"/>
			</g>
			<path fill="#C09300" d="M-59-51.2L-59-51.2c-0.4-0.3-0.7-0.8-0.8-1.2c0-0.2-0.1-0.3-0.1-0.5c0,0,0-0.1,0-0.1l0,0l0,0c0,0,0,0,0,0
				c0.2,0,0.7-0.1,0.9-0.3l0,0l0,0c0.2,0.2,0.7,0.3,0.8,0.3c0,0,0,0,0,0l0,0v0c0,0,0,0.1,0,0.1c0,0.2,0,0.3-0.1,0.5
				C-58.3-52-58.6-51.5-59-51.2L-59-51.2z M-59.9-53.1c0,0,0,0.1,0,0.1c0,0.2,0,0.3,0.1,0.5c0.1,0.5,0.4,0.9,0.8,1.2
				c0.4-0.3,0.7-0.7,0.8-1.2c0-0.2,0.1-0.3,0.1-0.5c0,0,0-0.1,0-0.1c0,0,0,0,0,0c-0.2,0-0.7-0.1-0.9-0.3
				C-59.2-53.2-59.7-53.1-59.9-53.1C-59.9-53.1-59.9-53.1-59.9-53.1z"/>
			<g>
				<path id="path3816_00000145773833898595310850000007362866377665595320_" fill-rule="evenodd" fill="#C09300" d="M-58.7-53.1
					c0.2,0.1,0.4,0.1,0.5,0.1c0,0,0,0,0,0h0c0,0,0,0.1,0,0.1c0,0.2,0,0.3-0.1,0.5c-0.1,0.3-0.3,0.6-0.5,0.9V-53.1z M-59.3-53.1
					c-0.2,0.1-0.4,0.1-0.5,0.1c0,0,0,0,0,0c0,0,0,0.1,0,0.1c0,0.2,0,0.3,0.1,0.5c0.1,0.3,0.3,0.6,0.5,0.9V-53.1z"/>
				<path fill="#C09300" d="M-59.3-51.5l-0.1-0.1c-0.2-0.3-0.4-0.5-0.5-0.9c0-0.2-0.1-0.3-0.1-0.5c0,0,0-0.1,0-0.1l0-0.1l0.1,0
					c0,0,0,0,0,0c0.1,0,0.3,0,0.5-0.1l0.1,0V-51.5z M-59.8-53C-59.8-53-59.8-52.9-59.8-53c0,0.2,0,0.4,0.1,0.5
					c0.1,0.3,0.2,0.5,0.4,0.7v-1.3C-59.6-53-59.7-53-59.8-53z M-58.7-51.5v-1.7l0.1,0c0.2,0.1,0.4,0.1,0.5,0.1c0,0,0,0,0,0l0.1,0
					l0,0.1c0,0,0,0.1,0,0.1c0,0.2,0,0.3-0.1,0.5c-0.1,0.3-0.3,0.6-0.5,0.9L-58.7-51.5z M-58.6-53.1v1.3c0.2-0.2,0.3-0.5,0.4-0.7
					c0-0.1,0.1-0.3,0.1-0.4c0,0,0,0,0-0.1C-58.3-53-58.5-53-58.6-53.1z"/>
			</g>
			<path id="path4247-1" fill-rule="evenodd" fill="#C09300" d="M-60.6-49.6C-60.7-49.6-60.7-49.6-60.6-49.6c0-0.1,0-0.1,0-0.1
				C-60.6-49.7-60.6-49.6-60.6-49.6C-60.6-49.6-60.6-49.6-60.6-49.6C-60.6-49.6-60.6-49.6-60.6-49.6C-60.6-49.6-60.6-49.6-60.6-49.6
				L-60.6-49.6z M-58.8-49.4C-58.8-49.5-58.8-49.5-58.8-49.4c0-0.1,0-0.1,0-0.1C-58.7-49.6-58.7-49.5-58.8-49.4
				C-58.7-49.5-58.7-49.5-58.8-49.4C-58.7-49.4-58.7-49.4-58.8-49.4L-58.8-49.4z M-58.7-49.3C-58.8-49.3-58.8-49.4-58.7-49.3
				C-58.8-49.4-58.8-49.4-58.7-49.3l0-0.1L-58.7-49.3C-58.7-49.4-58.7-49.4-58.7-49.3C-58.7-49.4-58.7-49.4-58.7-49.3
				C-58.7-49.3-58.7-49.3-58.7-49.3L-58.7-49.3z M-60.5-49.5C-60.5-49.5-60.5-49.6-60.5-49.5C-60.5-49.6-60.5-49.6-60.5-49.5
				C-60.6-49.5-60.6-49.5-60.5-49.5C-60.6-49.5-60.6-49.5-60.5-49.5C-60.5-49.5-60.5-49.5-60.5-49.5L-60.5-49.5z M-60.3-49.3
				C-60.3-49.3-60.3-49.3-60.3-49.3c-0.1,0-0.1,0-0.1,0c0,0,0,0,0,0c0,0,0,0,0,0c0,0,0,0,0,0c0,0,0,0,0,0c0,0,0,0,0,0c0,0,0,0,0,0
				c0,0,0,0,0,0c0,0,0,0,0,0c0,0,0,0,0,0c0,0,0,0,0,0c0,0,0,0,0,0c0,0,0,0,0,0c0,0,0,0,0,0c0,0,0,0,0,0c0,0,0,0,0,0c0,0,0,0,0,0l0,0
				l0,0c0,0,0,0,0,0c0,0,0,0,0,0c0,0,0,0,0,0c0,0,0-0.1,0-0.1c0,0,0,0,0,0c0,0,0,0,0,0c0,0,0,0,0,0c0,0,0,0,0,0c0,0,0,0,0,0
				c0,0,0,0,0,0c0,0,0,0,0,0c0,0,0,0,0,0c0,0,0,0,0,0c0,0,0,0,0,0c0,0,0,0,0,0c0,0,0,0,0,0c0,0,0,0,0,0c0,0,0,0,0,0c0,0,0,0,0,0
				c0,0,0,0,0,0c0,0,0,0,0,0c0,0,0,0,0,0c0,0,0,0,0,0c0,0,0,0,0,0c0,0,0,0,0,0c0,0,0,0,0,0c0,0,0,0,0,0c0,0,0,0,0,0c0,0,0,0,0,0
				c0,0,0,0,0,0s0,0,0,0c0,0,0,0,0,0c0,0,0,0,0,0c0,0,0,0,0,0s0,0,0,0c0,0,0,0,0,0c0,0,0,0,0,0c0,0,0,0,0,0c0,0,0,0,0,0c0,0,0,0,0,0
				c0,0,0,0,0,0c0,0,0,0,0,0c0,0,0,0,0,0c0,0,0,0,0,0c0,0,0,0,0,0c0,0,0,0,0,0c0,0,0,0,0,0c0,0,0,0,0,0c0,0,0,0,0,0c0,0,0,0,0,0
				c0,0,0,0,0,0c0,0,0,0,0,0c0,0,0,0,0,0c0,0,0,0,0,0c0,0,0,0,0,0c0,0,0,0,0,0C-60.4-49.4-60.4-49.4-60.3-49.3
				C-60.4-49.4-60.4-49.4-60.3-49.3C-60.4-49.4-60.4-49.4-60.3-49.3C-60.4-49.4-60.4-49.4-60.3-49.3C-60.4-49.4-60.3-49.4-60.3-49.3
				C-60.3-49.4-60.3-49.4-60.3-49.3C-60.3-49.4-60.3-49.4-60.3-49.3c0-0.1,0-0.1,0-0.1c0,0,0,0,0,0c0,0,0,0,0,0c0,0,0,0,0,0
				c0,0,0,0,0,0c0,0,0,0,0,0c0,0,0,0,0,0c0,0,0,0,0,0S-60.3-49.4-60.3-49.3C-60.3-49.4-60.3-49.4-60.3-49.3
				C-60.3-49.4-60.3-49.4-60.3-49.3C-60.3-49.4-60.3-49.4-60.3-49.3C-60.3-49.3-60.3-49.3-60.3-49.3L-60.3-49.3z M-60.7-49.4
				C-60.7-49.4-60.7-49.4-60.7-49.4C-60.6-49.4-60.6-49.4-60.7-49.4C-60.6-49.4-60.6-49.4-60.7-49.4C-60.6-49.3-60.6-49.3-60.7-49.4
				C-60.6-49.3-60.6-49.3-60.7-49.4L-60.7-49.4z M-60.5-49.2C-60.6-49.2-60.6-49.3-60.5-49.2c0-0.1,0-0.1,0-0.1
				C-60.5-49.3-60.5-49.3-60.5-49.2C-60.5-49.3-60.5-49.3-60.5-49.2C-60.5-49.2-60.5-49.2-60.5-49.2L-60.5-49.2z M-57.7-49.2
				C-57.7-49.2-57.7-49.3-57.7-49.2C-57.7-49.3-57.7-49.3-57.7-49.2C-57.6-49.3-57.6-49.3-57.7-49.2C-57.6-49.3-57.6-49.3-57.7-49.2
				C-57.6-49.2-57.6-49.2-57.7-49.2C-57.6-49.2-57.6-49.2-57.7-49.2L-57.7-49.2z M-60.4-49.2C-60.4-49.2-60.5-49.3-60.4-49.2
				C-60.5-49.3-60.4-49.3-60.4-49.2c0-0.1,0-0.1,0-0.1C-60.4-49.3-60.4-49.3-60.4-49.2C-60.3-49.3-60.3-49.3-60.4-49.2
				C-60.4-49.2-60.4-49.2-60.4-49.2L-60.4-49.2z M-59.7-49.2L-59.7-49.2L-59.7-49.2C-59.7-49.3-59.7-49.3-59.7-49.2
				C-59.7-49.3-59.7-49.3-59.7-49.2c0-0.1,0-0.1,0-0.1s0,0,0,0c0,0,0,0,0,0c0,0,0,0,0,0c0,0,0,0,0,0c0,0,0,0,0,0c0,0,0,0,0,0
				c0,0,0,0,0,0c0,0,0,0,0,0c0,0,0,0,0,0c0,0,0,0,0,0c0,0,0,0,0,0c0,0,0,0,0,0c0,0,0,0,0,0c0,0,0,0,0,0c0,0,0,0,0,0c0,0,0,0,0,0.1
				c0,0,0,0,0,0C-59.6-49.3-59.6-49.3-59.7-49.2C-59.6-49.3-59.6-49.3-59.7-49.2C-59.6-49.3-59.6-49.3-59.7-49.2
				C-59.6-49.2-59.6-49.2-59.7-49.2C-59.6-49.2-59.6-49.2-59.7-49.2C-59.7-49.2-59.7-49.2-59.7-49.2L-59.7-49.2z M-58.8-49.3
				L-58.8-49.3L-58.8-49.3L-58.8-49.3L-58.8-49.3C-58.8-49.3-58.8-49.3-58.8-49.3C-58.8-49.3-58.8-49.3-58.8-49.3
				C-58.8-49.3-58.8-49.3-58.8-49.3C-58.8-49.3-58.8-49.3-58.8-49.3L-58.8-49.3z M-58.8-49.2C-58.8-49.2-58.8-49.2-58.8-49.2
				C-58.8-49.3-58.8-49.3-58.8-49.2C-58.8-49.3-58.8-49.3-58.8-49.2C-58.8-49.3-58.8-49.3-58.8-49.2C-58.8-49.3-58.8-49.3-58.8-49.2
				c0-0.1,0-0.1,0-0.1c0,0,0,0,0,0c0,0,0,0,0,0c0,0,0,0,0,0c0,0,0,0,0,0c0,0,0,0,0,0c0,0,0,0,0,0c0,0,0,0,0,0c0,0,0,0,0,0
				c0,0,0,0,0,0c0,0,0,0,0,0c0,0,0,0,0,0c0,0,0.1,0,0.1,0c0,0,0,0,0,0c0,0,0,0,0,0s0,0,0,0s0,0,0,0.1s0,0,0,0c0,0,0,0,0,0
				c0,0,0,0,0,0c0,0,0,0,0,0c0,0,0,0,0,0c0,0,0,0,0,0c0,0,0,0,0,0c0,0,0,0,0,0c0,0,0,0,0,0c0,0,0,0,0,0c0,0,0,0,0,0c0,0,0,0,0,0
				c0,0,0,0,0,0c0,0,0,0,0,0c0,0,0,0,0,0c0,0,0,0,0,0c0,0,0,0,0,0c0,0,0,0,0,0c0,0,0,0,0,0c0,0,0,0,0,0c0,0,0,0,0,0
				C-58.6-49.2-58.7-49.2-58.8-49.2C-58.7-49.2-58.7-49.2-58.8-49.2L-58.8-49.2L-58.8-49.2L-58.8-49.2z M-59.9-49.3
				C-59.9-49.3-59.9-49.4-59.9-49.3C-59.9-49.4-59.9-49.4-59.9-49.3C-59.9-49.5-59.9-49.5-59.9-49.3C-60-49.4-60-49.4-59.9-49.3
				l-0.1,0L-59.9-49.3C-60-49.3-60-49.3-59.9-49.3C-59.9-49.3-59.9-49.3-59.9-49.3L-59.9-49.3z M-59.8-49.2
				C-59.8-49.2-59.8-49.2-59.8-49.2C-59.8-49.2-59.8-49.2-59.8-49.2C-59.8-49.2-59.8-49.2-59.8-49.2C-59.8-49.3-59.8-49.3-59.8-49.2
				C-59.8-49.3-59.8-49.3-59.8-49.2C-59.8-49.3-59.8-49.3-59.8-49.2c0-0.1-0.1-0.1-0.1-0.1c0,0,0,0,0,0c0,0,0,0,0,0c0,0,0,0,0,0
				c0,0,0,0,0,0c0,0,0,0,0,0c0,0,0,0,0,0c0,0,0,0,0,0c0,0,0,0,0,0c0,0,0,0,0,0c0,0,0,0,0,0c0,0-0.1,0-0.1,0c0,0,0,0,0,0c0,0,0,0,0,0
				c0,0,0,0,0,0c0,0,0,0,0,0c0,0,0,0,0,0c0,0,0,0,0,0c0,0,0,0,0,0c0,0,0,0,0,0c0,0,0,0,0,0c0,0,0,0,0,0c0,0,0,0,0,0c0,0,0,0,0,0
				c0,0,0,0,0,0c0,0,0,0,0,0c0,0,0,0,0,0c0,0,0,0,0,0c0,0,0,0,0,0s0,0,0,0c0,0,0,0,0,0c0,0,0,0,0,0c0,0,0,0,0,0c0,0,0,0,0,0
				c0,0,0,0,0,0c0,0,0,0,0,0c0,0,0,0,0,0.1c0,0,0,0,0,0c0,0,0,0,0,0c0,0,0,0,0,0c0,0,0,0,0,0c0,0,0,0,0,0c0,0,0,0-0.1,0c0,0,0,0,0,0
				c0,0,0,0,0,0c0,0,0,0,0,0l0,0l0,0c0,0,0,0,0.1,0c0,0,0,0,0,0c0,0,0,0,0,0c0,0,0,0,0,0c0,0,0,0,0,0c0,0,0,0,0,0c0,0,0,0,0,0
				c0,0,0,0,0,0c0,0,0,0,0,0c0,0,0,0,0,0l0,0l0,0c0,0,0,0,0,0c0,0,0,0,0,0c0,0,0,0,0,0c0,0,0,0,0,0c0,0,0,0,0,0L-59.8-49.2
				L-59.8-49.2C-59.8-49.3-59.8-49.3-59.8-49.2C-59.8-49.3-59.8-49.3-59.8-49.2C-59.8-49.3-59.8-49.3-59.8-49.2c0-0.1,0-0.1,0-0.1
				s0,0,0,0c0,0,0,0,0,0c0,0,0,0,0,0c0,0,0,0,0,0c0,0,0,0,0,0c0,0,0,0,0,0l0,0l0,0c0,0,0,0,0,0c0,0,0,0,0,0c0,0,0,0,0,0c0,0,0,0,0,0
				c0,0,0,0,0,0c0,0,0,0,0,0c0,0,0,0,0,0c0,0,0,0,0,0c0,0,0,0,0,0c0,0,0,0,0,0.1c0,0,0,0,0,0c0,0,0,0,0,0c0,0,0,0,0,0c0,0,0,0,0,0
				c0,0,0,0,0,0S-59.7-49.3-59.8-49.2C-59.7-49.3-59.7-49.3-59.8-49.2C-59.7-49.3-59.7-49.3-59.8-49.2
				C-59.7-49.3-59.7-49.2-59.8-49.2C-59.7-49.2-59.7-49.2-59.8-49.2C-59.7-49.2-59.7-49.2-59.8-49.2C-59.8-49.2-59.8-49.2-59.8-49.2
				C-59.8-49.2-59.8-49.2-59.8-49.2L-59.8-49.2z M-57.7-49.4C-57.7-49.4-57.7-49.4-57.7-49.4C-57.7-49.4-57.7-49.4-57.7-49.4
				C-57.8-49.4-57.8-49.4-57.7-49.4C-57.8-49.4-57.8-49.4-57.7-49.4C-57.8-49.4-57.8-49.4-57.7-49.4C-57.8-49.4-57.8-49.4-57.7-49.4
				L-57.7-49.4z M-58-49.3C-58-49.4-58-49.4-58-49.3C-58-49.4-58-49.4-58-49.3C-58-49.4-58-49.4-58-49.3C-58-49.4-58-49.4-58-49.3
				C-58-49.4-58-49.4-58-49.3C-58-49.4-58-49.3-58-49.3C-58-49.3-58-49.3-58-49.3L-58-49.3z M-58.1-49.3
				C-58.1-49.4-58.1-49.4-58.1-49.3C-58.1-49.4-58.1-49.4-58.1-49.3C-58.1-49.4-58.1-49.4-58.1-49.3C-58.1-49.4-58.1-49.4-58.1-49.3
				C-58.1-49.3-58.1-49.3-58.1-49.3C-58.1-49.3-58.1-49.3-58.1-49.3L-58.1-49.3z M-58.2-49.3C-58.2-49.3-58.2-49.3-58.2-49.3
				C-58.2-49.3-58.2-49.3-58.2-49.3C-58.2-49.3-58.2-49.3-58.2-49.3C-58.2-49.3-58.2-49.3-58.2-49.3C-58.2-49.3-58.2-49.3-58.2-49.3
				C-58.2-49.3-58.2-49.3-58.2-49.3C-58.2-49.3-58.2-49.3-58.2-49.3L-58.2-49.3z M-58-49.3C-58-49.3-58-49.3-58-49.3
				C-58-49.3-58-49.3-58-49.3C-58-49.3-58-49.3-58-49.3C-58-49.3-58-49.3-58-49.3C-58-49.3-58-49.3-58-49.3L-58-49.3z M-58.3-49.2
				C-58.3-49.2-58.3-49.2-58.3-49.2C-58.3-49.2-58.3-49.2-58.3-49.2C-58.3-49.2-58.3-49.2-58.3-49.2C-58.3-49.3-58.3-49.3-58.3-49.2
				C-58.3-49.3-58.2-49.3-58.3-49.2C-58.2-49.3-58.2-49.3-58.3-49.2C-58.2-49.3-58.3-49.3-58.3-49.2C-58.3-49.3-58.3-49.3-58.3-49.2
				L-58.3-49.2l0-0.1l0,0l0,0c0,0,0,0,0,0s0,0,0,0c0,0,0,0,0,0c0,0,0,0,0,0c0,0,0,0,0,0c0,0,0,0,0,0c0,0,0,0,0,0c0,0,0,0,0,0
				c0,0,0,0,0,0c0,0,0,0,0,0c0,0,0,0,0,0c0,0,0,0,0,0c0,0,0,0,0,0c0,0,0,0,0,0c0,0,0,0,0,0c0,0,0,0,0,0c0,0,0,0,0,0c0,0,0,0,0,0
				c0,0,0,0,0,0c0,0,0,0,0,0c0,0,0,0,0,0c0,0,0,0,0,0c0,0,0,0,0,0c0,0,0,0,0,0c0,0,0,0,0,0c0,0,0,0,0,0c0,0,0,0,0,0.1c0,0,0,0,0,0
				c0,0,0,0,0,0c0,0,0,0,0,0c0,0,0,0,0,0c0,0,0,0,0,0c0,0,0,0,0,0c0,0,0,0,0,0c0,0,0,0,0,0c0,0,0,0,0,0c0,0,0,0,0,0c0,0,0,0,0,0
				c0,0,0,0,0,0c0,0,0,0,0,0c0,0,0,0,0,0c0,0,0,0,0,0c0,0,0,0,0.1,0c0,0,0,0,0,0s0,0,0,0c0,0,0,0,0,0c0,0,0,0,0,0s0,0,0,0
				c0,0,0,0,0,0c0,0,0,0,0,0c0,0,0,0,0,0c0,0,0,0,0,0c0,0,0,0,0,0c0,0,0,0,0,0c0,0,0,0,0,0c0,0,0,0,0,0c0,0,0,0,0,0c0,0,0,0,0,0
				c0,0,0,0,0,0c0,0,0,0,0,0c0,0,0,0,0,0c0,0,0,0,0,0c0,0,0,0,0,0c0,0,0,0,0,0c0,0,0,0,0,0c0,0,0.1,0,0.1,0c0,0,0,0,0,0c0,0,0,0,0,0
				c0,0,0,0,0,0c0,0,0,0,0,0s0,0,0,0c0,0,0,0,0,0.1c0,0,0,0,0,0c0,0,0,0,0,0s0,0,0,0c0,0,0,0,0,0c0,0,0,0,0,0c0,0,0,0,0,0
				c0,0,0,0,0,0c0,0,0,0,0,0c0,0,0,0,0,0c0,0,0,0,0,0c0,0,0,0,0,0c0,0,0,0,0,0c0,0,0,0,0,0c0,0,0,0,0,0c0,0,0,0-0.1,0
				c0,0-0.1,0-0.1,0c0,0,0,0,0,0c0,0,0,0,0,0c0,0,0,0,0,0c0,0,0,0,0,0c0,0,0,0,0,0c0,0,0,0,0,0c0,0,0,0,0,0c0,0,0,0,0,0l0,0l0,0
				c0,0,0,0,0,0c0,0,0,0,0,0c0,0,0,0,0,0s0,0,0,0c0,0,0,0,0,0c0,0,0,0,0,0c0,0,0,0,0,0c0,0,0,0,0,0c0,0,0,0,0,0c0,0,0,0,0,0
				c0,0,0,0,0,0c0,0,0,0,0,0c0,0,0,0,0,0s0,0,0,0c0,0,0,0,0,0c0,0,0,0,0,0c0,0,0,0,0,0C-58.2-49.3-58.2-49.2-58.3-49.2
				C-58.2-49.2-58.3-49.2-58.3-49.2C-58.3-49.2-58.3-49.2-58.3-49.2C-58.3-49.2-58.3-49.2-58.3-49.2L-58.3-49.2z M-58.6-49.1
				L-58.6-49.1L-58.6-49.1C-58.6-49.1-58.6-49.1-58.6-49.1C-58.5-49.1-58.5-49.2-58.6-49.1C-58.5-49.2-58.5-49.2-58.6-49.1
				C-58.5-49.2-58.5-49.2-58.6-49.1c0.1-0.1,0.1-0.1,0.1-0.1c0,0,0,0,0-0.1c0,0,0,0,0,0c0,0,0,0,0,0c0,0,0,0,0,0c0,0,0,0,0,0
				c0,0,0,0,0,0c0,0,0,0,0,0c0,0,0,0,0,0c0,0,0,0,0,0c0,0,0,0,0,0c0,0,0,0,0,0c0,0,0,0,0,0c0,0,0,0.1,0,0.1
				C-58.5-49.2-58.5-49.2-58.6-49.1C-58.5-49.2-58.5-49.2-58.6-49.1C-58.5-49.1-58.5-49.1-58.6-49.1C-58.5-49.1-58.5-49.1-58.6-49.1
				C-58.5-49.1-58.5-49.1-58.6-49.1C-58.5-49.1-58.6-49.1-58.6-49.1L-58.6-49.1z M-58.8-49.1C-58.8-49.1-58.8-49.1-58.8-49.1
				C-58.8-49.2-58.8-49.2-58.8-49.1C-58.8-49.2-58.8-49.2-58.8-49.1C-58.7-49.2-58.7-49.2-58.8-49.1C-58.7-49.2-58.7-49.2-58.8-49.1
				C-58.7-49.2-58.7-49.2-58.8-49.1c0.1-0.1,0.1-0.1,0.1,0C-58.7-49.1-58.7-49.1-58.8-49.1C-58.7-49.1-58.7-49.1-58.8-49.1
				C-58.7-49.1-58.7-49.1-58.8-49.1C-58.7-49.2-58.7-49.2-58.8-49.1C-58.7-49.2-58.7-49.1-58.8-49.1C-58.7-49.1-58.7-49.1-58.8-49.1
				C-58.7-49.1-58.8-49.1-58.8-49.1C-58.8-49.1-58.8-49.1-58.8-49.1L-58.8-49.1z M-59-49.3C-59-49.3-59-49.3-59-49.3
				C-59-49.3-59-49.3-59-49.3C-59-49.3-59-49.3-59-49.3C-59-49.3-59-49.3-59-49.3C-59-49.3-59-49.3-59-49.3
				C-59-49.3-59-49.3-59-49.3L-59-49.3z M-59.1-49.2C-59.1-49.2-59.1-49.2-59.1-49.2L-59.1-49.2L-59.1-49.2
				C-59.1-49.3-59.1-49.3-59.1-49.2c-0.1-0.1-0.1-0.1-0.1-0.1c0,0,0,0,0,0c0,0,0,0,0,0c0,0-0.1,0-0.1,0c0,0,0,0,0,0c0,0,0,0,0,0
				c0,0,0,0,0,0c0,0,0,0,0,0c0,0,0,0,0.1,0C-59.2-49.3-59.2-49.3-59.1-49.2C-59.2-49.3-59.2-49.3-59.1-49.2L-59.1-49.2L-59.1-49.2
				C-59.2-49.2-59.2-49.2-59.1-49.2C-59.1-49.2-59.1-49.2-59.1-49.2C-59.1-49.2-59.1-49.2-59.1-49.2L-59.1-49.2z M-59.2-49.1
				C-59.2-49.1-59.2-49.1-59.2-49.1C-59.2-49.1-59.2-49.1-59.2-49.1C-59.2-49.2-59.2-49.2-59.2-49.1C-59.2-49.2-59.2-49.2-59.2-49.1
				c-0.1-0.1-0.1-0.1-0.2-0.1c0,0-0.1,0-0.1,0c-0.1,0-0.1,0-0.1,0c0,0,0,0,0,0c0,0,0,0,0,0c0,0,0,0,0,0c0,0,0,0,0,0c0,0,0,0,0,0
				c0,0,0,0,0,0c0,0,0,0,0,0c0,0-0.1,0-0.1,0c0,0,0,0,0,0c0,0,0,0,0,0c0,0,0,0,0,0c0,0,0,0,0,0c0,0,0,0,0,0c0,0,0,0,0,0c0,0,0,0,0,0
				c0,0,0,0,0,0c0,0,0,0,0,0c0,0,0,0,0,0c0,0,0,0,0,0c0,0,0,0,0,0c0,0,0,0,0,0c0,0,0,0,0,0c0,0,0,0,0,0c0,0,0,0,0,0.1c0,0,0,0,0,0
				c0,0,0,0,0,0c0,0,0,0,0,0c0,0,0,0,0,0c0,0,0,0,0,0c0,0,0,0,0,0c0,0,0,0,0,0c0,0,0,0,0,0c0,0,0,0,0,0s0,0,0,0c0,0,0,0,0,0
				c0,0,0,0,0,0c0,0,0,0,0,0c0,0,0,0,0,0c0,0,0,0,0,0c0,0,0,0,0.1,0c0.1,0,0.1,0,0.1,0c0,0,0,0,0,0c0,0,0,0,0,0c0,0,0,0,0,0l0,0l0,0
				c0,0,0,0,0,0c0,0,0,0,0,0c0,0,0,0,0,0c0,0,0,0,0,0c0,0,0,0,0,0c0,0,0,0,0,0s0,0,0,0c0,0,0,0,0,0c0,0,0,0,0,0c0,0,0,0,0,0
				c0,0,0,0,0,0c0,0,0,0,0,0s0,0,0,0l0,0l0,0l0,0l-0.1,0C-59-49.2-59.1-49.2-59.2-49.1C-59.1-49.2-59.1-49.2-59.2-49.1
				C-59.1-49.2-59.1-49.2-59.2-49.1C-59.1-49.2-59.1-49.2-59.2-49.1C-59.1-49.1-59.1-49.1-59.2-49.1C-59.1-49.1-59.1-49.1-59.2-49.1
				C-59.1-49.1-59.2-49.1-59.2-49.1C-59.2-49.1-59.2-49.1-59.2-49.1L-59.2-49.1z"/>
			<g>
				<path id="path140_00000081643759207251219220000018016193041851641732_" fill-rule="evenodd" fill="#FFFFFF" d="M-58.5-53.5
					c0,0,0-0.1,0-0.1c0.1,0.1,0.3,0.1,0.3,0.1c-0.2-0.1-0.3-0.5-0.3-0.9c0-0.4-0.1-0.5-0.1-0.6c-0.1-0.1-0.3-0.1-0.5-0.1
					c-0.1,0-0.1,0.1-0.1,0.1c-0.2,0-0.3-0.1-0.4,0c-0.1,0-0.1,0.3,0,0.2c0.1-0.1,0.2,0,0.3,0.1c0.1,0.1,0.1,0.3,0,0.6
					c-0.1,0.3-0.4,0.6-0.4,0.6c0.2,0,0.4-0.1,0.4-0.1l-0.1,0.2c0.2-0.1,0.3-0.2,0.3-0.2l0.2,0.1c0.1-0.1,0.2-0.1,0.2-0.1
					S-58.7-53.5-58.5-53.5L-58.5-53.5z"/>
				<path fill="#C09300" d="M-59.5-53.4l0.1-0.2c-0.1,0-0.2,0.1-0.3,0.1h-0.1l0,0c0,0,0.3-0.3,0.4-0.6c0.1-0.3,0.1-0.5,0-0.6
					c-0.1-0.1-0.2-0.2-0.3-0.1c0,0,0,0,0,0c0,0,0,0,0-0.1c0-0.1,0-0.2,0.1-0.2c0.1-0.1,0.3,0,0.4,0c0,0,0,0,0,0c0,0,0,0,0.1,0
					c0.2,0,0.4,0.1,0.5,0.1c0.1,0.1,0.1,0.2,0.1,0.6c0,0.4,0.1,0.8,0.3,0.9l0,0.1c0,0-0.2,0-0.3,0c0,0.1,0,0.1,0,0.1l0,0l0,0l0,0
					c-0.2,0-0.3-0.1-0.3-0.1c0,0-0.1,0.1-0.1,0.1l0,0l-0.2-0.1C-59.2-53.6-59.3-53.5-59.5-53.4L-59.5-53.4z M-59.4-53.7l-0.1,0.2
					c0.1-0.1,0.2-0.1,0.2-0.1l0,0l0.2,0.1c0.1-0.1,0.1-0.1,0.1-0.1l0,0l0,0c0,0,0.1,0.1,0.3,0.1c0,0,0-0.1,0-0.1l0,0
					c0,0,0.1,0,0.2,0.1c-0.1-0.2-0.2-0.5-0.2-0.8c0-0.4-0.1-0.5-0.1-0.5c-0.1-0.1-0.3-0.1-0.5-0.1c0,0,0,0,0,0c0,0,0,0,0,0l0,0l0,0
					c-0.2,0-0.3,0-0.4,0c0,0,0,0,0,0.1c0,0,0,0.1,0,0.1c0.1-0.1,0.2,0,0.3,0.1c0.1,0.1,0.1,0.4,0,0.7c-0.1,0.2-0.3,0.5-0.3,0.6
					C-59.6-53.6-59.4-53.7-59.4-53.7L-59.4-53.7z"/>
			</g>
			<path id="path142" fill-rule="evenodd" fill="#C09300" d="M-59.2-54.3C-59.2-54.3-59.2-54.3-59.2-54.3
				C-59.2-54.3-59.2-54.3-59.2-54.3c0,0.1,0,0.1,0,0.1c0,0.1,0,0.2-0.1,0.2c0,0.1-0.1,0.3-0.1,0.3l0,0c0.1-0.1,0.1-0.2,0.1-0.3
				c0-0.1,0-0.2,0.1-0.2C-59.2-54.3-59.2-54.3-59.2-54.3C-59.2-54.3-59.2-54.3-59.2-54.3C-59.2-54.3-59.2-54.3-59.2-54.3
				C-59.2-54.3-59.2-54.3-59.2-54.3L-59.2-54.3C-59.2-54.3-59.2-54.3-59.2-54.3z M-59.1-54.3C-59.1-54.3-59.1-54.3-59.1-54.3
				C-59.1-54.3-59.1-54.3-59.1-54.3c0,0.1,0,0.1,0,0.1c0,0.1,0,0.2,0,0.3c0,0.2,0,0.3-0.1,0.4l0,0c0-0.1,0.1-0.2,0.1-0.4
				c0-0.1,0-0.2,0-0.3C-59.1-54.2-59.1-54.3-59.1-54.3C-59.1-54.3-59.1-54.3-59.1-54.3C-59.1-54.3-59.1-54.3-59.1-54.3
				C-59.1-54.3-59.1-54.3-59.1-54.3L-59.1-54.3C-59.1-54.3-59.1-54.3-59.1-54.3z M-59-54.3C-59-54.3-59-54.3-59-54.3
				c0,0.1,0,0.1,0,0.1c0,0.1,0,0.2,0,0.3c0,0.2,0,0.3,0,0.4l0,0c0,0,0-0.2,0-0.4c0-0.1,0-0.2,0-0.3C-59-54.2-59-54.3-59-54.3
				C-59-54.3-59-54.3-59-54.3C-59-54.3-59-54.3-59-54.3C-59-54.3-59-54.3-59-54.3C-59-54.3-59-54.3-59-54.3z M-58.9-54.3
				C-58.9-54.3-58.9-54.3-58.9-54.3C-58.9-54.3-58.9-54.3-58.9-54.3c0,0.1,0,0.1,0,0.1c0,0.1,0,0.2,0.1,0.3c0,0.1,0.1,0.2,0.1,0.3
				l0,0c-0.1-0.1-0.1-0.2-0.1-0.3c0-0.1,0-0.2-0.1-0.3C-58.9-54.2-58.9-54.3-58.9-54.3C-58.9-54.3-58.9-54.3-58.9-54.3
				C-58.9-54.3-58.9-54.3-58.9-54.3C-58.9-54.3-58.9-54.3-58.9-54.3L-58.9-54.3C-58.9-54.3-58.9-54.3-58.9-54.3z M-59.8-55
				C-59.8-55-59.8-55-59.8-55c0.1-0.1,0.3-0.1,0.5-0.1c0,0,0-0.1,0.1-0.1c0.2,0,0.4,0.1,0.5,0.2c0,0,0,0.1,0.1,0.1h0
				c0-0.1-0.1-0.1-0.2-0.1c0,0-0.1,0-0.1,0c0,0-0.1,0-0.1,0c0,0,0,0.1-0.1,0.1c0,0,0,0,0,0c0,0,0,0,0,0c0,0-0.1,0-0.2-0.1
				c-0.1-0.1-0.1-0.1-0.2-0.1C-59.7-55-59.8-55-59.8-55L-59.8-55L-59.8-55z M-59.4-54.7c0-0.1,0-0.1,0-0.1c-0.1-0.1-0.2-0.2-0.3-0.1
				c0,0,0-0.1,0.1-0.1c0.1,0,0.3,0,0.4,0.3C-59.2-54.7-59.3-54.8-59.4-54.7C-59.4-54.7-59.4-54.7-59.4-54.7L-59.4-54.7z M-59.2-54.9
				C-59.1-54.9-59.1-54.9-59.2-54.9c0.1-0.1,0-0.1,0-0.1C-59.2-55-59.2-55-59.2-54.9C-59.2-54.9-59.2-54.9-59.2-54.9z"/>
		</g>
	</g>
</g>
</svg>
