<svg width="21" height="20" viewBox="0 0 21 20" fill="none" xmlns="http://www.w3.org/2000/svg">
<g clip-path="url(#clip0)">
<path d="M10.8823 20C16.4051 20 20.8823 15.5228 20.8823 10C20.8823 4.47715 16.4051 0 10.8823 0C5.35947 0 0.882324 4.47715 0.882324 10C0.882324 15.5228 5.35947 20 10.8823 20Z" fill="#0064DC"/>
<path d="M10.8823 3.91302L11.2061 4.90947H12.2538L11.4061 5.52529L11.7299 6.52174L10.8823 5.90588L10.0347 6.52174L10.3585 5.52529L9.51086 4.90947H10.5586L10.8823 3.91302Z" fill="#FFDA44"/>
<path d="M6.5781 5.69582L7.51169 6.17145L8.25251 5.43066L8.08857 6.46543L9.02212 6.94109L7.98732 7.105L7.82341 8.13984L7.34775 7.20629L6.31298 7.37023L7.0538 6.62941L6.5781 5.69582Z" fill="#FFDA44"/>
<path d="M4.79541 9.99997L5.79185 9.67618V8.62848L6.40763 9.47614L7.40412 9.15235L6.78822 9.99997L7.40412 10.8476L6.40763 10.5238L5.79185 11.3715V10.3238L4.79541 9.99997Z" fill="#FFDA44"/>
<path d="M6.5781 14.3041L7.05377 13.3705L6.31298 12.6297L7.34779 12.7937L7.82337 11.8601L7.98732 12.8949L9.02209 13.0588L8.08865 13.5345L8.25252 14.5692L7.5117 13.8284L6.5781 14.3041Z" fill="#FFDA44"/>
<path d="M10.8823 16.0869L10.5585 15.0905H9.51086L10.3585 14.4746L10.0347 13.4783L10.8823 14.0941L11.7299 13.4783L11.4061 14.4746L12.2538 15.0905H11.2061L10.8823 16.0869Z" fill="#FFDA44"/>
<path d="M15.1865 14.3041L14.2529 13.8285L13.5121 14.5693L13.676 13.5344L12.7425 13.0588L13.7773 12.8949L13.9412 11.8601L14.4168 12.7937L15.4516 12.6297L14.7108 13.3706L15.1865 14.3041Z" fill="#FFDA44"/>
<path d="M16.9693 9.99997L15.9729 10.3238V11.3715L15.3571 10.5238L14.3607 10.8476L14.9765 9.99997L14.3607 9.15235L15.3571 9.47614L15.9729 8.62848V9.67622L16.9693 9.99997Z" fill="#FFDA44"/>
<path d="M15.1865 5.69584L14.7108 6.62944L15.4516 7.37026L14.4168 7.20627L13.9412 8.13983L13.7773 7.10502L12.7425 6.94108L13.676 6.46545L13.5121 5.43073L14.253 6.17151L15.1865 5.69584Z" fill="#FFDA44"/>
</g>
<defs>
<clipPath id="clip0">
<rect width="20" height="20" fill="white" transform="translate(0.882324)"/>
</clipPath>
</defs>
</svg>
