<svg width="21" height="20" viewBox="0 0 21 20" fill="none" xmlns="http://www.w3.org/2000/svg">
<g clip-path="url(#clip0)">
<path d="M10.8823 20C16.4051 20 20.8823 15.5228 20.8823 10C20.8823 4.47715 16.4051 0 10.8823 0C5.35947 0 0.882324 4.47715 0.882324 10C0.882324 15.5228 5.35947 20 10.8823 20Z" fill="#F0F0F0"/>
<path d="M2.9495 3.91187C2.16399 4.93386 1.57169 6.11179 1.22681 7.39144H6.42907L2.9495 3.91187Z" fill="#0052B4"/>
<path d="M20.5377 7.39146C20.1929 6.11185 19.6005 4.93392 18.815 3.91193L15.3355 7.39146H20.5377Z" fill="#0052B4"/>
<path d="M1.22681 12.6088C1.57173 13.8884 2.16403 15.0664 2.9495 16.0883L6.42895 12.6088H1.22681Z" fill="#0052B4"/>
<path d="M16.9705 2.06728C15.9485 1.28177 14.7706 0.689465 13.4909 0.344543V5.54677L16.9705 2.06728Z" fill="#0052B4"/>
<path d="M4.79406 17.9328C5.81606 18.7183 6.99399 19.3106 8.27359 19.6556V14.4534L4.79406 17.9328Z" fill="#0052B4"/>
<path d="M8.27355 0.344543C6.99395 0.689465 5.81602 1.28177 4.79406 2.06724L8.27355 5.54673V0.344543Z" fill="#0052B4"/>
<path d="M13.4909 19.6556C14.7706 19.3106 15.9485 18.7183 16.9704 17.9329L13.4909 14.4534V19.6556Z" fill="#0052B4"/>
<path d="M15.3355 12.6088L18.815 16.0884C19.6005 15.0664 20.1929 13.8884 20.5377 12.6088H15.3355Z" fill="#0052B4"/>
<path d="M20.7977 8.69566H12.1867V0.0846484C11.7597 0.0290625 11.3244 0 10.8823 0C10.4402 0 10.0049 0.0290625 9.57798 0.0846484V8.69559L0.966973 8.69563C0.911387 9.12262 0.882324 9.55793 0.882324 10C0.882324 10.4421 0.911387 10.8774 0.966973 11.3043H9.57791L9.57795 19.9154C10.0049 19.9709 10.4402 20 10.8823 20C11.3244 20 11.7597 19.971 12.1866 19.9154V11.3044H20.7977C20.8532 10.8774 20.8823 10.4421 20.8823 10C20.8823 9.55793 20.8532 9.12262 20.7977 8.69566Z" fill="#D80027"/>
<path d="M13.4912 12.6087L17.9535 17.0711C18.1587 16.8659 18.3545 16.6514 18.5413 16.4291L14.7209 12.6087H13.4912Z" fill="#D80027"/>
<path d="M8.27365 12.6088V13.8384L4.45327 17.6589C4.23092 17.4721 4.01643 17.2763 3.81128 17.0711L8.27365 12.6088Z" fill="#D80027"/>
<path d="M8.27378 7.39134L3.81144 2.92896C3.6062 3.13411 3.41042 3.3486 3.22363 3.57095L7.04406 7.39138L8.27378 7.39134Z" fill="#D80027"/>
<path d="M17.9535 2.9289L13.4912 7.39132V6.16156L17.3116 2.34113C17.5339 2.52788 17.7484 2.72366 17.9535 2.9289Z" fill="#D80027"/>
</g>
<defs>
<clipPath id="clip0">
<rect width="20" height="20" fill="white" transform="translate(0.882324)"/>
</clipPath>
</defs>
</svg>
