<svg width="21" height="20" viewBox="0 0 21 20" fill="none" xmlns="http://www.w3.org/2000/svg">
<g clip-path="url(#clip0)">
<path d="M10.8823 20C16.4051 20 20.8823 15.5228 20.8823 10C20.8823 4.47715 16.4051 0 10.8823 0C5.35947 0 0.882324 4.47715 0.882324 10C0.882324 15.5228 5.35947 20 10.8823 20Z" fill="#F0F0F0"/>
<path d="M14.6476 7.82613H12.1374L10.8823 5.65222L9.62726 7.82613H7.11695L8.37218 10L7.11695 12.1739H9.62726L10.8823 14.3478L12.1374 12.1739H14.6476L13.3924 10L14.6476 7.82613ZM12.4243 10L11.6533 11.3355H10.1114L9.34031 10L10.1113 8.66457H11.6533L12.4243 10ZM10.8823 7.32906L11.1692 7.82609H10.5954L10.8823 7.32906ZM8.56925 8.66457H9.14316L8.85621 9.1616L8.56925 8.66457ZM8.56925 11.3355L8.85625 10.8385L9.1432 11.3355H8.56925ZM10.8823 12.671L10.5954 12.1739H11.1692L10.8823 12.671ZM13.1953 11.3355H12.6214L12.9084 10.8385L13.1953 11.3355ZM12.6214 8.66457H13.1953L12.9084 9.1616L12.6214 8.66457Z" fill="#0052B4"/>
<path d="M17.1072 2.17395H4.65749C3.74487 2.90083 2.96221 3.78372 2.3501 4.78266H19.4146C18.8025 3.78375 18.0198 2.90083 17.1072 2.17395Z" fill="#0052B4"/>
<path d="M4.65749 17.8262H17.1072C18.0198 17.0993 18.8025 16.2164 19.4146 15.2175H2.3501C2.96225 16.2164 3.74491 17.0993 4.65749 17.8262Z" fill="#0052B4"/>
</g>
<defs>
<clipPath id="clip0">
<rect width="20" height="20" fill="white" transform="translate(0.882324)"/>
</clipPath>
</defs>
</svg>
