<svg width="21" height="20" viewBox="0 0 21 20" fill="none" xmlns="http://www.w3.org/2000/svg">
<g clip-path="url(#clip0)">
<path d="M10.8823 20C16.4051 20 20.8823 15.5228 20.8823 10C20.8823 4.47715 16.4051 0 10.8823 0C5.35947 0 0.882324 4.47715 0.882324 10C0.882324 15.5228 5.35947 20 10.8823 20Z" fill="#F0F0F0"/>
<path d="M14.3605 9.99997C14.3605 10.8695 12.8032 13.0434 10.8823 13.0434C8.96131 13.0434 7.40405 10.8695 7.40405 9.99997C7.40405 8.07895 8.96131 6.52173 10.8823 6.52173C12.8032 6.52173 14.3605 8.07895 14.3605 9.99997Z" fill="#D80027"/>
<path d="M14.3605 10C14.3605 11.921 12.8032 13.4782 10.8823 13.4782C8.96131 13.4782 7.40405 11.921 7.40405 10" fill="#0052B4"/>
<path d="M15.4937 12.1521L14.5714 13.0744L15.1863 13.6893L16.1086 12.767L15.4937 12.1521Z" fill="black"/>
<path d="M13.9563 13.6894L13.034 14.6117L13.6489 15.2266L14.5712 14.3043L13.9563 13.6894Z" fill="black"/>
<path d="M17.3387 13.9963L16.4164 14.9186L17.0312 15.5335L17.9535 14.6112L17.3387 13.9963Z" fill="black"/>
<path d="M15.8013 15.5339L14.879 16.4562L15.4939 17.071L16.4162 16.1488L15.8013 15.5339Z" fill="black"/>
<path d="M16.4162 13.0743L15.4939 13.9966L16.1087 14.6115L17.031 13.6892L16.4162 13.0743Z" fill="black"/>
<path d="M14.8791 14.6116L13.9568 15.5339L14.5716 16.1487L15.4939 15.2265L14.8791 14.6116Z" fill="black"/>
<path d="M13.9571 4.46589L16.4166 6.92535L17.0315 6.31048L14.572 3.85101L13.9571 4.46589Z" fill="black"/>
<path d="M13.0348 5.38856L13.9571 6.31085L14.572 5.69601L13.6497 4.77371L13.0348 5.38856Z" fill="black"/>
<path d="M14.5717 6.92561L15.494 7.8479L16.1088 7.23306L15.1865 6.31076L14.5717 6.92561Z" fill="black"/>
<path d="M14.8786 3.54395L15.8009 4.46625L16.4158 3.85137L15.4935 2.92908L14.8786 3.54395Z" fill="black"/>
<path d="M16.4163 5.08118L17.3386 6.00348L17.9535 5.38861L17.0312 4.46631L16.4163 5.08118Z" fill="black"/>
<path d="M6.88562 16.4563L4.42615 13.9968L3.81128 14.6117L6.27075 17.0712L6.88562 16.4563Z" fill="black"/>
<path d="M7.8078 15.5337L6.8855 14.6114L6.27066 15.2262L7.19295 16.1485L7.8078 15.5337Z" fill="black"/>
<path d="M6.27069 13.9966L5.34839 13.0743L4.73352 13.6892L5.65582 14.6115L6.27069 13.9966Z" fill="black"/>
<path d="M8.73022 14.6115L6.27076 12.152L5.65589 12.7669L8.11535 15.2264L8.73022 14.6115Z" fill="black"/>
<path d="M4.42616 6.00323L6.88563 3.54376L6.27075 2.92889L3.81129 5.38836L4.42616 6.00323Z" fill="black"/>
<path d="M5.34816 6.92529L7.80762 4.46582L7.19275 3.85095L4.73329 6.31041L5.34816 6.92529Z" fill="black"/>
<path d="M6.27101 7.84802L8.73047 5.38855L8.11563 4.7737L5.65616 7.23317L6.27101 7.84802Z" fill="black"/>
</g>
<defs>
<clipPath id="clip0">
<rect width="20" height="20" fill="white" transform="translate(0.882324)"/>
</clipPath>
</defs>
</svg>
