<?xml version="1.0" encoding="utf-8"?>
<!-- Generator: Adobe Illustrator 27.4.1, SVG Export Plug-In . SVG Version: 6.00 Build 0)  -->
<svg version="1.2" baseProfile="tiny" id="Layer_1" xmlns="http://www.w3.org/2000/svg" xmlns:xlink="http://www.w3.org/1999/xlink"
	 x="0px" y="0px" viewBox="0 0 21 20" overflow="visible" xml:space="preserve">
<g id="Page-1_00000039843601925063603300000004923840922054384782_">
	<g id="circle_kuwait">
		<ellipse id="Rectangle-3-copy-2" fill-rule="evenodd" fill="#FFFFFF" cx="10.9" cy="10" rx="10" ry="10"/>
		<path id="Rectangle-3-copy-3" fill-rule="evenodd" fill="#CA4638" d="M20.3,13.3H6.4L2.2,15c1.7,3,5,5,8.7,5
			C15.2,20,18.9,17.2,20.3,13.3L20.3,13.3z"/>
		<path id="Rectangle-3-copy-3_00000134207486761625008570000017454052896837271173_" fill-rule="evenodd" fill="#479951" d="
			M20.3,6.7H6.4L2.2,5c1.7-3,5-5,8.7-5C15.2,0,18.9,2.8,20.3,6.7L20.3,6.7z"/>
		<path id="Triangle-15-copy" fill-rule="evenodd" fill="#262626" d="M2.2,5l4.2,1.7v6.7L2.2,15c-0.9-1.5-1.3-3.2-1.3-5
			S1.4,6.5,2.2,5z"/>
	</g>
</g>
</svg>
