<?xml version="1.0" encoding="utf-8"?>
<!-- Generator: Adobe Illustrator 27.4.1, SVG Export Plug-In . SVG Version: 6.00 Build 0)  -->
<svg version="1.2" baseProfile="tiny" id="Layer_1" xmlns="http://www.w3.org/2000/svg" xmlns:xlink="http://www.w3.org/1999/xlink"
	 x="0px" y="0px" viewBox="0 0 21 20" overflow="visible" xml:space="preserve">
<g>
	<path fill="#00ABC2" d="M9.2,15.9C9.2,15.9,9.2,15.9,9.2,15.9C9.2,15.9,9.2,16,9.2,15.9C9.3,16,9.3,16,9.2,15.9
		C9.2,16,9.2,15.9,9.2,15.9C9.2,15.9,9.2,15.8,9.2,15.9c0.1,0,0.1,0,0.1,0c0,0,0,0,0,0C9.3,15.9,9.3,15.8,9.2,15.9
		C9.3,15.8,9.3,15.8,9.2,15.9C9.2,15.8,9.2,15.9,9.2,15.9z"/>
	<path fill="#00ABC2" d="M10.9,0c-5.5,0-10,4.5-10,10s4.5,10,10,10s10-4.5,10-10S16.4,0,10.9,0z M10.8,11.7c-1.9,0-3.4-1.5-3.4-3.4
		c0-1.9,1.5-3.4,3.4-3.4c1.9,0,3.4,1.5,3.4,3.4C14.2,10.1,12.7,11.7,10.8,11.7z M11.8,13.5c0,0-0.5-0.9-0.5-1.1c0-0.1,0-0.3,0.2-0.3
		c0.2,0,0.3,0.1,0.3,0.2C11.9,12.5,11.8,13.5,11.8,13.5z M11.1,12.4c0,0.2-0.3,1.2-0.3,1.2s-0.3-1-0.3-1.2c0-0.2,0.1-0.3,0.3-0.3
		C11,12.1,11.1,12.3,11.1,12.4z M10.3,12.4c0,0.2-0.5,1.1-0.5,1.1s-0.1-1,0-1.2c0-0.1,0.1-0.3,0.3-0.2
		C10.2,12.1,10.3,12.2,10.3,12.4z M6.8,9.6c0.1-0.1,0.3,0,0.4,0.2c0.1,0.2,0,0.3-0.2,0.4c-0.2,0.1-1.2,0.2-1.2,0.2S6.6,9.7,6.8,9.6z
		 M5.5,9.3c0,0,0.9-0.5,1.1-0.5c0.1,0,0.3,0,0.3,0.2c0,0.2-0.1,0.3-0.2,0.3C6.6,9.4,5.5,9.3,5.5,9.3z M7.2,10.3
		c0.1-0.1,0.3-0.1,0.4,0.1c0.1,0.2,0,0.3-0.1,0.4c-0.2,0.1-1.1,0.4-1.1,0.4S7,10.4,7.2,10.3z M7.6,11c0.1-0.1,0.3-0.1,0.4,0
		c0.1,0.1,0.1,0.3,0,0.4C7.9,11.5,7,12,7,12S7.5,11.1,7.6,11z M8.2,11.6c0.1-0.1,0.2-0.2,0.4-0.1c0.2,0.1,0.2,0.3,0.1,0.4
		c-0.1,0.2-0.9,0.8-0.9,0.8S8.1,11.7,8.2,11.6z M8.9,12c0.1-0.1,0.2-0.2,0.4-0.2c0.2,0.1,0.2,0.2,0.2,0.4c-0.1,0.2-0.7,1-0.7,1
		S8.9,12.2,8.9,12z M12.3,11.8c0.2-0.1,0.3,0,0.4,0.2c0.1,0.2,0.2,1.2,0.2,1.2s-0.6-0.8-0.7-1C12.1,12.1,12.1,11.9,12.3,11.8z
		 M13,11.5c0.2-0.1,0.3,0,0.4,0.1c0.1,0.2,0.4,1.1,0.4,1.1S13,12,12.9,11.9C12.8,11.7,12.8,11.6,13,11.5z M13.6,11.4
		c-0.1-0.1-0.1-0.3,0-0.4c0.1-0.1,0.3-0.1,0.4,0c0.1,0.1,0.6,1,0.6,1S13.7,11.5,13.6,11.4z M14.1,10.8c-0.1-0.1-0.2-0.2-0.1-0.4
		c0.1-0.2,0.3-0.2,0.4-0.1c0.2,0.1,0.8,0.9,0.8,0.9S14.3,10.9,14.1,10.8z M14.5,10.1c-0.1-0.1-0.2-0.2-0.2-0.4
		c0.1-0.2,0.2-0.2,0.4-0.2c0.2,0.1,1,0.7,1,0.7S14.7,10.2,14.5,10.1z M14.8,9.3c-0.1,0-0.3-0.1-0.2-0.3c0-0.2,0.2-0.2,0.3-0.2
		c0.2,0,1.1,0.5,1.1,0.5S15,9.4,14.8,9.3z M15,8.5c-0.2,0-0.3-0.1-0.3-0.3C14.7,8,14.8,8,15,8c0.2,0,1.2,0.3,1.2,0.3
		S15.2,8.5,15,8.5z M14.9,7.7c-0.1,0-0.3,0-0.3-0.2c0-0.2,0.1-0.3,0.2-0.3c0.2,0,1.2,0,1.2,0S15.1,7.7,14.9,7.7z M14.8,6.9
		c-0.1,0.1-0.3,0-0.4-0.2c-0.1-0.2,0-0.3,0.2-0.4c0.2-0.1,1.2-0.2,1.2-0.2S14.9,6.8,14.8,6.9z M14.4,6.1c-0.1,0.1-0.3,0.1-0.4-0.1
		c-0.1-0.2,0-0.3,0.1-0.4c0.2-0.1,1.1-0.4,1.1-0.4S14.6,6,14.4,6.1z M13.9,5.5c-0.1,0.1-0.3,0.1-0.4,0c-0.1-0.1-0.1-0.3,0-0.4
		c0.1-0.1,1-0.6,1-0.6S14.1,5.3,13.9,5.5z M13.8,3.8c0,0-0.3,1-0.4,1.1C13.3,5,13.1,5.1,13,5c-0.2-0.1-0.2-0.3-0.1-0.4
		C13,4.4,13.8,3.8,13.8,3.8z M12.1,4.3c0.1-0.2,0.7-1,0.7-1s-0.1,1-0.2,1.2c-0.1,0.1-0.2,0.2-0.4,0.2C12.1,4.6,12.1,4.4,12.1,4.3z
		 M11.8,3c0,0,0.1,1,0,1.2c0,0.1-0.1,0.3-0.3,0.2c-0.2,0-0.2-0.2-0.2-0.3C11.4,3.9,11.8,3,11.8,3z M10.8,2.9c0,0,0.3,1,0.3,1.2
		c0,0.2-0.1,0.3-0.3,0.3c-0.2,0-0.3-0.1-0.3-0.3C10.5,3.9,10.8,2.9,10.8,2.9z M9.8,3c0,0,0.5,0.9,0.5,1.1c0,0.1,0,0.3-0.2,0.3
		c-0.2,0-0.3-0.1-0.3-0.2C9.7,4,9.8,3,9.8,3z M9.5,4.3c0.1,0.1,0,0.3-0.2,0.4C9.1,4.7,9,4.6,8.9,4.5C8.9,4.3,8.7,3.3,8.7,3.3
		S9.4,4.1,9.5,4.3z M8.7,4.6C8.8,4.7,8.8,4.9,8.6,5C8.5,5.1,8.3,5,8.2,4.9C8.1,4.7,7.8,3.8,7.8,3.8S8.6,4.4,8.7,4.6z M8,5.1
		c0.1,0.1,0.1,0.3,0,0.4c-0.1,0.1-0.3,0.1-0.4,0C7.5,5.3,7,4.5,7,4.5S7.9,4.9,8,5.1z M7.5,5.7c0.1,0.1,0.2,0.2,0.1,0.4
		C7.4,6.2,7.3,6.2,7.2,6.1C7,6,6.3,5.3,6.3,5.3S7.3,5.6,7.5,5.7z M7,6.4c0.1,0.1,0.2,0.2,0.2,0.4C7.1,6.9,7,7,6.8,6.9
		c-0.2-0.1-1-0.7-1-0.7S6.9,6.3,7,6.4z M6.8,7.1C6.9,7.2,7,7.3,7,7.5c0,0.2-0.2,0.2-0.3,0.2c-0.2,0-1.1-0.5-1.1-0.5S6.6,7.1,6.8,7.1
		z M6.6,8C6.8,8,6.9,8,6.9,8.2c0,0.2-0.1,0.3-0.3,0.3c-0.2,0-1.2-0.3-1.2-0.3S6.4,8,6.6,8z M4.7,12.1c-0.1,0-0.3,0-0.3,0
		c0.1,0.2,0.3,0.4,0.5,0.5c-0.1,0-0.3,0-0.3,0C4.7,12.8,4.9,13,5.2,13c0.1,0.1-0.1,0.2,0,0.3c0.1,0,0.3,0.1,0.1,0.1
		c-0.1,0.1-0.1,0.2,0.1,0.2c0.1,0,0.3,0.1,0.3,0.1C5.6,13.9,5.4,14,5.6,14c0.2,0.1,0.4,0.2,0.6,0.2c-0.1,0.1-0.2,0.1-0.3,0.2
		c0.5,0.3,1,0.5,1.5,0.6c0.2,0.1,0.4,0.1,0.6,0.2c-0.6,0-1.2-0.2-1.8-0.5c-0.3-0.1-0.6-0.3-0.9-0.4c0.1-0.1,0.3-0.1,0.4-0.1
		c-0.3-0.1-0.6-0.1-0.8-0.2c0-0.1,0.2-0.1,0.3-0.1c0.2,0,0.2-0.1,0-0.1c-0.2-0.1-0.5,0-0.6-0.2c0-0.1,0.2-0.1,0.3-0.1
		c0.1,0,0.2,0,0.3-0.1c-0.3-0.1-0.8,0-1-0.3c-0.1-0.1,0.2,0,0.3,0c0.2,0,0.4,0.1,0.5,0c-0.5-0.2-1-0.4-1.4-0.8
		c0-0.1-0.2-0.2-0.1-0.3c0.3,0,0.5,0.4,0.8,0.3c0-0.1-0.2-0.1-0.2-0.2c-0.4-0.4-0.9-0.8-1.2-1.3c0-0.2,0.2-0.2,0.3-0.1
		c0.3,0.3,0.6,0.7,1.1,0.9c0.2,0.1-0.1-0.1-0.1-0.1c-0.4-0.5-0.8-0.9-1-1.5c0-0.1-0.1-0.3,0-0.3c0.1-0.1,0.3,0,0.4,0.2
		C3.7,10.3,4,10.7,4.3,11C4,10.4,3.7,9.8,3.7,9.1c0-0.1,0-0.3,0.2-0.3C4,8.7,4,8.9,4,9c0.1,0.5,0.2,1,0.5,1.5
		c-0.1-0.4-0.2-0.8-0.1-1.1c0-0.1,0.2-0.2,0.2-0.1c0.1,0.2,0.1,0.4,0.2,0.6c0.4,1.3,1.2,2.5,2.4,3.2c0.9,0.6,2,1,3.1,1.1
		c0.1,0,0.2,0,0.3,0l0,0c-0.1,0.2-0.1,0.3-0.3,0.5c-0.3-0.3-0.8-0.3-1.3-0.3c-0.4,0-0.8-0.1-1-0.3c-0.3-0.2-0.5-0.6-0.9-0.7
		c-0.3-0.1-0.6-0.2-0.8-0.4c-0.5-0.4-0.8-1-1.3-1.5c-0.1-0.1-0.2-0.2-0.3-0.2c-0.1,0-0.1,0.2-0.2,0.1c-0.1,0-0.2-0.1-0.3,0
		C4.5,11.6,4.6,11.8,4.7,12.1z M8.9,16.4C8.8,16.4,8.9,16.4,8.9,16.4c0-0.1,0-0.1,0-0.1c-0.1,0-0.1,0-0.2,0.1c0,0,0,0.1,0,0.1
		c0-0.1,0-0.1,0-0.2c0,0,0-0.1,0-0.1C8.7,16,8.8,16,8.9,15.9c0,0,0,0,0.1,0c0,0,0,0,0.1,0c0,0,0,0,0.1,0c0,0,0,0,0.1,0
		c0,0,0,0,0.1,0c0,0,0,0,0.1,0c0,0,0,0,0.1,0c0,0,0,0,0.1,0c0,0,0,0,0-0.1c0,0,0,0,0-0.1c0,0,0,0,0-0.1l0.1,0l0,0
		c0.1,0,0.2-0.1,0.4-0.1c0.1,0,0.2,0,0.3,0c-0.1,0.1-0.2,0.1-0.3,0.2c0.1,0,0.1,0,0.2,0C10,16,9.9,16,9.9,16.1c0.1,0,0.2,0.1,0.3,0
		c0.1,0,0.1,0,0.2,0c0,0,0.1,0,0.1,0c0.1,0.1,0.3,0.1,0.4,0.1h0.5c0.1,0,0.1,0,0.2,0c0,0-0.1,0-0.1,0c-0.1,0-0.2,0-0.4,0l-0.8,0
		c-0.3,0-0.5,0-0.8,0C9.2,16.3,9,16.3,8.9,16.4z M14.6,16.2c-0.1,0-0.3-0.3-0.3-0.1c0,0.1,0,0.3-0.1,0.4v0c-0.2,0.1-0.3-0.1-0.5-0.1
		c-0.1,0.1-0.1,0.3-0.2,0.4c-0.1,0.1-0.3,0-0.3-0.2C13,16.7,13,17,12.7,16.9c-0.1-0.1-0.2-0.3-0.3-0.1c-0.1,0.1-0.3,0.3-0.4,0.1
		c0-0.1-0.1-0.3-0.2-0.1c-0.1,0.2-0.2,0.3-0.4,0.2c-0.1-0.1,0.1-0.3,0-0.3c-0.2,0.1-0.3,0.4-0.5,0.4c-0.1-0.1,0.1-0.3,0-0.4
		c-0.1,0.2-0.3,0.4-0.5,0.4c-0.1-0.1,0-0.3-0.1-0.4c-0.2,0.1-0.4,0.4-0.7,0.3c0.1-0.4,0.5-0.5,0.9-0.6c0.6-0.1,1.3,0.1,1.9-0.2
		c0.1-0.1,0.3-0.1,0.3-0.3C12.7,15.9,13,16,13,15.9c0-0.2,0.1-0.1,0.3-0.2c0.6,0,1.2,0.1,1.9,0.1C15.2,16.1,14.8,16.3,14.6,16.2z
		 M18.5,9.8c0.1,0.2-0.1,0.4-0.2,0.5c-0.3,0.5-0.7,1-1.1,1.4c0.5-0.2,0.8-0.6,1.1-1c0.1-0.1,0.3-0.1,0.3,0.1
		c-0.4,0.6-0.9,1.1-1.5,1.5c0.3,0.1,0.5-0.2,0.7-0.3c0.2-0.1,0.1,0.2,0,0.2c-0.2,0.4-0.7,0.5-1,0.8c-0.2,0.1-0.1,0.2,0.1,0.1
		c0.1,0,0.4-0.1,0.3,0.1c-0.3,0.2-0.7,0.2-1,0.4c0.2,0.1,0.4,0,0.6,0.1c-0.2,0.2-0.5,0.2-0.8,0.3c-0.2,0-0.2,0.1,0,0.1
		c0.1,0,0.3,0,0.3,0.1c-0.3,0.1-0.7,0-1,0.2c0,0.1,0.2,0.1,0.3,0.2c0.2,0.1-0.2,0.2-0.2,0.2c-0.5,0.3-1.2,0.5-1.8,0.4
		c0.5-0.1,1-0.3,1.4-0.6c0.2-0.1,0.1-0.2,0.1-0.4c0.1,0,0.3,0,0.4-0.1c-0.2-0.1,0-0.2,0.1-0.2c0.1,0,0.3-0.1,0.2-0.2
		c0-0.1,0.2-0.2,0.3-0.2c0.2-0.1,0.2-0.1,0-0.1c0.2-0.2,0.5-0.3,0.7-0.5c0.2-0.1-0.2-0.1-0.2-0.1c0.2-0.2,0.4-0.3,0.4-0.6
		c-0.2,0-0.3,0.1-0.4,0.1c0.2-0.2,0.3-0.4,0.3-0.7c-0.2,0-0.5,0-0.6,0.1c-0.4,0.2-0.8,0.6-1,1c0,0.1-0.1,0.3-0.3,0.3
		c-0.7,0.4-1.5,0.6-1.9,1.2c-0.6,0.2-1.3,0.1-1.9,0.3c-0.3,0.1-0.5,0.3-0.8,0.5c-0.4,0.3-0.7,0.5-1.2,0.7c0,0,0,0.1,0,0.1
		C9.4,16,9.3,16,9.2,16c-0.1,0-0.1,0-0.1-0.1C9.1,16,9,16,8.9,15.9h0c0,0,0-0.1,0-0.1c0.2-0.3,0.5-0.3,0.8-0.4
		c0.6-0.2,0.9-0.8,1.4-1.2c0.2-0.1,0.4,0,0.6-0.1c0.8-0.1,1.5-0.4,2.2-0.7c1.5-0.8,2.6-2.3,2.9-4c0-0.2,0.2-0.2,0.3-0.1
		c0.1,0.4,0,0.8-0.1,1.2c0.3-0.4,0.3-0.9,0.5-1.4c0.1-0.1,0-0.3,0.2-0.4c0.2,0,0.2,0.2,0.2,0.3c0,0.7-0.3,1.3-0.6,1.9
		c0.4-0.3,0.6-0.7,0.8-1.1C18.2,9.7,18.4,9.6,18.5,9.8z"/>
	<circle fill="#FFEC2D" cx="10.8" cy="8.2" r="3.4"/>
	<path fill="#FFEC2D" d="M10.8,4.3c0.2,0,0.3-0.1,0.3-0.3c0-0.2-0.3-1.2-0.3-1.2s-0.3,1-0.3,1.2C10.5,4.2,10.6,4.3,10.8,4.3z"/>
	<path fill="#FFEC2D" d="M15,8c-0.2,0-0.3,0.1-0.3,0.3c0,0.2,0.1,0.3,0.3,0.3c0.2,0,1.2-0.3,1.2-0.3S15.2,8,15,8z"/>
	<path fill="#FFEC2D" d="M10.5,12.4c0,0.2,0.3,1.2,0.3,1.2s0.3-1,0.3-1.2c0-0.2-0.1-0.3-0.3-0.3C10.6,12.1,10.5,12.3,10.5,12.4z"/>
	<path fill="#FFEC2D" d="M6.9,8.2C6.9,8,6.8,8,6.6,8C6.4,8,5.4,8.2,5.4,8.2s1,0.3,1.2,0.3C6.8,8.5,6.9,8.4,6.9,8.2z"/>
	<path fill="#FFEC2D" d="M12.3,4.6c0.2,0.1,0.3,0,0.4-0.2c0.1-0.2,0.2-1.2,0.2-1.2s-0.6,0.8-0.7,1C12.1,4.4,12.1,4.6,12.3,4.6z"/>
	<path fill="#FFEC2D" d="M14.8,9.6c-0.1-0.1-0.3,0-0.4,0.2c-0.1,0.2,0,0.3,0.2,0.4c0.2,0.1,1.2,0.2,1.2,0.2S14.9,9.7,14.8,9.6z"/>
	<path fill="#FFEC2D" d="M9.3,11.8c-0.2-0.1-0.3,0-0.4,0.2c-0.1,0.2-0.2,1.2-0.2,1.2s0.6-0.8,0.7-1C9.5,12.1,9.5,11.9,9.3,11.8z"/>
	<path fill="#FFEC2D" d="M7.2,6.7c0.1-0.2,0-0.3-0.2-0.4C6.9,6.3,5.9,6.2,5.9,6.2s0.8,0.6,1,0.7C7,7,7.1,6.9,7.2,6.7z"/>
	<path fill="#FFEC2D" d="M13.5,5.5c0.1,0.1,0.3,0.1,0.4,0c0.1-0.1,0.6-1,0.6-1s-0.9,0.5-1,0.6C13.4,5.2,13.4,5.3,13.5,5.5z"/>
	<path fill="#FFEC2D" d="M13.9,11c-0.1-0.1-0.3-0.1-0.4,0c-0.1,0.1-0.1,0.3,0,0.4c0.1,0.1,1,0.6,1,0.6S14.1,11.1,13.9,11z"/>
	<path fill="#FFEC2D" d="M8,11c-0.1-0.1-0.3-0.1-0.4,0C7.5,11.1,7,12,7,12s0.9-0.5,1-0.6C8.1,11.3,8.2,11.1,8,11z"/>
	<path fill="#FFEC2D" d="M8,5.5c0.1-0.1,0.1-0.3,0-0.4C7.9,4.9,7,4.5,7,4.5s0.5,0.9,0.6,1C7.8,5.6,7.9,5.6,8,5.5z"/>
	<path fill="#FFEC2D" d="M14.4,6.7c0.1,0.2,0.2,0.2,0.4,0.2c0.2-0.1,1-0.7,1-0.7s-1,0.1-1.2,0.2C14.4,6.4,14.3,6.6,14.4,6.7z"/>
	<path fill="#FFEC2D" d="M12.8,13.2c0,0-0.1-1-0.2-1.2c-0.1-0.1-0.2-0.2-0.4-0.2c-0.2,0.1-0.2,0.2-0.2,0.4
		C12.2,12.4,12.8,13.2,12.8,13.2z"/>
	<path fill="#FFEC2D" d="M7.2,9.7C7.1,9.5,7,9.5,6.8,9.6c-0.2,0.1-1,0.7-1,0.7s1-0.1,1.2-0.2C7.2,10,7.3,9.9,7.2,9.7z"/>
	<path fill="#FFEC2D" d="M9.3,4.6c0.2-0.1,0.2-0.2,0.2-0.4c-0.1-0.2-0.7-1-0.7-1s0.1,1,0.2,1.2C9,4.6,9.1,4.7,9.3,4.6z"/>
	<path fill="#FFEC2D" d="M11.6,4.4c0.2,0,0.3-0.1,0.3-0.2c0-0.2,0-1.2,0-1.2s-0.5,0.9-0.5,1.1C11.3,4.2,11.4,4.4,11.6,4.4z"/>
	<path fill="#FFEC2D" d="M14.9,8.8c-0.1,0-0.3,0-0.3,0.2c0,0.2,0.1,0.3,0.2,0.3c0.2,0,1.2,0,1.2,0S15.1,8.8,14.9,8.8z"/>
	<path fill="#FFEC2D" d="M9.7,12.3c0,0.2,0,1.2,0,1.2s0.5-0.9,0.5-1.1c0-0.1,0-0.3-0.2-0.3C9.8,12,9.7,12.1,9.7,12.3z"/>
	<path fill="#FFEC2D" d="M7,7.5c0-0.2-0.1-0.3-0.2-0.3c-0.2,0-1.2,0-1.2,0s0.9,0.5,1.1,0.5C6.8,7.7,6.9,7.7,7,7.5z"/>
	<path fill="#FFEC2D" d="M13,5c0.2,0.1,0.3,0,0.4-0.1c0.1-0.2,0.4-1.1,0.4-1.1S13,4.4,12.9,4.6C12.8,4.7,12.8,4.9,13,5z"/>
	<path fill="#FFEC2D" d="M14.4,10.3c-0.1-0.1-0.3-0.1-0.4,0.1c-0.1,0.2,0,0.3,0.1,0.4c0.2,0.1,1.1,0.4,1.1,0.4S14.6,10.4,14.4,10.3z
		"/>
	<path fill="#FFEC2D" d="M8.7,11.9c0.1-0.1,0.1-0.3-0.1-0.4c-0.2-0.1-0.3,0-0.4,0.1c-0.1,0.2-0.4,1.1-0.4,1.1S8.6,12,8.7,11.9z"/>
	<path fill="#FFEC2D" d="M7.2,6.1c0.1,0.1,0.3,0.1,0.4-0.1c0.1-0.2,0-0.3-0.1-0.4C7.3,5.6,6.3,5.3,6.3,5.3S7,6,7.2,6.1z"/>
	<path fill="#FFEC2D" d="M14,6.1c0.1,0.2,0.3,0.2,0.4,0.1c0.2-0.1,0.8-0.9,0.8-0.9s-1,0.3-1.1,0.4C14,5.8,13.9,5.9,14,6.1z"/>
	<path fill="#FFEC2D" d="M13.8,12.7c0,0-0.3-1-0.4-1.1c-0.1-0.1-0.2-0.2-0.4-0.1c-0.2,0.1-0.2,0.3-0.1,0.4
		C13,12,13.8,12.7,13.8,12.7z"/>
	<path fill="#FFEC2D" d="M7.6,10.4c-0.1-0.2-0.3-0.2-0.4-0.1c-0.2,0.1-0.8,0.9-0.8,0.9s1-0.3,1.1-0.4C7.6,10.7,7.7,10.6,7.6,10.4z"
		/>
	<path fill="#FFEC2D" d="M8.6,5c0.2-0.1,0.2-0.3,0.1-0.4C8.6,4.4,7.8,3.8,7.8,3.8s0.3,1,0.4,1.1C8.3,5,8.5,5.1,8.6,5z"/>
	<path fill="#FFEC2D" d="M14.8,7.1c-0.1,0-0.3,0.1-0.2,0.3c0,0.2,0.2,0.2,0.3,0.2c0.2,0,1.1-0.5,1.1-0.5S15,7.1,14.8,7.1z"/>
	<path fill="#FFEC2D" d="M11.6,12.1c-0.2,0-0.2,0.2-0.2,0.3c0,0.2,0.5,1.1,0.5,1.1s0.1-1,0-1.2C11.9,12.1,11.8,12,11.6,12.1z"/>
	<path fill="#FFEC2D" d="M7,9c0-0.2-0.2-0.2-0.3-0.2c-0.2,0-1.1,0.5-1.1,0.5s1,0.1,1.2,0C6.9,9.3,7,9.2,7,9z"/>
	<path fill="#FFEC2D" d="M10,4.4c0.2,0,0.2-0.2,0.2-0.3C10.2,3.9,9.8,3,9.8,3s-0.1,1,0,1.2C9.7,4.3,9.8,4.5,10,4.4z"/>
	<path fill="#FFEC2D" d="M11,16.3c0.1,0,0.2,0,0.4,0c0,0,0.1,0,0.1,0c-0.1,0-0.1,0-0.2,0h-0.5c-0.1,0-0.3,0-0.4-0.1c0,0-0.1,0-0.1,0
		c0,0-0.1,0-0.2,0c-0.1,0-0.2,0-0.3,0C9.9,16,10,16,10.1,15.9c-0.1,0-0.1,0-0.2,0c0.1-0.1,0.2-0.1,0.3-0.2c-0.1,0-0.2,0-0.3,0
		c-0.1,0-0.2,0.1-0.4,0.1l0,0l-0.1,0c0,0,0,0,0,0.1c0,0,0,0,0,0.1c0,0,0,0,0,0.1c0,0,0,0-0.1,0c0,0,0,0-0.1,0c0,0,0,0-0.1,0
		c0,0,0,0-0.1,0c0,0,0,0-0.1,0c0,0,0,0-0.1,0c0,0,0,0-0.1,0c0,0,0,0-0.1,0C8.8,16,8.7,16,8.6,16.1c0,0,0,0.1,0,0.1
		c0,0.1,0,0.1,0,0.2c0,0,0-0.1,0-0.1c0,0,0.1-0.1,0.2-0.1c0.1,0,0,0,0,0c0,0,0,0.1,0,0.1c0.2-0.1,0.4-0.1,0.5-0.1c0.3,0,0.5,0,0.8,0
		L11,16.3z"/>
	<path fill="#FFEC2D" d="M9.2,15.9C9.2,15.9,9.2,15.8,9.2,15.9C9.3,15.8,9.3,15.8,9.2,15.9C9.3,15.8,9.3,15.8,9.2,15.9
		C9.2,15.8,9.2,15.8,9.2,15.9z"/>
	<path fill="#FFEC2D" d="M13,15.9c0,0.1-0.3,0.1-0.2,0.2c0.1,0.1-0.2,0.2-0.3,0.3c-0.6,0.2-1.3,0.1-1.9,0.2c-0.4,0-0.8,0.2-0.9,0.6
		c0.3,0.1,0.5-0.2,0.7-0.3c0.1,0,0,0.3,0.1,0.4c0.2,0,0.3-0.2,0.5-0.4c0.1,0.1,0,0.3,0,0.4c0.2,0,0.3-0.3,0.5-0.4c0.1,0,0,0.3,0,0.3
		c0.2,0.1,0.3,0,0.4-0.2c0.1-0.2,0.1-0.1,0.2,0.1c0.1,0.2,0.3,0,0.4-0.1c0.1-0.2,0.2,0,0.3,0.1c0.2,0,0.3-0.2,0.5-0.4
		c0,0.1,0.1,0.3,0.3,0.2c0.1-0.1,0.1-0.3,0.2-0.4c0.2,0.1,0.3,0.3,0.5,0.1v0c0.1-0.1,0.1-0.2,0.1-0.4c0-0.2,0.2,0.1,0.3,0.1
		c0.3,0.1,0.6-0.1,0.6-0.4c-0.6,0-1.2-0.2-1.9-0.1C13.1,15.7,13,15.7,13,15.9z"/>
	<path fill="#FFEC2D" d="M17.9,9.1c0-0.1,0-0.3-0.2-0.3c-0.2,0-0.1,0.3-0.2,0.4c-0.1,0.5-0.2,1-0.5,1.4c0.1-0.4,0.2-0.8,0.1-1.2
		c0-0.2-0.3-0.1-0.3,0.1c-0.3,1.7-1.5,3.1-2.9,4c-0.7,0.4-1.4,0.6-2.2,0.7c-0.2,0-0.4,0-0.6,0.1c-0.5,0.4-0.8,1-1.4,1.2
		c-0.3,0.1-0.6,0.2-0.8,0.4c0,0,0,0.1,0,0.1h0c0.1,0.1,0.2,0,0.3,0c0,0,0,0,0,0c0-0.1,0.1-0.1,0.1-0.1c0,0,0.1,0,0.1,0
		c0.4-0.2,0.8-0.4,1.2-0.7c0.2-0.2,0.4-0.4,0.8-0.5c0.6-0.2,1.3-0.2,1.9-0.3c0.5-0.6,1.3-0.9,1.9-1.2c0.2,0,0.2-0.2,0.3-0.3
		c0.3-0.4,0.6-0.8,1-1c0.2-0.1,0.4-0.2,0.6-0.1c0,0.3-0.2,0.5-0.3,0.7c0.1,0,0.3-0.1,0.4-0.1c0.1,0.3-0.2,0.4-0.4,0.6
		c0.1,0,0.4,0,0.2,0.1c-0.2,0.2-0.5,0.3-0.7,0.5c0.2,0,0.2,0.1,0,0.1c-0.1,0.1-0.3,0.1-0.3,0.2c0.1,0.1-0.1,0.2-0.2,0.2
		c-0.2,0-0.3,0.1-0.1,0.2c-0.1,0.1-0.3,0.1-0.4,0.1c0,0.1,0.1,0.3-0.1,0.4c-0.4,0.3-0.9,0.5-1.4,0.6c0.6,0,1.3-0.1,1.8-0.4
		c0.1-0.1,0.4-0.2,0.2-0.2c-0.1,0-0.3-0.1-0.3-0.2c0.3-0.2,0.7-0.1,1-0.2c0-0.1-0.2-0.1-0.3-0.1c-0.2,0-0.2-0.1,0-0.1
		c0.3-0.1,0.6-0.1,0.8-0.3c-0.2-0.1-0.4,0-0.6-0.1c0.3-0.1,0.7-0.2,1-0.4c0.1-0.1-0.2-0.1-0.3-0.1c-0.2,0-0.3-0.1-0.1-0.1
		c0.4-0.3,0.8-0.4,1-0.8c0.1-0.1,0.1-0.3,0-0.2c-0.2,0.1-0.5,0.4-0.7,0.3c0.6-0.4,1.1-0.9,1.5-1.5c0-0.2-0.2-0.2-0.3-0.1
		c-0.4,0.3-0.7,0.7-1.1,1c0.4-0.4,0.8-0.9,1.1-1.4c0.1-0.2,0.2-0.3,0.2-0.5c-0.2-0.1-0.4,0-0.4,0.1c-0.3,0.4-0.5,0.8-0.8,1.1
		C17.6,10.4,17.9,9.8,17.9,9.1z"/>
	<path fill="#FFEC2D" d="M4.6,11.4c0.1,0.1,0.1-0.1,0.2-0.1c0.1,0.1,0.2,0.2,0.3,0.2c0.5,0.4,0.8,1.1,1.3,1.5
		c0.2,0.2,0.5,0.3,0.8,0.4c0.3,0.2,0.6,0.5,0.9,0.7c0.3,0.3,0.7,0.3,1,0.3c0.4,0,0.9,0,1.3,0.3c0.1-0.1,0.2-0.3,0.3-0.5l0,0
		c-0.1,0-0.2,0-0.3,0c-1.1-0.1-2.2-0.4-3.1-1.1c-1.1-0.8-2-1.9-2.4-3.2C4.8,9.7,4.8,9.5,4.7,9.3c-0.1-0.1-0.2,0-0.2,0.1
		c-0.1,0.4,0,0.8,0.1,1.1C4.3,10.1,4.2,9.5,4,9c0-0.1,0-0.3-0.2-0.3c-0.2,0-0.2,0.2-0.2,0.3c0,0.7,0.3,1.3,0.6,1.9
		C4,10.7,3.7,10.3,3.5,9.9C3.4,9.8,3.2,9.7,3.1,9.7C2.9,9.8,3,10,3.1,10.1c0.3,0.5,0.6,1,1,1.5c0,0.1,0.3,0.2,0.1,0.1
		c-0.4-0.2-0.7-0.6-1.1-0.9c-0.1-0.1-0.3-0.1-0.3,0.1c0.3,0.5,0.7,0.9,1.2,1.3c0.1,0.1,0.3,0.2,0.2,0.2c-0.3,0-0.5-0.3-0.8-0.3
		c-0.1,0,0,0.2,0.1,0.3c0.4,0.4,0.9,0.6,1.4,0.8c-0.2,0.1-0.4,0-0.5,0c-0.1,0-0.3-0.1-0.3,0c0.3,0.3,0.7,0.2,1,0.3
		c-0.1,0.1-0.2,0.1-0.3,0.1c-0.1,0-0.3,0-0.3,0.1c0.2,0.1,0.4,0.1,0.6,0.2c0.2,0,0.1,0.1,0,0.1c-0.1,0-0.2,0-0.3,0.1
		c0.2,0.2,0.6,0.2,0.8,0.2c-0.1,0.1-0.3,0.1-0.4,0.1c0.3,0.1,0.6,0.2,0.9,0.4C6.8,15,7.4,15.2,8,15.2c-0.2,0-0.4-0.1-0.6-0.2
		c-0.5-0.2-1-0.4-1.5-0.6c0.1-0.1,0.2-0.1,0.3-0.2c-0.2,0-0.4-0.1-0.6-0.2c-0.2-0.1,0-0.2,0.1-0.2c0-0.1-0.2-0.1-0.3-0.1
		c-0.1,0-0.2-0.2-0.1-0.2c0.1-0.1-0.1-0.1-0.1-0.1c-0.1-0.1,0-0.2,0-0.3c-0.3,0-0.5-0.2-0.7-0.4c0,0,0.2,0,0.3,0
		c-0.2-0.1-0.4-0.3-0.5-0.5c0.1,0,0.2,0,0.3,0c0-0.3-0.2-0.5-0.3-0.7C4.4,11.3,4.5,11.3,4.6,11.4z"/>
	<path fill="#FFEC2D" d="M9.2,15.9C9.2,15.9,9.2,16,9.2,15.9c0.1,0.1,0.1,0,0.1,0C9.3,15.9,9.3,15.8,9.2,15.9
		C9.2,15.8,9.2,15.9,9.2,15.9z M9.3,15.9C9.2,15.9,9.2,15.9,9.3,15.9C9.2,15.9,9.2,15.9,9.3,15.9C9.3,15.9,9.3,15.9,9.3,15.9
		C9.3,15.9,9.3,15.9,9.3,15.9z"/>
	<circle fill="#FFEC2D" cx="9.3" cy="15.9" r="0"/>
	<path fill="#FFEC2D" d="M9.1,15.9C9.1,15.9,9.1,15.9,9.1,15.9C9.1,16,9.2,16,9.2,16c0.1,0,0.1-0.1,0.1-0.1c0,0,0-0.1,0-0.1
		c0,0,0,0-0.1,0C9.2,15.8,9.1,15.8,9.1,15.9z M9.3,15.9C9.3,15.9,9.3,15.9,9.3,15.9C9.3,15.9,9.3,16,9.3,15.9
		C9.3,16,9.3,16,9.3,15.9c-0.1,0.1-0.1,0-0.1,0c0,0,0,0,0,0C9.2,15.8,9.2,15.8,9.3,15.9C9.3,15.8,9.3,15.8,9.3,15.9
		C9.3,15.8,9.3,15.9,9.3,15.9z"/>
</g>
</svg>
