<svg width="21" height="20" viewBox="0 0 21 20" fill="none" xmlns="http://www.w3.org/2000/svg">
<g clip-path="url(#clip0)">
<path d="M10.5 20C16.0228 20 20.5 15.5228 20.5 10C20.5 4.47715 16.0228 0 10.5 0C4.97715 0 0.5 4.47715 0.5 10C0.5 15.5228 4.97715 20 10.5 20Z" fill="#F0F0F0"/>
<path d="M0.844482 12.6087C1.42308 14.7556 2.69827 16.6163 4.41304 17.9338V12.6087H0.844482Z" fill="#D80027"/>
<path d="M9.63049 19.962C9.91713 19.9867 10.207 20 10.5001 20C15.1203 20 19.0081 16.8664 20.1556 12.6087H9.63049V19.962Z" fill="#D80027"/>
<path d="M20.1556 7.39129C19.0081 3.13363 15.1203 0 10.5001 0C10.207 0 9.91713 0.0133594 9.63049 0.0380469V7.39129H20.1556Z" fill="#D80027"/>
<path d="M4.41304 2.06619C2.69827 3.38377 1.42308 5.24443 0.844482 7.39127H4.41304V2.06619Z" fill="#D80027"/>
<path d="M20.4154 8.69564H8.32613H8.32609V0.237671C7.40195 0.442593 6.52582 0.774741 5.71738 1.21587V8.69556V8.6956H0.584648C0.528984 9.12259 0.5 9.5579 0.5 9.99998C0.5 10.442 0.528984 10.8774 0.584648 11.3043H5.71734H5.71738V18.784C6.52582 19.2251 7.40195 19.5574 8.32609 19.7622V11.3044V11.3044H20.4154C20.4709 10.8774 20.5 10.442 20.5 9.99998C20.5 9.5579 20.4709 9.12259 20.4154 8.69564Z" fill="#0052B4"/>
</g>
<defs>
<clipPath id="clip0">
<rect width="20" height="20" fill="white" transform="translate(0.5)"/>
</clipPath>
</defs>
</svg>
