<svg width="21" height="20" viewBox="0 0 21 20" fill="none" xmlns="http://www.w3.org/2000/svg">
<g clip-path="url(#clip0)">
<path d="M20.8823 10C20.8823 15.5228 16.4051 20 10.8823 20C5.35951 20 0.882324 15.5228 0.882324 10C0.882324 10.0024 10.8823 0.00109375 10.8823 0C16.4051 0 20.8823 4.47719 20.8823 10Z" fill="#0868DA"/>
<path d="M10.8823 5.21738C10.8823 3.45781 10.8823 2.30488 10.8823 0H10.8806C5.35857 0.0009375 0.882324 4.4777 0.882324 10H6.0997V7.06207L9.03767 10H10.8556C10.8645 9.99109 10.8735 9.98219 10.8823 9.97324C10.8823 9.29953 10.8823 8.6984 10.8823 8.15539L7.94435 5.21738H10.8823Z" fill="#F0F0F0"/>
<path d="M5.94137 1.30432C4.37734 2.19491 3.07711 3.49514 2.18652 5.05917V9.99999H4.79523V3.91311L10.8822 3.91303C10.8822 3.09026 10.8822 2.30643 10.8822 1.30432H5.94137Z" fill="#D80027"/>
<path d="M10.8822 8.77026L7.32933 5.21741H6.09961L10.8822 9.99999C10.8822 9.99999 10.8822 9.15206 10.8822 8.77026Z" fill="#D80027"/>
<path d="M18.1998 7.42023L18.4156 8.08452H19.1141L18.549 8.49507L18.7649 9.15933L18.1998 8.74882L17.6347 9.15933L17.8505 8.49507L17.2854 8.08452H17.9839L18.1998 7.42023Z" fill="#D80027"/>
<path d="M15.7029 12.2028L16.0267 13.1993H17.0744L16.2267 13.8151L16.5506 14.8115L15.7029 14.1957L14.8552 14.8115L15.1791 13.8151L14.3314 13.1993H15.3791L15.7029 12.2028Z" fill="#D80027"/>
<path d="M15.7973 4.37677L16.0671 5.2072H16.9402L16.2338 5.72028L16.5036 6.55067L15.7973 6.03743L15.0909 6.55067L15.3607 5.72028L14.6544 5.2072H15.5275L15.7973 4.37677Z" fill="#D80027"/>
<path d="M13.3948 7.3913L13.7185 8.38778H14.7663L13.9186 9.00356L14.2425 10L13.3948 9.38419L12.5471 10L12.871 9.00356L12.0233 8.38778H13.071L13.3948 7.3913Z" fill="#D80027"/>
</g>
<defs>
<clipPath id="clip0">
<rect width="20" height="20" fill="white" transform="translate(0.882324)"/>
</clipPath>
</defs>
</svg>
