<?xml version="1.0" encoding="utf-8"?>
<!-- Generator: Adobe Illustrator 27.4.1, SVG Export Plug-In . SVG Version: 6.00 Build 0)  -->
<svg version="1.2" baseProfile="tiny" id="Layer_1" xmlns="http://www.w3.org/2000/svg" xmlns:xlink="http://www.w3.org/1999/xlink"
	 x="0px" y="0px" viewBox="0 0 21 20" overflow="visible" xml:space="preserve">
<g id="Page-1_00000107566776871218183820000017200908115393865376_">
	<g id="Slices" transform="translate(-10.000000, -11.000000)">
	</g>
	<g id="circle_qatar">
		<ellipse id="path-1" fill-rule="evenodd" fill="#FFFFFF" cx="10.9" cy="10" rx="10" ry="10"/>
		<path id="Rectangle-3-copy-3" fill-rule="evenodd" fill="#C02B53" d="M7.9,0.4C8.9,0.2,9.9,0,10.9,0c5.5,0,10,4.5,10,10
			s-4.5,10-10,10c-1,0-2-0.2-2.9-0.4l2.2-0.7l-3.6-1.1l3.6-1.1l-3.6-1.1l3.6-1.1l-3.6-1.1l3.6-1.1l-3.6-1.1l3.6-1.1L6.5,8.9
			c0,0,3.6-1.1,3.6-1.1L6.5,6.7l3.6-1.1L6.5,4.4l3.6-1.1L6.5,2.2l3.6-1.1L7.9,0.4z"/>
	</g>
</g>
</svg>
