<?xml version="1.0" encoding="utf-8"?>
<!-- Generator: Adobe Illustrator 27.4.1, SVG Export Plug-In . SVG Version: 6.00 Build 0)  -->
<svg version="1.2" baseProfile="tiny" id="Layer_1" xmlns="http://www.w3.org/2000/svg" xmlns:xlink="http://www.w3.org/1999/xlink"
	 x="0px" y="0px" viewBox="0 0 21 20" overflow="visible" xml:space="preserve">
<g>
	<path fill="#005430" d="M8.5,5.1L8.5,5.1C8.5,5,8.5,5,8.4,5C8.4,5,8.4,5,8.4,5C8.4,5.1,8.4,5.1,8.5,5.1L8.5,5.1z"/>
	<path fill="#005430" d="M11.9,9.2C11.9,9.1,11.9,9.2,11.9,9.2C11.9,9.2,12,9.2,11.9,9.2C12,9.2,12,9.2,11.9,9.2z"/>
	<path fill="#005430" d="M8.5,5L8.5,5c0,0.1,0,0.1,0,0.1c0.1,0,0.1,0.1,0.1,0.1C8.6,5.2,8.6,5.1,8.5,5z"/>
	<path fill="#005430" d="M4.8,5.1C4.7,5,4.7,5,4.8,5.1c-0.1,0-0.2,0-0.1,0C4.6,5.1,4.7,5.2,4.8,5.1C4.7,5.1,4.7,5.1,4.8,5.1z"/>
	<path fill="#005430" d="M11.2,6.2c0,0-0.1,0-0.1,0c0,0,0.1,0.1,0.1,0.1C11.3,6.3,11.3,6.3,11.2,6.2z"/>
	<path fill="#005430" d="M11.6,7.4c-0.1-0.1-0.3-0.2-0.4-0.1c0,0,0.1,0.1,0.1,0.2C11.4,7.4,11.5,7.4,11.6,7.4z"/>
	<path fill="#005430" d="M4.8,5L4.8,5L4.8,5c0,0.1,0,0.1,0,0.1c0.1,0,0.1,0,0.2,0C4.9,5.2,4.8,5.1,4.8,5z"/>
	<path fill="#005430" d="M6,7.6c0,0,0,0.1,0.3,0.1c0,0,0,0,0.1,0c0-0.1-0.1-0.1-0.1-0.2C6.1,7.4,6,7.5,6,7.6z"/>
	<path fill="#005430" d="M10.9,0c-5.5,0-10,4.5-10,10s4.5,10,10,10s10-4.5,10-10S16.4,0,10.9,0z M16.3,6.7c-0.1-0.2-0.2-0.3-0.2-0.3
		l0-0.2C16.2,6.3,16.3,6.4,16.3,6.7c0.1,0.1,0.1,0.3,0.1,0.5c0,0.1-0.1,0.1,0,0.1C16.4,7.1,16.4,6.9,16.3,6.7z M16.1,4.9
		c0,0,0.3,0,0.3,0c0,0-0.1,0.2-0.1,0.2c0,0,0,0.1-0.1,0.1c-0.1,0-0.2,0.1-0.2,0.1c0,0,0.2-0.2,0.3-0.2c-0.1,0-0.3,0-0.3,0
		c0,0,0,0,0,0C16,5,16,4.9,16.1,4.9z M13.8,7.6c0,0.1-0.1,0.2-0.1,0.3c0,0.1,0.1,0.2,0.1,0.2c0,0,0-0.1,0.1-0.1c0,0,0,0.1,0,0.2
		c0,0.1-0.1,0.2-0.2,0.1c-0.1,0-0.1-0.1-0.1-0.3c0-0.2,0.1-0.4,0.2-0.5C13.8,7.4,13.8,7.5,13.8,7.6z M13.8,6.6
		c0,0.1-0.1,0.2-0.2,0.1c-0.1,0-0.1-0.1-0.1-0.3c0-0.2,0.1-0.4,0.2-0.5c0-0.1,0,0,0,0.1c0,0.1-0.1,0.2-0.1,0.3
		C13.6,6.5,13.7,6.6,13.8,6.6c0-0.1,0-0.2,0-0.2C13.8,6.4,13.8,6.5,13.8,6.6z M13.4,4.9c0.1,0,0.3,0,0.3,0c0,0,0,0,0,0.1
		c0,0.1-0.1,0.2-0.1,0.2c-0.1,0-0.2,0.1-0.2,0.1c0,0,0,0,0,0c0,0,0.2-0.1,0.2-0.1c-0.1,0-0.2,0-0.3,0c0,0,0,0,0,0
		C13.3,5,13.4,4.9,13.4,4.9z M13.1,4.8c0,0,0,0,0.1,0.1c0.1,0.1,0.2,0.4,0.2,0.5c0,0.1,0.1,0.2,0,0.2c0,0-0.1-0.2-0.1-0.1
		c0,0.1,0,0.3,0.1,0.7c0,0.3,0.2,1.2,0.2,1.6c0,0.4,0,0.7-0.1,1C13.2,9,13.1,9.2,13,9.3c0.1,0.2,0.1,0.3,0.3,0.3
		c0.2,0,0.2-0.1,0.3-0.3c0.1-0.2,0.2-0.4,0.3-0.6C14,8.6,14,8.5,14.1,8.4l0,0l0,0c0,0,0,0,0,0c0-0.1,0-0.4,0-0.4
		c0-0.4-0.1-1-0.1-1.4c0-0.5-0.1-1.1-0.1-1.3c0-0.1,0-0.2-0.1-0.2c0,0,0.1-0.3,0.1-0.3c0,0,0.2,0.4,0.2,0.5c0,0.1,0.1,0.2,0,0.2
		c0,0-0.1,0-0.1-0.1c0,0-0.1-0.1-0.1,0c0,0,0,0.1,0,0.2c0,0.3,0.1,0.7,0.1,1c0,0.3,0.1,0.9,0.1,1.3l0,0.3c0,0,0,0.1,0,0.1
		c0,0,0.1,0.1,0.1,0.1c0,0,0,0.1,0.1,0.1c0.1,0.2,0.2,0.2,0.4,0.2c0.2,0,0.4-0.1,0.4-0.2c0-0.4-0.1-1.5-0.1-1.9c0-0.2,0-0.4,0-0.6
		C15,6.1,14.9,6,14.9,5.9c-0.2-0.2-0.4-0.6-0.4-0.6c0-0.1-0.1-0.1-0.1-0.1c0,0,0-0.3,0-0.3c0,0,0.1,0,0.2,0.1
		c0.1,0.1,0.2,0.2,0.3,0.2c0.1,0,0.1,0.1,0.1,0.1c0,0,0,0-0.1,0c-0.1,0-0.1,0-0.1,0c0,0,0.2,0.3,0.3,0.5c0-0.2,0-0.4,0-0.5
		c0-0.1,0-0.2-0.1-0.2c0,0,0.1-0.3,0.1-0.3c0,0,0.2,0.4,0.2,0.5c0,0.1,0.1,0.2,0,0.2c0,0-0.1-0.1-0.1-0.1c0,0-0.1,0-0.1,0
		c0,0,0,0.1,0,0.2c0,0.1,0,0.2,0,0.4c0,0,0,0,0,0.1c0.1,0.1,0.3,0.4,0.5,0.7l0,0c0-0.5-0.1-1.3-0.1-1.5c0-0.1,0-0.2-0.1-0.2
		c0,0,0.1-0.3,0.1-0.3c0,0,0.2,0.4,0.2,0.5c0,0.1,0.1,0.2,0,0.2c0,0-0.1-0.1-0.1-0.1c0,0-0.1,0-0.1,0c0,0,0,0.1,0,0.2
		c0,0.3,0.1,0.9,0.1,1.2C16,7,16,7,16,7.1c0.1,0.2,0.3,0.4,0.4,0.6c0.3,0.4,0.4,0.7,0.4,0.9c0,0.2,0,0.3,0,0.3c0,0,0-0.1-0.1-0.2
		c0-0.2-0.2-0.4-0.3-0.7c-0.1-0.1-0.2-0.3-0.3-0.5c0,0.3,0,0.6,0,0.8C16,8.6,16,9,16,9.2c0,0.1-0.1,0.1-0.1,0.1c0-0.1,0-0.4,0-0.7
		c0-0.3,0-0.9-0.1-1.4c0-0.1-0.1-0.1-0.1-0.1c-0.1-0.1-0.3-0.4-0.4-0.6c0,0.2,0,0.3,0,0.4c0,0.3,0.1,0.7,0.1,1c0,0.3,0,0.6,0,0.9
		c0,0.2-0.1,0.3-0.3,0.4c-0.2,0.1-0.4,0.1-0.5,0c-0.1-0.1-0.1-0.2-0.2-0.3c0,0,0-0.1-0.1-0.1c0,0,0,0,0,0c0,0.1,0,0.2,0,0.3
		c0,0.1-0.1,0.1-0.1,0.1c0,0,0-0.2,0-0.4c0,0,0,0,0,0c-0.1,0-0.1,0.1-0.2,0.1c-0.1,0.1-0.3,0.5-0.3,0.7c-0.1,0.2-0.2,0.4-0.3,0.4
		c-0.1,0-0.3-0.1-0.4-0.4c0-0.1,0-0.1-0.1-0.2l0,0c-0.3,0.2-0.8,0.4-0.9,0.4c-0.1,0-0.1,0,0-0.1c0.2-0.1,0.6-0.4,0.9-0.6
		c0-0.1,0-0.2,0-0.3c0-0.2,0-0.3,0.1-0.3c0,0,0,0.3,0,0.6c0.3-0.2,0.3-0.3,0.4-0.4c0-0.1,0-0.2,0-0.4c0-0.5-0.1-1.2-0.2-1.6
		C13.1,6.1,13,5.4,13,5.3c0-0.1,0-0.1-0.1-0.2C13,5.1,13.1,4.8,13.1,4.8z M14.7,6.7c0,0,0-0.1,0.1-0.2C14.8,6.5,14.8,6.6,14.7,6.7
		c0,0.2-0.1,0.3-0.2,0.2c-0.1,0-0.1-0.2-0.1-0.4c0-0.2,0.1-0.5,0.2-0.6c0-0.1,0,0.1,0,0.2c0,0.1-0.1,0.2-0.1,0.4
		C14.5,6.6,14.6,6.7,14.7,6.7z M14.8,7.9c-0.1-0.2-0.2-0.3-0.2-0.3l0-0.2C14.6,7.5,14.8,7.6,14.8,7.9c0.1,0.1,0.1,0.3,0.1,0.5
		c0,0.1,0,0.1,0,0.1C14.8,8.2,14.8,8,14.8,7.9z M15.2,9.3c0-0.1,0.2-0.3,0.3-0.4c0.1,0,0.1,0.1,0.1,0.2c0,0-0.1,0.1-0.1,0.1
		c0,0,0-0.1,0-0.1C15.4,9.1,15.3,9.1,15.2,9.3c0.1,0,0.2,0.1,0.3,0.1c0.1,0,0.2-0.2,0.2-0.1c0,0,0,0.2,0,0.2
		c-0.1,0.1-0.4,0.3-0.5,0.3c0-0.1,0.1-0.2,0.1-0.2c0,0,0.1-0.1,0.1-0.1C15.3,9.4,15.2,9.3,15.2,9.3z M13.9,9.6
		c0-0.1,0.2-0.3,0.3-0.4c0.1,0,0.1,0.1,0.1,0.2c0,0-0.1,0.1-0.1,0.1c0,0,0-0.1,0-0.1C14.1,9.4,14,9.4,13.9,9.6
		c0.1,0,0.2,0.1,0.3,0.1c0.1,0,0.2-0.2,0.2-0.1c0,0,0,0.2,0,0.2C14.4,9.7,14,9.9,13.9,10C14,9.9,14,9.8,14,9.8c0,0,0.1-0.1,0.1-0.1
		C14,9.7,13.9,9.6,13.9,9.6z M9.9,9.7c0,0,0.1-0.1,0.1-0.1C10,9.6,10,9.7,9.9,9.7c0,0.2-0.1,0.2-0.2,0.1c0-0.1-0.1-0.2,0-0.3
		C9.8,9.4,9.9,9.2,10,9.1c0,0,0,0,0,0.1c0,0.1-0.1,0.2-0.1,0.3C9.7,9.6,9.8,9.7,9.9,9.7z M10,8.5c0,0.1,0,0.2-0.1,0.4
		c0,0.1-0.2,0.2-0.4,0.4C9.3,9.5,9,9.8,8.7,9.8c-0.3,0.1-0.4,0-0.5-0.4c0,0,0-0.1,0-0.1C8,9.5,7.8,9.6,7.5,9.6
		C7.1,9.7,6.8,9.7,6.7,9.8c0,0-0.1,0-0.1,0l0,0c0,0.1-0.1,0.2-0.2,0.1c-0.1,0-0.1-0.2-0.1-0.3c0-0.2,0.1-0.4,0.2-0.5
		c0-0.1,0,0,0,0.2c0,0.1-0.1,0.2-0.1,0.3c0,0.1,0.1,0.2,0.1,0.2c0,0,0-0.1,0.1-0.1c0,0,0,0,0,0.1l0,0c0.3-0.1,0.7-0.2,1.2-0.5
		C7.9,9.2,8.1,9.1,8.3,9c0-0.1,0.1-0.3,0.1-0.3c0,0,0,0-0.1,0c-0.1,0-0.1-0.2-0.1-0.3c0-0.2,0.1-0.4,0.2-0.5c0-0.1,0,0,0,0.2
		c0,0.1-0.1,0.2-0.1,0.3c0,0.1,0.1,0.2,0.1,0.2c0,0,0-0.1,0.1-0.1c0,0,0,0.1,0,0.2c0,0,0,0.1,0,0.1C8.4,8.8,8.4,8.9,8.4,9
		c0.5-0.3,0.9-0.6,1-0.7c0-0.1-0.1-0.3-0.2-0.5C9.1,7.6,9.1,7.5,9.1,7.4c0,0,0-0.1,0-0.1l0,0c0-0.1,0-0.2,0-0.3c0,0,0,0,0,0
		c0.1,0.1,0.2,0.2,0.3,0.3c0.1,0.1,0.1,0.1,0,0.1c-0.1,0-0.1-0.1-0.1,0c0,0.1,0.1,0.3,0.2,0.4C9.5,8,9.5,8.3,9.4,8.5
		C9.3,8.7,8.8,9.1,8.5,9.2c0,0-0.1,0.1-0.1,0.1c0,0,0,0.1,0,0.1c0.1,0.2,0.4,0.1,0.7-0.1C9.4,9.1,9.8,8.7,10,8.5
		c0,0-0.1-0.3-0.2-0.6C9.7,7.6,9.5,7.2,9.5,7.2s0-0.1,0.1-0.3C9.7,7,9.9,7.4,10,8c0.1,0.4,0,0.7,0.2,1c0.2,0.3,0.3,0.4,0.4,0.4
		c0-0.3,0.1-0.4,0.2-0.5c0.1-0.1,0.5-0.3,0.6-0.3c-0.1,0-0.3,0-0.6,0c-0.3,0-0.7,0-0.7,0c0,0,0.1-0.3,0.1-0.3l0,0
		c0.1-0.2,0.4-0.3,0.6-0.5c0.1-0.1,0.2-0.1,0.4-0.2c0-0.1-0.1-0.1-0.1-0.1c0-0.1,0-0.5,0.2-0.5c0.1,0,0.2,0,0.4,0.1
		c0.1,0.1,0.2,0.2,0.2,0.2c0,0.1-0.1,0.3-0.1,0.4c0,0-0.1,0-0.3,0.1c0,0.1,0,0.2,0,0.2c0-0.1,0-0.1-0.1-0.2c0,0-0.1,0-0.1,0.1
		c-0.3,0.1-0.6,0.3-0.7,0.4c0.2,0,0.7,0,0.9,0c0.3,0,0.8-0.1,0.9-0.1c0,0-0.1,0.2-0.1,0.3c0,0,0,0-0.1,0c-0.1,0.1-0.4,0.2-0.8,0.4
		c-0.3,0.1-0.6,0.3-0.7,0.4c0.1,0.2,0.4,0.3,0.5,0.3c0,0,0,0.3,0,0.4c-0.6,0-0.9-0.3-1.1-0.6C10,9,10,8.7,10,8.5z M7.2,9
		c0,0,0.1-0.2,0.1-0.2C7.4,8.7,7.4,8.9,7.2,9c0,0.2-0.1,0.3-0.2,0.3C7,9.2,6.9,9,7,8.7C7,8.5,7.2,8.2,7.3,8c0-0.1,0,0.1,0,0.2
		c0,0.1-0.1,0.3-0.2,0.5C7.1,8.9,7.2,9,7.2,9z M10.3,7.2c0,0,0-0.1,0-0.1c0.1,0,0,0.2,0.1,0.3c0,0,0.1,0.1,0.2,0
		c0-0.1-0.1-0.3-0.1-0.4c0,0,0,0,0,0.1l0,0c0,0,0.1-0.1,0.3-0.3c0.1-0.1,0.2-0.2,0.3-0.3c0,0,0,0-0.1,0c-0.1-0.1-0.1-0.1,0-0.2
		c0-0.1,0.1-0.2,0.2-0.1c0.1,0.1,0,0.2,0,0.3c0.1,0.1,0.1,0.1,0.1,0.1c0,0.1,0,0.2,0,0.2c0,0,0-0.1-0.1-0.1c0,0-0.1,0-0.1-0.1
		c-0.1,0.1-0.1,0.2-0.2,0.3c-0.1,0.1-0.3,0.2-0.3,0.3c0,0-0.1,0-0.1,0l0,0c0,0.1,0.1,0.3,0,0.4c-0.1,0.1-0.2,0-0.2-0.1
		c0,0.1-0.1,0.2-0.2,0.2c-0.1,0-0.1-0.1-0.1-0.1c0-0.1,0-0.1,0-0.2c0,0,0-0.1,0-0.1c0,0,0-0.1,0-0.1c0.1,0.1,0,0.4,0.1,0.4
		c0.1,0,0.1-0.1,0.1-0.1C10.4,7.3,10.3,7.2,10.3,7.2z M12.1,7.8c0,0,0-0.1,0.1-0.1C12.2,7.6,12.2,7.7,12.1,7.8
		c0,0.1-0.1,0.2-0.1,0.2c-0.1,0-0.1-0.1-0.1-0.3c0-0.1,0.1-0.3,0.2-0.5c0,0,0,0,0,0.1c0,0.1-0.1,0.2-0.1,0.3
		C12,7.7,12.1,7.8,12.1,7.8z M11,10c0,0,0.1-0.1,0.3-0.2c0.1-0.1,0.4-0.3,0.4-0.3c0.1-0.1,0.1-0.1,0.1-0.2c0,0,0-0.1,0-0.1l0,0
		C11.9,9.1,11.9,9,12,9c0.1,0,0.1,0.2,0.1,0.2s0,0.1,0,0.1c0,0,0,0-0.1,0c-0.1,0-0.1-0.1-0.1-0.1s0,0,0,0.1c0,0.1-0.1,0.2-0.2,0.3
		c-0.1,0.1-0.2,0.2-0.3,0.2C11.2,9.9,11,10,11,10C10.9,10,10.9,10,11,10z M12.9,6.9C12.9,7,12.8,7,12.7,7c-0.1,0-0.1-0.1-0.1-0.3
		c0-0.2,0.1-0.4,0.1-0.5c0-0.1,0,0,0,0.1c0,0.1-0.1,0.2-0.1,0.3C12.7,6.8,12.8,6.8,12.9,6.9c0-0.1,0-0.2,0-0.2
		C12.9,6.6,12.9,6.8,12.9,6.9z M12.8,5.9c0,0.1-0.1,0-0.2-0.1c0,0.1,0,0.1-0.1,0.1c0,0-0.1,0-0.1-0.1c0,0,0-0.1,0-0.1
		c0,0,0-0.1,0-0.1c0,0,0,0,0-0.1c0,0.1,0,0.3,0.1,0.3c0,0,0.1,0,0.1-0.1c0-0.1,0-0.2,0-0.2s0,0,0-0.1c0,0,0,0.2,0.1,0.2
		C12.7,5.9,12.8,5.9,12.8,5.9c0-0.2-0.1-0.3,0-0.4c0,0,0,0,0,0.1C12.9,5.8,12.9,5.9,12.8,5.9z M12.5,4.9c0.1,0,0.3,0,0.4,0
		c0,0,0,0,0,0.1c0,0.1-0.1,0.2-0.2,0.2c-0.1,0-0.2,0.1-0.2,0.1c0,0,0,0,0,0c0,0,0.2-0.1,0.2-0.1c-0.1,0-0.2,0-0.3,0c0,0,0,0,0,0
		C12.4,5,12.5,4.9,12.5,4.9z M11.4,4.8c0.1,0,0.4,0,0.4,0c0,0,0,0,0,0.1c0,0.1-0.1,0.2-0.2,0.3c-0.1,0-0.2,0.1-0.3,0.1c0,0,0,0,0,0
		c0,0,0.2-0.2,0.3-0.2c-0.1,0-0.3,0-0.3,0c0,0-0.1,0,0,0C11.3,5,11.3,4.9,11.4,4.8z M10.9,5.2c0,0,0.1,0,0.2,0.1
		c0.1,0.1,0.2,0.2,0.3,0.2c0.1,0,0.1,0.1,0.1,0.1c0,0,0,0-0.1,0c-0.1,0-0.1,0-0.1,0c0,0.1,0.4,0.5,0.6,0.7c0.1,0.1,0.2,0.2,0.4,0.4
		l0,0c0,0,0-0.3-0.1-0.6c0-0.3-0.1-0.7-0.1-0.7c0-0.1,0-0.2-0.1-0.2c0,0,0.1-0.3,0.1-0.3c0,0,0.2,0.4,0.2,0.5c0,0.1,0.1,0.2,0,0.2
		c0,0-0.1-0.1-0.1-0.1c0,0-0.1-0.1-0.1,0c0,0,0,0.1,0,0.2c0,0.1,0.1,1,0.1,1.1c0,0,0,0.1,0,0.1c0.1,0.2,0.3,0.3,0.4,0.5
		c0.3,0.4,0.4,0.6,0.4,0.9c0,0.2,0,0.4,0,0.4c0,0,0-0.2-0.1-0.3C13.1,8.1,13,8,12.8,7.8c-0.1-0.1-0.2-0.3-0.3-0.4
		c0,0.3,0.1,0.7,0.1,0.9c0,0.3,0,0.8,0,0.9c0,0.1-0.1,0.1-0.1,0.1c0-0.1,0-0.4,0-0.7c0-0.3-0.1-0.9-0.1-1.4c0-0.1-0.1-0.1-0.1-0.1
		c-0.2-0.2-0.5-0.6-0.7-0.8c-0.2-0.2-0.4-0.6-0.4-0.6c0,0-0.1-0.1-0.1-0.1C10.9,5.4,10.9,5.2,10.9,5.2z M10.1,5.1
		c0,0.1,0,0.2,0.1,0.2c0,0,0.1,0,0.1-0.1c0-0.1,0-0.1,0-0.1s0,0,0-0.1c0,0,0,0.1,0,0.2c0,0,0.1,0.1,0.1,0c0-0.1-0.1-0.1,0-0.2
		c0,0,0,0,0,0.1c0,0.1,0.1,0.2,0,0.2c0,0.1-0.1,0-0.1-0.1c0,0,0,0.1-0.1,0.1c0,0,0,0-0.1-0.1c0,0,0-0.1,0-0.1
		C10.1,5.2,10.1,5.2,10.1,5.1C10.1,5.1,10.1,5.1,10.1,5.1z M9.2,4.9c0.1,0.1,0.2,0.2,0.3,0.4c0.1,0.2,0,0.4,0,0.6
		c0,0.1-0.1,0.1,0,0.1c0-0.2,0-0.4,0-0.5C9.3,5.1,9.2,5.1,9.2,5.1L9.2,4.9z M9,5.1C9,5.1,9,5.1,9,5.2c0,0.2-0.2,0.7-0.1,1
		C9,6.5,9.4,6.5,9.6,6.4C9.8,6.2,9.8,6,9.8,5.7c0-0.2-0.1-0.5-0.1-0.6c0,0,0.1-0.3,0.1-0.3C9.9,4.9,9.9,5,10,5.1
		c0,0.3,0,0.6,0.1,0.7c0,0.3,0.1,0.4,0.3,0.5c0.2,0.1,0.4,0,0.5-0.1c0-0.1-0.1-0.4-0.1-0.5c0-0.2-0.1-0.4-0.1-0.5
		c0-0.1,0-0.1-0.1-0.2c0,0,0.1-0.3,0.1-0.3c0,0,0.2,0.3,0.2,0.4c0,0.1,0,0.1,0,0.1c0,0-0.1-0.1-0.1-0.1c0,0,0,0.1,0,0.2
		c0,0.1,0.2,0.4,0.2,0.6c0,0.2-0.1,0.4-0.1,0.5c-0.1,0.1-0.3,0.2-0.5,0.1C10,6.6,9.9,6.3,9.9,6c0,0.1,0,0.3-0.1,0.4
		C9.7,6.6,9.5,6.9,9.1,6.8C8.8,6.8,8.8,6.4,8.8,6.1c0-0.3,0.1-0.5,0.1-0.6c-0.1,0-0.3,0.7-0.3,0.8c0,0.2-0.1,0.5-0.3,0.5
		C8.2,6.9,8.1,6.8,8,6.5C7.9,6.2,7.9,6,7.9,5.8C8,5.6,8,5.6,8,5.7C8,5.7,8,6,8,6.2c0,0.2,0.1,0.4,0.2,0.4c0.1,0,0.2-0.2,0.3-0.4
		C8.6,6,8.6,5.7,8.7,5.5C8.8,5.3,8.9,5.1,9,5.1z M8.2,5.4c0.1-0.1,0.2-0.2,0.3-0.3l0,0c-0.1,0-0.1-0.1-0.1-0.1c0,0,0-0.1,0.1-0.2
		l0,0h0c0,0,0-0.1,0.1-0.1c0,0,0.1,0.1,0.1,0.2c0,0.1,0.1,0.1,0,0.2c0,0.1-0.1,0.1-0.1,0.1c0,0,0,0-0.1,0c0,0,0,0-0.1,0.1
		C8.4,5.3,8.2,5.4,8.1,5.5C8,5.6,7.9,5.7,7.8,5.7c0,0,0,0,0,0C7.9,5.6,8.1,5.5,8.2,5.4z M5.6,4.9C5.7,5,5.8,5.1,5.8,5.4
		c0,0.2,0,0.4-0.1,0.6C5.7,6,5.7,6,5.7,6c0.1-0.2,0.1-0.4,0-0.5C5.7,5.2,5.5,5.1,5.5,5.1L5.6,4.9z M4.5,5.4c0,0,0.1-0.1,0.2-0.1l0,0
		c0,0,0,0,0,0c0,0,0,0,0-0.1c0,0,0-0.1,0-0.1c0,0,0,0,0,0c0,0,0-0.1,0.1-0.1c0.1,0,0.2,0.1,0.2,0.2c0,0.1,0,0.2,0,0.2
		c0,0-0.1,0-0.2,0l0,0C4.7,5.3,4.6,5.4,4.5,5.4c0,0.1-0.1,0.2-0.1,0.2c0,0,0.3,0,0.4-0.2c0,0,0,0,0,0.1c0,0-0.2,0.2-0.3,0.2
		c-0.2,0-0.2,0-0.1-0.1C4.4,5.5,4.4,5.4,4.5,5.4z M4.5,9.5c-0.4-0.4-0.2-1-0.1-1.4C4.4,8.1,4.5,8,4.5,8C4.4,8,4.3,8.1,4.2,8.1
		c-0.1,0-0.1,0.1-0.1,0.1c0,0-0.1,0,0,0c0.1,0,0.3-0.2,0.5-0.3l0,0c0,0,0.1-0.1,0.1,0C4.8,7.7,5,7.5,5.1,7.3c0,0-0.1-0.1-0.1-0.1
		c0,0-0.1-0.1-0.1-0.1c0,0,0-0.1,0-0.1C5,7,5.1,6.9,5.2,6.9c0.1,0,0.1,0.2,0,0.4c0.1,0,0.1,0.1,0.1,0.1c0,0.1,0,0.2,0,0.2
		c0,0,0-0.1-0.1-0.1c0,0,0,0,0,0C5.1,7.5,5,7.6,4.9,7.7C4.8,7.8,4.7,8.1,4.7,8.3c0,0.3,0.1,0.6,0.6,0.5c0.5-0.1,1.1-0.6,1.2-0.7
		c0-0.1,0-0.1,0-0.2C6.3,8,6.2,8,6.1,8c-0.2,0-0.3-0.1-0.3-0.3c0-0.2,0.2-0.5,0.4-0.5c0.2,0,0.3,0.2,0.4,0.4c0,0,0,0,0,0.1
		c0,0,0.1,0,0.1,0c0-0.3,0-0.5-0.1-0.7l0,0C6.4,6.8,6.2,6.4,6.2,6.2c0,0.1,0,0.3-0.1,0.4C6,6.8,5.8,7,5.5,7C5.2,6.9,5.1,6.5,5.1,6.2
		c0-0.3,0.1-0.6,0.1-0.6C5.1,5.6,5,6.3,4.9,6.4C4.9,6.6,4.8,7,4.7,7C4.5,7,4.4,6.9,4.3,6.6c-0.1-0.3-0.1-0.6,0-0.7
		c0-0.3,0.1-0.3,0.1-0.1c0,0.1,0,0.3,0,0.6c0,0.2,0.1,0.4,0.2,0.4c0.1,0,0.2-0.2,0.3-0.4C4.9,6.1,4.9,5.8,5,5.6
		c0.1-0.2,0.2-0.4,0.3-0.4c0.1,0,0.1,0,0.1,0.1c0,0.2-0.2,0.8-0.1,1.1c0.1,0.3,0.4,0.3,0.6,0.2c0.2-0.2,0.2-0.4,0.2-0.6
		c0-0.2-0.1-0.5-0.1-0.6c0,0,0.1-0.3,0.1-0.3C6.2,5,6.3,5.1,6.3,5.3c0,0.3,0,0.6,0.1,0.7c0,0.2,0.1,0.4,0.2,0.5c0-0.5-0.1-1-0.1-1.1
		c0-0.1,0-0.2-0.1-0.2c0,0,0.1-0.3,0.1-0.3c0,0,0.2,0.4,0.2,0.5s0.1,0.2,0,0.2c0,0-0.1-0.1-0.1-0.1c0,0-0.1,0-0.1,0c0,0,0,0.1,0,0.2
		c0,0.2,0.1,0.5,0.1,0.8c0.2,0,0.3-0.1,0.4-0.2C7.2,6.3,7.1,6,7,5.8c0-0.2-0.1-0.4-0.1-0.5c0-0.1,0-0.1-0.1-0.2c0,0,0.1-0.3,0.1-0.3
		c0,0,0.2,0.3,0.2,0.4c0,0.1,0,0.1,0,0.1c0,0-0.1-0.1-0.1-0.1c0,0,0,0.1,0,0.2c0,0.1,0.1,0.4,0.1,0.6c0,0.2-0.1,0.4-0.1,0.5
		C7.1,6.8,7,6.9,6.8,6.9l0,0c0,0.2,0,0.4,0.1,0.6c0.1,0,0.2-0.1,0.2-0.1c0.2-0.1,0.4-0.2,0.4-0.2c0,0,0,0.1,0,0.2
		c0,0.1,0,0.2,0.2,0.2c0-0.3-0.1-0.6-0.1-0.9c0,0,0-0.3-0.1-0.6c0-0.3,0-0.7,0-0.7c0-0.1,0-0.2-0.1-0.2c0,0,0.1-0.3,0.1-0.3
		c0,0,0.2,0.4,0.2,0.5c0,0.1,0.1,0.2,0,0.2c0,0-0.1-0.1-0.1-0.1c0,0,0-0.1-0.1,0c0,0,0,0.1,0,0.2c0,0.1,0.1,1,0.1,1.1
		c0,0.2,0,0.5,0.1,0.8c0.1,0,0.2-0.2,0.3-0.3c0.1-0.1,0.1-0.2,0.1-0.2c0-0.1,0.1-0.1,0.1,0c0,0.1,0,0.1,0,0.2c0,0.1,0,0.1,0.1,0.2
		c0.1,0,0.2,0,0.3,0c0,0-0.1-0.1-0.1-0.1s0.1-0.3,0.1-0.3c0,0,0.1,0.1,0.1,0.4c0,0.3-0.1,0.4-0.2,0.4c-0.1,0.1-0.4,0-0.5-0.2
		C8.1,7.6,8.1,7.8,7.9,7.9c0,0.1,0,0.2,0,0.3c0,0.3,0,0.8,0,0.9c0,0.1-0.1,0.1-0.1,0.1c0-0.1,0-0.4,0-0.7c0-0.1,0-0.4,0-0.6
		c-0.3,0-0.4-0.2-0.3-0.4c-0.1,0-0.3,0.2-0.5,0.3c0,0.2,0,0.4,0,0.5c0,0.2-0.1,0.3-0.1,0.4C6.7,8.8,6.6,9,6,9.3
		C5.5,9.7,4.9,9.9,4.5,9.5z M4.4,7.4C4.3,7.4,4.3,7.4,4.4,7.4c0-0.1,0-0.2,0.1-0.2c0.1,0,0.4,0,0.4,0c0,0,0,0,0,0.1
		c0,0.1-0.1,0.2-0.2,0.3c-0.1,0-0.2,0.1-0.3,0.1c0,0,0,0,0,0c0,0,0.2-0.2,0.3-0.2C4.6,7.4,4.4,7.4,4.4,7.4z M5.3,8.1
		c0-0.1,0.1-0.3,0.1-0.3c0.1,0,0.1,0.1,0.2,0.1c0,0.1,0,0.2,0,0.2c0-0.1-0.1-0.1-0.1-0.1C5.4,7.9,5.4,8,5.3,8.1c0,0.1,0,0.3,0,0.3
		c0,0.1,0,0.1-0.1,0.1c0,0-0.1-0.4-0.2-0.4l0,0c0,0-0.2-0.1-0.2-0.1c0,0,0-0.2,0.1-0.2c0,0,0.1,0,0.2,0.1c0.1,0.1,0.1,0.3,0.1,0.4
		C5.3,8.3,5.3,8.2,5.3,8.1z M15.3,14.8c0,0.1-0.1,0.2-0.2,0.2c-0.1,0-0.2,0-0.3-0.1v0h-0.4c0,0.1,0,0.1-0.1,0.1s-0.1,0-0.1-0.1h-0.4
		l0,0c0,0.1-0.1,0.2-0.1,0.2c-0.1,0-0.2,0-0.2-0.1c0-0.1,0-0.2,0.1-0.3l-7.3,0c-0.2,0-0.5-0.1-0.6-0.3h8c0-0.1,0-0.1,0-0.2l0,0l0,0
		c0-0.1,0.1-0.2,0.1-0.2h0c0.1,0,0.1,0.1,0.1,0.1c0,0.1,0,0.2-0.1,0.3H15h0C15.2,14.3,15.3,14.5,15.3,14.8L15.3,14.8z M16.8,8.9
		c-0.1,0.3-0.3,0.5-0.5,0.6c-0.2,0.1-0.8,0.2-0.8,0.3c-0.1,0-0.1,0,0-0.1c0.2-0.1,0.6-0.3,0.9-0.5c0.3-0.2,0.4-0.3,0.4-0.4
		c0-0.1,0-0.2,0-0.4c0-0.5-0.1-1.4-0.1-1.8c-0.1-0.5-0.1-1.2-0.1-1.3c0-0.1,0-0.1-0.1-0.2c0,0,0.1-0.3,0.1-0.3c0,0,0,0,0,0.1
		c0.1,0.1,0.2,0.4,0.2,0.4c0,0.1,0.1,0.2,0,0.2c0,0-0.1-0.2-0.1-0.1c0,0.1,0,0.4,0.1,0.7c0,0.3,0.1,1.3,0.1,1.7
		C17,8.2,17,8.5,16.8,8.9z"/>
	<path fill="#005430" d="M5.1,7C5.1,7,5,7,5.1,7C5,7.1,5,7.1,5.1,7c0,0.1,0,0.2,0.1,0.2C5.2,7.1,5.2,7,5.1,7z"/>
	<path fill="#005430" d="M14.7,14.7l-0.9,0c0,0.1,0,0.1,0,0.2h0.4c0,0,0.1-0.1,0.1-0.1c0,0,0.1,0,0.1,0.1h0.4
		C14.7,14.8,14.7,14.8,14.7,14.7L14.7,14.7z"/>
	<path fill="#005430" d="M6.7,8.4c0-0.2,0-0.4,0-0.6c0,0-0.1,0-0.1,0.1c0,0,0,0.1,0,0.1c0,0.1,0,0.1-0.1,0.2c0,0.1-0.1,0.2-0.1,0.2
		C6.2,8.6,5.7,9.1,5.3,9.1C4.9,9.2,4.7,9,4.6,8.7C4.5,8.4,4.6,8,4.8,7.8c-0.1,0-0.1,0.1-0.2,0.1C4.5,8.1,4.4,8.4,4.4,8.8
		c0,0.5,0.5,0.8,1,0.6S6.5,8.8,6.7,8.4z"/>
	<path fill="#FFFFFF" d="M16.8,5.5c0-0.1,0.1,0.1,0.1,0.1c0,0,0-0.1,0-0.2c0-0.1-0.1-0.3-0.2-0.4c0-0.1,0-0.1,0-0.1
		c0,0-0.1,0.3-0.1,0.3c0,0.1,0.1,0.1,0.1,0.2c0,0.1,0,0.8,0.1,1.3c0,0.4,0.1,1.2,0.1,1.8c0,0.2,0,0.3,0,0.4c0,0.1-0.1,0.2-0.4,0.4
		c-0.3,0.2-0.7,0.4-0.9,0.5c-0.1,0.1-0.1,0.1,0,0.1c0.1,0,0.6-0.1,0.8-0.3c0.2-0.1,0.4-0.3,0.5-0.6C17,8.5,17,8.2,17,7.9
		c0-0.4-0.1-1.4-0.1-1.7C16.8,5.8,16.8,5.5,16.8,5.5z"/>
	<path fill="#FFFFFF" d="M16,5.1c0,0,0.2,0,0.3,0c0,0.1-0.3,0.2-0.3,0.2c0,0,0.2,0,0.2-0.1c0,0,0.1-0.1,0.1-0.1
		c0.1-0.1,0.1-0.2,0.1-0.2c0,0-0.3,0-0.3,0C16,4.9,16,5,16,5.1C15.9,5.1,16,5.1,16,5.1z"/>
	<path fill="#FFFFFF" d="M16.4,7.2c0-0.2,0.1-0.4,0-0.6c-0.1-0.2-0.2-0.4-0.3-0.4l0,0.2c0,0,0.1,0.1,0.2,0.3
		C16.4,6.9,16.4,7.1,16.4,7.2C16.3,7.4,16.4,7.3,16.4,7.2z"/>
	<path fill="#FFFFFF" d="M14.8,8.3c0-0.2,0-0.3,0-0.5c-0.1-0.2-0.2-0.3-0.3-0.4l0,0.2c0,0,0.1,0.1,0.2,0.3C14.8,8,14.8,8.2,14.8,8.3
		C14.8,8.4,14.8,8.4,14.8,8.3z"/>
	<path fill="#FFFFFF" d="M9.4,5.4c0.1,0.1,0.1,0.3,0,0.5c0,0.1,0,0,0-0.1C9.5,5.7,9.5,5.5,9.4,5.4c0-0.3-0.1-0.4-0.2-0.5l0,0.2
		C9.2,5.1,9.3,5.1,9.4,5.4z"/>
	<path fill="#FFFFFF" d="M5.7,5.4c0.1,0.1,0.1,0.3,0,0.5c0,0.1,0,0,0.1-0.1C5.8,5.8,5.9,5.6,5.7,5.4C5.8,5.1,5.7,5,5.6,4.9l0,0.2
		C5.5,5.1,5.7,5.2,5.7,5.4z"/>
	<path fill="#FFFFFF" d="M6.8,8.7c0.1-0.1,0.1-0.2,0.1-0.4c0-0.2,0-0.3,0-0.5c0.2-0.1,0.4-0.3,0.5-0.3C7.3,7.7,7.5,7.9,7.7,7.9
		c0,0.3,0,0.5,0,0.6c0,0.3,0,0.6,0,0.7c0,0.1,0,0,0.1-0.1c0-0.2,0.1-0.6,0-0.9c0-0.1,0-0.2,0-0.3c0.2-0.1,0.2-0.3,0.3-0.4
		c0.1,0.2,0.4,0.3,0.5,0.2c0.1-0.1,0.2-0.2,0.2-0.4c0-0.3-0.1-0.4-0.1-0.4c0,0-0.1,0.3-0.1,0.3s0.1,0.1,0.1,0.1
		c-0.1,0.1-0.2,0.1-0.3,0c-0.1,0-0.1-0.1-0.1-0.2c0-0.1,0-0.1,0-0.2c0-0.1,0,0-0.1,0c0,0.1-0.1,0.1-0.1,0.2c0,0.1-0.1,0.2-0.3,0.3
		c0-0.3,0-0.6-0.1-0.8c0-0.1-0.1-1-0.1-1.1c0-0.1,0-0.2,0-0.2c0,0,0,0,0.1,0c0,0,0.1,0.1,0.1,0.1c0,0,0-0.1,0-0.2
		c0-0.1-0.2-0.5-0.2-0.5c0,0-0.1,0.2-0.1,0.3c0,0,0.1,0.1,0.1,0.2c0,0,0,0.4,0,0.7c0,0.3,0.1,0.6,0.1,0.6c0,0.2,0,0.6,0.1,0.9
		c-0.1,0-0.2-0.2-0.2-0.2c0-0.1,0-0.2,0-0.2c0,0-0.2,0.1-0.4,0.2C7,7.4,6.9,7.4,6.9,7.5c0-0.2,0-0.4-0.1-0.6l0,0
		c0.2,0,0.3-0.1,0.3-0.2c0.1-0.1,0.1-0.3,0.1-0.5c0-0.2-0.1-0.5-0.1-0.6c0-0.1,0-0.2,0-0.2c0,0,0.1,0,0.1,0.1c0,0,0-0.1,0-0.1
		c0-0.1-0.2-0.4-0.2-0.4c0,0-0.1,0.3-0.1,0.3c0,0,0.1,0.1,0.1,0.2c0,0.1,0,0.3,0.1,0.5c0,0.2,0.1,0.4,0.2,0.5
		C7.1,6.4,6.9,6.5,6.8,6.5c0-0.3-0.1-0.6-0.1-0.8c0-0.1,0-0.2,0-0.2c0,0,0,0,0.1,0c0,0,0.1,0.1,0.1,0.1c0,0,0-0.1,0-0.2
		S6.6,4.9,6.6,4.9c0,0-0.1,0.2-0.1,0.3c0,0,0.1,0.1,0.1,0.2c0,0.1,0,0.6,0.1,1.1C6.4,6.4,6.4,6.2,6.4,6c0-0.2,0-0.5-0.1-0.7
		c0-0.1-0.1-0.3-0.2-0.4c0,0-0.1,0.3-0.1,0.3c0,0.1,0.1,0.4,0.1,0.6c0,0.2,0,0.5-0.2,0.6C5.7,6.7,5.4,6.6,5.3,6.4
		C5.2,6.1,5.4,5.5,5.4,5.3c0-0.2,0-0.2-0.1-0.1C5.2,5.2,5.1,5.3,5,5.6C4.9,5.8,4.9,6.1,4.9,6.3C4.8,6.5,4.7,6.7,4.6,6.7
		c-0.1,0-0.2-0.2-0.2-0.4c0-0.2,0-0.5,0-0.6c0-0.2,0-0.1-0.1,0.1c0,0.2,0,0.4,0,0.7C4.4,6.9,4.5,7,4.7,7c0.1,0,0.2-0.4,0.3-0.5
		c0-0.2,0.2-0.9,0.3-0.9c0,0.1-0.1,0.3-0.1,0.6c0,0.3,0,0.7,0.4,0.8C5.8,7,6,6.8,6.1,6.6c0.1-0.2,0.1-0.4,0.1-0.4
		c0,0.2,0.1,0.6,0.4,0.7l0,0c0,0.2,0,0.4,0.1,0.7c0,0-0.1,0-0.1,0c0,0,0,0,0-0.1C6.4,7.3,6.3,7.1,6.1,7.2C6,7.2,5.8,7.5,5.8,7.7
		c0,0.1,0.1,0.3,0.3,0.3c0.1,0,0.2,0,0.3,0c0,0.1,0,0.1,0,0.2C6.4,8.2,5.8,8.8,5.3,8.8C4.8,8.9,4.7,8.6,4.7,8.3
		c0-0.2,0.1-0.4,0.2-0.6C5,7.6,5.1,7.5,5.1,7.4c0,0,0,0,0,0c0.1,0,0.1,0.1,0.1,0.1c0,0,0.1-0.1,0-0.2c0,0-0.1,0-0.1-0.1
		c0.1-0.2,0.1-0.3,0-0.4C5.1,6.9,5,7,5,7c0,0,0,0.1,0,0.1c0,0,0,0.1,0.1,0.1c0,0,0.1,0.1,0.1,0.1C5,7.5,4.8,7.7,4.6,7.8
		c0,0,0,0-0.1,0l0,0C4.4,7.9,4.1,8.1,4.1,8.2c-0.1,0,0,0,0,0c0,0,0.1-0.1,0.1-0.1C4.3,8.1,4.4,8,4.5,8c0,0.1-0.1,0.1-0.1,0.2
		c-0.1,0.3-0.3,1,0.1,1.4c0.4,0.4,1,0.2,1.5-0.2C6.6,9,6.7,8.8,6.8,8.7z M6.2,7.7C6,7.7,6,7.6,6,7.6c0,0,0.1-0.1,0.2-0.1
		C6.2,7.5,6.3,7.6,6.2,7.7C6.3,7.7,6.3,7.7,6.2,7.7z M5,7.1C5,7.1,5,7.1,5,7.1C5,7,5.1,7,5,7.1c0.1-0.1,0.1,0,0.1,0.1
		C5.1,7.2,5.1,7.2,5,7.1z M4.4,8.8c0-0.4,0.1-0.7,0.2-0.9c0.1,0,0.1-0.1,0.2-0.1C4.6,8,4.5,8.4,4.6,8.7C4.7,9,4.9,9.2,5.3,9.1
		c0.4-0.1,0.9-0.5,1.1-0.7c0-0.1,0.1-0.1,0.1-0.2c0,0,0-0.1,0.1-0.2c0,0,0-0.1,0-0.1c0,0,0.1,0,0.1-0.1c0,0.2,0,0.4,0,0.6
		C6.5,8.8,5.9,9.2,5.4,9.4S4.4,9.3,4.4,8.8z"/>
	<path fill="#FFFFFF" d="M14.2,8.7c0,0.2,0,0.4,0,0.4c0,0.1,0,0,0.1-0.1c0-0.1,0-0.2,0-0.3C14.2,8.7,14.2,8.7,14.2,8.7z"/>
	<path fill="#FFFFFF" d="M14.3,8.4l0-0.3c0-0.3-0.1-1-0.1-1.3c0-0.3-0.1-0.7-0.1-1c0-0.1,0-0.2,0-0.2c0,0,0,0,0.1,0
		c0,0,0.1,0.1,0.1,0.1c0,0,0-0.1,0-0.2c0-0.1-0.2-0.5-0.2-0.5c0,0-0.1,0.2-0.1,0.3c0,0,0.1,0.1,0.1,0.2c0,0.1,0.1,0.8,0.1,1.3
		c0,0.4,0.1,0.9,0.1,1.4c0,0,0,0.3,0,0.4C14.2,8.4,14.2,8.4,14.3,8.4C14.3,8.4,14.3,8.4,14.3,8.4z"/>
	<path fill="#FFFFFF" d="M12.7,6.6c0-0.1,0.1-0.2,0.1-0.3c0-0.1,0-0.2,0-0.1C12.7,6.3,12.7,6.5,12.7,6.6c-0.1,0.2,0,0.3,0,0.4
		c0.1,0,0.1,0,0.2-0.1c0-0.1,0-0.2,0-0.2c0,0,0,0.1-0.1,0.1C12.8,6.8,12.7,6.8,12.7,6.6z"/>
	<path fill="#FFFFFF" d="M12.1,7.2c0,0.1-0.1,0.3-0.2,0.5c0,0.1,0,0.2,0.1,0.3c0.1,0,0.1,0,0.2-0.1c0-0.1,0-0.2,0-0.2
		c0,0,0,0.1-0.1,0.1c0,0-0.1-0.1-0.1-0.2c0-0.1,0.1-0.2,0.1-0.3C12.1,7.2,12.1,7.1,12.1,7.2z"/>
	<path fill="#FFFFFF" d="M10,9.1C9.9,9.2,9.8,9.4,9.7,9.5c-0.1,0.2,0,0.3,0,0.3c0.1,0.1,0.1,0,0.2-0.1c0.1-0.1,0.1-0.2,0-0.2
		c0,0-0.1,0.1-0.1,0.1c-0.1,0-0.1-0.1-0.1-0.2c0-0.1,0.1-0.2,0.1-0.3C10,9.1,10,9,10,9.1z"/>
	<path fill="#FFFFFF" d="M13.6,6.4c0-0.1,0.1-0.2,0.1-0.3c0-0.1,0-0.2,0-0.1C13.7,6,13.6,6.3,13.6,6.4c-0.1,0.2-0.1,0.3,0,0.4
		c0.1,0,0.1,0,0.2-0.1c0-0.1,0-0.2,0-0.2c0,0,0,0.1-0.1,0.1C13.7,6.6,13.6,6.5,13.6,6.4z"/>
	<path fill="#FFFFFF" d="M13.7,8.3c0.1,0,0.1,0,0.2-0.1c0-0.1,0-0.2,0-0.2c0,0,0,0.1-0.1,0.1c-0.1,0-0.1-0.1-0.1-0.2
		c0-0.1,0.1-0.2,0.1-0.3c0-0.1,0-0.2,0-0.1c-0.1,0.1-0.1,0.4-0.2,0.5C13.6,8.1,13.7,8.2,13.7,8.3z"/>
	<path fill="#FFFFFF" d="M14.7,5.9c-0.1,0.1-0.2,0.4-0.2,0.6c0,0.2,0,0.3,0.1,0.4c0.1,0.1,0.2,0,0.2-0.1c0-0.1,0-0.3,0-0.2
		c0,0,0,0.2-0.1,0.2c-0.1,0-0.2-0.1-0.1-0.2c0-0.2,0.1-0.3,0.1-0.4C14.7,6,14.7,5.8,14.7,5.9z"/>
	<path fill="#FFFFFF" d="M7.3,8C7.2,8.2,7,8.5,7,8.7C6.9,9,7,9.2,7,9.2c0.1,0.1,0.2,0,0.3-0.2c0.1-0.1,0.1-0.3,0-0.3
		c0,0-0.1,0.2-0.1,0.2C7.2,9,7.1,8.9,7.1,8.7c0-0.2,0.1-0.4,0.2-0.5C7.3,8,7.3,7.9,7.3,8z"/>
	<path fill="#FFFFFF" d="M15.2,9.7c0,0,0.4-0.3,0.5-0.3c0,0,0.1-0.1,0-0.2c0,0-0.2,0.1-0.2,0.1c-0.1,0-0.2-0.1-0.2-0.1
		c0,0,0.1-0.1,0.2-0.1c0,0,0,0.1,0,0.1c0,0,0.1-0.1,0.1-0.1c0,0,0-0.2-0.1-0.2c-0.1,0-0.3,0.3-0.3,0.4c0,0.1,0.1,0.1,0.2,0.2
		c0,0-0.1,0-0.1,0.1C15.3,9.5,15.2,9.6,15.2,9.7z"/>
	<path fill="#FFFFFF" d="M13.9,10c0,0,0.4-0.3,0.5-0.3c0,0,0.1-0.1,0-0.2c0,0-0.2,0.1-0.2,0.1c-0.1,0-0.2-0.1-0.2-0.1
		c0,0,0.1-0.1,0.2-0.1c0,0,0,0.1,0,0.1c0,0,0.1-0.1,0.1-0.1c0,0,0-0.2-0.1-0.2c-0.1,0-0.3,0.3-0.3,0.4c0,0.1,0.1,0.1,0.2,0.2
		c0,0-0.1,0-0.1,0.1C14,9.8,14,9.9,13.9,10z"/>
	<path fill="#FFFFFF" d="M11,5.5c0,0,0.3,0.4,0.4,0.6c0.2,0.2,0.5,0.6,0.7,0.8c0,0,0.1,0.1,0.1,0.1c0.1,0.5,0.1,1.2,0.1,1.4
		c0,0.3,0,0.6,0,0.7c0,0.1,0,0,0.1-0.1c0-0.2,0-0.6,0-0.9c0-0.2,0-0.5-0.1-0.9c0.1,0.2,0.3,0.3,0.3,0.4C13,8,13.1,8.1,13.2,8.3
		c0.1,0.2,0,0.3,0.1,0.3c0,0,0-0.2,0-0.4c0-0.3-0.1-0.4-0.4-0.9c-0.1-0.2-0.3-0.3-0.4-0.5c0,0,0-0.1,0-0.1c0-0.1-0.1-1-0.1-1.1
		c0-0.1,0-0.2,0-0.2c0,0,0,0,0.1,0c0,0,0.1,0.1,0.1,0.1c0,0,0-0.1,0-0.2c0-0.1-0.2-0.5-0.2-0.5c0,0-0.1,0.2-0.1,0.3
		c0,0,0.1,0.1,0.1,0.2c0,0,0,0.4,0.1,0.7c0,0.3,0.1,0.6,0.1,0.6l0,0c-0.1-0.2-0.3-0.3-0.4-0.4c-0.2-0.2-0.6-0.7-0.6-0.7
		c0,0,0,0,0.1,0c0.1,0,0.1,0,0.1,0c0,0,0-0.1-0.1-0.1c-0.1,0-0.2-0.1-0.3-0.2c-0.1-0.1-0.2-0.1-0.2-0.1c0,0,0,0.3,0,0.3
		C10.9,5.5,11,5.5,11,5.5z"/>
	<path fill="#FFFFFF" d="M11.6,5.1c0,0-0.2,0.2-0.3,0.2c0,0-0.1,0,0,0c0.1,0,0.2,0,0.3-0.1c0.1,0,0.2-0.2,0.2-0.3c0-0.1,0-0.1,0-0.1
		c0,0-0.3-0.1-0.4,0c0,0-0.1,0.2-0.1,0.2c0,0,0,0,0,0C11.4,5.1,11.6,5.1,11.6,5.1z"/>
	<path fill="#FFFFFF" d="M12.7,5.1c0,0-0.2,0.1-0.2,0.1c0,0,0,0,0,0c0,0,0.2,0,0.2-0.1c0,0,0.1-0.2,0.2-0.2c0-0.1,0-0.1,0-0.1
		c0,0-0.2,0-0.4,0c0,0-0.1,0.1-0.1,0.2c0,0,0,0,0,0C12.5,5.1,12.6,5.1,12.7,5.1z"/>
	<path fill="#FFFFFF" d="M13.6,5.1c0,0-0.2,0.1-0.2,0.1c0,0,0,0,0,0c0,0,0.2,0,0.2-0.1c0,0,0.1-0.2,0.1-0.2c0-0.1,0-0.1,0-0.1
		c0,0-0.2,0-0.3,0c0,0-0.1,0.1-0.1,0.2c0,0,0,0,0,0C13.4,5,13.6,5,13.6,5.1z"/>
	<path fill="#FFFFFF" d="M12.8,5.6c-0.1,0.1,0,0.2,0,0.3c0,0-0.1,0-0.1,0c0-0.1,0-0.2-0.1-0.2c0,0,0,0.1,0,0.1s0,0.1,0,0.2
		c0,0,0,0.1-0.1,0.1c-0.1,0,0-0.2-0.1-0.3c0,0,0,0,0,0.1c0,0,0,0.1,0,0.1c0,0,0,0.1,0,0.1c0,0,0,0.1,0.1,0.1c0.1,0,0.1-0.1,0.1-0.1
		c0,0.1,0.1,0.1,0.2,0.1C12.9,5.9,12.9,5.8,12.8,5.6C12.8,5.6,12.8,5.6,12.8,5.6z"/>
	<path fill="#FFFFFF" d="M10.1,5.3C10.1,5.4,10.1,5.4,10.1,5.3c0.1,0.1,0.1,0,0.2,0c0,0.1,0.1,0.1,0.1,0.1c0.1-0.1,0-0.2,0-0.2
		c0-0.1,0-0.1,0-0.1c-0.1,0.1,0,0.2,0,0.2c0,0-0.1,0-0.1,0c0-0.1,0-0.2,0-0.2c0,0,0,0.1,0,0.1s0,0.1,0,0.1
		C10.2,5.3,10.2,5.3,10.1,5.3c0,0,0-0.1,0-0.2c0,0,0,0,0,0.1c0,0,0,0.1,0,0.1C10.1,5.2,10.1,5.3,10.1,5.3z"/>
	<path fill="#FFFFFF" d="M11.3,9.9c0.1,0,0.2-0.1,0.3-0.2c0.1-0.1,0.2-0.2,0.2-0.3c0-0.1,0-0.1,0-0.1s0,0,0.1,0.1c0.1,0,0.1,0,0.1,0
		c0,0,0-0.1,0-0.1S12,9.1,12,9c-0.1,0-0.1,0-0.1,0.1l0,0c0,0,0,0,0,0.1c0,0.1,0,0.1-0.1,0.2C11.6,9.5,11.4,9.7,11.3,9.9
		C11.1,9.9,11,10,11,10c0,0,0,0,0,0C11,10,11.2,9.9,11.3,9.9z M11.9,9.2C12,9.2,12,9.2,11.9,9.2C12,9.2,11.9,9.2,11.9,9.2
		C11.9,9.2,11.9,9.1,11.9,9.2z"/>
	<path fill="#FFFFFF" d="M11.2,9.8c0-0.1,0-0.4,0-0.4c-0.1,0-0.4-0.1-0.5-0.3c0.1-0.1,0.3-0.2,0.7-0.4c0.3-0.1,0.7-0.3,0.8-0.4
		c0,0,0.1,0,0.1,0c0-0.1,0.1-0.3,0.1-0.3c-0.1,0-0.7,0.1-0.9,0.1c-0.3,0-0.8,0-0.9,0c0.1-0.1,0.3-0.3,0.7-0.4c0,0,0.1,0,0.1-0.1
		c0,0.1,0,0.1,0.1,0.2c0,0,0-0.1,0-0.2c0.2-0.1,0.3-0.1,0.3-0.1c0,0,0.1-0.2,0.1-0.4c0-0.1-0.1-0.1-0.2-0.2
		c-0.1-0.1-0.2-0.2-0.4-0.1c-0.2,0.1-0.2,0.4-0.2,0.5c0,0,0,0.1,0.1,0.1c-0.1,0.1-0.3,0.1-0.4,0.2c-0.3,0.2-0.5,0.3-0.6,0.5l0,0
		c0,0-0.1,0.3-0.1,0.3c0.1,0,0.4,0,0.7,0c0.3,0,0.5,0,0.6,0c-0.1,0-0.5,0.2-0.6,0.3c-0.1,0.1-0.2,0.2-0.2,0.5
		c-0.1,0-0.3-0.2-0.4-0.4C10,8.7,10.1,8.4,10,8C9.9,7.4,9.7,7,9.6,6.8c0,0.2-0.1,0.3-0.1,0.3s0.2,0.4,0.3,0.7
		c0.1,0.3,0.2,0.6,0.2,0.6C9.8,8.7,9.4,9.1,9.1,9.3C8.8,9.5,8.5,9.6,8.4,9.4c0,0,0-0.1,0-0.1c0,0,0.1-0.1,0.1-0.1
		c0.3-0.2,0.8-0.5,0.9-0.7C9.5,8.3,9.5,8,9.5,7.9C9.4,7.7,9.3,7.5,9.3,7.4c0,0,0.1,0,0.1,0c0,0,0,0,0-0.1c0-0.1-0.2-0.2-0.3-0.3
		c0,0,0,0,0,0c0,0.1,0,0.2,0,0.3l0,0c0,0,0,0,0,0.1c0,0.1,0.1,0.2,0.1,0.4C9.3,8,9.4,8.2,9.4,8.3C9.3,8.4,8.8,8.7,8.4,9
		c0-0.1,0.1-0.2,0.1-0.4c0,0,0-0.1,0-0.1c0-0.1,0.1-0.2,0-0.2c0,0,0,0.1-0.1,0.1c-0.1,0-0.1-0.1-0.1-0.2c0-0.1,0.1-0.3,0.1-0.3
		c0-0.1,0-0.2,0-0.2C8.4,7.9,8.3,8.1,8.3,8.3c0,0.2,0,0.3,0.1,0.3c0,0,0,0,0.1,0c0,0.1-0.1,0.2-0.1,0.3C8.1,9.1,7.9,9.2,7.8,9.3
		C7.2,9.5,6.9,9.6,6.6,9.8l0,0c0-0.1,0-0.1,0-0.1c0,0,0,0.1-0.1,0.1c-0.1,0-0.1-0.1-0.1-0.2c0-0.1,0.1-0.3,0.1-0.3
		c0-0.1,0-0.2,0-0.2C6.4,9.2,6.3,9.4,6.3,9.6c0,0.2,0,0.3,0.1,0.3c0.1,0.1,0.1,0,0.2-0.1l0,0c0,0,0,0,0.1,0c0.1,0,0.4-0.1,0.9-0.2
		c0.3,0,0.5-0.2,0.7-0.3c0,0,0,0.1,0,0.1c0,0.3,0.2,0.4,0.5,0.4C9,9.8,9.3,9.5,9.5,9.3c0.2-0.2,0.3-0.4,0.4-0.4
		C9.9,8.7,10,8.5,10,8.5c0,0.2,0,0.5,0.2,0.8C10.3,9.5,10.6,9.8,11.2,9.8z M11.2,7.3c0.1-0.1,0.3,0,0.4,0.1c-0.1,0-0.2,0.1-0.3,0.1
		C11.2,7.4,11.2,7.3,11.2,7.3z"/>
	<path fill="#FFFFFF" d="M7.8,5.7c0,0,0.2-0.1,0.3-0.2c0.1-0.1,0.2-0.2,0.3-0.3c0,0,0,0,0.1-0.1c0,0,0.1,0,0.1,0c0,0,0.1,0,0.1-0.1
		c0-0.1,0-0.1,0-0.2c0-0.1-0.1-0.1-0.1-0.2c0,0-0.1,0.1-0.1,0.1h0l0,0C8.4,4.9,8.3,5,8.3,5.1c0,0,0,0.1,0.1,0.1l0,0
		C8.4,5.3,8.3,5.4,8.2,5.4C8.1,5.5,7.9,5.6,7.8,5.7C7.8,5.7,7.8,5.7,7.8,5.7z M8.5,5L8.5,5c0.1,0,0.1,0.1,0.1,0.1
		C8.6,5.2,8.6,5.1,8.5,5C8.5,5.1,8.5,5.1,8.5,5z M8.4,5C8.4,5,8.4,5,8.4,5c0.1-0.1,0.1,0,0.1,0l0,0L8.4,5C8.4,5.1,8.4,5.1,8.4,5z"/>
	<path fill="#FFFFFF" d="M10.3,7.5c-0.1,0-0.1-0.3-0.1-0.4c0,0,0,0.1,0,0.1c0,0,0,0.1,0,0.1c0,0.1,0,0.1,0,0.2c0,0.1,0,0.1,0.1,0.1
		c0.1,0,0.2-0.1,0.2-0.2c0,0.1,0.2,0.2,0.2,0.1c0.1-0.1,0-0.3,0-0.4l0,0c0,0,0,0,0.1,0c0.1,0,0.2-0.2,0.3-0.3
		c0.1-0.1,0.1-0.2,0.2-0.3c0,0,0.1,0,0.1,0.1c0.1,0,0.1,0.1,0.1,0.1c0,0,0.1-0.1,0-0.2c0,0-0.1-0.1-0.1-0.1c0-0.1,0.1-0.3,0-0.3
		c-0.1,0-0.2,0-0.2,0.1c0,0.1,0,0.2,0,0.2c0,0,0,0,0.1,0c-0.1,0.1-0.2,0.2-0.3,0.3c-0.1,0.1-0.2,0.2-0.3,0.3l0,0c0-0.1,0-0.1,0-0.1
		c-0.1,0.2,0,0.3,0.1,0.4c-0.1,0.1-0.1,0-0.2,0c-0.1-0.1,0-0.3-0.1-0.3c0,0.1,0,0.1,0,0.1s0.1,0.1,0,0.2C10.4,7.5,10.3,7.5,10.3,7.5
		z M11.1,6.3c0-0.1,0.1-0.1,0.1,0c0,0,0,0.1,0,0.2C11.2,6.3,11.1,6.3,11.1,6.3z"/>
	<path fill="#FFFFFF" d="M8.3,6.6C8.1,6.6,8.1,6.4,8,6.2C8,6,8,5.7,8,5.7c0-0.1-0.1,0-0.1,0.1c0,0.2,0,0.4,0,0.7
		c0.1,0.3,0.2,0.4,0.4,0.4c0.1,0,0.2-0.4,0.3-0.5c0-0.2,0.2-0.8,0.3-0.8c0,0.1-0.1,0.3-0.1,0.6c0,0.3,0,0.7,0.3,0.8
		c0.3,0.1,0.5-0.2,0.6-0.3C9.8,6.3,9.9,6.1,9.9,6c0,0.2,0.1,0.6,0.4,0.7c0.2,0.1,0.4,0,0.5-0.1c0.1-0.1,0.1-0.3,0.1-0.5
		c0-0.2-0.1-0.5-0.2-0.6c0-0.1,0-0.2,0-0.2c0,0,0.1,0,0.1,0.1c0,0,0-0.1,0-0.1c0-0.1-0.2-0.4-0.2-0.4c0,0-0.1,0.3-0.1,0.3
		c0,0,0.1,0.1,0.1,0.2c0,0.1,0.1,0.3,0.1,0.5c0,0.2,0.1,0.4,0.1,0.5c-0.1,0.1-0.3,0.2-0.5,0.1c-0.2-0.1-0.3-0.2-0.3-0.5
		c0-0.2,0-0.5-0.1-0.7c0-0.1-0.1-0.3-0.2-0.4c0,0-0.1,0.3-0.1,0.3c0,0.1,0.1,0.4,0.1,0.6c0,0.2,0,0.5-0.2,0.6C9.4,6.5,9,6.5,8.9,6.2
		C8.9,6,9,5.4,9,5.2C9,5.1,9,5.1,9,5.1c-0.1,0-0.2,0.2-0.3,0.4C8.6,5.7,8.6,6,8.5,6.2C8.5,6.4,8.4,6.6,8.3,6.6z"/>
	<path fill="#FFFFFF" d="M4.5,5.7c0.2,0,0.3-0.2,0.3-0.2c0,0,0.1-0.1,0-0.1C4.7,5.6,4.4,5.6,4.4,5.6c0,0,0.1-0.1,0.2-0.2
		c0.1,0,0.1-0.1,0.1-0.2l0,0c0.1,0,0.2,0.1,0.2,0c0,0,0-0.1,0-0.2c0-0.1-0.1-0.1-0.2-0.2c-0.1,0-0.1,0-0.1,0.1c0,0,0,0,0,0
		c0,0,0,0.1,0,0.1c0,0,0,0,0,0.1c0,0,0,0,0,0l0,0C4.6,5.3,4.5,5.4,4.5,5.4c-0.1,0-0.1,0.1-0.2,0.2C4.3,5.7,4.3,5.7,4.5,5.7z
		 M4.8,5.1L4.8,5.1L4.8,5.1c0.1,0,0.1,0.1,0.1,0.1C4.9,5.2,4.8,5.2,4.8,5.1C4.8,5.2,4.8,5.1,4.8,5.1z M4.6,5.1
		C4.6,5.1,4.6,5,4.6,5.1C4.7,5,4.7,5,4.8,5.1C4.7,5.1,4.7,5.1,4.6,5.1C4.7,5.2,4.6,5.1,4.6,5.1z"/>
	<path fill="#FFFFFF" d="M5,7.9c0,0-0.1,0.2-0.1,0.2c0,0,0.2,0.1,0.2,0.1l0,0c0.1,0.1,0.1,0.4,0.2,0.4c0,0,0,0,0.1-0.1
		c0-0.1,0-0.2,0-0.3c0-0.1,0-0.2,0.1-0.2C5.5,7.9,5.5,8,5.6,8c0,0,0-0.1,0-0.2c0,0-0.1-0.2-0.2-0.1C5.4,7.8,5.3,8,5.3,8.1
		c0,0.1,0,0.2,0,0.3c0-0.1-0.1-0.3-0.1-0.4C5.1,7.9,5,7.8,5,7.9z"/>
	<path fill="#FFFFFF" d="M4.4,7.7c0.1,0,0.2,0,0.3-0.1c0.1,0,0.2-0.2,0.2-0.3c0-0.1,0-0.1,0-0.1c0,0-0.3-0.1-0.4,0
		c0,0-0.1,0.2-0.1,0.2c0,0,0,0,0,0c0,0,0.2,0,0.3,0C4.6,7.5,4.4,7.6,4.4,7.7C4.4,7.7,4.3,7.7,4.4,7.7z"/>
	<path fill="#FFFFFF" d="M13.2,6.6c0,0.4,0.2,1.1,0.2,1.6c0,0.2,0,0.3,0,0.4c0,0.1-0.1,0.2-0.4,0.4c0-0.3,0-0.6,0-0.6
		c0,0,0,0.2-0.1,0.3c0,0.1,0,0.2,0,0.3c-0.3,0.3-0.7,0.5-0.9,0.6c-0.1,0.1-0.1,0.1,0,0.1c0.1,0,0.6-0.2,0.9-0.4l0,0
		c0,0.1,0,0.1,0.1,0.2c0.1,0.2,0.2,0.4,0.4,0.4c0.1,0,0.2-0.2,0.3-0.4C13.7,9.4,13.8,9,14,8.8c0.1-0.1,0.1-0.1,0.2-0.1c0,0,0,0,0,0
		c0,0,0.1,0,0.1,0c0,0,0,0,0,0c0,0,0.1,0.1,0.1,0.1c0,0.1,0.1,0.2,0.2,0.3c0.1,0.2,0.4,0.1,0.5,0c0.2-0.1,0.3-0.2,0.3-0.4
		c0.1-0.3,0.1-0.6,0-0.9c0-0.3-0.1-0.6-0.1-1c0-0.1,0-0.3,0-0.4c0.2,0.2,0.3,0.5,0.4,0.6c0,0,0.1,0.1,0.1,0.1c0,0.5,0.1,1.2,0.1,1.4
		c0,0.3,0,0.6,0,0.7c0,0.1,0,0,0.1-0.1C16,9,16,8.6,16,8.3c0-0.2,0-0.5,0-0.8c0.1,0.2,0.2,0.4,0.3,0.5c0.1,0.2,0.3,0.5,0.3,0.7
		c0,0.2,0,0.2,0.1,0.2c0,0,0-0.1,0-0.3c0-0.2-0.1-0.5-0.4-0.9c-0.1-0.2-0.2-0.4-0.4-0.6C16,7,16,7,16,6.9c0-0.3-0.1-0.9-0.1-1.2
		c0-0.1,0-0.2,0-0.2c0,0,0,0,0.1,0c0,0,0.1,0.1,0.1,0.1c0,0,0-0.1,0-0.2c0-0.1-0.2-0.5-0.2-0.5c0,0-0.1,0.2-0.1,0.3
		c0,0,0.1,0.1,0.1,0.2c0,0.1,0.1,0.9,0.1,1.5l0,0c-0.2-0.3-0.4-0.6-0.5-0.7c0,0,0,0,0-0.1c0-0.1,0-0.3,0-0.4c0-0.1,0-0.2,0-0.2
		c0,0,0,0,0.1,0c0,0,0.1,0.1,0.1,0.1c0,0,0-0.1,0-0.2c0-0.1-0.2-0.5-0.2-0.5c0,0-0.1,0.3-0.1,0.3c0,0,0.1,0.1,0.1,0.2
		c0,0.1,0,0.2,0,0.5c-0.1-0.2-0.3-0.4-0.3-0.5c0,0,0,0,0.1,0c0.1,0,0.1,0,0.1,0c0,0,0-0.1-0.1-0.1c-0.1,0-0.2-0.1-0.3-0.2
		c-0.1-0.1-0.2-0.1-0.2-0.1c0,0,0,0.3,0,0.3c0,0,0.1,0,0.1,0.1c0,0.1,0.2,0.4,0.4,0.6c0,0.1,0.1,0.2,0.2,0.3c0,0.2,0,0.4,0,0.6
		c0,0.4,0.1,1.5,0.1,1.9c-0.1,0.1-0.3,0.2-0.4,0.2c-0.2,0-0.3-0.1-0.4-0.2c0-0.1,0-0.1-0.1-0.1c0-0.1-0.1-0.1-0.1-0.1
		c0,0-0.1,0-0.1,0c0,0,0,0,0,0l0,0l0,0c-0.1,0-0.1,0.1-0.2,0.2c-0.1,0.2-0.2,0.4-0.3,0.6c-0.1,0.2-0.2,0.3-0.3,0.3
		c-0.1,0-0.2-0.1-0.3-0.3c0.2-0.1,0.3-0.3,0.4-0.5c0.1-0.3,0.1-0.7,0.1-1c0-0.4-0.1-1.2-0.2-1.6c0-0.3-0.1-0.6-0.1-0.7
		c0-0.1,0.1,0.1,0.1,0.1c0,0,0-0.1,0-0.2c0-0.1-0.1-0.3-0.2-0.5c0-0.1,0-0.1-0.1-0.1c0,0-0.1,0.3-0.1,0.3C13,5.2,13,5.2,13,5.3
		C13,5.4,13.1,6.1,13.2,6.6z"/>
	<path fill="#FFFFFF" d="M15,14.3L15,14.3h-1.1C14,14.3,14,14.1,14,14c0-0.1-0.1-0.1-0.1-0.1h0c-0.1,0-0.1,0.1-0.1,0.2l0,0l0,0
		c0,0.1,0,0.1,0,0.2h-8c0.1,0.2,0.3,0.3,0.6,0.3l7.3,0c-0.1,0.1-0.1,0.2-0.1,0.3c0,0.1,0.1,0.1,0.2,0.1c0.1,0,0.1-0.1,0.1-0.2l0,0
		h0.4c0,0.1,0,0.1,0.1,0.1s0.1,0,0.1-0.1h0.4v0C14.9,15,15,15,15.1,15c0.1,0,0.2-0.1,0.2-0.2v-0.1C15.3,14.5,15.2,14.3,15,14.3z
		 M14.4,14.8C14.4,14.8,14.3,14.8,14.4,14.8c-0.1-0.1-0.2,0-0.2,0h-0.4c0-0.1,0-0.1,0-0.2l0.9,0l0,0.1c0,0,0.1,0.1,0.1,0.1H14.4z"/>
</g>
</svg>
