<svg width="21" height="20" viewBox="0 0 21 20" fill="none" xmlns="http://www.w3.org/2000/svg">
<g clip-path="url(#clip0)">
<path d="M10.8823 20C16.4051 20 20.8823 15.5228 20.8823 10C20.8823 4.47715 16.4051 0 10.8823 0C5.35947 0 0.882324 4.47715 0.882324 10C0.882324 15.5228 5.35947 20 10.8823 20Z" fill="#FFDA44"/>
<path d="M8.70853 8.69566H20.7977C20.1585 3.78914 15.9631 0 10.8824 0C10.1358 0 9.40845 0.0825391 8.70849 0.237695L8.70853 8.69566Z" fill="#0C6ADB"/>
<path d="M6.09977 8.69567V1.21594C3.35391 2.71415 1.38825 5.46223 0.967041 8.69571L6.09977 8.69567Z" fill="#0C6ADB"/>
<path d="M6.09973 11.3044H0.967041C1.38825 14.5379 3.35391 17.2859 6.09977 18.7841L6.09973 11.3044Z" fill="#0C6ADB"/>
<path d="M8.70849 11.3044V19.7624C9.40845 19.9175 10.1358 20 10.8824 20C15.9631 20 20.1585 16.2109 20.7977 11.3044H8.70849Z" fill="#0C6ADB"/>
</g>
<defs>
<clipPath id="clip0">
<rect width="20" height="20" fill="white" transform="translate(0.882324)"/>
</clipPath>
</defs>
</svg>
