<svg width="20" height="20" fill="none" xmlns="http://www.w3.org/2000/svg"><path d="M20 10c0 5.523-4.477 10-10 10S0 15.523 0 10L10 0c5.523 0 10 4.477 10 10z" fill="#D80027"/><path d="M10 10V0C4.477 0 0 4.477 0 10h10z" fill="#0052B4"/><path d="M8.696 5.852l-1.222.575.65 1.183-1.326-.254-.168 1.34-.923-.986-.924.986-.168-1.34-1.326.254.65-1.183-1.221-.575 1.221-.574-.65-1.183 1.326.254.168-1.34.924.985.923-.985.168 1.34 1.327-.254-.65 1.183 1.22.574z" fill="#F0F0F0"/><path d="M5.707 7.714a1.861 1.861 0 100-3.723 1.861 1.861 0 000 3.723z" fill="#0052B4"/><path d="M5.707 6.844a.993.993 0 010-1.984.993.993 0 010 1.984z" fill="#F0F0F0"/></svg>