<svg width="21" height="20" viewBox="0 0 21 20" fill="none" xmlns="http://www.w3.org/2000/svg">
<g clip-path="url(#clip0)">
<circle cx="11.0127" cy="10" r="10" fill="#D80027"/>
<path d="M12.2869 7.28931L13.1419 8.60582L14.6582 8.19954L13.6703 9.41948L14.5252 10.736L13.0597 10.1734L12.0718 11.3934L12.154 9.82576L10.6885 9.26321L12.2048 8.85692L12.2869 7.28931Z" fill="white"/>
<path d="M10.7439 7.30144C10.295 7.0515 9.77796 6.90912 9.22769 6.90912C7.50374 6.90912 6.1062 8.30666 6.1062 10.0306C6.1062 11.7546 7.50374 13.1521 9.22769 13.1521C9.77796 13.1521 10.295 13.0097 10.7439 12.7598C10.0018 13.5756 8.93166 14.0877 7.74191 14.0877C5.50124 14.0877 3.68481 12.2713 3.68481 10.0306C3.68481 7.78993 5.50124 5.97351 7.74191 5.97351C8.93165 5.97351 10.0018 6.48562 10.7439 7.30144Z" fill="white"/>
</g>
<defs>
<clipPath id="clip0">
<rect width="20" height="20" fill="white" transform="translate(0.967041)"/>
</clipPath>
</defs>
</svg>
