<svg width="21" height="20" viewBox="0 0 21 20" fill="none" xmlns="http://www.w3.org/2000/svg">
<g clip-path="url(#clip0)">
<path d="M10.8823 20C16.4052 20 20.8823 15.5228 20.8823 10C20.8823 4.47715 16.4052 0 10.8823 0C5.35948 0 0.882324 4.47715 0.882324 10C0.882324 15.5228 5.35948 20 10.8823 20Z" fill="#F0F0F0"/>
<path d="M10.4473 10H20.882C20.882 9.09745 20.7617 8.22307 20.5375 7.3913H10.4473V10Z" fill="#D80027"/>
<path d="M10.4473 4.78263H19.4143C18.8022 3.78372 18.0195 2.90079 17.1069 2.17392H10.4473V4.78263Z" fill="#D80027"/>
<path d="M10.8821 20C13.2356 20 15.3988 19.1866 17.107 17.8261H4.65727C6.36547 19.1866 8.52864 20 10.8821 20Z" fill="#D80027"/>
<path d="M2.3498 15.2174H19.4143C19.9058 14.4155 20.2869 13.5389 20.5376 12.6087H1.22656C1.47723 13.5389 1.85836 14.4155 2.3498 15.2174Z" fill="#D80027"/>
<path d="M5.51451 1.56164H6.4258L5.57814 2.17746L5.90193 3.17391L5.05432 2.55809L4.2067 3.17391L4.48639 2.31309C3.74006 2.93477 3.08592 3.66313 2.54686 4.47469H2.83885L2.29928 4.86668C2.21521 5.00691 2.13459 5.14937 2.05732 5.29395L2.31498 6.08695L1.83428 5.7377C1.71479 5.99086 1.60549 6.24973 1.50725 6.51398L1.79111 7.38773H2.83885L1.99119 8.00355L2.31498 9L1.46736 8.38418L0.959629 8.75309C0.908809 9.1616 0.882324 9.5777 0.882324 10H10.8823C10.8823 4.47719 10.8823 3.82609 10.8823 0C8.90686 0 7.06533 0.573047 5.51451 1.56164ZM5.90193 9L5.05432 8.38418L4.2067 9L4.53049 8.00355L3.68283 7.38773H4.73057L5.05432 6.39129L5.37807 7.38773H6.4258L5.57814 8.00355L5.90193 9ZM5.57814 5.09051L5.90193 6.08695L5.05432 5.47113L4.2067 6.08695L4.53049 5.09051L3.68283 4.47469H4.73057L5.05432 3.47824L5.37807 4.47469H6.4258L5.57814 5.09051ZM9.48889 9L8.64127 8.38418L7.79365 9L8.11744 8.00355L7.26979 7.38773H8.31752L8.64127 6.39129L8.96502 7.38773H10.0128L9.1651 8.00355L9.48889 9ZM9.1651 5.09051L9.48889 6.08695L8.64127 5.47113L7.79365 6.08695L8.11744 5.09051L7.26979 4.47469H8.31752L8.64127 3.47824L8.96502 4.47469H10.0128L9.1651 5.09051ZM9.1651 2.17746L9.48889 3.17391L8.64127 2.55809L7.79365 3.17391L8.11744 2.17746L7.26979 1.56164H8.31752L8.64127 0.565195L8.96502 1.56164H10.0128L9.1651 2.17746Z" fill="#0052B4"/>
</g>
<defs>
<clipPath id="clip0">
<rect width="20" height="20" fill="white" transform="translate(0.882324)"/>
</clipPath>
</defs>
</svg>
