<?xml version="1.0" encoding="utf-8"?>
<!-- Generator: Adobe Illustrator 27.4.1, SVG Export Plug-In . SVG Version: 6.00 Build 0)  -->
<svg version="1.2" baseProfile="tiny" id="Layer_1" xmlns="http://www.w3.org/2000/svg" xmlns:xlink="http://www.w3.org/1999/xlink"
	 x="0px" y="0px" viewBox="0 0 21 20" overflow="visible" xml:space="preserve">
<g>
	<path fill="#FFFFFF" d="M19.9,14.3c0.4-0.9,0.7-1.8,0.9-2.9h-5.6V8.6h5.6c-0.1-1-0.4-2-0.9-2.9h-4.7V2.9h2.7
		c-1.8-1.8-4.3-2.9-7-2.9c-5.5,0-10,4.5-10,10c0,1.5,0.4,3,1,4.3H19.9z M3.3,5.1c0.4,0.4,0.6,0.4,1,0.3c0.3,0,0.8-0.1,1.6,0.2
		L4.2,3.3l2.3,1.6c0-0.6-0.2-1-0.4-1.3C5.8,3.3,5.7,3,6,2.3c0,0,0,0,0,0l0,0c0,0,0,0,0,0l0.1-0.2l0,0.2c0,0.6,0.2,0.8,0.5,1
		c0.3,0.2,0.6,0.5,0.9,1.2L8,1.7l0.5,2.7C8.9,4,9,3.6,9.1,3.3C9.2,2.8,9.3,2.5,10,2.3c0,0,0,0,0,0l0,0c0,0,0,0,0,0l0.2-0.1L10,2.4
		C9.6,2.8,9.7,3,9.7,3.4c0,0.3,0.1,0.8-0.2,1.6l2.4-1.7l-1.6,2.3c0.6,0,1-0.2,1.3-0.4c0.4-0.2,0.6-0.4,1.3-0.1c0,0,0,0,0,0l0,0
		c0,0,0,0,0,0L13,5.2l-0.2,0c-0.6,0-0.7,0.2-1,0.5c-0.2,0.3-0.5,0.6-1.3,0.9l2.9,0.5l-2.7,0.5c0.5,0.4,0.8,0.5,1.2,0.6
		c0.4,0.1,0.7,0.2,0.9,0.9c0,0,0,0,0,0l0,0c0,0,0,0,0,0l0.1,0.2l-0.1-0.1c-0.4-0.4-0.6-0.4-1-0.3c-0.3,0-0.8,0.1-1.6-0.2l1.7,2.4
		L9.6,9.4c0,0.6,0.2,1,0.4,1.3c0.2,0.4,0.4,0.6,0.1,1.3c0,0,0,0,0,0l0,0c0,0,0,0,0,0L10,12.1l0-0.2c0-0.6-0.2-0.7-0.5-1
		c-0.3-0.2-0.6-0.5-1-1.3L8,12.6L7.5,9.9C7.1,10.3,7,10.7,6.9,11c-0.1,0.4-0.2,0.7-0.9,0.9c0,0,0,0,0,0l0,0c0,0,0,0,0,0L5.9,12
		L6,11.9c0.4-0.4,0.4-0.6,0.3-1c0-0.3-0.1-0.8,0.2-1.6L4.2,11l1.6-2.3c-0.6,0-1,0.2-1.3,0.4C4.3,9.2,4.1,9.3,3.8,9.3
		c-0.2,0-0.4-0.1-0.6-0.2c0,0,0,0,0,0l0,0c0,0,0,0,0,0L3,9.1l0.2,0c0.6,0,0.7-0.2,0.9-0.5c0.2-0.3,0.5-0.6,1.3-1L2.6,7.1l2.7-0.5
		C4.8,6.2,4.5,6.1,4.1,6C3.7,5.9,3.4,5.8,3.3,5.1C3.2,5.2,3.2,5.2,3.3,5.1L3.3,5.1C3.2,5.2,3.2,5.2,3.3,5.1L3.1,5L3.3,5.1z"/>
	<path fill="#FFFFFF" d="M10.9,20c2.7,0,5.2-1.1,7-2.9h-14C5.7,18.9,8.2,20,10.9,20z"/>
	<path fill="#0038A8" d="M15.2,5.7h4.7c-0.5-1.1-1.2-2-2-2.9h-2.7V5.7z"/>
	<path fill="#0038A8" d="M15.2,11.4h5.6c0.1-0.5,0.1-0.9,0.1-1.4s0-1-0.1-1.4h-5.6V11.4z"/>
	<path fill="#0038A8" d="M3.9,17.1h14c0.8-0.8,1.5-1.8,2-2.9h-18C2.4,15.4,3.1,16.3,3.9,17.1z"/>
	<path fill="#FCD116" d="M6.4,10.9c0,0.3,0.1,0.5-0.2,0.8c0.2-0.2,0.3-0.5,0.3-0.9c0.1-0.5,0.2-1.1,0.6-1.9L6.7,9.3
		C6.3,10.1,6.4,10.6,6.4,10.9z"/>
	<path fill="#7B3F00" d="M6.9,11c-0.1,0.3-0.2,0.6-0.6,0.8l-0.2,0.1l0,0c0,0-0.1,0.1-0.1,0.1C6.7,11.8,6.8,11.4,6.9,11
		c0.1-0.3,0.2-0.7,0.6-1.2l0,0C7.1,10.3,7,10.7,6.9,11z"/>
	<path fill="#7B3F00" d="M6,11.9c0.1-0.1,0.2-0.1,0.3-0.2c0.2-0.3,0.2-0.5,0.2-0.8c0-0.3-0.1-0.8,0.2-1.7L6.6,9.3
		c-0.3,0.8-0.3,1.2-0.2,1.6C6.4,11.3,6.4,11.5,6,11.9L5.9,12L6,11.9C6.1,12,6.1,12,6,11.9L6,11.9z"/>
	<path fill="#FCD116" d="M4.3,8.7C4.1,8.9,3.9,9.1,3.6,9.1c0.3,0,0.6-0.2,0.9-0.4c0.4-0.3,0.9-0.7,1.8-0.9L5.6,7.7
		C4.8,8,4.5,8.4,4.3,8.7z"/>
	<path fill="#7B3F00" d="M3.2,9.1c0.1,0,0.2,0.1,0.3,0.1c0.4-0.1,0.5-0.2,0.7-0.5c0.2-0.3,0.5-0.6,1.3-1l-0.2,0
		c-0.7,0.3-1,0.7-1.3,1C4,8.9,3.8,9.1,3.2,9.1L3,9.1L3.2,9.1C3.2,9.2,3.2,9.2,3.2,9.1L3.2,9.1z"/>
	<path fill="#7B3F00" d="M4.5,9.1C4.3,9.2,4.1,9.3,3.8,9.3c-0.1,0-0.2,0-0.4-0.1L3.3,9.2l0.1,0c0,0-0.1,0-0.1,0
		c0.3,0.1,0.4,0.2,0.6,0.2C4.1,9.3,4.3,9.2,4.5,9.1c0.3-0.1,0.6-0.3,1.3-0.4l0,0C5.1,8.7,4.8,8.9,4.5,9.1z"/>
	<path fill="#7B3F00" d="M4.5,8.8C4.3,9,4.1,9.1,3.9,9.2c-0.1,0-0.2,0-0.3,0.1c0.3,0.1,0.5,0,0.8-0.2c0.3-0.2,0.7-0.4,1.3-0.4
		l0.5-0.7C5.4,8.2,4.9,8.5,4.5,8.8L4.5,8.8z"/>
	<path fill="#7B3F00" d="M4.5,8.8C4.2,9,3.9,9.2,3.6,9.2c-0.1,0-0.2,0-0.2,0l-0.1,0l0.2,0.1c0.1,0,0.3,0.1,0.4,0.1
		c0.2,0,0.4-0.1,0.6-0.2c0.3-0.2,0.6-0.4,1.3-0.4l0,0c-0.7,0-1,0.2-1.3,0.4C4.2,9.2,4,9.3,3.6,9.3c0.1,0,0.2,0,0.3-0.1
		C4.1,9.1,4.3,9,4.5,8.8L4.5,8.8c0.4-0.3,0.9-0.6,1.8-0.9l0,0C5.4,8.1,4.9,8.5,4.5,8.8z"/>
	<path fill="#7B3F00" d="M3.6,9.2c0.3,0,0.6-0.2,0.9-0.4c0.4-0.3,0.9-0.7,1.8-0.9l0-0.1l-0.1,0C5.4,8.1,4.8,8.4,4.5,8.7
		C4.1,9,3.9,9.1,3.6,9.2C3.5,9.1,3.4,9.1,3.2,9.1l0,0.1l0,0c0,0,0,0,0,0c0,0,0.1,0,0.1,0C3.4,9.2,3.5,9.2,3.6,9.2z"/>
	<path fill="#FCD116" d="M6.4,7.9l-1.7,2.5l2-2C6.6,8.2,6.5,8.1,6.4,7.9z"/>
	<path fill="#7B3F00" d="M6.7,9.3l0.6-0.4c0,0,0-0.1,0-0.1l-2.9,2l2.4-2.4c0,0,0,0,0,0l-2,2l1.7-2.5c0,0,0,0,0-0.1l0,0l0,0.1l0,0
		L5.8,8.7l0,0l0,0L4.2,11l2.4-1.7L6.7,9.3z"/>
	<path fill="#FCD116" d="M4.4,5.7c0.5,0.1,1.1,0.2,1.9,0.6L5.9,5.8C5.1,5.5,4.6,5.5,4.3,5.6c-0.3,0-0.5,0-0.8-0.2
		C3.7,5.6,4,5.7,4.4,5.7z"/>
	<path fill="#7B3F00" d="M4.1,6C3.8,5.9,3.5,5.8,3.3,5.4L3.2,5.2l0,0c0,0-0.1-0.1-0.1-0.1C3.4,5.8,3.7,5.9,4.1,6
		c0.3,0.1,0.7,0.2,1.2,0.6l0,0C4.9,6.2,4.5,6.1,4.1,6z"/>
	<path fill="#7B3F00" d="M3.2,5.2L3.2,5.2c0.1,0.1,0.2,0.2,0.3,0.2C3.8,5.6,4,5.6,4.3,5.6c0.4,0,0.8-0.1,1.7,0.2L5.8,5.7
		C5,5.4,4.6,5.4,4.3,5.5C3.9,5.5,3.7,5.5,3.2,5.2L3.1,5L3.2,5.2C3.2,5.2,3.2,5.2,3.2,5.2z"/>
	<path fill="#7B3F00" d="M4.3,5.8c-0.2,0-0.5-0.1-0.7-0.2c-0.1,0-0.2-0.1-0.2-0.1C3.6,5.8,3.8,5.9,4.2,6c0.3,0.1,0.7,0.2,1.2,0.7
		l0.9-0.2C5.5,6,4.9,5.9,4.3,5.8L4.3,5.8z"/>
	<path fill="#7B3F00" d="M4.4,5.8C3.9,5.8,3.5,5.7,3.3,5.3l0,0l0.1,0.2C3.5,5.8,3.8,5.9,4.1,6c0.3,0.1,0.7,0.2,1.2,0.6l0.1,0
		C4.9,6.2,4.5,6.1,4.2,6C3.8,5.9,3.6,5.8,3.4,5.5c0.1,0.1,0.1,0.1,0.2,0.1C3.8,5.8,4.1,5.8,4.4,5.8L4.4,5.8C4.9,5.9,5.5,6,6.3,6.5
		l0,0C5.5,6,4.9,5.9,4.4,5.8z"/>
	<path fill="#7B3F00" d="M4.4,5.8C4.9,5.9,5.5,6,6.3,6.5l0.1,0L6.3,6.4C5.5,5.9,4.9,5.8,4.4,5.8C4,5.7,3.7,5.6,3.5,5.4
		C3.4,5.3,3.3,5.3,3.3,5.1l-0.1,0l0,0c0,0,0,0,0,0c0,0,0.1,0.1,0.1,0.1C3.5,5.7,3.9,5.8,4.4,5.8z"/>
	<path fill="#FCD116" d="M6.4,6.6l-3,0.5h2.9C6.3,6.9,6.3,6.7,6.4,6.6z"/>
	<path fill="#7B3F00" d="M5.6,7.7l0.7,0.1l0.1,0l0,0c0,0,0,0,0-0.1L2.8,7.1h3.4v0c0,0,0,0,0,0H3.4l3-0.5c0,0,0,0,0-0.1l0,0l-0.1,0
		l0,0L5.4,6.6l-0.1,0l0,0L2.6,7.1l2.9,0.5L5.6,7.7z"/>
	<path fill="#7B3F00" d="M6.2,7.1H2.8l3.5,0.6C6.3,7.6,6.2,7.4,6.2,7.1z"/>
	<path fill="#FCD116" d="M6.5,3.4C6.3,3.2,6.1,3.1,6,2.7C6,3,6.2,3.2,6.4,3.6C6.7,4,7.1,4.5,7.4,5.4l0.1-0.6C7.1,4,6.8,3.7,6.5,3.4z
		"/>
	<path fill="#7B3F00" d="M6,2.7c0.1,0.4,0.2,0.5,0.5,0.7c0.3,0.2,0.6,0.5,1,1.3l0-0.2c-0.3-0.7-0.7-1-0.9-1.2
		c-0.3-0.3-0.5-0.4-0.5-1l0-0.2L6,2.3c0,0,0,0,0,0l0.1,0C6,2.5,6,2.6,6,2.7z"/>
	<path fill="#7B3F00" d="M6.1,3.6C5.9,3.3,5.8,3,5.9,2.6L6,2.4l0,0.1c0,0,0-0.1,0-0.1C5.7,3,5.8,3.3,6.1,3.6
		c0.1,0.3,0.3,0.6,0.4,1.3l0,0C6.4,4.2,6.2,3.9,6.1,3.6z"/>
	<path fill="#7B3F00" d="M6.3,3.6C6.2,3.4,6,3.2,6,3c0-0.1,0-0.2-0.1-0.3C5.8,3.1,6,3.3,6.1,3.6c0.2,0.3,0.4,0.7,0.4,1.3l0.7,0.5
		C7,4.6,6.7,4,6.3,3.6L6.3,3.6z"/>
	<path fill="#7B3F00" d="M6.4,3.6C6.1,3.2,5.9,2.9,6,2.5l0-0.1L5.9,2.6c-0.2,0.5,0,0.7,0.2,1c0.2,0.3,0.4,0.6,0.4,1.3l0,0
		c0-0.7-0.2-1-0.4-1.3C6,3.3,5.8,3.1,5.9,2.8c0,0.1,0,0.2,0.1,0.3C6,3.2,6.2,3.4,6.4,3.6L6.4,3.6C6.7,4,7,4.6,7.3,5.4l0,0
		C7,4.5,6.7,4,6.4,3.6z"/>
	<path fill="#7B3F00" d="M6.4,3.6C6.7,4,7,4.5,7.3,5.4l0.1,0l0-0.1C7.1,4.5,6.7,4,6.4,3.6C6.2,3.2,6,3,6,2.7c0-0.1,0-0.2,0.1-0.3
		L6,2.3l0,0c0,0,0,0,0,0c0,0,0,0.1,0,0.1C5.9,2.9,6.1,3.2,6.4,3.6z"/>
	<path fill="#FCD116" d="M7.3,5.5L4.8,3.8l2,2C6.9,5.7,7.1,5.6,7.3,5.5z"/>
	<path fill="#7B3F00" d="M5.9,5.8l0.4,0.6l0.1,0.1l0,0c0,0,0,0,0-0.1l-2-3l2.4,2.4c0,0,0,0,0,0l-2-2l2.5,1.7c0,0,0,0,0.1,0l0,0
		l-0.1,0l0,0L6.5,4.9l0,0l0,0L4.2,3.3l1.7,2.4L5.9,5.8z"/>
	<path fill="#7B3F00" d="M6.8,5.9L4.4,3.5l2,3C6.5,6.2,6.6,6,6.8,5.9z"/>
	<path fill="#FCD116" d="M9.6,3.4c0-0.3,0-0.5,0.2-0.8C9.5,2.8,9.5,3.1,9.4,3.5C9.4,4,9.3,4.6,8.8,5.4L9.4,5
		C9.7,4.2,9.7,3.7,9.6,3.4z"/>
	<path fill="#7B3F00" d="M9.2,3.3c0.1-0.3,0.2-0.6,0.6-0.8l0.2-0.1l0,0c0,0,0.1-0.1,0.1-0.1C9.3,2.5,9.2,2.8,9.2,3.3
		C9,3.6,8.9,4,8.5,4.4l0,0C9,4,9.1,3.6,9.2,3.3z"/>
	<path fill="#7B3F00" d="M9.8,2.6C9.6,2.9,9.6,3.1,9.6,3.4c0,0.4,0.1,0.8-0.2,1.7l0.1-0.1c0.3-0.8,0.3-1.2,0.2-1.6
		c0-0.4-0.1-0.6,0.3-1l0.1-0.1L10,2.3c0,0,0,0,0,0l0,0.1C9.9,2.4,9.8,2.5,9.8,2.6z"/>
	<path fill="#7B3F00" d="M9.3,3.4c0-0.2,0.1-0.5,0.2-0.7c0-0.1,0.1-0.2,0.1-0.2C9.3,2.7,9.3,3,9.2,3.3C9.1,3.6,9,4,8.5,4.5l0.2,0.9
		C9.1,4.6,9.2,4,9.3,3.4L9.3,3.4z"/>
	<path fill="#7B3F00" d="M9.3,3.5C9.4,3,9.5,2.6,9.9,2.4l0,0L9.8,2.4C9.3,2.6,9.2,2.9,9.2,3.3C9.1,3.6,9,4,8.5,4.4l0,0.1
		C9,4,9.1,3.6,9.2,3.3C9.3,3,9.3,2.7,9.6,2.5C9.6,2.6,9.5,2.7,9.5,2.8C9.4,3,9.4,3.2,9.3,3.5L9.3,3.5C9.2,4,9.1,4.6,8.7,5.4l0,0
		C9.2,4.6,9.3,4,9.3,3.5z"/>
	<path fill="#7B3F00" d="M9.3,3.5C9.3,4,9.2,4.6,8.7,5.4l0,0.1l0.1-0.1C9.3,4.6,9.4,4,9.3,3.5c0.2-0.4,0.2-0.7,0.4-0.9
		C9.8,2.5,9.9,2.4,10,2.4l0-0.1l0,0c0,0,0,0,0,0c0,0-0.1,0.1-0.1,0.1C9.5,2.6,9.4,3,9.3,3.5z"/>
	<path fill="#FCD116" d="M8.6,5.5l-0.5-3v2.9C8.3,5.4,8.4,5.4,8.6,5.5z"/>
	<path fill="#7B3F00" d="M7.5,4.7L7.4,5.4l0,0.1l0,0c0,0,0,0,0.1,0L8,2v3.4c0,0,0,0,0,0V2.5l0.5,3c0,0,0,0,0.1,0l0,0l0-0.1l0,0
		L8.5,4.5l0-0.1l0,0L8,1.7L7.5,4.6L7.5,4.7z"/>
	<path fill="#7B3F00" d="M8,5.4V2L7.4,5.5C7.6,5.4,7.8,5.4,8,5.4z"/>
	<path fill="#FCD116" d="M11.8,5.6c0.2-0.2,0.3-0.4,0.7-0.5c-0.3,0-0.6,0.2-0.9,0.4c-0.4,0.3-0.9,0.7-1.8,0.9l0.6,0.1
		C11.2,6.2,11.5,5.9,11.8,5.6z"/>
	<path fill="#7B3F00" d="M11.6,5.2c0.3-0.2,0.6-0.3,1-0.2l0.2,0.1l-0.1,0c0,0,0.1,0,0.1,0C12.2,4.8,11.9,5,11.6,5.2
		c-0.3,0.1-0.6,0.3-1.3,0.4l0,0C10.9,5.6,11.3,5.4,11.6,5.2z"/>
	<path fill="#7B3F00" d="M12.8,5.2c-0.1,0-0.2-0.1-0.3-0.1c-0.4,0.1-0.5,0.2-0.7,0.5c-0.2,0.3-0.5,0.6-1.3,1l0.2,0
		c0.7-0.3,1-0.7,1.3-0.9C12.1,5.4,12.2,5.2,12.8,5.2l0.2,0L12.8,5.2C12.8,5.1,12.8,5.1,12.8,5.2L12.8,5.2z"/>
	<path fill="#7B3F00" d="M11.6,5.4c0.2-0.1,0.4-0.3,0.6-0.4c0.1,0,0.2,0,0.3-0.1c-0.3-0.1-0.5,0-0.8,0.2c-0.3,0.2-0.7,0.4-1.3,0.4
		L9.7,6.4C10.6,6.1,11.1,5.8,11.6,5.4L11.6,5.4z"/>
	<path fill="#7B3F00" d="M11.5,5.5c0.4-0.3,0.7-0.5,1.2-0.4l0.1,0L12.6,5c-0.5-0.2-0.7,0-1,0.2c-0.3,0.2-0.6,0.4-1.3,0.4l0,0
		c0.7,0,1-0.2,1.3-0.4C11.9,5.1,12.1,5,12.4,5c-0.1,0-0.2,0-0.3,0.1C11.9,5.2,11.8,5.3,11.5,5.5L11.5,5.5c-0.4,0.3-0.9,0.6-1.8,0.9
		l0,0C10.6,6.2,11.1,5.8,11.5,5.5z"/>
	<path fill="#7B3F00" d="M11.5,5.5c-0.4,0.3-0.9,0.7-1.8,0.9l0,0.1l0.1,0C10.7,6.2,11.2,5.8,11.5,5.5c0.4-0.2,0.6-0.3,0.9-0.3
		c0.1,0,0.2,0,0.3,0.1l0-0.1l0,0c0,0,0,0,0,0c0,0-0.1,0-0.1,0C12.2,5,11.9,5.2,11.5,5.5z"/>
	<path fill="#FCD116" d="M9.6,6.4l1.7-2.5l-2,2C9.4,6.1,9.5,6.2,9.6,6.4z"/>
	<path fill="#7B3F00" d="M9.4,5L8.8,5.4L8.7,5.5l0,0c0,0,0,0,0.1,0l3-2L9.3,5.9c0,0,0,0,0,0l2-2L9.6,6.4c0,0,0,0,0,0.1l0,0l0-0.1
		l0,0l0.5-0.7l0,0l0,0l1.6-2.3L9.5,4.9L9.4,5z"/>
	<path fill="#7B3F00" d="M9.3,5.9l2.4-2.4l-3,2C8.9,5.6,9.1,5.7,9.3,5.9z"/>
	<path fill="#FCD116" d="M11.8,8.7c0.3,0,0.5,0,0.8,0.2c-0.2-0.2-0.5-0.3-0.9-0.3c-0.5-0.1-1.1-0.2-1.9-0.6l0.4,0.6
		C11,8.8,11.4,8.8,11.8,8.7z"/>
	<path fill="#7B3F00" d="M11.9,8.3c0.3,0.1,0.6,0.2,0.8,0.6L12.8,9l0,0c0,0,0.1,0.1,0.1,0.1C12.6,8.4,12.3,8.4,11.9,8.3
		c-0.3-0.1-0.7-0.2-1.2-0.6l0,0C11.2,8.1,11.6,8.2,11.9,8.3z"/>
	<path fill="#7B3F00" d="M12.8,9.1c-0.1-0.1-0.1-0.2-0.2-0.3c-0.3-0.2-0.5-0.2-0.8-0.2c-0.4,0-0.8,0.1-1.6-0.2l0.1,0.1
		c0.8,0.3,1.2,0.2,1.6,0.2C12.1,8.8,12.4,8.7,12.8,9.1l0.2,0.2L12.8,9.1C12.9,9.1,12.9,9.1,12.8,9.1L12.8,9.1z"/>
	<path fill="#7B3F00" d="M11.7,8.4c0.2,0,0.5,0.1,0.7,0.2c0.1,0,0.2,0.1,0.2,0.1c-0.2-0.3-0.4-0.4-0.7-0.4c-0.3-0.1-0.7-0.2-1.2-0.7
		L9.8,7.8C10.6,8.3,11.2,8.4,11.7,8.4L11.7,8.4z"/>
	<path fill="#7B3F00" d="M11.7,8.5c0.5,0.1,0.9,0.1,1.1,0.5l0,0l-0.1-0.2c-0.2-0.4-0.5-0.5-0.8-0.6c-0.3-0.1-0.7-0.2-1.2-0.6l-0.1,0
		c0.5,0.5,0.9,0.6,1.2,0.7c0.3,0.1,0.5,0.1,0.7,0.4c-0.1-0.1-0.1-0.1-0.2-0.1C12.2,8.5,12,8.5,11.7,8.5L11.7,8.5
		c-0.5-0.1-1.1-0.2-1.9-0.6l0,0C10.6,8.3,11.2,8.4,11.7,8.5z"/>
	<path fill="#7B3F00" d="M11.7,8.5c-0.5-0.1-1.1-0.2-1.9-0.6l-0.1,0l0.1,0.1C10.5,8.4,11.2,8.5,11.7,8.5c0.4,0.2,0.7,0.2,0.9,0.4
		c0.1,0.1,0.1,0.2,0.2,0.3l0.1,0l0,0c0,0,0,0,0,0c0,0-0.1-0.1-0.1-0.1C12.5,8.6,12.2,8.5,11.7,8.5z"/>
	<path fill="#FCD116" d="M9.7,7.7l3-0.5H9.8C9.8,7.4,9.8,7.6,9.7,7.7z"/>
	<path fill="#7B3F00" d="M10.4,6.6L9.8,6.5l-0.1,0l0,0c0,0,0,0,0,0.1l3.5,0.6H9.8c0,0,0,0,0,0h2.9l-3,0.5c0,0,0,0,0,0.1l0,0l0.1,0
		l0,0l0.9-0.2l0.1,0l0,0l2.7-0.5l-2.9-0.5L10.4,6.6z"/>
	<path fill="#7B3F00" d="M9.8,7.1L9.8,7.1l3.4,0L9.7,6.5C9.8,6.7,9.8,6.9,9.8,7.1z"/>
	<path fill="#FCD116" d="M9.6,10.9c0.2,0.2,0.4,0.3,0.5,0.7c0-0.3-0.2-0.6-0.4-0.9c-0.3-0.4-0.7-0.9-0.9-1.8L8.6,9.6
		C8.9,10.4,9.3,10.7,9.6,10.9z"/>
	<path fill="#7B3F00" d="M10,11.6c-0.1-0.4-0.2-0.5-0.5-0.7c-0.3-0.2-0.6-0.5-1-1.3l0,0.2c0.3,0.7,0.7,1,1,1.3
		c0.3,0.2,0.5,0.4,0.5,1l0,0.2l0.1-0.2c0,0,0,0,0,0l-0.1,0C10,11.8,10,11.7,10,11.6z"/>
	<path fill="#7B3F00" d="M10,10.7c0.2,0.3,0.3,0.6,0.2,1l-0.1,0.2l0-0.1c0,0,0,0.1,0,0.1C10.4,11.3,10.2,11,10,10.7
		C9.8,10.4,9.6,10,9.6,9.4l0,0C9.6,10,9.8,10.4,10,10.7z"/>
	<path fill="#7B3F00" d="M9.7,10.7c0.1,0.2,0.3,0.4,0.4,0.6c0,0.1,0,0.2,0.1,0.3c0.1-0.3,0-0.5-0.2-0.8C9.8,10.4,9.6,10,9.5,9.4
		L8.8,8.9C9,9.7,9.4,10.2,9.7,10.7L9.7,10.7z"/>
	<path fill="#7B3F00" d="M9.7,10.7c0.3,0.4,0.5,0.7,0.4,1.2l0,0.1l0.1-0.2c0.2-0.5,0-0.7-0.2-1C9.8,10.4,9.6,10,9.6,9.4l0,0
		c0,0.7,0.2,1,0.4,1.3c0.2,0.3,0.3,0.5,0.2,0.8c0-0.1,0-0.2-0.1-0.3C10,11.1,9.9,10.9,9.7,10.7L9.7,10.7C9.4,10.2,9,9.7,8.8,8.9l0,0
		C9,9.7,9.4,10.3,9.7,10.7z"/>
	<path fill="#7B3F00" d="M9.7,10.7C9.4,10.3,9,9.7,8.8,8.8l-0.1,0l0,0.1C8.9,9.8,9.3,10.3,9.7,10.7C9.8,11,10,11.3,10,11.6
		c0,0.1,0,0.2-0.1,0.3l0.1,0l0,0c0,0,0,0,0,0c0,0,0-0.1,0-0.1C10.2,11.4,10,11.1,9.7,10.7z"/>
	<path fill="#FCD116" d="M8.8,8.7l2.5,1.7l-2-2C9.1,8.6,9,8.7,8.8,8.7z"/>
	<path fill="#7B3F00" d="M10.1,8.5L9.8,7.9L9.7,7.8l0,0c0,0,0,0,0,0.1l2,3L9.3,8.4c0,0,0,0,0,0l2,2L8.8,8.7c0,0,0,0-0.1,0l0,0l0.1,0
		l0,0l0.7,0.5l0,0l0,0l2.3,1.6l-1.7-2.4L10.1,8.5z"/>
	<path fill="#7B3F00" d="M9.3,8.4l2.4,2.4l-2-3C9.6,8.1,9.4,8.2,9.3,8.4z"/>
	<path fill="#7B3F00" d="M6.7,10.8c0,0.2-0.1,0.5-0.2,0.7c0,0.1-0.1,0.2-0.1,0.2c0.3-0.2,0.4-0.4,0.4-0.7c0.1-0.3,0.2-0.7,0.7-1.2
		L7.4,8.9C6.9,9.7,6.8,10.3,6.7,10.8L6.7,10.8z"/>
	<path fill="#7B3F00" d="M6.7,10.8c-0.1,0.5-0.1,0.9-0.5,1.1l0,0l0.2-0.1c0.4-0.2,0.5-0.5,0.6-0.8c0.1-0.3,0.2-0.7,0.6-1.2l0-0.1
		c-0.5,0.5-0.6,0.9-0.7,1.2c-0.1,0.3-0.1,0.5-0.4,0.7c0.1-0.1,0.1-0.1,0.1-0.2C6.7,11.3,6.7,11.1,6.7,10.8L6.7,10.8
		c0.1-0.5,0.2-1.1,0.6-1.9l0,0C6.9,9.7,6.8,10.3,6.7,10.8z"/>
	<path fill="#7B3F00" d="M6.7,10.8c0.1-0.5,0.2-1.1,0.6-1.9l0-0.1c0,0,0,0,0,0l0,0c0,0,0,0.1,0,0.1C6.8,9.7,6.7,10.3,6.7,10.8
		c-0.2,0.4-0.2,0.7-0.4,0.9c-0.1,0.1-0.2,0.1-0.3,0.2l0,0.1l0,0c0,0,0,0,0,0c0,0,0.1-0.1,0.1-0.1C6.6,11.7,6.6,11.3,6.7,10.8z"/>
	<path fill="#FCD116" d="M7.4,8.8l0.5,3V8.9C7.8,8.9,7.6,8.9,7.4,8.8z"/>
	<path fill="#7B3F00" d="M8.6,9.6l0.1-0.6l0-0.1l0,0c0,0,0,0-0.1,0L8,12.3V8.9c0,0,0,0,0,0v2.9l-0.5-3c0,0-0.1,0-0.1,0l0,0.1l0,0
		l0.2,0.9l0,0.1l0,0L8,12.6l0.5-2.9L8.6,9.6z"/>
	<path fill="#7B3F00" d="M8,8.9v3.4l0.6-3.5C8.5,8.9,8.3,8.9,8,8.9z"/>
	<path fill="#7B3F00" d="M6.8,8.4l-2.4,2.4l2.9-2l0,0C7.1,8.7,6.9,8.6,6.8,8.4z"/>
	<path fill="#FCD116" d="M6.3,7.1c0,0.9,0.8,1.7,1.7,1.7s1.7-0.8,1.7-1.7S9,5.5,8,5.5S6.3,6.2,6.3,7.1z M7.3,6.5
		c0.3,0,0.4,0,0.4,0.2v0C7.6,6.7,7.6,6.6,7.5,6.6c0,0.1-0.1,0.2-0.2,0.3c0,0,0,0,0,0c0.2,0,0.3-0.2,0.3-0.1c0,0.1-0.2,0.2-0.4,0.2
		C7.1,6.9,6.9,6.7,7,6.8c0,0,0,0,0.1,0c0,0,0-0.1,0-0.1C7,6.7,6.9,6.8,6.8,6.8C6.9,6.7,7.1,6.5,7.3,6.5z M8.3,6.8L8.3,6.8
		c0-0.2,0.2-0.2,0.4-0.2c0.3,0,0.4,0.2,0.5,0.2C9.1,6.8,9.1,6.7,9,6.7c0,0,0,0.1,0,0.1c0,0,0,0,0.1,0c0.1-0.1-0.2,0.2-0.3,0.2
		S8.3,6.8,8.3,6.8c0.1-0.1,0.2,0.1,0.4,0.1c0,0,0,0,0,0c-0.1,0-0.2-0.2-0.2-0.3C8.5,6.6,8.4,6.7,8.3,6.8z M8.9,7.9L8.9,7.9
		C8.4,8.1,8.4,8.2,8,8.2S7.7,8.1,7.2,7.9c0,0,0,0.1-0.1,0.1c0-0.1,0-0.2,0.2-0.3c0,0.1-0.1,0.1-0.1,0.1c0,0,0,0,0.1,0
		c0.2,0,0.4-0.1,0.5-0.1c0.1,0,0.2,0,0.3,0c0.1,0,0.1,0,0.3,0C8.4,7.8,8.6,7.9,8.9,7.9C8.8,7.9,8.8,7.9,8.9,7.9c0,0,0-0.1-0.1-0.1
		C8.9,7.9,8.9,7.9,8.9,8C8.9,8,8.9,7.9,8.9,7.9z M7.4,7.6c0,0,0-0.1,0.2-0.1c0.1,0,0.1-0.2,0.2-0.3c0,0.1,0,0-0.1,0.1
		c0,0.1,0.1,0.1,0.2,0c0,0.1,0.1,0.1,0.1,0.1c0.1,0,0.2,0,0.1-0.1c0,0.1,0.2,0.1,0.2,0c0-0.1-0.1-0.1-0.1-0.1c0.1,0,0.1,0.2,0.2,0.3
		c0.1,0,0.2,0.2,0.2,0.1C8.6,7.6,8.4,7.5,8.3,7.5S8.1,7.6,8,7.6c-0.1,0-0.1-0.1-0.3-0.1C7.6,7.5,7.5,7.6,7.4,7.6z M8,8.4
		C7.7,8.4,7.9,8.3,8,8.4C8.1,8.3,8.3,8.4,8,8.4z M9.3,6.5C9.2,6.6,9.1,6.4,8.7,6.4c-0.4,0-0.5,0.2-0.5,0.2c-0.1,0,0.3-0.3,0.5-0.3
		C8.8,6.2,9.2,6.3,9.3,6.5z M7.4,6.2c0.1,0,0.5,0.3,0.5,0.3c-0.1,0-0.1-0.2-0.5-0.2c-0.4,0-0.5,0.2-0.6,0.1C6.9,6.3,7.3,6.2,7.4,6.2
		z"/>
	<path fill="#FCD116" d="M7.1,6.8c0,0,0.1,0,0.1,0c-0.1-0.1-0.1-0.2,0-0.2c0,0-0.1,0-0.1,0C7.1,6.7,7.1,6.7,7.1,6.8z"/>
	<path fill="#FCD116" d="M8.8,6.9c0,0,0.1,0,0.1,0c0-0.1,0-0.1,0-0.2c0,0-0.1,0-0.1,0C8.9,6.7,8.9,6.8,8.8,6.9z"/>
	<path fill="#FCD116" d="M7.2,7.9C7.2,7.9,7.2,7.9,7.2,7.9C7.2,7.9,7.2,7.9,7.2,7.9C7.2,7.9,7.2,7.9,7.2,7.9z"/>
	<path fill="#FCD116" d="M7.2,7.9C7.2,7.9,7.2,7.9,7.2,7.9C7.2,7.9,7.2,7.9,7.2,7.9C7.2,7.9,7.2,7.9,7.2,7.9z"/>
	<path fill="#FCD116" d="M8.9,7.9C8.9,7.9,8.9,7.9,8.9,7.9C8.9,7.9,8.9,7.9,8.9,7.9C8.9,7.9,8.9,7.9,8.9,7.9z"/>
	<path fill="#FCD116" d="M8.9,7.9C8.9,7.9,8.9,7.9,8.9,7.9C8.8,7.9,8.8,7.9,8.9,7.9C8.9,7.9,8.9,7.9,8.9,7.9z"/>
	<path fill="#FCD116" d="M7.2,7.9C7.2,7.9,7.2,7.9,7.2,7.9C7.4,8,7.4,8,7.5,8C7.4,8,7.4,7.9,7.2,7.9C7.2,7.9,7.2,7.9,7.2,7.9z"/>
	<path fill="#FCD116" d="M8,7.9c-0.3,0-0.4,0-0.5,0C7.7,8,7.8,8.1,8,8.1c0.2,0,0.4,0,0.5-0.1C8.5,8,8.3,7.9,8,7.9z"/>
	<path fill="#FCD116" d="M8.5,8c0.1,0,0.1,0,0.3-0.1c0,0,0,0,0,0c0,0,0,0-0.1,0C8.7,7.9,8.6,8,8.5,8z"/>
	<path fill="#7B3F00" d="M6.4,6.6C6.3,6.7,6.3,6.9,6.3,7.1c0,0,0,0,0,0v0c0,0.2,0,0.4,0.1,0.6c0,0,0,0,0,0.1c0,0,0,0,0,0.1
		c0.1,0.2,0.2,0.3,0.3,0.5c0,0,0,0,0,0c0.2,0.2,0.3,0.3,0.5,0.4c0,0,0,0,0,0c0,0,0.1,0,0.1,0C7.6,8.9,7.8,8.9,8,8.9c0,0,0,0,0,0
		c0.2,0,0.4,0,0.6-0.1c0,0,0,0,0.1,0c0,0,0,0,0.1,0C9,8.7,9.1,8.6,9.2,8.4c0,0,0,0,0,0c0.2-0.2,0.3-0.3,0.4-0.5c0,0,0,0,0-0.1
		c0,0,0,0,0-0.1c0.1-0.2,0.1-0.4,0.1-0.5c0,0,0,0,0,0v0c0-0.2,0-0.4-0.1-0.6c0,0,0,0,0-0.1c0,0,0,0,0-0.1C9.5,6.2,9.4,6.1,9.3,5.9
		c0,0,0,0,0,0C9.1,5.7,8.9,5.6,8.7,5.5c0,0,0,0-0.1,0c0,0,0,0-0.1,0C8.4,5.4,8.3,5.4,8.1,5.4c0,0,0,0,0,0c-0.2,0-0.4,0-0.6,0.1
		c0,0,0,0-0.1,0c0,0,0,0-0.1,0C7.1,5.6,6.9,5.7,6.8,5.9c0,0,0,0,0,0C6.6,6,6.5,6.2,6.4,6.4C6.4,6.4,6.4,6.5,6.4,6.6
		C6.4,6.5,6.4,6.5,6.4,6.6z M8,5.5c0.9,0,1.7,0.8,1.7,1.7S9,8.8,8,8.8S6.3,8.1,6.3,7.1S7.1,5.5,8,5.5z"/>
	<path fill="#7B3F00" d="M8.7,6.2c-0.1,0-0.5,0.3-0.5,0.3c0.1,0,0.1-0.2,0.5-0.2c0.4,0,0.5,0.2,0.6,0.1C9.2,6.3,8.8,6.2,8.7,6.2z"/>
	<path fill="#7B3F00" d="M8.9,6.6c0,0-0.1,0-0.1,0c-0.1,0-0.2,0-0.2,0c0,0.1,0.1,0.2,0.2,0.3c0.1,0,0.1,0,0.1,0
		C8.9,6.8,8.9,6.7,8.9,6.6z"/>
	<path fill="#7B3F00" d="M8.9,6.9C8.9,6.9,8.9,6.8,8.9,6.9C8.9,6.8,8.9,6.8,8.9,6.9c-0.1,0-0.2,0-0.2,0c0,0,0,0,0,0
		c-0.2,0-0.3-0.2-0.3-0.1c0,0.1,0.2,0.2,0.4,0.2s0.4-0.3,0.3-0.2C9,6.8,9,6.8,8.9,6.9C9,6.8,9,6.8,8.9,6.9z"/>
	<path fill="#7B3F00" d="M8.7,6.6c0,0,0.1,0,0.1,0c0,0,0.1,0,0.1,0c0,0,0,0,0-0.1c0,0,0.1,0,0.1,0.1c0.1,0,0.2,0.1,0.2,0.1
		C9.1,6.7,9,6.5,8.7,6.6c-0.3-0.1-0.4,0-0.4,0.1v0c0.1-0.1,0.1-0.1,0.2-0.1C8.6,6.6,8.6,6.6,8.7,6.6z"/>
	<path fill="#7B3F00" d="M7.1,6.8c0-0.1,0-0.1,0-0.2c0,0,0,0,0,0C7,6.7,7,6.7,7.1,6.8C7.1,6.8,7.1,6.8,7.1,6.8z"/>
	<path fill="#7B3F00" d="M8.9,6.6C8.9,6.6,8.9,6.6,8.9,6.6C9,6.7,9,6.7,9,6.8c0,0,0,0-0.1,0.1C9,6.8,9,6.8,9,6.8
		C9,6.7,9,6.7,8.9,6.6C9,6.6,8.9,6.6,8.9,6.6z"/>
	<path fill="#7B3F00" d="M8,7.6c0.1,0,0.1-0.1,0.3-0.1s0.3,0,0.4,0.1c0,0,0-0.1-0.2-0.1c-0.1,0-0.1-0.2-0.2-0.3c0,0.1,0,0,0.1,0.1
		c0,0.1-0.1,0.1-0.2,0C8.2,7.5,8.1,7.5,8,7.6C7.9,7.5,7.9,7.5,7.9,7.4c0,0.1-0.2,0.1-0.2,0c0-0.1,0.1-0.1,0.1-0.1
		c-0.1,0-0.1,0.2-0.2,0.3c-0.1,0-0.2,0.2-0.2,0.1c0.1-0.1,0.3-0.1,0.4-0.1C7.9,7.5,7.9,7.6,8,7.6z"/>
	<path fill="#7B3F00" d="M7.2,7.9C7.2,7.9,7.2,7.9,7.2,7.9c0,0,0.1,0,0.1-0.1C7.2,7.9,7.1,7.9,7.1,8C7.2,8,7.2,7.9,7.2,7.9
		C7.2,7.9,7.2,7.9,7.2,7.9z"/>
	<path fill="#7B3F00" d="M7.3,7.9C7.2,7.9,7.2,7.9,7.3,7.9C7.2,7.9,7.2,7.9,7.3,7.9C7.2,7.9,7.2,7.9,7.3,7.9z"/>
	<path fill="#7B3F00" d="M7.5,8c0.1,0,0.2,0,0.5,0s0.4,0,0.5,0c0.1,0,0.1,0,0.2-0.1c-0.2,0-0.4-0.1-0.5-0.1c-0.1,0-0.2,0-0.3,0
		c-0.1,0-0.1,0-0.3,0c-0.1,0-0.3,0.1-0.5,0.1C7.4,7.9,7.4,8,7.5,8z"/>
	<path fill="#7B3F00" d="M8.8,7.9C8.8,7.9,8.8,7.9,8.8,7.9C8.8,7.9,8.8,7.9,8.8,7.9C8.8,7.9,8.8,7.9,8.8,7.9z"/>
	<path fill="#7B3F00" d="M8.9,8c0-0.1,0-0.2-0.2-0.3c0,0.1,0.1,0.1,0.1,0.1c0,0,0,0,0,0c0,0,0,0,0,0C8.9,7.9,8.9,8,8.9,8z"/>
	<path fill="#7B3F00" d="M8.5,8C8.4,8,8.3,8.1,8,8.1C7.8,8.1,7.7,8,7.5,8C7.4,8,7.4,8,7.2,7.9c0,0,0,0,0,0C7.7,8.1,7.6,8.2,8,8.2
		s0.3-0.1,0.8-0.3h0c0,0,0,0,0,0C8.7,8,8.6,8,8.5,8z"/>
	<path fill="#7B3F00" d="M7.2,7.9C7.2,7.9,7.2,7.9,7.2,7.9C7.2,7.9,7.2,7.9,7.2,7.9C7.2,7.9,7.2,7.9,7.2,7.9z"/>
	<path fill="#7B3F00" d="M8.8,7.9C8.8,7.9,8.9,7.9,8.8,7.9C8.9,7.9,8.9,7.9,8.8,7.9C8.9,7.9,8.9,7.9,8.8,7.9z"/>
	<path fill="#7B3F00" d="M6.8,6.5c0.1,0.1,0.2-0.1,0.6-0.1c0.4,0,0.5,0.2,0.5,0.2c0.1,0-0.3-0.3-0.5-0.3C7.3,6.2,6.9,6.3,6.8,6.5z"
		/>
	<path fill="#7B3F00" d="M7.3,6.6c0,0-0.1,0-0.1,0c-0.1,0.1,0,0.2,0,0.2c0,0,0.1,0,0.1,0c0.1,0,0.2-0.2,0.2-0.3
		C7.5,6.6,7.4,6.6,7.3,6.6z"/>
	<path fill="#7B3F00" d="M7.1,6.7C7.1,6.6,7.1,6.6,7.1,6.7c0.1,0,0.1,0,0.1,0c0,0,0.1,0,0.1,0c0.1,0,0.2,0,0.2,0
		c0.1,0,0.1,0.1,0.2,0.1v0c0-0.2-0.2-0.2-0.4-0.2S6.9,6.7,6.8,6.8C6.9,6.8,7,6.7,7.1,6.7z"/>
	<path fill="#7B3F00" d="M7.1,6.8C7.1,6.8,7.1,6.8,7.1,6.8C7,6.8,7,6.8,7,6.8C6.9,6.7,7.1,6.9,7.3,6.9c0.2,0,0.4-0.1,0.4-0.2
		C7.6,6.7,7.5,6.9,7.4,6.9c0,0,0,0,0,0c-0.1,0-0.1,0-0.1,0C7.2,6.8,7.1,6.8,7.1,6.8z"/>
	<path fill="#7B3F00" d="M8,8.3C7.9,8.3,7.7,8.4,8,8.3C8.3,8.4,8.1,8.3,8,8.3z"/>
</g>
</svg>
