<?xml version="1.0" ?><svg height="182px" version="1.1" viewBox="0 0 182 182" width="182px" xmlns="http://www.w3.org/2000/svg" xmlns:sketch="http://www.bohemiancoding.com/sketch/ns" xmlns:xlink="http://www.w3.org/1999/xlink"><title/><defs/><g fill="none" fill-rule="evenodd" id="Asia-Pacific" stroke="none" stroke-width="1"><g id="VN" transform="translate(-799.000000, -799.000000)"><g transform="translate(800.000000, 800.000000)"><circle cx="90" cy="90" d="M90,180 C139.70563,180 180,139.70563 180,90 C180,40.2943701 139.70563,0 90,0 C40.2943701,0 0,40.2943701 0,90 C0,139.70563 40.2943701,180 90,180 Z M90,180" fill="#CA4638" id="Oval-17" r="90"/><polygon d="M89.9999969,101.044238 L71.4710532,110.407893 L75.0097657,90.575355 L60.0195332,76.5298742 L80.7355276,73.6363432 L89.9999979,55.5921068 L99.2644739,73.6363477 L119.980467,76.5298886 L104.990228,90.5753588 L108.528941,110.407893 L89.9999969,101.044238 Z M89.9999969,101.044238" fill="#F0EB4E" id="Star-1" points="89.9999969 101.044238 71.4710532 110.407893 75.0097657 90.575355 60.0195332 76.5298742 80.7355276 73.6363432 89.9999979 55.5921068 99.2644739 73.6363477 119.980467 76.5298886 104.990228 90.5753588 108.528941 110.407893 "/></g></g></g></svg>