<svg width="21" height="20" viewBox="0 0 21 20" fill="none" xmlns="http://www.w3.org/2000/svg">
<g clip-path="url(#clip0)">
<path d="M10.8823 20C16.4051 20 20.8823 15.5228 20.8823 10C20.8823 4.47715 16.4051 0 10.8823 0C5.35947 0 0.882324 4.47715 0.882324 10C0.882324 15.5228 5.35947 20 10.8823 20Z" fill="#F0F0F0"/>
<path d="M3.81125 17.0711C-0.0939853 13.1659 -0.0939853 6.83423 3.81125 2.92896C3.81097 2.92938 9.578 10 9.578 10L3.81125 17.0711Z" fill="black"/>
<path d="M9.57818 9.99998L2.2088 5.02002C1.98033 5.41717 1.77884 5.8317 1.60571 6.26076L5.33654 10L1.60583 13.7395C1.7788 14.1682 1.98009 14.5825 2.20841 14.9794L9.57818 9.99998Z" fill="#FFDA44"/>
<path d="M20.7977 8.69568H9.57774L3.81118 2.92908C3.18977 3.55048 2.64989 4.25326 2.20864 5.02009L7.17891 10L2.20825 14.9793C2.6495 15.7463 3.18961 16.4493 3.81118 17.0709L9.57774 11.3043H20.7977C20.8533 10.8774 20.8823 10.4421 20.8823 10C20.8823 9.55794 20.8533 9.12263 20.7977 8.69568Z" fill="#6DA544"/>
<path d="M4.79395 17.9327C6.48024 19.2289 8.59106 20 10.8823 20C15.5026 20 19.3903 16.8664 20.5378 12.6087H10.118L4.79395 17.9327Z" fill="#0052B4"/>
<path d="M20.5378 7.39129C19.3903 3.13363 15.5026 0 10.8823 0C8.59106 0 6.48024 0.771133 4.79395 2.0673L10.1179 7.39129H20.5378Z" fill="#D80027"/>
</g>
<defs>
<clipPath id="clip0">
<rect width="20" height="20" fill="white" transform="translate(0.882324)"/>
</clipPath>
</defs>
</svg>
