<?xml version="1.0" encoding="utf-8"?>
<!-- Generator: Adobe Illustrator 19.0.0, SVG Export Plug-In . SVG Version: 6.00 Build 0)  -->
<svg version="1.1" id="Layer_1" xmlns="http://www.w3.org/2000/svg" xmlns:xlink="http://www.w3.org/1999/xlink" x="0px" y="0px"
	 viewBox="-386 251.2 186.7 58.8" style="enable-background:new -386 251.2 186.7 58.8;" xml:space="preserve">
<style type="text/css">
	.hollaEX_logo_gray{fill:#E6E6E6;}
	.st1{enable-background:new;}
</style>
<g id="XMLID_1_">
	<g id="XMLID_103_">
		<polygon id="XMLID_116_" class="hollaEX_logo_gray" points="-199.5,310 -386,310 -386,251.2 -199.3,251.2 -199.3,293.3 -206.2,293.3 
			-206.2,258.1 -379.1,258.1 -379.1,303.1 -199.5,303.1 		"/>
		<g class="st1">
			<path class="hollaEX_logo_gray" d="M-219.8,293.7c-0.8,0-1.4-0.3-2-0.8c-0.5-0.5-0.8-1.2-0.8-2c0-0.8,0.3-1.4,0.8-2c0.5-0.5,1.2-0.8,2-0.8
				s1.4,0.3,2,0.8c0.5,0.5,0.8,1.2,0.8,2c0,0.8-0.3,1.4-0.8,2C-218.3,293.4-219,293.7-219.8,293.7z M-219.8,293.1
				c0.6,0,1.1-0.2,1.5-0.6c0.4-0.4,0.6-0.9,0.6-1.5c0-0.6-0.2-1.1-0.6-1.5c-0.4-0.4-0.9-0.6-1.5-0.6c-0.6,0-1.1,0.2-1.5,0.6
				c-0.4,0.4-0.6,0.9-0.6,1.5c0,0.6,0.2,1.1,0.6,1.5C-220.9,292.9-220.4,293.1-219.8,293.1z M-218.4,292.4l-1.1,0l-0.4-1.2h-0.3v1.2
				h-1l0-3h1.6c0.3,0,0.6,0.1,0.8,0.2c0.2,0.2,0.3,0.4,0.3,0.7c0,0.4-0.2,0.6-0.5,0.8L-218.4,292.4z M-220.2,290.6h0.4
				c0.3,0,0.4-0.1,0.4-0.3c0-0.2-0.1-0.3-0.3-0.3h-0.4V290.6z"/>
		</g>
	</g>
	<g class="st1">
		<path class="hollaEX_logo_gray" d="M-363.5,265.4h8.2v10.3h8.7v-10.3h8.2v28.1h-8.2v-11h-8.7v11h-8.2V265.4z"/>
		<path class="hollaEX_logo_gray" d="M-336.2,283.6c0-6.1,4.3-10.7,11-10.7c6.7,0,10.9,4.6,10.9,10.7c0,6.1-4.2,10.6-10.9,10.6
			C-331.9,294.2-336.2,289.7-336.2,283.6z M-321.8,283.6c0-3.4-1.2-5.7-3.5-5.7c-2.3,0-3.4,2.3-3.4,5.7c0,3.4,1.1,5.7,3.4,5.7
			C-323,289.2-321.8,287-321.8,283.6z"/>
		<path class="hollaEX_logo_gray" d="M-312.4,265.4h7.6v28.1h-7.6V265.4z"/>
		<path class="hollaEX_logo_gray" d="M-302.1,265.4h7.6v28.1h-7.6V265.4z"/>
		<path class="hollaEX_logo_gray" d="M-279.9,291.4L-279.9,291.4c-1.4,1.8-3.5,2.7-6.1,2.7c-3.9,0-6.7-2.1-6.7-6c0-4.4,3.4-5.7,7.3-6.2
			c4.2-0.5,5.4-1,5.4-2.2c0-1.1-0.5-1.9-2.1-1.9s-2.4,0.9-2.6,2.4h-7c0.2-4,3.2-7.2,9.5-7.2c3.1,0,5,0.4,6.6,1.3
			c2.1,1.3,3.1,3.3,3.1,6v10c0,1.7,0.1,2.6,0.7,3v0.3h-7.3C-279.5,293.1-279.7,292.5-279.9,291.4z M-279.9,286.3v-1.8
			c-0.7,0.4-1.6,0.7-2.9,0.9c-2.2,0.5-2.8,1.1-2.8,2.3c0,1.3,1.1,1.9,2.3,1.9C-281.5,289.7-279.9,288.7-279.9,286.3z"/>
		<path class="hollaEX_logo_gray" d="M-269.5,265.4h21.9v6.7h-13.7v3.8h11.4v6.2h-11.4v4.4h14.1v7h-22.3V265.4z"/>
		<path class="hollaEX_logo_gray" d="M-239.2,283.1l-6.1-9.6h8.5l2.4,4.6h0.1l2.3-4.6h7.9l-5.7,9.5l6.5,10.6h-8.5l-2.8-5.3h-0.1l-3,5.3h-8.1
			L-239.2,283.1z"/>
	</g>
</g>
</svg>
