<?xml version="1.0" encoding="utf-8"?>
<!-- Generator: Adobe Illustrator 24.0.1, SVG Export Plug-In . SVG Version: 6.00 Build 0)  -->
<svg version="1.1" id="Layer_1" xmlns="http://www.w3.org/2000/svg" xmlns:xlink="http://www.w3.org/1999/xlink" x="0px" y="0px"
	 viewBox="0 0 186.7 58.8" style="enable-background:new 0 0 186.7 58.8;" xml:space="preserve">
<style type="text/css">
	.st0{fill:#808080;}
</style>
<g id="XMLID_277_">
	<g>
		<g id="XMLID_88_">
			<g id="XMLID_94_">
				<path id="XMLID_99_" class="st0" d="M88.8,15.4h8.6v10.9h8.9V15.4h8.6v29.2h-8.6V32.6h-8.9v11.9h-8.6V15.4z"/>
				<path id="XMLID_98_" class="st0" d="M139.8,33.4c0,6.9-4.3,11.7-11.9,11.7c-7.9,0-11.8-5.2-11.8-11.6c0-6.7,4.1-11.7,12-11.7
					C135.5,21.8,139.8,26.6,139.8,33.4z M124.5,33.5c0,4.3,1.3,6.1,3.5,6.1c2.2,0,3.3-1.9,3.3-6c0-4.6-1.2-6.2-3.4-6.2
					C126,27.4,124.5,28.9,124.5,33.5z"/>
				<path id="XMLID_97_" class="st0" d="M141.1,44.5V13.8h8.3v30.7H141.1z"/>
				<path id="XMLID_96_" class="st0" d="M151.9,44.5V13.8h8.3v30.7H151.9z"/>
				<path id="XMLID_95_" class="st0" d="M183.2,37.9c0,2.5,0.2,5.8,0.3,6.6h-7.7c-0.2-0.5-0.3-1.5-0.3-2c-1.1,1.3-2.7,2.6-6.3,2.6
					c-4.9,0-7.7-3.1-7.7-7.1c0-5.3,4.2-7.5,11-7.5h2.8v-1.3c0-1.4-0.5-2.4-2.5-2.4c-1.8,0-2.3,0.8-2.5,2.3h-7.7
					c0.3-3.8,2.5-7.3,10.3-7.3c7.3,0,10.3,2.8,10.3,8.2L183.2,37.9z M175.2,34.5h-1.8c-2.8,0-3.8,1-3.8,2.7c0,1.3,0.8,2.3,2.4,2.3
					c2.8,0,3.2-1.9,3.2-4.3V34.5z"/>
			</g>
			<g id="XMLID_89_">
				<path id="XMLID_93_" class="st0" d="M44.9,41.8L44.9,41.8l-0.1,2.8h-7.8V13.9h8.2V25h0.2c1.6-1.9,3.5-3,6.4-3
					c5.9,0,9.3,5.3,9.3,11.6c0,7.5-3.6,11.8-9.3,11.8C49,45.4,46.4,44.3,44.9,41.8z M52.8,33.5c0-3.4-1.3-5.7-3.8-5.7
					c-2.5,0-4.2,2.4-4.1,5.7c0,3.3,1.7,5.7,4.2,5.7C51.6,39.2,52.8,37,52.8,33.5z"/>
				<path id="XMLID_92_" class="st0" d="M63.1,22.7h8.2v21.9h-8.2V22.7z M63.1,15.6h8.2V20h-8.2V15.6z"/>
				<path id="XMLID_91_" class="st0" d="M82,27.5v8.9c0,2.2,1.6,2.3,4.1,2.1v6c-1.3,0.3-2.5,0.5-4,0.5c-5.3,0-8.1-1.5-8.1-6.8V27.6
					h-4.7v-4.9H74v-7.1h7.9v7.1"/>
				<path id="XMLID_90_" class="st0" d="M81.8,22.6h4.3v4.9h-4.3"/>
			</g>
		</g>
	</g>
</g>
<g id="XMLID_274_">
	<g>
		<polygon id="XMLID_9_" class="st0" points="0,13.9 0,44.5 30.4,44.5 30.4,13.9 13.6,13.9 13.6,22.5 21.8,22.5 21.8,36 8.6,36 
			8.6,13.9 		"/>
	</g>
</g>
<image style="overflow:visible;" width="259" height="156" xlink:href="BFDCC8E7.jpg"  transform="matrix(1 0 0 1 -337.6118 -16.1988)">
</image>
</svg>
