<?xml version="1.0" encoding="utf-8"?>
<!-- Generator: Adobe Illustrator 19.0.0, SVG Export Plug-In . SVG Version: 6.00 Build 0)  -->
<svg version="1.1" id="Layer_1" xmlns="http://www.w3.org/2000/svg" xmlns:xlink="http://www.w3.org/1999/xlink" x="0px" y="0px"
	 viewBox="0 0 59.6 57.7" style="enable-background:new 0 0 59.6 57.7;" xml:space="preserve">
<style type="text/css">
	.astrics-1{fill:#231F20;}
	.astrics-2{fill:#EC1C24;}
	.astrics-3{fill:#C6C5C4;}
</style>
<g id="XMLID_1_">
	<path id="XMLID_2307_" class="astrics-1" d="M48.2,42.7V13.5c0-2.9-2.4-5.3-5.3-5.3H18.9c-2.9,0-5.2,2.3-5.3,5.2v24.4h-2.3
		c-2.7,0-4.9,2.2-4.9,4.9c0,3.6,2.9,6.7,6.5,7l0.2,0h28.1C45.1,49.8,48.2,46.6,48.2,42.7z M13.3,47.7c-2.7,0-4.9-2.2-4.9-4.9
		c0-1.5,1.2-2.8,2.8-2.8h22.9v2.8c0,1.5,0.5,2.9,1.3,4.1l0.6,0.8H13.3z M36.3,42.8V39c0-0.6-0.5-1.1-1.1-1.1H15.5l0.2-24.4
		c0-1.7,1.4-3.1,3.1-3.1h24.1c1.8,0,3.1,1.4,3.1,3.1v29.3c0,2.7-2.2,4.9-4.9,4.9S36.3,45.5,36.3,42.8z"/>
	<g id="XMLID_2222_">
		<g id="XMLID_27_">
			<path id="XMLID_30_" class="astrics-2" d="M20.1,16.2"/>
			<path id="XMLID_29_" class="astrics-2" d="M20.1,23"/>
			<path id="XMLID_28_" class="astrics-2" d="M20.1,24.5"/>
		</g>
		<g id="XMLID_23_">
			<path id="XMLID_26_" class="astrics-3" d="M20.1,16.2"/>
			<path id="XMLID_25_" class="astrics-3" d="M20.1,23"/>
			<path id="XMLID_24_" class="astrics-3" d="M20.1,24.5"/>
		</g>
	</g>
	<g id="XMLID_2144_">
		<path id="XMLID_2208_" class="astrics-2" d="M39.9,25.6c0.6,0,1.1-0.5,1.1-1.1c0-0.6-0.5-1.1-1.1-1.1H21.1c-0.6,0-1.1,0.5-1.1,1.1
			c0,0.6,0.5,1.1,1.1,1.1H39.9z"/>
		<path id="XMLID_2145_" class="astrics-2" d="M39.9,25.6c0.6,0,1.1-0.5,1.1-1.1c0-0.6-0.5-1.1-1.1-1.1H21.1c-0.6,0-1.1,0.5-1.1,1.1
			c0,0.6,0.5,1.1,1.1,1.1H39.9z"/>
	</g>
	<path id="XMLID_2210_" class="astrics-3" d="M30.5,15.1"/>
	<g id="XMLID_1947_">
		<path id="XMLID_2206_" class="astrics-2" d="M29.4,33.9c0,0.6,0.5,1.1,1.1,1.1c0.6,0,1.1-0.5,1.1-1.1V15.1c0-0.6-0.5-1.1-1.1-1.1
			c-0.6,0-1.1,0.5-1.1,1.1V33.9z"/>
		<path id="XMLID_2204_" class="astrics-2" d="M29.4,33.9c0,0.6,0.5,1.1,1.1,1.1c0.6,0,1.1-0.5,1.1-1.1V15.1c0-0.6-0.5-1.1-1.1-1.1
			c-0.6,0-1.1,0.5-1.1,1.1V33.9z"/>
	</g>
	<g id="XMLID_2252_">
		<path id="XMLID_2297_" class="astrics-2" d="M36.4,31.9c0.4,0.4,1.1,0.4,1.5,0c0.4-0.4,0.4-1.1,0-1.5L24.7,17.1c-0.4-0.4-1.1-0.4-1.5,0
			c-0.4,0.4-0.4,1.1,0,1.5L36.4,31.9z"/>
		<path id="XMLID_2253_" class="astrics-2" d="M36.4,31.9c0.4,0.4,1.1,0.4,1.5,0c0.4-0.4,0.4-1.1,0-1.5L24.7,17.1c-0.4-0.4-1.1-0.4-1.5,0
			c-0.4,0.4-0.4,1.1,0,1.5L36.4,31.9z"/>
	</g>
	<g id="XMLID_2213_">
		<path id="XMLID_2250_" class="astrics-2" d="M23.1,30.4c-0.4,0.4-0.4,1.1,0,1.5c0.4,0.4,1.1,0.4,1.5,0L38,18.6c0.4-0.4,0.4-1.1,0-1.5
			c-0.4-0.4-1.1-0.4-1.5,0L23.1,30.4z"/>
		<path id="XMLID_2214_" class="astrics-2" d="M23.1,30.4c-0.4,0.4-0.4,1.1,0,1.5c0.4,0.4,1.1,0.4,1.5,0L38,18.6c0.4-0.4,0.4-1.1,0-1.5
			c-0.4-0.4-1.1-0.4-1.5,0L23.1,30.4z"/>
	</g>
</g>
</svg>
