<?xml version="1.0" encoding="utf-8"?>
<!-- Generator: Adobe Illustrator 23.0.1, SVG Export Plug-In . SVG Version: 6.00 Build 0)  -->
<svg version="1.2" baseProfile="tiny" id="Layer_1" xmlns="http://www.w3.org/2000/svg" xmlns:xlink="http://www.w3.org/1999/xlink"
	 x="0px" y="0px" viewBox="0 0 18 16.3" xml:space="preserve">
<style type="text/css">
	.bottom-chat{fill:#999999;}
</style>
<g>
	<path class="bottom-chat" d="M9,15.4c0.8,0,1.6-0.1,2.4-0.4l3.8,0.7c0,0,0.1,0,0.1,0c0.2,0,0.3-0.1,0.4-0.2c0.1-0.2,0.1-0.4,0.1-0.6
		l-1-2.3c0.4-0.6,0.8-1.2,1-1.8C16.2,9.9,16.4,9,16.4,8c0-4.1-3.3-7.4-7.4-7.4S1.6,4,1.6,8S4.9,15.4,9,15.4z M9,1.8
		c3.5,0,6.3,2.8,6.3,6.3c0,0.8-0.1,1.6-0.4,2.3c-0.2,0.6-0.6,1.2-1.1,1.8c-0.1,0.2-0.2,0.4-0.1,0.6l0.7,1.7l-2.9-0.5
		c0,0-0.1,0-0.1,0c-0.1,0-0.1,0-0.2,0c-0.7,0.3-1.4,0.4-2.2,0.4c-3.5,0-6.3-2.8-6.3-6.3S5.5,1.8,9,1.8z"/>
</g>
</svg>
