<?xml version="1.0" encoding="utf-8"?>
<!-- Generator: Adobe Illustrator 23.0.1, SVG Export Plug-In . SVG Version: 6.00 Build 0)  -->
<svg version="1.2" baseProfile="tiny" id="Layer_1" xmlns="http://www.w3.org/2000/svg" xmlns:xlink="http://www.w3.org/1999/xlink"
	 x="0px" y="0px" viewBox="0 0 18 16.32" xml:space="preserve">
<style type="text/css">
	.bottom-chat{fill:#999999;}
</style>
<g>
	<path class="bottom-chat" d="M9,16.05c0.88,0,1.77-0.14,2.63-0.45l4.14,0.72c0.04,0,0.06,0,0.1,0c0.19,0,0.37-0.08,0.47-0.23
		c0.14-0.19,0.16-0.41,0.08-0.62l-1.09-2.55c0.47-0.62,0.84-1.28,1.13-1.98c0.37-0.93,0.56-1.91,0.56-2.92C17.03,3.6,13.42,0,9,0
		S0.97,3.6,0.97,8.03S4.58,16.05,9,16.05z M9,1.23c3.75,0,6.79,3.05,6.79,6.79c0,0.86-0.16,1.69-0.47,2.47
		c-0.27,0.7-0.66,1.34-1.15,1.91c-0.14,0.19-0.19,0.43-0.1,0.64l0.78,1.85l-3.17-0.54c-0.04,0-0.06,0-0.1,0
		c-0.08,0-0.14,0.02-0.21,0.04c-0.76,0.3-1.57,0.45-2.37,0.45c-3.75,0-6.79-3.05-6.79-6.79S5.25,1.23,9,1.23z"/>
</g>
</svg>
