<?xml version="1.0" encoding="utf-8"?>
<!-- Generator: Adobe Illustrator 19.0.0, SVG Export Plug-In . SVG Version: 6.00 Build 0)  -->
<svg version="1.1" id="Layer_1" xmlns="http://www.w3.org/2000/svg" xmlns:xlink="http://www.w3.org/1999/xlink" x="0px" y="0px"
	 viewBox="0 0 200.1 237.3" style="enable-background:new 0 0 200.1 237.3;" xml:space="preserve">
<style type="text/css">
	.check-order-1{fill:none;stroke:#21201F;stroke-width:7;stroke-linecap:round;stroke-linejoin:round;stroke-miterlimit:10;}
	.check-order-2{stroke:#FFFFFF;stroke-width:3;stroke-miterlimit:10;}
</style>
<g id="XMLID_642_">
	<path id="XMLID_643_" class="check-order-1" d="M159.6,125.4V197c0,16.3-12.6,29.6-29.6,29.6H35.4c-16.3,0-29.6-13.3-29.6-29.6V55
		c0-16.3,13.3-29.6,29.6-29.6h24.3"/>
</g>
<line id="XMLID_641_" class="check-order-1" x1="41.3" y1="133.8" x2="124.1" y2="133.8"/>
<line id="XMLID_640_" class="check-order-1" x1="41.3" y1="162.4" x2="124.1" y2="162.4"/>
<line id="XMLID_639_" class="check-order-1" x1="40.9" y1="191.1" x2="123.7" y2="191.1"/>
<path id="XMLID_637_" class="check-order-1" d="M124.1,131.9"/>
<line id="XMLID_636_" class="check-order-1" x1="40.9" y1="105.2" x2="103.8" y2="105.2"/>
<line id="XMLID_574_" class="check-order-1" x1="40.9" y1="76.5" x2="88.1" y2="76.5"/>
<line id="XMLID_573_" class="check-order-1" x1="40.9" y1="51.1" x2="78.1" y2="51.1"/>
<g id="XMLID_44_" transform="translate(0,-952.36218)" class="check-order-2">
	<path id="XMLID_45_" class="check-order-2" d="M138.2,958.2c-19.9,0-36.2,16.3-36.2,36.2c0,19.9,16.3,36.2,36.2,36.2c8.2,0,15.7-2.7,21.8-7.3
		l28.3,28.4c2,2,5.2,2,7.1,0c2-2,2-5.1,0-7.1l-28.4-28.4c4.6-6.1,7.3-13.6,7.3-21.8C174.4,974.5,158.1,958.2,138.2,958.2
		L138.2,958.2z M138.2,968.2c14.5,0,26.2,11.7,26.2,26.2c0,14.5-11.7,26.2-26.2,26.2c-14.5,0-26.2-11.7-26.2-26.2
		C111.9,979.9,123.6,968.2,138.2,968.2z"/>
</g>
</svg>
