<?xml version="1.0" encoding="UTF-8" standalone="no"?>
<!DOCTYPE svg PUBLIC "-//W3C//DTD SVG 1.1//EN"
"http://www.w3.org/Graphics/SVG/1.1/DTD/svg11.dtd">


<!-- Page 23 -->
<svg x="0" y="0" viewBox="0 0 280 280" version="1.1" xmlns="http://www.w3.org/2000/svg" xmlns:xlink="http://www.w3.org/1999/xlink"
style="display: block;margin-left: auto;margin-right: auto;">

<path d="M169.3,138.9l-0.4,0.5c-1.5,1.5,-3.7,1.5,-5.2,0L102,86.8l136.2,0c1.5,0,2.7,0.3,4,0.8ZM238.5,79.7l-149.9,0c-1.2,0,-2.2,1,-2.2,2.2c0,0.7,0.2,1.2,0.7,1.7l71.6,61.2c4.2,4,10.6,3.7,14.8,-0.2L247.6,92.5c0.7,1.5,1.2,3.2,1.2,4.9l-10.6,88.4c0,5.9,-4.7,10.6,-10.6,10.6l-147.4,0c-1,0,-1.7,0.8,-1.9,1.5l-0.8,3.2c-0.2,1,0.5,2.2,1.5,2.5l0.5,0l148.1,0c9.9,0,17.8,-7.9,17.8,-17.8L256,97.4c0.2,-9.8,-7.7,-17.7,-17.5,-17.7Z" class="email_sent sidebar-svg" />
<path d="M135.8,170.3c0,-2,-1.5,-3.5,-3.5,-3.5l-78.2,0c-2,0,-3.5,1.5,-3.5,3.5c0,1.9,1.5,3.4,3.5,3.4l78.2,0c1.7,0,3.5,-1.5,3.5,-3.4Z" class="email_sent sidebar-svg" />
<path d="M118.7,145.3c0,-1.9,-1.4,-3.4,-3.4,-3.7l-94.8,0c-2,0,-3.5,1.5,-3.5,3.5c0,2,1.5,3.4,3.5,3.4l94.8,0c2,0.3,3.4,-1.2,3.4,-3.2Z" class="email_sent sidebar-svg" />
<path d="M44.2,124.1l45.9,0c2,0,3.5,-1.5,3.5,-3.5c0,-1.9,-1.5,-3.4,-3.5,-3.4l-45.9,0c-2,0,-3.5,1.5,-3.5,3.4c0,2,1.5,3.5,3.5,3.5Z" class="email_sent sidebar-svg" />

</svg>
