<?xml version="1.0" encoding="utf-8"?>
<!-- Generator: Adobe Illustrator 19.0.0, SVG Export Plug-In . SVG Version: 6.00 Build 0)  -->
<svg version="1.1" id="Layer_1" xmlns="http://www.w3.org/2000/svg" xmlns:xlink="http://www.w3.org/1999/xlink" x="0px" y="0px"
	 viewBox="0 0 193.6 55.6" style="enable-background:new 0 0 193.6 55.6;" xml:space="preserve">
<style type="text/css">
	.exir-logo-01{opacity:0.5;}
</style>
<g id="XMLID_711_" class="exir-logo-01">
	<polygon id="XMLID_870_" points="116.9,0 99.2,0 90.5,14.9 90.3,14.9 81.7,0 78.5,0 78.5,0 26.3,0 19.7,12.3 48.2,12.3 70.9,12.3
		70.9,12.2 80.1,26.4 61.2,55.6 79.5,55.6 89.6,38.3 89.8,38.3 99.3,55.6 118.7,55.6 100.2,26.2 	"/>
	<rect id="XMLID_861_" x="121" y="0" width="16.2" height="55.6"/>
	<path id="XMLID_854_" d="M191.4,39.5c-0.9-4.4-3.3-7.5-7.8-9.2v-0.2c5.8-2.6,9.1-7.2,9.1-13.5c0-11.3-9.6-16.6-21-16.6h-27.6v55.6
		h16.2V36.2h7.5c4.7,0,6.6,2.2,7.6,6.5c1.2,5,0.5,11.8,2.1,12.9h16v-0.9C191.6,54.2,192.9,46.2,191.4,39.5z M169.1,24.6h-8.7V12.8
		h8.9c4.7,0,7,2.3,7,6C176.3,22.6,173.7,24.6,169.1,24.6z"/>
	<polygon id="XMLID_737_" points="16.5,21.7 9.9,33.9 33.2,33.9 61,33.9 68.6,21.7 	"/>
	<polygon id="XMLID_714_" points="0,55.6 24.4,55.6 51.2,55.6 58.7,43.4 6.6,43.4 	"/>
</g>
</svg>
