<?xml version="1.0" encoding="UTF-8" standalone="no"?>
<!DOCTYPE svg PUBLIC "-//W3C//DTD SVG 1.1//EN"
"http://www.w3.org/Graphics/SVG/1.1/DTD/svg11.dtd">


<!-- Page 5 -->
<svg x="0" y="0" width="280" height="280" viewBox="0 0 280 280" version="1.1" xmlns="http://www.w3.org/2000/svg" xmlns:xlink="http://www.w3.org/1999/xlink"
style="display: block;margin-left: auto;margin-right: auto;">
<defs>
<clipPath id="c0_5"><path d="M0,280.3L0,0L280.3,0l0,280.3Z" /></clipPath>

<style type="text/css"><![CDATA[

.g1_5{
fill: #00A54F;
}
.g2_5{
fill: #050604;
}


]]></style>

</defs>
<path d="M0,0
L0,280
L280,280
L280,0 Z " 
fill="#FFFFFF" stroke="none" />
<path d="M192.5,60.7l-7.6,-8.3c0,0,18.9,-9.1,36,1.3c17,10.3,29.5,36.2,30.4,42c0.9,5.8,10.1,38.1,4.6,58.8c-5.5,20.7,-13.1,61.2,-35,69.1c-22,7.9,-39.3,4.6,-39.3,4.6l-6.7,-2.5c0,0,16.1,-7.6,25,-18.9c8.8,-11.2,20.7,-41.4,21,-50.8c0.3,-9.5,-2.2,-46.6,-7,-60C209,82.6,196.2,64.9,192.5,60.7Z" class="g1_5" />
<path d="M176.9,168.7c0.9,0,2.2,-0.7,2.8,-1.3c1.6,-1.5,1.6,-4,0,-5.6L162.8,145l37.5,0c2.2,0,4.1,-1.9,4.1,-4.1c0,-2.2,-1.9,-4.1,-4.1,-4.1l-37.5,0L179.7,120c1.6,-1.6,1.6,-4.1,0,-5.6c-1.6,-1.6,-4.1,-1.6,-5.6,0l-23.4,23.4c-1.6,1.5,-1.6,4,0,5.6l23.4,23.4c0.9,0.6,1.9,1.9,2.8,1.9Z" class="g2_5" />
<path d="M132.9,34.1l0,59.2L154.5,65.5l0,-31.4Z" class="g1_5" />
<path d="M132.9,190.1l0,55.8l21.6,0l0,-30.4Z" class="g1_5" />
<path d="M135.1,245l-22.4,0l0,-210.5l22.4,0l0,210.5Z" class="g1_5" />
<g clip-path="url(#c0_5)">
<path d="M176.9,218.6c-21.2,0,-39,-35.6,-39,-78c0,-42.5,17.8,-78,39,-78c21.2,0,39,35.5,39,78c0,42.4,-17.8,78,-39,78m30.3,0c0.9,-0.9,1.5,-1.9,2.5,-2.8l9.3,0c-3.1,1.9,-6.5,2.8,-9.7,2.8ZM227.4,208l-12.1,0c0.6,-0.9,0.9,-1.9,1.5,-2.8l13.5,0c-0.7,0.9,-1.6,1.9,-2.2,2.8Zm6.9,-10.3l-13.4,0c0.6,-1.6,1.2,-3.4,1.9,-5l14.6,0c-0.9,1.6,-1.5,3.4,-2.5,5c-0.3,-0.3,-0.6,-0.3,-0.6,0m5.3,-12.8l-14.3,0c0.6,-2.2,1.2,-4.7,1.8,-6.9l15.3,0c-0.6,2.2,-1.5,4.7,-2.2,6.9c-0.3,0,-0.3,-0.3,-0.6,0M244,170.2l-15,0c0.3,-2.8,0.9,-5.6,1.3,-8.4l15.6,0c-0.7,2.8,-1,5.6,-1.6,8.4ZM246.5,154l-15.6,-0.3c0.3,-3.1,0.6,-6.3,0.6,-9.4l15.6,0c-0.3,3.5,-0.3,6.6,-0.6,9.7m0.6,-17.5l-15.6,0c-0.3,-3.1,-0.3,-6.2,-0.6,-9.3l15.6,0c0.3,3.1,0.6,6.2,0.6,9.3m-1.6,-17.1l-15.6,0c-0.3,-2.8,-0.6,-5.7,-1.2,-8.5l15,0l0.6,0c0.6,2.8,0.9,5.7,1.2,8.5m-3.1,-16.3l-15.3,0c-0.6,-2.5,-1.2,-4.6,-1.8,-6.8l14.3,0l0.6,0c1,2.2,1.6,4.6,2.2,6.8M237.1,88.8l-14.6,0c-0.7,-1.9,-1.3,-3.5,-1.9,-5l13.4,0c0.3,0,0.6,-0.3,0.9,-0.3c1,1.8,1.6,3.4,2.2,5.3M230.3,76l-13.5,0c-0.6,-1,-0.9,-1.9,-1.5,-2.8l12.1,0l0.7,0c0.6,0.9,1.2,1.8,2.2,2.8m-11,-10.6l-9.3,0c-1,-1,-1.6,-1.9,-2.5,-2.8l1.8,0c3.5,0,6.6,0.9,10,2.8M114.5,242l0,-202.8l39,0l0,16.5c-18.7,14.7,-31.2,46.8,-31.2,84.9c0,38.1,12.5,70.2,31.2,84.9l0,16.5ZM176.9,47.3l-0.9,0l-0.7,0c-5,0.3,-9.6,1.5,-14,3.7l0,-15.6c0,-2.2,-1.9,-4,-4.1,-4l-46.8,0c-2.2,0,-4,1.8,-4,4l0,210.7c0,2.2,1.8,4,4,4l46.8,0c2.2,0,4.1,-1.8,4.1,-4l0,-15.6c4.4,2.1,9,3.4,14,3.7l0.7,0l0.9,0l0,31.2l-85.8,0l0,-249.6l85.8,0Zm15.6,225.9l0,-39l16.8,0c30,0,53.4,-41.2,53.4,-93.6C262.7,88.2,239.3,47,209.3,47l-16.8,0l0,-39.1c0,-4.3,-3.4,-7.8,-7.8,-7.8L83.3,0.1c-4.4,0,-7.8,3.5,-7.8,7.8l0,265.3c0,4.4,3.4,7.8,7.8,7.8l101.4,0c4.4,0,7.8,-3.4,7.8,-7.8Z" class="g2_5" />
</g>

</svg>
