<?xml version="1.0" encoding="utf-8"?>
<!-- Generator: Adobe Illustrator 23.0.1, SVG Export Plug-In . SVG Version: 6.00 Build 0)  -->
<svg version="1.2" baseProfile="tiny" id="Layer_1" xmlns="http://www.w3.org/2000/svg" xmlns:xlink="http://www.w3.org/1999/xlink"
	 x="0px" y="0px" viewBox="0 0 20 19.87" xml:space="preserve">
<style type="text/css">
	.help-question{fill:#999999;}
</style>
<g>
	<path class="help-question" d="M10,0C4.52,0,0.07,4.46,0.07,9.93c0,5.48,4.46,9.93,9.93,9.93c5.48,0,9.93-4.46,9.93-9.93
		C19.93,4.46,15.48,0,10,0 M10,18.27c-4.6,0-8.34-3.74-8.34-8.34S5.4,1.59,10,1.59c4.6,0,8.34,3.74,8.34,8.34S14.6,18.27,10,18.27
		 M9.84,13.14c-0.35,0-0.66,0.13-0.91,0.37c-0.25,0.25-0.37,0.55-0.37,0.91c0,0.35,0.12,0.66,0.37,0.91
		c0.25,0.25,0.55,0.37,0.91,0.37c0.35,0,0.66-0.12,0.91-0.37c0.25-0.25,0.37-0.55,0.37-0.91c0-0.35-0.12-0.66-0.37-0.91
		C10.5,13.26,10.2,13.14,9.84,13.14 M12.65,4.9c-0.38-0.25-0.8-0.43-1.27-0.55c-0.47-0.12-0.96-0.18-1.46-0.18
		c-0.48,0-0.93,0.08-1.37,0.23C8.11,4.56,7.72,4.77,7.39,5.03C7.05,5.3,6.78,5.61,6.58,5.95c-0.2,0.35-0.3,0.71-0.3,1.1
		c0,0.31,0.1,0.55,0.3,0.71C6.78,7.92,7.02,8,7.29,8c0.25,0,0.44-0.05,0.58-0.16c0.14-0.1,0.26-0.23,0.35-0.38
		C8.31,7.31,8.4,7.15,8.47,6.97C8.54,6.8,8.64,6.63,8.76,6.48S9.03,6.21,9.23,6.1C9.42,6,9.68,5.95,10.01,5.95
		c0.47,0,0.83,0.12,1.1,0.35c0.26,0.23,0.4,0.56,0.4,0.99c0,0.26-0.07,0.49-0.2,0.69c-0.13,0.2-0.3,0.39-0.5,0.57
		c-0.2,0.18-0.42,0.36-0.65,0.53C9.92,9.24,9.7,9.43,9.5,9.62c-0.2,0.2-0.37,0.41-0.51,0.65c-0.14,0.23-0.2,0.51-0.2,0.82
		c0,0.25,0.08,0.49,0.25,0.71c0.17,0.22,0.42,0.34,0.75,0.34c0.26,0,0.45-0.04,0.58-0.12c0.13-0.08,0.23-0.19,0.3-0.32
		c0.07-0.13,0.13-0.27,0.18-0.43c0.05-0.16,0.12-0.3,0.21-0.44c0.08-0.12,0.21-0.25,0.38-0.37c0.17-0.12,0.36-0.26,0.57-0.41
		s0.42-0.32,0.65-0.5c0.22-0.18,0.43-0.38,0.61-0.6c0.18-0.22,0.33-0.46,0.44-0.73c0.11-0.27,0.17-0.58,0.17-0.92
		c0-0.55-0.11-1.02-0.34-1.42C13.33,5.47,13.03,5.15,12.65,4.9"/>
</g>
</svg>
