<?xml version="1.0" encoding="utf-8"?>
<!-- Generator: Adobe Illustrator 19.0.0, SVG Export Plug-In . SVG Version: 6.00 Build 0)  -->
<svg version="1.1" id="Layer_1" xmlns="http://www.w3.org/2000/svg" xmlns:xlink="http://www.w3.org/1999/xlink" x="0px" y="0px"
	 viewBox="0 0 20 20" style="enable-background:new 0 0 20 20;" xml:space="preserve">
<style type="text/css">
	.st0{fill:#00AEEF;}
	.st1{fill:#FFFFFF;}
</style>
<g id="XMLID_5_">
	<circle id="XMLID_299_" class="st0" cx="10" cy="10" r="10"/>
	<g id="XMLID_1_">
		<path id="XMLID_2_" class="st1" d="M8.9,12c0-0.5,0.1-1,0.3-1.4c0.2-0.4,0.5-0.7,1-1c0.2-0.1,0.4-0.2,0.6-0.4
			C11,9,11.2,8.9,11.4,8.7c0.2-0.2,0.4-0.4,0.5-0.6c0.1-0.2,0.2-0.5,0.2-0.9c0-0.3-0.1-0.5-0.2-0.7c-0.1-0.2-0.2-0.4-0.4-0.5
			c-0.2-0.1-0.4-0.3-0.6-0.3c-0.2-0.1-0.4-0.1-0.7-0.1c-0.2,0-0.5,0-0.7,0.1C9.4,5.7,9.2,5.8,9,5.9C8.9,6.1,8.7,6.2,8.5,6.4
			C8.4,6.6,8.3,6.7,8.2,6.9L7.3,6.3C7.4,6,7.6,5.8,7.8,5.5C8,5.3,8.3,5.1,8.6,4.9c0.3-0.2,0.6-0.3,0.9-0.4s0.6-0.1,1-0.1
			c0.4,0,0.7,0.1,1.1,0.2s0.7,0.3,0.9,0.5c0.3,0.2,0.5,0.5,0.7,0.9c0.2,0.4,0.3,0.8,0.3,1.3c0,0.4-0.1,0.7-0.2,1
			c-0.1,0.3-0.2,0.5-0.4,0.7c-0.2,0.2-0.4,0.4-0.6,0.5c-0.2,0.1-0.5,0.3-0.7,0.4c-0.2,0.1-0.4,0.2-0.5,0.3c-0.2,0.1-0.3,0.2-0.5,0.4
			c-0.1,0.2-0.2,0.3-0.3,0.6C10.1,11.4,10,11.6,10,12H8.9z M9,15.1v-1.7h1.1v1.7H9z"/>
	</g>
</g>
</svg>
