<?xml version="1.0" encoding="utf-8"?>
<!-- Generator: Adobe Illustrator 23.0.1, SVG Export Plug-In . SVG Version: 6.00 Build 0)  -->
<svg version="1.2" baseProfile="tiny" id="Layer_1" xmlns="http://www.w3.org/2000/svg" xmlns:xlink="http://www.w3.org/1999/xlink"
	 x="0px" y="0px" viewBox="0 0 20 19.9" xml:space="preserve">
<style type="text/css">
	.help-question{fill:#999999;}
</style>
<g>
	<path class="help-question" d="M10,0.8c-5,0-9.1,4.1-9.1,9.1C0.9,15,5,19,10,19c5,0,9.1-4.1,9.1-9.1S15,0.8,10,0.8 M10,17.6
		c-4.2,0-7.6-3.4-7.6-7.6S5.8,2.3,10,2.3s7.6,3.4,7.6,7.6S14.2,17.6,10,17.6 M9.9,12.9c-0.3,0-0.6,0.1-0.8,0.3
		c-0.2,0.2-0.3,0.5-0.3,0.8c0,0.3,0.1,0.6,0.3,0.8s0.5,0.3,0.8,0.3c0.3,0,0.6-0.1,0.8-0.3S11,14.4,11,14c0-0.3-0.1-0.6-0.3-0.8
		S10.2,12.9,9.9,12.9 M12.4,5.3c-0.3-0.2-0.7-0.4-1.2-0.5c-0.4-0.1-0.9-0.2-1.3-0.2c-0.4,0-0.9,0.1-1.3,0.2C8.3,5,7.9,5.2,7.6,5.4
		C7.3,5.7,7,6,6.9,6.3c-0.2,0.3-0.3,0.7-0.3,1c0,0.3,0.1,0.5,0.3,0.7s0.4,0.2,0.7,0.2c0.2,0,0.4,0,0.5-0.1c0.1-0.1,0.2-0.2,0.3-0.3
		c0.1-0.1,0.2-0.3,0.2-0.4c0.1-0.2,0.2-0.3,0.3-0.4s0.2-0.2,0.4-0.3C9.5,6.3,9.7,6.3,10,6.3c0.4,0,0.8,0.1,1,0.3
		c0.2,0.2,0.4,0.5,0.4,0.9c0,0.2-0.1,0.4-0.2,0.6s-0.3,0.4-0.5,0.5c-0.2,0.2-0.4,0.3-0.6,0.5C9.9,9.3,9.7,9.5,9.5,9.6
		C9.4,9.8,9.2,10,9.1,10.2c-0.1,0.2-0.2,0.5-0.2,0.8c0,0.2,0.1,0.4,0.2,0.7S9.5,12,9.8,12c0.2,0,0.4,0,0.5-0.1
		c0.1-0.1,0.2-0.2,0.3-0.3c0.1-0.1,0.1-0.2,0.2-0.4c0-0.1,0.1-0.3,0.2-0.4c0.1-0.1,0.2-0.2,0.3-0.3c0.2-0.1,0.3-0.2,0.5-0.4
		s0.4-0.3,0.6-0.5C12.6,9.4,12.8,9.2,13,9c0.2-0.2,0.3-0.4,0.4-0.7c0.1-0.2,0.2-0.5,0.2-0.8c0-0.5-0.1-0.9-0.3-1.3
		C13.1,5.8,12.8,5.5,12.4,5.3"/>
</g>
</svg>
