<?xml version="1.0" encoding="utf-8"?>
<!-- Generator: Adobe Illustrator 19.0.0, SVG Export Plug-In . SVG Version: 6.00 Build 0)  -->
<svg version="1.1" id="Layer_1" xmlns="http://www.w3.org/2000/svg" xmlns:xlink="http://www.w3.org/1999/xlink" x="0px" y="0px"
	 viewBox="-449 252.3 59.6 57.7" style="enable-background:new -449 252.3 59.6 57.7;" xml:space="preserve">
<style type="text/css">
	.st0{fill:#C6C5C4;}
</style>
<path id="XMLID_5_" class="st0" d="M-398,299.6h-41.1c-2.6,0-4.6-2.1-4.6-4.6v-26.9c0-2.6,2.1-4.6,4.6-4.6h41.1
	c2.6,0,4.6,2.1,4.6,4.6v26.9C-393.4,297.5-395.5,299.6-398,299.6z M-440,265.4c-1.1,0-2.1,0.9-2.1,2.1v28c0,1.1,0.9,2.1,2.1,2.1
	h42.8c1.1,0,2.1-0.9,2.1-2.1v-28c0-1.1-0.9-2.1-2.1-2.1H-440z"/>
<path id="XMLID_4_" class="st0" d="M-417.4,290c0-0.1-0.2-2.3-1.7-4.5c-1-1.5-2.7-3.2-5.6-4c1.5-1.1,2.5-3,2.5-5
	c0-3.5-2.8-6.3-6.3-6.3c-3.5,0-6.3,2.8-6.3,6.3c0,3.4,2.8,6.2,6.2,6.3c0.1,0,0.1,0,0.2,0c3.5,0,6.2,1.2,7.8,3.6
	c0.7,1,1.1,2.1,1.2,2.8h-17.6c0.2-1.4,1-4.1,4.3-5.5c0.4-0.2,0.6-0.7,0.4-1.1c-0.2-0.4-0.7-0.6-1.1-0.4c-2.9,1.3-4.2,3.3-4.8,4.9
	c-0.6,1.7-0.6,3-0.6,3.1l0,0.8h21.4L-417.4,290z M-432.9,276.5c0-2.5,2-4.6,4.6-4.6c2.5,0,4.6,2,4.6,4.6s-2,4.6-4.6,4.6
	C-430.9,281-432.9,279-432.9,276.5z"/>
<path id="XMLID_3_" class="st0" d="M-400.3,280.1C-400.3,280.1-400.3,280.1-400.3,280.1l-12.4,0c0,0-0.1,0-0.1,0
	c-0.7,0-1.3,0.6-1.3,1.3c0,0.7,0.6,1.3,1.3,1.3v0h12.4v0c0,0,0,0,0,0c0.7,0,1.3-0.6,1.3-1.3C-399,280.7-399.6,280.1-400.3,280.1z"/>
<path id="XMLID_2_" class="st0" d="M-405.6,287.5C-405.7,287.5-405.7,287.5-405.6,287.5l-7,0c0,0-0.1,0-0.1,0
	c-0.7,0-1.3,0.6-1.3,1.3c0,0.7,0.6,1.3,1.3,1.3v0h7.1v0c0,0,0,0,0,0c0.7,0,1.3-0.6,1.3-1.3C-404.3,288.1-404.9,287.5-405.6,287.5z"
	/>
<path id="XMLID_1_" class="st0" d="M-400.3,272.6C-400.3,272.6-400.3,272.6-400.3,272.6l-12.4,0c0,0-0.1,0-0.1,0
	c-0.7,0-1.3,0.6-1.3,1.3c0,0.7,0.6,1.3,1.3,1.3v0h12.4v0c0,0,0,0,0,0c0.7,0,1.3-0.6,1.3-1.3C-399,273.2-399.6,272.6-400.3,272.6z"/>
</svg>
