<?xml version="1.0" encoding="utf-8"?>
<!-- Generator: Adobe Illustrator 19.0.0, SVG Export Plug-In . SVG Version: 6.00 Build 0)  -->
<svg version="1.1" id="Layer_1" xmlns="http://www.w3.org/2000/svg" xmlns:xlink="http://www.w3.org/1999/xlink" x="0px" y="0px"
	 viewBox="0 0 97 97" style="enable-background:new 0 0 97 97;" xml:space="preserve">
<style type="text/css">
	.incoming-toman-01{fill:#019147;}
	.incoming-toman-02{fill:#21201F;}
</style>
<g id="XMLID_1_">
	<polyline id="XMLID_1734_" class="incoming-toman-01" points="35.3,75.9 20.9,71.1 23.7,80.6 37.5,91.9 54.6,90.4 69.1,82.7 76.6,72.1 74.2,69.5
		61.6,73.9 45,78.8 35.5,76.5 	"/>
	<path id="XMLID_1698_" class="incoming-toman-02" d="M79.9,63.7V50.1l0,0c0-18.2-14.8-33-33-33s-33,14.8-33,33l0,0v13.6c0,18.2,14.8,33,33,33
		S79.9,82,79.9,63.7z M49.9,82c2.5-0.2,4.5,0.3,7-0.5v5.1c-2.5,1-4.5,2.6-7,3V82z M64.9,76.6c1.5-1.1,3.2-1.4,4.6-2.7
		c-1.1,2.6-2.6,6-4.6,7.9V76.6z M46.7,25.2c13.8,0,24.9,11.2,24.9,24.9S60.4,75,46.7,75S21.8,63.9,21.8,50.1S32.9,25.2,46.7,25.2z
		 M23.7,73.9c4.8,4.6,11.2,6.7,17.7,7.8v7.5C33.9,87.6,27,81.1,23.7,73.9z"/>
	<path id="XMLID_1697_" class="incoming-toman-02" d="M42.9,50.7c0,0.1-0.1,0.2,0,0.4c0,0.1,0.1,0.2,0.1,0.4c0,0.1,0.1,0.2,0.1,0.4s0,0.1,0.1,0.2
		l7.2,12.5c0.7,1.2,2.1,2,3.5,2c0.6,0,1.4-0.1,2-0.5c2-1.1,2.7-3.6,1.6-5.5L50.9,49V35.6c0-2.2-1.9-4-4-4c-2.2,0-4,1.9-4,4v14.5
		c0,0.1,0,0.1,0,0.2C42.9,50.5,42.9,50.6,42.9,50.7z"/>
	<path id="XMLID_1696_" class="incoming-toman-02" d="M50.9,8.2V4c0-2.2-1.9-4-4-4c-2.2,0-4,1.9-4,4v4.2c0,2.2,1.9,4,4,4
		C49.1,12.2,50.9,10.4,50.9,8.2z"/>
	<path id="XMLID_1695_" class="incoming-toman-02" d="M62.7,15.4c1.6,0,3.1-1,3.7-2.5L68,9.1c0.9-2.1-0.1-4.5-2.2-5.2C63.7,3,61.3,4,60.6,6.1
		L59,9.9c-0.9,2.1,0.1,4.5,2.2,5.2C61.6,15.3,62.2,15.4,62.7,15.4z"/>
	<path id="XMLID_1694_" class="incoming-toman-02" d="M81.9,14.6c-1.6-1.6-4.1-1.6-5.7,0l-3,3c-1.6,1.6-1.6,4.1,0,5.7c0.7,0.7,1.9,1.1,2.9,1.1
		c1,0,2.1-0.4,2.9-1.1l3-3C83.5,18.7,83.5,16.2,81.9,14.6z"/>
</g>
</svg>
