<?xml version="1.0" encoding="UTF-8" standalone="no"?>
<!DOCTYPE svg PUBLIC "-//W3C//DTD SVG 1.1//EN"
"http://www.w3.org/Graphics/SVG/1.1/DTD/svg11.dtd">


<!-- Page 6 -->
<svg x="0" y="0" width="280" height="280" viewBox="0 0 280 280" version="1.1" xmlns="http://www.w3.org/2000/svg" xmlns:xlink="http://www.w3.org/1999/xlink"
style="display: block;margin-left: auto;margin-right: auto;">
<defs>

<style type="text/css"><![CDATA[

.g1_6{
fill: #FBB040;
}
.g2_6{
fill: #1F1F1E;
}


]]></style>

</defs>
<path d="M0,0
L0,280
L280,280
L280,0 Z " 
fill="#FFFFFF" stroke="none" />
<path d="M102.3,220.1l-41,-13.6l7.8,26.9l39.4,32.4l49.2,-4.3l41.4,-21.8l21.5,-30.5l-7,-7.4l-35.9,12.5l-47.7,14l-26.9,-6.6Z" class="g1_6" />
<path d="M69.6,214.4c13.8,13.1,31.2,19.2,50.8,22.4l0,21.3C98,253.5,79.2,235,69.6,214.4M134.9,74.8c39.5,0,71.4,32,71.4,71.4c0,39.4,-31.9,71.4,-71.4,71.4c-39.4,0,-71.3,-32,-71.3,-71.4c0,-39.4,31.9,-71.4,71.3,-71.4m51.9,147.4c4.6,-3.2,9.2,-3.9,13.1,-7.8c-3.2,7.5,-7.8,17.1,-13.1,22.8Zm-43,15.3c7.1,-0.7,13.5,0.7,20.3,-1.4l0,14.5c-6.4,2.9,-13.2,7.5,-20.3,8.6Zm85.6,-52.2l0,-39.1C229.4,94,187.1,51.8,134.9,51.8C82.7,51.8,40.5,94,40.5,146.2l0,39.1c0,52.2,42.2,94.4,94.4,94.4c52.2,0,94.5,-42.2,94.5,-94.4Z" class="g2_6" />
<path d="M123.6,148c0,0.3,0,0.7,0.3,1.1c0,0.3,0.4,0.7,0.4,1c0,0.4,0.3,0.7,0.3,1.1c0,0.3,0,0.3,0.4,0.7l20.6,35.9c2.1,3.5,6,5.6,9.9,5.6c1.8,0,3.9,-0.3,5.7,-1.4c5.7,-3.2,7.5,-10.3,4.3,-15.6L146.3,143l0,-38.3c0,-6.4,-5.3,-11.4,-11.4,-11.4c-6.4,0,-11.3,5.3,-11.3,11.4l0,41.5l0,0.7c0,0.4,0,0.7,0,1.1Z" class="g2_6" />
<path d="M146.3,26.2l0,-12.1C146.3,7.7,141,2.7,134.9,2.7c-6.4,0,-11.3,5.4,-11.3,11.4l0,12.1c0,6.4,5.3,11.3,11.3,11.3c6.4,0,11.4,-4.9,11.4,-11.3Z" class="g2_6" />
<path d="M180.8,46.8c4.6,0,8.8,-2.9,10.6,-7.1l4.6,-11c2.5,-6.1,-0.3,-12.8,-6.4,-14.9c-6,-2.5,-12.8,0.3,-14.9,6.3l-4.6,11.1c-2.5,6,0.4,12.7,6.4,14.9c1.1,0.3,2.8,0.7,4.3,0.7Z" class="g2_6" />
<path d="M235.8,44.7C231.2,40,224.1,40,219.5,44.7l-8.6,8.5c-4.6,4.6,-4.6,11.7,0,16.3c2.2,2.1,5.4,3.2,8.2,3.2c2.8,0,6,-1.1,8.2,-3.2L235.8,61c4.6,-4.6,4.6,-11.7,0,-16.3Z" class="g2_6" />

</svg>
