<?xml version="1.0" encoding="utf-8"?>
<!-- Generator: Adobe Illustrator 23.1.0, SVG Export Plug-In . SVG Version: 6.00 Build 0)  -->
<svg version="1.2" baseProfile="tiny" id="Layer_1" xmlns="http://www.w3.org/2000/svg" xmlns:xlink="http://www.w3.org/1999/xlink"
	 x="0px" y="0px" viewBox="0 0 50 50" xml:space="preserve">
<path class="level_icon" d="M42.7,23.5h-2.9c-0.1,0.6-0.2,1.2-0.4,1.9h-5.6l0.3,1.5v-0.1h9.1v0.1l1-1.5h-2C42.5,24.7,42.6,24.1,42.7,23.5z"/>
<path class="level_icon" d="M43.2,20.3h-2.9c0,0.4-0.1,0.9-0.2,1.5h-4.6l-1.2,1.4h11.3l1-1.4H43C43.1,21.2,43.2,20.7,43.2,20.3z"/>
<path class="level_icon" d="M34,35c-5.6,4.1-8.7,5.7-9.1,5.7c-0.4,0-3.4-1.6-9.1-5.7c-2.6-1.9-4.1-5-5-8H8c1.1,3.7,2.9,7.6,6.1,10
	c6.7,4.9,10.4,6.9,10.8,6.9c0.4,0,4.1-1.9,10.8-6.9c3.2-2.3,5-6.3,6.1-10H39C38.1,30,36.6,33.2,34,35z"/>
<path class="level_icon" d="M43.4,18.6c0.1-1.5-0.3-7.1-0.6-7.6c-0.3-0.6-3.3-1.4-6.6-2.6c-3.4-1.2-11.2-2.3-11.2-2.3s-7.8,1.1-11.2,2.3
	c-3.4,1.2-6.4,2-6.6,2.6c-0.3,0.5-0.6,6.1-0.6,7.6H1.2l1,1.4H13l-1.2-1.4H9.5c0.1-1.8,0.3-4.9,0.5-5.3c0.2-0.5,2.7-1.2,5.5-2.2
	c2.8-1,9.4-1.9,9.4-1.9s6.6,0.9,9.4,1.9c2.8,1,5.3,1.7,5.5,2.2c0.2,0.4,0.4,3.5,0.5,5.3h-2.1L37,20h10.8l1-1.4H43.4z"/>
<g>
	<path class="level_icon" d="M4.4,23.2h11.3l-1.2-1.4H9.8c-0.1-0.6-0.1-1.1-0.2-1.5H6.7c0,0.4,0.1,0.9,0.2,1.5H3.4L4.4,23.2z"/>
	<path class="level_icon" d="M10,23.5H7.2c0.1,0.6,0.2,1.2,0.4,1.9H5.6l1,1.5v-0.1h9.1v0.1h0l0.3-1.5h-5.7C10.3,24.7,10.1,24.1,10,23.5z"/>
</g>
<polygon class="level_icon" points="24.9,12.4 26.6,17.5 31.9,17.5 27.6,20.7 29.2,25.8 24.9,22.6 20.6,25.8 22.2,20.7 17.9,17.5 23.2,17.5 "/>
<polygon class="level_icon" points="24.9,26.1 25.8,28.9 28.8,28.9 26.4,30.7 27.3,33.5 24.9,31.7 22.5,33.5 23.4,30.7 21,28.9 24,28.9 "/>
</svg>
