<?xml version="1.0" encoding="utf-8"?>
<!-- Generator: Adobe Illustrator 19.0.0, SVG Export Plug-In . SVG Version: 6.00 Build 0)  -->
<svg version="1.1" id="Layer_1" xmlns="http://www.w3.org/2000/svg" xmlns:xlink="http://www.w3.org/1999/xlink" x="0px" y="0px"
	 viewBox="-170 262 270 270" style="enable-background:new -170 262 270 270;" xml:space="preserve">
<style type="text/css">
	.st0{fill:none;stroke:#21201F;stroke-width:7;stroke-linecap:round;stroke-linejoin:round;stroke-miterlimit:10;}
	.st1{fill:none;stroke:#F69321;stroke-width:7;stroke-linecap:round;stroke-linejoin:round;stroke-miterlimit:10;}
	.st2{fill:#F69321;}
	.st3{fill:#010101;}
</style>
<g id="XMLID_617_">
	<path id="XMLID_618_" class="st0" d="M15.9,426.6v71.6c0,16.3-12.6,29.6-29.6,29.6h-94.7c-16.3,0-29.6-13.3-29.6-29.6v-142
		c0-16.3,13.3-29.6,29.6-29.6H-84"/>
</g>
<line id="XMLID_616_" class="st0" x1="-102.4" y1="435" x2="-19.6" y2="435"/>
<line id="XMLID_615_" class="st0" x1="-102.4" y1="463.6" x2="-19.6" y2="463.6"/>
<line id="XMLID_614_" class="st0" x1="-102.8" y1="492.3" x2="-20" y2="492.3"/>
<path id="XMLID_612_" class="st0" d="M-19.6,433.1"/>
<line id="XMLID_609_" class="st1" x1="-82.6" y1="406.4" x2="-19.6" y2="406.4"/>
<polyline id="XMLID_608_" class="st1" points="-105.2,406.4 -100.4,409 -94.1,399.2 "/>
<polyline id="XMLID_607_" class="st1" points="-105.2,379.7 -100.4,382.4 -94.1,372.6 "/>
<polyline id="XMLID_606_" class="st1" points="-105.2,353.1 -100.4,355.7 -94.1,345.9 "/>
<line id="XMLID_605_" class="st1" x1="-82.6" y1="377.7" x2="-33.6" y2="377.7"/>
<line id="XMLID_625_" class="st1" x1="-82.6" y1="352.1" x2="-44.6" y2="352.1"/>
<circle id="XMLID_442_" class="st2" cx="7.6" cy="346.9" r="42.8"/>
<g id="XMLID_498_">
	<g id="XMLID_528_">
		<path id="XMLID_623_" class="st3" d="M-45.3,347.3c0,28.1,21.9,51,48.8,51c2.4,0,4.8-0.2,7.2-0.6h13.6c26.8,0,48.5-22.8,48.5-50.8
			S51,296.2,24.3,296.2H5.4v0.2c-0.7,0-1.3-0.1-2-0.1C-23.4,296.3-45.3,319.2-45.3,347.3z M25.4,392.8c3.1-1.6,5.9-3.6,8.6-5.8h11.5
			C39.5,390.5,32.7,392.6,25.4,392.8z M52.3,382.1H39c2.7-3,5.1-6.4,7.1-10.1h14.7C58.5,375.8,55.6,379.2,52.3,382.1z M63.5,367.1
			H48.4c1.3-3.2,2.3-6.6,2.9-10.1h15.5C66.1,360.5,65,363.9,63.5,367.1z M67.9,346.9c0,1.7-0.1,3.4-0.3,5.1H52
			c0.1-1.6,0.2-3.2,0.2-4.8c0-1.8-0.1-3.6-0.3-5.3h15.7C67.8,343.6,67.9,345.2,67.9,346.9z M66.9,337.1H51.2
			c-0.7-3.5-1.7-6.9-3.1-10.1h15.4C65,330.1,66.2,333.5,66.9,337.1z M60.9,322H45.8c-2-3.7-4.4-7.1-7.2-10.1h13.9
			C55.7,314.9,58.6,318.3,60.9,322z M24.3,301.1c7.8,0,15.2,2.2,21.5,6H33.4c-2.9-2.3-6-4.4-9.3-6C24,301.1,24.3,301.1,24.3,301.1z
			 M3.5,301.2c24.2,0,43.9,20.7,43.9,46.1c0,25.4-19.7,46.1-43.9,46.1s-43.9-20.7-43.9-46.1C-40.4,321.8-20.7,301.2,3.5,301.2z"/>
		<path id="XMLID_587_" class="st3" d="M3.5,381.1c17.9,0,32.4-15.2,32.4-33.8c0-18.7-14.5-33.8-32.4-33.8s-32.4,15.2-32.4,33.8
			C-28.9,365.9-14.4,381.1,3.5,381.1z M3.5,318.3c15.2,0,27.5,13,27.5,28.9c0,16-12.3,28.9-27.5,28.9s-27.5-13-27.5-28.9
			S-11.7,318.3,3.5,318.3z"/>
		<path id="XMLID_580_" class="st3" d="M-40.4,306.8L-40.4,306.8L-40.4,306.8c0,0.1,0,0.3,0,0.4c0,0,0,0,0,0h5c0,0,0,0,0,0
			c0-0.1,0-0.2,0-0.3c0.4-10.1,8.6-18.1,18.6-18.3v-6.7c-10.1-0.2-18.2-8.1-18.6-18.2c0-0.1,0-0.3,0-0.4c0,0,0,0,0,0h-5c0,0,0,0,0,0
			c0,0.1,0,0.2,0,0.4c-0.4,10.1-8.6,18.1-18.6,18.3v6.7C-49,288.7-40.8,296.7-40.4,306.8z M-50.6,285.2l0.8-0.4
			c4.9-2.1,9-5.9,11.6-10.6l0.3-0.6l0.3,0.6c2.5,4.7,6.7,8.5,11.6,10.6l0.8,0.4l-0.8,0.4c-4.9,2.1-9,5.9-11.6,10.6l-0.3,0.6
			l-0.3-0.6c-2.5-4.7-6.7-8.5-11.6-10.6L-50.6,285.2z"/>
		<path id="XMLID_549_" class="st3" d="M-57.6,331.7c0-0.1,0-0.2,0-0.3c0-0.1,0-0.1,0-0.2C-57.4,325-52.3,320-46,320h0.2v-5.1H-46
			c-6.3,0-11.4-4.9-11.6-11.1c0-0.1,0-0.1,0-0.2c0-0.1,0-0.2,0-0.3l-0.1-0.2h-4.1v0.2c0,0.1,0,0.2,0,0.3c0,0.1,0,0.1,0,0.2
			c-0.3,6.3-5.4,11.2-11.6,11.2h-0.2v5.1h0.2c6.3,0,11.4,4.9,11.6,11.2c0,0.1,0,0.1,0,0.2c0,0.1,0,0.2,0,0.3l0.1,0.2h4.1
			L-57.6,331.7L-57.6,331.7z M-66.7,317.5c2.9-1.4,5.4-3.6,7-6.4c1.6,2.8,4.1,5.1,7,6.4c-2.9,1.4-5.4,3.6-7,6.4
			C-61.3,321.1-63.7,318.9-66.7,317.5z"/>
	</g>
</g>
</svg>
