<?xml version="1.0" encoding="utf-8"?>
<!-- Generator: Adobe Illustrator 19.0.0, SVG Export Plug-In . SVG Version: 6.00 Build 0)  -->
<svg version="1.1" id="Layer_1" xmlns="http://www.w3.org/2000/svg" xmlns:xlink="http://www.w3.org/1999/xlink" x="0px" y="0px"
	 viewBox="-170 262 270 270" style="enable-background:new -170 262 270 270;" xml:space="preserve">
<style type="text/css">
	.st0{fill:#03A550;}
	.st1{opacity:0.33;fill:#21201F;}
	.st2{fill:#F69321;}
	.st3{fill:none;stroke:#FFFFFF;stroke-width:8;stroke-linecap:round;stroke-linejoin:round;stroke-miterlimit:10;}
	.st4{fill:#21201F;}
</style>
<circle id="XMLID_530_" class="st0" cx="-54.1" cy="398" r="50.7"/>
<path id="XMLID_78_" class="st1" d="M-48,398.5c0,29.2,41.3,52.8,12.2,52.8s-52.8-23.7-52.8-52.8s23.7-52.8,52.8-52.8
	S-48,369.3-48,398.5z"/>
<circle id="XMLID_529_" class="st2" cx="-23.8" cy="398" r="50.7"/>
<polyline id="XMLID_126_" class="st3" points="-40.4,404.8 -24.3,413.5 -3.3,380.9 "/>
<g id="XMLID_131_">
	<path id="XMLID_147_" class="st4" d="M-48.8,450.3c-28.9,0-52.3-23.5-52.3-52.3s23.5-52.3,52.3-52.3c0.3,0,0.6,0,0.9,0
		c-18.4,10.2-30.9,29.8-30.9,52.3c0,22.5,12.5,42.1,30.9,52.3C-48.2,450.3-48.5,450.3-48.8,450.3z M-19,450.3
		c-28.9,0-52.3-23.5-52.3-52.3s23.5-52.3,52.3-52.3s52.3,23.5,52.3,52.3S9.8,450.3-19,450.3z M-19,338.2c-5.2,0-10.3,0.7-15.1,1.9
		c-0.3-0.1-0.6-0.3-0.9-0.3c-4.5-1.1-9.1-1.6-13.8-1.6c-33,0-59.8,26.8-59.8,59.8s26.8,59.8,59.8,59.8c5,0,10-0.7,14.9-1.9
		c4.8,1.2,9.8,1.9,15,1.9c33,0,59.8-26.8,59.8-59.8S14,338.2-19,338.2z"/>
</g>
</svg>
