<?xml version="1.0" encoding="utf-8"?>
<!-- Generator: Adobe Illustrator 19.0.0, SVG Export Plug-In . SVG Version: 6.00 Build 0)  -->
<svg version="1.1" id="Layer_1" xmlns="http://www.w3.org/2000/svg" xmlns:xlink="http://www.w3.org/1999/xlink" x="0px" y="0px"
	 viewBox="-170 262 270 270" style="enable-background:new -170 262 270 270;" xml:space="preserve">
<style type="text/css">
	.st0{fill:#03A550;}
	.st1{opacity:0.33;fill:#21201F;}
	.st2{fill:#F69321;}
	.st3{fill:#21201F;}
</style>
<path id="XMLID_661_" class="st0" d="M-28.5,397.3c0,28,2.3,50.7-25.7,50.7s-50.7-22.7-50.7-50.7s22.7-50.7,50.7-50.7
	S-28.5,369.3-28.5,397.3z"/>
<path id="XMLID_635_" class="st1" d="M-45.7,397.3c0,29.2,41.3,52.8,12.2,52.8s-52.8-23.7-52.8-52.8s23.7-52.8,52.8-52.8
	S-45.7,368.2-45.7,397.3z"/>
<path id="XMLID_632_" class="st2" d="M25.5,408.8c0,11.3-21.4,39.2-49.4,39.2s-50.7-22.7-50.7-50.7s22.7-50.7,50.7-50.7v50.7
	L25.5,408.8z"/>
<g id="XMLID_454_">
	<path id="XMLID_532_" class="st3" d="M-19.1,337.6c-5.2,0-10.3,0.7-15.1,1.9c-0.3-0.1-0.6-0.3-0.9-0.3c-4.5-1.1-9.1-1.6-13.8-1.6
		c-33,0-59.8,26.8-59.8,59.8s26.8,59.8,59.8,59.8c5,0,10-0.7,14.9-1.9c4.8,1.2,9.8,1.9,15,1.9c33,0,59.8-26.8,59.8-59.8
		S13.9,337.6-19.1,337.6z M-48.9,449.7c-28.9,0-52.3-23.5-52.3-52.3S-77.8,345-48.9,345c0.3,0,0.6,0,0.9,0
		c-18.4,10.2-30.9,29.8-30.9,52.3c0,22.5,12.5,42.1,30.9,52.3C-48.3,449.6-48.6,449.7-48.9,449.7z M-19.1,449.7
		c-28.9,0-52.3-23.5-52.3-52.3S-47.9,345-19.1,345s52.3,23.5,52.3,52.3S9.8,449.7-19.1,449.7z"/>
</g>
</svg>
