<?xml version="1.0" encoding="utf-8"?>
<!-- Generator: Adobe Illustrator 19.0.0, SVG Export Plug-In . SVG Version: 6.00 Build 0)  -->
<svg version="1.1" id="Layer_1" xmlns="http://www.w3.org/2000/svg" xmlns:xlink="http://www.w3.org/1999/xlink" x="0px" y="0px"
	 viewBox="0 0 26.3 26.3" style="enable-background:new 0 0 26.3 26.3;" xml:space="preserve">
<style type="text/css">
	.st0{fill:#787678;}
</style>
<path id="XMLID_46_" class="st0" d="M0.8,22.9c0-4.5,1.2-8.1,3.7-10.5c2.8-2.7,6.4-3.1,7.8-3.1V3.3l13.6,9.2l-13.4,9.2v-6.4
	C5.5,15.6,2,22.8,2,22.9 M12.7,10.5c-0.9,0-4.6,0.2-7.4,2.8c-1.8,1.7-2.8,4-3.2,7c1.8-2.5,5.4-6.3,11-6.3h0.6v5.3l10-6.9L13.6,5.5v5
	l-0.6,0C12.9,10.5,12.8,10.5,12.7,10.5z"/>
</svg>
