<?xml version="1.0" encoding="utf-8"?>
<!-- Generator: Adobe Illustrator 19.0.0, SVG Export Plug-In . SVG Version: 6.00 Build 0)  -->
<svg version="1.1" id="Layer_1" xmlns="http://www.w3.org/2000/svg" xmlns:xlink="http://www.w3.org/1999/xlink" x="0px" y="0px"
	 viewBox="0 0 59.6 57.7" style="enable-background:new 0 0 59.6 57.7;" xml:space="preserve">
<style type="text/css">
	.st0{fill:#231F20;}
</style>
<path id="XMLID_2105_" class="st0" d="M42.7,11.2c0-2.1-1.7-3.8-3.8-3.8H20.6c-2.1,0-3.8,1.7-3.8,3.8v34.9c0,2.1,1.7,3.8,3.8,3.8
	h18.3c2.1,0,3.8-1.7,3.8-3.8V11.2z M20.6,9.3h18.3c1,0,1.9,0.8,1.9,1.9V13H18.7v-1.8C18.7,10.2,19.6,9.3,20.6,9.3z M40.8,14.8v25.4
	H18.7V14.8H40.8z M38.9,47.9H20.6c-1,0-1.9-0.8-1.9-1.9v-4h22.1v4C40.8,47.1,40,47.9,38.9,47.9z"/>
</svg>
