<?xml version="1.0" encoding="UTF-8" standalone="no"?>
<!DOCTYPE svg PUBLIC "-//W3C//DTD SVG 1.1//EN"
"http://www.w3.org/Graphics/SVG/1.1/DTD/svg11.dtd">


<!-- Page 18 -->
<svg x="0" y="0" width="280" height="280" viewBox="0 0 280 280" version="1.1" xmlns="http://www.w3.org/2000/svg" xmlns:xlink="http://www.w3.org/1999/xlink"
style="display: block;margin-left: auto;margin-right: auto;">
<defs>
<clipPath id="c0_18"><path d="M0,280.3L0,0L280.3,0l0,280.3Z" /></clipPath>

<style type="text/css"><![CDATA[

.account-recovery-success-1{
fill: #050604;
}
.account-recovery-success-2{
fill: #1F1F1E;
}


]]></style>

</defs>
<g clip-path="url(#c0_18)">
<path d="M44.9,59.6c-3.5,3.5,-6.8,7.2,-9.8,11L34.9,3.5C34.9,1.6,33.4,0.1,31.6,0.1c-1.9,0,-3.4,1.5,-3.4,3.4l0.2,77.7c0,1.8,1.5,3.3,3.4,3.3l77.6,0.2c1.9,0,3.4,-1.5,3.4,-3.3c0,-1.9,-1.5,-3.4,-3.4,-3.4L37.6,77.8c0.5,-0.2,1,-0.6,1.4,-1c3.3,-4.4,7,-8.5,10.8,-12.4c47.8,-47.7,125.3,-47.7,173,0.1c47.8,47.9,47.7,125.3,-0.1,173c-47.8,47.8,-125.3,47.7,-173,-0.1C37,224.7,27.3,209.4,21.2,192.5c-0.6,-1.8,-2.5,-2.8,-4.3,-2.2c-1.7,0.6,-2.7,2.5,-2.1,4.3c0,0.1,0,0.1,0,0.2c24.2,67.1,98.2,102,165.4,77.8c67.1,-24.1,102,-98.1,77.8,-165.3C233.9,40.2,159.9,5.3,92.7,29.5C74.8,35.9,58.5,46.2,45.1,59.7Z" class="account-recovery-success-1" />
</g>
<path d="M70.2,162.3l7.7,-10.9L65.8,147.5l2,-6.4L80,145.7l0,-12.9l6.5,0l0,12.9l12.3,-4.6l1.9,6.4l-12,3.9l7.8,10.9l-5.7,3.9L83.4,154.7l-7.7,11.5Z" class="account-recovery-success-2" />
<path d="M127.1,162.3l7.6,-10.9l-12,-3.9l1.9,-6.4l12.3,4.6l0,-12.9l6.5,0l0,12.9l12.3,-4.6l1.9,6.4l-12,3.9l7.8,10.9l-5.7,3.9l-7.5,-11.5l-7.6,11.5Z" class="account-recovery-success-2" />
<path d="M184,162.3l7.6,-10.9l-12,-3.9l1.9,-6.4l12.3,4.6l0,-12.9l6.5,0l0,12.9l12.2,-4.6l2,6.4l-12.1,3.9l7.8,10.9l-5.6,3.9l-7.5,-11.5l-7.6,11.5Z" class="account-recovery-success-2" />

</svg>
