<?xml version="1.0" encoding="utf-8"?>
<!-- Generator: Adobe Illustrator 23.0.2, SVG Export Plug-In . SVG Version: 6.00 Build 0)  -->
<svg version="1.2" baseProfile="tiny" id="Layer_1" xmlns="http://www.w3.org/2000/svg" xmlns:xlink="http://www.w3.org/1999/xlink"
	 x="0px" y="0px" viewBox="0 0 113.5 113.5" xml:space="preserve">
<style type="text/css">
	.warning-icon{fill:#000000;}
</style>
<path class="warning-icon" d="M90.2,91.2c18.5-18.5,18.5-48.5,0-67s-48.5-18.5-67,0s-18.5,48.5,0,67S71.7,109.7,90.2,91.2z M51.5,34.9
	c1.2-2.6,4-4,6.8-3.3c2.7,0.7,4.5,3.3,4.3,6.2c-0.1,1.9-0.2,3.7-0.3,5.6c-0.4,7-0.8,14-1.1,20.9c-0.1,2.3-2,4.1-4.3,4.1
	c-2.4,0-4.2-1.8-4.3-4.3c-0.1-1.4-0.1-2.8-0.2-4.2c-0.3-4.5-0.5-9-0.8-13.6c-0.2-2.9-0.3-5.8-0.5-8.7C51,36.8,51.1,35.8,51.5,34.9z
	 M56.7,72.4c3.2,0,5.8,2.6,5.9,5.8c0,3.2-2.6,5.8-5.8,5.8c-3.1,0-5.8-2.6-5.8-5.7C51,75.1,53.5,72.4,56.7,72.4z"/>
</svg>