<?xml version="1.0" encoding="utf-8"?>
<!-- Generator: Adobe Illustrator 23.0.2, SVG Export Plug-In . SVG Version: 6.00 Build 0)  -->
<svg version="1.2" baseProfile="tiny" id="Layer_1" xmlns="http://www.w3.org/2000/svg" xmlns:xlink="http://www.w3.org/1999/xlink"
	 x="0px" y="0px" viewBox="0 0 85 85" xml:space="preserve">
<style type="text/css">
	.risk-setting{fill:#BBBDBF}
</style>
<path class="risk-setting" d="M69.2,23.2C69.2,23.2,69.2,23.2,69.2,23.2c-0.2-0.4-0.6-0.7-1.1-0.8l-19.2-2.1c-0.4-2.6-2.6-4.6-5.4-4.6
	c-2.3,0-4.3,1.4-5,3.5L19.4,17c-0.6-0.1-1.1,0.2-1.4,0.7c0,0,0,0,0,0c-0.7,1.4-6.8,14.1-6.9,18.1c0,0,0,0.1,0,0.1c0,0,0,0.1,0,0.1
	c0.1,4.4,3.7,8,8.1,8c4.5,0,8.1-3.6,8.1-8.1c0-3.1-3.9-11.8-5.9-16l16.7,1.9c0.3,2.2,1.9,3.9,4,4.5v35.4h-9.5
	c-0.7,0-1.4,0.6-1.4,1.4c0,0.7,0.6,1.4,1.4,1.4h21.7c0.7,0,1.4-0.6,1.4-1.4c0-0.7-0.6-1.4-1.4-1.4h-9.5V26.3
	c1.7-0.4,3.1-1.7,3.7-3.3l17.3,1.9c-1.9,4-6.1,13.2-6.1,16.5c0,4.5,3.6,8.1,8.1,8.1s8.1-3.6,8.1-8.1C76.1,37.5,69.9,24.7,69.2,23.2z
	 M68,26.9c2.1,4.5,4.5,10.1,5.2,13.1H62.8C63.5,37.1,65.9,31.4,68,26.9z M19.2,21.5c2.1,4.5,4.5,10.1,5.2,13.1H14
	C14.7,31.7,17.1,26,19.2,21.5z M19.2,41.4c-2.5,0-4.6-1.7-5.2-4.1h10.5C23.8,39.7,21.7,41.4,19.2,41.4z M43.6,23.8
	c-1.5,0-2.7-1.2-2.7-2.7c0-0.1,0-0.2,0-0.3c0,0,0,0,0,0c0,0,0,0,0,0c0.1-1.4,1.3-2.4,2.7-2.4c1.5,0,2.7,1.2,2.7,2.7
	c0,0.1,0,0.2,0,0.3c0,0,0,0,0,0c0,0,0,0,0,0C46.1,22.8,45,23.8,43.6,23.8z M68,46.8c-2.5,0-4.6-1.7-5.2-4.1h10.5
	C72.6,45.1,70.5,46.8,68,46.8z"/>
</svg>
