<?xml version="1.0" encoding="UTF-8" standalone="no"?>
<!DOCTYPE svg PUBLIC "-//W3C//DTD SVG 1.1//EN"
"http://www.w3.org/Graphics/SVG/1.1/DTD/svg11.dtd">


<!-- Page 19 -->
<svg x="0" y="0" width="280" height="280" viewBox="0 0 280 280" version="1.1" xmlns="http://www.w3.org/2000/svg" xmlns:xlink="http://www.w3.org/1999/xlink"
style="display: block;margin-left: auto;margin-right: auto;">
<defs>

<style type="text/css"><![CDATA[

.password-reset-1{
fill: #050604;
}
.password-reset-2{
fill: #1F1F1E;
}


]]></style>

</defs>
<path d="M218.8,71.1l0,134.7l11.6,0l0,-17.4l49.9,0l0,-11.6l-49.9,0l0,-105.7Z" class="password-reset-1" />
<path d="M0,188.4l196.6,0l0,-11.6L0,176.8l0,11.6Z" class="password-reset-1" />
<path d="M10,140.5L19.4,127L4.6,122.2L7,114.4L22,120l0,-15.9l8.1,0l0,15.9l15,-5.6l2.4,7.8L32.7,127l9.5,13.5l-6.9,4.8L26.1,131.1l-9.3,14.2Z" class="password-reset-2" />
<path d="M82.8,140.5L92.1,127L77.3,122.2l2.4,-7.8l15,5.6l0,-15.9l8.1,0l0,15.9l15,-5.6l2.4,7.8L105.4,127l9.6,13.5l-7,4.8L98.9,131.1l-9.4,14.2Z" class="password-reset-2" />
<path d="M155.5,140.5L164.9,127l-14.8,-4.8l2.4,-7.8l15,5.6l0,-15.9l8,0l0,15.9l15.1,-5.6l2.3,7.8L178.1,127l9.6,13.5l-6.9,4.8l-9.2,-14.2l-9.3,14.2Z" class="password-reset-2" />

</svg>
