<?xml version="1.0" encoding="UTF-8" standalone="no"?>
<!DOCTYPE svg PUBLIC "-//W3C//DTD SVG 1.1//EN"
"http://www.w3.org/Graphics/SVG/1.1/DTD/svg11.dtd">


<!-- Page 30 -->
<svg x="0" y="0" width="280" height="280" viewBox="0 0 280 280" version="1.1" xmlns="http://www.w3.org/2000/svg" xmlns:xlink="http://www.w3.org/1999/xlink"
style="display: block;margin-left: auto;margin-right: auto;">
<defs>

<style type="text/css"><![CDATA[

.g1_30{
fill: #050604;
}
.g2_30{
fill: #F69322;
}


]]></style>

</defs>
<path d="M0,0
L0,280
L280,280
L280,0 Z " 
fill="#FFFFFF" stroke="none" />
<path d="M206.5,254.7l-126.9,0l0,-33c0,-35,28.4,-63.5,63.4,-63.5c35,0,63.5,28.5,63.5,63.5ZM79.6,54.1l0,-27.9l126.9,0l0,27.9c0,35,-28.5,63.5,-63.5,63.5C108,117.6,79.6,89.1,79.6,54.1M219.2,254.7l-2.6,0l0,-33c0,-37.9,-30.4,-69.2,-66,-73.2l0,-21.2c35.6,-4,66,-35.3,66,-73.2l0,-27.9l2.6,0c2.7,0,4.8,-2.3,4.8,-5.1c0,-2.8,-2.1,-5,-4.8,-5L68,16.1c-2.7,0,-4.8,2.2,-4.8,5c0,2.8,2.1,5.1,4.8,5.1l1.4,0l0,27.9c0,37.9,30.5,69.2,66,73.2l0,21.2c-35.5,4,-66,35.3,-66,73.2l0,33l-1.4,0c-2.7,0,-4.8,2.3,-4.8,5.1c0,2.8,2.1,5,4.8,5l151.2,0c2.7,0,4.8,-2.2,4.8,-5c0,-2.8,-2.1,-5.1,-4.8,-5.1Z" class="g1_30" />
<path d="M140.4,202L94,238c-1.8,1.3,-2.4,3.6,-1.7,5.6c0.7,2.1,2.6,3.5,4.8,3.5l92.9,0c0.1,0,0.1,0,0.1,0c2.8,0,5.1,-2.3,5.1,-5.1c0,-1.9,-1.1,-3.6,-2.6,-4.5L146.7,202c-1.9,-1.4,-4.4,-1.4,-6.3,0Z" class="g2_30" />

</svg>
