<svg xmlns="http://www.w3.org/2000/svg" xmlns:xlink="http://www.w3.org/1999/xlink" version="1.1" x="0px" y="0px" viewBox="0 0 100 125" style="enable-background:new 0 0 100 100;" xml:space="preserve"><path d="M31,64.6h-3V42.8h3V64.6z M35.6,42.8v21.7h3V42.8H35.6z M52.3,42.8v21.7h3V42.8H52.3z M47.7,42.8h-3v21.7h3V42.8z M69,42.8  v21.7h3V42.8H69z M64.4,42.8h-3v21.7h3V42.8z M77.9,30v9.3c0,0.8-0.7,1.5-1.5,1.5H69h-4.6H52.3h-4.6H35.6H31h-7.3  c-0.8,0-1.5-0.7-1.5-1.5V30c0-0.7,0.4-1.2,1-1.4l26.4-8.5c0.3-0.1,0.6-0.1,0.9,0l26.4,8.5C77.4,28.8,77.9,29.4,77.9,30z M74.9,31.1  l-24.9-8l-24.9,8v6.7h4.3h7.6h9.2h7.6h9.2h7.6h4.3V31.1z M77.9,68.1v10.4c0,0.8-0.7,1.5-1.5,1.5H23.6c-0.8,0-1.5-0.7-1.5-1.5V68.1  c0-0.8,0.7-1.5,1.5-1.5H31h4.6h12.2h4.6h12.2H69h7.3C77.2,66.6,77.9,67.3,77.9,68.1z M74.9,69.6h-4.3h-7.6h-9.2h-7.6h-9.2h-7.6h-4.3  V77h49.7V69.6z"/><text x="0" y="115" fill="#000000" font-size="5px" font-weight="bold" font-family="'Helvetica Neue', Helvetica, Arial-Unicode, Arial, Sans-serif">Created by Mello</text><text x="0" y="120" fill="#000000" font-size="5px" font-weight="bold" font-family="'Helvetica Neue', Helvetica, Arial-Unicode, Arial, Sans-serif">from the Noun Project</text></svg>