<?xml version="1.0" encoding="UTF-8" standalone="no"?>
<!DOCTYPE svg PUBLIC "-//W3C//DTD SVG 1.1//EN"
"http://www.w3.org/Graphics/SVG/1.1/DTD/svg11.dtd">


<!-- Page 17 -->
<svg x="0" y="0" width="280" height="280" viewBox="0 0 280 280" version="1.1" xmlns="http://www.w3.org/2000/svg" xmlns:xlink="http://www.w3.org/1999/xlink"
style="display: block;margin-left: auto;margin-right: auto;">
<defs>
<clipPath id="c0_17"><path d="M0,280.3L0,0L280.3,0l0,280.3Z" /></clipPath>

<style type="text/css"><![CDATA[

.g1_17{
fill: #1F1F1E;
}
.g2_17{
fill: #050604;
}


]]></style>

</defs>
<path d="M0,0
L0,280
L280,280
L280,0 Z " 
fill="#FFFFFF" stroke="none" />
<path d="M153.2,153.9l-0.3,0.3c-1,1,-2.5,1,-3.5,0L108,118.9l91.5,0c1,0,1.8,0.2,2.6,0.5Zm46.4,-39.8L99,114.1c-0.8,0,-1.5,0.7,-1.5,1.5c0,0.5,0.2,0.8,0.5,1.2l48.1,41.1c2.8,2.6,7.1,2.5,9.9,-0.2l49.8,-35c0.5,1,0.8,2.2,0.8,3.4l-7.1,59.3c0,4,-3.2,7.1,-7.2,7.1l-98.9,0c-0.7,0,-1.2,0.5,-1.3,1l-0.5,2.2c-0.2,0.6,0.3,1.4,1,1.6l0.3,0l99.4,0c6.7,0,12,-5.3,12,-11.9l7.1,-59.3c0.2,-6.7,-5.1,-12,-11.8,-12Z" class="g1_17" />
<path d="M130.7,174.9c0,-1.3,-1,-2.3,-2.3,-2.3l-52.6,0c-1.3,0,-2.3,1,-2.3,2.3c0,1.4,1,2.4,2.3,2.4l52.6,0c1.1,0,2.3,-1,2.3,-2.4Z" class="g1_17" />
<path d="M119.3,158.2c0,-1.3,-1,-2.3,-2.4,-2.5l-63.6,0c-1.3,0,-2.3,1,-2.3,2.3c0,1.4,1,2.4,2.3,2.4l63.6,0c1.4,0.1,2.4,-0.9,2.4,-2.2Z" class="g1_17" />
<path d="M69.2,143.9l30.8,0c1.4,0,2.3,-0.9,2.3,-2.3c0,-1.3,-0.9,-2.3,-2.3,-2.3l-30.8,0c-1.3,0,-2.3,1,-2.3,2.3c0,1.4,1,2.3,2.3,2.3Z" class="g1_17" />
<g clip-path="url(#c0_17)">
<path d="M44.9,59.5C41.4,63,38.1,66.7,35.1,70.6L34.9,3.4C34.9,1.6,33.4,0.1,31.6,0.1c-1.9,0,-3.4,1.5,-3.4,3.3l0.2,77.7c0,1.9,1.5,3.4,3.4,3.4l77.6,0.2c1.9,0,3.4,-1.5,3.4,-3.4c0,-1.9,-1.5,-3.4,-3.4,-3.4L37.6,77.7c0.5,-0.2,1,-0.5,1.4,-1c3.3,-4.3,7,-8.5,10.8,-12.3c47.8,-47.8,125.3,-47.7,173,0.1c47.8,47.8,47.7,125.2,-0.1,173c-47.8,47.7,-125.3,47.7,-173,-0.2C37,224.6,27.3,209.3,21.2,192.4c-0.6,-1.8,-2.5,-2.7,-4.3,-2.1c-1.7,0.6,-2.7,2.5,-2.1,4.2c0,0.1,0,0.2,0,0.2c24.2,67.2,98.2,102,165.4,77.9c67.1,-24.2,102,-98.2,77.8,-165.3C233.9,40.1,159.9,5.3,92.7,29.4C74.8,35.8,58.5,46.2,45.1,59.6Z" class="g2_17" />
</g>

</svg>
