<?xml version="1.0" encoding="utf-8"?>
<!-- Generator: Adobe Illustrator 19.0.0, SVG Export Plug-In . SVG Version: 6.00 Build 0)  -->
<svg version="1.1" id="Layer_1" xmlns="http://www.w3.org/2000/svg" xmlns:xlink="http://www.w3.org/1999/xlink" x="0px" y="0px"
	 viewBox="-479.5 271.8 40 40" style="enable-background:new -479.5 271.8 40 40;" xml:space="preserve">
<g id="XMLID_94_">
	<path id="XMLID_96_" class="wallet-selected-2 sidebar-svg" d="M-451,274.4L-451,274.4L-451,274.4l-0.2-1c0,0,0-0.2-0.2-0.4c-0.2-0.2-0.4-0.2-0.8,0l-22.8,5.7
		L-451,274.4z"/>
	<path id="XMLID_95_" class="wallet-selected-2 sidebar-svg" d="M-472.2,279.3L-472.2,279.3l23-1.6l0,0l0,0l-0.4-1.6c0,0,0-0.2-0.2-0.4
		c-0.2-0.2-0.6-0.2-1.2-0.2L-472.2,279.3L-472.2,279.3z"/>
</g>
<path id="XMLID_90_" class="wallet-selected-2 sidebar-svg" d="M-440,301.1l-5.5-21.2c0,0-0.2-1.4-2.6-1.2l-28.9,2.2c0,0-2.2,0.2-1.8,2.9l3.7,23.6
	c0,0,0.2,2,3.1,2c3.1,0,26.9-2.4,27.7-2.6c0.8,0,2.2-0.8,2-2v-1.8l1.2-0.2C-440.6,302.7-439.8,302.3-440,301.1z M-444.1,304.5
	c-0.6,0.8-1.2,0.8-1.6,0.8l-26.1,2.6c-0.4,0-0.8,0-1.2-0.2c-0.2-0.2-0.2-0.2-0.2-0.4s0-0.4,0.2-0.4c0.4-0.6,1.8-0.6,1.8-0.6
	l27.1-3.1l0,0C-443.7,303.7-443.7,304.1-444.1,304.5z"/>
</svg>
