<?xml version="1.0" encoding="utf-8"?>
<!-- Generator: Adobe Illustrator 23.0.1, SVG Export Plug-In . SVG Version: 6.00 Build 0)  -->
<svg version="1.1" id="Layer_1" xmlns="http://www.w3.org/2000/svg" xmlns:xlink="http://www.w3.org/1999/xlink" x="0px" y="0px"
	 viewBox="0 0 50 50" style="enable-background:new 0 0 50 50;" xml:space="preserve">
<style type="text/css">
	.chat-lvl-4{fill:#404041;}
</style>
<path class="chat-lvl-4" d="M46.3,25.4c0.2-0.1,0.6-0.4,0.9-0.5c1.2-1.3,1.8-1.3,1.8-3.5c0-6-3.1-8.8-9.1-8.8c-3.6,0-5.7,0.2-10.3,1.5
	c-3.5,1.1-6,2.7-10.3,6.9c-0.8,1.1-4.2,3.3-6.5,3.3c-3,0-4.2-2.9-4.2-4.5v-0.9c0,0,0,0,0,0c0-0.4,0.4-0.7,0.9-0.8c0,0,0,0,0,0
	c2.7-0.7,4.6-2.9,4.6-5.4c0,0,0-0.1,0-0.1c-0.8,0.4-1,0.8-2.5,0.9c-1.6,0-2.7,2.9-4.1,2.9s-2.3-2.9-4.1-2.9
	c-1.5-0.2-1.6-0.5-2.5-0.9c0,0,0,0.1,0,0.1c0,2.5,1.9,4.6,4.4,5.4c0.4,0.1,0.7,0.4,0.8,0.7c0,0,0,0.1,0,0.1v0.9c0,0.9-0.1,2-0.3,3.7
	c-0.7,4.4,2.9,9.5,17,9.5c0.6,0,1.4,0,2.2,0c-0.1,0.5-0.3,1-0.5,1c-0.3,0.1-1.5,1.7,0.9,0.9c1.3-0.4,3.4-1.4,5-2.3
	c2.2-0.2,4.4-0.6,6.4-1.1c4.4-1.1,7.9-2.4,10-4.4c-0.5,0.3-1.3,0.7-2.2,1.1c-1.9,0.9-5.2,1.6-5.2,1.6s0-1.7,3.3-2.9
	C45.2,26,45.7,25.7,46.3,25.4z M36.1,21.5c0.9,0.2,2,0.2,3.1,0.1c0,0.1,0,0.3,0,0.4c0.2,0.7,0.8,1.1,1.5,0.9
	c0.7-0.2,1.1-0.8,0.9-1.5c0-0.1,0-0.1-0.1-0.2c0.2,0,0.4-0.1,0.5-0.1c0.5-0.1,1-0.2,1.5-0.4c-0.2,1.5-1.3,2.9-3,3.2
	C38.6,24.5,36.6,23.4,36.1,21.5z"/>
</svg>
