<?xml version="1.0" encoding="UTF-8" standalone="no"?>
<!DOCTYPE svg PUBLIC "-//W3C//DTD SVG 1.1//EN"
"http://www.w3.org/Graphics/SVG/1.1/DTD/svg11.dtd">


<!-- Page 26 -->
<svg x="0" y="0" width="280" height="280" viewBox="0 0 280 280" version="1.1" xmlns="http://www.w3.org/2000/svg" xmlns:xlink="http://www.w3.org/1999/xlink"
style="display: block;margin-left: auto;margin-right: auto;">
<defs>

<style type="text/css"><![CDATA[

.withdrawals-history-1{
fill: #231F20;
}
.withdrawals-history-2{
fill: none;
stroke: #231F20;
stroke-width: 2.125139;
stroke-linecap: butt;
stroke-linejoin: miter;
}
.withdrawals-history-3{
fill: #F7931D;
}
.withdrawals-history-4{
fill: none;
stroke: #F7931D;
stroke-width: 2.1679168;
stroke-linecap: butt;
stroke-linejoin: miter;
}


]]></style>

</defs>
<path d="M252,182.4c-3.4,-0.3,-5.9,-3.4,-5.6,-6.8l0.9,-9c0.2,-1.4,-0.9,-2.7,-2.4,-2.9c-0.7,-0.1,-1.4,0.2,-2,0.7c-32.1,28.1,-80.6,29.5,-112.9,3.2c-2.9,-2.4,-5.7,-5,-8.3,-7.7c-1.2,-1.3,-1.8,-3.1,-1.7,-4.9c0.2,-1.8,1.1,-3.4,2.5,-4.5c2.4,-1.7,5.8,-1.5,8,0.5l0.4,0.3c2.2,2.4,4.5,4.6,7,6.6c28,22.8,69.8,21.4,97.3,-3.3c1.1,-1,1.1,-2.7,0.1,-3.8c-0.4,-0.4,-1,-0.7,-1.6,-0.8l-8.6,-0.8c-3.3,-0.3,-5.9,-3,-6,-6.3c0,-3.4,2.8,-6.2,6.3,-6.2c0.2,0,0.4,0,0.6,0l30.3,3c3.4,0.3,5.9,3.4,5.6,6.8l-3,30.3c-0.3,3.5,-3.4,5.9,-6.9,5.6Z" class="withdrawals-history-1" />
<path d="M252,182.4c-3.4,-0.3,-5.9,-3.4,-5.6,-6.8l0.9,-9c0.2,-1.4,-0.9,-2.7,-2.4,-2.9c-0.7,-0.1,-1.4,0.2,-2,0.7c-32.1,28.1,-80.6,29.5,-112.9,3.2c-2.9,-2.4,-5.7,-5,-8.3,-7.7c-1.2,-1.3,-1.8,-3.1,-1.7,-4.9c0.2,-1.8,1.1,-3.4,2.5,-4.5c2.4,-1.7,5.8,-1.5,8,0.5l0.4,0.3c2.2,2.4,4.5,4.6,7,6.6c28,22.8,69.8,21.4,97.3,-3.3c1.1,-1,1.1,-2.7,0.1,-3.8c-0.4,-0.4,-1,-0.7,-1.6,-0.8l-8.6,-0.8c-3.3,-0.3,-5.9,-3,-6,-6.3c0,-3.4,2.8,-6.2,6.3,-6.2c0.2,0,0.4,0,0.6,0l30.3,3c3.4,0.3,5.9,3.4,5.6,6.8l-3,30.3c-0.3,3.5,-3.4,5.9,-6.9,5.6Z" class="withdrawals-history-2" />
<path d="M109.6,236.5c0,0,-38.2,-37,-38.2,-98.4C71.4,76.8,95.7,39.6,116.6,34.6C92.2,31.2,85.3,29.4,71.6,36.7C58,44.1,29.9,76.1,29.9,138.5c0,62.3,22,93.7,58.3,96.2c36.4,2.4,21.4,1.8,21.4,1.8Z" class="withdrawals-history-3" />
<path d="M109.6,236.5c0,0,-38.2,-37,-38.2,-98.4C71.4,76.8,95.7,39.6,116.6,34.6C92.2,31.2,85.3,29.4,71.6,36.7C58,44.1,29.9,76.1,29.9,138.5c0,62.3,22,93.7,58.3,96.2c36.4,2.4,21.4,1.8,21.4,1.8Z" class="withdrawals-history-4" />
<path d="M90.3,48.8l-22.5,0c6.6,-5.3,13.6,-8.5,21,-8.3l9.8,0c-2.9,2.6,-5.7,5.3,-8.3,8.3m8.3,180.1l-9.8,0c-7.6,0,-14.8,-3,-21.9,-8.7l23,0c1.5,1.9,3.4,3.8,5.1,5.5c1.1,1.1,2.4,2.4,3.6,3.2M49.5,196.4l26.4,0c1.7,4.2,3.8,8.1,5.9,11.9l-25.5,0C55,206.6,54,204.7,52.9,202.8c-1.3,-2.2,-2.3,-4.5,-3.4,-6.4M71.4,184.3l-27.2,0c-1.7,-4.7,-3,-9.4,-4,-14.7l27.2,0c1.5,5.3,2.7,10,4,14.7M65.9,157.5l-27.7,0C37.4,151.9,37,146.4,36.7,140.7l27.7,0c0.4,5.9,0.8,11.5,1.5,16.8m0,-46c-0.9,5.6,-1.1,11.3,-1.5,17.3l-27.7,0C37,123,37.4,117.1,38.2,111.5Zm-9,-50.6l25.1,0c-2.1,3.9,-4.2,7.7,-5.9,11.9l-26.4,0c2.1,-4.2,4.7,-8,7.2,-11.9M44.8,85l26.8,0c-1.5,4.4,-2.7,9.5,-3.8,14.4l-27.2,0C41.9,94.3,43.1,89.6,44.8,85M55,225.7c9.8,9.8,21.3,15.3,33.6,15.3l39.6,0c12.7,0,25.3,-6.1,35.9,-17.6c2.1,-2.6,1.9,-6.2,-0.4,-8.5c-2.6,-2.1,-6.4,-2.1,-8.5,0.4c-8.1,8.9,-17.4,13.6,-27,13.8C99.7,229.1,76.1,186,76.1,134.9c0,-51,24,-94.2,52.1,-94.2c23.8,0,45.3,30.4,50.8,72.5c0.4,3.4,3.4,5.6,6.8,5.1c3.4,-0.4,5.5,-3.4,5.1,-6.8C184.5,62.6,158.6,28.6,128.2,28.4l-39.6,0C52.5,28.4,24.4,75.2,24.4,134.7c0.2,38.9,12.3,72.7,30.6,91Z" class="withdrawals-history-1" />

</svg>
