<?xml version="1.0" encoding="utf-8"?>
<!-- Generator: Adobe Illustrator 24.3.0, SVG Export Plug-In . SVG Version: 6.00 Build 0)  -->
<svg version="1.2" baseProfile="tiny" id="Layer_1" xmlns="http://www.w3.org/2000/svg" xmlns:xlink="http://www.w3.org/1999/xlink"
	 x="0px" y="0px" viewBox="0 0 45 45" overflow="visible" xml:space="preserve">
<style type="text/css">
	.otp-key{fill:#FFFFFF;}
</style>
<g id="Group_2682" transform="translate(-7689.449 -1434.226)">
	<path id="Path_2311" class="otp-key" d="M7707.2,1463.9c2,3.7,0.9,8.2-2.5,10.7c-3.7,2.6-8.8,1.7-11.3-2c-1.9-2.6-2-6.1-0.3-8.9
		c1.1-1.8,2.8-3.2,4.9-3.7c2-0.5,4.1-0.3,6,0.7l23.5-23.4l3.2,3l-2.4,2.5c1.6,1.6,3.2,3.2,5,5l-2.9,2.9l-3.1-3.1
		c-1,0.9-1.9,1.8-2.8,2.8l3,2.9l-3,3l-4.5-4.8L7707.2,1463.9 M7703.7,1467.9c0-2-1.7-3.5-3.7-3.5c-1.9,0-3.5,1.6-3.5,3.5
		c0,2,1.6,3.5,3.6,3.6C7702.1,1471.5,7703.7,1469.9,7703.7,1467.9"/>
	<path id="Path_2312" class="otp-key" d="M7712.2,1460.1l3.5-3.5l3,2.9c1.4-0.7,2.9-1,4.5-1c4.9,0.2,8.7,4.2,8.5,9.1
		c-0.1,3.7-2.6,7-6.2,8.1c-4.7,1.4-9.6-1.2-11-5.9c-0.5-1.7-0.5-3.6,0-5.3c0-0.2,0.1-0.4,0.2-0.6c0.4-0.5,0.3-1.2-0.3-1.6
		c0,0-0.1-0.1-0.1-0.1C7713.6,1461.5,7712.9,1460.7,7712.2,1460.1 M7726.8,1467.4c0.1-2.1-1.6-3.9-3.7-4h-0.1c-2.1,0-3.9,1.8-3.8,4
		c0,2.1,1.7,3.8,3.8,3.8C7725,1471.1,7726.7,1469.5,7726.8,1467.4"/>
	<path id="Path_2313" class="otp-key" d="M7696.7,1437.4l14.8,14.6l-3.5,3.5l-2.8-2.8l-5.3,5.3c-1-1.1-1.9-2.1-3-3.3l3.1-3.2l-3.2-3
		l-3,3.1l-3.2-3.2l5.2-5.2l-2.4-2.5L7696.7,1437.4"/>
</g>
</svg>
