<svg xmlns="http://www.w3.org/2000/svg" width="20" height="20" viewBox="0 0 18.197 18.197">
  <g id="Group_1085" data-name="Group 1085" transform="translate(-3114.901 -8236)">
    <path class="fill_main-color" id="Path_561" data-name="Path 561" d="M41.612,36.6a2.055,2.055,0,0,0-2.906,0l-2.055,2.055a2.055,2.055,0,0,0,0,2.906l2.055,2.055a2.055,2.055,0,0,0,2.906,0l2.055-2.055a2.055,2.055,0,0,0,0-2.906Zm.763,3.76-1.964,1.964a.358.358,0,0,1-.508,0L37.94,40.361a.358.358,0,0,1,0-.508L39.9,37.89a.358.358,0,0,1,.508,0l1.964,1.964a.358.358,0,0,1-.015.508Z" transform="translate(3083.856 8204.989)" fill="#fff"/>
    <path class="fill_main-color" id="Path_562" data-name="Path 562" d="M32.795,19H23.4A4.4,4.4,0,0,0,19,23.4v9.392a4.4,4.4,0,0,0,4.4,4.4h9.392a4.4,4.4,0,0,0,4.4-4.4V23.4a4.4,4.4,0,0,0-4.4-4.4Zm2.642,13.795a2.642,2.642,0,0,1-2.642,2.642H23.4a2.642,2.642,0,0,1-2.642-2.642V23.4A2.642,2.642,0,0,1,23.4,20.761h9.392A2.642,2.642,0,0,1,35.436,23.4Z" transform="translate(3095.901 8217)" fill="#fff"/>
  </g>
</svg>
