<?xml version="1.0" encoding="utf-8"?>
<!-- Generator: Adobe Illustrator 25.0.1, SVG Export Plug-In . SVG Version: 6.00 Build 0)  -->
<svg version="1.1" id="Layer_1" xmlns="http://www.w3.org/2000/svg" xmlns:xlink="http://www.w3.org/1999/xlink" x="0px" y="0px"
	 viewBox="0 0 85 85" style="enable-background:new 0 0 85 85;" xml:space="preserve">
<style type="text/css">
	.st0{fill:#FFFFFF;}
</style>
<g>
	<path id="XMLID_190_" class="st0" d="M44,47.6c0-0.8-0.7-1.5-1.5-1.5S41,46.8,41,47.6v4.2c0,0.8,0.7,1.5,1.5,1.5s1.5-0.7,1.5-1.5
		V47.6z"/>
	<path id="XMLID_73_" class="st0" d="M42.5,11.2c-7.2,0-13,5.9-13,13v8.6l-0.2,0.1c-8,7.3-8.6,19.7-1.3,27.7s19.7,8.6,27.7,1.3
		s8.6-19.7,1.3-27.7c-0.4-0.5-0.8-0.9-1.3-1.3l-0.2-0.1v-8.6C55.5,17,49.7,11.2,42.5,11.2z M32.6,24.2c0-5.4,4.5-9.9,9.9-9.9
		s9.9,4.5,9.9,9.9v6.3l-0.8-0.4c-5.7-3-12.6-3-18.3,0l-0.8,0.4L32.6,24.2L32.6,24.2z M59,47.4C59,56.6,51.7,64,42.5,64
		S26,56.6,26,47.4s7.4-16.5,16.5-16.5S59,38.4,59,47.4z"/>
</g>
</svg>
