<svg xmlns="http://www.w3.org/2000/svg" width="66" height="66" viewBox="0 0 66 66"><g transform="translate(783 -7795)"><path d="M47.2,27.889a18.5,18.5,0,0,1,4.7.6,16.541,16.541,0,1,0-32.75,0,18.482,18.482,0,0,1,16.375,3.55A18.416,18.416,0,0,1,47.2,27.889ZM53.777,29.1A18.487,18.487,0,1,1,35.525,60.708c-12.015,9.8-30.158,1.23-30.158-14.335a18.493,18.493,0,0,1,11.906-17.28,18.487,18.487,0,1,1,36.5,0Zm-.414,1.927A16.54,16.54,0,1,1,36.984,59.38,18.465,18.465,0,0,0,42.1,43.433a18.527,18.527,0,0,0,11.26-12.411ZM40.226,44.035a18.591,18.591,0,0,1-9.4,0,16.539,16.539,0,0,0,4.7,14.055,16.569,16.569,0,0,0,4.7-14.055Zm-11.278-.6a18.465,18.465,0,0,0,5.118,15.948A16.54,16.54,0,1,1,17.691,31.023,18.524,18.524,0,0,0,28.948,43.433ZM19.538,30.4a16.545,16.545,0,0,1,14.53,2.964,18.467,18.467,0,0,0-4.7,8.14,16.59,16.59,0,0,1-9.827-11.1ZM31.212,42.124a16.655,16.655,0,0,0,8.626,0,16.557,16.557,0,0,0-4.313-7.464,16.508,16.508,0,0,0-4.313,7.464Zm10.476-.618a18.5,18.5,0,0,0-4.7-8.14A16.55,16.55,0,0,1,51.515,30.4a16.586,16.586,0,0,1-9.827,11.1Z" transform="translate(-784.867 7791.832)" fill-rule="evenodd"/><path d="M0,0H66V66H0Z" transform="translate(-783 7795)" fill="none"/></g></svg>