<svg xmlns="http://www.w3.org/2000/svg" width="66" height="66" viewBox="0 0 66 66"><g transform="translate(543 -7795)"><path d="M36.181,7.695,65.489,29.019l.179.966c-1.2,3.505-10.914,34.146-11.331,34.621l-.734.333v0H17.525a.972.972,0,0,1-.942-.731L5.455,29.966a.967.967,0,0,1,.351-1.1L34.95,7.695a.967.967,0,0,1,1.23,0ZM8.488,29.32l11.442,3.719L34.593,22.386V10.355Zm10.843,5.567L7.889,31.167l9.972,30.689,7.071-9.734ZM26.5,53.267,19.434,63H51.7l-7.071-9.729Zm19.7-1.143,7.071,9.734,9.975-30.692L51.8,34.886Zm5-19.086L62.642,29.32l-26.1-18.964V22.386ZM35.566,24.08l-14.321,10.4,5.469,16.834h17.7l5.472-16.834Z" transform="translate(-545.903 7792.026)" fill-rule="evenodd"/><path d="M0,0H66V66H0Z" transform="translate(-543 7795)" fill="none"/></g></svg>