<svg xmlns="http://www.w3.org/2000/svg" width="66" height="66" viewBox="0 0 66 66"><g transform="translate(1585 -7795)"><path d="M36.421,8.083l7.8,19.083,20.564,1.52a.972.972,0,0,1,.531,1.734L49.6,43.712l4.909,20.028a.97.97,0,0,1-1.473,1.04L35.524,53.935,17.993,64.794a.971.971,0,0,1-1.452-1.053l4.909-20.028L5.706,30.4a.973.973,0,0,1,.56-1.71l20.564-1.52,7.8-19.083a.971.971,0,0,1,1.795,0Zm7.6,21.018-5.952,8.19,21.643-7.031ZM34.55,42.131,21.17,60.544,34.55,52.256ZM19.6,59.4,32.982,40.986l-9.634,3.13ZM36.5,36.148l5.952-8.193L36.5,13.388Zm-7.9-8.193,5.952,8.193V13.388Zm9.468,13.031L51.445,59.4,47.7,44.116ZM49.875,60.544,36.5,42.131V52.258ZM32.98,37.29,27.028,29.1,11.336,30.259Zm5.688,1.848,9.631,3.13L60.314,32.106Zm-6.287,0L10.735,32.107,22.749,42.268Z" transform="translate(-1587.863 7792.019)" fill-rule="evenodd"/><path d="M0,0H66V66H0Z" transform="translate(-1585 7795)" fill="none"/></g></svg>