<svg xmlns="http://www.w3.org/2000/svg" width="66" height="66" viewBox="0 0 66 66"><g transform="translate(2065 -7795)"><path d="M36.439,6l5.313,14.5L55.759,14a.972.972,0,0,1,1.288,1.288L50.554,29.3l14.5,5.313a.973.973,0,0,1,0,1.824l-14.5,5.313,6.493,14.007a.972.972,0,0,1-1.288,1.288L41.752,50.551l-5.313,14.5a.973.973,0,0,1-1.824,0L29.3,50.554,15.295,57.047a.972.972,0,0,1-1.288-1.288L20.5,41.752,6,36.438a.973.973,0,0,1,0-1.824L20.5,29.3,14,15.294a.972.972,0,0,1,1.288-1.288L29.3,20.5,34.612,6a.975.975,0,0,1,1.826,0ZM40.29,22.157l-4.764-13-4.764,13a.971.971,0,0,1-1.317.546L16.88,16.88l5.854,12.635a.97.97,0,0,1-.578,1.246l-13,4.764,13,4.764a.971.971,0,0,1,.546,1.317L16.88,54.17l12.635-5.854a.97.97,0,0,1,1.246.578l4.764,13,4.764-13a.971.971,0,0,1,1.317-.546L54.171,54.17,48.316,41.536a.97.97,0,0,1,.578-1.246l13-4.764-13-4.764a.972.972,0,0,1-.546-1.317L54.17,16.88,41.536,22.735a.97.97,0,0,1-1.246-.578Z" transform="translate(-2067.867 7792.133)" fill-rule="evenodd"/><path d="M0,0H66V66H0Z" transform="translate(-2065 7795)" fill="none"/></g></svg>