<svg xmlns="http://www.w3.org/2000/svg" width="66" height="66" viewBox="0 0 66 66"><g transform="translate(1665 -7795)"><path d="M47.393,40.177,38.374,24.554V34.969ZM12.122,19.959h16.3l8.1-14.026a.971.971,0,0,1,1.771,0l8.1,14.026h16.3a.973.973,0,0,1,.808,1.518l-8.114,14.05L63.52,49.634a.972.972,0,0,1-.839,1.457v0h-16.3L38.239,65.2a.969.969,0,0,1-1.708-.053L28.417,51.093h-16.3a.973.973,0,0,1-.808-1.518l8.114-14.052L11.279,21.413a.97.97,0,0,1,.839-1.452Zm18.532,0h5.772v-10Zm7.721,0h5.772l-5.772-10Zm15.879,17.51-2.888,5,8.665,5ZM50.4,44.146l-2.888,5H59.057Zm-23.1,5-2.888-5-8.662,5Zm-3.856-6.68-2.888-5L14.773,47.47ZM61,21.9,50.038,40.884,39.079,21.9Zm-25.278,0H13.8l10.959,18.98ZM26.442,43.795,37.4,62.775l10.959-18.98Zm.969-3.621,9.017-5.2V24.556Zm9.99-3.529,9.017,5.2H28.385Z" transform="translate(-1669.648 7792.14)" fill-rule="evenodd"/><path d="M0,0H66V66H0Z" transform="translate(-1665 7795)" fill="none"/></g></svg>