<svg xmlns="http://www.w3.org/2000/svg" width="66" height="66" viewBox="0 0 66 66"><g transform="translate(2781 -7795)"><path d="M37.784,5.5,62.952,20.032a.968.968,0,0,1,.484.836h0V49.94a.971.971,0,0,1-.547.873L37.776,65.31A.97.97,0,0,1,36.8,65.3L11.631,50.776a.968.968,0,0,1-.484-.836h0l0-29.071A.971.971,0,0,1,11.694,20L36.809,5.5a.959.959,0,0,1,.975.005Zm.478,2.505V33.728l22.276-12.86Zm0,29.071V62.8L60.539,49.937ZM36.323,62.8V37.077L14.049,49.937Zm0-29.071V8.006L14.049,20.868ZM61.5,22.54,39.222,35.4,61.5,48.265ZM13.084,48.266,35.363,35.4,13.084,22.541Z" transform="translate(-2785.644 7793.135)" fill-rule="evenodd"/><path d="M0,0H66V66H0Z" transform="translate(-2781 7795)" fill="none"/></g></svg>