<svg xmlns="http://www.w3.org/2000/svg" width="66" height="66" viewBox="0 0 66 66"><g transform="translate(2861 -7795)"><path d="M37.857,5.538,62.875,19.983a.967.967,0,0,1,.568.891V49.938a.963.963,0,0,1-.568.881L37.857,65.261a.967.967,0,0,1-1.125,0L11.5,50.68l-.347-.741h0V20.867a.965.965,0,0,1,.568-.881L36.732,5.538a.972.972,0,0,1,1.125,0ZM59.833,23.5,51.2,28.487l2.878,4.984Zm-10.3,5.949L39.228,35.4l10.3,5.949L52.964,35.4ZM36.324,37.075l-10.3,5.946,3.433,5.946h6.866ZM24.352,43.988,15.73,48.967h11.5Zm-9.6,3.307,8.627-4.981-2.876-4.981Zm10.3-5.949,10.3-5.949-10.3-5.946L21.627,35.4Zm13.2-7.623,10.3-5.946L45.13,21.833H38.264Zm11.971-6.911,8.625-4.979h-11.5ZM15.728,21.833l8.622,4.979,2.873-4.979Zm10.3,5.944,10.3,5.946V21.83l-6.869,0ZM51.2,42.314,59.83,47.3,54.076,37.33Zm7.66,6.653-8.625-4.979L47.36,48.967Zm-10.3-5.946-10.3-5.946V48.967h6.869ZM23.385,28.486,14.758,23.5l5.752,9.963ZM38.264,9.935V19.9h5.749Zm0,40.969v9.961L44.013,50.9Zm-1.94,9.955V50.9H30.577Zm0-40.964V9.941L30.577,19.9ZM39.931,8.963l6.312,10.93H58.866ZM55.193,35.4,61.5,46.328V24.472Zm3.67,15.5H46.242l-6.312,10.93Zm-30.518,0H15.725l18.93,10.928Zm-15.26-4.582L19.392,35.4,13.085,24.476ZM28.346,19.9,34.655,8.968,15.725,19.9Z" transform="translate(-2864.649 7793.141)" fill-rule="evenodd"/><path d="M0,0H66V66H0Z" transform="translate(-2861 7795)" fill="none"/></g></svg>