<svg xmlns="http://www.w3.org/2000/svg" width="36.153" height="49.51" viewBox="0 0 36.153 49.51"><g transform="translate(-1343 -1105.99)"><g transform="translate(1314.994 1084)"><g transform="translate(28.006 21.99)"><path class="fill_main-color" d="M20.956,23.043a1.13,1.13,0,0,1-1.13-1.13V19.652a3.391,3.391,0,0,0-3.391-3.391H9.652a3.391,3.391,0,0,0-3.391,3.391v2.261a1.13,1.13,0,0,1-2.261,0V19.652A5.652,5.652,0,0,1,9.652,14h6.783a5.652,5.652,0,0,1,5.652,5.652v2.261A1.13,1.13,0,0,1,20.956,23.043Z" transform="translate(-4 -0.435)" /><path class="fill_main-color" d="M12.652,13.3A5.652,5.652,0,1,1,18.3,7.652,5.652,5.652,0,0,1,12.652,13.3Zm0-9.043a3.391,3.391,0,1,0,3.391,3.391,3.391,3.391,0,0,0-3.391-3.391Z" transform="translate(-3.609 -2)" /></g></g><g transform="translate(-5.692 44.893)"><path class="fill_main-color" d="M12.652,13.3A5.652,5.652,0,1,1,18.3,7.652,5.652,5.652,0,0,1,12.652,13.3Zm0-9.043a3.391,3.391,0,1,0,3.391,3.391,3.391,3.391,0,0,0-3.391-3.391Z" transform="translate(1365.541 1077)" /><path class="fill_main-color" d="M12.652,13.3A5.652,5.652,0,1,1,18.3,7.652,5.652,5.652,0,0,1,12.652,13.3Zm0-9.043a3.391,3.391,0,1,0,3.391,3.391,3.391,3.391,0,0,0-3.391-3.391Z" transform="translate(1366.541 1097.304)" /><path class="fill_main-color" d="M.671,6.342-.671,3.658l10-5,1.342,2.683Z" transform="translate(1364.5 1086.5)" /><path class="fill_main-color" d="M12.652,13.3A5.652,5.652,0,1,1,18.3,7.652,5.652,5.652,0,0,1,12.652,13.3Zm0-9.043a3.391,3.391,0,1,0,3.391,3.391,3.391,3.391,0,0,0-3.391-3.391Z" transform="translate(1348.541 1087)" /><path class="fill_main-color" d="M9.329,6.342l-10-5L.671-1.342l10,5Z" transform="translate(1364.5 1097.804)"/></g></g></svg>