<svg xmlns="http://www.w3.org/2000/svg" width="46.638" height="50.304" viewBox="0 0 46.638 50.304"><g transform="translate(0 0)"><path class="fill_main-color" d="M16,19.99a9,9,0,1,1,9-9,9,9,0,0,1-9,9ZM16,5.6a5.4,5.4,0,1,0,5.4,5.4A5.4,5.4,0,0,0,16,5.6Z" transform="translate(20.055 -2)"/><path class="fill_main-color" d="M16,19.99a9,9,0,1,1,9-9,9,9,0,0,1-9,9ZM16,5.6a5.4,5.4,0,1,0,5.4,5.4A5.4,5.4,0,0,0,16,5.6Z" transform="translate(21.647 30.313)"/><path class="fill_main-color" d="M.671,9.3-.671,6.616,15.244-1.342l1.342,2.683Z" transform="translate(14.259 11.937)" /><path class="fill_main-color" d="M16,19.99a9,9,0,1,1,9-9,9,9,0,0,1-9,9ZM16,5.6a5.4,5.4,0,1,0,5.4,5.4A5.4,5.4,0,0,0,16,5.6Z" transform="translate(-7 13.915)" /><path class="fill_main-color" d="M15.244,9.3-.671,1.342.671-1.342,16.586,6.616Z" transform="translate(14.259 29.926)" /></g></svg>