<?xml version="1.0" encoding="utf-8"?>
<!-- Generator: Adobe Illustrator 27.9.3, SVG Export Plug-In . SVG Version: 9.03 Build 53313) -->
<svg class="assets-icon-tab fill_secondary-color" version="1.2" baseProfile="tiny" id="Layer_1" xmlns="http://www.w3.org/2000/svg" xmlns:xlink="http://www.w3.org/1999/xlink"
     x="0px" y="0px" viewBox="0 0 24 24" overflow="visible" xml:space="preserve">
    <g>
        <polyline class="assets-icon-tab fill_secondary-color" points="12,21 19.4,21 19.9,20.7 20.4,20 20.4,18.3 20.2,17.8 20.1,17.7 20,17.7 16,14.6 15.1,14.5
        14.2,14.5 12,17 9.8,14.5 8.9,14.5 8,14.6 4,17.7 3.9,17.7 3.8,17.8 3.6,18.3 3.6,20 4.1,20.7 4.6,21 12,21"/>
        <circle class="assets-icon-tab fill_secondary-color" cx="12" cy="7" r="4"/>
    </g>
    <g>
        <polygon class="assets-icon-tab fill_secondary-color" points="12,17.2 14.2,14.4 15.1,14.4 16,14.6 19.8,17.5 20.2,17.8 20.3,18 20.4,18.4 20.4,19.9 19.9,20.6
        19.4,20.9 4.6,20.9 4.1,20.6 3.6,19.9 3.6,18.4 3.7,18 3.8,17.8 4.2,17.5 8,14.6 8.9,14.4 9.8,14.4"/>
        <circle class="assets-icon-tab fill_secondary-color" cx="12" cy="7.1" r="4"/>
    </g>
    <g>
        <polygon class="assets-icon-tab fill_secondary-color" points="12,17.2 14.2,14.4 15.1,14.4 16,14.6 19.8,17.5 20.2,17.8 20.3,18 20.4,18.4 20.4,19.9 19.9,20.6
        19.4,20.9 4.6,20.9 4.1,20.6 3.6,19.9 3.6,18.4 3.7,18 3.8,17.8 4.2,17.5 8,14.6 8.9,14.4 9.8,14.4"/>
        <circle class="assets-icon-tab fill_secondary-color" cx="12" cy="7.1" r="4"/>
    </g>
</svg>
