<svg xmlns="http://www.w3.org/2000/svg" width="75" height="64.647" viewBox="0 0 75 64.647">
  <g id="Group_266" data-name="Group 266" transform="translate(-9881.979 13863.893)">
    <path id="Path_86" data-name="Path 86" d="M52.6,36.244a3.719,3.719,0,0,1,2.652-1.117h52.5a3.719,3.719,0,0,1,2.652,1.117,3.847,3.847,0,0,1,1.1,2.7V61.822a3.751,3.751,0,1,0,7.5,0V38.941a11.54,11.54,0,0,0-3.3-8.09A11.155,11.155,0,0,0,107.75,27.5H55.25A11.156,11.156,0,0,0,47.3,30.851a11.54,11.54,0,0,0-3.3,8.09V69.45a11.54,11.54,0,0,0,3.3,8.09A11.155,11.155,0,0,0,55.25,80.89H81.5a3.814,3.814,0,0,0,0-7.627H55.25A3.719,3.719,0,0,1,52.6,72.146a3.847,3.847,0,0,1-1.1-2.7V38.941A3.847,3.847,0,0,1,52.6,36.244Z" transform="translate(9837.979 -13891.393)" fill="#fff"/>
    <path id="Path_87" data-name="Path 87" d="M65.008,30.5A15.008,15.008,0,1,0,75.62,34.9,15.007,15.007,0,0,0,65.008,30.5ZM59.7,40.2a7.5,7.5,0,1,1-2.2,5.306A7.5,7.5,0,0,1,59.7,40.2Z" transform="translate(9854.471 -13882.849)" fill="#fff" fill-rule="evenodd"/>
    <path id="Path_88" data-name="Path 88" d="M47,37.252A3.752,3.752,0,0,1,50.752,33.5h.038a3.752,3.752,0,1,1,0,7.5h-.038A3.752,3.752,0,0,1,47,37.252Z" transform="translate(9846.404 -13874.536)" fill="#fff"/>
    <path id="Path_89" data-name="Path 89" d="M62.752,33.5a3.752,3.752,0,0,0,0,7.5h.038a3.752,3.752,0,0,0,0-7.5Z" transform="translate(9879.05 -13874.536)" fill="#fff"/>
    <path id="Path_90" data-name="Path 90" d="M67.256,49.31V62.764a3.752,3.752,0,1,0,7.5,0V49.31l4.851,4.851a3.752,3.752,0,0,0,5.306-5.306L73.661,37.6a3.741,3.741,0,0,0-2.642-1.1H71a3.74,3.74,0,0,0-2.617,1.075l-.027.027L57.1,48.855a3.752,3.752,0,0,0,5.306,5.306Z" transform="translate(9870.963 -13865.762)" fill="#fff"/>
  </g>
</svg>
