<?xml version="1.0" encoding="UTF-8" standalone="no"?>
<!DOCTYPE svg PUBLIC "-//W3C//DTD SVG 1.1//EN"
"http://www.w3.org/Graphics/SVG/1.1/DTD/svg11.dtd">

<!-- Page 1 -->
<svg x="0" y="0" width="152" height="152" viewBox="0 0 152 152" version="1.1" xmlns="http://www.w3.org/2000/svg" xmlns:xlink="http://www.w3.org/1999/xlink"
style="display: block;margin-left: auto;margin-right: auto;">
<path d="M73.2,80.1C54.6,80.1,39.5,65,39.5,46.4C39.5,27.8,54.6,12.7,73.2,12.7c18.6,0,33.8,15.1,33.8,33.7C107,65,91.8,80.1,73.2,80.1M4.8,139.8L5,143.2l142.1,0l-0.3,-3.8c-0.1,-0.6,-1.4,-15.1,-11.1,-29.6c-6,-9.1,-17.4,-21,-37.3,-26.5L93.7,82l3.9,-2.8c10.3,-7.7,16.5,-20,16.5,-32.8C114.1,23.9,95.8,5.6,73.2,5.6C50.7,5.6,32.4,23.9,32.4,46.4c0,22.3,18.1,40.6,40.4,40.8l0.3,0l0.2,0.1c0.3,0,0.5,0.1,0.8,0.1c25.1,0,43.8,8.7,55.4,25.9c5,7.4,7.6,14.9,8.9,19.9l0.8,2.9L12,136.1l0.4,-2.7C13.9,123,20,104,43.7,93.9c1.8,-0.8,2.6,-2.9,1.8,-4.7C44.7,87.4,42.7,86.6,40.9,87.3C21.5,95.7,12.7,109.4,8.8,119.5c-4.3,11,-4,20,-4,20.3Z" class="account-svg-1" />
</svg>
