<svg xmlns="http://www.w3.org/2000/svg" width="45.052" height="45.979" viewBox="0 0 45.052 45.979"><g transform="translate(-2130 -870.026)"><g transform="translate(23.02)"><g transform="translate(2127.087 884.825)"><g transform="translate(0)"><path class="fill_main-color" d="M27.386,26.472a1.559,1.559,0,0,1-1.559-1.559V21.8a4.677,4.677,0,0,0-4.677-4.677H11.8A4.677,4.677,0,0,0,7.118,21.8v3.118a1.559,1.559,0,0,1-3.118,0V21.8A7.8,7.8,0,0,1,11.8,14H21.15a7.8,7.8,0,0,1,7.8,7.8v3.118A1.559,1.559,0,0,1,27.386,26.472Z" transform="translate(-4 4.708)" /><path class="fill_main-color" d="M14.8,17.59a7.8,7.8,0,1,1,7.8-7.8,7.8,7.8,0,0,1-7.8,7.8Zm0-12.472A4.677,4.677,0,1,0,19.472,9.8,4.677,4.677,0,0,0,14.8,5.118Z" transform="translate(-2.323 -2)" /></g></g><g transform="translate(2106.98 870.026)"><path class="fill_main-color" d="M10.878,9.756a3.878,3.878,0,1,1,3.878-3.878,3.878,3.878,0,0,1-3.878,3.878Zm0-6.205a2.327,2.327,0,1,0,2.327,2.327,2.327,2.327,0,0,0-2.327-2.327Z" transform="translate(4.665 -2)" /><path class="fill_main-color" d="M10.878,9.756a3.878,3.878,0,1,1,3.878-3.878,3.878,3.878,0,0,1-3.878,3.878Zm0-6.205a2.327,2.327,0,1,0,2.327,2.327,2.327,2.327,0,0,0-2.327-2.327Z" transform="translate(5.351 11.931)"/><path class="fill_main-color" d="M.671,4.772-.671,2.089,6.191-1.342,7.532,1.342Z" transform="translate(6.148 5.146)" /><path class="fill_main-color" d="M10.878,9.756a3.878,3.878,0,1,1,3.878-3.878,3.878,3.878,0,0,1-3.878,3.878Zm0-6.205a2.327,2.327,0,1,0,2.327,2.327,2.327,2.327,0,0,0-2.327-2.327Z" transform="translate(-7 4.861)" /><path class="fill_main-color" d="M6.191,4.772-.671,1.342.671-1.342,7.532,2.089Z" transform="translate(6.148 12.902)" /></g></g></g></svg>