<?xml version="1.0" encoding="UTF-8" standalone="no"?>
<!DOCTYPE svg PUBLIC "-//W3C//DTD SVG 1.1//EN"
"http://www.w3.org/Graphics/SVG/1.1/DTD/svg11.dtd">


<!-- Page 20 -->
<svg x="0" y="0" width="280" height="280" viewBox="0 0 280 280" version="1.1" xmlns="http://www.w3.org/2000/svg" xmlns:xlink="http://www.w3.org/1999/xlink"
style="display: block;margin-left: auto;margin-right: auto;">
<defs>

<style type="text/css"><![CDATA[

.account-recovery-1{
fill: #050604;
}


]]></style>

</defs>
<path d="M36.6,250c-0.3,-2,0.6,-3.7,1.7,-5.2c1.5,-1.4,3.5,-2.3,5.5,-2.3c1.7,0,3.4,0.6,4.9,1.8c2.9,2.8,3.1,7.4,0.6,10.3c-1.2,1.5,-2.9,2.3,-4.9,2.3c-1.8,0.3,-3.8,-0.6,-5.2,-1.7C37.8,253.8,36.9,252,36.6,250M230.8,184.7c-2.3,-5.5,-5.7,-10.4,-10.3,-14.4c-10.4,-9.2,-23.1,-12.9,-34.9,-11.2c11.5,-13.8,30.5,-43.4,29.1,-91.5c31.1,30.8,37.7,79.1,16.1,117.1M206.9,60.7c-47.4,4,-74.8,25.9,-87.4,38.8C120,87.7,114.9,75.7,104.5,66.4C99.9,62.4,94.7,59.5,89,57.8c35.4,-25.6,84,-24.1,117.9,2.9m9.8,113.6c4.6,4.1,8.1,9.3,10.1,15L70,233.6L172.4,170.9c-0.3,0,-0.3,0,0,0c-0.3,0,-0.3,0,0,0c13,-10.1,30.8,-8.6,44.3,3.4M56.5,235.1l57.8,-118c12.4,-8.6,31.1,-6.3,44.3,5.5c13.5,12,17.5,30.5,9.8,44ZM111.4,110.8c-0.6,1.1,-1.1,2,-1.7,3.1L57.3,220.7L84.9,62.4c5.8,1.5,11.3,4.3,15.9,8.4c11.8,10.6,15.8,25.6,10.9,38.5c0.3,-0.3,0.3,0,0,0c0,0.3,-0.3,0.6,-0.3,1.5M177,159.7c3.5,-14.1,-2,-30.2,-14.4,-41.5C150,107,133.6,103.6,120,107.9c9.2,-10.7,36.9,-37.7,88.9,-41.7c2.1,53.5,-22.4,84,-31.9,93.5M34.3,241.1c-2.3,2.6,-3.5,6,-3.2,9.5c0.3,3.4,1.8,6.6,4.3,8.9c2.4,2,5.5,3.2,8.7,3.2l0.8,0c3.5,-0.3,6.7,-1.8,9,-4.3c3.4,-4.4,4,-10.1,1.7,-14.7L231.1,193.9c0.3,-0.3,0.6,-0.3,0.9,-0.6l0.3,0c0.2,0,0.2,-0.3,0.5,-0.5C260.2,150.5,252.7,93.5,215,60.1C177.3,26.5,119.5,25.3,80.6,57.2c-0.3,0,-0.3,0.3,-0.6,0.6c0,0.3,-0.2,0.6,-0.2,0.9L48.7,237.6c-4.9,-2,-10.7,-0.8,-14.4,3.5Z" class="account-recovery-1" />

</svg>
