<?xml version="1.0" encoding="utf-8"?>
<!-- Generator: Adobe Illustrator 24.1.3, SVG Export Plug-In . SVG Version: 6.00 Build 0)  -->
<svg version="1.2" baseProfile="tiny" id="Layer_1" xmlns="http://www.w3.org/2000/svg" xmlns:xlink="http://www.w3.org/1999/xlink"
	 x="0px" y="0px" viewBox="0 0 77.5 71.5" overflow="visible" xml:space="preserve">
	<style type="text/css">
		.ada-icon { fill: #3667b2 }
	</style>
<g>
	<g>
		<g transform="matrix(0.26458333,0,0,0.26458333,-33.403463,56.772625)">
			<path d="M271.9-199.5c-66.2,0-120,53.8-120,120s53.8,120,120,120s120-53.8,120-120S338.1-199.5,271.9-199.5z
				 M271.9-187.5c59.7,0,108,48.3,108,108s-48.3,108-108,108s-108-48.3-108-108S212.2-187.5,271.9-187.5z" class="ada-icon"/>
		</g>
	</g>
</g>
<g>
	<path d="M38.2,15.7c0.9-0.5,2.1,0.7,1.6,1.6c-0.3,0.8-1.4,1-2,0.4C37.2,17.2,37.4,16,38.2,15.7 M28,16.8
		c0.6-0.2,1.3,0.3,1.2,0.9c0.1,0.7-0.8,1.2-1.4,0.9C27.1,18.3,27.2,17.1,28,16.8 M48.9,18.6c-0.9-0.1-1-1.5-0.2-1.8
		c0.7-0.3,1.3,0.3,1.4,0.9C50,18.3,49.5,18.8,48.9,18.6 M30.3,21.2c1-0.6,2.3,0.3,2.2,1.4c-0.1,1.1-1.6,1.8-2.4,1
		C29.3,23,29.4,21.6,30.3,21.2 M45,21.8c0.4-1.1,2.2-1.1,2.7-0.1c0.5,0.8-0.1,1.9-1,2.2C45.6,24.1,44.5,22.9,45,21.8 M37,23.9
		c0-1,0.9-1.7,1.8-1.7c0.6,0.1,1.3,0.4,1.5,1c0.5,0.8,0.1,2-0.8,2.4c-0.4,0.2-0.9,0.1-1.3,0.1C37.5,25.3,36.9,24.6,37,23.9
		 M21.8,25.3c0.9-0.5,2.1,0.4,1.7,1.4c-0.2,0.8-1.3,1.2-1.9,0.6C20.9,26.8,21,25.6,21.8,25.3 M54.4,25.3c0.7-0.6,2,0.1,1.9,1
		c0.1,0.9-1,1.5-1.8,1.1C53.7,27,53.6,25.7,54.4,25.3 M41.3,27c1.2-0.4,2.7,0.1,3.4,1.2c0.9,1.3,0.4,3.4-1,4.2
		c-1.5,0.9-3.7,0.1-4.2-1.5C38.8,29.3,39.7,27.4,41.3,27 M34,27.1c1.4-0.6,3.2-0.1,3.9,1.3c0.8,1.4,0.2,3.3-1.2,4
		c-1.4,0.8-3.4,0.2-4-1.3C31.9,29.7,32.6,27.8,34,27.1 M26.8,29.6c0.1-0.9,0.9-1.5,1.8-1.5c0.9,0.1,1.6,0.8,1.7,1.7
		c-0.1,0.9-0.8,1.8-1.7,1.8C27.5,31.7,26.6,30.6,26.8,29.6 M48.2,28.3c1.1-0.6,2.6,0.3,2.5,1.5c0.1,1.3-1.6,2.2-2.7,1.5
		C46.9,30.6,47,28.8,48.2,28.3 M31.1,32.9c1.3-0.3,2.7,0.2,3.3,1.4c0.7,1.2,0.4,2.8-0.7,3.7c-1.4,1.3-3.9,0.8-4.6-1
		C28.4,35.4,29.4,33.3,31.1,32.9 M44.8,32.9c1.2-0.4,2.7,0.1,3.3,1.2c0.9,1.3,0.5,3.2-0.8,4c-1.4,1-3.5,0.5-4.2-1
		C42.2,35.6,43.1,33.4,44.8,32.9 M22.9,34.4c1.1-0.4,2.3,0.8,1.9,1.9c-0.3,1-1.7,1.4-2.4,0.6C21.6,36.2,21.9,34.7,22.9,34.4
		 M52.6,35.9c0-0.9,0.6-1.7,1.6-1.8c0.7,0.1,1.5,0.7,1.4,1.5c0.1,1.1-1.2,1.8-2.1,1.3C53,36.8,52.8,36.4,52.6,35.9 M17.6,34.9
		c0.7-0.3,1.5,0.3,1.3,1c0,0.8-1.3,1.1-1.7,0.5C16.8,35.9,17,35.1,17.6,34.9z M59,34.9c0.5-0.3,1.2-0.1,1.4,0.4
		c0.3,0.6-0.3,1.4-0.9,1.3C58.6,36.7,58.3,35.3,59,34.9 M34.7,38.8c1.7-0.5,3.6,1,3.6,2.8c0.1,1.8-1.7,3.4-3.5,3
		c-1.4-0.2-2.4-1.5-2.4-2.9C32.4,40.4,33.4,39.1,34.7,38.8 M41.5,38.8c1.8-0.5,3.7,1,3.6,2.8c0.1,1.8-1.7,3.3-3.4,3
		c-1.6-0.2-2.8-2-2.4-3.6C39.6,40,40.5,39.1,41.5,38.8 M28.3,39.9c1.2-0.2,2.4,1.1,1.9,2.3c-0.4,1.2-2.1,1.6-2.9,0.6
		C26.3,41.8,27,40.1,28.3,39.9 M48.4,40c1.1-0.5,2.4,0.5,2.3,1.7c0,1.3-1.6,2.2-2.7,1.4C46.9,42.4,47.1,40.4,48.4,40 M54,45.6
		c-0.4-0.8,0.3-1.8,1.2-1.7c0.4,0,0.7,0.3,1,0.6c0.1,0.5,0.2,1-0.2,1.4C55.5,46.6,54.3,46.4,54,45.6 M21.8,44.2
		c0.8-0.5,2,0.3,1.8,1.2c-0.1,0.8-1.2,1.3-1.9,0.9C21,45.8,21,44.6,21.8,44.2 M38,45.9c1.1-0.5,2.4,0.5,2.3,1.6
		c0.1,1.3-1.6,2.2-2.7,1.4C36.5,48.3,36.7,46.4,38,45.9 M30.5,47.7c0.9-0.5,2.1,0.4,2.1,1.4c0,0.8-0.8,1.6-1.6,1.4
		c-0.7,0-1.1-0.6-1.4-1.2C29.6,48.6,29.9,47.9,30.5,47.7 M45.7,47.7c0.9-0.6,2.3,0.3,2.2,1.3c0,1.1-1.5,1.9-2.4,1.1
		C44.7,49.6,44.8,48.2,45.7,47.7 M48.4,54.2c-0.4-0.6,0.1-1.4,0.8-1.5c0.5,0.1,1.1,0.5,1,1.2C50.1,54.7,48.8,55,48.4,54.2
		 M27.4,53.7c0.2-0.5,0.6-1,1.2-0.9c0.9,0.1,1.1,1.4,0.4,1.8C28.2,55,27.4,54.4,27.4,53.7 M37.5,54.3c0.2-0.7,1.1-1.1,1.8-0.7
		c0.4,0.2,0.5,0.6,0.6,1c-0.1,0.2-0.1,0.4-0.2,0.6c-0.3,0.3-0.6,0.6-1,0.6C37.9,55.9,37.2,55,37.5,54.3" class="ada-icon"/>
</g>
</svg>
