<?xml version="1.0" encoding="utf-8"?>
<!-- Generator: Adobe Illustrator 25.0.1, SVG Export Plug-In . SVG Version: 6.00 Build 0)  -->
<svg version="1.2" baseProfile="tiny" id="Layer_1" xmlns="http://www.w3.org/2000/svg" xmlns:xlink="http://www.w3.org/1999/xlink"
	 x="0px" y="0px" viewBox="0 0 120 120" overflow="visible" xml:space="preserve">
<g id="Group_5106" transform="translate(-771 -290)">
	<path id="Polygon_2" d="M831,303l55,94H776L831,303z"/>
	<path fill="#FFFFFF" d="M848.6,379.7v-5.2h3.8v-2.3h-3.8V369c0-0.6-0.5-1-1-1c-0.3,0-0.6,0.1-0.8,0.3c-0.2,0.2-0.3,0.5-0.3,0.8v0.9
		h-5.2c-0.9,0-1.8,0.4-2.4,1c-0.6,0.7-1,1.5-1,2.4v2.5h-6.7c-2,0-3.8-0.8-5.2-2.2s-2.1-3.3-2.1-5.2c0-4,3.3-7.3,7.3-7.3
		c0,0,0.1,0,0.1,0h3.8c2.5,0,4.8-1,6.5-2.7c1.7-1.7,2.7-4.1,2.7-6.5v0c-0.1-5-4.2-9.1-9.2-9.1c0,0,0,0,0,0H834v2.3h1.1
		c1.9,0,3.6,0.7,4.9,2c1.3,1.3,2,3.1,2,4.9c0,3.8-3.1,7-7,7c0,0,0,0,0,0h-4c-2.6,0-5,1.1-6.8,2.9c-1.8,1.8-2.8,4.3-2.7,6.8
		c0,2.6,1.1,5,2.9,6.8c1.8,1.8,4.3,2.8,6.8,2.7h6.5v2.5c0,1.9,1.5,3.4,3.4,3.4c0,0,0,0,0,0h5.2v0.9c0,0.6,0.5,1,1,1c0,0,0,0,0,0
		c0.6,0,1.1-0.5,1.1-1.1V382h3.8v-2.3H848.6z M846.5,381.9h-5.2c0,0-0.1,0-0.1,0c-0.3,0-0.6-0.2-0.8-0.4s-0.3-0.5-0.3-0.9v-7.3
		c0-0.6,0.5-1.2,1.2-1.2h5.2V381.9z"/>
	<g>
		<path fill="#FFFFFF" d="M830.8,336.7c0.9-0.8,1.9-1.3,1.9-2.5c0-1.1-0.8-1.8-2.2-1.8c-1.6,0-2.6,1.1-2.6,2.6h-2.5
			c0.1-2.5,1.8-4.7,5.2-4.7c2.9,0,4.7,1.6,4.7,3.8c0,1.5-0.8,2.4-1.6,3.1c-1,0.8-1.6,1.2-2,1.6c-0.3,0.4-0.4,0.8-0.4,1.5h-2.2
			C829.1,338.6,829.6,337.7,830.8,336.7z M828.8,342.3h2.7v2.7h-2.7V342.3z"/>
	</g>
</g>
</svg>
