<svg xmlns="http://www.w3.org/2000/svg" width="20" height="20" viewBox="0 0 18.197 17.625">
  <g id="Group_1087" data-name="Group 1087" transform="translate(-3114.902 -8236.66)">
    <path class="fill_main-color" id="Path_565" data-name="Path 565" d="M21.656,59.666a2.055,2.055,0,0,0,2.906,0l2.055-2.055a2.055,2.055,0,0,0,0-2.906l-2.055-2.055a2.055,2.055,0,0,0-2.906,0L19.6,54.706a2.055,2.055,0,0,0,0,2.906Zm-.81-3.73L22.9,53.881a.293.293,0,0,1,.414,0l2.055,2.055a.293.293,0,0,1,0,.414L23.314,58.4a.293.293,0,0,1-.414,0L20.846,56.35A.293.293,0,0,1,20.846,55.936Z" transform="translate(3095.902 8194.018)" fill="#fff"/>
    <path class="fill_main-color" id="Path_566" data-name="Path 566" d="M35.382,22.348H31.05L29.3,20.587A2.055,2.055,0,0,0,27.85,20H24.229A3.229,3.229,0,0,0,21,23.228v3.229a.881.881,0,0,0,1.761,0V23.228a1.468,1.468,0,0,1,1.468-1.468h3.745l1.746,1.761a2.055,2.055,0,0,0,1.453.587h4.209a1.468,1.468,0,0,1,1.468,1.468v8.512a1.468,1.468,0,0,1-1.468,1.468H31.566a.881.881,0,1,0,0,1.761h3.816a3.229,3.229,0,0,0,3.229-3.229V25.576A3.229,3.229,0,0,0,35.382,22.348Z" transform="translate(3094.488 8216.66)" fill="#fff"/>
  </g>
</svg>
