<svg xmlns="http://www.w3.org/2000/svg" width="63.719" height="63.688" viewBox="0 0 63.719 63.688">
  <g id="Group_515" data-name="Group 515" transform="translate(-14076.281 -6378.656)">
    <path id="Path_867" data-name="Path 867" d="M20,0A20,20,0,1,1,0,20,20,20,0,0,1,20,0Z" transform="translate(14093 6386)" fill="#202980"/>
    <path id="Path_866" data-name="Path 866" d="M55,18A26.976,26.976,0,0,0,35.219,63.344L18.281,80.281l1.438,1.406L36.625,64.781a26.991,26.991,0,0,0,44.625-13.5l-1.937-.469A24.991,24.991,0,1,1,80,45h2A27.015,27.015,0,0,0,55,18ZM54,30v3.031a9.335,9.335,0,0,0-4.437,1.438A5.506,5.506,0,0,0,47,39a5.442,5.442,0,0,0,2.594,4.375,26.883,26.883,0,0,0,5,2.531,26.321,26.321,0,0,1,4.625,2.344C60.394,49.09,61,49.889,61,51a3.337,3.337,0,0,1-1.687,2.844A7.9,7.9,0,0,1,55,55.031c-3.113,0-6-2.653-6-5.031H47c0,3.513,3.221,6.511,7,6.969V60h2V56.969A9.361,9.361,0,0,0,60.438,55.5a5.108,5.108,0,0,0-.031-8.875,26.975,26.975,0,0,0-5-2.562,26.378,26.378,0,0,1-4.625-2.312C49.606,40.91,49,40.111,49,39a3.386,3.386,0,0,1,1.688-2.875A7.9,7.9,0,0,1,55,34.938c3.113,0,6,2.684,6,5.063h2c0-3.513-3.221-6.507-7-6.969V30Z" transform="translate(14058 6360.656)" fill="#fff"/>
  </g>
</svg>
