<svg xmlns="http://www.w3.org/2000/svg" width="66" height="66" viewBox="0 0 66 66"><g transform="translate(3550 1379)"><path d="M0,0H66V66H0Z" transform="translate(-3550 -1379)" fill="none"/><path d="M39.337,5.765,65.66,34.435l.2.387-.223.852-26.35,28.7-.668.325-.787-.252L11.441,35.708a.914.914,0,0,1,0-1.337L37.715,5.76a1.046,1.046,0,0,1,1.623.005ZM63.035,35.6l-17.21-3.98L40.189,60.477ZM43.776,31.589,14.139,35.733,37.915,61.625ZM14.719,33.718l29.049-4.061L38.019,8.341Zm31.14-4.061L62.04,33.4,40.561,10.011Z" transform="translate(-3555.377 -1381.338)" fill="#fff" fill-rule="evenodd" opacity="0.8"/></g></svg>