<?xml version="1.0" encoding="utf-8"?>
<!-- Generator: Adobe Illustrator 26.5.0, SVG Export Plug-In . SVG Version: 6.00 Build 0)  -->
<svg version="1.2" baseProfile="tiny" id="Layer_1" xmlns="http://www.w3.org/2000/svg" xmlns:xlink="http://www.w3.org/1999/xlink"
	 x="0px" y="0px" viewBox="0 0 26.3 26.3" overflow="visible" xml:space="preserve">
<g class="all-apps" id="Group_5258" transform="translate(-569.286 -408.426)">
	<path id="Path_4762" d="M575.6,425h-5.9c-0.3,0-0.5-0.2-0.5-0.5v-5.9c0-0.3,0.2-0.5,0.5-0.5h5.9
		c0.3,0,0.5,0.2,0.5,0.5v5.9C576.1,424.8,575.9,425,575.6,425z"/>
	<path id="Path_4762-2" d="M575.6,434.7h-5.9c-0.3,0-0.5-0.2-0.5-0.5v-5.9c0-0.3,0.2-0.5,0.5-0.5h5.9
		c0.3,0,0.5,0.2,0.5,0.5v5.9C576.1,434.5,575.9,434.7,575.6,434.7z"/>
	<path id="Path_4762-3" d="M585.3,415.3h-5.9c-0.3,0-0.5-0.2-0.5-0.5v-5.9c0-0.3,0.2-0.5,0.5-0.5h5.9
		c0.3,0,0.5,0.2,0.5,0.5v5.9C585.8,415.1,585.6,415.3,585.3,415.3z"/>
	<path id="Path_4762-4" d="M595.1,415.3h-5.9c-0.3,0-0.5-0.2-0.5-0.5v-5.9c0-0.3,0.2-0.5,0.5-0.5h5.9
		c0.3,0,0.5,0.2,0.5,0.5v5.9C595.5,415.1,595.3,415.3,595.1,415.3z"/>
	<path id="Path_4762-5" d="M585.3,425h-5.9c-0.3,0-0.5-0.2-0.5-0.5v-5.9c0-0.3,0.2-0.5,0.5-0.5h5.9
		c0.3,0,0.5,0.2,0.5,0.5v5.9C585.8,424.8,585.6,425,585.3,425z"/>
	<path id="Path_4762-6" d="M585.3,434.7h-5.9c-0.3,0-0.5-0.2-0.5-0.5v-5.9c0-0.3,0.2-0.5,0.5-0.5h5.9
		c0.3,0,0.5,0.2,0.5,0.5v5.9C585.8,434.5,585.6,434.7,585.3,434.7z"/>
	<path id="Path_4762-7" d="M595.1,425h-5.9c-0.3,0-0.5-0.2-0.5-0.5v-5.9c0-0.3,0.2-0.5,0.5-0.5h5.9
		c0.3,0,0.5,0.2,0.5,0.5v5.9C595.5,424.8,595.3,425,595.1,425z"/>
	<path id="Path_4762-8" d="M595.1,434.7h-5.9c-0.3,0-0.5-0.2-0.5-0.5v-5.9c0-0.3,0.2-0.5,0.5-0.5h5.9
		c0.3,0,0.5,0.2,0.5,0.5v5.9C595.5,434.5,595.3,434.7,595.1,434.7z"/>
	<path id="Path_4762-9" d="M575.6,415.3h-5.9c-0.3,0-0.5-0.2-0.5-0.5v-5.9c0-0.3,0.2-0.5,0.5-0.5h5.9
		c0.3,0,0.5,0.2,0.5,0.5v5.9C576.1,415.1,575.9,415.3,575.6,415.3z"/>
</g>
</svg>
