<?xml version="1.0" encoding="utf-8"?>
<!-- Generator: Adobe Illustrator 23.1.0, SVG Export Plug-In . SVG Version: 6.00 Build 0)  -->
<svg version="1.2" baseProfile="tiny" id="Layer_1" xmlns="http://www.w3.org/2000/svg" xmlns:xlink="http://www.w3.org/1999/xlink"
	 x="0px" y="0px" viewBox="0 0 25 25" xml:space="preserve">
<path class="announcement" d="M12.5,5.5c-4.2,0-7.6,3.4-7.6,7.6s3.4,7.6,7.6,7.6s7.6-3.4,7.6-7.6S16.7,5.5,12.5,5.5z M16.9,17.9l-0.2-0.1
	c-1.8-1.5-3.2-3.3-4.3-5.2c-1.1,2-2.6,3.8-4.3,5.3l-0.2,0.1v-1.7l0,0c1.6-1.2,3-3.2,4.3-5.8l0.1-0.2l0.1,0.2
	c1.1,2.4,2.6,4.4,4.3,5.8l0,0L16.9,17.9z M16.9,14.5l-0.2-0.1c-1.8-1.5-3.2-3.3-4.3-5.2c-1.1,2-2.6,3.8-4.3,5.3l-0.2,0.1v-1.7l0,0
	c1.6-1.2,3-3.2,4.3-5.8l0.1-0.2L12.6,7c1.1,2.4,2.6,4.4,4.3,5.8l0,0L16.9,14.5L16.9,14.5z"/>
</svg>
