<?xml version="1.0" encoding="utf-8"?>
<!-- Generator: Adobe Illustrator 19.0.0, SVG Export Plug-In . SVG Version: 6.00 Build 0)  -->
<svg version="1.1" id="Layer_1" xmlns="http://www.w3.org/2000/svg" xmlns:xlink="http://www.w3.org/1999/xlink" x="0px" y="0px"
	 viewBox="0 0 36 36" style="enable-background:new 0 0 36 36;" xml:space="preserve">
<g id="XMLID_9_" class="api-key-revoked">
	<rect id="XMLID_25_" x="-5.6" y="17" transform="matrix(0.6964 0.7176 -0.7176 0.6964 18.3811 -7.453)" width="47.2" height="2"/>
	<g id="XMLID_4_">
		<path id="XMLID_7_" d="M18.7,14.5c0.5,0,1,0.2,1.3,0.5c0.1,0.1,0.2,0.2,0.2,0.4c0,0,0,0,0,0c0,0,0,0.1,0,0.1c0,0,0,0,0,0.1
			c0,0.1-0.1,0.3-0.1,0.4l1.1,1.1c0,0,0,0,0-0.1l0-1.4c0-1.1-1.2-2-2.7-2c-0.2,0-0.4,0-0.6,0.1L18.7,14.5z"/>
		<path id="XMLID_12_" d="M17.8,16.4c-0.6-0.1-0.8-0.3-0.9-0.6c-0.1-0.2-0.1-0.3-0.1-0.5l-0.8-0.8c-0.2,0.3-0.3,0.6-0.3,0.9l0,1.4
			c0,0.4,0.1,0.7,0.4,1c0,0.1,0.1,0.1,0.2,0.1c0,0,0.1,0,0.1,0c0.2,0,0.2-0.2,0.2-0.3l0-0.7c0.2,0.2,0.5,0.3,0.8,0.4
			c0.3,0.1,0.6,0.1,0.9,0.1c0.1,0,0.2,0,0.3,0L17.8,16.4z"/>
	</g>
	<g id="XMLID_6_">
		<path id="XMLID_52_" d="M14.3,9.9l0.9-0.5c0,0.3,0.1,0.6,0.3,0.9c0.1,0.1,0.2,0.1,0.3,0.1c0,0,0.1,0,0.1,0c0.1,0,0.2-0.2,0.2-0.3
			l0-0.7c0.2,0.2,0.5,0.3,0.8,0.4c0.3,0.1,0.6,0.1,0.9,0.1c0.6,0,1.3-0.2,1.8-0.5l0,0.7c0,0.2,0.1,0.3,0.2,0.3c0.2,0,0.3,0,0.4-0.1
			c0.2-0.3,0.3-0.6,0.3-0.9l0-0.3l2,1.2c-0.4,0.3-0.6,0.8-0.6,1.2l0,1.4c0,0.4,0.1,0.7,0.4,1c0.1,0.1,0.2,0.1,0.3,0.1
			c0,0,0.1,0,0.1,0c0.2,0,0.2-0.2,0.2-0.3l0-0.7c0.2,0.2,0.5,0.3,0.8,0.4c0.3,0.1,0.6,0.1,0.9,0.1c0.6,0,1.3-0.2,1.8-0.5l0,0.7
			c0,0.2,0.1,0.3,0.2,0.3s0.3,0,0.4-0.1c0.2-0.2,0.3-0.6,0.3-0.8l1.9,1.1l-7,4l0.9,0.9l6.7-3.9l0,8l-1.7,1l0.8,0.9l1.8-1
			c0.2-0.1,0.3-0.3,0.3-0.5l0.1-9.3c0-0.2-0.1-0.4-0.3-0.5l-3.4-2l0-0.1c0-1.1-1.2-2-2.7-2c-0.3,0-0.6,0-0.8,0.1l-3.3-1.9
			C20.5,6.8,19.4,6,18,6c-1.5,0-2.7,0.9-2.7,1.9l0,0.2L13.4,9L14.3,9.9z M23.1,11.2c0.1-0.2,0.2-0.2,0.4-0.3
			c0.3-0.2,0.8-0.3,1.2-0.3c0.6,0,1.1,0.2,1.4,0.5c0.1,0.1,0.2,0.2,0.2,0.4c0,0,0,0,0,0c0,0,0,0.1,0,0.1l0,0l0,0
			c0,0.2-0.1,0.4-0.2,0.5c-0.3,0.3-0.9,0.5-1.5,0.5c-1,0-1.4-0.3-1.6-0.6C23,11.7,23.1,11.4,23.1,11.2z M16.4,7.5
			c0.3-0.4,0.9-0.6,1.6-0.6c0.6,0,1.1,0.2,1.4,0.5c0.1,0.1,0.2,0.2,0.2,0.4c0,0,0,0,0,0c0,0,0,0.1,0,0.1c0,0,0,0,0,0.1
			c0,0.2-0.1,0.4-0.2,0.5c-0.3,0.3-0.9,0.5-1.5,0.5c-1,0-1.4-0.3-1.6-0.6C16.2,8.1,16.3,7.7,16.4,7.5z"/>
		<path id="XMLID_56_" d="M26.4,25.3l-7.7,4.5l0-8.1l2.6-1.5l-0.9-0.9l-2.4,1.4L6.3,14.2L9,12.8c0,0.3,0.1,0.6,0.3,0.9
			c0.1,0.1,0.2,0.1,0.3,0.1c0,0,0.1,0,0.1,0c0.1,0,0.2-0.2,0.2-0.3l0-0.7c0.2,0.2,0.5,0.3,0.8,0.4c0.3,0.1,0.6,0.1,0.9,0.1
			c0.6,0,1.3-0.2,1.8-0.5l0,0.7c0,0.2,0.1,0.3,0.2,0.3c0.2,0,0.3,0,0.4-0.1c0.2-0.2,0.3-0.5,0.3-0.8l-1.1-1.2c0,0,0,0.1-0.1,0.1
			c-0.3,0.3-0.9,0.5-1.5,0.5c-1,0-1.4-0.3-1.6-0.6c-0.2-0.3-0.1-0.6,0-0.8c0.3-0.4,0.9-0.6,1.6-0.6c0,0,0.1,0,0.1,0L11,9.4
			C9.8,9.6,9,10.4,9,11.3l0,0.1l-4.2,2.2l0,0c-0.2,0.1-0.3,0.3-0.3,0.5l0,9.1c0,0.2,0.1,0.4,0.3,0.5l13.2,7.4c0.1,0,0.2,0.1,0.3,0.1
			c0.1,0,0.2,0,0.3-0.1l8.8-5.2L26.4,25.3z M17.6,29.8l-12-6.7l0-7.8l12,6.4L17.6,29.8z"/>
	</g>
</g>
</svg>
