<?xml version="1.0" encoding="utf-8"?>
<!-- Generator: Adobe Illustrator 19.0.0, SVG Export Plug-In . SVG Version: 6.00 Build 0)  -->
<svg version="1.1" id="Layer_1" xmlns="http://www.w3.org/2000/svg" xmlns:xlink="http://www.w3.org/1999/xlink" x="0px" y="0px"
	 viewBox="0 0 27 27" style="enable-background:new 0 0 27 27;" xml:space="preserve">
<g id="XMLID_972_">
	<path class="api-key-active" id="XMLID_1254_" d="M12.1,12.7c0,0,0.1,0,0.1,0c0.2,0,0.2-0.2,0.2-0.3l0-0.7c0.2,0.2,0.5,0.3,0.8,0.4
		c0.3,0.1,0.6,0.1,0.9,0.1c0.6,0,1.3-0.2,1.8-0.5l0,0.7c0,0.2,0.1,0.3,0.2,0.3c0.2,0,0.3,0,0.4-0.1c0.2-0.3,0.3-0.6,0.3-0.9l0-1.4
		c0-1.1-1.2-2-2.7-2s-2.7,0.9-2.7,1.9l0,1.4c0,0.4,0.1,0.7,0.4,1C11.9,12.7,12,12.7,12.1,12.7z M16,10.2c0,0.2-0.1,0.4-0.2,0.5
		c-0.3,0.3-0.9,0.5-1.5,0.5c-1,0-1.4-0.3-1.6-0.6c-0.2-0.3-0.1-0.6,0-0.8c0.3-0.4,0.9-0.6,1.6-0.6c0.6,0,1.1,0.2,1.4,0.5
		c0.1,0.1,0.2,0.2,0.2,0.4c0,0,0,0,0,0C15.9,10.1,15.9,10.1,16,10.2C16,10.1,16,10.2,16,10.2C16,10.2,16,10.2,16,10.2z"/>
	<path class="api-key-active" id="XMLID_973_" d="M26.6,8.4L26.6,8.4l-3.4-2l0-0.1c0-1.1-1.2-2-2.7-2c-0.3,0-0.6,0-0.8,0.1l-3.3-1.9c-0.2-1-1.3-1.7-2.7-1.7
		c-1.5,0-2.7,0.9-2.7,1.9l0,0.2L8.3,4.2l0,0C8.1,4.1,7.8,4.1,7.5,4.1C5.9,4.1,4.7,5,4.7,6l0,0.1L0.5,8.4l0,0l0,0
		C0.2,8.5,0.2,8.7,0.2,8.9l0,9.1c0,0.2,0.1,0.4,0.3,0.5L13.6,26c0.1,0,0.2,0.1,0.3,0.1c0.1,0,0.2,0,0.3-0.1l12.3-7.2
		c0.2-0.1,0.3-0.3,0.3-0.5l0.1-9.3C26.9,8.7,26.8,8.5,26.6,8.4z M19.4,5.6L19.4,5.6c0.3-0.2,0.8-0.3,1.2-0.3c0.6,0,1.1,0.2,1.4,0.5
		c0.1,0.1,0.2,0.2,0.2,0.4c0,0,0,0,0,0c0,0,0,0.1,0,0.1l0,0l0,0c0,0.2-0.1,0.4-0.2,0.5c-0.3,0.3-0.9,0.5-1.5,0.5
		c-1,0-1.4-0.3-1.6-0.6c-0.2-0.3-0.1-0.6,0-0.8C19,5.7,19.2,5.6,19.4,5.6L19.4,5.6z M15.5,2.7c0,0.2-0.1,0.4-0.2,0.5
		c-0.3,0.3-0.9,0.5-1.5,0.5c-1,0-1.4-0.3-1.6-0.6s-0.1-0.6,0-0.8c0.3-0.4,0.9-0.6,1.6-0.6c0.6,0,1.1,0.2,1.4,0.5
		c0.1,0.1,0.2,0.2,0.2,0.4c0,0,0,0,0,0C15.4,2.5,15.4,2.6,15.5,2.7C15.5,2.6,15.5,2.6,15.5,2.7C15.5,2.6,15.5,2.7,15.5,2.7z M11,4.2
		c0,0.3,0.1,0.6,0.3,0.9c0.1,0.1,0.2,0.1,0.3,0.1c0,0,0.1,0,0.1,0C11.8,5.2,12,5,12,4.9l0-0.7c0.2,0.2,0.5,0.3,0.8,0.4
		c0.3,0.1,0.6,0.1,0.9,0.1c0.6,0,1.3-0.2,1.8-0.5l0,0.7c0,0.2,0.1,0.3,0.2,0.3c0.2,0,0.3,0,0.4-0.1c0.2-0.3,0.3-0.6,0.3-0.9l0-0.3
		l2,1.2c-0.4,0.3-0.6,0.8-0.6,1.2l0,1.4c0,0.4,0.1,0.7,0.4,1c0.1,0.1,0.2,0.1,0.3,0.1c0,0,0.1,0,0.1,0c0.2,0,0.2-0.2,0.2-0.3l0-0.7
		C19,7.9,19.3,8,19.6,8.1c0.3,0.1,0.6,0.1,0.9,0.1c0.6,0,1.3-0.2,1.8-0.5l0,0.7c0,0.2,0.1,0.3,0.2,0.3c0.2,0,0.3,0,0.4-0.1
		c0.2-0.2,0.3-0.6,0.3-0.8l1.9,1.1l-11.2,6.4L2.1,8.9l2.7-1.4c0,0.3,0.1,0.6,0.3,0.9c0.1,0.1,0.2,0.1,0.3,0.1c0,0,0.1,0,0.1,0
		c0.1,0,0.2-0.2,0.2-0.3l0-0.7C6,7.7,6.2,7.8,6.6,7.9C6.8,8,7.2,8,7.5,8c0.6,0,1.3-0.2,1.8-0.5l0,0.7c0,0.2,0.1,0.3,0.2,0.3
		c0.2,0,0.3,0,0.4-0.1c0.2-0.3,0.3-0.6,0.3-0.9l0-1.4c0-0.4-0.2-0.9-0.6-1.2L11,4.2z M9.2,6.1c0,0.2-0.1,0.4-0.2,0.5
		C8.6,6.9,8.1,7.1,7.5,7.1c-1,0-1.4-0.3-1.6-0.6s-0.1-0.6,0-0.8C6.2,5.3,6.8,5,7.5,5C8.1,5,8.7,5.2,9,5.5c0.1,0.1,0.2,0.2,0.2,0.4
		c0,0,0,0,0,0C9.2,5.9,9.2,6,9.2,6.1C9.2,6,9.2,6,9.2,6.1C9.2,6,9.2,6.1,9.2,6.1z M1.4,9.9l12,6.4l0,8.1l-12-6.7L1.4,9.9z
		 M25.6,17.9l-11.1,6.5l0-8.1L25.7,10L25.6,17.9z"/>
</g>
</svg>
