<?xml version="1.0" encoding="utf-8"?>
<!-- Generator: Adobe Illustrator 25.0.1, SVG Export Plug-In . SVG Version: 6.00 Build 0)  -->
<svg version="1.1" id="Layer_1" xmlns="http://www.w3.org/2000/svg" xmlns:xlink="http://www.w3.org/1999/xlink" x="0px" y="0px"
	 viewBox="0 0 85 85" style="enable-background:new 0 0 85 85;" xml:space="preserve">
<style type="text/css">
	.st0{fill:#FFFFFF;}
</style>
<g id="XMLID_74_">
	<path id="XMLID_86_" class="st0" d="M55.6,37.8h0.2c0.3,0,0.3-0.3,0.3-0.5v-1.1c0.3,0.3,0.8,0.5,1.3,0.6c0.5,0.2,0.9,0.2,1.4,0.2
		c0.9,0,2.1-0.3,2.8-0.8v1.1c0,0.3,0.2,0.5,0.3,0.5c0.3,0,0.5,0,0.6-0.2c0.3-0.5,0.5-0.9,0.5-1.4V34c0-1.7-1.9-3.2-4.3-3.2
		s-4.3,1.4-4.3,3V36c0,0.6,0.2,1.1,0.6,1.6C55.2,37.8,55.4,37.8,55.6,37.8z M61.7,33.8c0,0.3-0.2,0.6-0.3,0.8
		c-0.5,0.5-1.4,0.8-2.4,0.8c-1.6,0-2.2-0.5-2.5-0.9c-0.3-0.5-0.2-0.9,0-1.3c0.5-0.6,1.4-0.9,2.5-0.9c0.9,0,1.7,0.3,2.2,0.8
		c0.2,0.2,0.3,0.3,0.3,0.6l0,0C61.6,33.6,61.6,33.6,61.7,33.8C61.7,33.6,61.7,33.8,61.7,33.8L61.7,33.8z"/>
	<path id="XMLID_75_" class="st0" d="M78.5,31L78.5,31l-5.4-3.2v-0.2c0-1.7-1.9-3.2-4.3-3.2c-0.5,0-0.9,0-1.3,0.2l-5.2-3
		c-0.3-1.6-2.1-2.7-4.3-2.7c-2.4,0-4.3,1.4-4.3,3v0.3l-4.3,2.1l0,0c-0.3-0.2-0.8-0.2-1.3-0.2c-2.5,0-4.4,1.4-4.4,3v0.2L37.2,31l0,0
		l0,0c-0.5,0.2-0.5,0.5-0.5,0.8v14.4c0,0.3,0.2,0.6,0.5,0.8l20.7,11.9c0.2,0,0.3,0.2,0.5,0.2s0.3,0,0.5-0.2l19.5-11.4
		c0.3-0.2,0.5-0.5,0.5-0.8L79,31.9C79,31.4,78.8,31.1,78.5,31z M67.1,26.5L67.1,26.5c0.5-0.3,1.3-0.5,1.9-0.5c0.9,0,1.7,0.3,2.2,0.8
		c0.2,0.2,0.3,0.3,0.3,0.6l0,0v0.2l0,0l0,0c0,0.3-0.2,0.6-0.3,0.8c-0.5,0.5-1.4,0.8-2.4,0.8c-1.6,0-2.2-0.5-2.5-0.9
		c-0.3-0.5-0.2-0.9,0-1.3C66.5,26.7,66.8,26.5,67.1,26.5L67.1,26.5z M60.9,21.9c0,0.3-0.2,0.6-0.3,0.8c-0.5,0.5-1.4,0.8-2.4,0.8
		c-1.6,0-2.2-0.5-2.5-0.9c-0.3-0.5-0.2-0.9,0-1.3c0.5-0.6,1.4-0.9,2.5-0.9c0.9,0,1.7,0.3,2.2,0.8c0.2,0.2,0.3,0.3,0.3,0.6l0,0
		C60.8,21.6,60.8,21.8,60.9,21.9C60.9,21.8,60.9,21.8,60.9,21.9C60.9,21.8,60.9,21.9,60.9,21.9z M53.8,24.3c0,0.5,0.2,0.9,0.5,1.4
		c0.2,0.2,0.3,0.2,0.5,0.2h0.2c0.2,0,0.5-0.3,0.5-0.5v-1.1c0.3,0.3,0.8,0.5,1.3,0.6c0.5,0.2,0.9,0.2,1.4,0.2c0.9,0,2.1-0.3,2.8-0.8
		v1.1c0,0.3,0.2,0.5,0.3,0.5c0.3,0,0.5,0,0.6-0.2c0.3-0.5,0.5-0.9,0.5-1.4v-0.5l3.2,1.9c-0.6,0.5-0.9,1.3-0.9,1.9v2.2
		c0,0.6,0.2,1.1,0.6,1.6c0.2,0.2,0.3,0.2,0.5,0.2h0.2c0.3,0,0.3-0.3,0.3-0.5V30c0.3,0.2,0.8,0.3,1.3,0.5s0.9,0.2,1.4,0.2
		c0.9,0,2.1-0.3,2.8-0.8V31c0,0.3,0.2,0.5,0.3,0.5c0.3,0,0.5,0,0.6-0.2c0.3-0.3,0.5-0.9,0.5-1.3l3,1.7L58.4,41.9L39.7,31.7l4.3-2.2
		c0,0.5,0.2,0.9,0.5,1.4c0.2,0.2,0.3,0.2,0.5,0.2h0.2c0.2,0,0.3-0.3,0.3-0.5v-1.1c0.5,0.3,0.8,0.5,1.4,0.6c0.3,0.2,0.9,0.2,1.4,0.2
		c0.9,0,2.1-0.3,2.8-0.8v1.1c0,0.3,0.2,0.5,0.3,0.5c0.3,0,0.5,0,0.6-0.2c0.3-0.5,0.5-0.9,0.5-1.4v-2.2c0-0.6-0.3-1.4-0.9-1.9
		L53.8,24.3z M51,27.3c0,0.3-0.2,0.6-0.3,0.8c-0.6,0.5-1.4,0.8-2.4,0.8c-1.6,0-2.2-0.5-2.5-0.9c-0.3-0.5-0.2-0.9,0-1.3
		c0.5-0.6,1.4-1.1,2.5-1.1c0.9,0,1.9,0.3,2.4,0.8c0.2,0.2,0.3,0.3,0.3,0.6l0,0C51,27,51,27.2,51,27.3C51,27.2,51,27.2,51,27.3
		C51,27.2,51,27.3,51,27.3z M38.6,33.3l19,10.1v12.8l-19-10.6V33.3z M76.9,46L59.4,56.3V43.5l17.7-10L76.9,46z"/>
</g>
<g id="XMLID_3_">
	<path id="XMLID_31_" class="st0" d="M37.1,49.2c-0.6-0.3-1.2-0.7-1.8-1.2c-0.2,0-0.4,0-0.6,0c-1.7-0.1-3.3-0.6-4.6-1.6
		c-0.5-0.3-0.9-0.3-1.2-0.1l-17.6,9.8l-4.9-1.4l1.2-4.2l2.7,0.7c0.6,0.2,1.2-0.1,1.5-0.8l0.8-2.7l2.7,0.8c0.6,0.2,1.2-0.1,1.5-0.8
		l0.7-2.8l2.7,0.8c0.6,0.2,1.2-0.1,1.5-0.8l0.8-3c1.5-0.1,2.9-1.1,3.3-2.6c0.1-0.4,0.2-0.6,0.1-0.9c0-1.2,0.2-2.4,0.8-3.5
		c1.6-3.8,5.5-6.2,9.6-5.7c1-0.7,2.1-1.2,3.3-1.6c-0.7-0.3-1.6-0.6-2.4-0.6c-5.3-1-10.7,1.8-12.8,7c-0.6,1.4-0.9,2.9-0.8,4.3
		c0,0.8-0.8,1.4-1.7,1.1c-0.6-0.2-1.2,0.1-1.5,0.8l-0.9,2.7l-2.7-0.8c-0.6-0.2-1.2,0.1-1.5,0.8l-0.8,2.7L11.9,45
		c-0.6-0.2-1.2,0.1-1.5,0.8l-0.8,2.8l-2.7-0.8c-0.6-0.1-1.1,0.3-1.3,0.9l-1.8,6.4c-0.2,0.6,0.1,1.2,0.8,1.5l6.4,1.8
		c0.4,0.1,0.6,0.1,0.8-0.1l17.3-9.6c1.5,0.9,3.3,1.5,5.3,1.6c1.1,0.1,2.1,0,3.1-0.3C37.6,49.7,37.4,49.4,37.1,49.2z"/>
</g>
<path class="st0" d="M35,35c-0.2,0-0.4,0-0.6,0.1c-2,0.5-3.1,2.4-2.6,4.3c0.4,1.6,1.7,2.6,3.2,2.7V35z"/>
</svg>
