<?xml version="1.0" encoding="utf-8"?>
<!-- Generator: Adobe Illustrator 19.0.0, SVG Export Plug-In . SVG Version: 6.00 Build 0)  -->
<svg version="1.1" id="Layer_1" xmlns="http://www.w3.org/2000/svg" xmlns:xlink="http://www.w3.org/1999/xlink" x="0px" y="0px"
	 viewBox="0 0 175 175" style="enable-background:new 0 0 175 175;" xml:space="preserve">
<g id="XMLID_82_">
	<g id="XMLID_2_">
		<path id="XMLID_346_" class='generate_api' d="M81.6,117.7c0.2,0,0.3,0,0.5,0c0.7-0.2,1-0.7,1-1.4l0-3.1c1,0.7,2.2,1.2,3.6,1.6c1.2,0.3,2.5,0.5,3.9,0.5
			c2.7,0,5.4-0.7,7.7-2l0,2.9c0,0.7,0.3,1.2,1,1.4c0.7,0.2,1.2,0,1.5-0.5c0.9-1.2,1.4-2.5,1.4-3.9l0-6.1c0-4.8-5.1-8.4-11.5-8.4
			c-6.5,0-11.6,3.7-11.6,8.3l0,6.1c0,1.5,0.5,2.9,1.5,4.1C80.8,117.5,81.1,117.7,81.6,117.7z M98,107.1c0,0.9-0.3,1.5-1,2.2
			c-1.4,1.4-3.8,2-6.3,2c-4.4,0-5.9-1.4-6.6-2.6c-0.7-1.2-0.3-2.6,0-3.4c1.2-1.7,3.8-2.7,6.8-2.7c2.4,0,4.8,0.9,6.1,2.1
			c0.5,0.5,0.8,1,0.8,1.5c0,0,0,0,0,0.2c0,0.2,0,0.3,0,0.3C98,106.7,98,106.9,98,107.1C98,106.9,98,107.1,98,107.1z"/>
		<path id="XMLID_10_" class='generate_api' d="M143.3,99.3L143.3,99.3l-14.4-8.6l0-0.5c0-4.8-5.1-8.4-11.5-8.4c-1.2,0-2.4,0.2-3.4,0.3l-14.1-8.2
			c-0.7-4.1-5.4-7.3-11.4-7.4c-6.5,0-11.6,3.7-11.6,8.3l0,0.9l-11.4,5.7l0,0.2c-1.2-0.3-2.4-0.5-3.7-0.5c-6.5,0-11.6,3.7-11.6,8.3
			l0,0.5l-18.1,9.4l0,0l-0.2,0c-0.9,0.5-1.2,1.4-1.2,2.2l-0.2,38.9c0,0.9,0.5,1.7,1.3,2.2L88,174.2c0.3,0.2,0.8,0.3,1.2,0.3
			c0.5,0,0.9-0.2,1.4-0.3l52.6-30.8c0.9-0.5,1.2-1.4,1.2-2.2l0.2-39.6C144.5,100.7,144,99.8,143.3,99.3z M112.4,87.3L112.4,87.3
			c1.4-0.8,3.2-1.3,5.1-1.3c2.4,0,4.8,0.9,6.1,2.1c0.5,0.5,0.8,1,0.8,1.5c0,0,0,0,0,0.2c0,0.2,0,0.3,0,0.3l0,0.2l0,0.2
			c0,0.9-0.3,1.5-1,2.2c-1.4,1.4-3.8,2-6.3,2c-4.4,0-5.9-1.4-6.6-2.6c-0.7-1.2-0.3-2.6,0-3.4C111.1,87.9,111.6,87.6,112.4,87.3
			L112.4,87.3z M95.8,74.9c0,0.9-0.3,1.5-1,2.2c-1.4,1.4-3.8,2-6.3,2c-4.4,0-5.9-1.4-6.6-2.6c-0.7-1.2-0.3-2.6,0-3.4
			c1.2-1.7,3.8-2.7,6.8-2.7c2.4,0,4.8,0.9,6.1,2.1c0.5,0.5,0.8,1,0.8,1.5c0,0,0,0,0,0.2c0,0.2,0,0.3,0,0.3
			C95.8,74.7,95.8,74.7,95.8,74.9C95.8,74.7,95.8,74.9,95.8,74.9z M76.9,81.5c0,1.4,0.5,2.6,1.3,3.7c0.3,0.3,0.7,0.5,1.2,0.5
			c0.2,0,0.3,0,0.5,0c0.5-0.2,1-0.7,1-1.4l0-3.1c1,0.7,2.2,1.2,3.6,1.6c1.2,0.3,2.5,0.5,3.9,0.5c2.7,0,5.4-0.7,7.7-2l0,2.9
			c0,0.7,0.3,1.2,1,1.4c0.7,0.2,1.2,0,1.5-0.5c0.9-1.2,1.4-2.5,1.4-3.9l0-1.2l8.3,5c-1.5,1.4-2.6,3.2-2.6,5.3l0,6
			c0,1.5,0.5,2.9,1.5,4.1c0.3,0.3,0.7,0.5,1.2,0.5c0.2,0,0.3,0,0.5,0c0.7-0.2,1-0.7,1-1.4l0-3.1c1,0.7,2.2,1.2,3.6,1.6
			c1.2,0.3,2.5,0.5,3.9,0.5c2.7,0,5.4-0.7,7.7-2l0,2.9c0,0.7,0.3,1.2,1,1.4c0.7,0.2,1.2,0,1.5-0.5c0.9-1,1.2-2.4,1.4-3.6l8.1,4.8
			l-47.8,27.3l-50.5-27.1l11.4-6.1c0,1.4,0.5,2.7,1.3,3.9c0.3,0.3,0.7,0.5,1.2,0.5c0.2,0,0.3,0,0.5,0c0.5-0.2,1-0.7,1-1.4l0-3.1
			c1,0.7,2.2,1.2,3.6,1.6c1.2,0.3,2.5,0.5,3.9,0.5c2.7,0,5.4-0.7,7.7-2l0,2.9c0,0.7,0.3,1.2,1,1.4c0.7,0.2,1.2,0,1.5-0.5
			c0.9-1.2,1.4-2.5,1.4-3.9l0-6.1c0-1.9-0.8-3.7-2.4-5.1L76.9,81.5z M69.2,89.4c0,0.9-0.3,1.5-1,2.2c-1.4,1.4-3.8,2-6.3,2
			c-4.4,0-5.9-1.4-6.6-2.6s-0.3-2.6,0-3.4c1.2-1.7,3.8-2.7,6.8-2.7c2.4,0,4.8,0.9,6.1,2.1c0.5,0.5,0.8,1,0.8,1.5c0,0,0,0,0,0.2
			c0,0.2,0,0.3,0,0.3C69.2,89.2,69.2,89.2,69.2,89.4C69.2,89.2,69.2,89.4,69.2,89.4z M36,105.9l51,27.3l-0.2,34.7l-51-28.7L36,105.9
			z M139.2,140l-47.4,27.8l0.2-34.5l47.4-27.3L139.2,140z"/>
	</g>
	<g id="XMLID_349_">
		<g id="XMLID_350_">
			<path id="XMLID_351_" class='generate_api' d="M86.1,57.6l5-25.8H73.2L97.1,0l-2.8,21.7h18.9L86.1,57.6z"/>
		</g>
	</g>
</g>
</svg>
