<?xml version="1.0" encoding="utf-8"?>
<!-- Generator: Adobe Illustrator 19.0.0, SVG Export Plug-In . SVG Version: 6.00 Build 0)  -->
<svg version="1.1" xmlns="http://www.w3.org/2000/svg" xmlns:xlink="http://www.w3.org/1999/xlink" x="0px" y="0px"
	 viewBox="0 0 193.7 175" xml:space="preserve">
<style type="text/css">
	.api-key-st{fill:#010101;}
</style>
<g id="Layer_1">
	<g id="XMLID_1498_">
		<path id="XMLID_1635_" class="api-key-st" d="M141.8,42.2c0.1,0,0.3,0,0.4,0c0.6-0.1,0.8-0.6,0.8-1.1l0-2.5c0.8,0.6,1.8,1,2.9,1.3
			c1,0.3,2.1,0.4,3.2,0.4c2.2,0,4.5-0.5,6.3-1.7l0,2.4c0,0.6,0.3,1,0.8,1.1c0.6,0.1,1,0,1.3-0.4c0.7-1,1.1-2.1,1.1-3.2l0-5.1
			c0-3.9-4.2-6.9-9.5-6.9c-5.3,0-9.6,3-9.6,6.8l0,5.1c0,1.3,0.4,2.4,1.2,3.4C141.1,42.1,141.4,42.2,141.8,42.2z M155.3,33.5
			c0,0.7-0.3,1.3-0.9,1.8c-1.1,1.1-3.1,1.7-5.2,1.7c-3.7,0-4.9-1.2-5.5-2.1c-0.6-1-0.3-2.1,0-2.8c1-1.4,3.1-2.2,5.6-2.2
			c2,0,3.9,0.7,5,1.7c0.4,0.4,0.7,0.8,0.7,1.3c0,0,0,0,0,0.1s0,0.3,0,0.3C155.3,33.2,155.3,33.3,155.3,33.5
			C155.3,33.3,155.3,33.5,155.3,33.5z"/>
		<path id="XMLID_1615_" class="api-key-st" d="M192.7,27.1L180.8,20l0-0.4c0-3.9-4.2-6.9-9.5-6.9c-1,0-2,0.1-2.8,0.3l-11.6-6.8
			c-0.5-3.4-4.5-6.1-9.4-6.1c-5.3,0-9.6,3-9.6,6.8l0,0.7l-9.4,4.7l0,0.1c-1-0.3-2-0.4-3.1-0.4c-5.3,0-9.6,3-9.6,6.8l0,0.4L100.9,27
			l-0.1,0c-0.7,0.4-1,1.1-1,1.8l-0.1,15l4.3,2.5l0.1-13.8l42.2,22.6l-0.2,28.7l-4.4-2.5v4.7l5.4,3c0.3,0.1,0.7,0.3,1,0.3
			c0.4,0,0.7-0.1,1.1-0.3l43.4-25.5c0.7-0.4,1-1.1,1-1.8l0.2-32.7C193.7,28.2,193.3,27.5,192.7,27.1z M165.7,18.2
			c0.4-0.6,0.8-0.8,1.6-1.1c1.1-0.7,2.7-1.1,4.2-1.1c2,0,3.9,0.7,5,1.7c0.4,0.4,0.7,0.8,0.7,1.3c0,0,0,0,0,0.1c0,0.1,0,0.3,0,0.3
			l0,0.1l0,0.1c0,0.7-0.3,1.3-0.9,1.8c-1.1,1.1-3.1,1.7-5.2,1.7c-3.7,0-4.9-1.2-5.5-2.1C165.1,20,165.4,18.9,165.7,18.2z M142,5.4
			c1-1.4,3.1-2.2,5.6-2.2c2,0,3.9,0.7,5,1.7c0.4,0.4,0.7,0.8,0.7,1.3c0,0,0,0,0,0.1c0,0.1,0,0.3,0,0.3c0.1,0.1,0.1,0.1,0.1,0.3
			c0-0.1,0,0,0,0c0,0.7-0.3,1.3-0.9,1.8c-1.1,1.1-3.1,1.7-5.2,1.7c-3.7,0-4.9-1.2-5.5-2.1C141.4,7.3,141.7,6.1,142,5.4z M120,17.4
			c1-1.4,3.1-2.2,5.6-2.2c2,0,3.9,0.7,5,1.7c0.4,0.4,0.7,0.8,0.7,1.3c0,0,0,0,0,0.1s0,0.3,0,0.3c0.1,0.1,0.1,0.1,0.1,0.3
			c0-0.1,0,0,0,0c0,0.7-0.3,1.3-0.9,1.8c-1.1,1.1-3.1,1.7-5.2,1.7c-3.7,0-4.9-1.2-5.5-2.1S119.7,18.1,120,17.4z M148.2,51.4
			L106.5,29l9.4-5c0,1.1,0.4,2.2,1.1,3.2c0.3,0.3,0.6,0.4,1,0.4c0.1,0,0.3,0,0.4,0c0.4-0.1,0.8-0.6,0.8-1.1l0-2.5
			c0.8,0.6,1.8,1,2.9,1.3c1,0.3,2.1,0.4,3.2,0.4c2.2,0,4.5-0.5,6.3-1.7l0,2.4c0,0.6,0.3,1,0.8,1.1c0.6,0.1,1,0,1.3-0.4
			c0.7-1,1.1-2.1,1.1-3.2l0-5.1c0-1.5-0.7-3.1-1.9-4.2l4.8-2.4c0,1.1,0.4,2.1,1.1,3.1c0.3,0.3,0.6,0.4,1,0.4c0.1,0,0.3,0,0.4,0
			c0.4-0.1,0.8-0.6,0.8-1.1l0-2.5c0.8,0.6,1.8,1,2.9,1.3c1,0.3,2.1,0.4,3.2,0.4c2.2,0,4.5-0.5,6.3-1.7l0,2.4c0,0.6,0.3,1,0.8,1.1
			s1,0,1.3-0.4c0.7-1,1.1-2.1,1.1-3.2l0-1l6.9,4.1c-1.3,1.1-2.1,2.7-2.1,4.3l0,4.9c0,1.3,0.4,2.4,1.2,3.4c0.3,0.3,0.6,0.4,1,0.4
			c0.1,0,0.3,0,0.4,0c0.6-0.1,0.8-0.6,0.8-1.1l0-2.5c0.8,0.6,1.8,1,2.9,1.3c1,0.3,2.1,0.4,3.2,0.4c2.2,0,4.5-0.5,6.3-1.7l0,2.4
			c0,0.6,0.3,1,0.8,1.1s1,0,1.3-0.4c0.7-0.8,1-2,1.1-2.9l6.7,4L148.2,51.4z M189.3,60.6l-39.2,23l0.2-28.5l39.2-22.5L189.3,60.6z"/>
		<path id="XMLID_1622_" class="api-key-st" d="M90.3,83c0.1,0,0.3,0,0.4,0c0.6-0.1,0.8-0.6,0.8-1.1l0-2.5c0.8,0.6,1.8,1,2.9,1.3
			c1,0.3,2.1,0.4,3.2,0.4c2.2,0,4.5-0.5,6.3-1.7l0,2.4c0,0.6,0.3,1,0.8,1.1c0.6,0.1,1,0,1.3-0.4c0.7-1,1.1-2.1,1.1-3.2l0-5.1
			c0-3.9-4.2-6.9-9.5-6.9c-5.3,0-9.6,3-9.6,6.8l0,5.1c0,1.3,0.4,2.4,1.2,3.4C89.6,82.8,89.9,83,90.3,83z M103.9,74.2
			c0,0.7-0.3,1.3-0.9,1.8c-1.1,1.1-3.1,1.7-5.2,1.7c-3.7,0-4.9-1.2-5.5-2.1c-0.6-1-0.3-2.1,0-2.8c1-1.4,3.1-2.2,5.6-2.2
			c2,0,3.9,0.7,5,1.7c0.4,0.4,0.7,0.8,0.7,1.3c0,0,0,0,0,0.1c0,0.1,0,0.3,0,0.3C103.9,73.9,103.9,74.1,103.9,74.2
			C103.9,74.1,103.9,74.2,103.9,74.2z"/>
		<path id="XMLID_1640_" class="api-key-st" d="M141.3,67.8l-11.9-7.1l0-0.4c0-3.9-4.2-6.9-9.5-6.9c-1,0-2,0.1-2.8,0.3l-11.6-6.8
			c-0.5-3.4-4.5-6.1-9.4-6.1c-5.3,0-9.6,3-9.6,6.8l0,0.7L77,53l0,0.1c-1-0.3-2-0.4-3.1-0.4c-5.3,0-9.6,3-9.6,6.8l0,0.4l-14.9,7.8
			l-0.1,0c-0.7,0.4-1,1.1-1,1.8l-0.1,15.7l4.3,2.5l0.1-14.5l42.2,22.6l-0.2,28.7l-0.6-0.3v4.7l1.6,0.9c0.3,0.1,0.7,0.3,1,0.3
			c0.4,0,0.7-0.1,1.1-0.3l43.4-25.5c0.7-0.4,1-1.1,1-1.8l0.2-32.7C142.2,68.9,141.8,68.2,141.3,67.8z M114.2,58.9
			c0.4-0.6,0.8-0.8,1.6-1.1c1.1-0.7,2.7-1.1,4.2-1.1c2,0,3.9,0.7,5,1.7c0.4,0.4,0.7,0.8,0.7,1.3c0,0,0,0,0,0.1c0,0.1,0,0.3,0,0.3
			l0,0.1l0,0.1c0,0.7-0.3,1.3-0.9,1.8c-1.1,1.1-3.1,1.7-5.2,1.7c-3.7,0-4.9-1.2-5.5-2.1C113.6,60.8,113.9,59.6,114.2,58.9z
			 M90.5,46.2c1-1.4,3.1-2.2,5.6-2.2c2,0,3.9,0.7,5,1.7c0.4,0.4,0.7,0.8,0.7,1.3c0,0,0,0,0,0.1c0,0.1,0,0.3,0,0.3
			c0.1,0.1,0.1,0.1,0.1,0.3c0-0.1,0,0,0,0c0,0.7-0.3,1.3-0.9,1.8c-1.1,1.1-3.1,1.7-5.2,1.7c-3.7,0-4.9-1.2-5.5-2.1
			C90,48,90.2,46.9,90.5,46.2z M68.5,58.1c1-1.4,3.1-2.2,5.6-2.2c2,0,3.9,0.7,5,1.7c0.4,0.4,0.7,0.8,0.7,1.3c0,0,0,0,0,0.1
			c0,0.1,0,0.3,0,0.3c0.1,0.1,0.1,0.1,0.1,0.3c0-0.1,0,0,0,0c0,0.7-0.3,1.3-0.9,1.8c-1.1,1.1-3.1,1.7-5.2,1.7
			c-3.7,0-4.9-1.2-5.5-2.1C68,60,68.3,58.8,68.5,58.1z M96.7,92.1L55,69.7l9.4-5c0,1.1,0.4,2.2,1.1,3.2c0.3,0.3,0.6,0.4,1,0.4
			c0.1,0,0.3,0,0.4,0c0.4-0.1,0.8-0.6,0.8-1.1l0-2.5c0.8,0.6,1.8,1,2.9,1.3c1,0.3,2.1,0.4,3.2,0.4c2.2,0,4.5-0.5,6.3-1.7l0,2.4
			c0,0.6,0.3,1,0.8,1.1s1,0,1.3-0.4c0.7-1,1.1-2.1,1.1-3.2l0-5.1c0-1.5-0.7-3.1-1.9-4.2l4.8-2.4c0,1.1,0.4,2.1,1.1,3.1
			c0.3,0.3,0.6,0.4,1,0.4c0.1,0,0.3,0,0.4,0c0.4-0.1,0.8-0.6,0.8-1.1l0-2.5c0.8,0.6,1.8,1,2.9,1.3c1,0.3,2.1,0.4,3.2,0.4
			c2.2,0,4.5-0.5,6.3-1.7l0,2.4c0,0.6,0.3,1,0.8,1.1s1,0,1.3-0.4c0.7-1,1.1-2.1,1.1-3.2l0-1l6.9,4.1c-1.3,1.1-2.1,2.7-2.1,4.3l0,4.9
			c0,1.3,0.4,2.4,1.2,3.4c0.3,0.3,0.6,0.4,1,0.4c0.1,0,0.3,0,0.4,0c0.6-0.1,0.8-0.6,0.8-1.1l0-2.5c0.8,0.6,1.8,1,2.9,1.3
			c1,0.3,2.1,0.4,3.2,0.4c2.2,0,4.5-0.5,6.3-1.7l0,2.4c0,0.6,0.3,1,0.8,1.1s1,0,1.3-0.4c0.7-0.8,1-2,1.1-2.9l6.7,4L96.7,92.1z
			 M137.8,101.3l-39.2,23l0.2-28.5L138,73.3L137.8,101.3z"/>
		<g id="XMLID_1499_">
			<path id="XMLID_1515_" class="api-key-st" d="M42.2,126.4c0.1,0,0.3,0,0.4,0c0.6-0.1,0.8-0.6,0.8-1.1l0-2.5c0.8,0.6,1.8,1,2.9,1.3
				c1,0.3,2.1,0.4,3.2,0.4c2.2,0,4.5-0.5,6.3-1.7l0,2.4c0,0.6,0.3,1,0.8,1.1c0.6,0.1,1,0,1.3-0.4c0.7-1,1.1-2.1,1.1-3.2l0-5.1
				c0-3.9-4.2-6.9-9.5-6.9s-9.6,3-9.6,6.8l0,5.1c0,1.3,0.4,2.4,1.2,3.4C41.5,126.3,41.8,126.4,42.2,126.4z M55.8,117.7
				c0,0.7-0.3,1.3-0.9,1.8c-1.1,1.1-3.1,1.7-5.2,1.7c-3.7,0-4.9-1.2-5.5-2.1c-0.6-1-0.3-2.1,0-2.8c1-1.4,3.1-2.2,5.6-2.2
				c2,0,3.9,0.7,5,1.7c0.4,0.4,0.7,0.8,0.7,1.3c0,0,0,0,0,0.1s0,0.3,0,0.3C55.8,117.4,55.8,117.5,55.8,117.7
				C55.8,117.5,55.8,117.7,55.8,117.7z"/>
			<path id="XMLID_1501_" class="api-key-st" d="M93.2,111.3L93.2,111.3l-11.9-7.1l0-0.4c0-3.9-4.2-6.9-9.5-6.9c-1,0-2,0.1-2.8,0.3
				l-11.6-6.8c-0.5-3.4-4.5-6.1-9.4-6.1c-5.3,0-9.6,3-9.6,6.8l0,0.7l-9.4,4.7l0,0.1c-1-0.3-2-0.4-3.1-0.4c-5.3,0-9.6,3-9.6,6.8
				l0,0.4l-14.9,7.8l0,0l-0.1,0c-0.7,0.4-1,1.1-1,1.8L0,145.2c0,0.7,0.4,1.4,1.1,1.8l46.4,26.1c0.3,0.1,0.7,0.3,1,0.3
				c0.4,0,0.7-0.1,1.1-0.3L93,147.6c0.7-0.4,1-1.1,1-1.8l0.2-32.7C94.1,112.4,93.7,111.7,93.2,111.3z M67.7,101.3L67.7,101.3
				c1.1-0.7,2.7-1.1,4.2-1.1c2,0,3.9,0.7,5,1.7c0.4,0.4,0.7,0.8,0.7,1.3c0,0,0,0,0,0.1c0,0.1,0,0.3,0,0.3l0,0.1l0,0.1
				c0,0.7-0.3,1.3-0.9,1.8c-1.1,1.1-3.1,1.7-5.2,1.7c-3.7,0-4.9-1.2-5.5-2.1s-0.3-2.1,0-2.8C66.5,101.8,67,101.6,67.7,101.3
				L67.7,101.3z M53.9,91.1c0,0.7-0.3,1.3-0.9,1.8C52,94,50,94.6,47.9,94.6c-3.7,0-4.9-1.2-5.5-2.1c-0.6-1-0.3-2.1,0-2.8
				c1-1.4,3.1-2.2,5.6-2.2c2,0,3.9,0.7,5,1.7c0.4,0.4,0.7,0.8,0.7,1.3c0,0,0,0,0,0.1s0,0.3,0,0.3C53.9,91,53.9,91,53.9,91.1
				C53.9,91,53.9,91.1,53.9,91.1z M38.3,96.5c0,1.1,0.4,2.1,1.1,3.1c0.3,0.3,0.6,0.4,1,0.4c0.1,0,0.3,0,0.4,0
				c0.4-0.1,0.8-0.6,0.8-1.1l0-2.5c0.8,0.6,1.8,1,2.9,1.3c1,0.3,2.1,0.4,3.2,0.4c2.2,0,4.5-0.5,6.3-1.7l0,2.4c0,0.6,0.3,1,0.8,1.1
				s1,0,1.3-0.4c0.7-1,1.1-2.1,1.1-3.2l0-1l6.9,4.1c-1.3,1.1-2.1,2.7-2.1,4.3l0,4.9c0,1.3,0.4,2.4,1.2,3.4c0.3,0.3,0.6,0.4,1,0.4
				c0.1,0,0.3,0,0.4,0c0.6-0.1,0.8-0.6,0.8-1.1l0-2.5c0.8,0.6,1.8,1,2.9,1.3c1,0.3,2.1,0.4,3.2,0.4c2.2,0,4.5-0.5,6.3-1.7l0,2.4
				c0,0.6,0.3,1,0.8,1.1c0.6,0.1,1,0,1.3-0.4c0.7-0.8,1-2,1.1-2.9l6.7,4l-39.5,22.5L6.9,113.2l9.4-5c0,1.1,0.4,2.2,1.1,3.2
				c0.3,0.3,0.6,0.4,1,0.4c0.1,0,0.3,0,0.4,0c0.4-0.1,0.8-0.6,0.8-1.1l0-2.5c0.8,0.6,1.8,1,2.9,1.3c1,0.3,2.1,0.4,3.2,0.4
				c2.2,0,4.5-0.5,6.3-1.7l0,2.4c0,0.6,0.3,1,0.8,1.1c0.6,0.1,1,0,1.3-0.4c0.7-1,1.1-2.1,1.1-3.2l0-5.1c0-1.5-0.7-3.1-1.9-4.2
				L38.3,96.5z M32,103.1c0,0.7-0.3,1.3-0.9,1.8c-1.1,1.1-3.1,1.7-5.2,1.7c-3.7,0-4.9-1.2-5.5-2.1c-0.6-1-0.3-2.1,0-2.8
				c1-1.4,3.1-2.2,5.6-2.2c2,0,3.9,0.7,5,1.7c0.4,0.4,0.7,0.8,0.7,1.3c0,0,0,0,0,0.1c0,0.1,0,0.3,0,0.3C32,102.9,32,102.9,32,103.1
				C32,102.9,32,103.1,32,103.1z M4.5,116.7l42.2,22.6l-0.2,28.7L4.4,144.2L4.5,116.7z M89.8,144.8l-39.2,23l0.2-28.5l39.2-22.5
				L89.8,144.8z"/>
		</g>
	</g>
</g>
</svg>
