<?xml version="1.0" encoding="utf-8"?>
<!-- Generator: Adobe Illustrator 19.0.0, SVG Export Plug-In . SVG Version: 6.00 Build 0)  -->
<svg version="1.1" id="Layer_1" xmlns="http://www.w3.org/2000/svg" xmlns:xlink="http://www.w3.org/1999/xlink" x="0px" y="0px"
	 viewBox="0 0 150 150" style="enable-background:new 0 0 150 150;" xml:space="preserve">
<style type="text/css">
	.key-trashed{fill:#000000;}
</style>
<g id="XMLID_40_">
	<path class="key-trashed" id="XMLID_45_" d="M131.6,28.3c-0.5-0.7-1.3-1.3-2.3-1.5c-2-0.4-3.8,0.7-4.2,2.4l-24.9,112.9H48L24.9,27.9
		c-0.3-1.4-1.8-2.5-3.5-2.5c-0.2,0-0.4,0-0.7,0.1c-1,0.2-1.9,0.7-2.4,1.4c-0.3,0.4-0.6,1.1-0.4,2l23.6,117.8
		c0.3,1.4,1.7,2.5,3.5,2.5h58.1c1.7,0,3.2-1,3.5-2.5L132,30.3C132.2,29.5,131.9,28.8,131.6,28.3z"/>
	<g id="XMLID_896_">
		<path class="key-trashed" id="XMLID_909_" d="M70.4,31.3c0.1,0,0.2,0.1,0.3,0.1c0.4,0,0.7-0.2,0.9-0.6l0.6-1.9c0.5,0.6,1.1,1.1,1.9,1.6
			c0.7,0.4,1.5,0.8,2.3,1c1.7,0.5,3.4,0.6,5.1,0.2l-0.5,1.8c-0.1,0.4,0,0.8,0.4,1c0.4,0.2,0.7,0.2,1,0c0.7-0.6,1.3-1.3,1.6-2.1
			l1.1-3.7c0.9-2.9-1.6-6-5.5-7.2c-3.9-1.2-7.8,0.1-8.6,3L69.7,28c-0.3,0.9-0.2,1.9,0.2,2.8C69.9,31.1,70.1,31.2,70.4,31.3z
			 M82.4,27.8c-0.2,0.5-0.5,0.9-1,1.2c-1.1,0.6-2.7,0.6-4.2,0.1c-2.7-0.8-3.4-1.9-3.6-2.8c-0.2-0.9,0.3-1.6,0.6-2.1
			c1-0.8,2.8-1,4.7-0.4c1.5,0.4,2.8,1.4,3.4,2.4c0.2,0.4,0.3,0.8,0.2,1.1c0,0,0,0,0,0.1c0,0.1-0.1,0.2-0.1,0.2
			C82.4,27.6,82.4,27.7,82.4,27.8C82.4,27.7,82.4,27.8,82.4,27.8z"/>
		<path class="key-trashed" id="XMLID_897_" d="M111.5,31.3L111.5,31.3l-7.3-7.9l0.1-0.3c0.9-2.9-1.6-6-5.5-7.2c-0.7-0.2-1.5-0.3-2.1-0.4l-7.1-7.6
			c0.3-2.6-2-5.5-5.6-6.6c-3.9-1.2-7.8,0.1-8.6,3l-0.2,0.5l-8,1.4l0,0.1c-0.7-0.4-1.4-0.8-2.2-1c-3.9-1.2-7.8,0.1-8.6,3l-0.1,0.3
			L43.4,11l0,0l-0.1,0c-0.6,0.2-1,0.6-1.1,1.1L35,35.9c-0.2,0.5,0,1.1,0.4,1.6L64,67c0.2,0.2,0.5,0.4,0.7,0.4c0.3,0.1,0.6,0.1,0.9,0
			l37.7-9.3c0.6-0.2,1-0.6,1.1-1.1l7.3-24.2C111.9,32.3,111.8,31.7,111.5,31.3z M94.8,18.3L94.8,18.3c1-0.3,2.2-0.2,3.4,0.1
			c1.5,0.4,2.8,1.4,3.4,2.4c0.2,0.4,0.3,0.8,0.2,1.1c0,0,0,0,0,0.1c0,0.1-0.1,0.2-0.1,0.2l0,0.1l0,0.1c-0.2,0.5-0.5,0.9-1,1.2
			c-1.1,0.6-2.7,0.6-4.2,0.1c-2.7-0.8-3.4-1.9-3.6-2.8c-0.2-0.9,0.3-1.6,0.6-2.1C93.8,18.4,94.2,18.3,94.8,18.3L94.8,18.3z
			 M86.8,7.7c-0.2,0.5-0.5,0.9-1,1.2c-1.1,0.6-2.7,0.6-4.2,0.1C78.9,8.1,78.2,7,78,6.2s0.3-1.6,0.6-2.1c1-0.8,2.8-1,4.7-0.4
			c1.5,0.4,2.8,1.4,3.4,2.4c0.2,0.4,0.3,0.8,0.2,1.1c0,0,0,0,0,0.1s-0.1,0.2-0.1,0.2C86.9,7.6,86.9,7.6,86.8,7.7
			C86.9,7.6,86.8,7.7,86.8,7.7z M74.1,8.3c-0.3,0.8-0.2,1.7,0.1,2.5c0.1,0.3,0.3,0.4,0.6,0.5c0.1,0,0.2,0.1,0.3,0.1
			c0.3,0,0.7-0.2,0.9-0.6l0.6-1.9c0.5,0.6,1.1,1.1,1.9,1.6c0.7,0.4,1.5,0.8,2.3,1c1.7,0.5,3.4,0.6,5.1,0.2l-0.5,1.8
			c-0.1,0.4,0,0.8,0.4,1c0.4,0.2,0.7,0.2,1,0c0.7-0.6,1.3-1.3,1.6-2.1l0.2-0.7l4.2,4.6c-1.2,0.5-2.2,1.5-2.5,2.7L89,22.6
			c-0.3,0.9-0.2,1.9,0.2,2.8c0.1,0.3,0.3,0.4,0.6,0.5c0.1,0,0.2,0.1,0.3,0.1c0.4,0,0.7-0.2,0.9-0.6l0.6-1.9c0.5,0.6,1.1,1.1,1.9,1.6
			c0.7,0.4,1.5,0.8,2.3,1c1.7,0.5,3.4,0.6,5.1,0.2l-0.5,1.8c-0.1,0.4,0,0.8,0.4,1s0.7,0.2,1,0c0.7-0.5,1.2-1.2,1.5-1.9l4.1,4.4
			l-34.2,8l-26-25.8l8.1-1.6c-0.3,0.8-0.2,1.8,0.1,2.6c0.1,0.3,0.3,0.4,0.6,0.5c0.1,0,0.2,0.1,0.3,0.1c0.3,0,0.7-0.2,0.9-0.6
			l0.6-1.9c0.5,0.6,1.1,1.1,1.9,1.6c0.7,0.4,1.5,0.8,2.3,1c1.7,0.5,3.4,0.6,5.1,0.2l-0.5,1.8c-0.1,0.4,0,0.8,0.4,1
			c0.4,0.2,0.7,0.2,1,0c0.7-0.6,1.3-1.3,1.6-2.1l1.1-3.7c0.3-1.1,0.2-2.4-0.5-3.6L74.1,8.3z M67.9,11.7c-0.2,0.5-0.5,0.9-1,1.2
			c-1.1,0.6-2.7,0.6-4.2,0.1c-2.7-0.8-3.4-1.9-3.6-2.8c-0.2-0.9,0.3-1.6,0.6-2.1c1-0.8,2.8-1,4.7-0.4c1.5,0.4,2.8,1.4,3.4,2.4
			c0.2,0.4,0.3,0.8,0.2,1.1c0,0,0,0,0,0.1c0,0.1-0.1,0.2-0.1,0.2C68,11.6,68,11.6,67.9,11.7C68,11.6,67.9,11.7,67.9,11.7z
			 M44.6,15.8l26.3,26L64.5,63l-26-26.8L44.6,15.8z M101.6,55.4l-34.1,8.4l6.4-21.1l34-8.1L101.6,55.4z"/>
	</g>
	<g id="XMLID_157_">
		<g id="XMLID_453_">
			<path class="key-trashed" id="XMLID_454_" d="M87.6,69.8l10.5-3c1.1-0.3,2,0.2,2.4,1.3l3,10.5c0.2,0.6,0.1,1-0.2,1.4l-15.8,28.3
				c1.5,2.5,2.4,5.5,2.6,8.6c0.5,8-4.1,15.5-11.4,18.5c-5.9,2.5-12.5,2-17.8-1.3c-4.6-2.9-7.7-7.4-8.6-12.8
				c-1.7-8.7,3.1-17.6,11.5-21c2.3-0.9,4.7-1.5,7.1-1.4c1.4,0,2.2-1.4,1.8-2.7c-0.3-1.1,0.2-2,1.3-2.4l4.4-1.3l-1.3-4.4
				c-0.3-1.1,0.2-2,1.3-2.4l4.4-1.3l-1.3-4.4c-0.3-1.1,0.2-2,1.3-2.4l4.6-1.3l-1.3-4.4C86,71,86.5,70.1,87.6,69.8z M97.3,71
				l-6.8,1.9l1.3,4.4c0.3,1.1-0.2,2-1.3,2.4L86.1,81l1.3,4.4c0.3,1.1-0.2,2-1.3,2.4L81.6,89l1.3,4.4c0.3,1.1-0.2,2-1.3,2.4l-4.8,1.4
				c-0.1,2.4-1.8,4.7-4.2,5.4c-0.6,0.2-0.9,0.3-1.5,0.2c-2,0-3.9,0.3-5.8,1.3c-6.6,2.7-10.5,9.8-9.2,16.7c0.8,4.3,3.3,8,6.9,10.3
				c4.3,2.6,9.6,3,14.2,1.1c5.9-2.5,9.5-8.7,9.1-14.9c-0.2-2.7-1.1-5.4-2.6-7.6c-0.4-0.7-0.4-1.5-0.2-1.9l16-28.8L97.3,71z"/>
		</g>
		<g id="XMLID_161_">
			<path class="key-trashed" id="XMLID_223_" d="M72.6,123.7c3.1-0.9,4.8-4,3.9-7.1c-0.9-3.1-4-4.8-7.1-3.9s-4.8,4-3.9,7.1
				C66.4,122.9,69.5,124.6,72.6,123.7z"/>
		</g>
	</g>
</g>
</svg>
