<?xml version="1.0" encoding="utf-8"?>
<!-- Generator: Adobe Illustrator 26.5.0, SVG Export Plug-In . SVG Version: 6.00 Build 0)  -->
<svg version="1.2" baseProfile="tiny" id="Layer_1" xmlns="http://www.w3.org/2000/svg" xmlns:xlink="http://www.w3.org/1999/xlink"
	 x="0px" y="0px" viewBox="0 0 39.3 39.4" overflow="visible" xml:space="preserve">
<g class="apps" id="Group_5256" transform="translate(8676.22 -1331)">
	<g id="Group_5253" transform="translate(-8676.22 1331)">
		<path id="Path_4762" d="M16,17.2H1.2C0.6,17.2,0,16.7,0,16V1.2C0,0.6,0.6,0,1.2,0H16c0.7,0,1.2,0.6,1.2,1.2l0,0V16
			C17.2,16.7,16.6,17.2,16,17.2z"/>
		<path id="Path_4762-2" d="M16,39.4H1.2c-0.7,0-1.2-0.6-1.2-1.2V23.4c0-0.7,0.5-1.2,1.2-1.2H16
			c0.7,0,1.2,0.6,1.2,1.2l0,0v14.8C17.2,38.8,16.6,39.4,16,39.4z"/>
		<path id="Path_4762-3" d="M38.1,17.2H23.4c-0.7,0-1.2-0.6-1.2-1.2V1.2c0-0.7,0.5-1.2,1.2-1.2h14.7
			c0.7,0,1.2,0.6,1.2,1.2l0,0V16C39.3,16.7,38.8,17.2,38.1,17.2z"/>
		<path id="Path_4762-4" d="M38.1,39.4H23.4c-0.7,0-1.2-0.6-1.2-1.2V23.4c0-0.7,0.5-1.2,1.2-1.2h14.7
			c0.7,0,1.2,0.6,1.2,1.2l0,0v14.8C39.3,38.8,38.8,39.4,38.1,39.4z"/>
	</g>
</g>
</svg>
