<svg xmlns="http://www.w3.org/2000/svg" width="20" height="20" viewBox="0 0 18.197 18.198">
  <g id="Group_1058" data-name="Group 1058" transform="translate(-3119.635 -8235.286)">
    <path class="fill_main-color" id="Path_553" data-name="Path 553" d="M21.642,63.338H23.7A2.642,2.642,0,0,0,26.338,60.7V58.642A2.642,2.642,0,0,0,23.7,56H21.642A2.642,2.642,0,0,0,19,58.642V60.7A2.642,2.642,0,0,0,21.642,63.338Zm-.881-4.7a.881.881,0,0,1,.881-.881H23.7a.881.881,0,0,1,.881.881V60.7a.881.881,0,0,1-.881.881H21.642a.881.881,0,0,1-.881-.881Z" transform="translate(3100.635 8190.146)" fill="#fff"/>
    <path class="fill_main-color" id="Path_554" data-name="Path 554" d="M21.642,29.338H23.7A2.642,2.642,0,0,0,26.338,26.7V24.642A2.642,2.642,0,0,0,23.7,22H21.642A2.642,2.642,0,0,0,19,24.642V26.7A2.642,2.642,0,0,0,21.642,29.338Zm-.881-4.7a.881.881,0,0,1,.881-.881H23.7a.881.881,0,0,1,.881.881V26.7a.881.881,0,0,1-.881.881H21.642a.881.881,0,0,1-.881-.881Z" transform="translate(3100.635 8214.169)" fill="#fff"/>
    <path class="fill_main-color" id="Path_555" data-name="Path 555" d="M57.7,56H55.642A2.642,2.642,0,0,0,53,58.642V60.7a2.642,2.642,0,0,0,2.642,2.642H57.7A2.642,2.642,0,0,0,60.338,60.7V58.642A2.642,2.642,0,0,0,57.7,56Zm.881,4.7a.881.881,0,0,1-.881.881H55.642a.881.881,0,0,1-.881-.881V58.642a.881.881,0,0,1,.881-.881H57.7a.881.881,0,0,1,.881.881Z" transform="translate(3076.612 8190.146)" fill="#fff"/>
    <path class="fill_main-color" id="Path_556" data-name="Path 556" d="M58.055,19.735a2.536,2.536,0,0,0-3.584,0l-1.723,1.723a2.539,2.539,0,0,0,0,3.584l1.723,1.723a2.539,2.539,0,0,0,3.584,0l1.723-1.723a2.539,2.539,0,0,0,0-3.584Zm.478,4.062h0L56.81,25.52a.784.784,0,0,1-1.095,0L53.993,23.8a.784.784,0,0,1,0-1.095l1.723-1.723a.8.8,0,0,1,1.095,0L58.533,22.7A.784.784,0,0,1,58.533,23.8Z" transform="translate(3077.313 8216.292)" fill="#fff"/>
  </g>
</svg>
