<?xml version="1.0" encoding="utf-8"?>
<!-- Generator: Adobe Illustrator 27.9.3, SVG Export Plug-In . SVG Version: 9.03 Build 53313)  -->
<svg version="1.2" baseProfile="tiny" id="Layer_1" xmlns="http://www.w3.org/2000/svg" xmlns:xlink="http://www.w3.org/1999/xlink"
	 x="0px" y="0px" viewBox="0 0 24 24" overflow="visible" xml:space="preserve">
<g>
	<path class="assets-icon-tab fill_secondary-color" fill="#FFFFFF" d="M13.6,3.5c-0.3,0-0.1,0-0.4,0c4.3,0.4,7.3,4,7.3,8.4c0,4.4-3,8-7.3,8.4c0.3,0,0.1,0,0.4,0
		c4.7,0,8.5-3.8,8.5-8.5C22.1,7.3,18.3,3.5,13.6,3.5z"/>
	<g>
		<path class="assets-icon-tab fill_secondary-color" fill="#FFFFFF" d="M8.7,9.6c0,0.3,0.1,0.5,0.3,0.7c0.2,0.2,0.4,0.4,0.8,0.5V8.6C9.4,8.7,9.2,8.8,9,9C8.8,9.1,8.7,9.3,8.7,9.6
			z"/>
		<path class="assets-icon-tab fill_secondary-color" fill="#FFFFFF" d="M10.9,12.8v2.3c0.8-0.1,1.2-0.5,1.2-1.1c0-0.3-0.1-0.5-0.3-0.7C11.6,13.1,11.4,13,10.9,12.8z"/>
		<path class="assets-icon-tab fill_secondary-color" fill="#FFFFFF" d="M10.4,3.5c-4.7,0-8.5,3.8-8.5,8.5s3.8,8.5,8.5,8.5c4.7,0,8.5-3.8,8.5-8.5S15.1,3.5,10.4,3.5z M13,15.6
			c-0.5,0.4-1.1,0.7-2.1,0.8V18H9.8v-1.5c-1.2,0-2.1-0.2-2.8-0.5v-1.5c0.4,0.2,0.9,0.4,1.4,0.5C9,15,9.4,15.1,9.8,15.1v-2.7
			l-0.5-0.2c-0.8-0.3-1.3-0.7-1.7-1.1c-0.4-0.4-0.5-0.9-0.5-1.5C7.1,9,7.3,8.4,7.8,8s1.1-0.7,2-0.8V6h1.1v1.2c1,0,1.8,0.2,2.7,0.6
			l-0.5,1.3c-0.7-0.3-1.4-0.5-2.1-0.5v2.6l0.5,0.2c0.9,0.3,1.5,0.7,1.9,1.1s0.5,0.9,0.5,1.4C13.8,14.6,13.5,15.1,13,15.6z"/>
	</g>
</g>
</svg>
