<svg xmlns="http://www.w3.org/2000/svg" width="22.84" height="29.392" viewBox="0 0 22.84 29.392"><path class="assets-icon-tab fill_secondary-color" d="M6.237,40.06a.566.566,0,0,0,.263.04,1.047,1.047,0,0,0,.268-2.051C4.542,37.429,4.1,36.715,4.1,36.581c0-.535,2.9-2.23,9.321-2.23a1.026,1.026,0,0,0,0-2.051C7.931,32.3,2,33.638,2,36.626,2.045,37.652,2.758,39.079,6.237,40.06Z" transform="translate(-2 -32.3)" fill="#fff"/><path class="assets-icon-tab fill_secondary-color" d="M6.292,90.6a.566.566,0,0,0,.268.045A1.047,1.047,0,0,0,6.827,88.6c-2.23-.624-2.676-1.338-2.676-1.472A1.009,1.009,0,0,0,3.126,86.1,1.009,1.009,0,0,0,2.1,87.126C2.1,88.2,2.814,89.623,6.292,90.6Z" transform="translate(-2.056 -62.107)" fill="#fff"/><path class="assets-icon-tab fill_secondary-color"  d="M6.292,75.1a.566.566,0,0,0,.268.045A1.047,1.047,0,0,0,6.827,73.1c-2.23-.624-2.676-1.338-2.676-1.472A1.009,1.009,0,0,0,3.126,70.6,1.009,1.009,0,0,0,2.1,71.626C2.1,72.7,2.814,74.123,6.292,75.1Z" transform="translate(-2.056 -53.52)" fill="#fff"/><path class="assets-icon-tab fill_secondary-color" d="M6.292,59.6a.566.566,0,0,0,.268.045A1.047,1.047,0,0,0,6.827,57.6c-2.23-.624-2.676-1.338-2.676-1.472A1.009,1.009,0,0,0,3.126,55.1,1.009,1.009,0,0,0,2.1,56.126C2.1,57.2,2.814,58.623,6.292,59.6Z" transform="translate(-2.056 -44.932)" fill="#fff"/><path class="assets-icon-tab fill_secondary-color" d="M23.275,40.372c-.8,0-1.606-.045-2.364-.089a1.076,1.076,0,0,0-1.115.981,1.048,1.048,0,0,0,.981,1.115,22.957,22.957,0,0,0,2.5.089c3.479,0,7.136-.535,9.321-1.695v4.281c0,.491-2.9,2.23-9.321,2.23-.8,0-1.606-.045-2.364-.089a1.076,1.076,0,0,0-1.115.981,1.048,1.048,0,0,0,.981,1.115,22.957,22.957,0,0,0,2.5.089c3.479,0,7.136-.535,9.321-1.695v4.281c0,.535-2.9,2.23-9.321,2.23-.8,0-1.606-.045-2.364-.089a1.076,1.076,0,0,0-1.115.981,1.048,1.048,0,0,0,.981,1.115,22.959,22.959,0,0,0,2.5.089c3.479,0,7.136-.535,9.321-1.7V58.88c0,.535-2.9,2.23-9.321,2.23-.8,0-1.606-.045-2.364-.089A1.076,1.076,0,0,0,19.8,62a1.048,1.048,0,0,0,.981,1.115,22.959,22.959,0,0,0,2.5.089c5.485,0,11.417-1.338,11.417-4.326V38.231c0-.892-.535-2.141-3.211-3.122a1.016,1.016,0,0,0-.669,1.918c1.516.535,1.828,1.115,1.828,1.16C32.64,38.633,29.741,40.372,23.275,40.372Z" transform="translate(-11.857 -33.816)" fill="#fff"/></svg>