<svg xmlns="http://www.w3.org/2000/svg" width="66" height="66" viewBox="0 0 66 66"><g transform="translate(3663 -7795)"><path d="M35.4,5.367A30.036,30.036,0,1,1,5.367,35.4,30.038,30.038,0,0,1,35.4,5.367ZM57.632,52.593C53.7,53.214,48.19,51.7,43.9,50.13c-.783,4.5-2.227,10.026-4.732,13.123a28.07,28.07,0,0,0,18.459-10.66Zm-15.57-3.17c-2.137-.854-4.374-1.861-6.659-3.015-2.287,1.151-4.522,2.161-6.661,3.013.733,4.364,3.044,14.08,6.661,14.08s5.928-9.714,6.659-14.077Zm-8.78-4.117-2.726-1.517v0q-1.36-.785-2.663-1.593c.131,1.83.318,3.591.549,5.263,1.567-.636,3.186-1.356,4.84-2.156Zm-7.413-4.4c-2.14-1.4-4.13-2.836-5.938-4.261-3.415,2.818-10.673,9.679-8.864,12.813,1.8,3.112,11.383.271,15.525-1.275-.331-2.279-.578-4.721-.723-7.276ZM18.4,35.4c-3.509-2.928-7.576-6.945-9-10.668a28.19,28.19,0,0,0,0,21.332c1.425-3.72,5.494-7.736,9-10.665Zm-5.226-17.19c3.927-.62,9.442.891,13.727,2.463.783-4.5,2.227-10.026,4.732-13.123a28.07,28.07,0,0,0-18.459,10.66Zm15.57,3.17c2.137.854,4.374,1.861,6.659,3.015,2.287-1.151,4.522-2.161,6.659-3.013C41.331,17.021,39.02,7.3,35.4,7.3s-5.928,9.716-6.659,14.08Zm8.78,4.117,2.726,1.517v0q1.36.785,2.663,1.593c-.131-1.83-.318-3.591-.549-5.263-1.567.636-3.186,1.356-4.84,2.156Zm7.413,4.4c2.14,1.4,4.13,2.836,5.938,4.261,3.415-2.818,10.673-9.679,8.864-12.813-1.8-3.11-11.383-.271-15.525,1.275.331,2.279.578,4.721.723,7.276Zm7.469,5.5c3.509,2.928,7.576,6.945,9,10.668a28.19,28.19,0,0,0,0-21.332c-1.425,3.72-5.494,7.734-9,10.665ZM50.34,50.078c10.57,2.5,12.691-1.17,5.242-9.074a51.656,51.656,0,0,0-4.708-4.359c-1.809,1.425-3.8,2.857-5.938,4.261-.147,2.558-.392,5-.723,7.276a52.192,52.192,0,0,0,6.128,1.9ZM49.328,35.4C48,34.368,46.562,33.324,45.046,32.3v6.217C46.562,37.483,48,36.439,49.328,35.4Zm-6.275-4.419-3.788-2.305c-1.3-.749-2.587-1.454-3.862-2.114-1.275.66-2.566,1.364-3.862,2.114l-3.788,2.305v8.841l3.788,2.305c1.3.749,2.587,1.454,3.862,2.114,1.275-.66,2.566-1.364,3.862-2.114l3.788-2.305ZM33.282,25.5c-1.651-.8-3.27-1.519-4.837-2.156-.231,1.672-.418,3.433-.549,5.263q1.3-.808,2.663-1.593v0Zm-6.69-2.876c-4.143-1.546-13.725-4.385-15.525-1.27s5.452,9.992,8.864,12.807c1.809-1.425,3.8-2.857,5.938-4.261.147-2.555.392-5,.723-7.276ZM21.478,35.4c1.333,1.036,2.765,2.079,4.282,3.107V32.294c-1.517,1.03-2.949,2.074-4.282,3.11Zm16.046,9.9c1.651.8,3.27,1.519,4.837,2.156.231-1.672.418-3.433.549-5.263q-1.3.808-2.663,1.593v0ZM26.9,50.13c-4.285,1.572-9.8,3.086-13.727,2.463a28.071,28.071,0,0,0,18.459,10.66c-2.505-3.1-3.948-8.622-4.732-13.123Zm17-29.453c4.285-1.572,9.8-3.086,13.727-2.463A28.078,28.078,0,0,0,39.173,7.554c2.505,3.1,3.948,8.622,4.732,13.123Z" transform="translate(-3665.867 7792.133)" fill-rule="evenodd"/><path d="M0,0H66V66H0Z" transform="translate(-3663 7795)" fill="none"/></g></svg>