<svg xmlns="http://www.w3.org/2000/svg" width="20" height="20" viewBox="0 0 16.436 18.213">
  <g id="Group_1088" data-name="Group 1088" transform="translate(-3115.781 -8236)">
    <path class="fill_main-color" id="Path_567" data-name="Path 567" d="M22.881,22.522A.881.881,0,0,0,22,23.4v7.631a.881.881,0,1,0,1.761,0v-.643l2.935.7v2.771A3.308,3.308,0,0,0,29.614,37.2a3.229,3.229,0,0,0,3.54-3.229V32.645l3.522.845v1.065a.881.881,0,0,0,1.761,0V19.881a.881.881,0,1,0-1.761,0v1.065l-12.914,3.1V23.4A.881.881,0,0,0,22.881,22.522Zm8.512,11.447a1.468,1.468,0,0,1-2.935,0V31.518l2.935.69ZM36.675,22.76v8.917l-12.914-3.1V25.859Z" transform="translate(3093.781 8217)" fill="#fff"/>
  </g>
</svg>
