<svg xmlns="http://www.w3.org/2000/svg" width="17.735" height="16.867" viewBox="0 0 17.735 16.867"><g transform="translate(-12359 -9002)"><path  class="fill_main-color" d="M21.2,34.373h2.646l2.651,2.651a2.853,2.853,0,0,0,4.878-2.035V23.89a2.868,2.868,0,0,0-4.893-2.052l-2.637,2.651H21.2a3.2,3.2,0,0,0-3.2,3.2v3.489A3.2,3.2,0,0,0,21.2,34.373Zm-1.454-6.686A1.454,1.454,0,0,1,21.2,26.233h2.526a2.035,2.035,0,0,0,1.439-.581l2.567-2.567a1.113,1.113,0,0,1,1.9.805V34.972a1.114,1.114,0,0,1-1.9.82L25.163,33.21a2.035,2.035,0,0,0-1.439-.581H21.2a1.454,1.454,0,0,1-1.454-1.454Z" transform="translate(12341 8981)" fill="#fff"/><path class="fill_main-color" d="M74.874,41a.872.872,0,0,0-.616,1.488,2.117,2.117,0,0,1,0,2.256.872.872,0,0,0,0,1.233.892.892,0,0,0,1.233,0,3.746,3.746,0,0,0,0-4.721A.872.872,0,0,0,74.874,41Z" transform="translate(12300.405 8966.814)" fill="#fff"/></g></svg>