<svg xmlns="http://www.w3.org/2000/svg" width="39.502" height="40.955" viewBox="0 0 39.502 40.955"><g transform="translate(-15.624 -8.023)"><path class="fill_main-color" d="M49.12,14.017a20.5,20.5,0,0,0-28.972,0l-1.371,1.371V10.281a1.576,1.576,0,1,0-3.153,0v9.458A1.581,1.581,0,0,0,17.2,21.315h9.458a1.576,1.576,0,1,0,0-3.153h-6.21l1.923-1.923a17.339,17.339,0,1,1,0,24.526,1.572,1.572,0,0,0-2.223,2.223A20.486,20.486,0,1,0,49.121,14.016Z" fill="#fff"/><path class="fill_main-color" d="M45.326,50.124a1.579,1.579,0,0,0,.8-.221l9.82-5.9a1.6,1.6,0,0,0,.772-1.356,1.561,1.561,0,0,0-.772-1.356l-9.82-5.9a1.558,1.558,0,0,0-1.592-.016,1.582,1.582,0,0,0-.788,1.371V48.547a1.564,1.564,0,0,0,.8,1.371,1.493,1.493,0,0,0,.772.2ZM46.9,39.547l5.186,3.105L46.9,45.757Z" transform="translate(-13.939 -13.456)" fill="#fff"/></g></svg>