<?xml version="1.0" encoding="utf-8"?>
<!-- Generator: Adobe Illustrator 26.3.1, SVG Export Plug-In . SVG Version: 6.00 Build 0)  -->
<svg version="1.1" id="Layer_1" xmlns="http://www.w3.org/2000/svg" xmlns:xlink="http://www.w3.org/1999/xlink" x="0px" y="0px"
	 viewBox="0 0 34.2 36.8" style="enable-background:new 0 0 34.2 36.8;" xml:space="preserve">
<style type="text/css">
	.st0{fill:#FFFFFF;}
</style>
<path id="Path_1612" class="st0" d="M5.4,27.4H3.6V14h1.8V27.4z M8.3,14v13.3h1.8V14L8.3,14z M18.5,14v13.3h1.8V14L18.5,14z
	 M15.7,14h-1.8v13.3h1.8V14z M28.8,14v13.3h1.8V14L28.8,14z M25.9,14h-1.8v13.3h1.8V14z M34.2,6.1v5.7c0,0.5-0.4,0.9-0.9,0.9H1
	c-0.5,0-0.9-0.4-0.9-0.9V6.1c0-0.4,0.2-0.8,0.6-0.9l16.2-5.2c0.2-0.1,0.4-0.1,0.5,0l16.2,5.2C34,5.4,34.2,5.8,34.2,6.1L34.2,6.1z
	 M32.4,6.8L17.1,1.9L1.8,6.8v4.1h30.6L32.4,6.8z M34.2,29.5v6.4c0,0.5-0.4,0.9-0.9,0.9H0.9c-0.5,0-0.9-0.4-0.9-0.9v-6.4
	c0-0.5,0.4-0.9,0.9-0.9h32.3c0.5-0.1,0.9,0.3,1,0.7C34.2,29.4,34.2,29.5,34.2,29.5z M32.4,30.5H1.8V35h30.5L32.4,30.5L32.4,30.5z"/>
</svg>
