<?xml version="1.0" encoding="utf-8"?>
<!-- Generator: Adobe Illustrator 19.0.0, SVG Export Plug-In . SVG Version: 6.00 Build 0)  -->
<svg version="1.1" id="Layer_1" xmlns="http://www.w3.org/2000/svg" xmlns:xlink="http://www.w3.org/1999/xlink" x="0px" y="0px"
	 viewBox="-449 252.3 59.6 57.7" style="enable-background:new -449 252.3 59.6 57.7;" xml:space="preserve">
<style type="text/css">
	.st0{fill:#C6C5C4;}
</style>
<g id="XMLID_2013_">
	<rect id="XMLID_2026_" x="-423.3" y="275.8" class="st0" width="2" height="15.8"/>
	<rect id="XMLID_2025_" x="-430" y="275.8" class="st0" width="2" height="15.8"/>
	<path id="XMLID_2021_" class="st0" d="M-439.9,266.2v6.9c0,0.5,0.5,1,1,1h39c0.5,0,1-0.5,1-1v-6.9c0-0.4-0.3-0.8-0.7-0.9l-19.5-6.3
		c-0.1,0-0.2,0-0.3,0s-0.2,0-0.3,0l-19.5,6.3C-439.7,265.4-439.9,265.7-439.9,266.2z M-438,266.9L-438,266.9l18.5-6l18.5,6v5.2H-438
		V266.9z"/>
	<rect id="XMLID_2020_" x="-417.6" y="275.8" class="st0" width="2" height="15.8"/>
	<rect id="XMLID_2019_" x="-435.6" y="275.8" class="st0" width="2" height="15.9"/>
	<path id="XMLID_2016_" class="st0" d="M-439,303h39.1c0.5,0,1-0.5,1-1v-7.7c0-0.5-0.5-1-1.1-1h-39c-0.5,0-1,0.5-1,1v7.7
		C-440,302.6-439.5,303-439,303z M-438,295.3h37v0.1h0.1v5.6h-37V295.3z"/>
	<rect id="XMLID_2015_" x="-410.9" y="275.8" class="st0" width="2" height="15.8"/>
	<rect id="XMLID_2014_" x="-405.3" y="275.8" class="st0" width="2" height="15.8"/>
</g>
</svg>
