<svg xmlns="http://www.w3.org/2000/svg" width="20" height="20" viewBox="0 0 18.197 18.784">
  <path class="fill_main-color" id="Path_521" data-name="Path 521" d="M36.317,27.1a.881.881,0,1,0,0-1.761H32.5v-.294a4.4,4.4,0,0,0-3.3-4.259l-.22-.056V18.881a.881.881,0,0,0-1.761,0V20.73l-.22.056a4.4,4.4,0,0,0-3.3,4.259v.294H19.881a.881.881,0,1,0,0,1.761h.294v7.925h-.294a.881.881,0,0,0,0,1.761H36.317a.881.881,0,0,0,0-1.761h-.294V27.1ZM24.87,35.023H21.935V27.1H24.87Zm4.7,0H26.631V27.1h2.935Zm1.174-9.686H25.457v-.294a2.642,2.642,0,1,1,5.283,0Zm3.522,9.686H31.327V27.1h2.935Z" transform="translate(-19 -18)" fill="#fff"/>
</svg>
