<?xml version="1.0" encoding="utf-8"?>
<!-- Generator: Adobe Illustrator 23.0.0, SVG Export Plug-In . SVG Version: 6.00 Build 0)  -->
<svg version="1.1" id="Layer_1" xmlns="http://www.w3.org/2000/svg" xmlns:xlink="http://www.w3.org/1999/xlink" x="0px" y="0px"
	 viewBox="0 0 129.7 86.85" style="enable-background:new 0 0 129.7 86.85;" xml:space="preserve">
	<style type="text/css">
		.bch-icon { fill: #8dc541 }
	</style>
<g>
	<g transform="matrix(0.26458333,0,0,0.26458333,-33.403463,56.772625)">
		<path d="M372.56-185.94c-75.82,0-137.42,61.6-137.42,137.42S296.74,88.9,372.56,88.9s137.42-61.6,137.42-137.42
			S448.37-185.94,372.56-185.94z M372.56-172.2c68.39,0,123.68,55.29,123.68,123.68S440.95,75.16,372.56,75.16
			S248.88,19.87,248.88-48.52S304.18-172.2,372.56-172.2z" class="bch-icon"/>
	</g>
	<path d="M61.45,62.55l3.68-1.12l1.39,4.58c0.33,1.09,1.49,1.71,2.58,1.37c1.09-0.33,1.71-1.49,1.37-2.58l-1.39-4.58l1.31-0.39
		l1.39,4.58c0.33,1.09,1.49,1.71,2.58,1.37c1.09-0.33,1.71-1.49,1.37-2.58l-1.39-4.58l0.52-0.16c4.62-1.4,7.23-6.29,5.83-10.9
		l-0.23-0.77c-0.99-3.26-3.72-5.52-6.87-6.07c1.17-2.02,1.53-4.49,0.8-6.89c-1.25-4.12-5.27-6.64-9.41-6.14l-1.43-4.71
		c-0.33-1.09-1.49-1.71-2.58-1.37c-1.09,0.33-1.71,1.49-1.37,2.58l1.39,4.58l-1.31,0.39l-1.39-4.58c-0.33-1.09-1.49-1.71-2.58-1.37
		c-1.09,0.33-1.71,1.49-1.37,2.58l1.39,4.58l-3.68,1.12c-1.09,0.33-1.71,1.49-1.37,2.58l3.87,12.78c0.04,0.13,0.09,0.25,0.15,0.38
		c0.01,0.13,0.04,0.26,0.08,0.39l4.11,13.55C59.21,62.26,60.36,62.88,61.45,62.55z M55.22,34.85l9.46-2.87
		c2.43-0.74,5.02,0.64,5.76,3.08s-0.64,5.02-3.08,5.76l-9.46,2.87L55.22,34.85z M59.31,48.4l11.42-3.46
		c2.43-0.73,5.02,0.64,5.76,3.08l0.23,0.77c0.74,2.43-0.64,5.02-3.08,5.76l-11.42,3.46L59.31,48.4z" class="bch-icon"/>
</g>
<path d="M55.45,6.61V2.46H5.89H2.02v4.15v74.65v4.15h53.43v-4.15c-19.25,0-34.81-16.69-34.81-37.33
	C20.64,23.29,36.2,6.61,55.45,6.61z M16.77,43.93c0,16.4,8.91,30.6,21.82,37.33H5.89V6.61h32.7C25.68,13.33,16.77,27.53,16.77,43.93
	z" class="bch-icon"/>
<path d="M75.27,81.26v4.15h49.56h3.87v-4.15V6.61V2.46H75.27v4.15c19.25,0,34.81,16.69,34.81,37.33
	C110.08,64.58,94.52,81.26,75.27,81.26z M113.95,43.93c0-16.4-8.91-30.6-21.82-37.33h32.7v74.65h-32.7
	C105.04,74.54,113.95,60.34,113.95,43.93z" class="bch-icon"/>
</svg>
