<?xml version="1.0" encoding="UTF-8" standalone="no"?>
<!DOCTYPE svg PUBLIC "-//W3C//DTD SVG 1.1//EN"
"http://www.w3.org/Graphics/SVG/1.1/DTD/svg11.dtd">


<!-- Page 8 -->
<svg x="0" y="0" width="280" height="280" viewBox="0 0 280 280" version="1.1" xmlns="http://www.w3.org/2000/svg" xmlns:xlink="http://www.w3.org/1999/xlink"
style="display: block;margin-left: auto;margin-right: auto;">
<defs>

<style type="text/css"><![CDATA[

.wallet-coins-1{
fill: none;
stroke: #1F1F1E;
stroke-width: 8.795417;
stroke-linecap: round;
stroke-linejoin: round;
stroke-miterlimit: 4;
}
.wallet-coins-2{
fill: #FBB040;
}


]]></style>

</defs>
<path d="M48.1,151.8c12.2,0,22,5.9,22,13.2c0,7.3,-9.8,13.2,-22,13.2C36,178.2,26.2,172.3,26.2,165c0,-7.3,9.8,-13.2,21.9,-13.2Z" class="wallet-coins-1" />
<path d="M109.7,125.4c12.2,0,22,5.9,22,13.2c0,7.3,-9.8,13.2,-22,13.2c-12.1,0,-22,-5.9,-22,-13.2c0,-7.3,9.9,-13.2,22,-13.2Z" class="wallet-coins-1" />
<path d="M171.3,99c12.1,0,22,5.9,22,13.2c0,7.3,-9.9,13.2,-22,13.2c-12.2,0,-22,-5.9,-22,-13.2c0,-7.3,9.8,-13.2,22,-13.2Z" class="wallet-coins-1" />
<path d="M70.1,165l0,26.4c0,7.3,-9.8,13.2,-22,13.2C36,204.6,26.2,198.7,26.2,191.4l0,-26.4c0,7.3,9.8,13.2,21.9,13.2c12.2,0,22,-5.9,22,-13.2Z" class="wallet-coins-2" />
<path d="M70.1,165l0,26.4c0,7.3,-9.8,13.2,-22,13.2C36,204.6,26.2,198.7,26.2,191.4l0,-26.4c0,7.3,9.8,13.2,21.9,13.2c12.2,0,22,-5.9,22,-13.2Z" class="wallet-coins-1" />
<path d="M131.7,165l0,26.4c0,7.3,-9.9,13.2,-22,13.2c-12.1,0,-22,-5.9,-22,-13.2l0,-26.4c0,7.3,9.9,13.2,22,13.2c12.1,0,22,-5.9,22,-13.2Z" class="wallet-coins-2" />
<path d="M131.7,165l0,26.4c0,7.3,-9.9,13.2,-22,13.2c-12.1,0,-22,-5.9,-22,-13.2l0,-26.4c0,7.3,9.9,13.2,22,13.2c12.1,0,22,-5.9,22,-13.2Z" class="wallet-coins-1" />
<path d="M131.7,138.6l0,26.4c0,7.3,-9.9,13.2,-22,13.2c-12.1,0,-22,-5.9,-22,-13.2l0,-26.4c0,7.3,9.9,13.2,22,13.2c12.1,0,22,-5.9,22,-13.2Z" class="wallet-coins-2" />
<path d="M131.7,138.6l0,26.4c0,7.3,-9.9,13.2,-22,13.2c-12.1,0,-22,-5.9,-22,-13.2l0,-26.4c0,7.3,9.9,13.2,22,13.2c12.1,0,22,-5.9,22,-13.2Z" class="wallet-coins-1" />
<path d="M193.3,165l0,26.4c0,7.3,-9.9,13.2,-22,13.2c-12.2,0,-22,-5.9,-22,-13.2l0,-26.4c0,7.3,9.8,13.2,22,13.2c12.1,0,22,-5.9,22,-13.2Z" class="wallet-coins-2" />
<path d="M193.3,165l0,26.4c0,7.3,-9.9,13.2,-22,13.2c-12.2,0,-22,-5.9,-22,-13.2l0,-26.4c0,7.3,9.8,13.2,22,13.2c12.1,0,22,-5.9,22,-13.2Z" class="wallet-coins-1" />
<path d="M193.3,138.6l0,26.4c0,7.3,-9.9,13.2,-22,13.2c-12.2,0,-22,-5.9,-22,-13.2l0,-26.4c0,7.3,9.8,13.2,22,13.2c12.1,0,22,-5.9,22,-13.2Z" class="wallet-coins-2" />
<path d="M193.3,138.6l0,26.4c0,7.3,-9.9,13.2,-22,13.2c-12.2,0,-22,-5.9,-22,-13.2l0,-26.4c0,7.3,9.8,13.2,22,13.2c12.1,0,22,-5.9,22,-13.2Z" class="wallet-coins-1" />
<path d="M193.3,112.2l0,26.4c0,7.3,-9.9,13.2,-22,13.2c-12.2,0,-22,-5.9,-22,-13.2l0,-26.4c0,7.3,9.8,13.2,22,13.2c12.1,0,22,-5.9,22,-13.2Z" class="wallet-coins-2" />
<path d="M193.3,112.2l0,26.4c0,7.3,-9.9,13.2,-22,13.2c-12.2,0,-22,-5.9,-22,-13.2l0,-26.4c0,7.3,9.8,13.2,22,13.2c12.1,0,22,-5.9,22,-13.2Z" class="wallet-coins-1" />
<path d="M254.8,165l0,26.4c0,7.3,-9.8,13.2,-22,13.2c-12.1,0,-21.9,-5.9,-21.9,-13.2l0,-26.4c0,7.3,9.8,13.2,21.9,13.2c12.2,0,22,-5.9,22,-13.2Z" class="wallet-coins-2" />
<path d="M254.8,165l0,26.4c0,7.3,-9.8,13.2,-22,13.2c-12.1,0,-21.9,-5.9,-21.9,-13.2l0,-26.4c0,7.3,9.8,13.2,21.9,13.2c12.2,0,22,-5.9,22,-13.2Z" class="wallet-coins-1" />
<path d="M254.8,138.6l0,26.4c0,7.3,-9.8,13.2,-22,13.2c-12.1,0,-21.9,-5.9,-21.9,-13.2l0,-26.4c0,7.3,9.8,13.2,21.9,13.2c12.2,0,22,-5.9,22,-13.2Z" class="wallet-coins-2" />
<path d="M254.8,138.6l0,26.4c0,7.3,-9.8,13.2,-22,13.2c-12.1,0,-21.9,-5.9,-21.9,-13.2l0,-26.4c0,7.3,9.8,13.2,21.9,13.2c12.2,0,22,-5.9,22,-13.2Z" class="wallet-coins-1" />
<path d="M254.8,112.2l0,26.4c0,7.3,-9.8,13.2,-22,13.2c-12.1,0,-21.9,-5.9,-21.9,-13.2l0,-26.4c0,7.3,9.8,13.2,21.9,13.2c12.2,0,22,-5.9,22,-13.2Z" class="wallet-coins-2" />
<path d="M254.8,112.2l0,26.4c0,7.3,-9.8,13.2,-22,13.2c-12.1,0,-21.9,-5.9,-21.9,-13.2l0,-26.4c0,7.3,9.8,13.2,21.9,13.2c12.2,0,22,-5.9,22,-13.2Z" class="wallet-coins-1" />
<path d="M254.8,85.8l0,26.4c0,7.3,-9.8,13.2,-22,13.2c-12.1,0,-21.9,-5.9,-21.9,-13.2l0,-26.4c0,7.3,9.8,13.2,21.9,13.2c12.2,0,22,-5.9,22,-13.2Z" class="wallet-coins-2" />
<path d="M254.8,85.8l0,26.4c0,7.3,-9.8,13.2,-22,13.2c-12.1,0,-21.9,-5.9,-21.9,-13.2l0,-26.4c0,7.3,9.8,13.2,21.9,13.2c12.2,0,22,-5.9,22,-13.2Z" class="wallet-coins-1" />
<path d="M232.8,72.6c12.2,0,22,5.9,22,13.2c0,7.3,-9.8,13.2,-22,13.2C220.7,99,210.9,93.1,210.9,85.8c0,-7.3,9.8,-13.2,21.9,-13.2Z" class="wallet-coins-1" />

</svg>
