<?xml version="1.0" encoding="utf-8"?>
<!-- Generator: Adobe Illustrator 23.0.1, SVG Export Plug-In . SVG Version: 6.00 Build 0)  -->
<svg version="1.2" baseProfile="tiny" id="Layer_1" xmlns="http://www.w3.org/2000/svg" xmlns:xlink="http://www.w3.org/1999/xlink"
	 x="0px" y="0px" viewBox="0 0 62 62" xml:space="preserve">
<style type="text/css">
	.leviathan-trader0{fill:#ffffff}
	.leviathan-trader1{fill:#A3A1C9}
</style>
<g>
	<path class="leviathan-trader0" d="M24.5,41.4c0,0-8.3-0.6-10.5-1.7c-2.2-1.1-8.8-3.3-9.4-4.4s-0.6-1.7-0.6-1.7l1.7-0.6h34.8c0,0,7.7,0,11.1-3.3
		s2.8-3.9,2.8-6.1s-0.6-3.3-0.6-3.3l-1.7,0.6c0,0-3.9,0.6-5-0.6c-1.1-1.1-2.2-1.7-2.2-2.2c0-0.6-1.1-1.7-1.1-1.7v-1.1l2.2,0.6h3.3
		h1.1l0.6-1.1l1.7-1.7l1.7-1.1l3.3-1.7l0.6-0.6v1.7v1.7v2.8l-1.1,1.7l-0.6,1.7l0.6,1.1l0.6,3.9l0.6,1.7c0,0,0,3.9-0.6,6.1
		s-2.8,6.6-6.1,8.3c-3.3,1.7-7.7,5-10.5,5.5c-2.8,0.6-3.9,1.1-3.9,1.1l-0.6-0.3l2.9,2.9l2.3,3.5l-10.1-1.5l-5.9-4.9l-0.8-5.2"/>
	<g>
		<path class="leviathan-trader1" d="M56.8,19c1.8-1.6,2.8-3.9,2.8-6.7c0-2.2-0.7-4-0.7-4c-0.1-0.3-0.5-0.6-0.9-0.5c-0.4,0.1-0.7,0.4-0.7,0.7
			c0,0-0.2,2.1-3,2.9c-2.4,0.7-3.5,2.4-3.9,3.6c-1.3-0.5-2.4-0.4-3.4-0.2c-1.5,0.2-2.5,0.4-3.7-1.5c-0.2-0.3-0.6-0.5-1-0.3
			c-0.4,0.2-0.5,0.6-0.4,1c1.1,3.8,2.9,6.2,5.5,7.3c2.6,1.1,5.1,0.4,6.3,0c1.5,3.2-0.8,6.9-4,9.1c-3.9,2.7-12.2,2.1-12.3,2.1
			c0,0,0,0-0.1,0H5.1c-0.6,0-1.1,0.2-1.5,0.5c-0.1,0.1-0.2,0.1-0.3,0.2C3,33.3,2.8,33.6,2.6,34c0,0.1-0.1,0.2-0.1,0.3
			c0,0.1,0,0.1,0,0.2c0,0.2-0.1,0.4-0.1,0.6v0v0c0,0,0,0,0,0c0,0,0,0,0,0c0,0,0,0,0,0c0,0,0,0,0,0c0,0,0,0,0,0c0,0.1,0,0.2,0,0.3
			c0,0,0,0,0,0c0.1,1,0.6,3.9,2.9,6.7c1.6,2,3.8,3.6,6.4,4.8c3.3,1.4,7.3,2.1,11.9,2.1c0.4,0,0.8-0.4,0.8-0.8c0-0.4-0.4-0.8-0.8-0.8
			c-4.4,0-8.2-0.7-11.2-2c-2.4-1-4.3-2.5-5.8-4.3c-1-1.2-1.6-2.5-2-3.5c-0.1-0.2-0.1-0.3-0.2-0.5c0.1,0.2,0.3,0.3,0.4,0.5h0
			C5.4,38.4,6,39,6.7,39.7c3,2.8,8.1,6,16.1,6H23c0.4,0,0.8-0.4,0.8-0.8c0-0.4-0.4-0.8-0.8-0.8h-0.1c-6,0-11-1.9-15-5.6
			C7.5,38.2,7.3,38,7,37.7c3.7,2.1,7.4,3.2,10.2,3.7c3.2,0.6,5.8,0.5,7.1,0.5c0.1,1.7,0.7,5.5,4.3,8.2c4.5,3.4,15,3.7,15.4,3.7h0
			c0.4,0,0.7-0.2,0.8-0.6c0.1-0.4-0.1-0.7-0.4-0.9c-3.3-1.8-5.3-3.4-6.7-4.8c1.2-0.2,3-0.6,5.2-1.4c3.5-1.2,8.4-3.7,12.5-8.5
			c4.2-4.9,4.2-9.9,3.6-13.2C58.4,21.8,57.4,19.9,56.8,19z M54.1,36.5c-3.7,4.3-8.2,6.7-11.4,7.9c-2.3-1.9-6.8-2-7-2.1
			c-0.4,0-0.8,0.3-0.8,0.8c0,0.4,0.3,0.8,0.8,0.8c1,0,3.4,0.3,5.1,1.1c-2.3,0.7-4,0.9-4.5,1c-0.2-0.3-0.5-0.5-0.7-0.8
			c-1.5-1.7-3-3.3-6.2-5c-0.4-0.2-0.9,0-1.1,0.3c-0.2,0.4,0,0.9,0.3,1.1c2.9,1.5,4.2,3,5.7,4.6c1.4,1.6,3,3.4,6.3,5.6
			c-3.4-0.3-8.5-1.2-11.2-3.2c-3.9-3-3.7-7.5-3.6-7.7c0-0.2-0.1-0.5-0.2-0.6c-0.2-0.2-0.4-0.2-0.7-0.2c0,0-3.2,0.4-7.5-0.4
			c-2.7-0.5-6.3-1.5-9.9-3.6c-0.5-0.3-0.9-0.6-1.4-0.9c-0.5-0.4-1.1-0.7-1.6-1.1C4.7,34,4.9,34,5.1,34h2.5h29.7
			c0.7,0,9,0.5,13.3-2.4c2.1-1.4,3.7-3.4,4.6-5.4c0.9-2.3,0.8-4.6-0.5-6.5c-0.2-0.3-0.7-0.5-1-0.3c0,0-2.9,1.5-5.7,0.3
			c-1.4-0.6-2.5-1.7-3.4-3.4c1,0.3,1.9,0.1,2.7,0c1.1-0.2,2.1-0.3,3.2,0.5c0.2,0.2,0.5,0.2,0.8,0.1c0.3-0.1,0.4-0.4,0.5-0.7
			c0-0.1,0.3-2.6,3-3.3c1.6-0.4,2.5-1.2,3.2-1.9c0.1,0.4,0.1,0.9,0.1,1.4c0,2.5-0.9,4.4-2.7,5.8c-0.4,0.3-0.4,0.8-0.2,1.1
			c0,0,1.6,2.2,2.2,5.5C58.2,29,57.1,33,54.1,36.5z"/>
	</g>
</g>
</svg>
