<?xml version="1.0" encoding="utf-8"?>
<!-- Generator: Adobe Illustrator 24.2.3, SVG Export Plug-In . SVG Version: 6.00 Build 0)  -->
<svg version="1.2" baseProfile="tiny" id="Layer_1" xmlns="http://www.w3.org/2000/svg" xmlns:xlink="http://www.w3.org/1999/xlink"
	 x="0px" y="0px" viewBox="0 0 240 240" overflow="visible" xml:space="preserve">
<g id="Group_1975" transform="translate(0 -0.05)">
	<path id="Path_1762" fill="#EEEEEE" d="M235.4,64.2c0.1-0.5-0.1-1.1-0.5-1.4l0,0c0-0.5-0.4-0.9-1-1l-0.5-0.5c-0.5-0.5-1-0.5-1.4-1
		l0,0l-43.3-18.3c-1.2-0.5-2.6-0.5-3.8,0l-43.3,18.7c-0.5,0-1,0.5-1.4,1l-0.5,0.5l-1,1l0,0c0,0.5-0.5,1-0.5,1.4l0,0v62
		c-0.2,1.9,1,3.7,2.9,4.3l10.6,4.8c2.4,1.1,5.2,0.1,6.3-2.2c1.1-2.4,0.1-5.2-2.2-6.3c-0.1,0-0.2-0.1-0.3-0.1l-6.7-4.3V71.4
		l36.5,15.9c1.2,0.6,2.6,0.6,3.8,0l36.5-15.9v51.4l-38.5,16.3l-6.7-2.9c-2.4-1.1-5.2-0.1-6.3,2.3c-1.1,2.4-0.1,5.2,2.3,6.3
		c0,0,0.1,0,0.1,0.1l8.7,3.8c1.2,0.6,2.6,0.6,3.8,0l43.2-18.7c1.8-0.7,2.9-2.4,2.9-4.3L235.4,64.2L235.4,64.2z M187.3,77.6L156,64.2
		l31.2-13l31.2,13.5L187.3,77.6z"/>
	<path id="Path_1763" fill="#EEEEEE" d="M129.6,150.2c0.1-0.5-0.1-1.1-0.5-1.4l0,0c0-0.5-0.4-0.9-1-1l-0.5-0.5c-0.5-0.5-1-0.5-1.4-1
		l0,0L83,128.1c-1.2-0.5-2.6-0.5-3.8,0l-43.3,18.3l0,0c-0.5,0-1,0.5-1.4,1l-0.5,0.5l-1,1l0,0c0.5,0,0.5,0.5,0.5,1.4l0,0v62
		c-0.2,1.9,1,3.7,2.9,4.3l43.3,18.7h1.9c0.7,0.1,1.4-0.1,1.9-0.5l43.3-18.7c1.8-0.7,2.9-2.4,2.9-4.3L129.6,150.2L129.6,150.2z
		 M81.5,136.7l31.2,13.5l-31.2,13.5l-31.2-13.5L81.5,136.7z M81.5,225.2l-38.5-16.3v-51.4l36.5,15.9c0.6,0.4,1.2,0.6,1.9,0.5
		c0.7,0.1,1.4-0.1,1.9-0.5l36.5-15.9v51.4L81.5,225.2z"/>
	<path id="Path_1764" fill="#EEEEEE" d="M44.1,109.8c1.9,0.2,3.7-1,4.3-2.9c1-2.4,0-5.2-2.4-6.2L14.3,86.8V35.3l36.5,15.9
		c0.6,0.4,1.2,0.6,1.9,0.5c0.7,0.1,1.4-0.1,1.9-0.5l36.5-15.9v51.4l-25,10.6c-2.4,1-3.5,3.8-2.5,6.2c1,2.4,3.8,3.5,6.2,2.5
		c0,0,0.1,0,0.1-0.1l28.4-12c1.8-0.7,2.9-2.4,2.9-4.3V28.1l0,0c0.1-0.5-0.1-1.1-0.5-1.4l0,0c0-0.5-0.4-0.9-1-1l-0.5-0.5
		c-0.5-0.5-1-0.5-1.4-1L54.6,5.5c-1.1-1-2.7-1-3.8,0L7.5,23.8l0,0c-0.5,0-1,0.5-1.4,1l-0.5,0.5c0,0.4-0.2,0.7-0.5,1l0,0
		c-0.3,0.6-0.5,1.2-0.5,1.9l0,0v62c-0.2,1.9,1,3.7,2.9,4.3l34.6,14.9C42.7,109.7,43.4,109.9,44.1,109.8z M52.7,15.1l31.2,13.5
		l-31.2,13L21.5,28.1L52.7,15.1z"/>
	<path id="Path_1765" fill="#EEEEEE" d="M189.7,120.9c1,0,2-0.4,2.9-1l0,0c2-1.6,2.3-4.6,0.6-6.5c-0.1-0.1-0.1-0.1-0.2-0.2
		c-1.9-1.9-4.8-2.4-6.7-0.5s-2.4,4.8-1,6.7l0,0C186.6,120.3,188.1,120.8,189.7,120.9z"/>
	<path id="Path_1766" fill="#EEEEEE" d="M178.2,130.5c1,0,2-0.4,2.9-1l0,0c2-1.6,2.3-4.6,0.6-6.5c-0.1-0.1-0.1-0.1-0.2-0.2l0,0
		c-1.6-2-4.6-2.3-6.5-0.6c-0.1,0.1-0.1,0.1-0.2,0.2l0,0c-2,1.6-2.3,4.6-0.6,6.5c0.1,0.1,0.1,0.1,0.2,0.2l0,0
		C175.4,130,176.7,130.5,178.2,130.5z"/>
	<path id="Path_1767" fill="#EEEEEE" d="M163.3,131.5L163.3,131.5c-1.9,1.9-2.4,4.8-0.5,6.7l0,0c1,1.1,2.4,1.8,3.8,1.9
		c1-0.1,2-0.4,2.9-1l0,0c2-1.6,2.3-4.6,0.6-6.5c-0.1-0.1-0.1-0.1-0.2-0.2C168.4,130.3,165.5,129.8,163.3,131.5
		C163.3,131.4,163.3,131.4,163.3,131.5z"/>
	<path id="Path_1768" fill="#EEEEEE" d="M146.4,151.2c-1.6-2-4.6-2.3-6.5-0.6c-0.1,0.1-0.1,0.1-0.2,0.2l0,0
		c-1.9,1.9-2.4,4.8-0.5,6.7c1,1.1,2.4,1.8,3.8,1.9c1-0.1,2-0.4,2.9-1l0,0C147.9,156.5,147.9,153.6,146.4,151.2L146.4,151.2z"/>
	<path id="Path_1769" fill="#EEEEEE" d="M158,141.6c-1.9-1.9-4.8-2.4-6.7-0.5l0,0c-2,1.7-2.4,4.6-1,6.7l0,0c1,1.1,2.4,1.8,3.8,1.9
		c1,0,2-0.4,2.9-1C159.4,146.8,159.9,144,158,141.6L158,141.6z"/>
	<path id="Path_1770" fill="#EEEEEE" d="M47.9,96.4c0.5,2.4,3.4,4.3,5.8,3.4c1.3-0.5,2.5-1.3,3.4-2.4c0.4-1.1,0.6-2.2,0.5-3.4l0,0
		c-0.5-2.4-3.4-3.8-5.8-3.4l0,0C48.9,91.6,47.4,94,47.9,96.4L47.9,96.4z"/>
	<path id="Path_1771" fill="#EEEEEE" d="M55.1,125.7c0.5,2.4,3.4,4.3,5.8,3.4c1.4-0.5,2.6-1.6,3.4-2.9c0.4-1.1,0.6-2.2,0.5-3.4
		c-0.5-2.4-3.4-4.3-5.8-3.4l0,0C56.1,120.9,54.6,123.3,55.1,125.7L55.1,125.7z"/>
	<path id="Path_1772" fill="#EEEEEE" d="M53.2,82.9c0.4-1.1,0.6-2.2,0.5-3.4l0,0c-0.5-2.4-3.4-4.3-5.8-3.4c-2.4,0.5-4.3,3.4-3.4,5.8
		c0.5,2.4,3.4,4.3,5.8,3.4C51.5,84.9,52.6,84.1,53.2,82.9z"/>
	<path id="Path_1773" fill="#EEEEEE" d="M51.8,111.3c0.5,2.4,3.4,4.3,5.8,3.4c1.3-0.5,2.5-1.3,3.4-2.4c0.4-1.1,0.6-2.2,0.5-3.4l0,0
		c-0.5-2.4-3.4-4.3-5.8-3.4C52.7,106,50.8,108.4,51.8,111.3L51.8,111.3z"/>
</g>
</svg>
