<?xml version="1.0" encoding="utf-8"?>
<!-- Generator: Adobe Illustrator 26.4.1, SVG Export Plug-In . SVG Version: 6.00 Build 0)  -->
<svg version="1.1" id="Layer_1" xmlns="http://www.w3.org/2000/svg" xmlns:xlink="http://www.w3.org/1999/xlink" x="0px" y="0px" viewBox="0 0 50 50" style="enable-background:new 0 0 50 50;" xml:space="preserve">
	<style type="text/css">
    .icon-plus-1{fill:#0000FF;}
	.st0{fill:#002BFF;}
	.st1{fill:#FFFFFF;}
</style>
	<circle id="XMLID_134_" class="icon-plus-1" cx="25" cy="25" r="25" />
	<path id="Path_3_00000016764327731827108580000010424901856094027934_" class="st1" d="M35.3,11.6c0.9-0.9,2.3-0.9,3.2,0
	c0.4,0.4,0.6,1,0.6,1.6l0,19.8c0,1.3-1,2.3-2.3,2.2s-2.3-1-2.2-2.3l0-19.8C34.6,12.6,34.8,12.1,35.3,11.6L35.3,11.6z" />
	<path id="Path_3_00000047778029988004519910000017533062724939776692_" class="st1" d="M38.5,11.7c0.9,0.9,0.9,2.3,0,3.2
	c-0.4,0.4-1,0.6-1.6,0.6l-19.8,0c-1.3,0-2.3-1-2.2-2.3c0-1.3,1-2.3,2.3-2.2l19.8,0C37.5,11,38.1,11.2,38.5,11.7L38.5,11.7z" />
	<path id="Path_3_00000010272100705195573310000003847338887338401679_" class="st1" d="M36.9,11c1.3,0,2.3,1.1,2.2,2.3
	c0,0.6-0.3,1.2-0.7,1.6L14.7,38.7c-0.9,0.9-2.3,0.9-3.2,0c-0.9-0.9-0.9-2.3,0-3.2l23.7-23.7C35.7,11.2,36.3,11,36.9,11L36.9,11z" />
</svg>