<?xml version="1.0" encoding="utf-8"?>
<!-- Generator: Adobe Illustrator 24.1.3, SVG Export Plug-In . SVG Version: 6.00 Build 0)  -->
<svg version="1.2" baseProfile="tiny" id="Layer_1" xmlns="http://www.w3.org/2000/svg" xmlns:xlink="http://www.w3.org/1999/xlink"
	 x="0px" y="0px" viewBox="0 0 77.5 71.5" overflow="visible" xml:space="preserve">
	<style type="text/css">
		.bnb-icon { fill: #f1ba2a }
	</style>
<g>
	<g>
		<g transform="matrix(0.26458333,0,0,0.26458333,-33.403463,56.772625)">
			<path d="M271.9-199.5c-66.2,0-120,53.8-120,120s53.8,120,120,120s120-53.8,120-120S338.1-199.5,271.9-199.5z
				 M271.9-187.5c59.7,0,108,48.3,108,108s-48.3,108-108,108s-108-48.3-108-108S212.2-187.5,271.9-187.5z" class="bnb-icon"/>
		</g>
	</g>
</g>
<rect x="57" y="33.9" transform="matrix(0.7071 -0.7071 0.7071 0.7071 -8.0613 52.1541)" width="3.8" height="3.8" class="bnb-icon"/>
<rect x="36.9" y="33.9" transform="matrix(0.7071 -0.7071 0.7071 0.7071 -13.9704 37.8883)" width="3.8" height="3.8" class="bnb-icon"/>
<rect x="16.7" y="33.9" transform="matrix(0.7071 -0.7071 0.7071 0.7071 -19.8795 23.6225)" width="3.8" height="3.8" class="bnb-icon"/>
<polygon points="52.6,26.8 38.8,13 36.1,15.7 36.1,15.7 25,26.8 27.7,29.4 38.8,18.3 49.9,29.5 " class="bnb-icon"/>
<polygon points="52.6,44.8 50,42.1 38.8,53.3 27.5,42.1 24.9,44.8 36.1,56 36.1,56 38.8,58.6 41.4,56 41.4,56 " class="bnb-icon"/>
</svg>
