<svg xmlns="http://www.w3.org/2000/svg" width="53.467" height="53.467" viewBox="0 0 53.467 53.467">
  <g id="Group_4480" data-name="Group 4480" transform="translate(-373.035 -182.646)">
    <path id="Path_7447" data-name="Path 7447" d="M122.976,18.8,85.549.09a.892.892,0,0,0-.8,0L70.495,7.219a.89.89,0,0,0-.493.8V33.858a.891.891,0,0,0,1.29.8l16.533-8.266v16.38a.89.89,0,0,0,.492.8l19.605,9.8c.008,0,.017,0,.025.006a.836.836,0,0,0,.747,0c.008,0,.017,0,.025-.006l14.257-7.129a.89.89,0,0,0,.493-.8V19.6a.891.891,0,0,0-.493-.8ZM71.784,10.138V8.959L107.874,27v1.179Zm36.981,18.045V27l12.921-6.46v1.179ZM85.151,1.883l35.931,17.966-12.763,6.382L72.388,8.265ZM71.784,32.416V12.131l16.04,8.02V24.4Zm17.822-7.451a.307.307,0,0,0,0-.037V21.042l17.823,8.911V51.129L89.606,42.218Zm19.605,26.164V29.953l12.475-6.238V44.891Z" transform="translate(303.033 182.651)" fill="#fff"/>
    <path id="Path_7448" data-name="Path 7448" d="M304.229,263.84l-14.258-7.129a.446.446,0,0,0-.645.4v15.149a.446.446,0,0,0,.247.4l14.257,7.129a.446.446,0,0,0,.645-.4V264.238a.446.446,0,0,0-.246-.4Zm-.645.674v7.024l-13.367-6.683V257.83Zm-13.367,7.469V265.85l13.367,6.683v6.133Z" transform="translate(104.65 -49.512)" fill="#fff"/>
    <path id="Path_7449" data-name="Path 7449" d="M350.261,318.8l.134.107a.692.692,0,0,0,.16.081.58.58,0,0,0,.161.053,1.3,1.3,0,0,0,.178.018.882.882,0,0,0,.891-.891,1.431,1.431,0,0,0-.018-.179.587.587,0,0,0-.054-.16.68.68,0,0,0-.08-.16l-.107-.133a.889.889,0,0,0-1.453.971A1.032,1.032,0,0,0,350.261,318.8Z" transform="translate(49.766 -104.337)" fill="#fff"/>
    <path id="Path_7450" data-name="Path 7450" d="M351.713,401.839a.677.677,0,0,0-.08-.16l-.107-.134a.889.889,0,0,0-1.453.971,1.032,1.032,0,0,0,.188.294.891.891,0,0,0,1.524-.633,1.432,1.432,0,0,0-.018-.179A.585.585,0,0,0,351.713,401.839Z" transform="translate(49.766 -180.322)" fill="#fff"/>
  </g>
</svg>
