<?xml version="1.0" encoding="utf-8"?>
<!-- Generator: Adobe Illustrator 22.1.0, SVG Export Plug-In . SVG Version: 6.00 Build 0)  -->
<svg version="1.1" id="Layer_1" xmlns="http://www.w3.org/2000/svg" xmlns:xlink="http://www.w3.org/1999/xlink" x="0px" y="0px"
	 viewBox="0 0 77.5 71.5" style="enable-background:new 0 0 77.5 71.5;" xml:space="preserve">
	<style type="text/css">
		.btc0 { fill: #f7941d }
	</style>
<g>
	<g transform="matrix(0.26458333,0,0,0.26458333,-33.403463,56.772625)">
		<path class="btc0" d="M272.7-199.5c-66.2,0-120,53.8-120,120s53.8,120,120,120s120-53.8,120-120S338.9-199.5,272.7-199.5z M272.7-187.5
			c59.7,0,108,48.3,108,108s-48.3,108-108,108s-108-48.3-108-108S213-187.5,272.7-187.5z"/>
	</g>
	<path class="btc0" d="M31.1,49.9h3.3V54c0,1,0.8,1.8,1.8,1.8c1,0,1.8-0.8,1.8-1.8v-4.1h1.2V54c0,1,0.8,1.8,1.8,1.8s1.8-0.8,1.8-1.8v-4.1h0.5
		c4.2,0,7.6-3.4,7.6-7.6v-0.7c0-3-1.7-5.5-4.2-6.8c1.5-1.4,2.4-3.3,2.4-5.5c0-3.7-2.7-6.8-6.3-7.5v-4.3c0-1-0.8-1.8-1.8-1.8
		c-1,0-1.8,0.8-1.8,1.8v4.1H38v-4.1c0-1-0.8-1.8-1.8-1.8s-1.8,0.8-1.8,1.8v4.1h-3.3c-1,0-1.8,0.8-1.8,1.8v11.6c0,0.1,0,0.2,0,0.3
		c0,0.1,0,0.2,0,0.3v12.3C29.3,49.1,30.1,49.9,31.1,49.9z M32.9,25.4h8.6c2.2,0,4,1.8,4,4s-1.8,4-4,4h-8.6V25.4z M32.9,37.6h10.3
		c2.2,0,4,1.8,4,4v0.7c0,2.2-1.8,4-4,4H32.9V37.6z"/>
</g>
</svg>
