<svg xmlns="http://www.w3.org/2000/svg" width="37.09" height="33.503" viewBox="0 0 37.09 33.503">
  <g id="Group_23" data-name="Group 23" transform="translate(-67.262 -5555.389)">
    <path id="Path_2" data-name="Path 2" d="M168.354,4751.137l1.717,1.2,2.663.33,2.338-.33s.549-.692.685-.817.821-1.121,1.008-1.394a5.812,5.812,0,0,0,.523-1.419,5.343,5.343,0,0,0,.112-.9c.024-.284-.112-.41-.112-.84a9.439,9.439,0,0,0-.36-1.622,10.03,10.03,0,0,0-.261-1.043c-.1-.294-.237-.362-.5-.918s-.011-.418-.584-.953a8.28,8.28,0,0,0-1.258-1.1,11.087,11.087,0,0,0-1.344-1.021c-.3-.149-.362-.435-1.008-.229s-.187-.261-1.008.33a5.353,5.353,0,0,0-1.443,1.293,1.433,1.433,0,0,0-.274.727c-.062.43.09.521-.235.873s-.545.34-.883.749-.7.284-.711,1.158a8.821,8.821,0,0,0,0,1.758c.1,1.259-.147,1.692.1,2.292a7.246,7.246,0,0,1,.36,1.554C167.9,4750.886,168.354,4751.137,168.354,4751.137Z" transform="translate(-86.841 832.315)" fill="red"/>
    <g id="Group_22" data-name="Group 22" transform="translate(64.668 5552.552)">
      <path id="Path_2-2" data-name="Path 2" d="M43.2,40.89l-.046.044-.025.024-.07.069-.046.047-.089.093-.064.071-.1.117-.077.091c-.038.045-.077.094-.117.145l-.082.1c-.044.057-.088.118-.133.18-.027.037-.053.072-.08.112-.055.079-.11.164-.165.249-.017.028-.035.052-.052.08q-.108.172-.212.364c-.021.037-.039.078-.059.116-.049.093-.1.186-.142.285-.025.053-.048.109-.072.164-.039.089-.077.179-.113.272-.024.062-.045.125-.067.189-.032.091-.063.184-.091.28-.021.068-.039.137-.057.207-.025.1-.047.2-.068.3-.015.071-.029.142-.042.215-.018.106-.03.216-.043.325-.008.071-.017.14-.022.213-.009.127-.01.259-.01.39,0,.058,0,.114,0,.172,0,.009,0,.017,0,.025a3.6,3.6,0,0,0-1.975-.993.447.447,0,0,0-.437.284.455.455,0,0,0,.083.474c.008.009.013.021.022.03a2.35,2.35,0,0,1,.313.476l.024.046c.025.047.05.1.077.154.013.028.027.06.041.091.034.075.068.157.1.244.026.066.053.134.079.208.016.045.032.095.049.144.027.08.054.164.08.252.014.047.029.094.043.144.036.126.071.26.105.4,0,.018.009.033.013.052.04.17.078.353.114.547.006.031.011.064.017.1q.045.251.084.528c.006.046.012.092.019.139.027.207.052.425.073.655,0,.016,0,.032,0,.049s0,.046,0,.067A7.322,7.322,0,0,1,38.4,47.744a.459.459,0,0,0-.883.2c0,.01,0,.037,0,.073,0,.013,0,.024,0,.04l.01.132c0,.021,0,.037,0,.06,0,.063.011.135.017.214,0,.036.006.072.009.111.006.073.013.152.021.235,0,.03,0,.056.008.087.011.116.023.24.036.371,0,.029.006.058.009.087.013.127.028.259.044.4,0,.016,0,.031.005.046.1.836.241,1.84.448,2.777-.513-.527-.928-1.023-1.035-1.153l-.028-.034a.453.453,0,0,0-.477-.147.51.51,0,0,0-.079.023.459.459,0,0,0-.257.357.452.452,0,0,0,.007.154l.089.412c.451,2.116,1.208,5.633,3.146,7.33H37.294a.8.8,0,0,0,0,1.592H50.1a.8.8,0,0,0,0-1.592H47.27c2.538-1.554,2.863-6.082,2.743-7.919a.46.46,0,0,0-.889-.13c-.019.053-.042.108-.063.163-.091.234-.28.707-.539,1.291,0-.018-.011-.038-.015-.056-.031-.124-.055-.239-.081-.357-.032-.141-.064-.283-.089-.416-.023-.117-.04-.227-.058-.337s-.038-.241-.053-.354-.024-.2-.033-.3-.018-.212-.024-.311-.01-.181-.011-.266,0-.186,0-.275,0-.155.006-.227c.005-.088.013-.169.022-.25.007-.062.011-.126.02-.184.013-.09.03-.171.047-.252.008-.038.014-.082.023-.119a3.135,3.135,0,0,1,.09-.3c.012-.036.026-.065.04-.1.022-.056.044-.112.067-.16.015-.033.032-.061.047-.091s.044-.083.066-.119.032-.05.048-.073.044-.063.065-.09l.045-.055c.021-.025.042-.047.06-.067l.036-.036c.02-.019.038-.035.055-.049l.025-.021.042-.031.011-.008.02-.012a.458.458,0,0,0-.091-.873.483.483,0,0,0-.169,0,2.548,2.548,0,0,0-.332.085c-.064.021-.128.048-.191.073-.043.017-.086.032-.128.051-.085.038-.169.081-.254.126l-.052.028c-.1.054-.191.112-.285.173l-.007,0a7.652,7.652,0,0,0-1.327,1.138l-.007-.011c0-.022-.011-.043-.015-.065s-.006-.044-.011-.066c-.029-.169-.051-.338-.066-.505,0-.031,0-.061-.008-.092-.012-.162-.019-.322-.021-.48,0-.024,0-.047,0-.071a7.826,7.826,0,0,1,.161-1.544.013.013,0,0,0,0,0c.031-.15.065-.294.1-.432,0-.018.01-.035.014-.053.033-.125.067-.244.1-.358,0-.015.009-.03.013-.044a8.692,8.692,0,0,1,.339-.9l.021-.047c.024-.052.046-.1.065-.14l.017-.037.048-.1.005-.01.023-.043A.464.464,0,0,0,47,43.525a.452.452,0,0,0-.123-.26.458.458,0,0,0-.537-.1,3.8,3.8,0,0,0-.423.25c-.039.027-.078.056-.117.084-.1.072-.2.148-.289.229-.035.03-.07.059-.1.09a4.889,4.889,0,0,0-.345.349l-.019.023c-.1.116-.2.236-.289.36-.028.038-.055.076-.081.114-.07.1-.137.2-.2.3-.022.036-.045.071-.066.107-.076.13-.147.26-.21.39-.023-.047-.047-.095-.07-.142-.031-.065-.061-.129-.09-.194-.043-.095-.086-.191-.125-.285-.011-.028-.021-.055-.032-.083a6.362,6.362,0,0,1-.222-.654c-.006-.021-.012-.042-.018-.062-.028-.106-.05-.211-.071-.316-.008-.039-.014-.077-.021-.116-.017-.1-.031-.2-.04-.305,0-.033,0-.067,0-.1a3.239,3.239,0,0,1,.009-.486c.006-.073.012-.146.024-.219s.026-.132.041-.2c.021-.089.045-.178.075-.267.017-.053.034-.105.055-.158a3.245,3.245,0,0,1,.2-.427.473.473,0,0,0,.055-.154.461.461,0,0,0-.764-.415Zm1.18,10.945c-.009.035-.018.071-.027.105.948-1.035,1.54-1.05,1.54-1.05s-.75.707-.838,3.276a4.586,4.586,0,0,0,1.468-1.758,15.858,15.858,0,0,1-.6,3.514,9.38,9.38,0,0,0,1.331-1.336c-.3,1.393-1.163,4.238-3.106,4.491a4.432,4.432,0,0,1-1.7.1l-.418-.04c-2.049-.4-2.267-3.833-2.218-4.577,0,0,.264.712.658,1.5,1.066-3.3-.229-3.85-.229-3.85a3.322,3.322,0,0,1,1.588,1.165c.067-.124.139-.248.212-.371a4.944,4.944,0,0,0-.483-3.109,2.785,2.785,0,0,1,1.295,1.674l-.24.5c.735-1.2,1.359-2.389.7-3.536A3.591,3.591,0,0,1,44.377,51.835Z" transform="translate(-22.408 -28.027)" fill="#fff"/>
      <path id="Path_3" data-name="Path 3" d="M34.079,22.415h0a.8.8,0,0,0-.695.407L15.508,54.733a.8.8,0,0,0,.695,1.185h0l35.5-.052a.8.8,0,0,0,.7-1.181L34.774,22.826A.8.8,0,0,0,34.079,22.415ZM17.563,54.324l16.51-29.476L50.351,54.276Z" transform="translate(-12.813 -19.579)" fill="#fff"/>
    </g>
  </g>
</svg>
