<svg xmlns="http://www.w3.org/2000/svg" width="20" height="20" viewBox="0 0 9.984 18.197">
  <path class="fill_main-color" id="Path_520" data-name="Path 520" d="M37.975,19a.881.881,0,0,0-.881.881v1.494l-.255.032A7.13,7.13,0,0,0,35.5,21.7a4.065,4.065,0,0,0-1.79,1.2l-.023.029a3.105,3.105,0,0,0-.7,1.846,3.061,3.061,0,0,0,.64,2.075l.026.035a3.912,3.912,0,0,0,1.611,1.139,13.648,13.648,0,0,0,2.022.587c.528.114.863.194,1.174.273.414.1.743.188,1.027.27A3.98,3.98,0,0,1,40.5,29.6a1.682,1.682,0,0,1,.514.508,1.626,1.626,0,0,1,.191.825v.041a1.582,1.582,0,0,1-.294.972,2.4,2.4,0,0,1-1.1.81,4.937,4.937,0,0,1-1.914.329h-.464a4.781,4.781,0,0,1-1.782-.437,2.468,2.468,0,0,1-.881-.766h0a.881.881,0,1,0-1.426,1.033,4.267,4.267,0,0,0,1.517,1.315h.026a6.531,6.531,0,0,0,1.958.569l.252.047v1.468a.881.881,0,0,0,1.761,0V34.8l.247-.038a6.437,6.437,0,0,0,1.33-.355A4.179,4.179,0,0,0,42.322,33a3.631,3.631,0,0,0,.223-3.751,3.466,3.466,0,0,0-1.107-1.133,5.776,5.776,0,0,0-1.468-.652c-.314-.091-.663-.185-1.068-.294-.335-.091-.7-.176-1.253-.294a11.892,11.892,0,0,1-1.761-.508,2.145,2.145,0,0,1-.857-.587,1.291,1.291,0,0,1-.294-.881v-.088a1.312,1.312,0,0,1,.293-.74,2.3,2.3,0,0,1,1.016-.684,5.315,5.315,0,0,1,1.8-.279h.07a5.348,5.348,0,0,1,1.394.185,2.914,2.914,0,0,1,.91.431,1.79,1.79,0,0,1,.467.481.881.881,0,0,0,1.209.255h0a.881.881,0,0,0,.249-1.221,3.54,3.54,0,0,0-.925-.951,4.655,4.655,0,0,0-1.45-.69,6.54,6.54,0,0,0-.684-.15l-.235-.044V19.881A.881.881,0,0,0,37.975,19Z" transform="translate(-32.979 -19)" fill="#fff"/>
</svg>
