<?xml version="1.0" encoding="utf-8"?>
<!-- Generator: Adobe Illustrator 25.0.1, SVG Export Plug-In . SVG Version: 6.00 Build 0)  -->
<svg version="1.2" baseProfile="tiny" id="Layer_1" xmlns="http://www.w3.org/2000/svg" xmlns:xlink="http://www.w3.org/1999/xlink"
	 x="0px" y="0px" viewBox="0 0 35 35" overflow="visible" xml:space="preserve">
<g>
	<path class="cancel-all" fill="#FFFFFF" d="M29.7,10.4c0-3.7-3-6.7-6.7-6.7c-1.9,0-3.6,0.8-4.8,2h-6.4c-1.2,0-2.2,0.9-2.4,2c-1,0.2-1.8,1-2,2
		c-1.1,0.2-2,1.2-2,2.4v14.8c0,1.3,1.1,2.4,2.4,2.4h14.8c1.2,0,2.2-0.9,2.4-2c1-0.2,1.8-1,2-2c1.1-0.2,2-1.2,2-2.4v-9.6
		C29.4,12.5,29.7,11.5,29.7,10.4z M23,4.7c3.1,0,5.7,2.6,5.7,5.7c0,3.1-2.6,5.7-5.7,5.7c-3.1,0-5.7-2.6-5.7-5.7
		C17.2,7.2,19.8,4.7,23,4.7z M11.7,6.7h5.6c-0.2,0.3-0.4,0.7-0.5,1h-6.4C10.6,7.1,11.1,6.7,11.7,6.7z M9.7,8.7h6.7
		c-0.1,0.3-0.2,0.7-0.2,1H8.4C8.6,9.1,9.1,8.7,9.7,8.7z M22.6,28.3H7.7c-0.8,0-1.4-0.6-1.4-1.4V12.1c0-0.8,0.6-1.4,1.4-1.4h8.5
		c0.2,3.5,3.1,6.4,6.7,6.4c0.3,0,0.7,0,1-0.1v9.9C24,27.7,23.3,28.3,22.6,28.3z M25,26.3v-9.5c0.3-0.1,0.7-0.3,1-0.4v8.6
		C26,25.6,25.5,26.1,25,26.3z M28,22.9c0,0.6-0.4,1.2-1,1.3v-8.5c0.4-0.3,0.7-0.6,1-0.9V22.9z"/>
	<polygon class="cancel-all" fill="#FFFFFF" points="21.3,12.7 23,11.1 24.6,12.7 25.3,12 23.7,10.4 25.3,8.8 24.6,8 23,9.7 21.3,8 20.6,8.8 22.2,10.4
		20.6,12 	"/>
</g>
</svg>
