<svg xmlns="http://www.w3.org/2000/svg" width="20" height="20" viewBox="0 0 18.199 18.198"><g transform="translate(4624.099 -2284)"><path class="fill_main-color" d="M24.562,53.551a2.055,2.055,0,0,0-2.906,0L19.6,55.606a2.055,2.055,0,0,0,0,2.906l2.055,2.055a2.055,2.055,0,0,0,2.906,0l2.055-2.055a2.055,2.055,0,0,0,0-2.906Zm.81,3.716-2.055,2.055a.294.294,0,0,1-.414,0l-2.055-2.055a.293.293,0,0,1,0-.414L22.9,54.8a.293.293,0,0,1,.414,0l2.055,2.055a.294.294,0,0,1,0,.429Z" transform="translate(-4643.099 2241.015)" fill="#fff"/><path class="fill_main-color" d="M34.591,23.7h-.881V21.641A2.642,2.642,0,0,0,31.069,19h-8.7a3.308,3.308,0,0,0-3.317,2.917v5.007a.881.881,0,1,0,1.761,0V25.131l.39.138a3.2,3.2,0,0,0,1.062.188H34.591a.881.881,0,0,1,.881.881v8.218a.881.881,0,0,1-.881.881H29.945a.916.916,0,0,0-.93.792.881.881,0,0,0,.881.969h4.7a2.642,2.642,0,0,0,2.642-2.642V26.337A2.642,2.642,0,0,0,34.591,23.7Zm-2.642,0H22.317a1.509,1.509,0,0,1-1.52-1.321,1.468,1.468,0,0,1,1.468-1.614h8.805a.881.881,0,0,1,.881.881Z" transform="translate(-4643.133 2265.001)" fill="#fff"/><circle class="fill_main-color" cx="0.881" cy="0.881" r="0.881" transform="translate(-4611.771 2294.566)" fill="#fff"/></g></svg>