<svg xmlns="http://www.w3.org/2000/svg" width="60" height="59.943" viewBox="0 0 60 59.943"><g transform="translate(-18310 -810.057)"><path d="M56,36a6,6,0,1,1-6,6A6.018,6.018,0,0,1,56,36Zm0,10a4,4,0,1,0-4-4A4.012,4.012,0,0,0,56,46Z" transform="translate(18289 791)" fill="#fff"/><path d="M56,50a6,6,0,1,1-6,6A6.018,6.018,0,0,1,56,50Zm0,10a4,4,0,1,0-4-4A4.012,4.012,0,0,0,56,60Z" transform="translate(18260 808)" fill="#fff"/><path d="M30.7,10.3l-1.4,1.4-3-3a.967.967,0,0,1,0-1.4l3-3,1.4,1.4L29.4,7H41V9H29.4Z" transform="translate(18309 808)" fill="#fff"/><path d="M40.3,22.7l1.4-1.4,3,3a.967.967,0,0,1,0,1.4l-3,3-1.4-1.4L41.6,26H34V24h7.6Z" transform="translate(18293 808)" fill="#fff"/><path d="M48.5,7H62V9H48.5a7.5,7.5,0,0,0,0,15h2.1l-1.3-1.3,1.4-1.4,3,3a.967.967,0,0,1,0,1.4l-3,3-1.4-1.4L50.6,26H48.5a9.5,9.5,0,0,1,0-19Z" transform="translate(18271 808)" fill="#fff"/><path d="M35.3,45.7l-3-3a.967.967,0,0,1,0-1.4l3-3,1.4,1.4L35.4,41H48v2H35.4l1.3,1.3Z" transform="translate(18292 808)" fill="#fff"/><path d="M38.5,43H36a6.018,6.018,0,0,0-6,6,8.024,8.024,0,0,1-8,8H5.4l1.3,1.3L5.3,59.7l-3-3a.967.967,0,0,1,0-1.4l3-3,1.4,1.4L5.4,55H22a6.018,6.018,0,0,0,6-6,8.232,8.232,0,0,1,2.7-6H23.4l1.3,1.3-1.4,1.4-3-3a.967.967,0,0,1,0-1.4l3-3,1.4,1.4L23.4,41H38.5a7.5,7.5,0,0,0,0-15H30V24h8.5a9.5,9.5,0,0,1,0,19Z" transform="translate(18322 808)" fill="#fff"/><rect width="2" height="2" transform="translate(18355 858)" fill="#fff"/><rect width="2" height="2" transform="translate(18359 858)" fill="#fff"/><rect width="2" height="2" transform="translate(18363 858)" fill="#fff"/><text transform="translate(18310 855)" fill="#fff" font-size="22" font-family="OpenSans, Open Sans" letter-spacing="0.005em"><tspan x="0" y="0">$</tspan></text><path d="M30.191,32.621h1.633V34.65a.891.891,0,1,0,1.781,0V32.621H34.2V34.65a.891.891,0,1,0,1.781,0V32.621h.247a3.759,3.759,0,0,0,3.76-3.76v-.346a3.768,3.768,0,0,0-2.078-3.364A3.661,3.661,0,0,0,39.1,22.429a3.811,3.811,0,0,0-3.117-3.711V16.591a.891.891,0,0,0-1.781,0v2.029H33.6V16.591a.891.891,0,1,0-1.781,0v2.029H30.191a.887.887,0,0,0-.891.891V31.631A.914.914,0,0,0,30.191,32.621ZM31.081,20.5h4.255a1.979,1.979,0,0,1,0,3.958H31.081Zm0,6.036h5.1a1.985,1.985,0,0,1,1.979,1.979v.346a1.985,1.985,0,0,1-1.979,1.979h-5.1Z" transform="translate(18323.014 794.357)" fill="#fff"/></g></svg>