<?xml version="1.0" encoding="utf-8"?>
<!-- Generator: Adobe Illustrator 23.1.0, SVG Export Plug-In . SVG Version: 6.00 Build 0)  -->
<svg version="1.1" id="Layer_1" xmlns="http://www.w3.org/2000/svg" xmlns:xlink="http://www.w3.org/1999/xlink" x="0px" y="0px"
	 viewBox="0 0 24 24" style="enable-background:new 0 0 100 102;" xml:space="preserve"><path d="M39.035,19H23.321A4.321,4.321,0,0,0,19,23.321V39.035a4.321,4.321,0,0,0,4.321,4.321H39.035a4.321,4.321,0,0,0,4.321-4.321V23.321A4.321,4.321,0,0,0,39.035,19ZM23.321,21.357H39.035A1.964,1.964,0,0,1,41,23.321v1.87l-7.527,7.523L27.973,28l-6.616,6.62v-11.3A1.964,1.964,0,0,1,23.321,21.357ZM39.035,41H23.321a1.964,1.964,0,0,1-1.964-1.964V37.951L28.1,31.214l5.5,4.714L41,28.523V39.035A1.964,1.964,0,0,1,39.035,41Z" transform="translate(-19 -19)"/></svg>