<?xml version="1.0" encoding="UTF-8"?>
<svg xmlns="http://www.w3.org/2000/svg" baseProfile="tiny" version="1.2" viewBox="0 0 284.7 274.2">
  <!-- Generator: Adobe Illustrator 28.7.0, SVG Export Plug-In . SVG Version: 1.2.0 Build 136)  -->
  <g>
    <g id="Layer_1">
      <path class="fill_main-color " d="M255.2,82.9h-75.1v-33.8c0-14.7-10.9-26.7-24.3-26.7H29.5c-13.4,0-24.3,12-24.3,26.7v84.4c0,14.7,10.9,26.7,24.3,26.7h7.4v22.7c0,3.2,1.8,6.1,4.6,7.5,1.2.6,2.5.9,3.8.9s3.5-.6,5-1.6l39.9-29.5h14.4v33.8c0,14.7,10.9,26.7,24.3,26.7h64.2l39.8,29.4c1.5,1.1,3.2,1.6,5,1.6s2.6-.3,3.8-.9c2.8-1.4,4.6-4.3,4.6-7.5v-22.6h8.9c13.4,0,24.3-12,24.3-26.7v-84.4c0-14.7-10.9-26.7-24.3-26.7h0ZM262.7,194.1c0,5.4-3.4,9.9-7.5,9.9h-17.3c-4.6,0-8.4,3.8-8.4,8.4v14.4l-28.7-21.2c-1.4-1.1-3.2-1.6-5-1.6h-67c-4,0-7.5-4.5-7.5-9.9v-84.4c0-5.4,3.4-9.9,7.5-9.9h126.4c4,0,7.5,4.5,7.5,9.9v84.4Z" fill="#fff"/>
    </g>
  </g>
</svg>