<?xml version="1.0" encoding="utf-8"?>
<!-- Generator: Adobe Illustrator 23.0.2, SVG Export Plug-In . SVG Version: 6.00 Build 0)  -->
<svg version="1.2" baseProfile="tiny" id="Layer_1" xmlns="http://www.w3.org/2000/svg" xmlns:xlink="http://www.w3.org/1999/xlink"
	 x="0px" y="0px" viewBox="0 0 85 85" xml:space="preserve">
<style type="text/css">
	.chat-setting{fill:#BBBDBF}
</style>
<path class="chat-setting" d="M20.5,38.3l-1.8,6.3c-0.1,0.4,0,0.8,0.3,1.1c0.2,0.2,0.5,0.3,0.7,0.3c0.1,0,0.3,0,0.4-0.1l3.8-1.5
	c0,0.4-0.1,0.8-0.1,1.2C23.9,55.7,34.2,64,46.8,64c2.2,0,4.5-0.3,6.6-0.8l11.1,4.3c0.1,0,0.3,0.1,0.4,0.1c0.3,0,0.5-0.1,0.7-0.3
	c0.3-0.3,0.4-0.7,0.3-1.1l-2.3-8c4-3.4,6.1-7.8,6.1-12.5c0-8.6-7.3-15.7-17.2-17.8c-0.3-7.9-8.4-14.3-18.4-14.3
	c-10.2,0-18.4,6.7-18.4,14.8C15.7,32,17.4,35.6,20.5,38.3z M26.1,45.6c0-8.9,9.3-16.2,20.8-16.2s20.8,7.3,20.8,16.2
	c0,4.2-2.1,8.2-5.9,11.3c-0.3,0.3-0.5,0.7-0.4,1.1l1.9,6.6l-9.4-3.6c-0.2-0.1-0.4-0.1-0.7,0c-2.1,0.5-4.2,0.8-6.4,0.8
	C35.4,61.8,26.1,54.5,26.1,45.6z M17.8,28.3c0-7,7.3-12.7,16.3-12.7c8.6,0,15.6,5.2,16.2,11.8c-1.1-0.1-2.3-0.2-3.5-0.2
	c-11.1,0-20.4,6.3-22.5,14.7l-3,1.1l1.4-4.9c0.1-0.4,0-0.9-0.4-1.1C19.5,34.7,17.8,31.6,17.8,28.3z"/>
<path class="chat-setting" d="M53,45.8c0,1.9,1.5,3.4,3.4,3.4c1.9,0,3.4-1.5,3.4-3.4c0-1.9-1.5-3.4-3.4-3.4C54.5,42.5,53,44,53,45.8z
	 M55.2,45.8c0-0.7,0.5-1.2,1.2-1.2s1.2,0.5,1.2,1.2S57.1,47,56.4,47S55.2,46.5,55.2,45.8z"/>
<path class="chat-setting" d="M43.4,45.8c0,1.9,1.5,3.4,3.4,3.4s3.4-1.5,3.4-3.4c0-1.9-1.5-3.4-3.4-3.4S43.4,44,43.4,45.8z M45.6,45.8
	c0-0.7,0.5-1.2,1.2-1.2s1.2,0.5,1.2,1.2S47.5,47,46.8,47S45.6,46.5,45.6,45.8z"/>
<path class="chat-setting" d="M33.9,45.8c0,1.9,1.5,3.4,3.4,3.4c1.9,0,3.4-1.5,3.4-3.4c0-1.9-1.5-3.4-3.4-3.4C35.4,42.5,33.9,44,33.9,45.8
	z M36,45.8c0-0.7,0.5-1.2,1.2-1.2c0.7,0,1.2,0.5,1.2,1.2S37.9,47,37.2,47C36.6,47,36,46.5,36,45.8z"/>
</svg>
