<?xml version="1.0" encoding="utf-8"?>
<!-- Generator: Adobe Illustrator 25.0.1, SVG Export Plug-In . SVG Version: 6.00 Build 0)  -->
<svg version="1.2" baseProfile="tiny" id="Layer_1" xmlns="http://www.w3.org/2000/svg" xmlns:xlink="http://www.w3.org/1999/xlink"
	 x="0px" y="0px" viewBox="0 0 35 35" overflow="visible" xml:space="preserve">
<g id="noun_chat_1057579" transform="translate(-11 -10.3)">
	<g id="Group_3615" transform="translate(11 10.3)">
		<path id="Path_4329" fill="#FFFFFF" d="M17.5,33.1c1.8,0,3.5-0.3,5.2-0.9l8.2,1.4h0.2c0.4,0,0.7-0.2,0.9-0.4
			c0.3-0.3,0.3-0.8,0.2-1.2l-2.2-5.1c0.9-1.2,1.7-2.5,2.2-3.9c0.7-1.8,1.1-3.8,1.1-5.8c0-8.8-7.1-15.9-15.9-15.9
			C8.7,1.3,1.6,8.4,1.6,17.2C1.6,26,8.7,33.1,17.5,33.1C17.5,33.1,17.5,33.1,17.5,33.1z M17.5,3.8c7.4,0,13.5,6,13.5,13.5
			c0,1.7-0.3,3.3-0.9,4.9c-0.5,1.4-1.3,2.7-2.3,3.8c-0.3,0.4-0.4,0.8-0.2,1.3l1.5,3.7l-6.3-1.1h-0.2c-0.1,0-0.3,0-0.4,0.1
			c-1.5,0.6-3.1,0.9-4.7,0.9c-7.4,0-13.5-6-13.5-13.5S10.1,3.8,17.5,3.8L17.5,3.8z"/>
	</g>
</g>
<path fill="#FFFFFF" d="M17.4,26.3c-7.9,0-9-8.9-9-9l1-0.1c0,0.3,1,8.1,8,8.1c7,0,7.6-7.7,7.6-8l1,0.1C26,17.5,25.3,26.3,17.4,26.3z
	"/>
<rect x="14.3" y="9.8" fill="#FFFFFF" width="1" height="6.5"/>
<rect x="19.3" y="9.8" fill="#FFFFFF" width="1" height="6.5"/>
</svg>
