<?xml version="1.0" encoding="utf-8"?>
<!-- Generator: Adobe Illustrator 23.0.3, SVG Export Plug-In . SVG Version: 6.00 Build 0)  -->
<svg version="1.2" baseProfile="tiny" id="Layer_1" xmlns="http://www.w3.org/2000/svg" xmlns:xlink="http://www.w3.org/1999/xlink"
	 x="0px" y="0px" viewBox="0 0 167 167" xml:space="preserve">
<g class="check-order">
	<path d="M154.67,150.76c-1.01,0-2.02-0.38-2.78-1.15l-30.69-30.69c-1.54-1.54-1.54-4.03,0-5.57s4.03-1.54,5.57,0l30.69,30.69
		c1.54,1.54,1.54,4.03,0,5.57C156.68,150.38,155.67,150.76,154.67,150.76z"/>
	<path d="M84.19,135.53c-32.63,0-59.18-26.55-59.18-59.18s26.55-59.18,59.18-59.18s59.18,26.55,59.18,59.18
		S116.82,135.53,84.19,135.53z M84.19,25.04c-28.29,0-51.3,23.01-51.3,51.3s23.01,51.3,51.3,51.3s51.3-23.01,51.3-51.3
		S112.48,25.04,84.19,25.04z"/>
	<g>
		<path d="M30.25,78.11H6.84c-0.87,0-1.58-0.71-1.58-1.58s0.71-1.58,1.58-1.58h23.41c0.87,0,1.58,0.71,1.58,1.58
			C31.82,77.4,31.12,78.11,30.25,78.11z"/>
		<path d="M71.29,81.65h-40.7c-2.83,0-5.12-2.29-5.12-5.12s2.29-5.12,5.12-5.12h40.7c2.83,0,5.12,2.29,5.12,5.12
			S74.12,81.65,71.29,81.65z"/>
	</g>
	<g>
		<path d="M35.67,97.48H6.84c-0.87,0-1.58-0.71-1.58-1.58s0.71-1.58,1.58-1.58h28.84c0.87,0,1.58,0.71,1.58,1.58
			C37.25,96.78,36.54,97.48,35.67,97.48z"/>
		<path d="M79.17,101.03H34.1c-2.83,0-5.12-2.29-5.12-5.12s2.29-5.12,5.12-5.12h45.07c2.83,0,5.12,2.29,5.12,5.12
			C84.29,98.73,82,101.03,79.17,101.03z"/>
	</g>
	<g>
		<path d="M29.64,58.73H7.19c-0.87,0-1.58-0.71-1.58-1.58c0-0.87,0.71-1.58,1.58-1.58h22.45c0.87,0,1.58,0.71,1.58,1.58
			C31.21,58.03,30.51,58.73,29.64,58.73z"/>
		<path d="M63.77,62.28H34.2c-2.83,0-5.12-2.29-5.12-5.12s2.29-5.12,5.12-5.12h29.56c2.83,0,5.12,2.29,5.12,5.12
			C68.89,59.98,66.59,62.28,63.77,62.28z"/>
	</g>
</g>
</svg>
