<svg xmlns="http://www.w3.org/2000/svg" width="83.099" height="39.179" viewBox="0 0 83.099 39.179">
    <path id="Path_174" data-name="Path 174" d="M166.133,185.805a7.477,7.477,0,1,0,7.143,5.249,3.15,3.15,0,1,1-4.172-4.635,7.472,7.472,0,0,0-2.971-.613Zm-15.685-2.353a18.518,18.518,0,0,0,0,19.674,56.846,56.846,0,0,1-17.055-9.837,56.854,56.854,0,0,1,17.054-9.837Zm31.371,19.672a18.516,18.516,0,0,0,0-19.673,56.851,56.851,0,0,1,17.053,9.837,56.9,56.9,0,0,1-17.054,9.836Zm-15.685-21.347a11.51,11.51,0,1,1-11.508,11.511A11.511,11.511,0,0,1,166.134,181.777Zm0-8.079c-14.091,0-28.138,5.673-40.422,17.016a3.5,3.5,0,0,0,0,5.144C138,207.2,152.043,212.876,166.134,212.876s28.138-5.673,40.42-17.018a3.5,3.5,0,0,0,.2-4.94c-9.4-10.232-26.783-17.221-40.625-17.221Z" transform="translate(-124.584 -173.697)" fill="#fff" fill-rule="evenodd" opacity="0.25"/>
  </svg>
  