<svg xmlns="http://www.w3.org/2000/svg" width="66" height="66" viewBox="0 0 66 66"><g transform="translate(2701 -7795)"><path d="M35.775,5.449l20.552,8.512a.972.972,0,0,1,.526.526l8.512,20.552a.97.97,0,0,1,0,.733L56.853,56.323a.972.972,0,0,1-.526.526L35.775,65.361a.97.97,0,0,1-.733,0L14.49,56.849a.972.972,0,0,1-.526-.526L5.45,35.774a.97.97,0,0,1,0-.733l8.512-20.552a.972.972,0,0,1,.526-.526L35.039,5.452a.953.953,0,0,1,.736,0ZM55.22,15.593,35.408,7.387,15.595,15.593,7.388,35.406l8.207,19.813,19.813,8.207L55.22,55.219l8.207-19.813Z" transform="translate(-2703.878 7792.124)" fill-rule="evenodd"/><path d="M0,0H66V66H0Z" transform="translate(-2701 7795)" fill="none"/></g></svg>