<svg xmlns="http://www.w3.org/2000/svg" width="66" height="66" viewBox="0 0 66 66"><g transform="translate(1905 -7795)"><path d="M36.421,8.08l7.8,19.083,20.564,1.52a.972.972,0,0,1,.531,1.734L49.6,43.712,54.507,63.74a.97.97,0,0,1-1.473,1.04L35.524,53.935,17.993,64.793a.971.971,0,0,1-1.452-1.053l4.909-20.028L5.706,30.4a.973.973,0,0,1,.56-1.71l20.564-1.52,7.8-19.086a.972.972,0,0,1,1.795,0Zm6.232,20.374L35.524,11.007l-7.1,17.373a.973.973,0,0,1-.86.678L8.773,30.446,23.16,42.617a.972.972,0,0,1,.317.969L18.99,61.9,35,51.979a.975.975,0,0,1,1.035-.011l16.024,9.925L47.58,43.631a.968.968,0,0,1,.3-1.016L62.271,30.444l-18.79-1.388v0a.96.96,0,0,1-.829-.6Z" transform="translate(-1907.863 7792.02)" fill-rule="evenodd"/><path d="M0,0H66V66H0Z" transform="translate(-1905 7795)" fill="none"/></g></svg>