<svg xmlns="http://www.w3.org/2000/svg" width="66" height="66" viewBox="0 0 66 66"><g transform="translate(943 -7795)"><path d="M37.294,8.908l6.025,14.866a.967.967,0,0,0,1.08.586l15.844-2.208L50.38,34.81a.968.968,0,0,0,.011,1.2l9.853,12.642L44.35,46.437a.966.966,0,0,0-1.028.594L37.294,61.9,31.269,47.034a.967.967,0,0,0-1.08-.586L14.345,48.655,24.208,36a.968.968,0,0,0-.011-1.2L14.345,22.155l15.893,2.216a.966.966,0,0,0,1.028-.594ZM44.83,22.349,38.19,5.969a.968.968,0,0,0-1.793,0l-6.64,16.383-17.508-2.44v0a.97.97,0,0,0-.894,1.551L22.222,35.4,11.386,49.3a.968.968,0,0,0,.862,1.593l17.508-2.439L36.4,64.841a.968.968,0,0,0,1.793,0l6.64-16.383L62.337,50.9v0a.97.97,0,0,0,.894-1.551L52.364,35.4,63.2,21.5a.968.968,0,0,0-.862-1.593Z" transform="translate(-947.647 7793.133)" fill-rule="evenodd"/><path d="M0,0H66V66H0Z" transform="translate(-943 7795)" fill="none"/></g></svg>