<?xml version="1.0" encoding="utf-8"?>
<!-- Generator: Adobe Illustrator 26.4.1, SVG Export Plug-In . SVG Version: 6.00 Build 0)  -->
<svg version="1.1" id="Layer_1" xmlns="http://www.w3.org/2000/svg" xmlns:xlink="http://www.w3.org/1999/xlink" x="0px" y="0px"
	 viewBox="0 0 50 50" style="enable-background:new 0 0 50 50;" xml:space="preserve">
<style type="text/css">
	.st0{fill:#FFFFFF;}
</style>
<path id="Path_3_00000049195749705309616170000002146436606352155561_" class="st0" d="M23.2,26.8c-0.9-0.9-0.9-2.3,0-3.2
	c0.4-0.4,1-0.7,1.6-0.7l18.5-0.1c1.3,0,2.3,1,2.3,2.3c0,1.3-1,2.3-2.3,2.3l-18.5,0.1C24.2,27.5,23.6,27.2,23.2,26.8L23.2,26.8z"/>
<path id="Path_3_00000141440866148849312550000016656160126446402465_" class="st0" d="M26.3,26.8c-0.9,0.9-2.3,0.9-3.2,0
	c-0.4-0.4-0.7-1-0.7-1.6l-0.2-13.8c0-1.3,1-2.3,2.3-2.3s2.3,1,2.3,2.3L27,25.1C27,25.7,26.7,26.3,26.3,26.8L26.3,26.8z"/>
</svg>
