<?xml version="1.0" encoding="UTF-8"?><svg id="Layer_1" xmlns="http://www.w3.org/2000/svg" viewBox="0 0 72.54 72.54"><defs><style>.cls-1{fill:#79cdd3;}</style></defs><circle class="cls-1" cx="36.27" cy="36.27" r="36.27"/><path d="M36.27,11.91L14.39,24.06v24.42l21.88,12.15,21.88-12.15V24.06l-21.88-12.15Zm-17.11,12.99l15.59-8.67v10.31l-6.32,3.5-9.28-5.14Zm18.63,1.66v-10.32l15.69,8.73-9.28,5.16-6.42-3.57Zm-20.37,.87l9.36,5.21v7.31l-9.36,5.21V27.42Zm28.31,12.4v-7.06l9.36-5.21v17.46l-9.36-5.19Zm-15.9-.02v-7.04l6.43-3.57,6.43,3.57v7.04l-6.43,3.57-6.43-3.57Zm7.96,6.2l6.42-3.57,9.28,5.16-15.69,8.71v-10.31Zm-18.63,1.66l9.28-5.16,6.3,3.5v10.31l-15.58-8.65Z"/></svg>