<?xml version="1.0" encoding="utf-8"?>
<!-- Generator: Adobe Illustrator 27.0.0, SVG Export Plug-In . SVG Version: 6.00 Build 0)  -->
<svg version="1.1" id="Layer_1" xmlns="http://www.w3.org/2000/svg" xmlns:xlink="http://www.w3.org/1999/xlink" x="0px" y="0px"
	 viewBox="0 0 72.5 72.5" style="enable-background:new 0 0 72.5 72.5;" xml:space="preserve">
<style type="text/css">
	.st0{fill:#00ABED;}
	.st1{clip-path:url(#SVGID_00000026843841357294390050000012772255168262998707_);}
</style>
<circle class="st0" cx="36.3" cy="36.3" r="36.3"/>
<g>
	<defs>
		<circle id="SVGID_1_" cx="36.3" cy="36.3" r="36.3"/>
	</defs>
	<clipPath id="SVGID_00000031209300101528148300000000332691313958216106_">
		<use xlink:href="#SVGID_1_"  style="overflow:visible;"/>
	</clipPath>
	<g style="clip-path:url(#SVGID_00000031209300101528148300000000332691313958216106_);">
		<path d="M44.6,37.3c0,2.6-2.1,4.7-4.7,4.7s-4.7-2.1-4.7-4.7s2.1-4.7,4.7-4.7S44.6,34.7,44.6,37.3 M0,39.5h33.9c1,2,3.3,3.9,6,3.9
			c0.8,0,1.7-0.2,2.4-0.4l7,5.4c2.2,1.9,5.1,2.9,8.2,2.9h14.8v-4.5H57.5c-1.7,0-3.3-0.6-4.5-1.6l-6.8-5.8h26.4v-4.5H45.9
			c-1-2-3.3-4.1-6-4.1c-0.8,0-1.7,0.1-2.4,0.4l-7-5.3c-2.2-1.9-5.1-2.9-8.2-2.9H0v4.5h22.3c1.7,0,3.3,0.6,4.5,1.6l6.8,5.8H0
			C0,35.1,0,39.5,0,39.5z"/>
	</g>
</g>
</svg>
