<?xml version="1.0" encoding="UTF-8"?><svg id="Layer_1" xmlns="http://www.w3.org/2000/svg" viewBox="0 0 72.54 72.54"><defs><style>.cls-1{fill:#add7c4;}</style></defs><circle class="cls-1" cx="36.27" cy="36.27" r="36.27"/><g><path d="M16.14,41.99c7.63,.46,13.81,6.64,14.34,14.34v5.58h4.51v-18.33h-4.51v4.74c-1.53-2.67-3.66-4.81-5.5-6.33h24.11c-3.5,1.53-5.64,3.66-7.17,6.33v-4.74h-4.51v18.33h4.51v-5.58c.46-7.63,6.64-13.81,14.34-14.34h5.58v-4.51H10.69v4.51h5.45Z"/><path d="M61.85,30.54h-5.58c-7.63-.46-13.81-6.64-14.34-14.34v-5.57h-4.51V28.95h4.51v-4.74c1.53,2.67,3.66,4.81,6.33,6.33H24.15c2.67-1.53,4.81-3.66,6.33-6.33v4.74h4.51V10.62h-4.51v5.57c-.46,7.63-6.64,13.81-14.34,14.34h-5.45v4.51H61.85v-4.51Z"/></g></svg>