<?xml version="1.0" encoding="utf-8"?>
<!-- Generator: Adobe Illustrator 19.0.0, SVG Export Plug-In . SVG Version: 6.00 Build 0)  -->
<svg version="1.1" id="Layer_1" xmlns="http://www.w3.org/2000/svg" xmlns:xlink="http://www.w3.org/1999/xlink" x="0px" y="0px"
	 viewBox="0 0 340 245.5" style="enable-background:new 0 0 340 245.5;" xml:space="preserve">
<style type="text/css">
	.coin-btc-1{fill:#21201F;}
	.coin-btc-2{font-family:'Raleway-Medium';}
	.coin-btc-3{font-size:8.826px;}
	.coin-btc-4{fill:none;stroke:#000000;stroke-width:0.937;stroke-linecap:round;stroke-miterlimit:10;stroke-dasharray:2.8111,5.6223;}
	.coin-btc-5{fill:#F59120;}
	.coin-btc-6{fill:none;stroke:#21201F;stroke-width:0.44;stroke-miterlimit:10;}
</style>
<g id="XMLID_2_">
	<g id="XMLID_163_">
		<text id="XMLID_178_" transform="matrix(0.9932 -0.1164 0.1164 0.9932 324.89 16.4691)" class="coin-btc-1 coin-btc-2 coin-btc-3">B</text>
	</g>
	<path id="XMLID_21_" class="coin-btc-4" d="M308.8,17.2c0,0-84.9-4.1-135.6,166.6c0,0-82-80.4-173.2,56.6"/>
	<path id="XMLID_20_" class="coin-btc-5" d="M327.9,23.5l0.6,0.7l-1.2,0.8l-1.6,0.7l-2.4,0.2l-1.9-0.5c0,0-1.8,0.1-3.8-1.6
		c-2.1-1.8-4.6-4.6-4.5-8.3s1.3-6,2.3-7.1s4-3,4-3L319,6.6l-1.4,2.5c0,0-1,3.1-0.3,5.8c0.7,2.7,2,5.3,4.3,6.7
		C323.9,22.9,326.1,23.5,327.9,23.5z"/>
	<g id="XMLID_3_">
		<g id="XMLID_4_">
			<path id="XMLID_8_" class="coin-btc-1" d="M336.6,8c-2.9-5.4-9.5-7.6-14.7-4.8c-0.5,0.3-0.9,0.5-1.3,0.8L318,5.4
				c-5.2,2.8-7,9.4-4.1,14.8s9.4,7.5,14.6,4.8l3.6-1.9l0,0c0.1-0.1,0.3-0.1,0.4-0.2C337.7,20.1,339.5,13.4,336.6,8z M318.3,6.5
				c-0.4,0.6-0.8,1.3-1.1,2L315,9.7C315.8,8.4,316.9,7.3,318.3,6.5z M314.2,11.3l2.6-1.4c-0.2,0.9-0.3,1.8-0.3,2.7l-2.8,1.5
				C313.7,13.2,313.9,12.2,314.2,11.3z M313.6,15.4l2.9-1.6c0.1,0.8,0.2,1.5,0.5,2.3l-3,1.6C313.8,16.9,313.7,16.1,313.6,15.4z
				 M314.8,19.7c-0.2-0.3-0.3-0.7-0.5-1l3-1.6c0.1,0.3,0.3,0.6,0.5,0.9c0.2,0.3,0.4,0.7,0.6,1l-3,1.6C315.2,20.3,315,20,314.8,19.7z
				 M316.1,21.5l3-1.6c0.5,0.6,1,1.2,1.6,1.6l-3,1.6C317.1,22.6,316.6,22.1,316.1,21.5z M318.8,23.8l2.9-1.6
				c0.8,0.5,1.6,0.9,2.4,1.2l-2.7,1.4C320.5,24.6,319.6,24.3,318.8,23.8z M328,24.1c-1.5,0.8-3.2,1.1-4.8,1.1l2.4-1.3
				C326.4,24,327.2,24.1,328,24.1L328,24.1z M332,21.9c-4.7,2.5-10.6,0.5-13.2-4.4s-1-10.9,3.7-13.4s10.6-0.5,13.2,4.4
				S336.7,19.4,332,21.9z"/>
			<path id="XMLID_5_" class="coin-btc-1" d="M323.7,6.5c-3.4,1.8-4.7,6.3-2.8,9.9c1.9,3.6,6.3,5,9.7,3.2c3.4-1.8,4.7-6.3,2.8-9.9
				C331.6,6.1,327.2,4.6,323.7,6.5z M330.2,18.6c-2.9,1.6-6.6,0.3-8.3-2.7c-1.6-3.1-0.6-6.9,2.3-8.4s6.6-0.3,8.3,2.7
				C334.2,13.2,333.1,17,330.2,18.6z"/>
		</g>
	</g>
</g>
<line id="XMLID_1_" class="coin-btc-6" x1="324.3" y1="14.8" x2="327.6" y2="14.4"/>
</svg>
