<?xml version="1.0" encoding="utf-8"?>
<!-- Generator: Adobe Illustrator 24.3.0, SVG Export Plug-In . SVG Version: 6.00 Build 0)  -->
<svg version="1.2" baseProfile="tiny" id="Layer_1" xmlns="http://www.w3.org/2000/svg" xmlns:xlink="http://www.w3.org/1999/xlink"
	 x="0px" y="0px" viewBox="0 0 486.2 503.9" overflow="visible" xml:space="preserve">
<g>
	<g>
		<path fill="#FFFFFF" d="M55.3,303.6l-30,8l-4.8-18.2l7-1.9l2.7,10l4.4-1.2L32,291l7-1.9l2.5,9.4l4.7-1.2l-2.9-10.7l7.1-1.2
			L55.3,303.6z"/>
		<path fill="#FFFFFF" d="M47.8,268.3l-8.6,5.3l9.7,2.6l1.2,8.7L32.9,279l-13.6,9.7l-1.3-9.3l7.8-4.7l-8.7-2.2l-1.2-8.7l16.1,5.4
			L46.4,259L47.8,268.3z"/>
		<path fill="#FFFFFF" d="M33.7,236.6c4.2,0.1,7.5,1.1,9.8,3.2c2.3,2,3.6,4.8,3.6,8.4c0.1,4-1.2,7-3.9,9.1
			c-2.7,2.1-6.7,3.2-11.9,3.3c-5.4,0.1-9.5-0.9-12.3-2.9c-2.9-2.1-4.3-5.1-4.4-9.1c-0.1-3.2,0.9-5.8,3-7.8s5.1-3.3,9.1-3.8l1.1,8.4
			c-2,0.2-3.4,0.6-4.3,1.1c-0.8,0.5-1.2,1.2-1.2,2.1c0,1.2,0.7,2.1,2,2.6s3.5,0.7,6.6,0.7c3.1-0.1,5.3-0.4,6.7-1
			c1.3-0.6,2-1.5,2-2.8c0-1-0.5-1.7-1.3-2.2c-0.9-0.5-2.3-0.8-4.2-0.9L33.7,236.6z"/>
		<path fill="#FFFFFF" d="M47.9,220.3L35.8,219l-0.7,6l12.1,1.3l-0.9,8.5l-30.8-3.4l0.9-8.5l11,1.2l0.7-6l-11-1.2l0.9-8.5l30.8,3.4
			L47.9,220.3z"/>
		<path fill="#FFFFFF" d="M53.1,193.7l-5.7-0.3l-1.7,7l5.2,2.4l-2,8l-28.2-15.2l2.5-10.3h32L53.1,193.7z M28.4,192.5l11.1,5.1
			l1.1-4.5L28.4,192.5z"/>
		<path fill="#FFFFFF" d="M61,170.3l-17.3,1.3l14.5,5.6l-2.8,7.3l-28.9-11.2l2.7-7.1l17.3-1.3L32,159.4l2.8-7.3l28.9,11.2L61,170.3z
			"/>
		<path fill="#FFFFFF" d="M62.6,141.5l-1.5,2.7l-5.6-3.1l5.3-9.6l13.3,7.3c0.2,1.9,0.1,3.8-0.3,5.8c-0.4,1.9-1.1,3.8-2.1,5.6
			c-2.1,3.8-4.8,6-8.2,6.6c-3.4,0.6-7.5-0.3-12.2-2.9c-4.7-2.6-7.8-5.5-9.2-8.8c-1.4-3.2-1.1-6.7,0.9-10.4c3.2-5.8,8-7.4,14.4-4.9
			l-3.4,7.9c-1.2-0.4-2.1-0.6-2.9-0.5c-0.7,0.1-1.3,0.6-1.7,1.3c-0.6,1.2-0.5,2.4,0.4,3.6c0.9,1.2,2.7,2.5,5.3,4
			c2.7,1.5,4.9,2.2,6.5,2.2s2.8-0.7,3.6-2.2c0.5-0.9,0.8-1.9,0.7-2.8L62.6,141.5z"/>
		<path fill="#FFFFFF" d="M77.7,138.1l-25.3-18l10.9-15.3l5.9,4.2l-6,8.5L67,120l5.7-7.9l5.9,4.2l-5.7,7.9l3.9,2.8l6.4-9l5.5,4.7
			L77.7,138.1z"/>
		<path fill="#FFFFFF" d="M109.1,100.8L96.8,88.4l9.2,15.5l-3.7,3.7L87,98.2l12.3,12.4l-5.3,5.3l-21.9-22l7.1-7l17.1,10.7L85.7,80.4
			l7.1-7l21.9,22L109.1,100.8z"/>
		<path fill="#FFFFFF" d="M117.3,93.6L98.6,68.8l15-11.3l4.3,5.8l-8.3,6.2l2.7,3.6l7.8-5.8l4.3,5.8l-7.8,5.8l2.9,3.9l8.9-6.7
			l3.8,6.2L117.3,93.6z"/>
		<path fill="#FFFFFF" d="M134.4,80.8l-15.5-26.9l8.7-5c3.9-2.2,7.5-2.8,10.8-1.7s6.2,3.8,8.7,8.2s3.5,8.3,2.8,11.8
			c-0.7,3.5-2.9,6.4-6.7,8.5L134.4,80.8z M139.8,68.8c1.2-0.7,1.8-1.8,1.8-3.3c-0.1-1.5-0.8-3.4-2.1-5.7s-2.6-3.8-3.8-4.5
			s-2.5-0.8-3.7,0l-2,1.1l7.8,13.6L139.8,68.8z"/>
		<path fill="#FFFFFF" d="M157.2,68.2L144.4,40l7.8-3.5L165,64.7L157.2,68.2z"/>
		<path fill="#FFFFFF" d="M182.7,58.1l-2.9-5l-6.8,2.4l0.8,5.7l-7.8,2.7L163.4,32l10-3.5l17.4,26.8L182.7,58.1z M170.3,36.7
			l1.7,12.1l4.4-1.5L170.3,36.7z"/>
		<path fill="#FFFFFF" d="M212.8,51l-2.1-5.4l-7.1,1.3l-0.1,5.8l-8.1,1.4l2.5-32l10.4-1.8l12.9,29.2L212.8,51z M204,27.9l-0.2,12.2
			l4.6-0.8L204,27.9z"/>
		<path fill="#FFFFFF" d="M237.4,48.9l-8.2-15.3l0.7,15.6l-7.8,0.3l-1.4-31l7.6-0.3l8.2,15.3l-0.7-15.6l7.8-0.3l1.4,31L237.4,48.9z"
			/>
		<path fill="#FFFFFF" d="M248.2,48.6l2.8-30.9l10,0.9c4.5,0.4,7.7,2,9.8,4.8c2.1,2.8,2.9,6.7,2.4,11.7c-0.5,5.1-2,8.8-4.5,11.3
			c-2.6,2.5-6,3.5-10.4,3.2L248.2,48.6z M259.5,41.9c1.4,0.1,2.5-0.4,3.3-1.7c0.8-1.2,1.3-3.2,1.5-5.8s0.1-4.6-0.5-5.9s-1.6-2-3-2.2
			l-2.3-0.2l-1.4,15.6L259.5,41.9z"/>
		<path fill="#FFFFFF" d="M305.2,45.8c-1.2,4-3.1,6.9-5.6,8.6c-2.6,1.7-5.6,2.2-9,1.3c-3.8-1-6.4-3-7.8-6.2c-1.3-3.2-1.3-7.3,0-12.4
			c1.3-5.2,3.4-8.9,6.1-11.1s6.1-2.8,9.9-1.9c3.1,0.8,5.4,2.5,6.7,5c1.4,2.5,1.8,5.8,1.2,9.7l-8.4-1.2c0.3-2,0.3-3.5,0.1-4.4
			c-0.2-0.9-0.8-1.5-1.7-1.7c-1.2-0.3-2.2,0.1-3.1,1.2c-0.8,1.1-1.6,3.2-2.4,6.2s-1,5.2-0.8,6.7c0.2,1.4,0.9,2.3,2.2,2.6
			c1,0.2,1.8,0,2.5-0.7s1.4-2,2-3.8L305.2,45.8z"/>
		<path fill="#FFFFFF" d="M313.9,63.4c-3.9-1.5-6.3-3.9-7.2-7.3c-1-3.3-0.5-7.4,1.5-12.4s4.5-8.4,7.5-10.2s6.5-1.9,10.4-0.4
			c3.9,1.5,6.3,3.9,7.2,7.3c1,3.3,0.5,7.4-1.5,12.4s-4.5,8.4-7.5,10.2S317.8,64.9,313.9,63.4z M316.8,56.2c1.3,0.5,2.5,0.3,3.5-0.7
			s2.1-3,3.3-5.9c1.1-2.9,1.7-5,1.6-6.5c-0.1-1.4-0.7-2.4-2-2.9s-2.5-0.3-3.5,0.7s-2.1,3-3.3,5.9c-1.1,2.9-1.7,5-1.6,6.5
			S315.5,55.7,316.8,56.2z"/>
		<path fill="#FFFFFF" d="M346.5,78.9l8.8-15.1l-12.5,12.9l-4.5-2.6l5.1-17.3l-8.8,15.1l-6.5-3.8l15.6-26.8l8.6,5l-5.9,19.3
			l13.8-14.7l8.6,5l-15.6,26.8L346.5,78.9z"/>
		<path fill="#FFFFFF" d="M372.2,98.1l11.1-13.5l-14.5,10.7l-4.1-3.3l7.8-16.2l-11.1,13.5l-5.8-4.8l19.8-23.9l7.7,6.4l-9,18.1
			l16-12.3l7.7,6.4L378,103.1L372.2,98.1z"/>
		<path fill="#FFFFFF" d="M412.6,94.9l5.7,6.3l-14.3,13c-3,2.7-6,4.1-8.9,4.1s-5.6-1.4-8.1-4.2c-2.5-2.8-3.6-5.6-3.3-8.5
			c0.3-2.9,1.9-5.7,5-8.4l14.3-13l5.7,6.3l-14.8,13.4c-1.1,1-1.7,1.9-1.9,2.6c-0.2,0.8,0.1,1.6,0.8,2.3c0.7,0.8,1.5,1.1,2.3,1
			s1.7-0.6,2.8-1.6L412.6,94.9z"/>
		<path fill="#FFFFFF" d="M405.6,136.8l8.6-15l-12.9,8.8l-4.4-6.4l25.6-17.6l4.3,6.2l-8.6,15l12.9-8.8l4.4,6.4L409.9,143
			L405.6,136.8z"/>
		<path fill="#FFFFFF" d="M411.4,146.1l27.2-15l4.1,7.5l-27.2,15L411.4,146.1z"/>
		<path fill="#FFFFFF" d="M437.9,172.6c-3.9,1.5-7.3,1.8-10.3,0.8c-2.9-1-5.1-3.1-6.5-6.3c-1.6-3.6-1.5-6.9,0.2-9.9s4.9-5.5,9.7-7.6
			c4.9-2.1,9.1-2.8,12.5-2s6,3,7.6,6.7c1.3,2.9,1.4,5.7,0.2,8.4c-1.2,2.6-3.5,5-6.9,6.9l-4.2-7.3c1.8-1,3-1.9,3.5-2.6
			c0.6-0.8,0.7-1.5,0.3-2.4c-0.5-1.1-1.4-1.7-2.9-1.6s-3.5,0.7-6.3,1.9S430,160,429,161c-1,1.1-1.3,2.2-0.7,3.3
			c0.4,0.9,1.1,1.4,2.1,1.5s2.4-0.1,4.3-0.8L437.9,172.6z"/>
		<path fill="#FFFFFF" d="M431.3,193.8l5.1-2.6l-2-6.9l-5.7,0.5l-2.3-7.9l32-1.1l3,10.1L433.8,202L431.3,193.8z M453.3,182.4
			l-12.2,1.2l1.3,4.5L453.3,182.4z"/>
		<path fill="#FFFFFF" d="M434.2,206l23-4.1l-1.1-6.3l7.5-1.4l3.8,21l-7.5,1.4l-1.1-6.3l-23,4.1L434.2,206z"/>
		<path fill="#FFFFFF" d="M436.8,222.2l30.9-2.9l0.8,8.5l-30.9,2.9L436.8,222.2z"/>
		<path fill="#FFFFFF" d="M437.2,245.7c0-4.1,1.4-7.3,4.1-9.4c2.7-2.1,6.8-3.1,12.1-3.1c5.4,0,9.5,1.1,12.3,3.3s4.2,5.4,4.1,9.6
			c0,4.1-1.4,7.3-4.1,9.4c-2.7,2.1-6.8,3.1-12.1,3.1c-5.4,0-9.5-1.1-12.3-3.3C438.6,253.1,437.2,249.9,437.2,245.7z M444.9,245.8
			c0,1.4,0.6,2.4,2,3c1.3,0.6,3.5,0.9,6.7,0.9c3.1,0,5.3-0.3,6.6-0.8c1.3-0.6,2-1.6,2-2.9c0-1.4-0.6-2.4-2-3
			c-1.3-0.6-3.5-0.9-6.7-0.9c-3.1,0-5.3,0.3-6.6,0.8C445.6,243.4,444.9,244.4,444.9,245.8z"/>
		<path fill="#FFFFFF" d="M435.6,275.7l16.5-5.2l-15.5-2.2l1.1-7.7l30.7,4.3l-1.1,7.5l-16.5,5.2l15.5,2.2l-1.1,7.7l-30.7-4.3
			L435.6,275.7z"/>
		<path fill="#FFFFFF" d="M444.1,296.1c1.4-2.4,3-4.1,4.8-4.9s4-0.9,6.6-0.2c2.9,0.8,4.9,2.3,6,4.6c1.2,2.3,1.3,5.1,0.4,8.4
			c-0.8,3.1-2.2,5.2-4.2,6.5c-1.9,1.2-4.5,1.6-7.8,1.1l1.4-8.1c1.3,0.2,2.3,0.1,2.9-0.1s1-0.7,1.2-1.5c0.2-0.7,0.1-1.3-0.2-1.8
			c-0.3-0.5-0.9-0.8-1.6-1c-0.8-0.2-1.4-0.2-1.9,0s-0.9,0.7-1.3,1.4l-1.7,2.8c-1.5,2.6-3.2,4.3-5,5.2c-1.8,0.8-3.9,0.9-6.4,0.3
			c-3.1-0.8-5.3-2.4-6.5-4.7c-1.2-2.3-1.4-5.2-0.5-8.6c1.9-6.9,6.4-9.6,13.5-8l-2.2,8.1c-1.4-0.3-2.5-0.2-3.3,0.1
			c-0.7,0.3-1.2,0.9-1.5,1.8c-0.2,0.8-0.1,1.5,0.2,2c0.3,0.6,0.9,1,1.8,1.2c0.7,0.2,1.4,0.2,1.9-0.1c0.5-0.2,1-0.7,1.5-1.5
			L444.1,296.1z"/>
	</g>
	<g>
		<path fill="#FFFFFF" d="M61,375.9c-3.4,2.1-6.6,2.9-9.5,2.5s-5.3-2-7.1-4.9c-2.1-3.1-2.6-6.2-1.5-9.3c1.1-3.1,3.7-6,7.9-8.7
			c4.2-2.8,8-4.1,11.4-3.9c3.3,0.2,6.1,1.9,8.2,5c1.7,2.5,2.2,5.1,1.6,7.8c-0.6,2.7-2.4,5.2-5.3,7.6l-5.1-6.2c1.5-1.2,2.5-2.2,2.9-3
			s0.4-1.6-0.1-2.3c-0.7-1-1.6-1.3-2.9-1.1c-1.3,0.3-3.2,1.2-5.6,2.8c-2.5,1.6-4.1,3-4.8,4.2c-0.8,1.2-0.8,2.2-0.2,3.2
			c0.5,0.8,1.3,1.1,2.2,1.1c1-0.1,2.2-0.5,3.8-1.4L61,375.9z"/>
		<path fill="#FFFFFF" d="M62.3,395.9l5.3-9.1l-1.3-1.6l-7.6,6.3l-4.8-5.8l22.6-18.8l6.5,7.9c2.1,2.5,3.1,5,3,7.5s-1.3,4.7-3.7,6.6
			c-1.2,1-2.6,1.7-4,2c-1.5,0.3-2.9,0.3-4.5-0.1l-6.1,11.6L62.3,395.9z M72.6,382.8c0.7,0.8,1.4,1.3,2.2,1.3c0.8,0.1,1.6-0.3,2.5-1
			c0.8-0.7,1.3-1.4,1.4-2.2c0.1-0.8-0.2-1.6-0.9-2.4l-1.4-1.7l-5.2,4.3L72.6,382.8z"/>
		<path fill="#FFFFFF" d="M73.6,408.3l7.6-7.7l7.6-18.6l6.2,6l-5.6,10.2l10.1-5.8l6,5.9L87,406.2l-7.6,7.7L73.6,408.3z"/>
		<path fill="#FFFFFF" d="M86.8,420.9l18.4-22.9l7.3,5.9c2.6,2.1,4,4.4,4.4,7c0.3,2.6-0.5,5.1-2.4,7.5c-1.3,1.6-2.7,2.7-4.3,3.3
			c-1.6,0.7-3.3,0.8-5.1,0.5c-1.8-0.3-3.5-1.2-5.2-2.5l-1.3-1.1l-5.7,7.1L86.8,420.9z M104.1,414.4c1.8,1.4,3.3,1.2,4.8-0.5
			c1.4-1.8,1.2-3.3-0.5-4.8l-1.3-1l-4.2,5.3L104.1,414.4z"/>
		<path fill="#FFFFFF" d="M110.1,438.5l12.1-18.6l-5.1-3.3l4-6.1l17,11l-4,6.1l-5.1-3.3l-12.1,18.6L110.1,438.5z"/>
		<path fill="#FFFFFF" d="M134.3,453.7c-3.5-1.8-5.6-4.3-6.2-7.5c-0.6-3.2,0.2-7.1,2.5-11.5c2.3-4.6,5-7.5,8-9
			c3-1.4,6.3-1.2,9.9,0.6c3.5,1.8,5.6,4.3,6.2,7.5c0.6,3.2-0.2,7.1-2.5,11.5c-2.3,4.6-5,7.5-8,9
			C141.2,455.7,137.9,455.5,134.3,453.7z M137.7,447.2c1.2,0.6,2.3,0.5,3.4-0.4c1.1-0.9,2.3-2.6,3.6-5.3c1.3-2.6,2-4.6,2.1-6
			s-0.5-2.3-1.7-2.9s-2.3-0.5-3.4,0.4c-1.1,0.9-2.3,2.6-3.6,5.3c-1.3,2.6-2,4.6-2.1,6C136,445.6,136.6,446.6,137.7,447.2z"/>
		<path fill="#FFFFFF" d="M155.8,462.6l10.3-27.6l7.6,2.8l-10.3,27.6L155.8,462.6z"/>
		<path fill="#FFFFFF" d="M182.5,471.2l-2.9-16.2l-3.9,14.3l-7.2-2l7.8-28.4l6.9,1.9l2.9,16.2l3.9-14.3l7.2,2l-7.8,28.4L182.5,471.2
			z"/>
		<path fill="#FFFFFF" d="M195.2,474.3l4.9-29l16.8,2.8l-1.1,6.7l-8.9-1.5l-0.9,5.4l8.3,1.4l-1.1,6.8l-8.3-1.4l-1.7,10.1
			L195.2,474.3z"/>
		<path fill="#FFFFFF" d="M229.6,478.5l-3-10.1l-2-0.1l-0.7,9.9l-7.6-0.5l2-29.4l10.2,0.7c3.3,0.2,5.8,1.2,7.5,3s2.5,4.2,2.3,7.2
			c-0.1,1.6-0.5,3-1.3,4.3s-1.8,2.3-3.1,3.2L238,479L229.6,478.5z M227.2,462c1.1,0.1,1.9-0.2,2.5-0.7c0.6-0.6,0.9-1.4,1-2.5
			s-0.1-1.9-0.7-2.5c-0.5-0.6-1.3-1-2.3-1l-2.3-0.2l-0.5,6.7L227.2,462z"/>
		<path fill="#FFFFFF" d="M257.4,478.3l-1.3-5.3l-6.8,0.3l-0.8,5.4l-7.8,0.4l6.2-29.7l10-0.5l8.6,29.1L257.4,478.3z M252,455.5
			l-1.7,11.5l4.4-0.2L252,455.5z"/>
		<path fill="#FFFFFF" d="M273.5,464.8c-2.7-0.3-4.7-1.1-6.1-2.3c-1.4-1.2-2.3-3.1-2.7-5.6c-0.4-2.8,0.2-5.1,1.7-7
			c1.6-1.9,3.9-3.1,7.1-3.6c3-0.5,5.4-0.1,7.2,1.1c1.8,1.2,3.1,3.3,4,6.3l-7.6,1.9c-0.4-1.2-0.8-2-1.2-2.4c-0.4-0.4-1-0.6-1.8-0.4
			c-0.7,0.1-1.2,0.4-1.5,0.8c-0.3,0.5-0.4,1.1-0.3,1.8c0.1,0.7,0.4,1.3,0.7,1.6c0.4,0.3,1,0.5,1.8,0.6l3.1,0.4
			c2.9,0.3,5,1.1,6.4,2.3c1.4,1.2,2.3,3,2.7,5.5c0.5,3-0.1,5.5-1.6,7.4c-1.6,1.9-4,3.2-7.3,3.7c-6.7,1-10.7-1.9-12.1-8.6l7.8-1.2
			c0.3,1.3,0.7,2.3,1.3,2.8c0.6,0.5,1.3,0.7,2.2,0.6c0.8-0.1,1.3-0.4,1.7-0.9c0.4-0.5,0.5-1.2,0.3-2c-0.1-0.7-0.4-1.2-0.8-1.6
			s-1-0.6-1.8-0.7L273.5,464.8z"/>
		<path fill="#FFFFFF" d="M296.5,472.6l-5.4-21.5l-5.9,1.5l-1.8-7l19.7-5l1.8,7l-5.9,1.5l5.4,21.5L296.5,472.6z"/>
		<path fill="#FFFFFF" d="M326.3,463.4l-6.8-8l-1.9,0.7l3.4,9.3l-7.1,2.6l-10.1-27.7l9.6-3.5c3.1-1.1,5.8-1.2,8.1-0.3
			c2.3,1,4,2.8,5,5.7c0.5,1.5,0.7,3,0.5,4.5s-0.7,2.9-1.6,4.2l8.8,9.7L326.3,463.4z M317.5,449.3c1-0.4,1.7-0.9,2-1.7
			c0.3-0.7,0.3-1.6-0.1-2.7c-0.4-1-0.9-1.7-1.6-2c-0.7-0.4-1.6-0.4-2.5,0l-2.1,0.8l2.3,6.4L317.5,449.3z"/>
		<path fill="#FFFFFF" d="M336.7,426.6l7.2-3.6l8.1,16.4c1.7,3.5,2.2,6.5,1.4,9.2c-0.8,2.6-2.7,4.7-5.9,6.3c-3.2,1.6-6,1.9-8.6,0.9
			s-4.7-3.2-6.4-6.7l-8.1-16.4l7.2-3.6l8.4,17c0.6,1.2,1.3,2,1.9,2.4c0.7,0.4,1.5,0.3,2.3-0.1c0.9-0.4,1.4-1,1.5-1.8s-0.1-1.8-0.7-3
			L336.7,426.6z"/>
		<path fill="#FFFFFF" d="M373.6,425c2,3.4,2.8,6.6,2.3,9.5s-2.1,5.3-5,7.1c-3.2,2-6.3,2.5-9.3,1.4s-5.9-3.8-8.6-8
			c-2.8-4.3-4-8.1-3.8-11.4s1.9-6,5.1-8.1c2.6-1.7,5.2-2.1,7.8-1.5c2.6,0.7,5.2,2.5,7.5,5.4l-6.2,5c-1.2-1.5-2.2-2.5-3-2.9
			s-1.5-0.4-2.3,0.1c-1,0.6-1.4,1.6-1.1,2.9s1.2,3.2,2.7,5.6c1.6,2.5,3,4.1,4.1,4.9s2.2,0.8,3.2,0.2c0.8-0.5,1.2-1.2,1.1-2.2
			c0-1-0.5-2.2-1.4-3.9L373.6,425z"/>
		<path fill="#FFFFFF" d="M386,430.1l-13.8-17.4l-4.8,3.8l-4.5-5.7l15.9-12.6l4.5,5.7l-4.8,3.8l13.8,17.4L386,430.1z"/>
		<path fill="#FFFFFF" d="M388.9,388.5l5.8-5.6l12.8,13.1c2.7,2.8,4.1,5.5,4.2,8.3c0.1,2.7-1.1,5.4-3.7,7.8
			c-2.5,2.5-5.2,3.6-7.9,3.5c-2.7-0.1-5.5-1.6-8.2-4.4l-12.8-13.1l5.8-5.6l13.2,13.5c1,1,1.8,1.5,2.6,1.7c0.8,0.1,1.5-0.1,2.2-0.8
			c0.7-0.7,1-1.4,0.9-2.2c-0.1-0.8-0.7-1.6-1.6-2.6L388.9,388.5z"/>
		<path fill="#FFFFFF" d="M427.3,389.6l-10-3.4l-1.3,1.6l7.6,6.3l-4.8,5.9l-22.7-18.7l6.5-7.9c2.1-2.5,4.4-4,6.8-4.3
			c2.5-0.3,4.9,0.4,7.2,2.4c1.2,1,2.1,2.2,2.7,3.6s0.8,2.8,0.7,4.4l12.5,3.8L427.3,389.6z M412.5,382c0.7-0.8,1-1.6,0.9-2.5
			c-0.1-0.8-0.6-1.6-1.4-2.3c-0.8-0.7-1.6-1-2.4-0.9s-1.5,0.5-2.2,1.3l-1.4,1.8l5.2,4.3L412.5,382z"/>
		<path fill="#FFFFFF" d="M434.8,379.9l-24.5-16.3l9.9-14.9l5.7,3.8l-5.4,8.2l3.6,2.4l5.1-7.7l5.7,3.8l-5.1,7.7l3.8,2.5l5.8-8.8
			l5.4,4.3L434.8,379.9z"/>
	</g>
	<polygon fill="#FFFFFF" points="46.6,317.2 49.9,327.3 60.5,327.3 51.9,333.5 55.2,343.7 46.6,337.4 38,343.7 41.3,333.5 
		32.7,327.3 43.3,327.3 	"/>
	<polygon fill="#FFFFFF" points="438,317.2 441.3,327.3 451.9,327.3 443.3,333.5 446.6,343.7 438,337.4 429.4,343.7 432.7,333.5 
		424.1,327.3 434.7,327.3 	"/>
</g>
<g id="Layer_2_1_">
	<g id="Layer_1-2">
		<path fill="#FFFFFF" d="M185.8,116.3c0.8,1-0.7,3.9-0.7,11.3c-0.1,14.6,10,26.2,26.5,26.5s27.4-12.2,27.4-26.6
			c0-13-6.9-47.1-49.7-47.1c-35.1,0-75.3,35.4-76.9,79.3c-1.9,51.7,17.4,82.2,48.7,109.8c0,0,2.9,2.2,4.2,0.7
			c1.5-1.7,1.1-10.4,2.7-15.6c3.2-10.5,5.4-14.1,6.1-15.1c2-3.1,0.5-4.3-0.5-5.3c-9.6-10.7-28.1-30.6-29.2-61.4
			C142.8,124.6,183.1,112.9,185.8,116.3z"/>
		<path fill="#FFFFFF" d="M372.6,165.9c1,0.4,2-0.6,1.7-2.7c-5.3-45.9-44.1-82.8-78.3-82.8c-42.8,0-49.7,34-49.7,47.1
			c0,14.4,11,27,27.4,26.6s27.5-11.6,27.4-26.2c0-7.4-2.3-9.5-0.7-11c2-1.8,28.1,8,39.3,34.8c0.4,1.6,1.6,2.9,3.1,3.5
			c2.4,1,8.7,1.1,15.7,4.2C368.1,163.5,371.2,165.3,372.6,165.9z"/>
		<path fill="#FFFFFF" d="M364.8,225.1c-21.8,53.1-73.3,90.2-142,83.5c-3.8-0.4-4.6-2.5-5-4.4c-0.5-4.8-0.7-9.6-0.7-14.3
			c0-5.2-0.3-8.3,0-11.1c0.2-2.3,1.6-5.1,5-5.4s23.8,1.9,39.1-1.5c33.3-7.3,60.8-30.8,73.1-62.5c0.4-1.2,1.5-2,2.8-2.1
			c1.7,0,1.5-1.6,15.7,5c4.1,1.8,7.8,4.4,11,7.5C365.3,221.1,365.7,223.2,364.8,225.1z"/>
		<path fill="#FFFFFF" d="M385.9,267.6c-1.2,0.2-3-2.5-9.4-6.3c-12.6-7.4-27.7-4.4-36.2,9.7s-3.2,29.9,9.3,37.1
			c11.3,6.5,44.2,17.6,65.6-19.4c17.6-30.4,7-82.9-30.1-106.3c-41.6-26.2-79.2-28.8-119.4-12.8c0,0-3.4,1.4-2.7,3.2
			c0.8,2.1,8.5,6.1,12.2,10.1c7.5,8,9.5,11.7,10,12.8c1.6,3.3,3.5,2.6,4.9,2.2c14.1-2.9,40.5-9,67.8,5.5
			C400.3,226.2,390.2,267,385.9,267.6z"/>
		<path fill="#FFFFFF" d="M249.5,404.4c-0.8,0.7-0.5,2,1.5,2.8c42.4,18.4,93.7,3.3,110.9-26.4c21.4-37-4.6-60-15.9-66.6
			c-12.5-7.2-28.8-4-36.8,10.4s-3.8,29.6,8.9,36.9c6.5,3.7,9.4,2.7,9.9,4.9c0.6,2.6-21,20.3-49.8,16.6c-1.6-0.4-3.3-0.1-4.6,1
			c-2,1.5-5.3,7-11.5,11.5C253.8,401.7,250.7,403.5,249.5,404.4z"/>
		<path fill="#FFFFFF" d="M202.1,368.1c-35.1-45.5-41.4-108.6-1.2-164.8c2.2-3.1,4.4-2.8,6.3-2.1c4.4,2,8.6,4.1,12.8,6.6
			c4.5,2.6,7.3,3.9,9.6,5.6c1.9,1.3,3.6,3.9,2.1,7S218.1,240,213.5,255c-10.4,32.5-3.8,68,17.5,94.6c0.8,0.9,1,2.3,0.4,3.4
			c-0.8,1.5,0.7,2.1-12.2,11.1c-3.6,2.6-7.7,4.6-12,5.8C205.4,370.5,203.3,369.8,202.1,368.1z"/>
		<path fill="#FFFFFF" d="M153.9,365.2c0.5-1.1,3.7-1.3,10.2-5c12.8-7.2,17.8-21.6,9.9-36.1s-24.2-17.8-36.7-10.7
			c-11.3,6.4-37.5,29.2-16.4,66.4c17.3,30.5,68,48,106.9,27.7c43.6-22.7,64.9-53.8,71.4-96.6c0,0,0.5-3.6-1.4-4
			c-2.2-0.4-9.6,4.2-14.9,5.4c-10.7,2.4-14.9,2.2-16.1,2.2c-3.6-0.2-3.9,1.7-4.4,3c-4.6,13.6-12.7,39.5-39,55.7
			C182.4,398.5,152.2,369.2,153.9,365.2z"/>
		<path fill="#FFFFFF" d="M104.7,178.3c-0.2-1-1.5-1.4-3.2-0.2c-37.3,27.3-50.2,79.2-33.3,109c21.2,37.2,54.1,26.4,65.5,19.9
			c12.5-7.1,18-22.9,9.6-37c-8.4-14.2-23.6-18.2-36.3-10.9c-6.4,3.7-7.1,6.7-9.2,6c-2.6-0.8-6.9-28.4,10.8-51.4
			c1.2-1.2,1.8-2.8,1.5-4.5c-0.3-2.5-3.3-8.1-4.1-15.7C104.9,183.4,105,179.8,104.7,178.3z"/>
		<path fill="#FFFFFF" d="M160,155.8c57-7.3,114.7,19.2,142.8,82.2c1.5,3.4,0.2,5.2-1.4,6.5c-3.9,2.8-7.9,5.4-12.1,7.7
			c-4.5,2.6-7.1,4.4-9.7,5.5c-2.1,0.9-5.2,1.2-7.1-1.7c-1.9-2.8-10-21.6-20.6-33.3c-22.8-25.4-56.8-37.7-90.5-32.7
			c-1.2,0.2-2.5-0.3-3.2-1.4c-0.9-1.4-2.1-0.5-3.4-16.1c-0.4-4.4,0-8.9,1.1-13.2C156.3,157.4,158,155.9,160,155.8z"/>
	</g>
</g>
</svg>
