<svg xmlns="http://www.w3.org/2000/svg" width="66" height="66" viewBox="0 0 66 66"><g transform="translate(3550 1236)"><rect width="66" height="66" transform="translate(-3550 -1236)" fill="none"/><g transform="translate(-144 54)"><path d="M36.33,5.367a15.483,15.483,0,0,1,13.137,7.275A15.512,15.512,0,0,1,62.6,35.393,15.514,15.514,0,0,1,49.467,58.144a15.513,15.513,0,0,1-26.274,0,15.5,15.5,0,0,1-12.788-7.617L10.2,50.32c0-.523-4.32-7.036-.139-14.929-4.18-7.888.137-14.4.137-14.926l.208-.208A15.5,15.5,0,0,1,23.19,12.64,15.5,15.5,0,0,1,36.33,5.367ZM11.275,33.458A15.54,15.54,0,0,1,22.2,27.238a15.519,15.519,0,0,1-.076-12.572A13.564,13.564,0,0,0,11.275,33.458Zm1.017,1.936a13.5,13.5,0,0,0,4.674,4.482v0A13.473,13.473,0,0,0,23.2,41.684a15.553,15.553,0,0,1,7.724-6.29A15.536,15.536,0,0,1,23.2,29.1a13.486,13.486,0,0,0-6.235,1.805v0a13.5,13.5,0,0,0-4.674,4.482Zm13.366,6.164a13.563,13.563,0,0,0,8.77-5.06A13.525,13.525,0,0,0,25.657,41.558ZM36.33,33.2a13.571,13.571,0,0,0,0-10.129A13.546,13.546,0,0,0,36.33,33.2ZM35.213,20.882a13.56,13.56,0,0,0-10.9-6.3,13.579,13.579,0,0,0,.011,12.6,15.516,15.516,0,0,1,9.309,3.55,15.526,15.526,0,0,1,1.582-9.843Zm-9.735-8.153A15.554,15.554,0,0,1,36.327,19.08a15.533,15.533,0,0,1,10.852-6.351A13.572,13.572,0,0,0,25.478,12.729Zm11.965,8.153a15.521,15.521,0,0,1,1.582,9.84,15.522,15.522,0,0,1,9.309-3.55,13.587,13.587,0,0,0,.011-12.6,13.528,13.528,0,0,0-6.217,1.805v0a13.528,13.528,0,0,0-4.685,4.5ZM33.631,40.065a15.524,15.524,0,0,1-9.312,3.55,13.587,13.587,0,0,0-.011,12.6,13.559,13.559,0,0,0,10.9-6.3,15.545,15.545,0,0,1-1.579-9.843ZM22.2,43.55A15.545,15.545,0,0,1,11.272,37.33,13.568,13.568,0,0,0,22.121,56.122,15.54,15.54,0,0,1,22.2,43.55ZM36.33,47.722a13.551,13.551,0,0,0,0-10.131A13.551,13.551,0,0,0,36.33,47.722Zm-1.9-13.429a13.551,13.551,0,0,0-8.77-5.06A13.549,13.549,0,0,0,34.425,34.293Zm4.6,5.773a15.521,15.521,0,0,1-1.582,9.84,13.482,13.482,0,0,0,4.685,4.5v0a13.528,13.528,0,0,0,6.217,1.805,13.579,13.579,0,0,0-.011-12.6,15.513,15.513,0,0,1-9.309-3.55Zm-2.7,11.643a15.549,15.549,0,0,1-10.849,6.351,13.571,13.571,0,0,0,21.7,0,15.53,15.53,0,0,1-10.849-6.351ZM47,41.558a13.543,13.543,0,0,0-8.77-5.06A13.569,13.569,0,0,0,47,41.558Zm-5.268-6.164a15.561,15.561,0,0,1,7.724,6.29c1.647-.066,5.189-.809,6.319-1.939h.145A13.5,13.5,0,0,0,60.368,35.4a13.447,13.447,0,0,0-4.448-4.348h-.145c-1.13-1.13-4.672-1.876-6.319-1.939a15.557,15.557,0,0,1-7.724,6.285Zm8.729,8.156a15.529,15.529,0,0,1,.076,12.572A13.565,13.565,0,0,0,61.383,37.328,15.532,15.532,0,0,1,50.461,43.55Zm0-16.311A15.537,15.537,0,0,1,61.383,33.46,13.567,13.567,0,0,0,50.537,14.666a15.54,15.54,0,0,1-.076,12.572ZM47,29.232a13.569,13.569,0,0,0-8.77,5.06A13.536,13.536,0,0,0,47,29.232Z" transform="translate(-3409.235 -1292.367)" fill="#fff" fill-rule="evenodd" opacity="0.8"/></g></g></svg>