<svg xmlns="http://www.w3.org/2000/svg" width="66" height="66" viewBox="0 0 66 66"><g transform="translate(3503 -7795)"><path d="M20.344,56.949,39.414,5.993A.966.966,0,0,1,41.225,6h0L59.918,56.99a2.93,2.93,0,0,1,.549,1.669c0,2.085-2.434,3.859-6.369,5.039-7.753,2.326-20.207,2.326-27.962,0-4.464-1.341-7.81-3.867-5.791-6.751ZM58.52,58.8l-.379-1.036c-.7-.82-2.334-1.611-4.6-2.29-7.387-2.216-19.472-2.216-26.855,0-2.248.676-3.872,1.462-4.582,2.277L21.717,58.8c.15,1.08,2.022,2.161,4.974,3.047,7.387,2.216,19.472,2.216,26.855,0,2.949-.886,4.824-1.966,4.974-3.044Zm-1.485-4.054L40.308,9.111,23.237,54.728c7.757-3.8,26.059-3.8,33.8.018Z" transform="translate(-3510.242 7792.134)" fill-rule="evenodd"/><path d="M0,0H66V66H0Z" transform="translate(-3503 7795)" fill="none"/></g></svg>