<svg xmlns="http://www.w3.org/2000/svg" width="65.907" height="55" viewBox="0 0 65.907 55">
  <g id="Group_7" data-name="Group 7" transform="translate(-927 -285.427)">
    <g id="Group_5" data-name="Group 5" transform="translate(-7.359 -27)">
      <path  class="fill_main-color" id="account-hollaex-user-icon" d="M17.918,19.892A6.465,6.465,0,1,1,24.4,13.427a6.468,6.468,0,0,1-6.484,6.465M4.8,31.345,4.835,32H32.1l-.058-.729a13.4,13.4,0,0,0-2.129-5.678,12.32,12.32,0,0,0-7.156-5.084l-.9-.249.748-.537a7.846,7.846,0,1,0-4.758,1.535H17.9l.038.019c.058,0,.1.019.153.019,4.815,0,8.4,1.669,10.628,4.969a12.557,12.557,0,0,1,1.707,3.818l.153.556H6.178l.077-.518a9.543,9.543,0,0,1,6-7.578.688.688,0,0,0-.537-1.266A11.036,11.036,0,0,0,5.564,27.45,10.692,10.692,0,0,0,4.8,31.345Z" transform="translate(929.564 335.43)" fill="#fff"/>
      <path  class="fill_main-color" id="Path_5" data-name="Path 5" d="M23.341,10.384,29.378,16.2v6.729a4.807,4.807,0,0,0-3,1.733L20.548,21.3l-2.016-8.135a.739.739,0,1,0-1.434.356l1.675,6.753-6.416-3.7a.739.739,0,0,0-.739,1.281l6.417,3.7-6.686,1.926a.739.739,0,1,0,.409,1.42l8.053-2.322,5.824,3.364a4.736,4.736,0,0,0,0,3.469l-5.825,3.363-8.053-2.322a.739.739,0,1,0-.409,1.42L18.033,33.8l-6.416,3.7a.739.739,0,0,0,.739,1.281l6.416-3.7L17.1,41.832a.739.739,0,0,0,1.434.356l2.016-8.135,5.826-3.364a4.807,4.807,0,0,0,3,1.733v6.729l-6.036,5.813a.739.739,0,1,0,1.025,1.065L29.378,41.2V48.61a.739.739,0,0,0,1.478,0V41.2l5.012,4.828a.739.739,0,1,0,1.025-1.065l-6.036-5.812V32.423a4.807,4.807,0,0,0,3-1.733l5.825,3.363L41.7,42.187a.739.739,0,0,0,1.434-.356l-1.675-6.753,6.416,3.7a.739.739,0,1,0,.739-1.281L42.2,33.8l6.685-1.926a.739.739,0,1,0-.409-1.42l-8.052,2.322L34.6,29.409a4.736,4.736,0,0,0,0-3.469l5.825-3.364L48.477,24.9a.739.739,0,1,0,.409-1.42L42.2,21.551l6.417-3.7a.739.739,0,1,0-.739-1.281l-6.416,3.7,1.675-6.753a.739.739,0,1,0-1.434-.356L39.685,21.3,33.86,24.66a4.807,4.807,0,0,0-3-1.733V16.2l6.036-5.813A.739.739,0,1,0,35.867,9.32l-5.012,4.828V6.739a.739.739,0,0,0-1.478,0v7.409L24.366,9.32a.739.739,0,1,0-1.025,1.065ZM33.45,27.675a3.333,3.333,0,1,1-3.333-3.333A3.334,3.334,0,0,1,33.45,27.675Z" transform="translate(950.846 306.427)" fill="#fff"/>
    </g>
  </g>
</svg>
