<svg xmlns="http://www.w3.org/2000/svg" width="20" height="20" viewBox="0 0 18.196 17.029"><g transform="translate(-3114.902 -8236.485)"><path class="fill_main-color" d="M19.881,56h6.68L24.87,57.679a.927.927,0,0,0-.15,1.174h0a.881.881,0,0,0,1.35.123l2.7-2.7a1.667,1.667,0,0,0,.379-.546A1.6,1.6,0,0,0,28.8,54l-2.727-2.727a.881.881,0,0,0-1.365.144.9.9,0,0,0,.161,1.118l1.7,1.7H19.881a.881.881,0,1,0,0,1.761Z" transform="translate(3095.902 8194.279)" fill="#fff"/><path class="fill_main-color" d="M67.392,62H63.92a.916.916,0,0,0-.93.792.881.881,0,0,0,.881.969h3.522a.881.881,0,1,0,0-1.761Z" transform="translate(3064.826 8186.519)" fill="#fff"/><path class="fill_main-color" d="M55.389,24.229h-6.68L50.4,22.55a.927.927,0,0,0,.15-1.174.881.881,0,0,0-.66-.376h-.076a.881.881,0,0,0-.622.258l-2.7,2.7a1.667,1.667,0,0,0-.379.546,1.6,1.6,0,0,0,.346,1.732l2.727,2.727a.881.881,0,0,0,1.365-.144.9.9,0,0,0-.153-1.124l-1.691-1.7h6.68a.881.881,0,0,0,0-1.761Z" transform="translate(3076.828 8215.485)" fill="#fff"/><path class="fill_main-color" d="M19.881,33.761h3.472a.916.916,0,0,0,.93-.792A.881.881,0,0,0,23.4,32H19.881a.881.881,0,0,0,0,1.761Z" transform="translate(3095.902 8207.714)" fill="#fff"/></g></svg>