<?xml version="1.0" encoding="utf-8"?>
<!-- Generator: Adobe Illustrator 27.2.0, SVG Export Plug-In . SVG Version: 6.00 Build 0)  -->
<svg version="1.1" id="Layer_1" xmlns="http://www.w3.org/2000/svg" xmlns:xlink="http://www.w3.org/1999/xlink" x="0px" y="0px"
	 viewBox="0 0 15 15" style="enable-background:new 0 0 15 15;" xml:space="preserve">
<style type="text/css">
	.st0{fill:#FFFFFF;}
</style>
<path class="st0" d="M11.7,1.3c-1.1,0-2,0.9-2,2s0.9,2,2,2s2-0.9,2-2S12.8,1.3,11.7,1.3 M11.7,0.3c1.7,0,3,1.3,3,3s-1.3,3-3,3
	s-3-1.3-3-3S10.1,0.3,11.7,0.3z"/>
<path class="st0" d="M11.7,9.7c-1.1,0-2,0.9-2,2s0.9,2,2,2s2-0.9,2-2S12.8,9.7,11.7,9.7 M11.7,8.7c1.7,0,3,1.3,3,3s-1.3,3-3,3
	s-3-1.3-3-3S10.1,8.7,11.7,8.7z"/>
<path class="st0" d="M3.3,1.3c-1.1,0-2,0.9-2,2s0.9,2,2,2s2-0.9,2-2S4.4,1.3,3.3,1.3 M3.3,0.3c1.7,0,3,1.3,3,3s-1.3,3-3,3
	s-3-1.3-3-3S1.6,0.3,3.3,0.3z"/>
<path class="st0" d="M3.3,9.7c-1.1,0-2,0.9-2,2s0.9,2,2,2s2-0.9,2-2S4.4,9.7,3.3,9.7 M3.3,8.7c1.7,0,3,1.3,3,3s-1.3,3-3,3
	s-3-1.3-3-3S1.6,8.7,3.3,8.7z"/>
</svg>
