<svg xmlns="http://www.w3.org/2000/svg" width="66" height="66" viewBox="0 0 66 66"><g transform="translate(3743 -7795)"><path d="M22.133,5.359H64.472a.969.969,0,0,1,.97.97V48.666a.976.976,0,0,1-.3.707L49.37,65.14a.964.964,0,0,1-.7.3H6.329a.967.967,0,0,1-.686-.284l-.284-.686V22.134l.3-.7L21.434,5.662Zm.4,44.276L8.669,63.5H47.7V49.636ZM7.3,62.133,21.163,48.264l0-25.16H7.3Zm54.836-12.5h-12.5v12.5ZM48.266,21.166,62.132,7.3H23.1V21.163ZM63.5,8.669,49.636,22.535V47.7H63.5ZM8.669,21.166h12.5V8.669ZM47.7,23.1H23.1V47.7H47.7Z" transform="translate(-3745.859 7792.141)" fill-rule="evenodd"/><path d="M0,0H66V66H0Z" transform="translate(-3743 7795)" fill="none"/></g></svg>