<svg xmlns="http://www.w3.org/2000/svg" width="66" height="66" viewBox="0 0 66 66"><g transform="translate(3583 -7795)"><path d="M6.329,5.359H64.472l.686.284a.971.971,0,0,1,.284.686V64.472s-.063.965-.946.967H6.329a.967.967,0,0,1-.686-.284l-.284-.683V6.329a.969.969,0,0,1,.97-.97ZM7.3,62.133l12.6-12.6,0-28.27L7.3,8.668ZM21.266,50.9,8.669,63.5H62.135l-12.6-12.6ZM63.505,8.668l-12.6,12.6v28.27l12.6,12.6ZM49.536,19.9l12.6-12.6L8.669,7.3l12.6,12.6Zm-.568,1.937H21.834V48.967H48.968Z" transform="translate(-3585.859 7792.141)" fill-rule="evenodd"/><path d="M0,0H66V66H0Z" transform="translate(-3583 7795)" fill="none"/></g></svg>