<svg xmlns="http://www.w3.org/2000/svg" width="66" height="66" viewBox="0 0 66 66"><g transform="translate(1985 -7795)"><path d="M60.621,12.323l.005,46.568c0,8.966-40.982,9.156-40.861-.143V12.326c-.127-9.354,41.318-9.085,40.856,0Zm-1.937,43.53V15.224c-7,5.023-29.987,5.023-36.981,0V55.85c6.995-5.02,29.984-5.02,36.981,0Zm-5.01,6.234C69.959,57.2,42.345,51,26.709,55.692,10.424,60.578,38.038,66.778,53.674,62.087Zm0-46.7C69.959,10.5,42.345,4.3,26.709,8.99,10.426,13.876,38.033,20.075,53.674,15.385Z" transform="translate(-1991.764 7792.589)" fill-rule="evenodd"/><path d="M0,0H66V66H0Z" transform="translate(-1985 7795)" fill="none"/></g></svg>