<?xml version="1.0" encoding="utf-8"?>
<!-- Generator: Adobe Illustrator 24.1.3, SVG Export Plug-In . SVG Version: 6.00 Build 0)  -->
<svg version="1.2" baseProfile="tiny" id="Layer_1" xmlns="http://www.w3.org/2000/svg" xmlns:xlink="http://www.w3.org/1999/xlink"
	 x="0px" y="0px" viewBox="0 0 77.5 71.5" overflow="visible" xml:space="preserve">
	<style type="text/css">
		.dai-icon { fill: #f3c27a }
	</style>
<g>
	<g>
		<g transform="matrix(0.26458333,0,0,0.26458333,-33.403463,56.772625)">
			<path d="M271.9-199.5c-66.2,0-120,53.8-120,120s53.8,120,120,120s120-53.8,120-120S338.1-199.5,271.9-199.5z
				 M271.9-187.5c59.7,0,108,48.3,108,108s-48.3,108-108,108s-108-48.3-108-108S212.2-187.5,271.9-187.5z" class="dai-icon"/>
		</g>
	</g>
</g>
<path d="M58.1,31.1h-3.3c-2.4-7.3-9.5-9.8-13.7-10H26.6v10h-3.2v3.5h3.2v3.7h-3.2v3.5h3.2v10.1h1.8l11.9,0
	c4.4-0.1,12.1-2.5,14.5-10.1h3.3v-3.5h-2.6c0.1-0.6,0.1-1.1,0.1-1.7c0-0.7,0-1.4-0.1-2h2.6V31.1z M30.1,24.6l10.9,0
	c0.4,0,7.3,0.5,10,6.5H30.1V24.6z M40.2,48.4H30.1v-6.6H51C48.2,48,40.6,48.3,40.2,48.4z M52.1,36.6c0,0.6,0,1.2-0.1,1.7H30.1v-3.7
	H52C52.1,35.2,52.1,35.9,52.1,36.6z" class="dai-icon"/>
</svg>
