<svg xmlns="http://www.w3.org/2000/svg" width="96.929" height="60.218" viewBox="0 0 96.929 60.218"><g transform="translate(-1663.536 -415.758)"><g transform="translate(335.72 -204.233)"><g transform="translate(1327.816 619.991)"><g transform="translate(0 0)"><path class="fill_main-color" d="M49.165,38.087a3.011,3.011,0,0,1-3.011-3.011V29.054a9.033,9.033,0,0,0-9.033-9.033H19.055a9.033,9.033,0,0,0-9.033,9.033v6.022a3.011,3.011,0,0,1-6.022,0V29.054A15.055,15.055,0,0,1,19.055,14H37.121A15.055,15.055,0,0,1,52.175,29.054v6.022A3.011,3.011,0,0,1,49.165,38.087Z" transform="translate(-4 22.131)" /><path class="fill_main-color" d="M22.055,32.109A15.054,15.054,0,1,1,37.11,17.054,15.055,15.055,0,0,1,22.055,32.109Zm0-24.087a9.033,9.033,0,1,0,9.033,9.033,9.033,9.033,0,0,0-9.033-9.033Z" transform="translate(2.033 -2)" /></g></g><g transform="translate(1387.666 637.543)"><g transform="translate(0 0)"><path class="fill_main-color" d="M38.761,32.539a2.317,2.317,0,0,1-2.317-2.317V25.587a6.952,6.952,0,0,0-6.952-6.952h-13.9a6.952,6.952,0,0,0-6.952,6.952v4.635a2.317,2.317,0,0,1-4.635,0V25.587A11.587,11.587,0,0,1,15.587,14h13.9A11.587,11.587,0,0,1,41.079,25.587v4.635A2.317,2.317,0,0,1,38.761,32.539Z" transform="translate(-4 10.127)" /><path class="fill_main-color" d="M-6499.829-6736.817a1.744,1.744,0,0,1-1.237-.513l-15.188-15.187a1.749,1.749,0,0,1,0-2.475,1.749,1.749,0,0,1,2.475,0l15.188,15.188a1.749,1.749,0,0,1,0,2.475A1.743,1.743,0,0,1-6499.829-6736.817Z" transform="translate(6526.997 6753.755)" /><path class="fill_main-color" d="M-6515.018-6736.817a1.744,1.744,0,0,1-1.237-.513,1.749,1.749,0,0,1,0-2.475l15.188-15.187a1.749,1.749,0,0,1,2.475,0,1.749,1.749,0,0,1,0,2.475l-15.187,15.188A1.744,1.744,0,0,1-6515.018-6736.817Z" transform="translate(6526.996 6753.755)" /></g></g></g></g></svg>