<svg xmlns="http://www.w3.org/2000/svg" width="20" height="20" viewBox="0 0 18.196 18.198"><g transform="translate(4708 -2284)"><path class="fill_main-color" d="M35.966,23.7h-.881V21.641A2.642,2.642,0,0,0,32.444,19H24.329a3.308,3.308,0,0,0-3.317,2.917,3.233,3.233,0,0,0,3.214,3.54h11.74a.881.881,0,0,1,.881.881v8.218a.881.881,0,0,1-.881.881H33.375a.916.916,0,0,0-.93.792.881.881,0,0,0,.881.969h2.642a2.642,2.642,0,0,0,2.642-2.642V26.337A2.642,2.642,0,0,0,35.966,23.7Zm-2.642,0H24.279a1.509,1.509,0,0,1-1.52-1.321,1.468,1.468,0,0,1,1.468-1.614h8.218a.881.881,0,0,1,.881.881Z" transform="translate(-4728.412 2265.001)" fill="#fff"/><circle class="fill_main-color" cx="0.881" cy="0.881" r="0.881" transform="translate(-4695.675 2294.56)" fill="#fff"/><path class="fill_main-color" d="M19.881,66.761a2.055,2.055,0,0,1,2.055,2.055.881.881,0,1,0,1.761,0A3.816,3.816,0,0,0,19.881,65a.881.881,0,1,0,0,1.761Z" transform="translate(-4727 2232.495)" fill="#fff"/><path class="fill_main-color" d="M19.881,50.761a6.751,6.751,0,0,1,6.751,6.751.881.881,0,0,0,1.761,0A8.512,8.512,0,0,0,19.881,49a.881.881,0,1,0,0,1.761Z" transform="translate(-4727 2243.798)" fill="#fff"/></g></svg>