<svg xmlns="http://www.w3.org/2000/svg" width="20" height="20" viewBox="0 0 17.612 18.197"><g transform="translate(-3115.194 -8235.901)"><path class="fill_main-color" d="M19.993,55.922a.881.881,0,0,0,.4.652.9.9,0,0,0,1.127-.153l1.7-1.7V59.65a.881.881,0,0,0,1.761,0V54.73l1.679,1.691a.927.927,0,0,0,1.174.15.881.881,0,0,0,.123-1.35l-2.7-2.7a1.673,1.673,0,0,0-.546-.379,1.6,1.6,0,0,0-1.732.346l-2.727,2.727a.881.881,0,0,0-.264.7Z" transform="translate(3143.412 8306.123) rotate(180)" fill="#fff"/><path class="fill_main-color" d="M28.044,22.522a3.522,3.522,0,1,0-3.522,3.522A3.522,3.522,0,0,0,28.044,22.522Zm-5.283,0a1.761,1.761,0,1,1,1.761,1.761A1.761,1.761,0,0,1,22.761,22.522Z" transform="translate(3094.49 8216.901)" fill="#fff"/><path class="fill_main-color" d="M56.107,19a.881.881,0,0,0-.881.881V24.8l-1.679-1.691a1,1,0,0,0-.7-.294.816.816,0,0,0-.473.144.881.881,0,0,0-.123,1.35l2.7,2.7a1.67,1.67,0,0,0,.546.379,1.6,1.6,0,0,0,1.732-.346l2.727-2.727a.881.881,0,0,0-.147-1.365.9.9,0,0,0-1.121.161l-1.7,1.691V19.881A.881.881,0,0,0,56.107,19Z" transform="translate(3072.59 8216.901)" fill="#fff"/><path class="fill_main-color" d="M55,60.522A3.522,3.522,0,1,0,58.522,57,3.522,3.522,0,0,0,55,60.522Zm5.283,0a1.761,1.761,0,1,1-1.761-1.761A1.761,1.761,0,0,1,60.283,60.522Z" transform="translate(3070.468 8190.055)" fill="#fff"/></g></svg>