<svg xmlns="http://www.w3.org/2000/svg" width="66" height="66" viewBox="0 0 66 66"><g transform="translate(2941 -7795)"><path d="M5.585,22.093a.964.964,0,0,1,.158-1.275l9.648-8.438a.976.976,0,0,1,.513-.266c2.121-.4,19.214-3.919,19.755-3.806l19.361,3.809a.952.952,0,0,1,.5.263c1.228,1.144,9.674,8.215,9.908,8.812l-.105.9-29.064,41.9a.965.965,0,0,1-1.611-.005Zm18.88,3.389,8.9-8.026L17.989,14.432Zm10.988-7.3-8.7,7.847H44.156Zm2.082-.726,8.9,8.026,6.475-11.051Zm-2.082-7.219L21.084,13.068,35.453,15.9l14.366-2.829Zm11.99,17.529L38.2,57.791,62.142,23.278ZM32.7,57.791,23.46,27.768l-14.7-4.49ZM25.539,27.96,35.45,60.17l9.911-32.21Zm-3.391-2.61L15.826,14.561l-7.5,6.567Zm26.606,0,13.827-4.222-7.5-6.567Z" transform="translate(-2942.913 7792.195)" fill-rule="evenodd"/><path d="M0,0H66V66H0Z" transform="translate(-2941 7795)" fill="none"/></g></svg>