<svg xmlns="http://www.w3.org/2000/svg" width="66" height="66" viewBox="0 0 66 66"><g transform="translate(3182 -7795)"><path d="M55.5,11.4c1.012.97,9.819,9.24,9.887,9.611a.984.984,0,0,1-.126.923L36.019,64.244a.962.962,0,0,1-1.4-.195L5.552,21.921a.968.968,0,0,1,.131-1.278L15.32,11.4a.978.978,0,0,1,.494-.284L28.433,8.183l14.227.039,12.352,2.894a.948.948,0,0,1,.484.281ZM44.549,24.992l-2.873-9.056H29.139l-2.873,9.056Zm-.925-9.322,2.9,9.135,16.023-3.967L54.5,13.12ZM35.409,59.9,44.6,26.932l-18.385,0ZM46.652,26.766,37.888,58.2,62.236,22.908ZM8.273,20.838,24.3,24.805l2.9-9.135L16.32,13.12Zm.308,2.069L32.928,58.2,24.164,26.766ZM20.267,12.058,28.538,14H42.278l8.27-1.937-8.27-1.937H28.538Z" transform="translate(-3184.87 7792.317)" fill-rule="evenodd"/><path d="M0,0H66V66H0Z" transform="translate(-3182 7795)" fill="none"/></g></svg>