<svg xmlns="http://www.w3.org/2000/svg" width="66" height="66" viewBox="0 0 66 66"><g transform="translate(3422 -7795)"><path d="M35.46,13.678,27.734,23.722H43.186ZM45.9,25.66l-8.336,32.5,25-32.5Zm-12.542,32.5-8.336-32.5H8.352Zm-6.343-32.5H43.906L35.46,58.6ZM15.266,11.567a.971.971,0,0,1,.812-.442H54.839a.967.967,0,0,1,.812.442l9.771,12.755-.137.97L36.052,63.249a.966.966,0,0,1-1.354-.174L5.669,25.339a.967.967,0,0,1,0-1.3Zm37.61,1.5L45.15,23.108,37.424,13.063Zm-19.379,0L25.768,23.108,18.044,13.063Zm29.071,10.66L54.842,13.678,47.116,23.723Zm-38.764,0L16.078,13.678,8.352,23.723Z" transform="translate(-3423.918 7791.374)" fill-rule="evenodd"/><path d="M0,0H66V66H0Z" transform="translate(-3422 7795)" fill="none"/></g></svg>