<svg xmlns="http://www.w3.org/2000/svg" width="89.886" height="86.004" viewBox="0 0 89.886 86.004">
  <g id="Group_7" data-name="Group 7" transform="translate(-1018.838 -204.022)">
    <path id="Path_9" data-name="Path 9" d="M2023.192,6388.479l-5.45-2.307a1.34,1.34,0,0,0-1.437.417l-5.583,7.092c-.249.315-.22.663.152.82l5.45,2.308a1.341,1.341,0,0,0,1.437-.417l5.583-7.091C2023.587,6388.99,2023.572,6388.64,2023.192,6388.479Z" transform="translate(-945.504 -6144.081)" fill="#e0f"/>
    <g id="Group_6" data-name="Group 6" transform="translate(1019.042 204.222)">
      <path id="Path_9-2" data-name="Path 9" d="M1977.238,6386.019l4.246,1.8a1.2,1.2,0,0,1,.427,1.915l-4.349,5.524a1.791,1.791,0,0,1-2.015.565l-4.246-1.8a1.2,1.2,0,0,1-.427-1.915l4.349-5.525A1.792,1.792,0,0,1,1977.238,6386.019Zm73.265,30.908,4.246,1.8a1.2,1.2,0,0,1,.427,1.915l-4.35,5.523a1.79,1.79,0,0,1-2.015.565l-4.246-1.8a1.2,1.2,0,0,1-.427-1.915l4.349-5.524A1.791,1.791,0,0,1,2050.5,6416.927Zm3.809,2.673-4.162-1.763a.9.9,0,0,0-.939.277l-4.349,5.524c-.121.153-.137.3.056.382l4.246,1.8a.894.894,0,0,0,.939-.277l4.349-5.524C2054.639,6419.777,2054.525,6419.69,2054.312,6419.6Zm-5.3-25.445,3.559-4.521c.151-.176.172-.287-.045-.4l-4.246-1.8a.788.788,0,0,0-.817.122l-.452.574A15.788,15.788,0,0,1,2049.007,6394.154Zm-.05,7.22,4.223,1.788a1.2,1.2,0,0,1,.427,1.915l-4.349,5.524a1.79,1.79,0,0,1-2.014.564l-1.708-.723a21.212,21.212,0,0,1-3.154,3.238.51.51,0,0,1-.017.6l-5.563,7.066a.454.454,0,0,1-.659.067.507.507,0,0,1-.064-.69l4.438-5.637a30.371,30.371,0,0,1-11.217,4.546,35.954,35.954,0,0,1-11.492.369l-4.038,5.279a1.7,1.7,0,0,1-2.019.57l-4.246-1.8a1.2,1.2,0,0,1-.427-1.915l3.164-4.018q-.545-.208-1.082-.435a28.549,28.549,0,0,1-3.813-1.955l-4.134,5.251c-.39.5-1.114-.126-.723-.623l4.05-5.145a26.731,26.731,0,0,1-3.729-3.074c-.193-.187-.448-.317-.645.022l-4.35,5.524a1.79,1.79,0,0,1-2.014.564l-4.246-1.8a1.2,1.2,0,0,1-.427-1.915l4.349-5.524a1.791,1.791,0,0,1,2.014-.565l3.427,1.451a16.571,16.571,0,0,1-2.835-6.274c-.063-.3-.126-.737-.184-1.272l-.514.653a1.662,1.662,0,0,1-1.893.41l-4.246-1.8a1.131,1.131,0,0,1-.548-1.761l4.593-5.833a1.661,1.661,0,0,1,1.893-.41l.7.295a16.37,16.37,0,0,1,3.5-8.034,23.577,23.577,0,0,1,7.93-6.323l-.521-.22a1.132,1.132,0,0,1-.549-1.761l4.593-5.834a1.663,1.663,0,0,1,1.893-.41l4.246,1.8a1.131,1.131,0,0,1,.548,1.761l-1.386,1.76a35,35,0,0,1,19.567,2.054,23.633,23.633,0,0,1,10.771,8.563l.257-.326a1.661,1.661,0,0,1,1.893-.41l4.246,1.8a1.131,1.131,0,0,1,.548,1.76l-4.322,5.49A44.121,44.121,0,0,1,2048.957,6401.374Zm-.131,1a17.208,17.208,0,0,1-2.7,7.255l1.471.623a.9.9,0,0,0,.939-.277l4.349-5.524c.121-.153.137-.3-.056-.382Zm-32.1,17.47a33.474,33.474,0,0,1-5.543-1.384l-3.385,4.3c-.121.153-.137.3.056.382l4.246,1.8a.884.884,0,0,0,.935-.273Zm-20.947-18.88c-.052-.75-.091-1.58-.108-2.426a35.073,35.073,0,0,1,.093-3.618l-.933-.4a.788.788,0,0,0-.817.122l-4.292,5.452c-.263.333-.408.488.036.676l4.087,1.73a.785.785,0,0,0,.817-.122Zm.962.32a19.078,19.078,0,0,0,.257,2.129,16.268,16.268,0,0,0,4.156,7.7,24.281,24.281,0,0,0,8.355,5.662,34.134,34.134,0,0,0,19.615,1.892c6.373-1.252,12.086-4.278,15.631-8.779a16.3,16.3,0,0,0,3.253-8.5,17.562,17.562,0,0,1-2.53,4.325c-3.69,4.687-9.6,7.829-16.182,9.122a35.046,35.046,0,0,1-20.14-1.946c-5.2-2.2-10.2-6.076-12.363-11.668Zm51.42-5.485a14.975,14.975,0,0,0-1.846-7.025c-2.354-4.271-6.671-7.347-10.962-9.163a34.125,34.125,0,0,0-19.615-1.893c-5.8,1.141-11.814,3.932-15.63,8.779a14.392,14.392,0,0,0-2.816,13.263c1.768,5.9,6.929,9.974,12.218,12.213a34.133,34.133,0,0,0,19.615,1.893c6.373-1.252,12.086-4.278,15.631-8.78a16.491,16.491,0,0,0,2.454-4.25A13.894,13.894,0,0,0,2048.162,6395.8Zm-39.673-16.81a32.135,32.135,0,0,1,6.208-2.054l2-2.54c.146-.172.176-.249-.073-.36l-4.246-1.8a.786.786,0,0,0-.817.122l-4.374,5.555c-.208.265-.311.392.042.542Zm31.3,16.871c.39-.5,1.114.126.723.623l-8.378,10.643c-.391.5-1.114-.126-.724-.622Zm-16.174-7.22,6.394,2.707a1.556,1.556,0,0,1,.549,2.5l-6.55,8.32a2.47,2.47,0,0,1-2.762.778l-6.394-2.708a1.555,1.555,0,0,1-.549-2.5l6.55-8.32A2.469,2.469,0,0,1,2023.617,6388.645Zm6.042,3.618-6.394-2.707a1.572,1.572,0,0,0-1.686.489l-6.55,8.32c-.292.371-.258.778.178.963l6.394,2.707a1.574,1.574,0,0,0,1.686-.489l6.55-8.32C2030.122,6392.862,2030.1,6392.452,2029.659,6392.263Zm-16.9-7.843c.391-.5,1.114.126.723.623l-8.378,10.643c-.391.5-1.114-.125-.723-.622Zm-17.671-5.854,4.246,1.8a1.2,1.2,0,0,1,.427,1.915l-4.35,5.525a1.792,1.792,0,0,1-2.015.564l-4.246-1.8a1.2,1.2,0,0,1-.427-1.914l4.349-5.525A1.794,1.794,0,0,1,1995.091,6378.565Zm3.8,2.671-4.156-1.76a.9.9,0,0,0-.939.276l-4.3,5.474c-.142.146-.149.368.044.45l4.206,1.78a.9.9,0,0,0,.939-.276L1999,6381.7C1999.195,6381.46,1999.109,6381.327,1998.895,6381.236Zm60.292,10.136c.391-.5,1.114.126.724.623l-5.563,7.066c-.391.5-1.114-.125-.724-.622Zm-53.844-22.8c.391-.5,1.114.126.724.623l-5.563,7.066c-.391.5-1.114-.125-.723-.623Zm53.056,8.627c.391-.5,1.114.125.723.622l-5.563,7.067c-.391.5-1.114-.126-.724-.623Zm-10.559-4.843,4.246,1.8a1.2,1.2,0,0,1,.427,1.915l-4.349,5.524a1.792,1.792,0,0,1-2.015.565l-4.246-1.8a1.2,1.2,0,0,1-.427-1.915l4.349-5.524A1.791,1.791,0,0,1,2047.839,6372.358Zm3.893,2.709-4.246-1.8a.9.9,0,0,0-.939.276l-4.349,5.524c-.121.154-.137.3.056.382l4.246,1.8a.9.9,0,0,0,.938-.276l4.35-5.525C2051.909,6375.295,2051.925,6375.148,2051.732,6375.067Zm-11.282-5.466c.39-.5,1.114.126.723.623l-5.563,7.066c-.391.5-1.114-.125-.723-.622Zm-10.559-4.842,4.246,1.8a1.2,1.2,0,0,1,.427,1.915l-4.349,5.524a1.792,1.792,0,0,1-2.015.565l-4.246-1.8a1.2,1.2,0,0,1-.427-1.915l4.349-5.524A1.791,1.791,0,0,1,2029.891,6364.76Zm3.893,2.708-4.246-1.8a.894.894,0,0,0-.939.277l-4.349,5.524c-.121.153-.137.3.056.382l4.246,1.8a.9.9,0,0,0,.938-.277l4.349-5.525C2033.961,6367.7,2033.977,6367.55,2033.784,6367.468ZM2022.5,6362c.391-.5,1.114.125.723.622l-5.563,7.066c-.391.5-1.114-.125-.724-.622Zm35.589.364c.391-.5,1.114.125.724.622l-5.564,7.067c-.391.5-1.114-.126-.723-.623Zm-10.559-4.843,4.246,1.8a1.2,1.2,0,0,1,.427,1.915l-4.349,5.525a1.79,1.79,0,0,1-2.014.564l-4.246-1.8a1.2,1.2,0,0,1-.427-1.915l4.349-5.525A1.792,1.792,0,0,1,2047.532,6357.524Zm3.893,2.708-4.246-1.8a.9.9,0,0,0-.938.277l-4.35,5.524c-.121.154-.137.3.056.382l4.246,1.8a.894.894,0,0,0,.939-.276l4.349-5.524C2051.6,6360.461,2051.618,6360.314,2051.425,6360.232Zm-11.282-5.465c.391-.5,1.114.125.723.622l-5.563,7.067c-.391.5-1.114-.126-.723-.623Zm-25.913,75.455,4.246,1.8a1.2,1.2,0,0,1,.427,1.915l-4.349,5.524a1.791,1.791,0,0,1-2.015.564l-4.246-1.8a1.2,1.2,0,0,1-.427-1.914l4.349-5.525A1.79,1.79,0,0,1,2014.23,6430.223Zm3.82,2.677-4.172-1.767a.9.9,0,0,0-.939.277l-4.349,5.524c-.121.154-.137.3.056.382l4.246,1.8a.9.9,0,0,0,.939-.277l4.349-5.524C2018.362,6433.08,2018.26,6432.988,2018.05,6432.9Zm-11.209-5.434c.391-.5,1.114.125.724.622l-5.563,7.067c-.391.5-1.114-.126-.723-.623Zm-10.559-4.843,4.246,1.8a1.2,1.2,0,0,1,.427,1.915l-4.35,5.524a1.792,1.792,0,0,1-2.014.565l-4.246-1.8a1.2,1.2,0,0,1-.427-1.915l4.349-5.525A1.793,1.793,0,0,1,1996.282,6422.623Zm3.893,2.709-4.246-1.8a.9.9,0,0,0-.939.276l-4.286,5.444a.311.311,0,0,0,.118.515l4.12,1.745a.9.9,0,0,0,.939-.276l4.349-5.525C2000.352,6425.56,2000.368,6425.413,2000.175,6425.332Zm-11.282-5.466c.39-.5,1.114.126.723.623l-5.563,7.066c-.391.5-1.114-.125-.724-.622Zm-10.559-4.842,4.246,1.8a1.2,1.2,0,0,1,.427,1.915l-4.349,5.524a1.791,1.791,0,0,1-2.015.565l-4.246-1.8a1.2,1.2,0,0,1-.427-1.915l4.349-5.524A1.789,1.789,0,0,1,1978.334,6415.024Zm3.812,2.674-4.165-1.764a.894.894,0,0,0-.938.277l-4.326,5.473a.285.285,0,0,0,.091.457l4.188,1.773a.9.9,0,0,0,.939-.276l4.349-5.524C1982.469,6417.877,1982.359,6417.788,1982.146,6417.7Zm49.244,5.952,4.246,1.8a1.2,1.2,0,0,1,.427,1.915l-4.35,5.524a1.791,1.791,0,0,1-2.015.565l-4.246-1.8a1.2,1.2,0,0,1-.427-1.915l4.349-5.524A1.792,1.792,0,0,1,2031.389,6423.65Zm3.83,2.682-4.182-1.771a.9.9,0,0,0-.939.276l-4.091,5.2c-.382.484-.479.594.055.819l3.988,1.688a.9.9,0,0,0,.939-.276l4.349-5.524C2035.514,6426.519,2035.429,6426.421,2035.219,6426.332ZM2024,6420.894c.391-.5,1.114.126.723.623l-5.563,7.066c-.391.5-1.114-.125-.723-.622Zm-24.785-9.806-4.075-1.726a.9.9,0,0,0-.939.277l-4.349,5.524c-.121.154-.137.3.056.382l4.246,1.8a.9.9,0,0,0,.939-.277l4.231-5.374C1999.619,6411.317,1999.635,6411.266,1999.216,6411.088ZM1988.1,6405.7c.391-.5,1.114.125.724.622l-5.563,7.067c-.391.5-1.114-.126-.723-.623Zm-10.559-4.843,4.246,1.8a1.2,1.2,0,0,1,.427,1.915l-4.35,5.524a1.791,1.791,0,0,1-2.014.565l-4.246-1.8a1.2,1.2,0,0,1-.427-1.915l4.349-5.525A1.792,1.792,0,0,1,1977.545,6400.853Zm3.791,2.665-4.144-1.754a.9.9,0,0,0-.939.276l-4.349,5.524c-.121.154-.137.3.056.382l4.246,1.8a.9.9,0,0,0,.939-.276l4.349-5.525C1981.692,6403.691,1981.553,6403.609,1981.336,6403.518Zm6.46-12.656c.391-.5,1.114.125.723.622l-5.563,7.067c-.391.5-1.114-.126-.723-.623Zm-6.737-2.164-4.175-1.768a.894.894,0,0,0-.939.276l-4.315,5.481a.272.272,0,0,0,.072.446l4.2,1.776a.9.9,0,0,0,.939-.277l4.349-5.524C1981.368,6388.879,1981.271,6388.785,1981.06,6388.7Z" transform="translate(-1970.57 -6354.584)" fill="#fff" stroke="#fff" stroke-width="0.4"/>
    </g>
  </g>
</svg>
