<svg xmlns="http://www.w3.org/2000/svg" width="32.499" height="32.858" viewBox="0 0 32.499 32.858">
  <g id="digital-assets-coins" transform="translate(-361.501 -124.749)">
    <path id="Path_1808" data-name="Path 1808" d="M54.031,36.172h0c-5.426,0-9.84-3.066-9.84-6.835S48.6,22.5,54.031,22.5s9.841,3.066,9.841,6.835S59.458,36.172,54.031,36.172Zm0-12.489c-4.776,0-8.661,2.536-8.661,5.654s3.884,5.653,8.658,5.654v.591l0-.591c4.774,0,8.659-2.536,8.659-5.654S58.806,23.683,54.031,23.683Z" transform="translate(330.127 102.248)" fill="#fff"/>
    <path id="Path_1809" data-name="Path 1809" d="M41.614,60.113a.591.591,0,0,1-.353-1.065A8.305,8.305,0,1,0,29.643,47.426a.591.591,0,1,1-.948-.706A9.487,9.487,0,1,1,41.967,60,.6.6,0,0,1,41.614,60.113Z" transform="translate(336.514 93.905)" fill="#fff"/>
    <path id="Path_1810" data-name="Path 1810" d="M31.988,64.971a9.487,9.487,0,1,1,9.487-9.487A9.5,9.5,0,0,1,31.988,64.971Zm0-17.792a8.305,8.305,0,1,0,8.306,8.3A8.314,8.314,0,0,0,31.988,47.179Z" transform="translate(339 92.636)" fill="#fff"/>
    <path id="Path_1811" data-name="Path 1811" d="M57.607,47.17a13.5,13.5,0,0,1-4.273-.671.591.591,0,1,1,.374-1.122,12.325,12.325,0,0,0,3.9.61c4.774,0,8.659-2.536,8.659-5.654a.591.591,0,1,1,1.182,0C67.448,44.1,63.034,47.17,57.607,47.17Z" transform="translate(326.551 95.194)" fill="#fff"/>
    <path id="Path_1812" data-name="Path 1812" d="M46.578,43.276a.59.59,0,0,1-.448-.206,5.2,5.2,0,0,1-1.341-3.4.591.591,0,0,1,1.182,0A4.035,4.035,0,0,0,47.026,42.3a.591.591,0,0,1-.063.833A.585.585,0,0,1,46.578,43.276Z" transform="translate(329.882 95.465)" fill="#fff"/>
    <path id="Path_1813" data-name="Path 1813" d="M58.723,53.844a14.069,14.069,0,0,1-2.585-.236.591.591,0,0,1,.218-1.161,12.9,12.9,0,0,0,2.367.216c4.774,0,8.659-2.536,8.659-5.654a.591.591,0,1,1,1.182,0C68.564,50.778,64.149,53.844,58.723,53.844Z" transform="translate(325.436 92.464)" fill="#fff"/>
    <path id="Path_1814" data-name="Path 1814" d="M58.41,60.52a14.012,14.012,0,0,1-3.057-.332.591.591,0,0,1,.258-1.153,12.818,12.818,0,0,0,2.8.3c4.774,0,8.659-2.536,8.659-5.654a.591.591,0,1,1,1.182,0C68.251,57.454,63.836,60.52,58.41,60.52Z" transform="translate(325.749 89.732)" fill="#fff"/>
    <path id="Path_1815" data-name="Path 1815" d="M76.091,49.3a.59.59,0,0,1-.591-.591V33.66a.591.591,0,1,1,1.182,0V48.705A.59.59,0,0,1,76.091,49.3Z" transform="translate(317.318 97.925)" fill="#fff"/>
    <path id="Path_1816" data-name="Path 1816" d="M44.78,40.3a.591.591,0,0,1-.591-.591V33.66a.591.591,0,1,1,1.182,0v6.051A.591.591,0,0,1,44.78,40.3Z" transform="translate(330.127 97.925)" fill="#fff"/>
    <path id="Path_1817" data-name="Path 1817" d="M57.128,67.194a13.369,13.369,0,0,1-5-.941.591.591,0,1,1,.447-1.094,12.17,12.17,0,0,0,4.556.853c4.774,0,8.659-2.537,8.659-5.654a.591.591,0,1,1,1.182,0C66.969,64.127,62.554,67.194,57.128,67.194Z" transform="translate(327.031 87.003)" fill="#fff"/>
  </g>
</svg>
