<?xml version="1.0" encoding="utf-8"?>
<!-- Generator: Adobe Illustrator 24.1.3, SVG Export Plug-In . SVG Version: 6.00 Build 0)  -->
<svg version="1.2" baseProfile="tiny" id="Layer_1" xmlns="http://www.w3.org/2000/svg" xmlns:xlink="http://www.w3.org/1999/xlink"
	 x="0px" y="0px" viewBox="0 0 50 50" overflow="visible" xml:space="preserve">
<g id="Group_947" transform="translate(-8 -31)">
	<path id="Path_1413" fill-rule="evenodd" fill='#ffffff' d="M19.5,53.2c-5.7,0-6.4-7.2-6.4-11.3c0.1-3.5,3.1-6.2,6.6-6.1c3.3,0.1,6,2.8,6.1,6.1
		C25.8,46.1,25,53.2,19.5,53.2z M31.7,50.4h24c0.5,0,0.9,0.4,0.9,0.9v16.9c0,0.5-0.4,0.9-0.9,0.9h-7.5v4h3.6c0.9,0,0.9,2.1,0,2.1
		h-5.4c0.2-0.5,0.3-1.1,0.3-1.6c0-0.6-0.2-1.2-0.4-1.8c-0.6-1.2-1.8-1.9-3.1-1.8h-3.9v-0.9h-4.5l-0.6-1.5h20.9V51.9H32.5v11.8
		l-1.6-3.3v-9.1C30.9,50.8,31.2,50.4,31.7,50.4z M34.4,62.3h18.8v-2.7H34.4V62.3z M34.4,57.7H37v-4h-2.5V57.7z M38.4,57.7h14.8v-4
		H38.4L38.4,57.7z M41.3,64.3c0.4,0,0.7,0.3,0.7,0.7c0,0,0,0.1,0,0.1c0.1,0.4-0.2,0.8-0.6,0.9s-0.8-0.2-0.9-0.6c0-0.1,0-0.2,0-0.3
		C40.5,64.6,40.8,64.3,41.3,64.3C41.2,64.3,41.2,64.3,41.3,64.3z M46.2,64.3c0.5,0,0.9,0.3,0.9,0.7c0,0.5-0.4,0.9-0.9,0.9
		c-0.5,0-0.8-0.4-0.7-0.9C45.4,64.6,45.7,64.3,46.2,64.3C46.1,64.3,46.2,64.3,46.2,64.3L46.2,64.3z M43.8,64.3
		c0.4,0,0.7,0.3,0.7,0.7c0,0,0,0.1,0,0.1c0.1,0.4-0.2,0.8-0.6,0.9c-0.4,0.1-0.8-0.2-0.9-0.6c0-0.1,0-0.2,0-0.3
		C43,64.6,43.3,64.3,43.8,64.3C43.8,64.3,43.8,64.3,43.8,64.3L43.8,64.3z M29.5,71.9V75c-0.1,0.7-0.7,1.2-1.3,1.2H10.7
		c-0.7,0-1.3-0.5-1.3-1.2V60.4c0-7.5,17-7,20.1-0.4l5.1,11h8.7c3.3,0,3.3,5.1,0,5.1h-10c-0.9-0.1-1.7-0.6-2.2-1.3L29.5,71.9z"/>
</g>
</svg>
