<svg xmlns="http://www.w3.org/2000/svg" viewBox="0 0 26.687 25.201">
  <g id="Group_5372" data-name="Group 5372" transform="translate(-1085.301 -140.5)">
    <g id="Group_5372-2" data-name="Group 5372" transform="translate(1085.301 140.5)">
      <path id="Path_7678" data-name="Path 7678" d="M20.628,42.065H34.182a.543.543,0,0,1,.505.505v9.513a.543.543,0,0,1-.505.505H29.973v2.273h2.02c.505,0,.505,1.179,0,1.179H28.963a3.027,3.027,0,0,0,.168-.926,2.242,2.242,0,0,0-.253-1.01,1.89,1.89,0,0,0-1.768-1.01H24.922v-.505H22.4l-.337-.842H33.845v-8.84h-12.8v6.651l-.926-1.852V42.571A.543.543,0,0,1,20.628,42.065ZM22.143,48.8H32.751V47.285H22.143Zm0-2.61h1.431V43.918H22.143Zm2.273,0h8.334V43.918H24.416Zm1.6,3.7a.4.4,0,0,1,.421.421.428.428,0,1,1-.842,0A.4.4,0,0,1,26.016,49.895Zm2.778,0a.471.471,0,0,1,.505.421.543.543,0,0,1-.505.505.471.471,0,0,1-.421-.505A.4.4,0,0,1,28.794,49.895Zm-1.347,0a.4.4,0,0,1,.421.421.428.428,0,1,1-.842,0A.4.4,0,0,1,27.447,49.895Zm-8.082,4.294v1.768a.742.742,0,0,1-.758.673H8.758A.742.742,0,0,1,8,55.956v-8.25c0-4.209,9.6-3.957,11.365-.253l2.862,6.23H27.11a1.432,1.432,0,0,1,0,2.862H21.47a1.7,1.7,0,0,1-1.263-.758Z" transform="translate(-8 -31.429)" fill-rule="evenodd" fill='#ffffff'/>
      <path id="Path_7681" data-name="Path 7681" d="M19.389,12.5a2.421,2.421,0,0,0,1.193,2.759c-.82-4.249,3.33-5.641,3.33-5.641-.323,2.907,3.181,3.777,3.181,7.231A4.945,4.945,0,0,1,22.147,21.8,4.87,4.87,0,0,1,17.2,16.9C17.2,13.522,19.389,12.5,19.389,12.5Z" transform="translate(-16.681 -9.621)" fill="red"/>
    </g>
  </g>
</svg>
