<?xml version="1.0" encoding="utf-8"?>
<!-- Generator: Adobe Illustrator 19.0.0, SVG Export Plug-In . SVG Version: 6.00 Build 0)  -->
<svg version="1.1" id="Layer_1" xmlns="http://www.w3.org/2000/svg" xmlns:xlink="http://www.w3.org/1999/xlink" x="0px" y="0px"
	 viewBox="-449 252.3 59.6 57.7" style="enable-background:new -449 252.3 59.6 57.7;" xml:space="preserve">
<style type="text/css">
	.st0{fill:#C6C5C4;}
</style>
<path id="XMLID_1955_" class="st0" d="M-400.9,295.3v-29.2c0-2.9-2.4-5.3-5.3-5.3h-24c-2.9,0-5.2,2.3-5.3,5.2v24.4h-2.3
	c-2.7,0-4.9,2.2-4.9,4.9c0,3.6,2.9,6.7,6.5,7h0.2h28.1C-404,302.3-400.9,299.2-400.9,295.3z M-435.8,300.2c-2.7,0-4.9-2.2-4.9-4.9
	c0-1.5,1.2-2.8,2.8-2.8h22.9v2.8c0,1.5,0.5,2.9,1.3,4.1l0.6,0.8C-413.1,300.2-435.8,300.2-435.8,300.2z M-412.8,295.4v-3.8
	c0-0.6-0.5-1.1-1.1-1.1h-19.7l0.2-24.4c0-1.7,1.4-3.1,3.1-3.1h24.1c1.8,0,3.1,1.4,3.1,3.1v29.3c0,2.7-2.2,4.9-4.9,4.9
	S-412.8,298.1-412.8,295.4z"/>
<g id="XMLID_1922_">
	<g id="XMLID_77_">
		<path id="XMLID_80_" class="st0" d="M-429,269.7"/>
		<path id="XMLID_79_" class="st0" d="M-429,276.6"/>
		<path id="XMLID_78_" class="st0" d="M-429,283.4"/>
	</g>
	<g id="XMLID_73_">
		<path id="XMLID_76_" class="st0" d="M-429,269.7"/>
		<path id="XMLID_75_" class="st0" d="M-429,276.6"/>
		<path id="XMLID_74_" class="st0" d="M-429,283.4"/>
	</g>
</g>
<g id="XMLID_1938_">
	<path id="XMLID_2102_" class="st0" d="M-418.7,270.7c0.6,0,1.1-0.5,1.1-1.1s-0.5-1.1-1.1-1.1h-9.3c-0.6,0-1.1,0.5-1.1,1.1
		s0.5,1.1,1.1,1.1H-418.7z"/>
	<path id="XMLID_2011_" class="st0" d="M-409.2,277.6c0.6,0,1.1-0.5,1.1-1.1s-0.5-1.1-1.1-1.1H-428c-0.6,0-1.1,0.5-1.1,1.1
		s0.5,1.1,1.1,1.1H-409.2z"/>
	<path id="XMLID_1945_" class="st0" d="M-409.2,284.5c0.6,0,1.1-0.5,1.1-1.1s-0.5-1.1-1.1-1.1H-428c-0.6,0-1.1,0.5-1.1,1.1
		s0.5,1.1,1.1,1.1H-409.2z"/>
	<path id="XMLID_1943_" class="st0" d="M-418.7,270.7c0.6,0,1.1-0.5,1.1-1.1s-0.5-1.1-1.1-1.1h-9.3c-0.6,0-1.1,0.5-1.1,1.1
		s0.5,1.1,1.1,1.1H-418.7z"/>
	<path id="XMLID_1941_" class="st0" d="M-409.2,277.6c0.6,0,1.1-0.5,1.1-1.1s-0.5-1.1-1.1-1.1H-428c-0.6,0-1.1,0.5-1.1,1.1
		s0.5,1.1,1.1,1.1H-409.2z"/>
	<path id="XMLID_1939_" class="st0" d="M-409.2,284.5c0.6,0,1.1-0.5,1.1-1.1s-0.5-1.1-1.1-1.1H-428c-0.6,0-1.1,0.5-1.1,1.1
		s0.5,1.1,1.1,1.1H-409.2z"/>
</g>
</svg>
