<?xml version="1.0" encoding="utf-8"?>
<!-- Generator: Adobe Illustrator 19.0.0, SVG Export Plug-In . SVG Version: 6.00 Build 0)  -->
<svg version="1.1" id="Layer_1" xmlns="http://www.w3.org/2000/svg" xmlns:xlink="http://www.w3.org/1999/xlink" x="0px" y="0px"
	 viewBox="0 0 59.6 57.7" style="enable-background:new 0 0 59.6 57.7;" xml:space="preserve">
<style type="text/css">
	.st0{fill:#231F20;}
	.st1{fill:#C6C5C4;}
</style>
<path id="XMLID_1955_" class="st0" d="M48.1,43V13.8c0-2.9-2.4-5.3-5.3-5.3H18.8c-2.9,0-5.2,2.3-5.3,5.2v24.4h-2.3
	c-2.7,0-4.9,2.2-4.9,4.9c0,3.6,2.9,6.7,6.5,7l0.2,0h28.1C45,50,48.1,46.9,48.1,43z M13.2,47.9c-2.7,0-4.9-2.2-4.9-4.9
	c0-1.5,1.2-2.8,2.8-2.8h22.9v2.8c0,1.5,0.5,2.9,1.3,4.1l0.6,0.8H13.2z M36.2,43.1v-3.8c0-0.6-0.5-1.1-1.1-1.1H15.4l0.2-24.4
	c0-1.7,1.4-3.1,3.1-3.1h24.1c1.8,0,3.1,1.4,3.1,3.1v29.3c0,2.7-2.2,4.9-4.9,4.9S36.2,45.8,36.2,43.1z"/>
<g id="XMLID_1922_">
	<g id="XMLID_77_">
		<path id="XMLID_80_" class="st0" d="M20,17.4"/>
		<path id="XMLID_79_" class="st0" d="M20,24.3"/>
		<path id="XMLID_78_" class="st0" d="M20,31.1"/>
	</g>
	<g id="XMLID_73_">
		<path id="XMLID_76_" class="st1" d="M20,17.4"/>
		<path id="XMLID_75_" class="st1" d="M20,24.3"/>
		<path id="XMLID_74_" class="st1" d="M20,31.1"/>
	</g>
</g>
<g id="XMLID_1938_">
	<path id="XMLID_2102_" class="st0" d="M30.3,18.4c0.6,0,1.1-0.5,1.1-1.1c0-0.6-0.5-1.1-1.1-1.1H21c-0.6,0-1.1,0.5-1.1,1.1
		c0,0.6,0.5,1.1,1.1,1.1H30.3z"/>
	<path id="XMLID_2011_" class="st0" d="M39.8,25.3c0.6,0,1.1-0.5,1.1-1.1c0-0.6-0.5-1.1-1.1-1.1H21c-0.6,0-1.1,0.5-1.1,1.1
		c0,0.6,0.5,1.1,1.1,1.1H39.8z"/>
	<path id="XMLID_1945_" class="st0" d="M39.8,32.2c0.6,0,1.1-0.5,1.1-1.1c0-0.6-0.5-1.1-1.1-1.1H21c-0.6,0-1.1,0.5-1.1,1.1
		c0,0.6,0.5,1.1,1.1,1.1H39.8z"/>
	<path id="XMLID_1943_" class="st0" d="M30.3,18.4c0.6,0,1.1-0.5,1.1-1.1c0-0.6-0.5-1.1-1.1-1.1H21c-0.6,0-1.1,0.5-1.1,1.1
		c0,0.6,0.5,1.1,1.1,1.1H30.3z"/>
	<path id="XMLID_1941_" class="st0" d="M39.8,25.3c0.6,0,1.1-0.5,1.1-1.1c0-0.6-0.5-1.1-1.1-1.1H21c-0.6,0-1.1,0.5-1.1,1.1
		c0,0.6,0.5,1.1,1.1,1.1H39.8z"/>
	<path id="XMLID_1939_" class="st0" d="M39.8,32.2c0.6,0,1.1-0.5,1.1-1.1c0-0.6-0.5-1.1-1.1-1.1H21c-0.6,0-1.1,0.5-1.1,1.1
		c0,0.6,0.5,1.1,1.1,1.1H39.8z"/>
</g>
</svg>
