<?xml version="1.0" encoding="utf-8"?>
<!-- Generator: Adobe Illustrator 26.3.1, SVG Export Plug-In . SVG Version: 6.00 Build 0)  -->
<svg version="1.1" id="Layer_1" xmlns="http://www.w3.org/2000/svg" xmlns:xlink="http://www.w3.org/1999/xlink" x="0px" y="0px"
	 viewBox="0 0 58.9 59.9" style="enable-background:new 0 0 58.9 59.9;" xml:space="preserve">
<style type="text/css">
	.st0{fill:#FFFFFF;}
</style>
<path id="Path_16" class="st0" d="M31.7,27.4l1-1.7c0.7-1.1,0.8-2.5,0.5-3.7c-0.3-1.3-1.2-2.4-2.3-3l-0.8-0.4
	c-0.5-0.3-0.6-0.8-0.4-1.3c0.1-0.2,0.2-0.3,0.4-0.4l0.8-0.4c1.1-0.6,2-1.7,2.3-3c0.3-1.3,0.2-2.6-0.5-3.7l-1-1.7
	c-1.4-2.3-4.4-3.1-6.8-1.8l-0.8,0.4c-0.3,0.2-0.7,0.2-1,0c-0.3-0.2-0.5-0.5-0.5-0.8V4.9c0-2.7-2.2-4.9-5-4.9h-2
	c-2.7,0-4.9,2.2-5,4.9v0.9c0,0.3-0.2,0.7-0.5,0.8c-0.3,0.2-0.7,0.2-1,0L8.4,6.2C6.1,4.8,3.1,5.6,1.7,8l-1,1.7
	c-0.7,1.1-0.8,2.5-0.5,3.7c0.3,1.3,1.2,2.4,2.3,3l0.8,0.4c0.5,0.3,0.6,0.8,0.4,1.3c-0.1,0.2-0.2,0.3-0.4,0.4l-0.8,0.4
	c-1.1,0.6-2,1.7-2.3,3c-0.3,1.3-0.2,2.6,0.5,3.7l1,1.7l0,0c1.4,2.3,4.4,3.1,6.8,1.8l0.8-0.4c0.3-0.2,0.7-0.2,1,0
	c0.3,0.2,0.5,0.5,0.5,0.8v0.9c0,2.7,2.2,4.9,5,4.9h2c2.7,0,4.9-2.2,5-4.9v-0.9c0-0.3,0.2-0.7,0.5-0.8c0.3-0.2,0.7-0.2,1,0l0.8,0.4
	C27.3,30.5,30.3,29.7,31.7,27.4L31.7,27.4z M25.9,27.4L25.1,27l0,0c-0.9-0.5-2.1-0.5-3,0c-0.9,0.5-1.5,1.5-1.5,2.5v0.9
	c0,1.6-1.4,3-3,2.9h-2c-1.6,0-3-1.3-3-2.9v-0.9c0-1.1-0.6-2-1.5-2.5c-0.9-0.5-2.1-0.5-3,0l-0.8,0.4c-1.4,0.8-3.3,0.3-4.1-1.1l-1-1.7
	C2,24,1.9,23.2,2.1,22.4c0.2-0.8,0.7-1.4,1.4-1.8l0.8-0.4c1.4-0.8,1.9-2.6,1.1-4c-0.3-0.5-0.6-0.9-1.1-1.1l-0.8-0.4
	c-0.7-0.4-1.2-1-1.4-1.8c-0.2-0.7-0.1-1.5,0.3-2.2l1-1.7C4.2,7.6,6,7.1,7.5,7.9l0.8,0.4c0.9,0.5,2.1,0.5,3,0
	c0.9-0.5,1.5-1.5,1.5-2.5V4.9c0-1.6,1.4-3,3-2.9h2c1.6,0,3,1.3,3,2.9v0.9c0,1,0.6,2,1.5,2.5c0.9,0.5,2.1,0.5,3,0l0.8-0.4
	C27.3,7.1,29.2,7.6,30,9l1,1.7c0.4,0.7,0.5,1.5,0.3,2.2c-0.2,0.8-0.7,1.4-1.4,1.8l-0.8,0.4c-1.4,0.8-1.9,2.6-1.1,4
	c0.3,0.5,0.6,0.9,1.1,1.1l0.8,0.4c0.7,0.4,1.2,1,1.4,1.8c0.2,0.7,0.1,1.5-0.3,2.2l-1,1.7C29.2,27.8,27.3,28.3,25.9,27.4L25.9,27.4z
	 M56.4,43.5L55.6,43l0,0c-0.5-0.3-0.6-0.8-0.4-1.3c0.1-0.2,0.2-0.3,0.4-0.4l0.8-0.4c1.1-0.6,2-1.7,2.3-3c0.3-1.3,0.2-2.6-0.5-3.7
	l-1-1.7c-1.4-2.3-4.4-3.1-6.8-1.8l-0.8,0.4c-0.3,0.2-0.7,0.2-1,0c-0.3-0.2-0.5-0.5-0.5-0.8v-0.9c0-2.7-2.2-4.9-5-4.9h-2
	c-2.7,0-4.9,2.2-5,4.9v0.9c0,0.3-0.2,0.7-0.5,0.8c-0.3,0.2-0.7,0.2-1,0L34,30.7c-2.4-1.3-5.4-0.5-6.8,1.8l-1,1.7
	c-0.7,1.1-0.8,2.5-0.5,3.7c0.3,1.3,1.2,2.4,2.3,3l0.8,0.4c0.5,0.3,0.6,0.8,0.4,1.3c-0.1,0.2-0.2,0.3-0.4,0.4L28,43.5
	c-1.1,0.6-2,1.7-2.3,3c-0.3,1.3-0.2,2.6,0.5,3.7l1,1.7c1.4,2.3,4.4,3.1,6.8,1.8l0.8-0.4c0.3-0.2,0.7-0.2,1,0
	c0.3,0.2,0.5,0.5,0.5,0.8V55c0,2.7,2.2,4.9,5,4.9h2c2.7,0,4.9-2.2,5-4.9v-0.9c0-0.3,0.2-0.7,0.5-0.8c0.3-0.2,0.7-0.2,1,0l0.8,0.4
	c2.4,1.3,5.4,0.6,6.8-1.8l1-1.7c0.7-1.1,0.8-2.5,0.5-3.7C58.4,45.2,57.5,44.1,56.4,43.5L56.4,43.5z M56.5,49.2l-1,1.7
	c-0.8,1.4-2.7,1.9-4.1,1.1l-0.8-0.4c-0.9-0.5-2.1-0.5-3,0c-0.9,0.5-1.5,1.5-1.5,2.5V55c0,1.6-1.4,3-3,2.9h-2c-1.6,0-3-1.3-3-2.9
	v-0.9c0-1.1-0.6-2-1.5-2.5c-0.9-0.5-2.1-0.5-3,0L33,52c-1.4,0.8-3.3,0.3-4.1-1.1l-1-1.7c-0.4-0.7-0.5-1.5-0.3-2.2
	c0.2-0.8,0.7-1.4,1.4-1.8l0.8-0.4c1.4-0.8,1.9-2.6,1.1-4c-0.3-0.5-0.6-0.9-1.1-1.1L29,39.2c-0.7-0.4-1.2-1-1.4-1.8
	c-0.2-0.7-0.1-1.5,0.3-2.2l1-1.7c0.8-1.4,2.7-1.9,4.1-1.1l0.8,0.4c0.9,0.5,2.1,0.5,3,0c0.9-0.5,1.5-1.5,1.5-2.5v-0.9
	c0-1.6,1.4-3,3-2.9h2c1.6,0,3,1.3,3,2.9v0.9c0,1,0.6,2,1.5,2.5c0.9,0.5,2.1,0.5,3,0l0.8-0.4l0,0c1.4-0.8,3.3-0.3,4.1,1.1l1,1.7
	c0.4,0.7,0.5,1.5,0.3,2.2c-0.2,0.8-0.7,1.4-1.4,1.8l-0.8,0.4l0,0c-1.4,0.8-1.9,2.6-1.1,4c0.3,0.5,0.6,0.9,1.1,1.1l0.8,0.4l0,0
	c0.7,0.4,1.2,1,1.4,1.8C57,47.7,56.9,48.5,56.5,49.2L56.5,49.2z M20.7,56.9c-0.1,0.5-0.5,0.9-1,0.9c0,0-0.1,0-0.1,0
	C9.1,56.4,1.7,46.8,3.1,36.3c0,0,0,0,0,0c0.1-0.5,0.5-0.9,1.1-0.9c0.5,0.1,0.9,0.5,0.9,1.1c0,0,0,0,0,0c-1.2,9.4,5.4,18,14.8,19.2
	C20.4,55.9,20.8,56.4,20.7,56.9C20.7,56.9,20.7,56.9,20.7,56.9L20.7,56.9z M36.5,3.9c0-0.5,0.4-1,1-1h0.4c10.4,0,18.9,8.4,19.1,18.8
	c0,0.5-0.4,1-1,1h0c-0.5,0-1-0.4-1-1c-0.2-9.5-8-17-17.5-16.9C36.9,4.9,36.5,4.5,36.5,3.9L36.5,3.9z M19.5,17.8
	c1.6,1.5,1.6,4,0.1,5.6c-1.5,1.6-4,1.6-5.6,0.1c0,0-0.1-0.1-0.1-0.1c-0.4-0.4-0.4-1,0-1.4c0.4-0.4,1-0.4,1.4,0c0.8,0.7,2,0.7,2.8,0
	c0.8-0.8,0.8-2,0-2.8c-0.4-0.4-0.9-0.6-1.4-0.6c-2.2,0-3.9-1.8-3.9-3.9c0-1,0.4-2,1.1-2.8c1.6-1.5,4-1.5,5.6,0c0.4,0.4,0.4,1,0,1.4
	c-0.4,0.4-1,0.4-1.4,0c-0.8-0.7-2-0.7-2.8,0c-0.8,0.8-0.8,2,0,2.8c0.4,0.4,0.9,0.6,1.4,0.6C17.7,16.7,18.7,17.1,19.5,17.8L19.5,17.8
	z M45,42.4c1.6,1.5,1.6,4,0.1,5.6c-1.5,1.6-4,1.6-5.5,0.1c0,0-0.1-0.1-0.1-0.1c-0.4-0.4-0.4-1,0-1.4c0.4-0.4,1-0.4,1.4,0
	c0.8,0.7,2,0.7,2.8,0c0.8-0.8,0.8-2,0-2.8c-0.4-0.4-0.9-0.6-1.4-0.6c-2.2,0-3.9-1.8-3.9-3.9c0-1,0.4-2,1.1-2.8c1.6-1.5,4-1.5,5.5,0
	c0.4,0.4,0.4,1,0,1.4c-0.4,0.4-1,0.4-1.4,0c-0.8-0.7-2-0.7-2.8,0c-0.8,0.8-0.8,2,0,2.8c0.4,0.4,0.9,0.6,1.4,0.6
	C43.3,41.2,44.2,41.6,45,42.4L45,42.4z"/>
</svg>
