<svg xmlns="http://www.w3.org/2000/svg" width="100%" height="100%" viewBox="0 0 29.082 32.055">
    <g class="dust-sweeper" transform="translate(-566.828 -567.139)">
        <path d="M117.171,272.468a.378.378,0,0,0,0-.742,4.844,4.844,0,0,1-3.743-3.743.378.378,0,0,0-.742,0,4.8,4.8,0,0,1-3.743,3.743.378.378,0,0,0,0,.742,4.844,4.844,0,0,1,3.743,3.743.378.378,0,0,0,.742,0A4.754,4.754,0,0,1,117.171,272.468Z" transform="translate(458.188 314.756)" fill="#fff"/>
        <path d="M227.36,211.321a.365.365,0,0,0,.27.371,3.228,3.228,0,0,1,2.36,2.36.39.39,0,0,0,.742,0,3.228,3.228,0,0,1,2.36-2.36.39.39,0,0,0,0-.742,3.126,3.126,0,0,1-2.36-2.36.39.39,0,0,0-.742,0,3.126,3.126,0,0,1-2.36,2.36A.394.394,0,0,0,227.36,211.321Z" transform="translate(346.617 370.542)" fill="#fff"/>
        <path d="M148.028,132.172a3.228,3.228,0,0,1,2.36,2.36.39.39,0,0,0,.742,0,3.228,3.228,0,0,1,2.36-2.36.39.39,0,0,0,0-.742,3.126,3.126,0,0,1-2.36-2.36.39.39,0,0,0-.742,0,3.126,3.126,0,0,1-2.36,2.36.365.365,0,0,0-.27.371A.334.334,0,0,0,148.028,132.172Z" transform="translate(421.43 445.275)" fill="#fff"/>
        <path d="M246.041,273.01l-5.294-2.461a.774.774,0,0,0-.91.2l-.2.27a29.742,29.742,0,0,1-9.171,7.721.8.8,0,0,0-.4.573.769.769,0,0,0,.236.641,20.457,20.457,0,0,0,1.821,1.585,24.686,24.686,0,0,0,6.541-5.26l.169-.2a.812.812,0,1,1,1.214,1.079l-.169.2a26.187,26.187,0,0,1-6.305,5.26,25.884,25.884,0,0,0,12.037,4.451h.068a.956.956,0,0,0,.573-.236.7.7,0,0,0,.169-.674,29.977,29.977,0,0,1,0-12l.068-.3a.813.813,0,0,0-.438-.843Z" transform="translate(344.087 312.124)" fill="#fff"/>
        <path d="M418.877,13.737a1.209,1.209,0,0,0-1.652.607L411.83,25.976l-1.551-.708a.78.78,0,0,0-1.012.371l-.607,1.315a.684.684,0,0,0-.034.573.738.738,0,0,0,.4.438l5.361,2.5a.986.986,0,0,0,.3.067.715.715,0,0,0,.708-.438l.607-1.315a.78.78,0,0,0-.371-1.012l-1.551-.708,5.395-11.633a1.285,1.285,0,0,0-.607-1.686Z" transform="translate(176.308 553.527)" fill="#fff"/>
    </g></svg>