<svg xmlns="http://www.w3.org/2000/svg" width="54.658" height="64.321" viewBox="0 0 54.658 64.321">
    <g transform="translate(-924.589 -158.139)">
        <g transform="translate(924.481 179.432)">
            <circle class="dust-settlement-green" cx="21.5" cy="21.5" r="21.5" transform="translate(0.109 0.027)"/>
            <path class="dust-settlement" d="M7361.84,908.547a1.5,1.5,0,0,1-.951-.34l-6.618-5.429a1.5,1.5,0,1,1,1.9-2.319l5.31,4.355,9.067-14.255a1.5,1.5,0,1,1,2.531,1.61l-9.976,15.683a1.5,1.5,0,0,1-1.266.695Z" transform="translate(-7341.454 -877.523)"/>
        </g>
        <g transform="translate(933.772 158.139)">
            <g class="dust-settlement" transform="translate(45.476 0) rotate(90)">
                <path d="M7.947,3.716,6.938,0,5.93,3.716A3.4,3.4,0,0,1,3.582,6.1L0,7.118,3.582,8.142A3.4,3.4,0,0,1,5.93,10.521l1.009,3.716,1.009-3.716a3.4,3.4,0,0,1,2.347-2.379l3.582-1.023L10.294,6.1h0A3.4,3.4,0,0,1,7.947,3.716Z" transform="translate(34.749 0)"/>
                <path d="M10.323,5,8.931,0,7.539,5A3.652,3.652,0,0,1,5,7.539L0,8.931l5,1.392H5a3.651,3.651,0,0,1,2.538,2.538l1.392,5,1.392-5a3.651,3.651,0,0,1,2.538-2.538l5-1.392-5-1.392A3.652,3.652,0,0,1,10.323,5Z" transform="translate(12.578 27.615)"/>
                <path d="M17.3,10.392a3.652,3.652,0,0,1-2.538-2.539L12.578,0,10.392,7.853a3.652,3.652,0,0,1-2.539,2.539L0,12.578l7.853,2.186A3.652,3.652,0,0,1,10.392,17.3l2.186,7.853L14.764,17.3A3.652,3.652,0,0,1,17.3,14.764l7.853-2.186Z" transform="translate(0 0)"/>
            </g>
        </g>
    </g>
</svg>