<?xml version="1.0" encoding="utf-8"?>
<!-- Generator: Adobe Illustrator 26.4.1, SVG Export Plug-In . SVG Version: 6.00 Build 0)  -->
<svg version="1.1" id="Layer_1" xmlns="http://www.w3.org/2000/svg" xmlns:xlink="http://www.w3.org/1999/xlink" x="0px" y="0px"
	 viewBox="0 0 50 50" style="enable-background:new 0 0 50 50;" xml:space="preserve">
<style type="text/css">
	.st0{fill:#FFFFFF;}
    .icon-plus-1{fill:#0000FF;}
</style>
<circle id="XMLID_134_" class="icon-plus-1" cx="25" cy="25" r="25"/>
<g id="Group_1" transform="translate(-1288.505 -307.413)">
	<path id="Path_3" class="st0" d="M1296.1,352.1c-1.3,0-2.3-1-2.3-2.3c0-0.6,0.2-1.2,0.7-1.6l35-35c0.9-0.9,2.3-0.9,3.2,0
		c0.9,0.9,0.9,2.3,0,3.2l-35,35C1297.3,351.9,1296.7,352.1,1296.1,352.1L1296.1,352.1z"/>
	<path id="Path_4" class="st0" d="M1301.4,328.7c-4.8,0-8.6-3.9-8.6-8.6c0-4.8,3.9-8.6,8.6-8.6c4.8,0,8.6,3.9,8.6,8.6
		c0,2.3-0.9,4.5-2.5,6.1C1305.9,327.8,1303.7,328.7,1301.4,328.7z M1301.4,316c-2.2,0-4.1,1.8-4.1,4.1c0,2.2,1.8,4.1,4.1,4.1
		c2.2,0,4.1-1.8,4.1-4.1c0-1.1-0.4-2.1-1.2-2.9C1303.5,316.4,1302.5,316,1301.4,316z"/>
	<path id="Path_5" class="st0" d="M1325.9,353.2c-2.3,0-4.5-0.9-6.1-2.5l0,0c-3.4-3.4-3.4-8.8,0-12.2c3.4-3.4,8.8-3.4,12.2,0
		c3.4,3.4,3.4,8.8,0,12.2C1330.4,352.3,1328.2,353.2,1325.9,353.2z M1323,347.5c1.6,1.6,4.2,1.6,5.7,0c1.6-1.6,1.6-4.2,0-5.7
		c-1.6-1.6-4.2-1.6-5.7,0c-1.7,1.5-1.9,3.9-0.4,5.6C1322.7,347.4,1322.8,347.5,1323,347.5L1323,347.5z"/>
</g>
</svg>
