<svg xmlns="http://www.w3.org/2000/svg" width="20" height="20" viewBox="0 0 18.239 18.23">
  <path class="fill_main-color" id="Path_586" data-name="Path 586" d="M37.219,26.485a3.96,3.96,0,0,0-1.732-3.276L30.334,19.7a3.974,3.974,0,0,0-4.47,0l-5.152,3.511a3.96,3.96,0,0,0-1.732,3.276v6.931A3.827,3.827,0,0,0,22.8,37.24H33.39a3.827,3.827,0,0,0,3.823-3.823V26.485Zm-16.11-1.2a2.167,2.167,0,0,1,.6-.621l5.152-3.511a2.236,2.236,0,0,1,2.479,0L34.5,24.668a2.167,2.167,0,0,1,.6.621l.171.262L29.09,29.041a2,2,0,0,1-.985.253,2.022,2.022,0,0,1-.985-.253L20.942,25.55l.171-.262ZM35.454,33.42A2.061,2.061,0,0,1,33.4,35.478H22.809A2.061,2.061,0,0,1,20.75,33.42V27.477l5.5,3.105a3.831,3.831,0,0,0,3.708,0l5.5-3.105V33.42Z" transform="translate(-18.98 -19.01)" fill="#fff"/>
</svg>
