<?xml version="1.0" encoding="utf-8"?>
<!-- Generator: Adobe Illustrator 19.0.0, SVG Export Plug-In . SVG Version: 6.00 Build 0)  -->
<svg version="1.1" id="Layer_1" xmlns="http://www.w3.org/2000/svg" xmlns:xlink="http://www.w3.org/1999/xlink" x="0px" y="0px"
	 viewBox="0 0 59.6 57.7" style="enable-background:new 0 0 59.6 57.7;" xml:space="preserve">
<path id="XMLID_2114_" d="M54.6,18.8c0-2.7-2.2-4.9-4.9-4.9H10.3c-2.7,0-4.9,2.2-4.9,4.9V41c0,2.7,2.2,4.9,4.9,4.9h39.4
	c2.7,0,4.9-2.2,4.9-4.9V18.8z M52.9,41c0,1.8-1.4,3.2-3.2,3.2H10.3c-1.8,0-3.2-1.4-3.2-3.2V24l18.6,12.8c0.3,0.3,2,1.5,4.3,1.5
	c2.3,0,4.2-1.5,4.3-1.5l18.5-12.9V41z M52.9,21.8L33.4,35.4c-0.6,0.4-2,1.2-3.3,1.2c-1.7,0-2.9-0.8-3.2-1l0,0L7.1,22v-3.2
	c0-1.8,1.4-3.2,3.2-3.2h39.4c1.8,0,3.2,1.4,3.2,3.2V21.8z"/>
</svg>
