<?xml version="1.0" encoding="utf-8"?>
<!-- Generator: Adobe Illustrator 24.1.3, SVG Export Plug-In . SVG Version: 6.00 Build 0)  -->
<svg version="1.2" baseProfile="tiny" id="Layer_1" xmlns="http://www.w3.org/2000/svg" xmlns:xlink="http://www.w3.org/1999/xlink"
	 x="0px" y="0px" viewBox="0 0 77.5 71.5" overflow="visible" xml:space="preserve">
	<style type="text/css">
		.eos-icon { fill: #58595b }
	</style>
<g>
	<g>
		<g transform="matrix(0.26458333,0,0,0.26458333,-33.403463,56.772625)">
			<path d="M271.9-199.5c-66.2,0-120,53.8-120,120s53.8,120,120,120s120-53.8,120-120S338.1-199.5,271.9-199.5z
				 M271.9-187.5c59.7,0,108,48.3,108,108s-48.3,108-108,108s-108-48.3-108-108S212.2-187.5,271.9-187.5z" class="eos-icon"/>
		</g>
	</g>
</g>
<path d="M38.8,60.6C38.8,60.6,38.7,60.6,38.8,60.6c-0.3,0-0.5-0.1-0.7-0.2l-15.5-9.7c-0.2-0.1-0.4-0.3-0.5-0.5
	c0-0.1-0.1-0.2-0.1-0.3c0,0,0,0,0,0c0,0,0,0,0,0c0-0.2-0.1-0.3,0-0.5c0,0,0-0.1,0-0.1l5-23c0-0.1,0.1-0.2,0.1-0.3c0,0,0,0,0,0
	c0,0,0,0,0,0c0,0,0,0,0,0c0,0,0,0,0,0c0,0,0,0,0,0c0,0,0,0,0,0c0,0,0,0,0,0l0,0c0,0,0,0,0,0l0,0c0,0,0,0,0,0c0,0,0,0,0,0
	c0,0,0,0,0,0c0,0,0,0,0,0c0,0,0,0,0,0c0-0.1,0.1-0.1,0.1-0.2l10.4-14.2c0.3-0.3,0.6-0.5,1.1-0.5c0,0,0,0,0,0c0.4,0,0.8,0.2,1.1,0.5
	l10.4,14.2c0,0.1,0.1,0.1,0.1,0.2c0,0,0,0,0,0c0,0,0,0,0,0c0,0,0,0,0,0c0,0,0,0,0,0c0,0,0,0,0,0c0,0,0,0,0,0c0,0,0,0,0,0
	c0.1,0.1,0.1,0.2,0.1,0.3l5,23c0,0,0,0.1,0,0.1c0,0.2,0,0.4,0,0.5c0,0.1-0.1,0.2-0.1,0.3c0,0,0,0,0,0c0,0,0,0,0,0
	c-0.1,0.2-0.3,0.4-0.5,0.5c0,0,0,0,0,0c0,0,0,0,0,0c0,0,0,0,0,0c0,0,0,0,0,0c0,0,0,0,0,0c0,0,0,0,0,0c0,0,0,0,0,0c0,0,0,0,0,0
	c0,0,0,0,0,0c0,0,0,0,0,0c0,0,0,0,0,0c0,0,0,0,0,0c0,0,0,0,0,0c0,0,0,0,0,0c0,0,0,0,0,0c0,0,0,0,0,0c0,0,0,0,0,0c0,0,0,0,0,0
	c0,0,0,0,0,0l-15.5,9.7C39.2,60.5,39,60.6,38.8,60.6z M27.8,50.9l8.6,5.4l-1.7-5.4H27.8z M42.8,50.9l-1.7,5.4l8.6-5.4H42.8z
	 M37.4,50.9l1.3,4.1l1.3-4.1H37.4z M43.6,48.3H52l-5.4-9.4L43.6,48.3z M36.6,48.3h4.3l4-12.5l-6.1-10.8l-6.1,10.8L36.6,48.3z
	 M25.5,48.3h8.4l-3-9.4L25.5,48.3z M28.6,31.6l-2.2,9.9l3.4-6L28.6,31.6z M47.7,35.4l3.4,6l-2.2-9.9L47.7,35.4z M29.8,26.8l1.8,5.6
	l5.9-10.4v-5.7L29.8,26.8z M40.1,21.9L46,32.3l1.8-5.6l-7.7-10.5V21.9z" class="eos-icon"/>
</svg>
