<?xml version="1.0" encoding="utf-8"?>
<!-- Generator: Adobe Illustrator 23.0.1, SVG Export Plug-In . SVG Version: 6.00 Build 0)  -->
<svg version="1.1" id="Layer_1" xmlns="http://www.w3.org/2000/svg" xmlns:xlink="http://www.w3.org/1999/xlink" x="0px" y="0px"
	 viewBox="0 0 77.5 71.5" style="enable-background:new 0 0 77.5 71.5;" xml:space="preserve">
	<style type="text/css">
		.eth1 { fill: #3e4ea1 }
	</style>
<g transform="translate(-82.393755,-105.33571)">
	<g transform="matrix(0.26458333,0,0,0.26458333,-33.403463,56.772625)">
		<path class="eth1" d="M583.6,198.7c-66.2,0-120,53.8-120,120s53.8,120,120,120s120-53.8,120-120S649.8,198.7,583.6,198.7z M583.6,210.7
			c59.7,0,108,48.3,108,108s-48.3,108-108,108c-59.7,0-108-48.3-108-108S523.8,210.7,583.6,210.7z"/>
		<path class="eth1" d="M583.5,235.9c-1.6,0-3,1-3.7,2.4l-44.4,74.6c-0.7,0.8-1.1,1.8-1.1,2.9c0,1.9,1.2,3.5,3,4l43.6,26.7c1.5,1.2,3.7,1.2,5.2,0
			l43.9-26.9c0.8-0.3,1.5-0.9,1.9-1.6l0,0l0,0c0.1-0.1,0.1-0.2,0.2-0.3c0-0.1,0.1-0.2,0.1-0.3c0,0,0,0,0-0.1c0.2-0.5,0.3-1,0.3-1.5
			v-0.1c0-0.1,0-0.2,0-0.2c0-0.1,0-0.2,0-0.3l0,0c-0.1-0.8-0.4-1.6-0.9-2.2l-44.5-74.8C586.7,236.8,585.2,235.9,583.5,235.9
			L583.5,235.9z M541.5,334.2c-2.7,0.1-4.6,2.7-3.8,5.3l0,0c0,0.1,0.1,0.2,0.1,0.3c0,0.1,0.1,0.2,0.1,0.3l0,0
			c0.1,0.3,0.3,0.6,0.5,0.8l41.5,58.3c1.6,2.8,5.6,2.9,7.2,0l41.6-58.5c0-0.1,0.1-0.1,0.1-0.2c0,0,0,0,0-0.1
			c2.4-3.8-2.2-8.1-5.9-5.6l-39.5,24.3L544.1,335C543.3,334.5,542.4,334.2,541.5,334.2L541.5,334.2z"/>
	</g>
</g>
</svg>
