<?xml version="1.0" encoding="utf-8"?>
<!-- Generator: Adobe Illustrator 24.3.0, SVG Export Plug-In . SVG Version: 6.00 Build 0)  -->
<svg version="1.2" baseProfile="tiny"
	 id="Layer_1" xmlns:cc="http://creativecommons.org/ns#" xmlns:dc="http://purl.org/dc/elements/1.1/" xmlns:rdf="http://www.w3.org/1999/02/22-rdf-syntax-ns#"
	 xmlns="http://www.w3.org/2000/svg" xmlns:xlink="http://www.w3.org/1999/xlink" x="0px" y="0px" viewBox="0 0 560 560"
	 overflow="visible" xml:space="preserve">
<g>
	<path fill="#FFFF00" d="M280,550l13.9-0.3l13.7-1l13.5-1.7l13.3-2.4l13-3l12.8-3.6l12.5-4.2l12.3-4.8l11.9-5.4l11.6-6l11.3-6.5
		l10.9-7l10.6-7.5l10.2-8l9.8-8.5l9.4-8.9l8.9-9.4l8.4-9.8l8-10.2l7.5-10.5l7-11l6.5-11.3l5.9-11.6l5.4-11.9l4.8-12.2l4.2-12.5
		l3.6-12.8l3-13l2.4-13.3l1.7-13.5l1-13.7L550,280c0-149.1-120.9-270-270-270C130.9,10,10,130.9,10,280C10,429.1,130.9,550,280,550
		L280,550z"/>
	<path fill="#FFFF00" d="M280.3,472.6l9.9-0.2l9.8-0.7l9.6-1.2l9.5-1.7l9.3-2.1l9.1-2.6l8.9-3l8.8-3.5l8.5-3.8l8.3-4.2l8.1-4.6
		l7.8-5l7.6-5.4l7.2-5.7l7-6l6.7-6.4l6.4-6.7l6.1-7l5.7-7.3l5.4-7.5l5-7.8l4.6-8l4.2-8.3l3.9-8.5l3.4-8.7l3-8.9l2.6-9.1l2.2-9.3
		l1.7-9.5l1.2-9.6l0.7-9.8l0.2-9.9c0-106.6-86.4-192.9-192.9-192.9c-106.5,0-192.9,86.4-192.9,192.9
		C87.4,386.2,173.8,472.6,280.3,472.6L280.3,472.6z"/>
	<path d="M357.3,439.4l-0.1-3.7l-0.3-3.6l-0.5-3.6l-0.6-3.5l-0.9-3.4l-1-3.4l-1.2-3.3l-1.4-3.2l-1.5-3.1l-1.7-3.1l-1.8-3l-2-2.9
		l-2.1-2.8l-2.2-2.7l-2.4-2.6l-2.5-2.5l-2.7-2.3l-2.7-2.2l-2.9-2.1l-3-2l-3.1-1.8l-3.2-1.7l-3.3-1.5l-3.4-1.4l-3.4-1.2l-3.6-1.1
		l-3.6-0.9l-3.7-0.8l-3.8-0.6l-3.8-0.4l-3.9-0.2l-3.9,0c-46.2,0.2-78.6,31.8-77.7,75.9L357.3,439.4L357.3,439.4z"/>
	<path d="M286.6,83.4L276,84v35.3l10-2.8l0-0.1v0v-0.1v-0.1v-0.2v-0.2v-0.3V115v-0.4v-0.4v-0.4l0-0.4v-0.5v-0.5v-0.5v-0.6l0-1.2
		v-1.3v-1.3l0-1.4v-1.5l0-1.5l0-3.1l0-3v-1.5l0.1-1.4v-1.4l0-1.4v-1.3l0-1.2V88v-0.5V87v-0.5l0-0.4v-0.5v-0.3v-0.4v-0.3v-0.3V84
		v-0.2v-0.1L286.6,83.4L286.6,83.4L286.6,83.4z M226.2,92.4l-14.5,5v0.1l0,0.1v0.2l0,0.2l0.1,0.3l0.1,0.3l0,0.3l0.1,0.4l0.1,0.5
		l0.1,0.5l0.1,0.5l0.1,0.5l0.1,0.5l0.1,0.7l0.1,0.6l0.3,1.4l0.3,1.4l0.3,1.5l0.4,1.6l0.4,1.6l0.4,1.6l0.7,3.4l0.8,3.4l0.4,1.7
		l0.4,1.6l0.3,1.6l0.3,1.5l0.3,1.4l0.3,1.3l0.1,0.6l0.1,0.7l0.2,0.5l0.1,0.5l0.1,0.5l0.1,0.5l0.1,0.4l0.1,0.4l0,0.4l0,0.3l0.1,0.3
		l0.1,0.2v0.2l0,0.1v0.1v0l10.1-2.8L226.2,92.4L226.2,92.4z M343.2,94.6l-5.6,35.2l10,1.1l7.3-32.5h0h0h0l-0.1,0l-0.1,0h-0.1
		l-0.1-0.1l-0.2,0l-0.1,0l-0.1,0l-0.2,0l-0.1,0l-0.2,0l-0.2-0.1l-0.2,0l-0.4-0.1l-0.4-0.1l-0.4-0.2l-0.5-0.1l-0.5-0.2l-0.6-0.2
		l-1.1-0.4l-1.1-0.4l-0.5-0.2l-0.5-0.2l-0.5-0.2l-0.5-0.1l-0.4-0.2l-0.4-0.1l-0.2,0l-0.2,0l-0.2-0.1l-0.2,0l-0.1,0l-0.1,0l-0.2,0
		l-0.1,0h-0.1l-0.1,0l-0.1-0.1L343.2,94.6L343.2,94.6L343.2,94.6L343.2,94.6z M161.2,125.4l-13.4,11.2l0,0l0,0.1l0,0.1l0.1,0.2
		l0.2,0.2l0.1,0.3l0.1,0.3l0.2,0.3l0.2,0.4l0.2,0.4l0.2,0.4l0.3,0.4l0.3,0.4l0.2,0.5l0.3,0.5l0.6,1l0.7,1.1l0.6,1.2l0.7,1.3l0.8,1.3
		l0.8,1.4l1.5,2.7l1.5,2.7l0.8,1.3l0.7,1.3l0.7,1.2l0.6,1.2l0.7,1.1l0.6,1.1l0.3,0.5l0.3,0.5l0.2,0.4l0.3,0.4l0.3,0.4l0.2,0.4
		l0.2,0.4l0.1,0.4l0.1,0.2l0.2,0.3l0.1,0.3l0.1,0.1l0,0.1l0.1,0.1l0,0.1l9.8-2.6L161.2,125.4L161.2,125.4z M404.7,128.2l-15.1,34.7
		l1.8,2.3h0h0l0.1,0h0.1h0.1h0.1l0.1,0h0.1l0.1-0.1h0.1l0.2,0h0.1l0.2,0h0.2l0.4-0.1l0.4,0l0.4-0.1l0.4,0l0.5-0.1l0.4,0l1-0.2
		l0.9-0.2l0.5-0.1l0.4,0l0.5-0.1l0.4,0l0.4-0.1l0.4,0h0.2l0.1,0l0.2,0h0.1l0.2,0h0.1h0.1l0.1,0h0.1l0.1,0h0h0h0h0h0.1l12.3-27.4
		L404.7,128.2L404.7,128.2z M113.6,178.6l-7.8,11.7l0,0.1l0.1,0l0.1,0.1l0.1,0.2l0.1,0.2l0.2,0.2l0.2,0.2l0.2,0.3l0.3,0.3l0.2,0.4
		l0.3,0.4l0.3,0.4l0.3,0.4l0.3,0.4l0.4,0.4l0.7,0.9l0.8,1l0.8,1.1l0.8,1.1l0.9,1.1l0.9,1.1l1.8,2.3l1.8,2.3l0.9,1.1l0.9,1.1l0.8,1.1
		l0.8,1l0.7,1l0.8,0.9l0.3,0.4l0.4,0.4l0.3,0.4l0.3,0.4l0.3,0.3l0.2,0.4l0.3,0.3l0.2,0.3l0.2,0.2l0.1,0.3l0.2,0.1l0.1,0.1l0,0.2
		l0.1,0.1l0,0l6.1-7.8L113.6,178.6L113.6,178.6z M447.8,179.1l-21.3,33.6l5.6,8.4l0-0.1l0-0.1l0.1-0.1l0.1-0.1l0.2-0.3l0.2-0.3
		l0.2-0.3l0.2-0.3l0.3-0.4l0.3-0.4l0.3-0.4l0.3-0.4l0.4-0.4l0.4-0.5l0.4-0.5l0.8-1.1l0.8-1.2l0.9-1.2l0.9-1.3l1-1.3l1-1.4l2-2.8
		l2-2.8l1-1.3l1-1.3l0.9-1.3l0.9-1.2l0.9-1.2l0.8-1.1l0.3-0.5l0.4-0.4l0.3-0.5l0.4-0.4l0.3-0.4l0.3-0.4l0.3-0.4l0.2-0.4l0.3-0.3
		l0.1-0.3l0.2-0.2l0.1-0.2l0.1-0.2l0.1-0.1l0,0v0L447.8,179.1L447.8,179.1z M89.6,242.4L89.6,242.4l-2.8,11.2l30.8,27.9l4.4-7.2
		l0-0.1l-0.1-0.1l-0.1-0.1l-0.2-0.2l-0.2-0.2l-0.3-0.3l-0.3-0.3l-0.4-0.4l-0.4-0.4l-0.4-0.4l-0.4-0.4l-0.5-0.4l-0.5-0.5l-0.5-0.5
		l-0.6-0.5l-1.2-1.1l-1.2-1.2l-1.4-1.3l-1.4-1.4l-1.5-1.4l-1.5-1.5l-3-2.9l-3-3l-1.4-1.5l-1.5-1.4l-1.4-1.4l-1.3-1.3l-1.3-1.2
		l-1.1-1.2l-0.6-0.5l-0.5-0.5l-0.5-0.5l-0.5-0.5l-0.4-0.4l-0.4-0.4l-0.4-0.4l-0.3-0.4l-0.3-0.3l-0.3-0.3l-0.3-0.2l-0.2-0.2l-0.1-0.1
		L89.6,242.4L89.6,242.4L89.6,242.4L89.6,242.4z M472.5,243.5L472.5,243.5l-0.2,0.1l-0.1,0.1l-0.1,0.1l-0.1,0.1l-0.2,0.2l-0.2,0.2
		l-0.3,0.3L471,245l-0.3,0.3l-0.3,0.3l-0.4,0.4l-0.4,0.4l-0.4,0.4l-0.4,0.4l-0.8,0.8l-0.8,0.8l-0.9,0.9l-1,1l-1,1l-1,1l-2.1,2.1
		l-2,2.1l-1,1.1l-1,1l-1,1l-0.9,0.9l-0.8,0.8l-0.9,0.8l-0.3,0.4l-0.4,0.4l-0.3,0.4l-0.4,0.4l-0.3,0.3l-0.3,0.3l-0.3,0.3l-0.3,0.2
		l-0.2,0.3l-0.2,0.1l-0.1,0.2l-0.1,0.1l-0.1,0.1l-0.1,0l0,0.1v0l4.9,6.5l19-18L472.5,243.5L472.5,243.5z M87.9,306.2l1.6,11.2
		l66.1,43.6l-2.8-10h0v0l-0.2-0.1l-0.2-0.1l-0.3-0.3l-0.4-0.2l-0.5-0.4l-0.5-0.4l-0.6-0.4l-0.7-0.5l-0.8-0.5l-0.8-0.6l-0.9-0.6
		l-1-0.6l-1-0.7l-1.1-0.8l-1.1-0.7l-2.4-1.6l-2.5-1.8l-2.6-1.8l-2.8-1.9l-2.9-2l-3-2l-6-4.2l-6-4.1l-2.9-2l-2.9-2l-2.8-1.9l-2.7-1.9
		l-2.5-1.7l-2.3-1.6l-1.1-0.8l-1.1-0.7l-1-0.7l-1-0.7l-0.8-0.6l-0.8-0.6l-0.8-0.5l-0.7-0.5l-0.6-0.4l-0.5-0.4L89,307l-0.4-0.2
		l-0.3-0.3l-0.2-0.1L87.9,306.2L87.9,306.2L87.9,306.2z M473,309L473,309l-0.4,0.2l-0.5,0.4l-0.6,0.4l-0.8,0.5l-1,0.7l-1.1,0.7
		l-1.3,0.9l-1.4,0.9l-1.5,1.1l-1.7,1.1l-1.8,1.2l-1.9,1.3l-2,1.4l-2.1,1.5l-2.2,1.5l-4.8,3.3l-5.1,3.5l-5.4,3.7l-5.6,3.9l-5.8,4
		l-6,4.1l-12.2,8.4l-12.2,8.4l-5.9,4.1l-5.8,4l-5.6,3.9l-5.4,3.7l-5.1,3.5l-4.8,3.3l-2.2,1.5l-2.1,1.5l-2,1.4l-1.9,1.3l-1.8,1.2
		l-1.7,1.1l-1.5,1.1l-1.4,0.9l-1.2,0.9l-1.1,0.7l-1,0.7l-0.8,0.6l-0.6,0.4l-0.4,0.4l-0.3,0.1l-0.1,0.1v0l1.1,3.3l126.5-80.6L473,309
		L473,309z M330.7,327.1l-8.6,16.5l-1.8-2.6v0v0v0l0,0.1v0l0,0.1v0l0.1,0.1v0.1l0,0.1v0.1l0,0.1l0,0.2l0,0.1l0,0.3l0.1,0.3l0.1,0.4
		l0.1,0.4l0.1,0.4l0.1,0.4l0.2,0.7l0.2,0.7l0.1,0.4l0.1,0.4l0.1,0.4l0.1,0.3l0.1,0.3l0,0.3l0,0.1l0,0.1v0.1l0,0.1l0,0.1v0.1l0,0.1
		v0.1l0,0v0.1v0l0,0v0v0l11.9-21.7L330.7,327.1L330.7,327.1z M259.2,330.8L259.2,330.8v0.1v0.1l0,0.2l0,0.2l0,0.3l0,0.4l0,0.4
		l0.1,0.4l0,0.4l0.1,0.5l0.1,0.5l0.1,0.6l0.1,0.6l0.1,0.6l0.1,0.6l0.3,1.4l0.3,1.5l0.2,1.5l0.3,1.6l0.3,1.7l0.3,1.7l0.7,3.5l0.6,3.5
		l0.3,1.7l0.3,1.7l0.3,1.6l0.3,1.5l0.3,1.5l0.2,1.4l0.1,0.6l0.1,0.6l0.1,0.6l0.1,0.6l0,0.5l0.1,0.5l0.1,0.5l0,0.4l0.1,0.3l0.1,0.4
		l0,0.3v0.2l0,0.2l0,0.1v0v0.1l4.5-0.6l-5.6-34.7L259.2,330.8L259.2,330.8z M248.7,354.1l-2.8,4.3v0v0l0,0.1l0,0.1l0,0.1l0,0.1
		l0,0.2l0.1,0.1l0.1,0.1l0,0.2l0.1,0.2l0.1,0.2l0.1,0.2l0.1,0.3l0.1,0.2l0.3,0.5l0.3,0.5l0.3,0.6l0.3,0.6l0.3,0.6l0.3,0.6l0.6,1.2
		l0.6,1.3l0.3,0.6l0.3,0.6l0.3,0.6l0.3,0.6l0.3,0.5l0.3,0.5l0.1,0.2l0.1,0.3l0.1,0.2l0.1,0.2l0.1,0.2l0.1,0.2l0,0.1l0.1,0.1l0.1,0.2
		l0,0.1l0,0.1l0,0.1l0,0.1v0l0,0v0.1l2.5-0.7L248.7,354.1L248.7,354.1z M334.2,361.1L334.2,361.1L334.2,361.1l-0.1,0.2l0,0.1
		l-0.1,0.1l-0.2,0.2l-0.1,0.1l-0.1,0.2l-0.2,0.2l-0.2,0.2l-0.2,0.2l-0.2,0.3l-0.3,0.3l-0.2,0.3l-0.3,0.3l-0.4,0.6l-0.5,0.7l-0.5,0.7
		l-0.6,0.7l-0.6,0.8l-0.6,0.8l-1.2,1.6l-1.2,1.6l-0.6,0.8L325,373l-0.6,0.7l-0.5,0.8l-0.5,0.7l-0.4,0.6l-0.3,0.3l-0.2,0.3l-0.2,0.2
		l-0.2,0.3l-0.1,0.2l-0.2,0.3l-0.2,0.2l-0.1,0.2l-0.1,0.2l-0.2,0.2l-0.1,0.1l0,0.1l-0.1,0.1l-0.1,0.1v0h0l2.8,1.7l10.9-14.1
		L334.2,361.1L334.2,361.1z M456.8,361.6L456.8,361.6l-0.3,0.2l-0.4,0.2l-0.5,0.3l-0.7,0.3l-0.8,0.4l-0.9,0.4l-1,0.5l-1.1,0.5
		l-1.3,0.6l-1.4,0.7l-1.5,0.7l-1.6,0.7l-1.7,0.8l-1.8,0.8l-1.8,0.9l-3.9,1.9l-4.2,2l-4.4,2.1l-4.6,2.2L418,380l-4.9,2.3l-10,4.7
		l-10,4.7l-4.9,2.3l-4.8,2.3l-4.6,2.2l-4.4,2.1l-4.2,2l-3.9,1.9l-1.8,0.9l-1.8,0.8l-1.7,0.8l-1.5,0.8l-1.5,0.7l-1.4,0.6l-1.2,0.6
		l-1.1,0.5l-1,0.5l-1,0.4l-0.8,0.4l-0.6,0.3l-0.5,0.2l-0.4,0.2l-0.2,0.1l-0.1,0h0l0.7,2.3l103-43.7L456.8,361.6L456.8,361.6z
		 M106.9,367.8L106.9,367.8L106.9,367.8l0.1,0.1l0,0.1v0l0.1,0.1l0.1,0.1l0,0.1l0,0.1l0,0.1l0.1,0.1l0,0.1l0.1,0.2l0.1,0.1l0.2,0.3
		l0.2,0.3l0.2,0.3l0.2,0.4l0.2,0.4l0.3,0.4l0.4,0.8l0.5,0.8l0.3,0.4l0.2,0.4l0.2,0.4l0.2,0.4l0.2,0.3l0.2,0.3l0.1,0.1l0.1,0.2l0,0.1
		l0.1,0.1l0,0.1l0,0.1l0,0.1l0.1,0.1l0,0.1v0.1l0,0.1l0,0l0,0l98.8,37.2l1.2-4L106.9,367.8L106.9,367.8z M238.8,371.7l-2.9,3.2
		l3.3,4.3l2.6-1.5v0l0,0v-0.1l0,0v0l-0.1,0l0-0.1l0,0v-0.1l0-0.1l0,0l0-0.1l0-0.1l-0.2-0.3l-0.1-0.3l-0.1-0.2l-0.2-0.3l-0.1-0.2
		l-0.1-0.3l-0.3-0.5l-0.3-0.6l-0.1-0.3l-0.1-0.3l-0.1-0.3l-0.1-0.2l-0.1-0.3l-0.1-0.2l0-0.1l-0.1-0.1l0-0.1l0-0.1l0-0.1l0-0.1l0-0.1
		v0l0,0v0l0,0L238.8,371.7L238.8,371.7L238.8,371.7L238.8,371.7z M191.5,377.3l-2.8,3.3l28.4,19.6l2.2-3.5h0l0,0l-0.1,0l-0.2-0.1
		l-0.1-0.2l-0.2-0.1l-0.2-0.2l-0.3-0.2l-0.3-0.2l-0.3-0.2l-0.4-0.2l-0.4-0.3l-0.4-0.3l-0.4-0.3l-0.4-0.3l-0.5-0.4l-1-0.7l-1.1-0.8
		l-1.1-0.8l-1.2-0.8l-1.2-0.9l-1.2-0.9l-2.6-1.8l-2.6-1.8l-1.2-0.9l-1.2-0.8l-1.2-0.8l-1.1-0.8l-1.1-0.8l-1-0.7l-0.5-0.4l-0.5-0.3
		l-0.4-0.3l-0.4-0.3l-0.4-0.3l-0.3-0.3l-0.4-0.2l-0.3-0.3l-0.3-0.1l-0.2-0.2l-0.2-0.1l-0.1-0.1l-0.1-0.1L191.5,377.3L191.5,377.3
		L191.5,377.3z M225,379.6l-5,1.6l7.2,6.7l2.4-1.5l0,0l0,0v0l0-0.1l0-0.1l0,0l0-0.1l0-0.1l-0.1-0.1l0-0.1l0-0.1l-0.1-0.1l0-0.1
		l-0.2-0.2l-0.1-0.3l-0.2-0.3l-0.2-0.3l-0.2-0.4l-0.2-0.3l-0.4-0.6l-0.4-0.6l-0.2-0.4l-0.2-0.3l-0.2-0.3l-0.2-0.3l-0.2-0.2l-0.1-0.3
		l-0.1-0.1l0-0.2l-0.1-0.1l0-0.1l0-0.1l-0.1-0.1l0-0.1l0,0l0-0.1v0l-0.1,0L225,379.6L225,379.6L225,379.6L225,379.6z M339.2,380.1
		L339.2,380.1L339.2,380.1l-0.1,0.1l-0.1,0.1l0,0l-0.1,0.1l0,0.1l-0.1,0.1l0,0.1l-0.1,0.1l-0.1,0.1l-0.1,0.1l-0.1,0.2l-0.2,0.1
		l-0.2,0.3l-0.3,0.4l-0.3,0.3l-0.2,0.4l-0.3,0.4l-0.3,0.4l-0.6,0.8l-0.7,0.7l-0.3,0.4l-0.3,0.4l-0.3,0.4l-0.3,0.4l-0.3,0.3l-0.3,0.3
		l-0.1,0.2l-0.1,0.1l-0.1,0.1l-0.1,0.2l-0.1,0.1l0,0.1l-0.1,0.1l0,0.1l-0.1,0l0,0l0,0.1l0,0l0,0v0l1.6,2l7.8-6.7L339.2,380.1
		L339.2,380.1z M426,409.2L426,409.2l-0.2,0l-0.3,0l-0.4,0.1l-0.4,0.1l-0.5,0.1l-0.6,0.1l-0.8,0.2l-0.8,0.1l-0.9,0.2l-0.9,0.2
		l-1,0.2l-1.1,0.3l-1.1,0.3l-1.2,0.2l-1.2,0.3l-2.6,0.6l-2.9,0.6l-3,0.6l-3.2,0.7l-3.2,0.7l-3.3,0.7l-6.8,1.4l-6.8,1.5l-3.3,0.7
		l-3.2,0.7l-3.2,0.7l-3,0.6l-2.9,0.7l-2.6,0.5l-1.3,0.3l-1.2,0.3l-1.1,0.3l-1.1,0.2l-1.1,0.2l-0.9,0.2l-0.9,0.2l-0.8,0.2l-0.7,0.2
		l-0.6,0.1l-0.5,0.1l-0.4,0.1l-0.4,0l-0.3,0l-0.2,0h-0.1l0.6,2.8l66.1-11.2L426,409.2L426,409.2z M134.8,410.2L134.8,410.2l5.2,6.3
		l66.6,12.3l1-3.7h0l-0.2-0.1l-0.2,0l-0.4-0.1l-0.4,0l-0.5-0.1l-0.6-0.1l-0.7-0.1l-0.8-0.1l-0.8-0.2l-0.9-0.1l-1-0.3l-1-0.2
		l-1.1-0.3l-1.2-0.2l-1.2-0.3l-2.6-0.5l-2.8-0.6l-3-0.6l-3.1-0.6l-3.2-0.6l-3.3-0.7l-6.8-1.4l-6.7-1.3l-3.3-0.7l-3.2-0.6l-3.1-0.7
		l-3-0.6l-2.8-0.6l-2.6-0.5l-1.2-0.3l-1.2-0.2l-1.1-0.2l-1-0.2l-1-0.2l-0.9-0.2l-0.8-0.2l-0.8-0.1l-0.7-0.1l-0.6-0.2l-0.5-0.1
		l-0.4-0.1l-0.4,0l-0.2,0L134.8,410.2L134.8,410.2L134.8,410.2z"/>
	<path d="M136.3,202.3v-0.2v-0.2v-0.2l0-0.2v-0.2v-0.2l0-0.4l-0.1-0.5l0-0.4L136,199l0-0.4c-0.4-2.8,4.6-5.4,8.5-3.8
		c1.5,0.6,2.4-3.2,5.1-4.4c2.3-0.9-1-5.7,2.5-7.2c1.4-0.6,3.8,0.7,4.1-1.2c0.1-0.6-1.7-1.5-1.7-2.2c0-3.8-1.9-6.7-2-10.1
		c-0.1-3.7,4-3.3,7.4-3.5c0.8,0,1.4-0.9,1.1-2c2.6-0.1,6.5-1.6,8,1c1-2.7,2.8-0.8,2.2-3.2c-0.8-3.8-0.5-1.8-1-2.4
		c-3.3-4.5,0.1-14.3,5.2-13.7c4.9,0.5,9.3,1.8,10.1,7.5c2.4-4.3,7.2-1,9.8,1.1c2.6,2.1,2.1,5.2,2.1,8.6c0,2.8,1.3-1.2,2.6-1.1
		c0.1-3.8-0.1-6.4,3.2-7.6c2.9-1,0.6-5.9,1.4-8.1c1.3-3.6,2.4-5.5,6.3-7.5c3-1.5,5.3,0.8,0.5-0.5c5.3,1.6,1.9-0.5,4.1-4.1
		c2.4-3.8,7.6-3,12.3-3.3c-0.3,1.1,0.7,0.6,1.5,0.9c0.7,0.2,1.9,5.5,2.6,5.5c-0.3,8.5-2.4,6.4,3.7,5.9c1.6-0.1,3.6-1.5,3-2.1
		c-2.2-2.4-2.4-5.1-1.8-8c0.5-2.7,2.7-3.1,5.3-3.8c3.1-0.8-1.5-4.2,0.3-6.1c2.7-2.8,4-6.3,6.7-8.8c1.2-1.1,3.5-2.3,5.2-1.1
		c4.3,3,5.1,8.5,8.5,11.4c4.1,3.6,6-4.3,10.7-5.9c2.2-0.7,4.2-1.6,5.5,0.4c4.1-4.5,9.9-3,15.5-2c5.6,1,0.9,7.2,1.9,11.4
		c0.7,3.1,4.3-1.7,6.2,2.2c2.9-1.8,3.8-4.9,6.7-6.3c1.9-0.9,4.2,1.8,5.2,1.4c4.1-1.7,5-8.7,9.4-9.9c7-1.8,10.8,6.3,12.1,12.7
		c0.5-0.7,1.5-1.7,2-0.9c3.2,4.7,5.4,3,10.2,3.5c1.2,0.1,2.2,1.9,3.3,3c3-6.2,12.2-3.7,14.8-0.3c4,5.2,2.3,12.2-2.2,12.6
		c1.4,1.5,0.8,2.6,1.9,4.4c0.5-0.7,1.1-1.3,2.2-1.1c3,0.5,4,3.6,6.7,4.5c0.8-6.4,9.6-8.9,12.3-4.8c1.9,3,4.6,9.8,0.2,14
		c-0.1,0.1,1,1.4,1.9,0.8c0.7-0.5,1.8-1.5,2-0.9c0.5,1.6,2.7-0.4,3.4,0.7c3.8-3.1,7.4-3.5,10.9-0.2c3.2,3,6.4,10.9,0.5,14
		c0.7,0.7,1.9,1.4,2,2.2c0.6,3.5-2.2,7,2.4,7.5c0.7,0,1.4-1.6,2.2-1.7c4.6-0.5,9.8,0.5,10.9,5.4c0.7,3.5-3.2,5.2-1.9,8.9
		c-2.3-0.2-3.9,0.9-5.6,2.2c0.1,0.1,0.2,0.1,0.3,0.3L136.3,202.3L136.3,202.3z M417.7,202.3l0.2,0.1l0.2,0.2l0.2,0.1l0.2,0.2
		l0.2,0.2l0.2,0.2l0.2,0.2l0.2,0.2l0.1,0.2l0.2,0.2l0.1,0.2l0.2,0.2l0.1,0.2l0.1,0.2l0.1,0.2l0.1,0.2l0.1,0.2l0.1,0.2l0.1,0.2l0,0.2
		l0,0.2v0.2v0.2v0.1l0,0.1v0.1l0,0.1l-0.1,0.1l0,0.1l0,0.1l0,0.1l0,0.1l-0.1,0.1l-0.1,0.1l-0.1,0.1l-0.1,0.1l-0.1,0.1l-0.1,0.1
		l-0.1,0.1l-0.1,0.1l-0.1,0.1c4.8,2.1,13.1,1.2,10.9,8.5c-0.5,1.5,2.8,3.3,2.9,5.1c0.2,6.6,5.2,4.7,8.3,8.9c1.6,2.2,0.4,4.6-0.1,6.8
		c-1.4,5,4.3,12.1-0.8,16.6c4.4,2.2,0.4,9.1,3.3,9.1c3.1,0,7.8,1.7,9.5,3.6c2.1,2.4,0.2,8.2-1.4,10c-3.5,4-0.5,7.8-4,11.6
		c-0.7,0.7-1.5,1.3-2.3,1.8H111.9c0.1-1.2,2.1-6.3,4.7-8.9c1.8-1.8-1.9-7.1,7.4-9.8c2.1-0.6,2.5-1.5,1.8-2.8
		c-1.4-2.5-6.2-2.5-6.2-7.2c0,1.8,0.5-0.1,0.9-0.5c0.5-0.5-3.5-1.3-5.4-2.5c-6.3-4-6.9-7.9-5.2-12c1.2-3,4-5.2,7.4-5.9
		c3-0.6,4.3,0.8,6.7,1.3c1.1,0.1,0.8-1.5,1.5-3.2c1.1-3,5.1,1,7.4-1.2c-2.2-2.2-5-4.1-6.4-6.8c-1.5-3-0.4-4,2.2-6
		c-3.1-2-5.3-7-3.2-10.4c1.6-2.7,2.5-6.1,4.5-7.4c2.2-1.3,5.4-0.8,6-4.1c0.1-0.6,0.1-1.2,0.1-1.8L417.7,202.3L417.7,202.3z
		 M446.1,291.9l-0.2,0.2l-0.3,0.1l-0.2,0.1l-0.3,0.1l-0.2,0.1l-0.2,0.1l-0.2,0.1l-0.2,0.1l-0.2,0.1l-0.2,0.1l-0.4,0.2l-0.4,0.2
		l-0.4,0.2l-0.2,0.1l-0.1,0.1l-0.2,0.1l-0.2,0.1l-0.2,0.1l-0.2,0.2L441,295l-0.1,0.2l-0.2,0.2l-0.2,0.2l-0.2,0.2l-0.2,0.3l-0.2,0.2
		l-0.1,0.3l-0.2,0.3l-0.2,0.3c6.1,2.7,6.8,13.6,3.8,18.1c-2.5,3.6,0.5,0.6-0.2,7.2c-0.5,4.9-5.3,8.5-10.3,3.8
		c-1.7,5-2.8,12-8.5,13.8c-2.5,0.8-6,1.8-8.8-0.6c-1.4,2-5.5,3.1-4.9,4.1c2.5,4.6-0.2,7.6-3.1,10.1c-2.1,1.7-5.8-1.6-7.1-0.3
		c-3.6,3.6-7.7,3.5-6.3,9.3c0.6,2.2,1.5,5.3,0,7.9c-1.2,2.2,0,6.5-2.1,5.5c-2.7-1.1-7,1.6-8.7,0.1c-1.7-1.4-3.4-0.9-4.5-2.7
		c-2.5,1-1.4-0.5-1.1,0.5c-2.2,0-5.1-0.7-7-1.5c-2.5-1-3.3-2.2-3.2-5.2c0-0.7-1-1.6-2-1c-0.9,0.5-2.1,1.5-2,2.1
		c0.6,5.5-4.3,6.7-5.9,9.6c-2.3,4-6.3,8.2-11.1,8c-4.6-0.1-4.6-3.9-6.9-7.3c-0.4-0.6-2.7-3.3-2.8-3.6c-3-9.5-5.1-15.1,0.5-22.7
		c0.8,0.2,3.8-3.6,2.5-5.2c-3.1-4.1,2.1-8.6,5.3-12.5c0.7-0.9,0.7-3.3,0-4c-7.4-6.8-20-5-22.6,4.4c-2.2,8.3,4.1,18.5,1.2,26.5
		c-4.6,12.8-14.1,22.3-19.5,35c-1.9,4.6,1.1,9.5,5.4,11.9c3.4,1.8,8.3,1.1,10.6,4c6.6,8.2,16.7,8.6,23.5,15.7c1.6,1.8,2.6,5.1,5,5.9
		c11.7,4.1,22.7,11.9,35.7,10.4c-3.2,5.8-9.5,7.3-14.8,9.5c-12.4,5.2-24.1,11-37.7,14.3c-30.5,7.3-58.8,8.7-89.6,2.5
		c-22.6-4.6-42.5-13.1-61.7-24.1c0.4-0.3,0.7-1,1.1-0.9c4.1,0.2,8.5,0.2,12.1-0.8c11.1-3.3,21.7-9,32.1-13.1
		c8.1-3.2,11.6-14.8,15.5-24.2c1.2-3,4-5.4,6.8-7.6c11.5-9.4,19-22.3,25.5-35.5c2.7-5.5,3.7-13.1,0.6-19.5
		c-6-12.4-19.5-17.5-32.2-21.4c-1,6.2,2.9,11.6,2.7,17.9c0,1.3,3.5,1.4,3.8,3.4c0.7,4.8,1.3,11.2-4.2,13.4c1.8,1.1,1.3,3.1,0.8,4.3
		c-3.7,8.7-11.5,15.1-20.6,17.4c-2.7,0.6-6,8.1-11.5,8c-2.7,0-6.6-3.6-7.3-6.1c-1-4,2.1-7.5-2.7-7.4c-3.5,0.1-8.3-0.9-11,2.9
		c0,0,0.6,0.6,0.9,1c-3.2,1.4-4.3,6.1-7.8,6.3c-3.6,0.2-6.6-2.7-9.7-4.6c-1.4-0.8,1.1-4.8-1.5-5.9c-3.4-1.4-6-2.5-9.8-3.1
		c-2.3-0.4-6.1-2.4-6.3-5c-0.3-4.6-2.7-6.4-4.7-10.2c-0.8-1.4,0.4-4.2-0.6-5.1c-3.7-3.7-5-7.6-3.9-12.6c0.2-0.9,1.3-1.5,2-2.2
		c-2.1-2-2.3-4.4-4.7-6.1c-3.5,5.4-13.6,6.7-16.5,2c-2.7-4.2-4.7-11.9,3.4-13.9c-3.5-1.9-1.5-4.7-3.9-7.7c-6.3-7.9-0.2-9.9-3.2-14.4
		c-0.6-0.8-3.5,1.5-4.1,1.9c-2,1.6-6.7,1.1-7.6-0.1c-1.2-1.9-1.5-3.5-1.2-6.1L446.1,291.9L446.1,291.9z"/>
	<path d="M277.1,547.7L277.1,547.7c-70.6-0.8-136.7-28.6-186.7-78.6C39.8,418.6,12,351.3,12,279.7c0-71.5,27.9-138.8,78.5-189.4
		C141,39.6,208.3,11.8,279.9,11.8s138.8,27.9,189.4,78.5c50.6,50.6,78.5,117.9,78.5,189.4l0,0.1l-0.4,13.8l-1,13.6l-1.7,13.4
		l-2.3,13.2l-3,13l-3.6,12.7l-4.2,12.5l-4.8,12.2l-5.4,11.9l-5.9,11.5l-6.5,11.2l-7,10.8l-7.5,10.5l-7.9,10.1l-8.4,9.7l-8.8,9.3
		l-9.3,8.9l-9.7,8.4l-10.1,8l-10.5,7.5l-10.9,7l-11.2,6.5l-11.5,5.9l-11.8,5.3l-12.2,4.8l-12.5,4.2l-12.7,3.6l-12.9,2.9l-13.2,2.4
		l-13.4,1.7l-13.6,1.1L277.1,547.7z M279.9,20.9C137.2,20.9,21.1,137,21.1,279.7c0,142.7,116.1,258.8,258.8,258.8h0l13.3-0.3l13.2-1
		l12.9-1.6l12.8-2.3l12.5-2.8l12.3-3.5l12-4.1l11.7-4.7l11.5-5.2l11.1-5.7l10.9-6.2l10.5-6.7l10.1-7.2l9.8-7.7l9.4-8.1l9-8.6l8.6-9
		l8.2-9.4l7.7-9.8l7.2-10.2l6.7-10.5l6.2-10.8l5.7-11.1l5.2-11.5l4.6-11.7l4.1-12l3.5-12.3l2.9-12.5l2.3-12.7l1.7-13l1-13.1
		l0.3-13.4C538.6,137,422.6,20.9,279.9,20.9z"/>
	<path d="M276.5,426.6c-0.7-0.4-1.3-0.9-1.9-1.4c-0.2,0-0.3,0.1-0.5,0.1l-0.1-0.6c-1.1-1-1.9-2.2-2.7-3.4c-1.3,0.5-2.6,0.7-4.1,0.8
		l0-1.7c1.1,0,2.2-0.2,3.3-0.6c-0.6-1.3-1.1-2.7-1.5-4c-1.2,0.5-2.4,0.8-3.7,1l-0.2-1.7c1.2-0.2,2.4-0.5,3.5-1
		c-0.2-0.9-0.3-1.7-0.4-2.5c-0.5,0.2-1.1,0.5-1.6,0.7l-0.6-1.6c0.7-0.3,1.4-0.6,2.1-0.9c-0.1-1.8-0.1-3-0.1-3.1l1.7,0.1
		c0,0,0,0.9,0.1,2.2c1.6-1,2.5-1.8,2.5-1.8l1.1,1.2l0.9-0.1c0,0.1,0.1,0.8,0.3,1.9c1.1-1,1.8-1.7,1.8-1.8l0.9,0.7l0.7-0.3
		c0,0,0.7,1.4,1.9,3.2c1.3-1.8,2.1-3.2,2.1-3.3l0.7,0.4l1-0.6c0,0,0.8,1.3,2.3,2.8c0.2-0.9,0.4-1.6,0.4-2.1
		c-0.1-0.1-0.1-0.1-0.1-0.1l0.1-0.1c0-0.3,0.1-0.5,0.1-0.5l0.5,0l0.6-0.5c0,0,0.9,1,2.7,2.1c-0.1-0.5-0.2-0.8-0.2-0.8l1.6-0.5
		c0,0,0.2,0.9,0.3,2.2c0.4,0.2,0.9,0.4,1.3,0.6l-0.6,1.6c-0.3-0.1-0.5-0.2-0.8-0.3c0,0.6-0.1,1.3-0.3,2.1c0.6,0.2,1.2,0.3,1.9,0.4
		l-0.2,1.7c-0.7-0.1-1.4-0.3-2.1-0.5c-0.4,1-0.9,2.1-1.6,3.2c0.6,0.1,1.2,0.2,1.9,0.2l0,1.7c-1,0-2-0.2-3-0.4
		c-0.7,0.9-1.6,1.7-2.7,2.6c0.3,0.1,0.6,0.1,0.9,0.2l-0.3,1.7c-0.9-0.1-1.7-0.3-2.4-0.6c-0.2,0.2-0.5,0.3-0.8,0.5l-0.6-1
		c-1-0.4-1.8-0.9-2.6-1.5c-1,0.6-2.1,1.2-3.4,1.6c0.2,0.2,0.5,0.3,0.7,0.5L276.5,426.6z M272.9,420.6c0.6,1,1.3,1.9,2.2,2.7
		c1.3-0.3,2.5-0.8,3.6-1.4c-1.1-1-2-2.1-2.7-3.3C275.1,419.4,274,420.1,272.9,420.6z M281.5,422c0.7,0.5,1.5,0.9,2.3,1.2
		c1.2-0.8,2.2-1.7,3-2.6c-0.9-0.4-1.8-0.9-2.6-1.5C283.4,420.2,282.5,421.2,281.5,422z M277.2,417.6c0.7,1.2,1.7,2.4,2.8,3.4
		c1.1-0.8,2-1.8,2.7-2.8c-1.2-1-2.2-2.1-3.1-3.2C279,415.9,278.2,416.7,277.2,417.6z M285.1,417.8c0.9,0.6,1.8,1.1,2.8,1.5
		c0.8-1.1,1.3-2.2,1.7-3.3c-1.1-0.5-2-1.1-2.9-1.7C286.3,415.4,285.7,416.6,285.1,417.8z M270.6,415.1c0.4,1.3,0.9,2.7,1.5,4
		c1.1-0.5,2.1-1.2,3-2c-0.7-1.3-1.2-2.7-1.6-3.9C272.7,413.9,271.7,414.5,270.6,415.1z M280.8,413.6c0.8,1.1,1.8,2.1,2.9,3.1
		c0.7-1.2,1.2-2.4,1.6-3.5c-1.1-1-1.9-2-2.5-2.7C282.4,411.3,281.7,412.4,280.8,413.6z M274.9,412.2c0.3,1.2,0.8,2.5,1.5,3.9
		c0.8-0.8,1.6-1.7,2.3-2.5c-0.9-1.3-1.5-2.4-1.9-3.1C276.3,410.9,275.7,411.5,274.9,412.2z M287.3,412.6c0.8,0.6,1.7,1.3,2.8,1.7
		c0.2-0.8,0.2-1.5,0.2-2.2c-1-0.5-1.9-1.1-2.5-1.6C287.7,411.2,287.5,411.9,287.3,412.6z M269.8,410.9c0.1,0.8,0.2,1.6,0.4,2.5
		c1.1-0.6,2-1.2,2.9-1.9c-0.3-1.1-0.4-1.9-0.5-2.5C272,409.5,271.1,410.1,269.8,410.9z"/>
	<path fill="#FFD90F" d="M356.5,446c-1.2,0-8.4-0.7-10.3-1.6c-3.8-1.7-6.3-4.6-8.6-7.3c-2.1-2.5-4.1-4.8-7.1-6.4l-0.2-0.1
		c-9.7-7.4-16.7-10.8-24.1-14.4c-1.9-0.9-3.8-1.8-5.7-2.8c-3.1-1.6-5.1-3.8-6-6.7c-2-6.8,2.8-16.1,8.3-25.8l1.6-2.4l1.5-1.9l1.3-2.2
		l0.7-1.5c-1.2-0.4-2.4-1.2-3.4-2.1l1.7-1.8c1.7,1.5,4.2,2.5,5.7,1.4c0.9-0.7,1.6-1.3,2.3-2v-2.4c-0.2,0.2-0.3,0.4-0.5,0.6l-0.3,0.3
		c-0.6,0.6-1.5,1.6-3,1.4c-0.7-0.1-1.3-0.4-1.7-0.7c-0.1-0.1-0.3-0.2-0.4-0.2l1-2.3c0.3,0.1,0.5,0.3,0.7,0.4
		c0.2,0.1,0.4,0.3,0.5,0.3c0.3,0,0.5-0.1,1-0.7l0.3-0.3c1-1.1,1.5-2.2,1.2-3.2l-0.6-1.1l-0.3-0.3l-0.2-0.1l-0.1-0.1l0.7-0.8v-1.4
		h0.6l0.3,0.3l0.4,0.2l0.3,0.3l0.2,0.1l0.1,0.1c0.5-3,0.2-5.9-1-8.9l-1.7-4.8l-0.9-3l-1.6-7.2l-0.5-3l-1-6.6l2.5-0.4l0.8,5l0.2,1.6
		l0.8,4.3l1.3,5.7l0.8,2.9l1.6,4.7c1.5,3.9,1.7,7.7,0.8,11.7l-1.6,6.7c0.6-0.7,1-1.4,1.4-2.2c1-2.4,1.8-5.1,2.4-8.7
		c0.4-2.7,0-5.3-1.5-8.7c-1.5-3.4-2.3-5.9-3.2-9.3c-0.3-1.2-0.8-2.9-0.9-3.9l-0.5-2.5l-0.4-1.2l-0.8-4.3l0.1-2.7l0.2-1.1l0.1-0.5
		l2.4,0.5l-0.3,2.1l0,1.8l0.2,1.5l0.5,1.9l0.4,1.2l0.6,2.8c0.1,0.7,0.4,2,0.9,3.6c0.9,3.3,1.6,5.7,3,8.9c1.1,2.6,2.4,6.1,1.7,10.1
		c-0.6,3.8-1.4,6.7-2.5,9.3c-0.7,1.5-1.7,2.9-3,4.2l0.7,0.4l-0.2,0.4l-0.3,0.2l-0.1,0.2l-0.7,0.7l-0.1,0.2v0.2l-0.1,0.1v0.1
		l-0.2,0.2c-0.3,0.6-0.7,1.3-1.2,1.9c-0.1,0.2-0.2,0.3-0.3,0.5c0,0.2-0.1,0.3-0.2,0.5c-0.7,1.5-1.1,2-1.6,2.5
		c-0.3,0.3-0.6,0.7-1.5,2.4c-1.1,2.2-2.5,4.4-3.9,6.5c-1.5,2.3-3,4.5-3.4,6l-0.1,0.4c-1.1,4-2.6,9.5,0.1,12.5c2.4,2.6,5.6,4,9,5.4
		c1.3,0.6,2.7,1.1,4.1,1.8c1.1,0.5,2.1,1.4,2.9,2.2c0.2,0.2,0.5,0.4,0.7,0.6c1.5,1.3,3.4,2.4,5.7,3.8c2.3,1.4,5.2,3.1,8.6,5.5
		l0.9,0.7c3.8,2.7,7.4,5.2,10.6,8.7c0.3,0.3,0.6,0.6,0.9,0.9c0.8,0.9,1.5,1.7,2.4,2.2c1.5,0.9,2.8,1.4,4.2,1.7
		c0.3,0.1,0.5,0.2,0.7,0.4c2,0.4,3.9,1,5.6,1.7c0.5,0.2,1.3,0.2,2,0.1c0.4,0,0.7,0,1.1,0v2.5c-0.3,0-0.6,0-0.9,0
		c-0.9,0.1-2,0.1-3-0.3c-1.9-0.7-3.8-1.4-5.8-1.7l0.2-2.5c-0.5,0-1.1,0.3-1.1,1c-0.1,0.6,0.3,1.1,0.8,1.2c-1.6-0.3-3.2-0.9-4.9-1.9
		c-1.2-0.7-2.1-1.7-3-2.7c-0.3-0.3-0.5-0.6-0.8-0.9c-3-3.3-6.4-5.7-10.2-8.4l-0.9-0.7c-3.3-2.4-6-4-8.4-5.4c-2.4-1.4-4.4-2.6-6.1-4
		c-0.3-0.2-0.5-0.4-0.8-0.7c-0.8-0.7-1.5-1.4-2.3-1.8c-1.3-0.6-2.6-1.2-3.9-1.7c-3.5-1.5-7.1-3-9.9-6c-3.7-4-1.9-10.3-0.7-14.8
		l0.1-0.4c0.5-1.9,2-4.1,3.7-6.7c1.3-2,2.7-4.1,3.7-6.2c0.9-1.9,1.4-2.5,1.9-3c0.3-0.3,0.5-0.5,1.1-1.7l-0.1,0
		c0.1-0.3,0.3-0.6,0.5-0.9l0.4-0.9c-0.4,0.1-0.7,0.1-1.1,0.1l-0.8,1.7l-0.3,0.6l-2.7,4l-1.6,2.2l-0.2,0.4c-5.2,9.2-9.8,18-8,23.8
		c0.7,2.2,2.2,3.9,4.7,5.2c2,1,3.8,1.9,5.7,2.8c7.5,3.7,14.6,7.1,24.4,14.6c3.3,1.8,5.5,4.4,7.7,6.9c2.3,2.7,4.5,5.2,7.8,6.7
		c1.2,0.5,7.6,1.3,9.3,1.3L356.5,446z M310.8,375.1c0,0.1,0,0.1,0,0.2h0.3L310.8,375.1z M221.9,439.7l-0.7-2.4
		c5.2-1.5,14.3-5.4,16.3-14.9c0.2-0.9,0.7-2,1.1-2.7l0.2-0.4c0.9-1.7,1.6-3.4,2.4-5c1.4-3.2,2.7-6.1,4.9-8.6
		c2.6-3,7.5-7.9,10.7-10.9c8.7-8.1,14.8-16.8,20.8-29.9c4.6-10.2,1-23.3-8.4-30.5c-8-6.2-15.8-10.2-23.7-12.2
		c-2.9-0.8-5.7-2-8.3-3.1c-2.9-1.3-5.9-2.6-9.1-3.3l-1-0.2l-1.6,0l-1.6,0.3l-1.1,0.4l-0.9-2.3l2.4-0.8l2.8-0.2l1.4,0.2
		c3.5,0.8,6.6,2.1,9.6,3.5c1.6,0.7,3.2,1.4,4.8,2l1.7-0.4l1.4-0.2l2.8,0l1.6,0.2l2.9,0.8l4.4,1.7c15.3,5.5,23.5,11.2,28.6,28.9
		c1.4,4.7,0.4,11.3-2.9,19.7c-2.2,5.7-6.8,12.4-10.2,16.7c-3.8,4.6-7.8,8.8-11.6,12.9c-2.1,2.2-4.3,4.5-6.4,6.8
		c-5,5.5-8.1,12-9.3,14.4l-0.3,0.6c-0.9,1.9-2.3,3.6-3.7,5.2c-1.4,1.6-2.6,3.2-3.4,4.8l-1.7-0.8
		C233.7,434.3,228.5,437.8,221.9,439.7z M249.6,320.6c7,2.3,13.9,6.1,21,11.6c10.3,7.9,14.2,22.3,9.1,33.5
		c-6.1,13.5-12.3,22.4-21.3,30.7c-3.2,3-8,7.8-10.5,10.7c-2,2.2-3.2,5-4.5,8c-0.7,1.7-1.5,3.5-2.4,5.2c-0.1,0.1-0.1,0.3-0.2,0.4
		c-0.3,0.6-0.8,1.5-0.9,2.1c-0.2,0.8-0.4,1.6-0.7,2.4c0.3-0.4,0.6-0.7,0.9-1.1c1.3-1.6,2.6-3.1,3.4-4.8l0.3-0.5
		c1.2-2.5,4.5-9.2,9.7-15c2.1-2.3,4.3-4.6,6.4-6.8c3.8-4,7.8-8.2,11.5-12.7c3.4-4.1,7.7-10.5,9.8-16c3.1-7.7,4-14,2.8-18.1
		c-4.9-16.8-12.3-21.9-27-27.2l-6.1-2.2L249.6,320.6z M291.5,345.4l-0.4-1.7c-1-4-2.9-6.9-5.9-10.7c-0.6-0.7-1.3-1.3-2.1-2
		c-1.5-1.2-3-2.5-3.6-4.6c-0.5-1.8-0.7-3-0.8-4c-0.1-1.1-0.2-2.1-0.9-3.8c-0.2-0.4-1.5-3.1-1.9-3.6c-3.6-3-7.7-8.2-11-13.9
		c0,0-0.1-0.1-0.2-0.1c-0.3-0.3-0.8-0.6-0.9-1.2c-0.2-1.5-0.5-2.7-4.1-8.2l-0.3-0.5l-0.4-0.9l-2.4-4.8l1.4-0.7l0.6-0.6l0.2,0.2
		l2.9,5.9c3.4,5.3,4.1,6.9,4.4,8.7c0,0,0,0,0,0c0.3,0.2,0.6,0.5,0.8,0.9c3.2,5.5,7.1,10.4,10.5,13.3c0.7,0.6,2.5,4.5,2.5,4.5
		c0.8,2,0.9,3.3,1,4.5c0.1,1,0.2,2,0.7,3.5c0.4,1.3,1.6,2.3,2.8,3.4c0.8,0.7,1.7,1.4,2.4,2.3c2.1,2.7,4.1,5.5,5.5,9
		c0.2-0.5,0.5-1,0.8-1.4c-0.5-0.8-0.9-1.9-1.3-2.8c-0.2-0.6-0.5-1.4-0.7-1.6c-1.2-1.8-2.6-3-4-4.2c-2.2-1.9-4.3-3.7-5.1-7.4
		c-0.5-2.2-0.6-3.8-0.8-5.1c-0.3-2.2-0.4-3.6-1.6-5.7c-0.8-1.5-2.6-2.9-4.3-4.2c-1.5-1.2-3-2.4-4.1-3.8c-1.3-1.6-2.2-3-2.7-4.5
		c-1.2-3.4-3-6.8-5.6-10.8c-0.4-0.7-0.9-1.4-1.4-2c-1.5-2.2-3.1-4.5-4.1-7.3l2.3-0.9c0.9,2.4,2.3,4.5,3.8,6.7
		c0.5,0.7,0.9,1.4,1.4,2.1c2.7,4.2,4.6,7.8,5.8,11.4c0.4,1.2,1.2,2.4,2.3,3.8c0.9,1.1,2.3,2.2,3.7,3.4c1.9,1.5,3.9,3.1,4.9,5
		c1.4,2.5,1.6,4.2,1.9,6.6c0.2,1.3,0.3,2.8,0.7,4.9c0.6,2.9,2.2,4.3,4.2,6c1.4,1.2,3,2.6,4.4,4.7c0.3,0.5,0.6,1.2,1,2.1
		c0.4,1,1,2.5,1.5,3l1.5,1.2l-1.7,0.8c-0.5,0.2-0.7,0.7-1,1.5c-0.3,0.9-0.8,1.9-1.8,2.6L291.5,345.4z M319.8,329.6l-0.8-1
		c-0.5-0.7-0.7-1-0.9-1.3c-0.1-0.2-0.3-0.5-0.6-1c-1.5-2,2.8-5.8,2.8-5.9c9-7.2,12.2-8.4,19.5-9c3.2-0.2,5.9,0,8.6,0.2
		c5.5,0.4,9.9,0.7,15.8-3.3c2.7-1.8,6.2-5.5,9.6-9.1c3.7-3.9,7.6-7.9,10.7-9.9l1.5-1.2l2.8-2.5l1.8-0.5h0.8v2.5l-1.1,0.1l-1.1,0.7
		l-2.8,2.7l-0.5,0.3c-2.8,1.8-6.6,5.8-10.3,9.6c-3.7,3.8-7.2,7.4-10,9.4c-6.6,4.6-11.9,4.2-17.4,3.8c-2.5-0.2-5.2-0.4-8.2-0.2
		c-6.8,0.5-9.6,1.6-18.1,8.4c-0.5,0.4-1.9,2.1-2.2,2.8c0.2,0.4,0.4,0.6,0.5,0.8c0,0.1,0.1,0.1,0.1,0.1c0,0,0.1,0,0.1,0
		c0.2-0.1,0.3-0.2,0.7-0.5c4.9-4.9,8.9-6.4,15.1-8.4c3.2-1,6.7-0.9,10.3-0.7c4.5,0.2,9.6,0.4,15.3-1.5c5.9-2.1,11.8-8.6,16.9-14.4
		c1.8-2,3.4-3.8,5-5.4c6.9-6.9,18.6-10.1,26.4-3.5l-1.6,1.9c-6.6-5.6-17.1-2.6-23,3.3c-1.5,1.5-3.2,3.4-4.9,5.3
		c-5.4,6-11.5,12.8-18,15.1c-6.2,2.1-11.5,1.9-16.3,1.7c-3.6-0.2-6.7-0.3-9.4,0.6c-6,1.9-9.6,3.3-14.1,7.8c-0.6,0.6-0.9,0.8-1.3,1
		c-0.2,0.1-0.4,0.2-0.8,0.5L319.8,329.6z M319.5,324.8c0,0,0,0.1,0.1,0.1C319.6,324.9,319.6,324.9,319.5,324.8z M252.3,315.6
		c-1.2-2-2.1-3.7-2.8-5.1c-1.1-2.2-1.9-3.7-3.3-5.3c-5-5.8-10.6-10.9-18.2-16.5l-2-1.4L224,286l-2.1-1.1l-2.1-1l-2.2-1l-2.2-0.9
		l-4.4-1.5l-13.8-4.5l-2.3-0.9l-2.3-1l1-2.3l2.2,0.9l2.2,0.8l4.5,1.5l11.5,3.7l2.3,0.8l2.3,0.9l2.3,1l3.3,1.6l1.1,0.6l3.2,2.1
		l1.1,0.8c7.8,5.8,13.5,11,18.6,17c1.5,1.8,2.4,3.6,3.6,5.8c0.7,1.4,1.6,3,2.7,5L252.3,315.6z M245.7,313.2l-0.1-0.1
		c-3.9-5.5-11.2-15.7-23.3-22.6l-3.1-1.7l-0.8-0.4l-0.9-0.5l-5.6-2.4l-4-1.6l-4-1.4l-9.5-2.9l-1.6-0.4l0.6-2.4l3.5,0.9l3.8,1.2l6,2
		l4.1,1.6l4,1.6l3.8,1.7l0.9,0.5l0.9,0.4l0.8,0.5l0.9,0.4l1.4,0.8c12.6,7.1,20.1,17.7,24.1,23.3l0.1,0.1L245.7,313.2z M334.9,301
		c-0.3,0-0.5,0-0.8,0l-2.8-0.2l2-2c0.7-0.7,0.8-0.8,0.8-0.9l0.1-0.1c0.2-0.3,0.2-0.7,0.3-1.1c0.1-0.5,0.2-1,0.4-1.6
		c3.3-6,4.6-12.7,4.3-21l2.5-0.1c0.3,8.7-1.1,15.8-4.5,22.2c-0.1,0.2-0.1,0.5-0.2,0.8c-0.1,0.4-0.1,0.8-0.3,1.3
		c0.7-0.1,1.2-0.3,1.3-0.5c3.9-6.4,4.6-13.4,5.3-20.8c0.3-3.5,0.7-7.1,1.4-10.7l1,0.1l-0.8-0.5c0.2-0.3,1.1-2.4,1.7-3.6
		c1-2.1,1-2.1,1.1-2.3c2.1-1.9,4.6-4.1,6.1-6.2c0.7-0.9,1.3-2,1.9-3.2c0.3-0.6,0.7-1.2,1-1.8c0.6-1,1.2-1.9,1.8-2.8
		c0.7-1.1,1.4-2.1,2.1-3.3c1.1-1.8,2-3.5,2.7-5.5l0.3-0.8l1.1-1.6l1.5-1.3l1.6-0.9l0.6-0.3l2.9-1.1l0.8,2.4l-1.7,0.6l-0.5,0.2
		l-1.1,0.5l-2.3,1.5l-0.7,0.9l-0.4,0.9c-0.8,2.1-1.7,4-2.9,5.9c-0.7,1.2-1.4,2.3-2.1,3.4c-0.6,0.9-1.2,1.8-1.8,2.7
		c-0.3,0.5-0.6,1.1-0.9,1.7c-0.7,1.2-1.3,2.4-2.1,3.5c-1.7,2.2-4.2,4.5-6.2,6.4c-0.1,0.3-0.4,1-0.8,1.7c-0.8,1.8-1.3,2.8-1.7,3.5
		c-0.7,3.5-1,7-1.4,10.4c-0.8,7.7-1.5,15-5.7,21.9C339.4,300.5,336.8,301,334.9,301z M293.3,270.5l-2.2-1.2c0.3-0.8,0.3-1.8,0.2-2.8
		c-0.1-1.1-0.1-2.2,0.3-3.4c0.1-0.4,0.2-0.7,0.3-1c0.4-1.2,0.8-2.4,1.5-3.4c2.8-4,6.2-6.6,9.6-9l0.6-0.4c3.2-2.2,6.6-4.6,7.1-8.2
		l2.5,0.3c-0.6,4.7-4.6,7.4-8.1,9.9l-0.6,0.4c-3.1,2.2-6.4,4.7-8.9,8.4c-0.5,0.8-0.9,1.8-1.2,2.8c-0.1,0.4-0.2,0.7-0.4,1
		c-0.1,0.4-0.2,0.9-0.2,1.5c4.5-5.8,10.1-10.3,15.5-14.5c8.2-6.3,8.6-17.2,8.4-27.7c0-2.8-0.7-5.8-2.2-9.3c-0.2-0.5-0.5-0.9-0.8-1.4
		c-0.5-0.9-1.1-1.8-1.3-3c-0.2-0.8-0.5-1.7-0.8-2.5c-0.1-0.3-0.2-0.7-0.4-1l-0.4-0.9l-3.3-5.4l-0.7-1.7l2.3-0.9l0.6,1.5l3.7,6.3
		l0.1,0.3c0.1,0.3,0.2,0.6,0.3,0.9c0.3,0.9,0.7,1.9,0.9,3c0.1,0.7,0.5,1.4,1,2.1c0.3,0.6,0.7,1.1,1,1.8c1.5,3.7,2.3,7,2.3,10.2
		c0.3,11.2-0.2,22.7-9.3,29.7C304.3,258.1,298,263.3,293.3,270.5z M274.1,250.6c-1.1-1.1-1.9-2.3-2.7-3.6c-0.8-0.7-1.7-1.3-2.6-1.9
		c-1.7-1.1-3.5-2.3-4.6-4.2c-3-4.8-3.7-10.6-2-16.3c0.4-1.2,0.9-2.4,1.5-3.7c0,0,0-0.2-0.1-0.3c0-0.5-0.1-1.1,0.3-1.7v-0.1l0.5-0.7
		l0-0.4h0.1l0.2-0.3l0.4,0.3l1.8,0v0.9l-0.1,0.1l0,0.3l-0.7,1c0,0.1,0,0.1,0,0.2c0,0.5,0.1,1.1-0.2,1.7c-0.6,1.2-1.1,2.2-1.4,3.3
		c-1.5,5-0.8,10,1.8,14.3c0.5,0.8,1.2,1.5,2,2.1c-1.5-3-2.3-6.5-2.3-10.1c0-6.4,3.4-13,9.3-18.2c0.2-0.2,0.5-0.4,0.7-0.7
		c1.6-1.5,3.4-3.2,6-3.6c1.1-0.2,2-0.8,2.9-1.3l1.3-0.7l4.1-1.7l3.4-1.3l0.8-0.2l3.1-0.9l0.5,2.4l-2.1,0.6l-2.1,0.7l-1,0.3l-6.7,2.9
		c-1,0.7-2.3,1.5-3.9,1.7c-1.8,0.3-3.2,1.6-4.6,3c-0.3,0.2-0.5,0.5-0.8,0.7c-5.4,4.8-8.4,10.7-8.4,16.4c0,3.7,1,7.3,2.7,10.1
		c0.5,0.8,1,1.6,1.4,2.4c0.2,0.4,0.5,0.8,0.7,1.2c0.3,0.3,0.6,0.6,0.9,1l-0.2,0.2c0.5,0.8,1.1,1.6,1.8,2.3L274.1,250.6z
		 M265.5,218.8L265.5,218.8L265.5,218.8z M211.5,232.8l-2.8,0l-1.1-0.1l-1.1-0.1l-2-0.3l-2-0.4l-1-0.3l-3-1l-2-0.8l-1.1-0.5l1-2.3
		l2.1,0.8l3.7,1.3l2.7,0.6l1.8,0.3l0.9,0.1l1,0l0.5,0l0.5,0l2.1,0c2.5-0.1,4.9-0.4,7.1-0.6c3.3-0.4,6.4-0.8,9.4-0.5l-0.2,2.5
		c-2.8-0.2-5.8,0.1-8.9,0.5c-2.3,0.3-4.7,0.6-7.3,0.7L211.5,232.8z M248,228.8c-2.3-6.9-6.2-9.7-12.7-14.2c-0.9-0.6-1.8-1.3-2.8-2
		l1.4-2c1,0.7,1.9,1.3,2.8,1.9c6.7,4.7,11.1,7.8,13.6,15.5L248,228.8z M233.9,227.7c-2.7-1-5.2-1.4-7.8-1
		c-10.8,1.5-24.8,2.3-37.3-5.7l-1.2-0.4l-0.2,0l-1.6-0.3l0.6-2.4l2,0.3h0.2l1.5,0.7c11.8,7.5,24.6,7,35.7,5.4c2.9-0.4,6,0,9,1.2
		L233.9,227.7z M242.2,225.7c0-0.1-0.1-0.1-0.1-0.2c-0.4-0.2-0.7-0.5-1-0.8c-2.2-2.2-4.8-4-7.6-5.8c-2.6-1.7-5.3-3.5-7.6-5.7
		l-1.4-1.4l-2.7-3.1l-6.3-7.8l-2-2.1l-1.3-1.3l-2.1-1.7l-1.5-1l-2.3-1.2l-2.7-0.8l0.6-2.4l3.1,0.9l2.6,1.3l1.7,1.1l0.9,0.6l2.2,1.9
		l1.4,1.5l1.4,1.5l2.6,3.1l3.8,4.8l2.6,3l1.3,1.3c2.1,2.1,4.7,3.8,7.2,5.4c2.8,1.8,5.6,3.7,8,6.2c0,0,0,0,0,0l0,0
		c0.8,0.1,1,0.6,1.5,1.6l-0.8,0.4l0.1,0.1c-0.4,0.5-0.8,0.5-1,0.6c-0.1,0-0.2,0-0.4,0L242.2,225.7z M242.6,225.5c0.1,0,0.1,0,0.2,0
		l0-0.1L242.6,225.5z M311.2,212.3l-2.5-0.1c0-1.7-0.8-3.2-1.6-4.8c-0.2-0.4-0.4-0.8-0.6-1.2c-1.9-3.8-4.6-7.1-7.3-10.3l0-0.1
		c-1.9-2.2-3.6-4.2-5.7-5.9c-1.8-1.5-3-2.9-4-4.4c-0.8-1.1-1.6-2.2-2.5-3.3c-2-2.5-4-5-4.9-8.4l-0.5-1.8l-0.3-0.8l-0.3-1l-0.3-0.8
		l-0.8-2.7l-0.5-2.4l-0.2-2.5l0.3-2.5l0.1-0.5l2.4,0.5l-0.3,1.6l0.1,2.9l0.1,0.5l0.1,0.8l0.2,0.9l2.1,6.9c0.7,2.9,2.5,5.1,4.4,7.5
		c0.9,1.1,1.8,2.2,2.6,3.4c0.9,1.3,2,2.5,3.6,3.9c2.2,1.8,4.2,4,6,6.2l0.1,0.1c2.8,3.3,5.6,6.8,7.6,10.8c0.2,0.4,0.4,0.8,0.6,1.2
		C310.2,208,311.2,210,311.2,212.3z"/>
	<path fill="#FFFF00" d="M252.9,115.5c-2.5,0.2-4.1,6.3-4.1,6.3c-6.3-1.7-2.5,8.8-2.5,8.8H246l-0.4,0h-0.3H245h-0.3l-0.3,0l-0.2,0
		l-0.2,0l-0.2,0l-0.2,0l-0.1,0.1l-0.2,0.1l-0.1,0.1l-0.1,0.1l-0.2,0.1l-0.1,0.1l-0.1,0.1l-0.1,0.1l0,0.2l-0.1,0.1l0,0.1l-0.1,0.2
		l-0.1,0.1v0.2l0,0.1l0,0.2v0.2v0.1v0.2v0.1v0.2v0.2l0,0.4l0.1,0.4l0.1,0.3l0,0.3l0.1,0.4l0.1,0.4l0.1,0.3l0.1,0.2l0,0.2l0,0.1
		l0.1,0.1l0,0.1l0,0.2l0,0.1l0,0.1l0,0l0,0.1l0,0v0l0,0v0l0.1,0c2.5-3.8,7.1-2.1,7.1-2.1c-0.8-2.5,1.6-13.4,1.6-13.4h2.1
		c-1.6,0.8-0.4,12.6-0.4,12.6c1.7-2.1,5.4-0.4,5.4-0.4c0.4-5.9,5.9-6.3,5.9-6.3c-3.3-1.7-7.6-2.1-7.6-2.1l-0.8-5.9
		C255.3,116.6,254,115.4,252.9,115.5L252.9,115.5z M288.9,118.5c-0.9,0-1.9,0.2-2.7,0.8c0,0-5.4,0.8-7.5,3.7c0,0-5-3.7-9.2,6.3
		c0,0-5,1.3-6.3,5.5h0h0.1h0l0.1,0l0.1,0.1l0.2,0l0.1,0l0.1,0l0.1,0.1l0.2,0.1l0.2,0.1l0.2,0.1l0.1,0.1l0.1,0.2l0.2,0.2l0.1,0.1
		l0.2,0.2l0,0.1l0,0.1l0.1,0.1l0,0.1l0,0.1l0,0.2l0.1,0.1l0,0.2l0,0.1l0,0.1l0,0.2v0.1l0,0.2v0.2l0,0.2v0.2v0.2v0.2v0.2v0.2l0,0.2
		v0.2l0,0.2l0,0.3l0,0.3l0,0.2l0,0.3l-0.1,0.3c0,0,8.4-16,20.6-17.6l2.1,1.2c0,0-27.7,11.7-18,39.9l2.5,5.9c0,0,5.4-8,2.5-10.1
		c-2.9-2.1,8.8-13.4,0-14.2c0,0,16-3.3,8.8-12.6c0,0,11.7-5,10.5-13C294.6,120.9,291.7,118.6,288.9,118.5L288.9,118.5z M327,119.1
		c-2.2,0.1-3.9,3.1-3.9,3.1c-2.9,0-2.9,4.6-2.9,4.6l0.2,0.1l0.1,0.2l0.1,0.2l0.2,0.2l0.1,0.2l0.1,0.2l0.1,0.2l0.1,0.2l0.1,0.2
		l0.1,0.2l0.1,0.4l0.2,0.4l0,0.4l0.1,0.4v0.4l0,0.4v0.4v0.4l0,0.4l0,0.4l0,0.4l0,0.3l-0.1,0.4l0,0.4l-0.1,0.3l-0.1,0.4l0,0.3
		l-0.1,0.2l-0.1,0.3l-0.1,0.2l0,0.2l0,0.2l0,0l-0.1,0.1v0l0,0v0v0h0v0c4.2,3.4-4.2,10.1-4.2,10.1c4.2,2.9,0,7.5,0,7.5
		c4.2-4.6,7.5,0.8,7.5,0.8c5.4-15.5,2.5-31.5,2.5-31.5h1.6c5,10.9-1.2,33.2-1.2,33.2c1.7,1.2,6.3,5.8,6.3,5.8
		c4.6-5.8-1.2-7.9-1.2-7.9c6.3-8,2.9-17.2,2.9-17.2c4.2-2.9-1.3-8.4-1.3-8.4C331.5,121.1,329,119,327,119.1L327,119.1z M311.8,126.2
		c-3.9,0.1-8.5,10.3-8.5,10.3c-2-7.5-12.1-1.2-12.1-1.2c4.6,6.3-6.7,12.6-6.7,12.6c3.3,2.1-1.2,8.8-1.2,8.8l0.3,1l0.2,1l0.3,0.9
		l0.3,1l0.3,0.9l0.3,0.8l0.3,0.8l0.3,0.8l0.3,0.8l0.3,0.7l0.3,0.8l0.3,0.6l0.3,0.7l0.3,0.6l0.3,0.6l0.3,0.6l0.3,0.5l0.2,0.5l0.3,0.5
		l0.2,0.4l0.3,0.4l0.2,0.4l0.2,0.4l0.2,0.3l0.2,0.2l0.1,0.3l0.1,0.2l0.1,0.1l0.1,0.1l0,0l0,0.1v0c0.8-29.8,19.3-41.2,19.3-41.2h2.1
		c-21.4,23.9-17.2,50.8-17.2,50.8c13-13.4,7.1-19.7,7.1-19.7c20.5-10.9,9.2-16.8,9.2-16.8c10.9-5.4,5.8-11.7,5.8-11.7
		c3.4-8.4-2.9-8-2.9-8C313.3,126.5,312.6,126.1,311.8,126.2L311.8,126.2z M361.6,133c-1.5,0-3.1,0.3-4.8,0.1
		c-3.4-0.4-4.6,4.6-4.6,4.6c-7.5-9.6-13,2.1-13,2.1l-0.1,0l-0.1,0l0,0l-0.1,0.1l0,0.1l0,0.1l0,0.1l0,0.2l-0.1,0.1l0,0.2v0.2l0,0.2
		v0.2v0.3v0.2v0.3v0.3v0.2l0,0.5l0,0.6l0.1,0.6l0.1,0.6l0.1,0.6l0.1,0.7l0.1,0.6l0.1,0.7l0.1,0.6l0.1,0.7l0.1,0.6l0.1,0.6l0.1,0.5
		l0.1,0.5l0.1,0.5l0,0.2l0,0.3l0,0.2l0,0.2l0,0.2l0,0.2l0,0.1v0.2l0.1,0.1l0,0.1v0.1v0.1l0,0v0v0c10.1-12.6,18.9-17.6,18.9-17.6
		l2.1,1.2c-6.7,2.9-23.9,29-23.9,29c1.2,4.2,3.8,6.7,3.8,6.7c25.2-11.3,12.6-18.9,12.6-18.9c14.4-3.8,8-9.2,8-9.2
		c5-1.2,5-7.5,3.3-10.4C364.3,133.4,363,133,361.6,133L361.6,133z M223.2,133.1c-2.3,0-5.2,0.5-5.9,3.4c0,0-2.5,3.3-1.2,6.3
		c0,0-10.9-6.3-8,12.6c0,0-8.8,4.6,0.8,18.1v0v0v-0.1v-0.1l0.1-0.2v-0.2v-0.3l0-0.3l0-0.3v-0.4l0-0.4l0-0.4l0.1-0.8l0.2-1l0.1-1.1
		l0.2-1.1l0.2-1.2l0.2-1.3l0.3-1.4l0.3-1.4l0.3-1.5l0.3-1.5l0.4-1.5l0.5-1.5l0.4-1.5l0.5-1.5l0.5-1.6l0.6-1.5l0.6-1.5l0.7-1.5
		l0.7-1.4l0.7-1.3l0.8-1.3l0.9-1.2l0.9-1.1l0.9-1.1l1.1-0.9l0.5-0.4l0.5-0.4l2.9-0.9c0,0-23.1,35.7-4.2,58.8c0,0,2.1-8.4-0.8-14.3
		c0,0,6.3-5,2.5-15.5c0,0,9.2-4.9,3-14.3l-0.9-1.2c0,0,8-7.5,1.3-15.5C226.6,133.5,225,133.1,223.2,133.1L223.2,133.1z M259.6,136.5
		c-1.6,0.1-4,0.7-7.5,2.1c0,0-6.3-3.7-10.9,7.1c0,0-10.5,0.4-8.8,12.6c0,0,16.8-15.5,23.9-18c7.1-2.5,2.5,1.2,2.5,1.2h0l0,0.1
		l-0.1,0l-0.2,0.1l-0.2,0.1l-0.2,0.1l-0.2,0.2l-0.3,0.1l-0.3,0.3l-0.4,0.2l-0.8,0.6l-0.9,0.6l-0.9,0.8l-1.1,0.8l-1.1,0.9l-1.2,1
		l-1.2,1.1l-1.3,1.1l-1.3,1.2l-1.4,1.3l-1.4,1.4l-1.3,1.4l-1.4,1.5l-1.4,1.6l-1.3,1.6l-1.3,1.7l-1.2,1.8l-1.1,1.8l-1.1,1.9l-1,1.9
		l-0.9,2l-0.8,2l-0.7,2.1l-0.6,2.2l-0.5,2.2l-0.1,1.1l-0.2,1.1l-0.1,1.1l0,1.1c0,0,26.9-16,12.6-19.8c0,0,22.7-5.8,11.7-12.1
		C253,152,268.3,136.2,259.6,136.5L259.6,136.5z M174.5,148.6c-3.8,2.5,2.1,14.3,2.1,14.3c-8.4,6.7,3.8,7.1,3.8,7.1
		c-5.8,4.2,0,4.2,1.7,4.2c1.3,0,6.7,5.2,9.2,7.6c-8.6-9-15.5-27.3-15.5-27.3s0.6-2.4,0.8-2.1l0.8,1.5l0.8,1.5l0.8,1.4l0.8,1.5
		l0.8,1.3l0.8,1.3l0.7,1.2l0.8,1.2l0.8,1.2l0.7,1.2l0.7,1.1l0.7,1.1l0.7,1.1l0.7,1l0.7,1l0.7,0.9l0.6,0.9l0.6,0.9l0.6,0.8l0.6,0.8
		l0.6,0.8l0.6,0.8l1.1,1.4l1.1,1.2l1,1.2l1,1.1l0.9,1l0.9,0.9l0.8,0.7l0.8,0.7l0.7,0.6l0.7,0.5l0.6,0.4l0.6,0.4l0.5,0.3l0.4,0.2
		l0.4,0.3l0.3,0.1l0.3,0.1l0.3,0.1l0.1,0l0.1,0h0c-8.3-22.7-10.7-20.1-11.2-18.9c2.1-5.9-3.5-5.5-3.5-5.5c5.8-2.9,2.5-8.8,2.5-8.8
		c-1.7-4.2-8,1.2-8,1.2C183.7,149.1,174.5,148.6,174.5,148.6L174.5,148.6z M191.2,181.8c0.4,0.4,0.9,0.9,1.3,1.3
		C192.5,183.1,192,182.6,191.2,181.8z M383.5,151.2l-0.2,0l-0.1,0l-0.1,0l-0.2,0l-0.1,0.1l-0.1,0.1l-0.1,0l-0.1,0.1l-0.1,0.1
		l-0.1,0.1l-0.1,0.1l-0.1,0.1l-0.3,0.3l-0.2,0.3l-0.3,0.2l-0.2,0.4l-0.2,0.3l-0.2,0.4l-0.2,0.3l-0.2,0.3l-0.2,0.4l-0.2,0.4l-0.2,0.4
		l-0.1,0.4l-0.1,0.3l-0.1,0.3l-0.1,0.3l-0.1,0.2l0,0.3l0,0.1l-0.1,0.1l0,0.1v0.1l0,0.1v0l0,0.1v0l0,0v0v0v0v3.8l3.7-4.2l1.2,1.2
		l-2.9,5c2.5,0.8,1.2,8,1.2,8l6.3-5.8h-2.9l1.2-4.2c1.7-6.3,0.8-10.5-2.5-10.9h-0.1h-0.2h-0.1L383.5,151.2L383.5,151.2z
		 M369.5,155.4l-0.2,0H369l-0.3,0l-0.2,0.1l-0.3,0.1l-0.2,0.1l-0.2,0.1l-0.2,0.2l-0.3,0.2l-0.3,0.2l-0.2,0.2l-0.3,0.3l-0.1,0.2
		l-0.2,0.1l-0.1,0.1l-0.1,0.2L366,158l-0.2,0.2l-0.1,0.2l-0.1,0.2l-0.2,0.2l-0.1,0.3l-0.1,0.2l-0.2,0.3l-0.1,0.2l-0.1,0.3
		c0,0-2,2.1,0,7.1c0,0-12.1-5-9.2,10.1c0,0,8.4,6.3,9.6,7.6c0,0,3.3-15.1,2.9-20.6h1.6c0,0,1.7,19.3-4.6,35.7
		c0,0,15.9-14.7,7.9-20.6c0,0,11.3-12.6,1.3-12.6l0.4-4.6v0v0l0,0v-0.1l0-0.1l0-0.1l0-0.1l-0.1-0.1l0-0.2l0-0.1l0-0.2l-0.1-0.1
		l0-0.2l-0.1-0.2l-0.1-0.2L374,160l-0.1-0.2l-0.2-0.4l-0.2-0.5l-0.3-0.4l-0.3-0.4l-0.3-0.4l-0.2-0.2l-0.1-0.2l-0.1-0.2l-0.2-0.2
		l-0.1-0.1l-0.2-0.2l-0.2-0.2l-0.2-0.1l-0.1-0.1l-0.2-0.2l-0.2-0.1l-0.2-0.1l-0.2-0.1l-0.2,0l-0.2,0h-0.2L369.5,155.4L369.5,155.4z
		 M319.3,156.5c-0.7,0.1-1.4,0.6-2,1.8c0,0-2.5,2.5,0,8.4c0,0-4.2-0.8-2.1,6.3c0,0-12.2-1.7-3.3,11.8c0,0,1.6,2.9,4.2,5.4
		c0,0-10.9,4.2,8.8,19.7v0v-0.1l0-0.1v-0.1v-0.2v-0.2v-0.3v-0.3v-0.4l0.1-0.7v-0.9v-1v-1.1v-1.2v-1.3v-1.4l-0.1-1.4l0-1.5l0-1.6
		l-0.1-1.6l-0.1-1.7l-0.1-1.7l-0.2-1.7l-0.1-1.8l-0.4-3.6l-0.2-1.8l-0.3-1.8l-0.3-1.8l-0.4-1.8l-0.4-1.8l-0.4-1.7l-0.4-1.7l-0.5-1.6
		l-0.5-1.6l-0.6-1.5h1.7c0,0,13.6,21.3,5.4,56.3c0,0,17.2-28.1,6.3-25.6c0,0,13.4-24.4-1.6-15.1c0,0,5.4-19.7-2.9-13
		C328.6,169.3,323.2,156.1,319.3,156.5L319.3,156.5z M163.6,166.6c-0.8,0-1.6,0.3-2.2,1.4c0,0-9.2,0-3.3,8c0,0-2.9,5.9,7.1,2.9
		c0,0,0.8,0.4,0.8,0l-7.1-5l1.2-1.7l0,0l0.1,0.1l0,0.1l0.2,0.1l0.1,0.1l0.1,0.2l0.2,0.1l0.2,0.2l0.3,0.2l0.3,0.2l0.3,0.2l0.4,0.2
		l0.4,0.3l0.4,0.2l0.4,0.2l0.4,0.2l0.4,0.2l0.4,0.2l0.5,0.2l0.6,0.2l0.5,0.2l0.5,0.2l0.6,0.2l0.6,0.2l0.7,0.2l0.6,0.1l0.7,0.1
		l0.7,0.1l0.7,0.1l0.8,0l0.8,0.1c0,0-1.2-8.8-4.6-6.7C168.6,170.5,166,166.7,163.6,166.6L163.6,166.6z M392.1,167
		c-5.3-0.1-6.8,11.5-6.8,11.5c-10.1-10.5-8.4,15.1-8.4,15.1l-0.1-0.1l-0.2-0.1l-0.3-0.2l-0.3-0.1l-0.3-0.1l-0.3-0.1l-0.2,0h-0.3
		l-0.3-0.1h-0.2l-0.2,0.1l-0.2,0l-0.1,0l-0.2,0.1l-0.1,0.1l-0.2,0.1l-0.1,0.2l-0.1,0.1l-0.1,0.2l-0.1,0.2l0,0.1l-0.1,0.2l0,0.3
		l-0.1,0.2l-0.1,0.3v0.2l0,0.3l0,0.2v0.3v0.3v0.3v0.6v0.6l0,0.5l0.1,0.6l0,0.6l0.1,0.5l0.1,0.5l0.1,0.5l0,0.3l0.1,0.3l0,0.2l0,0.3
		l0,0.2l0,0.2l0,0.2l0,0.2l0,0.2l0.1,0.1v0.1l0,0.1l0,0.1v0.1v0.1l0,0v0l2.9,3.3c7.1-24.4,23.5-37.4,23.5-37.4l1.7,1.6
		c-10.7,4.8-19.7,29.8-21,32.4c-1.3,2.5,2.1,10.9,2.1,10.9c12.1-5.4,6.7-12.6,6.7-12.6c16-3.8,7.6-13.4,7.6-13.4
		c14.2-0.8,6.7-12.6,6.7-12.6c4.6-13.8-8.4-7.5-8.4-7.5C394.2,167.4,393,167,392.1,167L392.1,167z M265.3,168.2
		c-2.2,0-6.4,1.1-6.4,1.1c-14.7,2-22.3,32.7-22.3,32.7l-1.2,0.9l-0.1-1l0-0.9l0-1v-1V198l0.1-1l0.1-0.9l0.1-0.9l0.2-1l0.1-0.9
		l0.3-0.8l0.2-0.8l0.3-0.8l0.3-0.8l0.2-0.8l0.3-0.8l0.2-0.8l0.3-0.6l0.3-0.7l0.3-0.6l0.2-0.5l0.3-0.6l0.2-0.5l0.2-0.4l0.3-0.4
		l0.2-0.4l0.1-0.3l0.2-0.2l0.1-0.2V182l0,0l0,0v0c-14.6,9.2-6.7,12.6-6.7,12.6c-5.4,5,0.8,13,0.8,13c4.2,6.3,5.9-8,5.9-8
		c4.2,7.6,9.6-11.7,9.6-11.7c5,12.2,9.7-8.8,9.7-8.8c4.6,13.8,7.9-9.6,6.7-10.5C266.2,168.3,265.8,168.2,265.3,168.2L265.3,168.2z
		 M240.4,181.9C240.4,181.9,240.4,181.9,240.4,181.9L240.4,181.9L240.4,181.9z M344.8,175.6c-1.3,0-2.9,0.5-3.1,2.8
		c0,0-1.6,5.9,2.1,5.9c0,0-8.8,9.2,0,14.2c0,0-5.4,4.2,1.7,8c0,0,6.3-5.4,1.7-26.4l1.6,0.4l0,0v0l0,0.1v0.1l0,0.1l0.1,0.1l0,0.2
		l0.1,0.1l0,0.2l0.1,0.5l0.2,0.5l0.1,0.6l0.2,0.6l0.2,0.7l0.2,0.7l0.2,0.8l0.2,0.8l0.2,0.9l0.2,0.9l0.1,0.9l0.2,0.9l0.1,1l0.1,1
		l0.2,1.1l0,1l0,1.1v1.1v1l0,1.1l-0.2,1.1l-0.1,1l-0.2,1l-0.2,1l-0.3,1l-0.4,1l-0.4,0.9c0,0,13-7.5,7.6-12.5c0,0,6.7-8-10.9-17.2
		C346.7,176,345.8,175.7,344.8,175.6L344.8,175.6z M174.2,179.2c-1.4,0-3.5,0.9-3.5,6c0,0-9.6-7.5-10.9,3.8c0,0-8.8-2.9-7.6,5.4
		c0,0-11.8,4.5-2.1,10.5c0,0,5.9,1.2,8.8-2.5c0,0,6.3,7.5,14.2-4.6c0,0,8,5.9,13.9,0.8c0,0,2.5-2.5,6.7-5.4v0h0h-0.1h-0.1h-0.1h-0.2
		h-0.4h-0.6l-0.7,0h-0.8h-0.9l-1.1,0l-1.1,0l-1.1,0.1l-1.3,0l-1.3,0.1l-1.4,0.1l-1.5,0.1l-1.5,0.2l-1.5,0.1l-1.6,0.2l-1.7,0.2
		l-1.7,0.3l-1.7,0.2l-1.8,0.3l-1.8,0.4l-1.8,0.4l-1.9,0.3l-1.8,0.4l-1.8,0.4l-1.8,0.5l-1.8,0.5l-1.7,0.5l-1.8,0.6l-1.7,0.6V197
		c0,0,20.1-7.1,29.8-6.3c0,0-0.4-10.9-5.9-11.3C175.3,179.3,174.8,179.2,174.2,179.2L174.2,179.2z M277.4,179.7
		c-5.6,0.2-12.2,10.1-12.2,10.1c9.2-2.5,18.9,1.7,18.9,1.7l-1.7,1.4l-0.2-0.1l-1.4-0.4l-1.4-0.3l-1.3-0.2l-1.3-0.2l-1.2,0l-1.2,0
		l-1.1,0l-1.1,0.1l-1,0.1l-1.1,0.2l-1,0.3l-1,0.3l-0.9,0.4l-0.9,0.3l-0.8,0.4l-0.8,0.5l-0.8,0.5l-0.8,0.5l-0.8,0.5l-0.7,0.6
		l-0.7,0.6l-0.6,0.7l-0.6,0.7l-0.6,0.7l-0.6,0.7l-0.5,0.8l-0.5,0.8l-0.9,1.6l-0.8,1.5l-0.7,1.6l-0.6,1.6l-0.5,1.6l-0.4,1.6l-0.4,1.5
		l-0.4,1.5l-0.2,1.4l-0.3,1.4l-0.1,1.2l0,0.6l-0.1,0.6l0,0.5v0.4l0,0.5l0,0.4v0.4l0,0.4v0.3v0.2v0.2v0.1v0v0h0
		c1.6-7.5,4.2-8.4,4.2-8.4c20.6-11.7,13.4-15.1,13.4-15.1c12.6,6.3,12.2-1.2,12.2-1.2c9.2,7.5,8.8,0.9,8.8,0.9
		c10.1-0.4,1.6-5.4,1.6-5.4c1.3-8.4-10.9-6.3-10.9-6.3c1.7-2.1,1.2-3.8,1.2-3.8C281,180.7,279.3,179.7,277.4,179.7L277.4,179.7z
		 M418.6,189.2c-1.7,0.1-3.9,1.1-3.9,1.1c-1.2,1.2-8.4-0.8-11.7,0.8l-0.1,0.1l-0.2,0.1l-0.1,0l-0.1,0.1l-0.1,0.1l-0.1,0.1l-0.1,0.1
		l0,0.1l-0.1,0.1l-0.1,0.1l0,0.1l-0.1,0.1l0,0.2l0,0.1l-0.1,0.1v0.1l0,0.1l0,0.1v0.2l0,0.1v0.1v0.2v0.3v0.3l0,0.3l0,0.3l0,0.3
		l0.1,0.3l0,0.2l0.1,0.3l0.1,0.3l0,0.2l0.1,0.2l0.1,0.2l0,0.2l0.1,0.2l0,0.1l0,0v0.1l0,0l0.1,0v0l0,0v0l0,0v0l0,0
		c0.4-2.5,10.1-5,10.1-5l1.6,1.2c-5.8,0.4-15.5,14.3-15.5,14.3c9.2-2.1,15.5-2.9,15.5-2.9c0.4-5,3.3-7.1,3.3-7.1
		C422.4,190.7,420.9,189.1,418.6,189.2L418.6,189.2z M198.5,194.8c-1.5,0.1-3.1,1.2-5.1,3.8c0,0-5,7.6-1.2,12.2
		c3.7,4.6,10,10.5,12.6,11.8c2.5,1.2,2.9-0.8,5.8-0.8h0h0.1h0.1h0.1h0.2h0.1h0.2l0.2,0h0.2h0.2h0.2h0.5l0.5,0h0.6l0.7,0h0.6l0.8,0.1
		h0.8h0.7l0.8,0h1.6h1.6h0.8h0.8h0.8h0.7l0.8,0l0.7-0.1h0.6l0.6,0l0.6-0.1l0.5,0l0.2,0l0.3,0h0.2l0.2,0l0.1-0.1l0.2,0l0.1,0l0.1-0.1
		c0,0-5-8.8-13.4-7.5c0,0,3.7-14.4-10.5-6.7C206,207.1,203.7,194.5,198.5,194.8L198.5,194.8z M141.5,198.5c-0.6,0-1.2,0.1-2,0.6
		c-6.4,3.7,21.2,17.5,17.2,14.2c0.4-1.7-3.3-3.4-4.5-4.1c-7.1-4.1-8.4-8.2-11.1-9.8h0.1l0.1,0h0.1h0.1h0.1h0h0.1h0.1l0,0h0.1l0,0
		h0.1l0,0l0,0h0.1l0.1,0l0,0l0,0l0.1,0.1l0,0l0.2,0.1l0.1,0.1l0.1,0.1l0.1,0.2l0.1,0l0,0l0,0l0.1,0c0.9,0.6,1.5-0.2,1.1-0.5
		C143.4,199.1,142.5,198.5,141.5,198.5L141.5,198.5z M173.7,201.3c-1.2-0.1-2.6,0.7-3.9,3.2c0,0-12.6,3.4-5,17.6
		c0,0-7.5,7.5,0.9,17.6c0,0,3.2,7.1,4.9,14.5l0-0.3l0-0.3l-0.1-0.3l-0.1-0.4l0-0.4l-0.1-0.5l-0.1-0.5l-0.1-0.5l-0.2-1.2l-0.2-1.3
		l-0.2-1.4l-0.3-1.6l-0.2-1.6l-0.2-1.8l-0.2-1.9l-0.1-1.9l-0.1-2l0-2l-0.1-2v-2.2l0.1-2.1l0.1-2.1l0.2-2.1l0.3-2.1l0.4-2l0.5-2.1
		l0.6-2l0.7-1.9l0.8-1.9l0.4-0.9l0.4-0.8l0.5-0.9l0.6-0.8l0.5-0.8l0.6-0.8l0.6-0.8l0.6-0.7l0.7-0.7l0.8-0.7
		C177.4,203.7,175.8,201.4,173.7,201.3L173.7,201.3z M179.9,205.4l-0.6,0.6l-0.6,0.6l-0.5,0.6l-0.5,0.7l-0.5,0.7l-0.4,0.7l-0.5,0.8
		l-0.4,0.8l-0.8,1.6l-0.6,1.7l-0.6,1.8l-0.5,1.9l-0.4,1.8l-0.4,1.9l-0.3,1.9l-0.3,1.9l-0.1,2l-0.2,2l0,1.9v1.9v1.9l0,1.9l0.1,1.8
		l0.1,1.8l0.1,1.6l0.1,1.5l0.2,1.5l0.2,1.3l0.1,1.2l0.2,1.1l0,0.5l0.1,0.4l0,0.4l0,0.4l0.1,0.4l0,0.3l0,0.2l0,0.2v0.2l0,0.1v0.1
		c14.3-17.6,5.9-19.3,5.9-19.3c10.9-5.9,1.7-14.3,1.7-14.3C186.6,206.2,179.9,205.4,179.9,205.4L179.9,205.4z M361.7,205.8
		c-2.1,0-4.8,1.8-8.3,7.1c-0.2,0.3-1.2,0.4-1.2,0.4s-7.1-10.9-14.3,7.1h0l0,0l0.1-0.1l0.2-0.2l0.3-0.2l0.4-0.3l0.4-0.2l0.6-0.4
		l0.6-0.4l0.7-0.4l0.8-0.4l0.8-0.4l0.9-0.4l1-0.4l1.1-0.4l1.1-0.4l1.2-0.4l1.3-0.4l1.4-0.4l1.4-0.3l1.5-0.3l1.6-0.2l1.6-0.2l1.7-0.1
		l1.7,0h1.9l1.9,0l2,0.1l2,0.3l2.1,0.3l2.2,0.3l1.1,0.3l1.1,0.3l1.1,0.2l1.2,0.3c0,0-2.9-7.9-10.1-3.7
		C367.3,212.1,365.7,205.8,361.7,205.8L361.7,205.8z M140.2,208.1c-1.3,0-2.9,0.8-4.8,3.1l0,0l0,0.1l0,0.1l0.1,0.2l0.2,0.2l0.1,0.3
		l0.2,0.3l0.1,0.3l0.2,0.4l0.4,0.8l0.5,0.9l0.6,1l0.6,1.1l0.7,1.1l0.8,1.2l0.8,1.3l0.8,1.4l1,1.4l0.9,1.5l1,1.5l1,1.6l1.1,1.6
		l1.1,1.6l1.1,1.6l2.3,3.2l1.2,1.6l1.2,1.5l1.2,1.5l1.2,1.4l1.2,1.5l1.3,1.4l1.2,1.3l1.3,1.2l1.2,1.1l1.3,1.1c0,0-0.4-18.8-5.9-10.9
		c0,0,3.3-21.9-5-15.1c0,0,0.4-19.1-7.5-7.5C145.5,216.3,144.1,208.3,140.2,208.1L140.2,208.1z M413.7,209.2
		c-3.5-0.1-9.5,3.3-9.5,3.3c-3.7-8-10.5,7.1-10.5,7.1c20.6-5,30.2,1.2,30.2,1.2l-0.4,2.1l-0.7-0.4l-0.7-0.4l-0.7-0.4l-0.7-0.3
		l-0.8-0.3l-0.7-0.3l-1.5-0.4l-1.5-0.4l-1.6-0.2l-1.6-0.2l-1.7,0l-1.6,0l-1.7,0.1l-1.7,0.1l-1.7,0.2l-1.7,0.3l-1.6,0.3l-1.6,0.3
		l-1.6,0.4l-1.5,0.4l-1.5,0.4l-1.5,0.4l-1.4,0.4l-1.3,0.4l-1.2,0.4l-1.2,0.4l-1.1,0.4l-1,0.4l-0.8,0.4l-0.4,0.1l-0.4,0.1l-0.4,0.2
		l-0.3,0.1l-0.2,0.1l-0.3,0.1l-0.2,0.1l-0.2,0l-0.1,0.1h-0.1l0,0l0,0c19.7,10.1,19.7,0.8,19.7,0.8c9.2,3.8,18,0.9,18,0.9
		c-2.5,6.7,10.9,2.9,10.9,2.9c4.2-0.4-6.3-12.2-6.3-12.2c5-6.3-9.2-5.4-9.2-5.4C416.7,210.3,415.6,209.3,413.7,209.2L413.7,209.2z
		 M304.9,209.3c-2.9,0.1-6.5,4.9-6.5,4.9c-4.6-10.9-15.5,4.6-15.5,4.6c-16,0-4.2,17.6-4.2,17.6l-0.6,0l-0.5,0.1l-0.5,0.1l-0.4,0.2
		l-0.4,0.1l-0.4,0.2l-0.4,0.2l-0.3,0.2l-0.3,0.2l-0.3,0.3l-0.2,0.2l-0.1,0.3l-0.2,0.3l-0.1,0.2l0,0.3l-0.1,0.3v0.3v0.3l0,0.4v0.4
		l0.1,0.4l0.1,0.4l0.1,0.4l0.2,0.4l0.1,0.4l0.2,0.4l0.1,0.4l0.2,0.4l0.2,0.4l0.2,0.4l0.5,0.8l0.5,0.8l0.5,0.8l0.5,0.8l0.6,0.7
		l0.5,0.7l0.5,0.7l0.6,0.7l0.3,0.3l0.3,0.2l0.3,0.3l0.2,0.3l0.3,0.2l0.2,0.3l0.3,0.2l0.2,0.3l0.2,0.1l0.2,0.2l0.2,0.1l0.1,0.1
		l0.1,0.1l0.1,0.1l0.1,0.1l0.1,0l0,0l0.4-2.5c-6.3-7.1,0-15.5,0-15.5c1.7-15.9,24.8-22.7,24.8-22.7
		C307.4,210.2,306.2,209.3,304.9,209.3L304.9,209.3z M131.2,211.3c-7.8,9.4,3.3,13.4,3.3,13.4c-9.2,1.6,5,17.6,5,17.6
		c7-4.9,14,1.9,16.1,4.2l-0.2-0.3l-1-1.1l-1-1.2l-1-1.2l-1-1.3l-1.1-1.4l-1.1-1.4l-1.1-1.4l-2.1-3l-2.1-3l-2-3l-1-1.5l-0.9-1.5
		l-1-1.4l-0.9-1.4l-0.8-1.3l-0.8-1.3l-0.8-1.2l-0.7-1.1l-0.7-1.1l-0.6-1l-0.6-0.9l-0.5-0.8l-0.4-0.7l-0.2-0.3l-0.2-0.3l-0.1-0.2
		l-0.1-0.3l-0.2-0.1l-0.1-0.2l0-0.1L131.2,211.3L131.2,211.3L131.2,211.3L131.2,211.3z M155.7,246.6l0.7,0.8
		C156.4,247.4,156.1,247,155.7,246.6z M308.9,215l-0.9,0.3l-0.9,0.3l-0.9,0.3l-0.8,0.4l-0.9,0.4l-0.9,0.4l-0.8,0.4l-0.8,0.4
		l-0.9,0.5l-0.8,0.5l-0.8,0.5l-0.8,0.5l-0.8,0.5L297,221l-0.7,0.5l-0.7,0.5l-0.7,0.5l-0.6,0.6l-0.6,0.5l-0.6,0.5l-0.5,0.4l-0.5,0.5
		l-0.4,0.4l-0.4,0.4l-0.4,0.4l-0.4,0.4l-0.3,0.3l-0.2,0.2l-0.1,0.2l-0.1,0l-0.1,0.1l0,0l0,0v0h0v0l0,0l-2.9,6.7c5,0.5,8-5,8-5
		c0-8.4,7.5-5.4,7.5-5.4c2.5,3.3,8.4-0.4,8.4-0.4L308.9,215L308.9,215z M362,217.1l-1.5,0l-1.3,0l-1.3,0.1l-1.4,0.1l-2.5,0.4
		l-2.4,0.4l-2.3,0.5l-2.2,0.6l-2,0.7l-1.9,0.7l-1.9,0.8l-1.7,0.8L338,223l-1.4,0.9l-1.3,0.9l-1.2,0.8l-1.1,0.8l-1.1,0.8l-0.9,0.8
		l-0.8,0.7l-0.8,0.7l-0.6,0.7l-0.6,0.6l-0.4,0.5l-0.4,0.4l-0.2,0.3l-0.1,0.2l0,0c23.5-1.2,16-5,16-5c19.3,7.6,18-0.4,18-0.4
		c15.1,4.2,12.6-2.1,12.6-2.1c13.4,0.8,8-5,8-5l-1.8-0.4l-1.8-0.4l-1.7-0.4l-1.7-0.4l-1.7-0.2l-1.6-0.3l-1.6-0.1l-1.6-0.1l-1.5-0.1
		l-1.5-0.1l-1.5,0L362,217.1L362,217.1z M309.9,226.6c-1.5-0.1-3.1,1.8-3.1,1.8c-9.6-5.8-12.2,5.9-12.2,5.9
		c-7.5,0.4-7.1,8.8-7.1,8.8c4.6-8,20.6-10.5,20.6-10.5v2.5l-0.8,0l-0.7,0l-0.7,0.1l-0.7,0.1l-0.6,0.1l-0.7,0.1l-0.7,0.2l-0.6,0.2
		l-1.2,0.4l-1.2,0.4l-1.1,0.5l-1,0.5l-1.1,0.5l-1,0.6l-1,0.7l-0.8,0.6l-0.8,0.7l-0.8,0.7l-0.8,0.7l-0.7,0.7l-0.6,0.7l-0.6,0.7
		l-0.6,0.7l-0.5,0.6l-0.4,0.7l-0.4,0.6l-0.4,0.6l-0.4,0.5l-0.3,0.4l-0.2,0.4l-0.2,0.4l-0.1,0.3l-0.2,0.2l0,0.2l0,0l0,0.1v0v0
		c19.7,4.2,22.7-9.2,22.7-9.2c3.3-5.8,2-14.2,2-14.2C310.3,226.7,310.1,226.6,309.9,226.6L309.9,226.6z M240.8,227.6
		c-5.3-0.2-9.6,7.2-9.6,7.2c-9.2-10.1-10.9,10.9-10.9,10.9c-8.4,1.7,1.6,16.8,1.6,16.8c1.7-37.8,29.4-25.2,29.4-25.2l-1.2-0.2
		l-1.1-0.1l-1.1-0.1l-1.1,0h-1l-1,0l-0.9,0l-0.9,0.1l-0.9,0.2l-0.9,0.2l-0.8,0.3l-0.8,0.3l-0.7,0.3l-0.7,0.4l-0.7,0.4l-0.6,0.4
		l-0.7,0.4l-0.6,0.4l-0.6,0.5l-0.5,0.6l-0.5,0.5l-0.5,0.5L233,243l-0.4,0.6l-0.4,0.6l-0.4,0.6l-0.7,1.3l-0.7,1.3l-0.6,1.4l-0.6,1.4
		l-0.4,1.4l-0.4,1.4l-0.4,1.3l-0.2,1.3l-0.2,1.2l-0.2,1.2l-0.1,1.1l-0.1,1v0.5l0,0.4l0,0.4v0.4v0.4l0,0.3v0.3v0.3v0.2v0.2v0.1v0.2v0
		c13.4-5,7.5-10,7.5-10c19.3-1.7,9.2-9.2,9.2-9.2c15.1,1.7,16.8-4.2,16.8-4.2c1.7-9.2-13.4-8.4-13.4-8.4
		C245,229,242.8,227.7,240.8,227.6L240.8,227.6z M371.2,229.8c-2.3-0.3,0.7,8.4,0.7,8.4c-14.7,4.6,5.9,16.3,5.9,16.3
		c-11.3,0.4,4.6,12.2,4.6,12.2l0.1-0.4l0.1-0.4l0.1-0.4l0.1-0.4l0-0.5v-0.5v-0.5V263l0-1.1l-0.2-1.2l-0.2-1.3l-0.3-1.3l-0.3-1.5
		l-0.3-1.4l-0.4-1.5l-0.4-1.5l-0.4-1.5l-0.5-1.5l-0.9-3l-0.5-1.4l-0.5-1.5l-0.6-1.4l-0.5-1.3l-0.4-1.3l-0.5-1.2l-0.4-1.1l-0.4-1.1
		l-0.4-1l-0.2-0.4l-0.2-0.4l-0.2-0.4l-0.1-0.4l-0.1-0.4l-0.1-0.3l-0.1-0.2l-0.1-0.3l0-0.2l-0.1-0.2l-0.1-0.1l0-0.1l0,0v0
		C372.3,230.2,371.7,229.8,371.2,229.8L371.2,229.8z M374.8,230.2L374.8,230.2c0,0.2,0.1,0.4,0.4,0.6l-0.1-0.1l-0.1-0.1l-0.1-0.1
		L374.8,230.2L374.8,230.2L374.8,230.2L374.8,230.2z M375.2,230.7L375.2,230.7l0.3,0.5l0.4,0.6l0.4,0.7l0.4,0.9l0.5,0.9l0.5,1.1
		l0.6,1.1l0.6,1.2l0.7,1.4l0.6,1.4l0.7,1.5l0.6,1.6l0.6,1.7l0.6,1.7l0.6,1.8l0.5,1.8l0.5,1.9l0.5,2l0.5,2l0.3,2l0.4,2.1l0.3,2.1
		l0.2,2.2l0.1,2.2v2.2l-0.1,2.3l-0.1,2.2l-0.3,2.3l-0.4,2.3c0,0,11.7-14.3,6.7-18.1c-0.5-0.3-0.8-0.6-1.1-0.8
		c0.6-2.9,2.1-13.1-4.8-13.1c0,0,3.4-16.8-3.3-12.1C383.2,234.8,376.9,232.2,375.2,230.7L375.2,230.7z M412,231
		c-5.6,0.2-11.5,5.8-11.5,5.8c-1.7-3.3-4.6-2.5-4.6-2.5c-12.2,4.6-0.4,15.9-0.4,15.9c-5,7.1,3.3,10.5,3.3,10.5
		c2.9-4.6,10.1-24.3,10.1-24.3h2.5c0.4,10.1-16.4,39.9-16.4,39.9l1.3,5c0-1.7,2.9-8.8,2.9-8.8c10.9-8.8,7.6-10.9,7.6-10.9
		c8.4-7.1,1.7-9.2,1.7-9.2l6.7-5.4c7.5-6.3,1.6-8.4,1.6-8.4l0-0.4v-0.4v-0.4v-0.4v-0.3v-0.3v-0.3V236v-0.3v-0.3v-0.2v-0.2v-0.2
		l0-0.2v-0.2v-0.1v-0.2V234v-0.2v-0.1l0-0.1v-0.1v-0.1v-0.1v0v-0.1l0,0V233v0v0v0C415.5,231.5,413.7,231,412,231L412,231z
		 M417,232.9c0.1,0.1,0.2,0.1,0.3,0.2v-0.1h0v0v0v0v0h-0.1v0v0h0v0l0,0L417,232.9L417,232.9L417,232.9L417,232.9L417,232.9z
		 M343.3,234l-9.2,4.2l0,0l-0.1,0.1l-0.1,0.3l-0.1,0.4l-0.2,0.4l-0.2,0.5l-0.2,0.7l-0.3,0.7l-0.3,0.8l-0.3,0.9l-0.3,0.9l-0.3,1.1
		l-0.3,1.1l-0.2,1.1l-0.3,1.2l-0.2,1.3l-0.2,1.4l-0.1,1.4l-0.1,1.5l-0.1,1.5v1.5l0,1.6l0.1,1.6l0.2,1.7l0.2,1.7l0.4,1.7l0.4,1.8
		l0.5,1.8l0.5,1.9l0.7,1.8l0.7,1.9l0.9,1.8c0.4,0.8,1.2,0.8,1.2,0.8s14.3-28.1,3.8-25.6C340,251.5,358.9,236.5,343.3,234L343.3,234z
		 M433.2,234.2c-6.1-0.5-13.8,14-13.8,14c-6.3-2.1-5.4,11.3-5.4,11.3c-4.2,1.2-3.4,13.4,2.1,8.8c5.4-4.6,15.1-19.3,15.1-19.3
		l1.7,0.8c-7.6,24.8-32.8,33.6-31.5,33.6h0h0h0.1h0.1h0.1h0.2h0.1h0.1h0.2h0.1h0.2l0.2,0h0.4h0.4h0.4l0.4,0h0.4h0.5l0.4,0h0.5l1,0
		h0.5l0.4,0h0.4h0.4l0.4,0h0.4h0.4l0.4-0.1h0.2h0.2h0.1h0.2h0.1h0.1l0.1,0h0.2h0h0.1h0.1h0h0.1h0c5.4-13.4,15.1-9.6,15.1-9.6
		c0-2.1,3.7-5.9,3.7-5.9c5-5.4,0.4-6.7,0.4-6.7s6.2-5.4,7.5-9.6c1.2-4.2-2.1-13.8-2.1-13.8C435.9,235.3,434.6,234.4,433.2,234.2
		L433.2,234.2z M217.7,235.2c-12.7-0.1-7.9,10.1-7.9,10.1c-1.3-0.4-3.8,3.4-3.8,3.4c-7.1,13.8,15.5,20.6,15.5,20.6
		c-15.1-16.4-5-26-5-26l-0.2-0.3l-0.1-0.3l-0.1-0.3l-0.2-0.3l-0.1-0.2l0-0.3l-0.1-0.3l0-0.2l-0.1-0.2l0-0.2l0-0.3v-0.2l0-0.2v-0.3
		v-0.2v-0.2l0-0.2v-0.1l0-0.2l0-0.1l0.1-0.2l0-0.1l0-0.1l0-0.2l0.1-0.1l0-0.1l0.1-0.2l0-0.1l0.2-0.3l0.2-0.2l0.2-0.2l0.2-0.2
		l0.2-0.2l0.3-0.1l0.2-0.2l0.2-0.1l0.2-0.1l0.2-0.1l0.2-0.1l0.1,0l0.2-0.1h0l0,0h0h0l0,0h0.1h0C218.5,235.2,218.1,235.2,217.7,235.2
		L217.7,235.2z M203.6,235.5c-4.2-0.1-16.4,1.7-28.7,22.8v0v0l0,0v0.1l0,0.1l0.1,0.1l0,0.1l0,0.1l0,0.2l0,0.2l0.1,0.2l0,0.2l0.1,0.1
		l0,0.2l0.1,0.2l0.2,0.4l0.3,0.4l0.2,0.4l0.3,0.4l0.3,0.4l0.1,0.2l0.2,0.2l0.2,0.2l0.1,0.1l0.2,0.1l0.2,0.2l0.2,0.1l0.2,0.1l0.2,0.1
		l0.2,0.1l0.2,0l0.2,0l0.2,0h0.2h0.3h0.2l0.3,0l0.2-0.1l0.3-0.1l0.2-0.1l0.3-0.1l0.3-0.2l0.2-0.2l0.3-0.3l0.2-0.2l0.3-0.3l0.1-0.1
		l0.2-0.2l0.1-0.1l0.1-0.2l0.2-0.2l0.1-0.2l0.1-0.2l0.2-0.3l0.1-0.2l0.1-0.3l0.2-0.2l0.1-0.3l0.2-0.3l0.1-0.3l0.1-0.3l0.2-0.4
		l0.1-0.3l0.1-0.3l0.2-0.4l0.1-0.4l0.1-0.4l0.2-0.4l0.1-0.4l0.2-0.4c0,0,12.6,3.4,8.4-13.4c0,0,5.8-6.7,10.9-6.7
		C205.1,235.6,204.6,235.5,203.6,235.5L203.6,235.5z M323.7,237.7c-4.4,0.1-3.1,16.4-3.1,16.4c-10.1,4.6,8,13.4,8,13.4l-0.5-0.9
		l-0.4-1l-0.3-1l-0.3-1.1l-0.3-1l-0.2-1.1l-0.2-1.1l-0.1-1.1l-0.1-1.1l-0.1-1.1l-0.1-1.1v-1.1v-1.1l0.1-1.1l0-1.1l0-1l0.1-1.1l0.1-1
		l0.1-1l0.1-0.9l0.1-0.8l0.1-0.8l0.2-0.8l0.1-0.7l0.1-0.7l0.1-0.5l0.1-0.5l0-0.2v-0.2l0-0.2l0-0.1V241l0-0.1v-0.1l0,0v0
		C326.1,238.5,324.7,237.7,323.7,237.7L323.7,237.7z M205.5,238.6L205.5,238.6C205.5,238.6,205.6,238.6,205.5,238.6L205.5,238.6z
		 M205.5,238.6c-3.8,0-6.7,5-6.7,5c3.3,4.2-2.5,13.8-2.5,13.8l-2.9,1.2c2.5,4.4,13.8,7.6,13.8,7.6c-14.7-14.7-0.8-21.8-0.8-21.8
		l-0.1-0.1l-0.1-0.2l-0.1-0.1l-0.1-0.1l-0.1-0.1l-0.2-0.1l-0.1-0.1l-0.1-0.1l-0.1-0.1l-0.1-0.1l-0.1-0.1l0-0.1l0-0.1l-0.1-0.1l0-0.1
		l-0.1-0.2v-0.1l0-0.1l0-0.1v-0.1l0-0.1v-0.1l0-0.3v-0.2l0-0.3V241l0-0.2l0-0.2l0-0.2l0.1-0.2l0-0.2l0-0.2l0.1-0.1l0-0.2l0.1-0.1
		l0.1-0.1l0-0.2l0,0v0l0,0v0L205.5,238.6L205.5,238.6L205.5,238.6L205.5,238.6z M130.9,241.6c-1.8-0.1-3.5,0.9-4.7,4.1
		c0,0-13-4-12.8,3.3l0.1,0l0.1,0l0.1,0l0.3,0.1l0.3,0.1l0.2,0.1l0.4,0.1l0.4,0.2l0.4,0.2l0.4,0.2l0.5,0.2l1.1,0.4l1.1,0.5l1.3,0.6
		l1.4,0.5l1.5,0.6l1.6,0.6l1.6,0.7l1.7,0.7l1.8,0.7l1.8,0.7l1.9,0.7l1.9,0.7l3.9,1.3l3.8,1.3l1.9,0.6l1.9,0.5l1.9,0.5l1.8,0.5
		l1.8,0.4l1.6,0.4l1.6,0.3l1.5,0.3l1.4,0.2l1.3,0.1c0,0,0.8-10-5.9-10c0,0-5.9-12.6-16-8.4C137.9,245.7,134.3,241.7,130.9,241.6
		L130.9,241.6z M262.6,246.3c-0.5,0-1.2,0.1-2,0.3c0,0-2.5,5.8-10.9,5v0h0h0h0h0.1h0.1h0.2l0.3,0.1h0.4l0.4,0l0.5,0.1l0.5,0l0.6,0.1
		l0.6,0.1l0.7,0.2l0.7,0.2l0.7,0.2l0.8,0.3l0.8,0.3l0.8,0.4l0.7,0.4l0.8,0.4l0.8,0.4l0.8,0.6l0.8,0.5l0.8,0.6l0.8,0.7l0.8,0.8
		l0.8,0.8l0.4,0.4l0.4,0.4l0.3,0.4l0.4,0.5l0.4,0.5l0.4,0.5l0.3,0.5l0.3,0.5l0.3,0.6l0.3,0.5l0.3,0.6l0.2,0.7
		c5.9,13.4-8.4-16-28.5-6.7c0,0,5,2.5-5,8.4c0,0,18.9,4.7,17.1-1c1.2,2.9,7.3,15.9,14,6.9c0,0,18.5,5,11.7-7.5
		c0,0,10.1-10.9-15.1-13.5C263.1,251.5,266.3,246.4,262.6,246.3L262.6,246.3z M363.5,247.4l-1.2,2.9v0l0,0v0v0.1l0,0l-0.1,0.1v0.1
		l0,0.1l0,0.1l0,0.1l0,0.1l0,0.2l0,0.1l-0.1,0.3l-0.1,0.4l-0.1,0.4l-0.1,0.4l-0.1,0.4l0,0.4l-0.1,0.5l0,0.4l0,0.5l0,0.5v0.6v0.5
		l0,0.5l0.1,0.5l0,0.3l0,0.3l0,0.2l0.1,0.3l0.1,0.2l0.1,0.3l0.1,0.3l0.1,0.2l0.1,0.3l0.1,0.2l0.2,0.2l0.1,0.2l0.2,0.2l0.2,0.2
		l0.2,0.2l0.2,0.2l0.3,0.2l0.2,0.1l0.3,0.2l0.2,0.2l0.3,0.1l0.3,0.2l3.4,0.8c0,0-6.3,6.9,6.3,13c0,0-6.3,5,3.3,9.2
		C377.8,285.6,379.9,268.8,363.5,247.4L363.5,247.4z M113.2,250.7c-4.2,6.7,10.5,10,10.5,10c-5.9,7.6,11.7,6.7,11.7,6.7
		c-2.5,10.9,19.3-0.8,19.3-0.8l-1.5-0.4l-1.5-0.4l-1.4-0.4l-1.4-0.4l-1.4-0.4l-1.3-0.4l-1.4-0.3l-1.2-0.4L141,263l-2.3-0.7l-2.3-0.7
		l-2.1-0.7l-1.9-0.7l-1.9-0.7l-1.7-0.6l-1.6-0.7l-1.5-0.6l-1.4-0.6l-1.3-0.6l-1.2-0.6l-1.1-0.5l-1.1-0.5l-0.9-0.5l-0.8-0.4l-0.8-0.4
		l-0.7-0.4l-0.6-0.4l-0.5-0.4l-0.5-0.3l-0.4-0.3l-0.3-0.3l-0.3-0.2l-0.1-0.1L113.2,250.7L113.2,250.7L113.2,250.7z M170.6,254.5
		L170.6,254.5l0,0.2C170.7,254.6,170.7,254.6,170.6,254.5z M356.8,260.4l-4.6,1.7c-5.8,4.6,4.2,9.6,4.2,9.6
		c-7.5,4.6,7.1,10.9,7.1,10.9c-5,1.7,4.2,9.7,4.2,9.7l0.1-1l0-1l0-1l0-1v-0.9v-0.9l0-0.9l0-0.9l-0.1-1.7l-0.2-1.7l-0.3-1.6l-0.3-1.5
		l-0.4-1.5l-0.4-1.4l-0.4-1.4l-0.5-1.2l-0.5-1.2l-0.5-1.1l-0.5-1.1l-0.5-1l-0.6-0.9l-0.5-0.9l-0.5-0.8l-0.6-0.7l-0.5-0.7l-0.5-0.7
		l-0.5-0.5l-0.5-0.5l-0.4-0.4l-0.4-0.4l-0.3-0.4l-0.3-0.2l-0.3-0.2l-0.2-0.1L356.8,260.4L356.8,260.4L356.8,260.4L356.8,260.4z
		 M304.6,264.4c-2.8,0-4.9,1.4-4.5,5.6c0,0-16.4-1.2-12.2,9.6c0,0-13.4,6.3-4.6,13.5c0,0-2.5,8.3,6.7,3.7c0,0,10.5,4.6,12.6-6.7
		c0,0,9.6,2.9,12.1-5.9c0,0,0.5,5.9,17.2-3.8h0l0,0l-0.1,0l-0.1,0l-0.1-0.1l-0.2-0.1l-0.3-0.1l-0.2-0.1l-0.6-0.3l-0.7-0.4l-0.8-0.4
		l-1-0.3l-1.1-0.4l-1.1-0.4l-1.2-0.4l-1.3-0.3l-1.5-0.2l-1.5-0.3l-1.5-0.1l-1.6-0.1H315l-1.7,0.1l-1.7,0.2l-1.9,0.3l-1.9,0.4
		l-0.9,0.3l-1,0.3l-0.9,0.4l-1,0.4l-1,0.4l-0.9,0.5l-1,0.4l-0.9,0.5l-1,0.6l-1,0.6l-1,0.7l-1,0.8l-1,0.7l-0.9,0.9l-1,0.9l-0.9,0.9
		l-1,1l-0.9,1.1l-0.9,1.1l-1,1.1l-0.9,1.2l-1,1.3l-0.4-2.1c0,0,13-26.4,39-17.2c0,0-6.1-14.5-9.6-6.3
		C315.6,267.9,309.2,264.3,304.6,264.4L304.6,264.4z M438.9,267.4c-5,0.2-10.3,10.2-10.3,10.2c-9.2-4.6-12.2,5.8-12.2,5.8
		c16.4,0.8,23.5-5.4,23.5-5.4l7.5-1.7c-16.4,15.1-38.2,10.9-38.2,10.9s21.8,14.7,21.4,5.4c0,0,18.4-0.9,14.2-7.1h0v0h0l0,0l0,0l0,0
		l0.1-0.1l0.1-0.1l0.1-0.1l0.2-0.1l0.2-0.2l0.1-0.2l0.2-0.2l0.3-0.2l0.2-0.3l0.2-0.2l0.3-0.3l0.3-0.3l0.2-0.3l0.2-0.3l0.2-0.3
		l0.3-0.4l0.2-0.3l0.3-0.3l0.2-0.4l0.2-0.4l0.2-0.4l0.1-0.4l0.2-0.4l0.2-0.3l0.1-0.4l0.2-0.4l0.1-0.4l0.1-0.4l1.6-2.1l0.4-3.3
		c-0.8-5.4-9.6-2.1-9.6-2.1C441.7,268.1,440.3,267.4,438.9,267.4L438.9,267.4z M133.1,272.7c-1.3,0.1-2.5,0.8-2.5,0.8
		c-12.2,1-12.2,11.3-12.2,11.3c-7.8,7.7-3.3,11.3-3.3,11.3c2.9,2.3,7.1-3.5,7.1-3.5c7.1,4,11.9-1.7,11.9-1.7c5.2,0,5.2-4.4,5.2-4.4
		c0.4-5.4,13.6-10.5,12.4-10.5c-1.2,0-1.9,0.9-1.9,0.9c-9.8,3.5-1.9-1.9-1.9-1.9l-5.4,0.6c-10.9,1.5-26,18.7-26,18.7l0.4-0.8
		l0.4-0.8l0.4-0.8l0.4-0.7l0.7-1.4l0.8-1.3l0.8-1.3l0.8-1.1l0.8-1.1l0.8-1l0.8-1l0.8-0.9l0.8-0.8l0.8-0.8l0.8-0.7l0.8-0.7l0.7-0.6
		l0.7-0.6l0.7-0.5l0.7-0.5l0.6-0.4l0.6-0.4l0.6-0.4l0.5-0.2l0.5-0.3l0.4-0.3l0.4-0.1l0.4-0.1l0.3-0.2l0.3-0.1l0.3,0l0.1,0h0.1v0v0
		C135.1,272.9,134.1,272.6,133.1,272.7L133.1,272.7z M233.7,274.8c-0.4,0-2,3.3-2,3.3l1.5-0.5C233.7,275.6,233.8,274.7,233.7,274.8
		L233.7,274.8z M233.1,277.5c-0.2,0.6-0.4,1.2-0.7,2.2c-3.3,10.1,14.3,12.2,14.3,12.2c-4.6,5.5,10.5,16.8,10.5,16.8
		c-7.1-7.9-5.8-16.3-5.8-16.3l2-0.4c0.4,10.5,13.9,23.1,13.9,23.1c-1.7-14.7-10.9-23.1-10.9-23.1l0-0.6l0-0.5l0-0.5v-0.5v-0.5l0-0.4
		v-0.4l0-0.4l0-0.4l0-0.4l-0.1-0.4l-0.1-0.3l-0.1-0.4l-0.1-0.4l-0.1-0.3l-0.2-0.4l-0.1-0.2l-0.1-0.3l-0.2-0.3l-0.1-0.2l-0.1-0.3
		l-0.2-0.2l-0.1-0.3l-0.2-0.2l-0.1-0.2l-0.2-0.2l-0.2-0.1l-0.2-0.2l-0.4-0.3l-0.4-0.3l-0.4-0.2l-0.4-0.2l-0.4-0.2l-0.4-0.2l-0.4-0.1
		l-0.3-0.1l-0.3,0l-0.4,0l-0.3-0.1l-0.3,0h-0.2l-0.2,0h-0.1h0H249h0h0h0c-4.6,0.4-8.8-5.4-8.8-5.4L233.1,277.5L233.1,277.5z
		 M168.1,275.4c-1.2,0-2.9,1.2-2.9,1.2c-13.4,3.1-33.2,29.8-33.2,29.8c-2.1,0.6-0.7-1.9-0.7-1.9h0v0h0v-0.1l0-0.1l0.1,0l0.1-0.1
		l0-0.1l0-0.1l0.1-0.1l0.1-0.1l0.1-0.1l0.1-0.1l0.1-0.1l0.1-0.1l0.3-0.3l0.3-0.4l0.2-0.4l0.3-0.4l0.2-0.4l0.3-0.4l0.5-0.8l0.6-0.8
		l0.3-0.4l0.3-0.4l0.3-0.4l0.2-0.4l0.3-0.3l0.2-0.4l0.1-0.1l0.1-0.1l0.1-0.1l0.1-0.1l0.1-0.1l0-0.1l0.1-0.1l0-0.1l0,0l0-0.1l0.1,0
		l0,0v0h0v0c0,0,0.8-0.8,0.2-1.9c-0.8-1.3-4.8,1.6-4.8,1.6c-5.9,1.7-4.4,10.5-4.4,10.5c1.9,7.1,8.6-0.2,8.6-0.2
		c4.2,4,7.7-2.7,7.7-2.7c14.9,0.6,10.5-10.7,10.5-10.7c13.4-0.8,9.9-11.5,9.9-11.5c5,1.4,4-4.2,4-4.2
		C169.4,275.7,168.9,275.3,168.1,275.4L168.1,275.4z M352.7,281.5c-2.8,2.3-7.9,14.3-5.1,13.5c4.2-1.2,4.2-3.9,6.1-4.2l0.1,0h0.2
		l0.1-0.1l0.1,0l0.2,0l0.1,0l0.2,0l0.1,0l0.1,0l0.2-0.1l0.2-0.1l0.2-0.1l0.3-0.1l0.4-0.2l0.1-0.1l0.2-0.1l0.1-0.1l0.2-0.1l0.1-0.1
		l0.1-0.1l0.2-0.1l0.1-0.2l0.1-0.1l0.1-0.1l0.2-0.1l0.1-0.2l0-0.1l0.1-0.1l0.1-0.2l0.1-0.1C358.5,287.3,356.3,284.3,352.7,281.5
		L352.7,281.5z M334.1,283.1c0,0-9.7,8.7-24.8,11.3h0l0,0l-0.1,0l-0.1,0l-0.1,0l-0.2,0.1l-0.2,0.1l-0.2,0.1l-0.2,0.1l-0.2,0.1
		l-0.3,0.1l-0.3,0.1l-0.2,0.1l-0.3,0.2l-0.3,0.2l-0.6,0.4l-0.7,0.4l-0.7,0.4l-0.7,0.4l-0.7,0.4l-0.8,0.5l-0.8,0.5l-0.7,0.5l-0.8,0.5
		l-0.8,0.5l-0.7,0.6l-0.7,0.6l-0.7,0.5l-0.6,0.6l-0.6,0.5l-0.2,0.3l-0.3,0.3l-0.2,0.3l-0.2,0.3l-0.2,0.3l-0.2,0.3l-0.1,0.3l-0.1,0.3
		l-0.1,0.3l-0.1,0.2l0,0.3l0,0.3v0.3v0.3l0,0.2l0,0.3l0.1,0.3l0.1,0.2c0,0,8-2.5,8.8,7.5c0,0,4.6-6.3,4.6-11.3c0,0,5.4,5.4,8.8-4.2
		c0,0,16,0.8,10.9-7.9C327.8,292.3,334.1,288.1,334.1,283.1L334.1,283.1z M178.2,286.2c0,0-25.8,23.7-27.7,28.8H149
		c0,0,2.3-5.7,6.3-8.2c0,0-5.2,0.8-5.8,0.8v0h0h0h0h-0.1h0h-0.1H149h0h-0.1l-0.1,0h-0.1h-0.1h-0.2h-0.1H148l-0.3,0h-0.3l-0.3,0
		l-0.4,0l-0.4,0l-0.3,0.1l-0.3,0.1l-0.4,0.1l-0.4,0.1l-0.3,0.1l-0.3,0.2l-0.2,0l-0.1,0.1l-0.1,0l-0.2,0.1l-0.1,0.1l-0.1,0.1
		l-0.1,0.1l-0.1,0.1l-0.1,0.1l-0.1,0.1l-0.1,0.1l-0.1,0.1l-0.1,0.2l0,0.1l0,0.1l0,0.2l0,0.1v0.1l-0.1,0.2v0.1v0.1l0.1,0.2v0.1l0,0.2
		l1.9,0.4c0,0-3.3,2.7-0.6,5.5c0,0,7.4,3.9,13.4-0.8c0,0,2.3-3.3,0.4-4.6c2.2,1,9.6,4.1,10.1,0.4c0,0,0.6-2.3-1.1-5.2
		c0,0,7.3-3.8,6.7-10.7C173.6,296.3,179.7,286.8,178.2,286.2L178.2,286.2z M197.4,290.9l-0.4,0l-0.4,0l-0.4,0.1l-0.2,0.1l-0.2,0.1
		l-0.1,0.2l0,0.2v0.3l0.1,0.3l0.1,0.4l0.3,0.4l0.3,0.4l0.4,0.5l0.2,0.3l0.2,0.3l0.2,0.3l0.3,0.3l0.3,0.4l0.4,0.4
		c0,0-1.7,5.9,7.5,4.2c0,0-8.4,8.4,24.3,3.4v0l-0.1,0l-0.2,0l-0.2-0.1l-0.3-0.2l-0.3-0.1l-0.4-0.2l-0.4-0.2l-0.5-0.3l-0.5-0.2
		l-0.6-0.3l-0.6-0.3l-0.7-0.3l-0.7-0.4l-0.8-0.4l-0.8-0.3l-0.7-0.4l-0.9-0.4l-0.8-0.4l-0.8-0.3l-1.8-0.8l-1.8-0.8l-1.9-0.8l-1.9-0.8
		l-1.9-0.8l-1.8-0.7l-1.8-0.7l-0.9-0.4l-0.8-0.3l-0.8-0.3l-0.8-0.2l-0.7-0.3l-0.8-0.3l-0.8-0.2l-0.7-0.2l-0.6-0.2l-0.7-0.1l-0.6-0.1
		l-0.6-0.1l-0.5,0L197.4,290.9L197.4,290.9z M189.2,291L189.2,291L189.2,291L189.2,291l-0.1,0.2l-0.1,0.1l0,0.1l-0.2,0.3l-0.2,0.4
		l-0.2,0.4l-0.3,0.6l-0.3,0.6l-0.3,0.7l-0.3,0.8l-0.4,0.8l-0.4,0.9l-0.4,1l-0.4,1l-0.4,1.1l-0.4,1.1l-0.3,1.1l-0.3,1.2l-0.3,1.2
		l-0.2,1.3l-0.2,1.3l-0.2,1.4l-0.1,1.4l-0.1,1.5v1.4l0,1.5l0.1,1.5l0.2,1.5l0.3,1.5l0.3,1.5l0.4,1.5l0.5,1.6c0,0,5.8-1.7,3.3-6.7
		c0,0,12.6,0,1.7-10.9c0,0,5-3.3,0.8-9.2L189.2,291L189.2,291z M361.3,293.6L361.3,293.6L361.3,293.6l-0.1,0.1l0,0l-0.1,0.1
		l-0.1,0.1l-0.1,0.1l-0.1,0.1l-0.1,0.1l-0.2,0.1l-0.4,0.3l-0.4,0.3l-0.4,0.4l-0.5,0.4l-0.5,0.4l-0.6,0.4l-0.6,0.4l-0.6,0.4l-0.6,0.4
		l-0.7,0.4l-0.7,0.4l-0.7,0.4l-0.8,0.4l-0.8,0.3l-0.8,0.3l-0.8,0.4l-0.8,0.3l-0.8,0.2L348,301l-0.8,0.2l-0.9,0.1l-0.8,0.1h-0.8
		l-0.9-0.1h-0.4l-0.4,0l-0.4-0.1l-0.4-0.1c-8.8-2.1,21,15.5,18.4-1.2C360.5,299.9,369.8,299.5,361.3,293.6L361.3,293.6L361.3,293.6z
		 M418.1,294.8c6.7,10.5,7.5,7.1,7.5,7.1c1.2,8.8,7.1,8.4,7.1,8.4c-2.5,15.9,4.2,14.3,4.2,14.3c4.2,0.8,2.1-6.3,2.1-6.3l-0.5-1.6
		l-0.6-1.5l-0.6-1.5l-0.6-1.4l-0.7-1.3l-0.7-1.3l-0.8-1.2l-0.8-1.2l-0.9-1.1l-0.8-1l-0.9-1l-0.8-0.9l-0.9-0.9l-0.9-0.8l-0.9-0.8
		l-0.9-0.7l-0.8-0.6l-0.8-0.6l-0.8-0.6l-0.8-0.5l-0.8-0.4l-0.7-0.4l-0.7-0.4l-0.6-0.3l-0.5-0.3l-0.5-0.3l-0.5-0.2l-0.4-0.2l-0.3-0.1
		l-0.2,0L418.1,294.8L418.1,294.8L418.1,294.8z M396,295.7c-0.2,0-0.2,0.1-0.2,0.3c0.8,2.9,2.5,10.1,2.5,10.1
		c0,12.2,3.7,38.6,3.7,38.6s1.9,5.1-1.6-0.4l-0.2-0.4l-0.3-0.4l-0.5-0.9l-0.4-1.1l-0.4-1.1l-0.4-1.2l-0.4-1.3l-0.4-1.3l-0.3-1.4
		l-0.4-1.4l-0.3-1.5l-0.3-1.5l-0.3-1.5l-0.4-3l-0.2-1.5l-0.2-1.5l-0.2-1.5l-0.2-1.4l-0.1-1.4l-0.1-1.3l-0.1-1.2l-0.1-1.2l-0.1-1.1
		l-0.1-1.1l0-1l0-0.4l-0.1-0.4v-0.4l0-0.3v-0.4v-0.3l0-0.3v-0.2v-0.2V309v-0.1l0-0.1v0v0c0,0-2.1-14.7-3.7-11.3
		c-1.7,3.3-4.6,5-4.6,5c-5.4,9.2,2.5,11.7,2.5,11.7c-9.9,21.8,2.5,18.5,2.5,18.5c-4.2,10.1,3.3,18.9,3.3,18.9
		c4.6,2.5,4.2-6.3,4.2-6.3s1.2,2.9,3.8,5.5c5.8,5.8,5.4-10.5,5.4-10.5c8-3.4-0.8-15.5-0.8-15.5c8.8-0.8-3.7-16.4-3.7-16.4
		s1.6,0,1.2-3.3C403.4,302,397.2,295.9,396,295.7L396,295.7z M415,297c-2.7-0.1-4,3.8-4,3.8c16.8,16.3,14.2,31.9,14.2,31.9l-1.2,1.7
		l-0.1-1.9l-0.3-1.8l-0.3-1.7l-0.4-1.7l-0.4-1.6l-0.5-1.6l-0.5-1.6l-0.6-1.5l-0.7-1.5l-0.6-1.5l-0.6-1.4l-0.7-1.4l-0.7-1.2l-0.8-1.2
		l-0.7-1.2l-0.7-1.1l-0.8-1.1l-0.7-1l-0.7-0.9l-0.7-0.9l-0.6-0.8l-0.6-0.7l-0.6-0.7l-0.5-0.6l-0.5-0.6l-0.4-0.4l-0.4-0.4l-0.4-0.3
		l-0.3-0.3l-0.2-0.2l0,0l0,0l0,0l0,0c5.8,30.7,7.1,22.3,7.1,22.3c-2.5,12.1,4.2,7.1,4.2,7.1c-0.8,6.3,4.6,6.3,4.6,6.3
		c5.8-0.8,4.2-20.1,4.2-20.1c2.5-9.2-7.1-10.5-7.1-10.5c0.8-4.2-1.7-6.7-1.7-6.7C417.4,297.7,416.1,297,415,297L415,297z
		 M430.2,297.8l10.5,14.7l0.9-1.2c0.8-5-2.5-3.3-2.5-3.3l1.2-3.4l0-0.3l-0.1-0.4l0-0.3l-0.1-0.3l-0.1-0.3l-0.2-0.3l-0.1-0.2
		l-0.1-0.3l-0.2-0.3l-0.1-0.2l-0.1-0.3l-0.2-0.2l-0.1-0.3l-0.2-0.2l-0.1-0.2l-0.2-0.1l-0.2-0.2l-0.2-0.1l-0.2-0.2l-0.2-0.1l-0.4-0.3
		l-0.4-0.2l-0.4-0.2l-0.5-0.2l-0.4-0.2l-0.4-0.1l-0.4-0.1l-0.4-0.1l-0.4-0.1l-0.4,0l-0.4,0l-0.4,0l-0.3,0h-0.4h-0.3h-0.3h-0.1h-0.1
		h-0.1h-0.1h-0.1h0h-0.1h0L430.2,297.8L430.2,297.8L430.2,297.8z M180.8,302.8L180.8,302.8L180.8,302.8L180.8,302.8z M180.8,302.8
		l-5.9,9.2c-8.4,10.9,0.8,10,0.8,10c-1.7,8.4,5.9,3.3,5.9,3.3l-0.3-0.8l-0.3-0.8l-0.2-0.9l-0.2-0.8l-0.2-0.9l-0.2-1l-0.1-0.9
		l-0.1-0.9l-0.1-1l-0.1-0.9l0-1v-0.9v-1v-0.9v-0.9l0-0.8l0.1-0.8l0-0.8l0-0.8l0-0.8l0.1-0.7l0-0.7l0.1-0.6l0-0.6l0-0.5l0.1-0.5
		l0-0.4v-0.1l0-0.2v-0.1l0-0.1v-0.1V303L180.8,302.8L180.8,302.8L180.8,302.8L180.8,302.8z M132.9,312.7l-1.9,1.7
		c0,0-0.4,2.1,1.9,2.5c2.3,0.4-0.8,4-0.8,4c-6.5,3.8-0.7,11.3-0.7,11.3c8.8,1.4,11.8-5.4,11.8-5.4c0.6-1.7,2.7,0.4,2.7,0.4
		c1.9-1.7,1.9-6.1,1.9-6.1c-7.5-0.4-6.3-3.3-6.3-3.3c-3.3,1.5-8.2,10.1-8.2,10.1l-1.2-0.8c-0.7-2.1,3.3-6.9,3.3-6.9
		c4.4-5,0.8-4.2,0.8-4.2l-0.1-0.1l-0.2-0.1l-0.4-0.3l-0.3-0.3l-0.3-0.2l-0.3-0.3l-0.1-0.1l-0.1-0.2l-0.2-0.1l-0.1-0.1l-0.1-0.1
		l-0.1-0.2l-0.1-0.1l-0.1-0.1l-0.1-0.2l-0.1-0.1l-0.1-0.1l-0.1,0l0-0.1l-0.1-0.1l0,0l0,0l0,0l0,0L132.9,312.7L132.9,312.7
		L132.9,312.7L132.9,312.7z M214.8,315.9l-0.2,0h-0.1l-0.2,0l-0.1,0h-0.2l-0.2,0.1l-0.1,0l-0.3,0.1l-0.4,0.1l-0.2,0.1l-0.3,0.2
		l-0.3,0.1l-0.2,0.2l-0.1,0.1l-0.1,0.1l-0.1,0l-0.1,0.1l-0.1,0.1l0,0.1l-0.1,0l0,0l-0.1,0l-0.1,0l0,0l0,0h0v0.1c0,0,0-0.4-1.3,2.5
		c-1.2,2.9-0.2,5.8-0.2,5.8c-4-1.6-7.1,1.3-7.1,1.3c-4.8,4.2,4.2,10.2,4.2,10.2c3.1-9.6,11.3-16.8,11.3-16.8v-0.2v-0.3v-0.2v-0.2
		V320l0-0.2v-0.2v-0.2l-0.1-0.1v-0.2l0-0.3l0-0.3l-0.1-0.3l0-0.2l-0.1-0.3l-0.1-0.2l0-0.2l-0.1-0.2l-0.1-0.2l-0.1-0.2l-0.1-0.2
		l-0.1-0.1l-0.1-0.1l-0.2-0.2l-0.1,0l-0.2-0.1l-0.1,0l-0.1,0l-0.2,0h-0.1l-0.1,0h-0.2h-0.1L214.8,315.9L214.8,315.9z M167.3,317.1
		L167.3,317.1L167.3,317.1L167.3,317.1l-0.1,0.1l0,0l-0.1,0l-0.1,0.1l-0.1,0l-0.2,0.2l-0.2,0.2l-0.3,0.3l-0.3,0.3l-0.4,0.4l-0.3,0.4
		l-0.4,0.4l-0.4,0.5l-0.4,0.5l-0.3,0.6l-0.3,0.6l-0.3,0.7l-0.3,0.6l-0.2,0.7l-0.2,0.7l-0.2,0.8l-0.2,0.8l0,0.4l0,0.4l0,0.4v0.4v0.4
		v0.4l0,0.5l0,0.5l0,0.5l0.1,0.5l0.1,0.5l0.1,0.5l0.2,0.6l0.1,0.5l0.2,0.5l0.2,0.5l0.2,0.6l0.3,0.5l0.3,0.5l0.3,0.6l0.3,0.5l0.4,0.6
		c0,0,9.2-4.2,5-9.2C169.8,328,173.2,326.3,167.3,317.1L167.3,317.1z M223.7,318.5c-0.7,0-1.5,0.8-1.5,0.8
		c-25,32.3-25.2,53.3-25.2,53.3c3.8,0.6,4.6-5.9,4.6-5.9c6.3,0.2,8.8-9.8,8.8-9.8c8.6,4.2,8.8-9.9,8.8-9.9l-0.4-0.2l-0.2-0.2
		l-0.3-0.3l-0.2-0.3l-0.2-0.3l-0.2-0.3l-0.2-0.4l-0.1-0.4l-0.1-0.4l-0.1-0.4l0-0.4l0-0.4v-0.4l0-0.4l0-0.5v-0.5l0.1-1l0.2-1.1
		l0.2-1.1l0.3-1.1l0.4-1.1l0.3-1.1l0.4-1.1l0.4-1.1l0.4-1.1l0.4-1.1l0.4-1l0.4-1.1l0.4-1l0.4-1l0.4-0.9l0.4-0.8l0.2-0.4l0.2-0.4
		l0.2-0.4l0.2-0.3l0.1-0.3l0.2-0.3l0.1-0.3l0.1-0.2l0.1-0.3l0.1-0.1l0.1-0.2l0-0.1l0-0.1l0,0l0,0h0
		C224.7,318.9,224.2,318.5,223.7,318.5L223.7,318.5z M227.8,320.9c-6.3,6.3-6.7,19.3-6.7,19.3c5,20.5-6.7,21.4-6.7,21.4
		c-5.9,5,0.9,21.4,0.9,21.4c7.1,0,6.7-9.2,6.7-9.2c5.5-2.1,2.9-16.4,2.9-16.4c12.2-5,3.3-21,3.3-21l0.4-0.1l0.2-0.1l0.3-0.2l0.3-0.1
		l0.2-0.1l0.3-0.2l0.2-0.1l0.2-0.2l0.2-0.2l0.2-0.1l0.1-0.2l0.2-0.2l0.1-0.2l0.1-0.2l0.2-0.2l0.1-0.2l0.1-0.2l0.1-0.2l0-0.3l0.1-0.2
		l0-0.2l0-0.2l0-0.2V332l0-0.4l0-0.5v-0.4l0-0.4l0-0.4l0-0.4l-0.1-0.4l-0.1-0.4l-0.1-0.4l-0.1-0.3l-0.1-0.4l-0.1-0.3l-0.1-0.3l0-0.1
		l0-0.1l0-0.1l0-0.1l0-0.1l-0.1-0.1l0-0.1v0l0,0v0l0,0v0L227.8,320.9L227.8,320.9z M153.4,322.1c-5,0.2-4.6,8-4.6,8
		c-0.6,1.4,4.8,5.4,4.8,5.4c-1.2,0.2-2.7,4.2-2.7,4.2c0,2.5,0.2,5.2,3.3,6.1c0,0-2.7,5.2,2.7,7.1c0,0,4.4-0.2,5.4-5.2
		c0,0-1.9-2.7-3.3-1.2v0l0,0v-0.1l0-0.1v-0.1l0.1-0.1l0-0.2l0-0.1l0-0.1l0-0.2l0-0.2l0-0.2l0.1-0.2l0-0.2l0-0.2l0.1-0.3l0-0.2
		l0.2-0.5l0.1-0.5l0.1-0.5l0.2-0.6l0.1-0.6l0.1-0.6l0.1-0.6l0.1-0.6l0.1-0.6l0-0.6v-0.6v-0.3V337v-0.2v-0.3v-0.2l0-0.3l0-0.3l0-0.2
		l0-0.2l-0.1-0.2l-0.1-0.2l-0.1-0.1l-0.1-0.1l-0.1-0.2l-0.1-0.1l-0.1-0.1l-0.1-0.1l-0.2-0.1l-0.2,0l-0.2,0l-0.2,0h-0.2h-0.2l-0.3,0
		v0l-0.6,0.2C161.2,324,153.4,322.1,153.4,322.1L153.4,322.1z M354.1,324.2c-0.6,0-1.3,0-2,0v0l0,0h0l0.2,0.1l0.4,0.3l0.5,0.4
		l0.6,0.4l0.7,0.5l0.8,0.6l0.9,0.7l1,0.8l1.1,0.9l1.1,1l1.2,1.1l1.3,1.2l1.4,1.2l1.4,1.3l1.4,1.5l1.5,1.5l1.5,1.6l1.5,1.7l1.6,1.8
		l1.5,1.8l1.6,1.9l1.5,1.9l1.5,2l1.5,2.1l1.5,2.2l1.5,2.2l1.4,2.3l1.4,2.3l1.3,2.4l1.2,2.5l1.2,2.6c0,0,2.6-1.4-1.3-8
		c0,0,6.7-8.4-3.7-12.1c0,0,2.9-16-14.3-15.5C370.6,333.9,374.2,324.4,354.1,324.2L354.1,324.2z M185,326.1L185,326.1l-0.1,0.3
		l0,0.3l-0.1,0.5l-0.1,0.5l-0.2,0.7l-0.1,0.8l-0.2,0.9l-0.1,1.1l-0.3,1.1l-0.2,1.2l-0.2,1.4l-0.2,1.4l-0.3,1.5l-0.2,1.6l-0.2,1.7
		l-0.2,1.7l-0.2,1.9l-0.1,1.9l-0.1,1.9l-0.2,2l-0.1,2.1l-0.1,2.1l0,2.2v2.2v2.3l0,2.3l0,2.4l0.1,2.4l0.2,2.4l0.2,2.4l0.3,2.5
		l-1.1-0.6c0,0-2.7-5.7-2.5-9.9c0,0,1.7-20.8-6.9-13.6c0,0,4.4,0.6,3.3,5.2c0,0-0.8,6.1-3.3,8.6c0,0-3.3,5,4.2,5
		c0,0,1.7,10.7,7.1,10.9c0,0,3.8-1.9,3.8-6.1c0,0,10-3.5,3.7-17.2c0,0,9.4,0,5.4-5c0,0-9-13.6-7.5-19.7
		C188.5,333.9,191.1,331.6,185,326.1L185,326.1z M237.9,327.2c0.4,8.8-3.7,10.5-3.7,10.5c3.7,13.8-5,21.4-5,21.4
		c2.9,9.2-4.6,17.6-4.6,17.6c8.8,0,6.7-8.8,6.7-8.8c10.1,6.7,9.2-12.6,9.2-12.6c12.6,0.4-1.7-15.9-1.7-15.9h0.3h0.3l0.2,0l0.2,0
		l0.2,0l0.1,0l0.2-0.1l0.1-0.1l0.1-0.1l0.2-0.1l0.1-0.2l0-0.2l0.1-0.1l0-0.2l0-0.2l0.1-0.2v-0.2l0-0.3V337v-0.3v-0.3l0-0.2V336
		l-0.1-0.3l-0.1-0.5l-0.1-0.5l-0.1-0.5l-0.2-0.6l-0.2-0.6l-0.2-0.6l-0.2-0.5l-0.2-0.6l-0.3-0.5l-0.2-0.5l-0.2-0.5l-0.1-0.2l-0.1-0.2
		l0-0.2l-0.1-0.2l-0.1-0.2l-0.1-0.2l-0.1-0.2l-0.1-0.1l0-0.1l0-0.2l-0.1-0.1l0-0.1v-0.1l-0.1,0L237.9,327.2L237.9,327.2L237.9,327.2
		L237.9,327.2z M349.6,331.8L349.6,331.8v0.2l0,0.2v0.2v0.3l-0.1,0.3v0.3l0,0.4v0.4l0,0.9l-0.1,1.1l0,1.2l-0.1,1.3l-0.1,1.4
		l-0.1,1.5l-0.1,1.6l-0.1,1.7l-0.1,1.8l-0.1,1.9l-0.1,1.9l-0.1,2l0,2l-0.1,2.1l0,2.1l-0.1,4.3l0,4.3v4.2v2.1l0,2.1v2l0.1,2l0,1.9
		l0.2,1.8c0,0,7.1-6.3,4.6-9.6c0,0,10.9-1.7,2.1-14.3c0,0,10.5-4.6-2.5-14.7C352.6,344.8,360.1,342.3,349.6,331.8L349.6,331.8z
		 M356.3,332.6c6.3,10.1,2.5,13,2.5,13c8.4,10,2.1,15.5,2.1,15.5c1.2,7.1,10.9,1.6,10.9,1.6c-3.7,10.9,9.7,8,9.7,8
		c4.6,6.3,7.1,1.7,7.1,1.7l-0.3-0.5l-0.3-0.5l-0.3-0.5l-0.4-0.5l-0.8-1.2l-0.9-1.2l-1-1.3l-1-1.5l-1.1-1.5l-1.2-1.5l-1.2-1.5
		l-1.3-1.6l-1.3-1.6l-1.4-1.7l-2.8-3.3l-2.8-3.3l-1.4-1.6l-1.3-1.5l-1.4-1.5l-1.3-1.5l-1.2-1.4l-1.2-1.3l-1.1-1.3l-1.1-1.1l-0.9-1.1
		l-0.4-0.5l-0.4-0.4l-0.4-0.4l-0.4-0.4l-0.4-0.4l-0.3-0.3l-0.3-0.3l-0.3-0.2l-0.2-0.3l-0.2-0.2l-0.1-0.2L356.3,332.6L356.3,332.6
		L356.3,332.6L356.3,332.6z M346.2,337.3L346.2,337.3L346.2,337.3l-0.1,0.1v0l-0.1,0.1l0,0l0,0.1l-0.1,0l-0.1,0.1l-0.1,0.1l-0.1,0.1
		l-0.1,0.1l-0.1,0.1l-0.1,0.2l-0.2,0.2l-0.3,0.3l-0.3,0.4l-0.2,0.3L344,340l-0.2,0.3l-0.3,0.4l-0.3,0.4l-0.2,0.4l-0.3,0.4l-0.2,0.4
		l-0.2,0.4l-0.1,0.4l-0.2,0.4l0,0.2l0,0.2l0,0.1l0,0.2l0,0.2v0.2l0,0.2v0.1v0.2v0.1l0,0.2v0.1l0,0.1l0,0.1l0.1,0.1l0,0.1l0.1,0.1
		l0.1,0.1l0.1,0.1l0.2,0.1l1.7,2.1c0,0-13,11.7-6.3,14.2c0,0-3.7,12.6,2.9,10.5c0,0-2.1,9.2,4.2,8.4
		C345,381.8,342.5,354.1,346.2,337.3L346.2,337.3L346.2,337.3z M167.3,342.3c0,0-4.2,12.6-0.8,18.4l-3.3-5v0h0h0H163l0,0h0l-0.1,0h0
		l-0.1,0l0,0l-0.1,0.1l-0.1,0l-0.1,0l-0.3,0.1l-0.2,0.1l-0.3,0.2l-0.3,0.1l-0.2,0.2l-0.3,0.1l-0.2,0.2l-0.2,0.3l-0.1,0.1l-0.1,0.1
		l-0.1,0.2l-0.1,0.1l-0.1,0.1l0,0.1l-0.1,0.1l-0.1,0.1l0,0.2l0,0.1l0,0.1v0.2l0,0.1v0.2v0.1l0,0.2v0.2l0,0.2l0,0.2l0,0.2l0.1,0.1
		l0.1,0.2l0.1,0.2l0.1,0.2l0.2,0.2l0.1,0.2l0.2,0.2l0.2,0.3l0.2,0.2l0.2,0.2l0.3,0.3l0.2,0.2l0.3,0.3l0.3,0.2c0,0,0.8,8.4,6.7,4.2
		c0,0-5-15.1,2.5-25.2L167.3,342.3L167.3,342.3z M209.8,366.9L209.8,366.9L209.8,366.9l-0.1,0.1h0l0,0l-0.1,0l0,0h-0.1l-0.1,0l0,0
		l-0.1,0.1l-0.2,0l-0.1,0l-0.1,0.1l-0.1,0l-0.3,0.1l-0.3,0.2l-0.2,0.2l-0.3,0.2l-0.3,0.3l-0.2,0.2l-0.3,0.3l-0.2,0.2l-0.1,0.2
		l-0.1,0.1l-0.1,0.1l-0.1,0.2L206,370l-0.1,0.1l-0.1,0.2l0,0.1l0,0.2l0,0.1l-0.1,0.1l0,0.2v0.2v0.2v0.1v0.2l0,0.2v0.2l0.1,0.2l0,0.2
		l0.1,0.1l0,0.2l0.2,0.1l0.1,0.2l0.1,0.2l0.2,0.2l0.2,0.2l0.2,0.2l0.2,0.1l0.3,0.2l0.2,0.2l0.3,0.2c0,0-3.1,9.8,2.5,8.8
		c0,0,0.6,3.8,2.9,3.1c0,0,0.6-2.3-2.3-3.5c0,0,1.5-3.8-2.1-8.2C208.9,374.9,212.5,369.2,209.8,366.9L209.8,366.9z"/>
	<path d="M280.5,479L280.5,479c-110.1,0-199.7-89.6-199.7-199.7S170.3,79.7,280.4,79.7c53.4,0,103.5,20.8,141.2,58.5
		c37.7,37.7,58.5,87.9,58.5,141.2l-0.3,10.3l-0.8,10.2l-1.3,10l-1.7,9.9l-2.2,9.7l-2.7,9.5l-3.2,9.3l-3.6,9.1l-4,8.8l-4.4,8.6
		l-4.8,8.4l-5.2,8.1l-5.6,7.8l-6,7.6l-6.2,7.2l-6.6,7l-7,6.6l-7.2,6.2l-7.5,6L392,445l-8.1,5.2l-8.4,4.8l-8.7,4.4l-8.8,4L349,467
		l-9.3,3.2l-9.4,2.6l-9.7,2.2l-9.8,1.8l-10,1.3l-10.1,0.8L280.5,479z M280.4,86.4c-106.4,0-193,86.6-193,193
		c0,106.4,86.5,192.9,192.9,193l10-0.2l9.8-0.7l9.7-1.2l9.5-1.7l9.3-2.2l9.1-2.6l9-3l8.7-3.5l8.6-3.8l8.3-4.3l8.1-4.7l7.8-5l7.6-5.4
		l7.3-5.7l7-6l6.7-6.4l6.4-6.7l6-7l5.8-7.3l5.4-7.6l5-7.8l4.6-8.1l4.3-8.3l3.9-8.5l3.4-8.7l3-9l2.6-9.1l2.2-9.3l1.7-9.5l1.2-9.6
		l0.7-9.8l0.2-10C473.4,172.9,386.8,86.4,280.4,86.4z"/>
	<g>
		<g>
			<path d="M80.5,342l-35.9,10.1l-6.1-21.8l8.3-2.3l3.4,12l5.3-1.5l-3.2-11.3l8.3-2.3l3.2,11.3l5.6-1.6l-3.6-12.8l8.6-1.6L80.5,342z
				"/>
			<path d="M71.1,299.8l-10.3,6.4l11.7,3.1l1.5,10.5l-20.6-7L37,324.4l-1.6-11.2l9.3-5.6L34.2,305l-1.5-10.5l19.4,6.5l17.4-12.4
				L71.1,299.8z"/>
			<path d="M54.7,261.6c5,0.2,9,1.5,11.7,3.9c2.8,2.5,4.2,5.8,4.2,10.1c0,4.8-1.6,8.4-4.9,10.9c-3.3,2.5-8.1,3.8-14.4,3.8
				c-6.4,0-11.4-1.2-14.8-3.7c-3.4-2.5-5.1-6.2-5.2-11c0-3.9,1.2-7,3.8-9.3c2.5-2.4,6.2-3.8,10.9-4.4l1.2,10.1
				c-2.4,0.3-4.1,0.7-5.1,1.2c-1,0.6-1.5,1.4-1.5,2.5c0,1.5,0.8,2.6,2.4,3.2c1.6,0.6,4.2,0.9,7.9,0.9c3.7,0,6.4-0.4,8-1.1
				c1.6-0.7,2.4-1.8,2.4-3.3c0-1.2-0.5-2.1-1.6-2.7c-1-0.6-2.7-1-5.1-1.1L54.7,261.6z"/>
			<path d="M72.2,242.5l-14.4-2l-1,7.2l14.4,2l-1.4,10.1l-36.9-5.2l1.4-10.1l13.2,1.8l1-7.2l-13.2-1.8l1.4-10.1l36.9,5.2L72.2,242.5
				z"/>
			<path d="M79.7,211l-6.9-0.7l-2.4,8.3l6.1,3.2l-2.8,9.5l-33.1-19.7l3.6-12.2l38.4,1.6L79.7,211z M50.1,208.2l13,6.7l1.6-5.4
				L50.1,208.2z"/>
			<path d="M90.6,183.6l-20.8,0.4l17,7.8l-3.9,8.5l-33.9-15.5l3.8-8.3l20.8-0.4l-17-7.8l3.9-8.5l33.9,15.5L90.6,183.6z"/>
			<path d="M94.8,149.2l-2,3.2l-6.5-4.2l7.2-11l15.2,9.9c0.1,2.3-0.2,4.6-0.8,6.9c-0.7,2.3-1.7,4.5-3,6.5c-2.8,4.3-6.3,6.7-10.5,7.2
				c-4.2,0.5-8.9-1.1-14.3-4.5c-5.4-3.5-8.8-7.3-10.2-11.3c-1.4-4-0.7-8.1,2-12.4c4.3-6.7,10.2-8.2,17.7-4.6l-4.8,9.2
				c-1.4-0.6-2.5-0.9-3.4-0.8c-0.9,0.1-1.6,0.6-2.2,1.4c-0.9,1.3-0.8,2.8,0.2,4.3c1,1.5,3,3.3,6,5.2c3.1,2,5.6,3.1,7.6,3.3
				c1.9,0.2,3.5-0.6,4.5-2.3c0.7-1.1,1.1-2.2,1.1-3.3L94.8,149.2z"/>
			<path d="M113.2,146.6l-28.3-24.3l14.7-17.2l6.6,5.6l-8.1,9.5l4.2,3.6l7.6-8.9l6.6,5.6l-7.6,8.9l4.4,3.8l8.7-10.1l6.1,6.2
				L113.2,146.6z"/>
			<path d="M131.7,105.5c-3.1,1.4-5.8,2-8.1,1.5c-2.3-0.4-4.5-1.9-6.6-4.3c-2.3-2.7-3.2-5.6-2.8-8.7c0.4-3.1,2.2-6,5.3-8.6
				c2.9-2.5,5.8-3.7,8.5-3.6c2.8,0.1,5.6,1.5,8.4,4.2l-6.9,7.1c-1.2-1.1-2.2-1.7-2.9-1.9c-0.7-0.2-1.4,0.1-2.2,0.7
				c-0.7,0.6-1,1.2-1,1.9c0,0.7,0.3,1.4,0.9,2.1c0.6,0.7,1.2,1.1,1.9,1.2c0.6,0.1,1.4-0.1,2.3-0.5l3.6-1.7c3.3-1.5,6.1-2.1,8.5-1.7
				c2.3,0.4,4.5,1.8,6.5,4.1c2.5,3,3.5,6,3.2,9.1c-0.4,3.1-2.2,6.1-5.4,8.8c-6.6,5.5-12.8,5.1-18.8-1.3l7.7-6.5
				c1.2,1.2,2.3,2,3.3,2.2c0.9,0.2,1.9-0.1,2.7-0.8c0.7-0.6,1.1-1.3,1.2-2.1c0-0.8-0.3-1.6-0.9-2.4c-0.6-0.7-1.2-1.1-1.9-1.2
				c-0.7-0.1-1.5,0-2.4,0.4L131.7,105.5z"/>
			<path d="M149.9,64.6l8.6-5.5l12.4,19.6c2.6,4.1,3.6,7.9,3,11.3c-0.6,3.4-2.8,6.3-6.6,8.7c-3.8,2.4-7.4,3.2-10.7,2.3
				c-3.4-0.9-6.3-3.4-9-7.6l-12.4-19.6l8.6-5.5l12.8,20.2c0.9,1.5,1.8,2.4,2.7,2.8c0.9,0.4,1.9,0.2,2.9-0.4c1.1-0.7,1.6-1.5,1.6-2.5
				c0-1-0.4-2.2-1.3-3.7L149.9,64.6z"/>
			<path d="M181.4,89.2l-15.5-33.9l10.8-5c3.8-1.7,7.3-2.1,10.4-1c3.1,1.1,5.5,3.4,7.2,7c1.1,2.3,1.5,4.6,1.3,6.8
				c-0.2,2.2-1,4.2-2.3,6.1c-1.4,1.8-3.3,3.3-5.8,4.5l-1.9,0.9l4.8,10.5L181.4,89.2z M183.8,65.9c2.6-1.2,3.3-3.1,2.1-5.7
				c-1.2-2.6-3.1-3.3-5.7-2.1l-1.9,0.9l3.6,7.8L183.8,65.9z"/>
			<path d="M206.3,78.1l-11.1-35.6l11.4-3.5c4-1.2,7.5-1.1,10.4,0.3c3,1.5,5,4.1,6.2,7.9c0.8,2.4,0.9,4.7,0.4,6.9
				c-0.5,2.2-1.5,4.1-3.1,5.7c-1.6,1.6-3.7,2.9-6.3,3.7l-2,0.6l3.4,11.1L206.3,78.1z M211.7,55.3c2.7-0.8,3.7-2.6,2.8-5.4
				c-0.8-2.7-2.6-3.7-5.4-2.8l-2,0.6l2.5,8.2L211.7,55.3z"/>
			<path d="M246.1,68.8c-4.9,0.8-8.9-0.2-11.9-3c-3-2.8-5.1-7.4-6.1-13.7c-1-6.4-0.5-11.4,1.5-15.2c2-3.7,5.5-6,10.5-6.8
				c4.9-0.8,8.9,0.2,11.9,3c3,2.8,5.1,7.4,6.1,13.7c1,6.4,0.5,11.4-1.5,15.2C254.6,65.7,251.1,68,246.1,68.8z M244.7,59.7
				c1.6-0.3,2.7-1.2,3.1-2.9c0.4-1.7,0.4-4.4-0.2-8.1c-0.6-3.7-1.4-6.2-2.3-7.7c-0.9-1.4-2.2-2-3.9-1.7c-1.6,0.3-2.7,1.2-3.1,2.9
				c-0.5,1.7-0.4,4.4,0.2,8.1c0.6,3.7,1.4,6.2,2.3,7.7C241.8,59.3,243.1,59.9,244.7,59.7z"/>
			<path d="M280.4,65.1l-4.8-12.5l-2.6,0l0.2,12.5l-9.6,0.2L263,28.1l12.9-0.2c4.2-0.1,7.4,0.9,9.8,3c2.3,2.1,3.6,5,3.6,8.9
				c0,2-0.4,3.9-1.2,5.6c-0.8,1.7-2.1,3.1-3.6,4.3l6.6,15.2L280.4,65.1z M275.6,44.6c1.4,0,2.4-0.4,3.1-1.2c0.7-0.8,1-1.8,1-3.2
				c0-1.4-0.4-2.4-1.1-3.1c-0.7-0.7-1.7-1.1-3-1l-2.9,0l0.1,8.6L275.6,44.6z"/>
			<path d="M298.2,65.9l3.2-27.9l-7.7-0.9l1-9.1l25.5,2.9l-1,9.1l-7.7-0.9l-3.2,27.9L298.2,65.9z"/>
			<path d="M342.4,74.8l0.6-6.9l-8.3-2.4l-3.2,6.2l-9.5-2.7l19.5-33.2l12.2,3.5l-1.4,38.4L342.4,74.8z M345,45.2l-6.7,13.1l5.4,1.5
				L345,45.2z"/>
			<path d="M369.9,85.6l-0.5-20.8l-7.7,17.1l-8.6-3.9l15.3-34l8.3,3.7l0.5,20.8l7.7-17.1l8.6,3.9l-15.3,34L369.9,85.6z"/>
			<path d="M381.4,91.1l20.1-31.4l10.1,6.5c4.5,2.9,7.1,6.4,7.8,10.5c0.6,4.1-0.7,8.7-3.9,13.8c-3.3,5.1-7,8.3-11.1,9.5
				c-4.1,1.2-8.4,0.4-12.8-2.4L381.4,91.1z M397.2,90.3c1.4,0.9,2.9,0.9,4.5,0.1c1.5-0.9,3.2-2.7,4.9-5.4c1.7-2.7,2.6-4.9,2.7-6.6
				c0.1-1.7-0.6-3.1-2-4L405,73l-10.1,15.8L397.2,90.3z"/>
			<path d="M431.6,130.2l14.6-15.1l-18.4,11.4l-4.5-4.4l10.9-18.7l-14.6,15.1l-6.5-6.3l26-26.7l8.6,8.4l-12.5,20.8l20.4-13.1
				l8.6,8.4l-26,26.7L431.6,130.2z"/>
			<path d="M451.4,154.5l4.7-5.1l-5.2-7l-6.3,2.9l-5.9-8l35.7-14.4l7.5,10.2l-24.5,29.5L451.4,154.5z M471.5,132.7l-13.3,6.3
				l3.3,4.5L471.5,132.7z"/>
			<path d="M457.7,164.2l32.1-18.9l5.2,8.8L462.9,173L457.7,164.2z"/>
			<path d="M472.7,193.1l13.4-15.9l-17.1,7.7l-3.9-8.6l34-15.3l3.7,8.3l-13.4,15.9l17.1-7.7l3.8,8.6l-34,15.3L472.7,193.1z"/>
			<path d="M479,210.1l26.9-8.1l-2.2-7.4l8.8-2.6l7.4,24.6l-8.8,2.6l-2.2-7.4l-26.9,8.1L479,210.1z"/>
			<path d="M484.4,228.8l36.7-6.3l3.8,22.3l-8.5,1.5l-2.1-12.3l-5.4,0.9l2,11.5l-8.5,1.5l-2-11.5l-5.7,1l2.3,13.1l-8.7,0.7
				L484.4,228.8z"/>
			<path d="M489.3,272.3l18.4-9.6l-18.7,0.6l-0.3-9.4l37.2-1.3l0.3,9.1l-18.4,9.6l18.7-0.6l0.3,9.4l-37.2,1.3L489.3,272.3z"/>
			<path d="M501.3,314.1c-5-0.8-8.7-2.5-11.2-5.3c-2.5-2.8-3.5-6.3-3-10.5c0.5-4.7,2.6-8.2,6.1-10.3c3.5-2.1,8.4-2.8,14.7-2.1
				c6.4,0.7,11.1,2.5,14.2,5.4c3.1,2.9,4.4,6.7,3.9,11.5c-0.4,3.8-2,6.8-4.8,8.8c-2.8,2.1-6.6,3.1-11.4,3.1l0-10.1
				c2.4,0,4.2-0.2,5.2-0.6c1-0.4,1.6-1.2,1.7-2.3c0.2-1.5-0.5-2.6-2-3.4c-1.5-0.8-4.1-1.4-7.7-1.8c-3.7-0.4-6.4-0.4-8.1,0.1
				c-1.7,0.5-2.6,1.5-2.8,3c-0.1,1.2,0.3,2.1,1.3,2.8c1,0.7,2.6,1.3,4.9,1.7L501.3,314.1z"/>
			<path d="M485.9,314.1l36.2,8.9l-5.4,22l-8.4-2.1l3-12.1l-5.3-1.3l-2.8,11.4l-8.4-2.1l2.8-11.4l-5.6-1.4l-3.2,12.9l-8.2-2.8
				L485.9,314.1z"/>
		</g>
		<g>
			<path d="M85.4,415.5c-3.7,2.2-7,3.1-10.1,2.6c-3.1-0.5-5.7-2.2-7.7-5.2c-2.2-3.4-2.8-6.7-1.6-10s4-6.4,8.4-9.3
				c4.5-3,8.6-4.4,12.2-4.2c3.6,0.2,6.5,2,8.7,5.4c1.8,2.7,2.4,5.5,1.7,8.4c-0.7,2.8-2.6,5.6-5.7,8.2l-5.5-6.6
				c1.6-1.3,2.6-2.4,3.1-3.2c0.4-0.9,0.4-1.7-0.1-2.4c-0.7-1.1-1.7-1.4-3.1-1.1c-1.4,0.3-3.4,1.3-6,3c-2.6,1.7-4.4,3.2-5.2,4.5
				s-0.9,2.4-0.2,3.5c0.6,0.8,1.3,1.2,2.4,1.2c1-0.1,2.4-0.6,4.1-1.5L85.4,415.5z"/>
			<path d="M86.8,437l5.6-9.8l-1.4-1.7l-8.2,6.8l-5.2-6.2l24.3-20.2l7,8.4c2.3,2.7,3.3,5.4,3.2,8.1c-0.1,2.7-1.4,5-3.9,7.1
				c-1.3,1.1-2.8,1.8-4.3,2.2c-1.6,0.3-3.2,0.3-4.8-0.1l-6.6,12.4L86.8,437z M97.8,422.9c0.7,0.9,1.5,1.4,2.4,1.4
				c0.9,0.1,1.8-0.3,2.7-1c0.9-0.7,1.4-1.5,1.5-2.4c0.1-0.8-0.2-1.7-0.9-2.6l-1.6-1.9l-5.6,4.6L97.8,422.9z"/>
			<path d="M98.9,450.2l8.1-8.3l8.1-19.9l6.6,6.5l-6,10.9l10.8-6.2l6.4,6.3l-19.8,8.5l-8.1,8.3L98.9,450.2z"/>
			<path d="M113.1,463.7l19.8-24.6l7.8,6.3c2.8,2.2,4.3,4.7,4.7,7.5c0.4,2.8-0.5,5.5-2.6,8.1c-1.3,1.7-2.9,2.9-4.6,3.6
				c-1.7,0.7-3.6,0.9-5.5,0.5c-1.9-0.3-3.8-1.2-5.6-2.7l-1.4-1.1l-6.1,7.6L113.1,463.7z M131.6,456.8c1.9,1.5,3.6,1.3,5.1-0.6
				c1.5-1.9,1.3-3.6-0.6-5.1l-1.4-1.1l-4.5,5.6L131.6,456.8z"/>
			<path d="M138,482.6l12.9-19.9l-5.5-3.6l4.2-6.5l18.2,11.8l-4.2,6.5l-5.5-3.6l-12.9,19.9L138,482.6z"/>
			<path d="M163.9,498.8c-3.8-1.9-6-4.6-6.6-8c-0.7-3.4,0.2-7.6,2.7-12.4c2.5-4.9,5.4-8.1,8.6-9.6c3.2-1.5,6.8-1.3,10.6,0.6
				c3.8,1.9,6,4.6,6.6,8c0.7,3.4-0.2,7.6-2.7,12.4c-2.5,4.9-5.4,8.1-8.6,9.6C171.3,501,167.7,500.8,163.9,498.8z M167.6,491.9
				c1.3,0.6,2.5,0.5,3.6-0.4c1.1-0.9,2.4-2.8,3.9-5.6c1.4-2.8,2.2-4.9,2.3-6.4c0.1-1.4-0.5-2.5-1.8-3.1c-1.3-0.6-2.5-0.5-3.6,0.4
				c-1.1,0.9-2.4,2.8-3.9,5.6c-1.4,2.8-2.2,4.9-2.3,6.4C165.7,490.2,166.3,491.3,167.6,491.9z"/>
			<path d="M187,508.4l11-29.6l8.1,3l-11,29.6L187,508.4z"/>
			<path d="M215.6,517.7l-3.1-17.3l-4.2,15.3l-7.7-2.1l8.4-30.4l7.4,2l3.1,17.3l4.2-15.3l7.7,2.1l-8.4,30.4L215.6,517.7z"/>
			<path d="M229.1,520.9l5.2-31.1l18,3l-1.2,7.2l-9.6-1.6l-1,5.8l8.9,1.5l-1.2,7.2l-8.9-1.5l-1.8,10.8L229.1,520.9z"/>
			<path d="M266,525.4l-3.2-10.8l-2.2-0.1l-0.7,10.6l-8.1-0.5l2.1-31.5l10.9,0.7c3.5,0.2,6.2,1.3,8,3.2c1.8,1.9,2.6,4.5,2.4,7.7
				c-0.1,1.7-0.6,3.2-1.4,4.6c-0.8,1.4-2,2.5-3.4,3.4L275,526L266,525.4z M263.4,507.8c1.1,0.1,2-0.2,2.7-0.8c0.6-0.6,1-1.5,1.1-2.6
				c0.1-1.1-0.2-2-0.7-2.7c-0.5-0.7-1.4-1-2.5-1.1l-2.4-0.2l-0.5,7.2L263.4,507.8z"/>
			<path d="M295.8,525.3l-1.4-5.7l-7.3,0.3l-0.9,5.8l-8.4,0.4l6.7-31.9l10.7-0.5l9.2,31.2L295.8,525.3z M290,500.8l-1.8,12.3
				l4.7-0.2L290,500.8z"/>
			<path d="M313.1,510.7c-2.8-0.3-5-1.1-6.5-2.5c-1.5-1.3-2.5-3.3-2.9-6c-0.5-3,0.2-5.5,1.9-7.5c1.7-2,4.2-3.3,7.6-3.8
				c3.2-0.5,5.8-0.1,7.7,1.2c2,1.3,3.4,3.5,4.2,6.7l-8.1,2c-0.4-1.3-0.8-2.2-1.3-2.6c-0.4-0.4-1.1-0.6-1.9-0.5
				c-0.7,0.1-1.3,0.4-1.6,0.9c-0.3,0.5-0.4,1.1-0.3,1.9c0.1,0.8,0.4,1.4,0.8,1.7c0.4,0.4,1,0.6,1.9,0.7l3.3,0.4
				c3.1,0.4,5.3,1.2,6.9,2.5c1.5,1.3,2.5,3.3,2.9,5.8c0.5,3.2-0.1,5.9-1.8,8c-1.7,2.1-4.3,3.4-7.8,3.9c-7.2,1.1-11.5-2-13-9.2
				l8.4-1.3c0.3,1.4,0.8,2.4,1.4,3c0.6,0.6,1.4,0.8,2.3,0.6c0.8-0.1,1.4-0.5,1.8-1c0.4-0.5,0.5-1.3,0.4-2.1
				c-0.1-0.8-0.4-1.3-0.8-1.7c-0.4-0.4-1.1-0.6-1.9-0.8L313.1,510.7z"/>
			<path d="M337.7,519.1l-5.8-23l-6.3,1.6l-1.9-7.5l21.1-5.3l1.9,7.5l-6.3,1.6l5.8,23L337.7,519.1z"/>
			<path d="M369.6,509.3l-7.3-8.6l-2,0.7l3.6,10l-7.6,2.8l-10.8-29.6l10.3-3.7c3.3-1.2,6.2-1.3,8.7-0.3c2.5,1,4.2,3,5.3,6.1
				c0.6,1.6,0.8,3.2,0.6,4.8c-0.2,1.6-0.8,3.1-1.7,4.5l9.5,10.4L369.6,509.3z M360.1,494.2c1.1-0.4,1.8-1,2.1-1.8
				c0.3-0.8,0.3-1.8-0.1-2.9c-0.4-1.1-1-1.8-1.7-2.2c-0.8-0.4-1.7-0.4-2.7,0l-2.3,0.8l2.5,6.8L360.1,494.2z"/>
			<path d="M380.7,469.9l7.8-3.8l8.7,17.6c1.8,3.7,2.4,7,1.5,9.8c-0.8,2.8-2.9,5.1-6.3,6.8c-3.4,1.7-6.5,2-9.2,0.9
				c-2.7-1.1-5-3.4-6.9-7.2l-8.7-17.6l7.8-3.8l9,18.2c0.7,1.3,1.3,2.2,2.1,2.6c0.7,0.4,1.6,0.4,2.5-0.1c0.9-0.5,1.5-1.1,1.6-1.9
				c0.1-0.8-0.1-1.9-0.8-3.2L380.7,469.9z"/>
			<path d="M420.2,468.2c2.2,3.7,3,7.1,2.5,10.2s-2.3,5.6-5.3,7.6c-3.4,2.2-6.7,2.7-10,1.5c-3.3-1.2-6.3-4.1-9.2-8.5
				c-2.9-4.6-4.3-8.7-4-12.2c0.3-3.6,2.1-6.5,5.5-8.7c2.7-1.8,5.5-2.3,8.4-1.6c2.8,0.7,5.5,2.7,8.1,5.8l-6.7,5.4
				c-1.3-1.6-2.4-2.7-3.2-3.1c-0.9-0.5-1.7-0.4-2.4,0.1c-1.1,0.7-1.5,1.7-1.2,3.1c0.3,1.4,1.3,3.4,2.9,6c1.7,2.6,3.2,4.4,4.4,5.2
				c1.2,0.8,2.4,0.9,3.5,0.2c0.8-0.5,1.2-1.3,1.2-2.3c0-1-0.5-2.4-1.5-4.1L420.2,468.2z"/>
			<path d="M433.6,473.6L418.8,455l-5.1,4.1l-4.8-6.1l17-13.5l4.8,6.1l-5.1,4.1l14.8,18.6L433.6,473.6z"/>
			<path d="M436.7,429l6.2-6l13.7,14c2.9,3,4.4,5.9,4.5,8.9c0.1,2.9-1.2,5.7-3.9,8.4c-2.7,2.7-5.5,3.9-8.5,3.7
				c-2.9-0.2-5.9-1.7-8.8-4.7l-13.7-14l6.2-6l14.2,14.5c1,1.1,1.9,1.7,2.8,1.8c0.8,0.2,1.6-0.1,2.4-0.9s1.1-1.5,0.9-2.3
				c-0.1-0.8-0.7-1.7-1.7-2.8L436.7,429z"/>
			<path d="M477.8,430.2l-10.7-3.7l-1.4,1.7l8.2,6.7l-5.2,6.3l-24.4-20l7-8.5c2.2-2.7,4.7-4.3,7.3-4.7c2.6-0.4,5.2,0.5,7.7,2.5
				c1.3,1.1,2.3,2.4,2.9,3.8c0.6,1.5,0.9,3,0.8,4.7l13.4,4.1L477.8,430.2z M462,422c0.7-0.9,1-1.8,0.9-2.6c-0.1-0.9-0.6-1.7-1.5-2.4
				c-0.9-0.7-1.8-1.1-2.6-1c-0.9,0.1-1.6,0.5-2.3,1.4l-1.5,1.9l5.6,4.6L462,422z"/>
			<path d="M485.9,419.8l-26.3-17.4l10.6-15.9l6.1,4.1l-5.8,8.8l3.9,2.6l5.5-8.2l6.1,4.1l-5.5,8.2l4.1,2.7l6.2-9.4l5.7,4.6
				L485.9,419.8z"/>
		</g>
		<polygon points="69.9,352.6 73.4,363.5 84.8,363.5 75.6,370.2 79.1,381 69.9,374.3 60.7,381 64.2,370.2 55,363.5 66.4,363.5 		"/>
		<polygon points="489.3,352.6 492.8,363.5 504.2,363.5 495,370.2 498.5,381 489.3,374.3 480.1,381 483.6,370.2 474.4,363.5 
			485.8,363.5 		"/>
	</g>
	<g>
		<g transform="matrix(0.26458333,0,0,0.26458333,-33.403463,56.772625)">
			<g>
				<path fill="#FFD90F" d="M1183.5,1365.2c-50.2,0-91.1,40.8-91.1,91.1s40.8,91.1,91.1,91.1c50.2,0,91.1-40.8,91.1-91.1
					S1233.7,1365.2,1183.5,1365.2z M1183.5,1374.3c45.3,0,82,36.7,82,82s-36.7,82-82,82c-45.3,0-82-36.7-82-82
					S1138.2,1374.3,1183.5,1374.3z"/>
				<path fill="#FFD90F" d="M1183.5,1548.3c-50.7,0-92-41.3-92-92c0-50.7,41.3-92,92-92c50.7,0,92,41.3,92,92
					C1275.5,1507,1234.2,1548.3,1183.5,1548.3z M1183.5,1366.2c-49.7,0-90.1,40.4-90.1,90.1c0,49.7,40.4,90.1,90.1,90.1
					c49.7,0,90.1-40.4,90.1-90.1C1273.6,1406.6,1233.2,1366.2,1183.5,1366.2z M1183.5,1539.2c-45.7,0-82.9-37.2-82.9-82.9
					c0-45.7,37.2-82.9,82.9-82.9s82.9,37.2,82.9,82.9C1266.4,1502,1229.2,1539.2,1183.5,1539.2z M1183.5,1375.3
					c-44.7,0-81,36.3-81,81c0,44.7,36.3,81,81,81c44.7,0,81-36.3,81-81C1264.5,1411.6,1228.2,1375.3,1183.5,1375.3z"/>
			</g>
		</g>
		<g>
			<path fill="#FFD90F" d="M273.9,452.8h2.5v3.1c0,0.8,0.6,1.4,1.4,1.4s1.4-0.6,1.4-1.4v-3.1h0.9v3.1c0,0.8,0.6,1.4,1.4,1.4
				s1.4-0.6,1.4-1.4v-3.1h0.4c3.2,0,5.8-2.6,5.8-5.8v-0.5c0-2.3-1.3-4.2-3.2-5.2c1.1-1.1,1.8-2.5,1.8-4.2c0-2.8-2-5.2-4.8-5.7v-3.3
				c0-0.8-0.6-1.4-1.4-1.4s-1.4,0.6-1.4,1.4v3.1h-0.9v-3.1c0-0.8-0.6-1.4-1.4-1.4s-1.4,0.6-1.4,1.4v3.1h-2.5c-0.8,0-1.4,0.6-1.4,1.4
				v8.8c0,0.1,0,0.2,0,0.2c0,0.1,0,0.2,0,0.2v9.3C272.6,452.2,273.2,452.8,273.9,452.8z M275.3,434.2h6.5c1.7,0,3,1.4,3,3
				s-1.4,3-3,3h-6.5V434.2z M275.3,443.5h7.8c1.7,0,3,1.4,3,3v0.5c0,1.7-1.4,3-3,3h-7.8V443.5z"/>
			<path fill="#FFD90F" d="M281.4,457.6c-0.9,0-1.6-0.7-1.6-1.6v-2.9h-0.4v2.9c0,0.9-0.7,1.6-1.6,1.6c-0.9,0-1.6-0.7-1.6-1.6v-2.9
				h-2.3c-0.9,0-1.6-0.8-1.6-1.8v-18.6c0-0.9,0.7-1.6,1.6-1.6h2.3v-2.9c0-0.9,0.7-1.6,1.6-1.6c0.9,0,1.6,0.7,1.6,1.6v2.9h0.4v-2.9
				c0-0.9,0.7-1.6,1.6-1.6s1.6,0.7,1.6,1.6v3.1c2.8,0.6,4.8,3.1,4.8,5.9c0,1.6-0.6,3-1.7,4.1c1.9,1.1,3,3,3,5.2v0.5c0,3.3-2.7,6-6,6
				h-0.1v2.9C283.1,456.8,282.3,457.6,281.4,457.6z M278.9,452.6h1.4v3.4c0,0.6,0.5,1.1,1.1,1.1s1.1-0.5,1.1-1.1v-3.4h0.6
				c3,0,5.5-2.5,5.5-5.5v-0.5c0-2.1-1.1-3.9-3.1-4.9l-0.3-0.2l0.3-0.2c1.1-1.1,1.7-2.4,1.7-4c0-2.6-1.9-4.9-4.6-5.4l-0.2,0v-3.5
				c0-0.6-0.5-1.1-1.1-1.1s-1.1,0.5-1.1,1.1v3.4h-1.4v-3.4c0-0.6-0.5-1.1-1.1-1.1c-0.6,0-1.1,0.5-1.1,1.1v3.4h-2.8
				c-0.6,0-1.1,0.5-1.1,1.1v18.6c0,0.7,0.5,1.3,1.1,1.3h2.8v3.4c0,0.6,0.5,1.1,1.1,1.1c0.6,0,1.1-0.5,1.1-1.1V452.6z M283.1,450.3
				H275v-7.1h8.1c1.8,0,3.3,1.5,3.3,3.3v0.5C286.4,448.9,284.9,450.3,283.1,450.3z M275.5,449.8h7.6c1.5,0,2.8-1.2,2.8-2.8v-0.5
				c0-1.5-1.2-2.8-2.8-2.8h-7.6V449.8z M281.8,440.6H275V434h6.8c1.8,0,3.3,1.5,3.3,3.3S283.6,440.6,281.8,440.6z M275.5,440.1h6.3
				c1.5,0,2.8-1.2,2.8-2.8s-1.2-2.8-2.8-2.8h-6.3V440.1z"/>
		</g>
	</g>
</g>
</svg>
