<?xml version="1.0" encoding="utf-8"?>
<!-- Generator: Adobe Illustrator 23.1.0, SVG Export Plug-In . SVG Version: 6.00 Build 0)  -->
<svg version="1.1" id="Layer_1" xmlns="http://www.w3.org/2000/svg" xmlns:xlink="http://www.w3.org/1999/xlink" x="0px" y="0px"
	 viewBox="0 0 100 102" style="enable-background:new 0 0 100 102;" xml:space="preserve">
<title>112all</title>
<polygon class="expired_icon" points="43.9,44.2 26.5,44.2 26.5,48.2 47.9,48.2 47.9,18.2 43.9,18.2 "/>
<path  class="expired_icon" d="M86.4,53.6C91,30.9,76.3,8.8,53.6,4.3S8.8,14.4,4.3,37.1s10.1,44.8,32.8,49.3c5.4,1.1,11,1.1,16.5,0
	c7.5,10.6,22.2,13.2,32.8,5.7s13.2-22.2,5.7-32.8C90.6,57.1,88.6,55.2,86.4,53.6z M45.4,83.3c-20.9,0-37.9-16.9-37.9-37.8
	S24.5,7.6,45.4,7.6s37.9,16.9,37.9,37.8c0,0,0,0,0,0c0,2-0.2,4-0.5,6C71,46,57,51.1,51.5,62.9c-2.9,6.3-2.9,13.6,0,19.9
	C49.5,83.1,47.4,83.3,45.4,83.3L45.4,83.3z M72.9,92.4c-10.8,0-19.6-8.7-19.6-19.5c0-10.8,8.7-19.6,19.5-19.6S92.4,62,92.4,72.8
	c0,0,0,0,0,0C92.4,83.7,83.7,92.4,72.9,92.4L72.9,92.4z"/>
<rect class="expired_icon" x="70.8" y="60" width="4" height="18.8"/>
<rect class="expired_icon" x="70.8" y="82" width="4" height="4.8"/>
</svg>
