<?xml version="1.0" encoding="utf-8"?>
<!-- Generator: Adobe Illustrator 19.0.0, SVG Export Plug-In . SVG Version: 6.00 Build 0)  -->
<svg version="1.1" id="Layer_1" xmlns="http://www.w3.org/2000/svg" xmlns:xlink="http://www.w3.org/1999/xlink" x="0px" y="0px"
	 viewBox="0 0 107 107" style="enable-background:new 0 0 107 107;" xml:space="preserve">
<path class="features-pro-trade-icons" id="XMLID_783_" d="M84,15.3L84,15.3c-2.4-3.2-6.9-3.9-10.2-1.6L58.4,25c-3.2,2.4-3.9,6.9-1.5,10.2c0.1,0.2,0.3,0.4,0.4,0.5
	c2.6,2.8,6.9,3.2,9.9,0.9l1.1-0.8C64.5,55.4,47.8,70.4,28,71.4c-1.9,0.1-3.7,0.1-5.6-0.1c-4-0.5-7.6,2.3-8.2,6.3
	c-0.5,4,2.3,7.6,6.3,8.2c0.2,0,0.5,0.1,0.7,0.1C22.8,86,24.4,86,26,86c1,0,1.9,0,2.9-0.1c26.4-1.3,48.9-21.6,53.9-47.9l0.9,1.3
	c2.5,3.2,7,3.7,10.2,1.3c3-2.4,3.7-6.7,1.5-9.9L84,15.3z M91.8,38.2c-1.7,1.3-4.2,0.9-5.5-0.8c0,0,0,0,0,0l-3.3-4.5
	c-0.5-0.7-1.6-0.9-2.3-0.4c-0.4,0.3-0.6,0.7-0.7,1.2c-3.2,26.6-25.2,47.7-51.3,49c-2.4,0.1-4.8,0.1-7.1-0.1
	c-1.1-0.1-2.2-0.7-2.9-1.6c-0.7-0.9-0.9-2-0.7-3.1c0.4-1.8,2-3.2,3.9-3.1h0.3c2,0.2,4,0.2,6.1,0.1c22.7-1.1,41.6-19.4,44-42.5
	c0.1-0.9-0.6-1.7-1.5-1.8c-0.4,0-0.8,0.1-1.1,0.3L65.2,34c-1.6,1.3-4,1.1-5.4-0.4c-1.5-1.6-1.3-4.1,0.3-5.6c0.1-0.1,0.2-0.2,0.3-0.2
	l15.4-11.3c1.7-1.3,4.2-0.9,5.5,0.8l11.4,15.4C93.9,34.4,93.5,36.9,91.8,38.2C91.8,38.1,91.8,38.2,91.8,38.2L91.8,38.2z"/>
</svg>
