<?xml version="1.0" encoding="utf-8"?>
<!-- Generator: Adobe Illustrator 19.0.0, SVG Export Plug-In . SVG Version: 6.00 Build 0)  -->
<svg version="1.1" id="Layer_1" xmlns="http://www.w3.org/2000/svg" xmlns:xlink="http://www.w3.org/1999/xlink" x="0px" y="0px"
	 viewBox="-426 227 107 107" style="enable-background:new -426 227 107 107;" xml:space="preserve">
<g id="XMLID_746_">
	<path class="features-payment" id="XMLID_765_" d="M-344.6,245.5H-400c-6.9,0-12.6,5.6-12.6,12.6c0,6.1,4.4,11.2,10.2,12.3v-3.6c-3.9-1-6.8-4.6-6.8-8.8
		c0-5,4.1-9.1,9.1-9.1h55.5c5,0,9.1,4.1,9.1,9.1c0,4.2-2.9,7.7-6.8,8.8v3.6c5.8-1.1,10.2-6.2,10.2-12.3
		C-332,251.2-337.6,245.5-344.6,245.5z"/>
	<path class="features-payment" id="XMLID_747_" d="M-400.1,255.2v3v54.4c0,1.9,1.5,3.4,3.4,3.4h48.8c1.9,0,3.4-1.5,3.4-3.4v-54.4v-3.1v-0.4h-55.7V255.2z
		 M-355.4,258.2h7.5l0,54.4h-7.5V258.2z M-396.7,258.2h29.7v54.4h-29.7V258.2z"/>
</g>
</svg>
