<?xml version="1.0" encoding="utf-8"?>
<!-- Generator: Adobe Illustrator 19.0.0, SVG Export Plug-In . SVG Version: 6.00 Build 0)  -->
<svg version="1.1" id="Layer_1" xmlns="http://www.w3.org/2000/svg" xmlns:xlink="http://www.w3.org/1999/xlink" x="0px" y="0px"
	 viewBox="0 0 107 107" style="enable-background:new 0 0 107 107;" xml:space="preserve">
<g id="XMLID_244_">
	<path id="XMLID_247_" class="features-support-0" d="M55.2,12.6c-23.7,0-42.8,19.1-42.8,42.8l0,0c-0.1,2.2,1.7,4,3.8,4c1.9,0.1,3.5-1.2,3.9-3
		c0.4-1.5,1-2.8,1.9-4.1c2.3-2.3,5.9-2.3,8.1-0.1c1.1,1.1,1.8,2.7,1.8,4.2c0,2.2,1.8,3.9,3.9,3.9c2.2,0,3.9-1.8,3.9-3.9
		c0-0.2,0-0.3,0-0.5v-0.2c0.2-1.3,0.8-2.5,1.7-3.3c2.3-2.3,6-2.2,8.1,0.1c1,1.1,1.6,2.5,1.7,3.9v29.4c0,0.8-0.7,1.5-1.5,1.5
		c-0.8,0-1.5-0.7-1.5-1.5v-3.9h-7.9v3.9c0,5.1,4.2,9.3,9.3,9.3s9.3-4.2,9.3-9.3V56.4c-0.2-3.2,2.3-6,5.5-6.1c3.2-0.1,6,2.3,6.1,5.5
		V56c0,0.2,0,0.3,0,0.5c0,2.2,1.8,3.9,3.9,3.9s3.9-1.8,3.9-3.9c0-3.2,2.6-5.8,5.7-5.9c1.6,0,3,0.6,4.2,1.8c0.9,1.3,1.5,2.7,1.9,4.1
		c0.5,2.2,2.6,3.4,4.7,2.9c1.9-0.4,3.1-2.1,3-3.9C98.1,31.8,78.9,12.7,55.2,12.6C55.3,12.6,55.2,12.6,55.2,12.6z M26,42.7
		c-1.3,0-2.5,0.2-3.6,0.5c3-8,8.9-14.7,16.5-18.7c-3.3,6.2-5.4,13-6.3,19.9C30.6,43.3,28.3,42.7,26,42.7z M45.5,42.7
		c-1.7,0-3.2,0.3-4.8,0.9c1.9-10.9,6.1-18.8,10.6-21.8V44C49.5,43.1,47.4,42.7,45.5,42.7z M64.9,42.7c-2,0-4,0.4-5.8,1.3V21.8
		c4.5,2.9,8.7,10.9,10.6,21.8C68.1,43,66.6,42.7,64.9,42.7z M84.3,42.7c-2.3,0-4.5,0.6-6.6,1.7c-0.9-7-2.9-13.7-6.3-19.9
		c7.6,4,13.4,10.7,16.5,18.7C86.8,42.9,85.6,42.7,84.3,42.7z"/>
</g>
<g id="XMLID_240_">
	<path id="XMLID_349_" class="features-support-1" d="M55.2,12.6c-23.7,0-42.8,19.1-42.8,42.8l0,0c-0.1,2.2,1.7,4,3.8,4c1.9,0.1,3.5-1.2,3.9-3
		c0.4-1.5,1-2.8,1.9-4.1c2.3-2.3,5.9-2.3,8.1-0.1c1.1,1.1,1.8,2.7,1.8,4.2c0,2.2,1.8,3.9,3.9,3.9c2.2,0,3.9-1.8,3.9-3.9
		c0-0.2,0-0.3,0-0.5v-0.2c0.2-1.3,0.8-2.5,1.7-3.3c2.3-2.3,6-2.2,8.1,0.1c1,1.1,1.6,2.5,1.7,3.9v29.4c0,0.8-0.7,1.5-1.5,1.5
		c-0.8,0-1.5-0.7-1.5-1.5v-3.9h-7.9v3.9c0,5.1,4.2,9.3,9.3,9.3s9.3-4.2,9.3-9.3V56.4c-0.2-3.2,2.3-6,5.5-6.1c3.2-0.1,6,2.3,6.1,5.5
		V56c0,0.2,0,0.3,0,0.5c0,2.2,1.8,3.9,3.9,3.9s3.9-1.8,3.9-3.9c0-3.2,2.6-5.8,5.7-5.9c1.6,0,3,0.6,4.2,1.8c0.9,1.3,1.5,2.7,1.9,4.1
		c0.5,2.2,2.6,3.4,4.7,2.9c1.9-0.4,3.1-2.1,3-3.9C98.1,31.8,78.9,12.7,55.2,12.6C55.3,12.6,55.2,12.6,55.2,12.6z M26,42.7
		c-1.3,0-2.5,0.2-3.6,0.5c3-8,8.9-14.7,16.5-18.7c-3.3,6.2-5.4,13-6.3,19.9C30.6,43.3,28.3,42.7,26,42.7z M45.5,42.7
		c-1.7,0-3.2,0.3-4.8,0.9c1.9-10.9,6.1-18.8,10.6-21.8V44C49.5,43.1,47.4,42.7,45.5,42.7z M64.9,42.7c-2,0-4,0.4-5.8,1.3V21.8
		c4.5,2.9,8.7,10.9,10.6,21.8C68.1,43,66.6,42.7,64.9,42.7z M84.3,42.7c-2.3,0-4.5,0.6-6.6,1.7c-0.9-7-2.9-13.7-6.3-19.9
		c7.6,4,13.4,10.7,16.5,18.7C86.8,42.9,85.6,42.7,84.3,42.7z"/>
</g>
</svg>
