<?xml version="1.0" encoding="utf-8"?>
<!-- Generator: Adobe Illustrator 19.0.0, SVG Export Plug-In . SVG Version: 6.00 Build 0)  -->
<svg version="1.1" id="Layer_1" xmlns="http://www.w3.org/2000/svg" xmlns:xlink="http://www.w3.org/1999/xlink" x="0px" y="0px"
	 viewBox="0 0 107 107" style="enable-background:new 0 0 107 107;" xml:space="preserve">
<g class="features-data" id="XMLID_79_">
	<path id="XMLID_770_" d="M86.3,83.6V22.4c0-7.2-5.8-13-13-13H45.1c-0.1,0-0.3,0-0.4,0c0,0-0.1,0-0.2,0.1l-0.2,0.1
		c-0.1,0-0.1,0.1-0.2,0.1L44,9.8c-0.1,0.1-0.2,0.1-0.2,0.2L21.2,32.5c-0.1,0.1-0.1,0.2-0.2,0.2c0,0-0.1,0.1-0.1,0.1
		c0,0-0.1,0.1-0.1,0.1c0,0.1-0.1,0.3-0.1,0.4c0,0,0,0.1,0,0.1c0,0.1,0,0.2,0,0.4v49.7c0,7.2,5.8,13,13,13l39.7,0
		C80.5,96.6,86.3,90.8,86.3,83.6z M43.2,16.1v12.3c0,2-1.6,3.6-3.6,3.6H27.2L43.2,16.1z M82.5,83.6c0,5-4.1,9.1-9.1,9.1H33.6
		c-5,0-9.1-4.1-9.1-9.1V35.8h15c4.1,0,7.5-3.4,7.5-7.5v-15h26.3c5,0,9.1,4.1,9.1,9.1V83.6z"/>
	<path id="XMLID_769_" d="M37.6,70.5c-1.3,0-2.4,1.1-2.4,2.4v4c0,1.3,1.1,2.4,2.4,2.4c1.3,0,2.4-1.1,2.4-2.4v-4
		C39.9,71.5,38.9,70.5,37.6,70.5z"/>
	<path id="XMLID_768_" d="M53.5,62.2c-1.3,0-2.4,1.1-2.4,2.4v12.3c0,1.3,1.1,2.4,2.4,2.4c1.3,0,2.4-1.1,2.4-2.4V64.6
		C55.8,63.3,54.8,62.2,53.5,62.2z"/>
	<path id="XMLID_767_" d="M69.4,59c-1.3,0-2.4,1.1-2.4,2.4v15.5c0,1.3,1.1,2.4,2.4,2.4c1.3,0,2.4-1.1,2.4-2.4V61.4
		C71.8,60.1,70.7,59,69.4,59z"/>
	<path id="XMLID_766_" d="M71.3,53c1.3,0,2.4-1.1,2.4-2.4V40.2c0-1.3-1.1-2.4-2.4-2.4H60.9c-1.3,0-2.4,1.1-2.4,2.4
		c0,1.3,1.1,2.4,2.4,2.4h4.9L61.2,47l-2.5-2.5c-0.9-0.9-2.4-0.9-3.3-0.1l-7.7,7.2l-3.1-3c-0.9-0.9-2.2-0.9-3.1-0.2L33.5,55l2.9,3.7
		l6.4-5.2l3.2,3.2c0.9,0.9,2.3,0.9,3.3,0l7.7-7.3l2.6,2.6c0.9,0.9,2.4,0.9,3.3,0l6.1-6.1v4.8C69,52,70,53,71.3,53z"/>
</g>
</svg>
