<?xml version="1.0" encoding="utf-8"?>
<!-- Generator: Adobe Illustrator 19.0.0, SVG Export Plug-In . SVG Version: 6.00 Build 0)  -->
<svg version="1.1" id="Layer_1" xmlns="http://www.w3.org/2000/svg" xmlns:xlink="http://www.w3.org/1999/xlink" x="0px" y="0px"
	 viewBox="0 0 107 107" style="enable-background:new 0 0 107 107;" xml:space="preserve">
<path class="features-lock" id="XMLID_792_" d="M55.7,64.9c0-1.2-1-2.2-2.2-2.2s-2.2,1-2.2,2.2v6c0,1.2,1,2.2,2.2,2.2s2.2-1,2.2-2.2V64.9z"/>
<path class="features-lock" id="XMLID_787_" d="M53.5,12.7c-10.3,0-18.7,8.4-18.7,18.7v12.3l-0.3,0.2c-11.5,10.4-12.3,28.2-1.9,39.7
	c10.4,11.5,28.2,12.3,39.7,1.9c11.5-10.4,12.3-28.2,1.9-39.7c-0.6-0.7-1.2-1.3-1.9-1.9l-0.3-0.2V31.4C72.1,21.1,63.8,12.7,53.5,12.7
	z M39.3,31.4c0-7.8,6.4-14.2,14.2-14.2s14.2,6.4,14.2,14.2v9l-1.1-0.6c-8.2-4.3-18-4.3-26.2,0l-1.1,0.6V31.4z M77.2,64.7
	c0,13.1-10.6,23.7-23.7,23.7c-13.1,0-23.7-10.6-23.7-23.7S40.4,41,53.5,41C66.6,41,77.2,51.7,77.2,64.7z"/>
</svg>
