<?xml version="1.0" encoding="utf-8"?>
<!-- Generator: Adobe Illustrator 19.0.0, SVG Export Plug-In . SVG Version: 6.00 Build 0)  -->
<svg version="1.1" id="Layer_1" xmlns="http://www.w3.org/2000/svg" xmlns:xlink="http://www.w3.org/1999/xlink" x="0px" y="0px"
	 viewBox="0 0 107 107" style="enable-background:new 0 0 107 107;" xml:space="preserve">
<g class="features-legal" id="XMLID_79_" transform="translate(0,-1020.3622)">
	<path id="XMLID_745_" d="M21.5,1037.4c-3.3,0-6,2.7-6,6v4.7c0,0.7,0.6,1.3,1.3,1.3h8c0,0,0,35.3,0,52.9c0,3.3,2.7,6,6,6h10.7
		c1.8,0,1.8-2.7,0-2.7H30.9c-1.9,0-3.4-1.5-3.4-3.4c0-17.6,0-52.9,0-52.9h42.9c0.7,0,1.3-0.6,1.3-1.3v-4.6c0-1.6,1.6-3.4,3.3-3.4h0
		c1.9,0,3.4,1.5,3.4,3.4v59c0,1.2,0.4,2.4,1.1,3.4H64.4c-1.8,0-1.8,2.7,0,2.7h20.5c1.8-0.1,3.3-0.8,4.3-1.9c1-1.1,1.4-2.6,1.4-4.2
		v-6c0-0.7-0.6-1.3-1.3-1.3h-4.7c-1.8,0-1.8,2.7,0,2.7h3.4v4.7v0c0,1-0.3,1.8-0.7,2.4c-0.5,0.5-1.1,0.9-2.3,0.9
		c-2.1,0-3.7-1.7-3.7-3.3v0v-59c0-3.3-2.7-6-6-6c-3.4,0-5.9,2.9-6,6v0v3.4H18.1v-3.4c0-1.9,1.5-3.4,3.4-3.4c15,0,44.9,0,44.9,0
		c1.8,0,1.8-2.7,0-2.7C66.4,1037.4,36.5,1037.4,21.5,1037.4z"/>
	<path id="XMLID_89_" d="M52.9,1077.6c-7,0-12.7,5.7-12.7,12.7c0,4,1.9,7.6,4.8,9.9v16.3c0,1,1.1,1.7,2,1.2l6-3.6l6,3.6
		c0.9,0.5,2-0.1,2-1.2V1100c2.8-2.3,4.6-5.8,4.6-9.7C65.6,1083.3,59.9,1077.6,52.9,1077.6z M51.5,1080.4v3.4
		c-2.8,0.4-4.7,2.9-5.2,5.2h-3.4C43.5,1084.5,47,1081,51.5,1080.4z M54.2,1080.4c4.5,0.6,8,4.1,8.6,8.6h-3.4
		c-0.5-2.6-2.6-4.7-5.2-5.2V1080.4z M52.9,1086.3c2.2,0,4,1.8,4,4c0,2.2-1.8,4-4,4c-2.2,0-4-1.8-4-4
		C48.8,1088.1,50.6,1086.3,52.9,1086.3z M42.9,1091.6h3.4v0c0.5,2.6,2.6,4.7,5.2,5.2v3.4C47,1099.6,43.5,1096.1,42.9,1091.6z
		 M59.4,1091.6h3.4c-0.6,4.5-4.1,8-8.6,8.6v-3.4h0C56.8,1096.3,58.9,1094.2,59.4,1091.6L59.4,1091.6z M58.4,1101.7v12.4l-4.2-2.5
		v-8.8C55.7,1102.7,57.1,1102.3,58.4,1101.7z M47.6,1101.9c1.2,0.5,2.5,0.9,3.9,1v8.9l-3.9,2.3V1101.9z"/>
	<path id="XMLID_88_" d="M36.9,1054.2c-1.8,0-1.8,2.7,0,2.7h10c1.8,0,1.8-2.7,0-2.7H36.9z"/>
	<path id="XMLID_87_" d="M64.9,1054.2c-1.8,0.1-1.7,2.8,0.1,2.7h4c1.8,0,1.8-2.7,0-2.7h-4C65,1054.2,65,1054.2,64.9,1054.2z"/>
	<path id="XMLID_86_" d="M51.7,1054.2c-1.8,0-1.8,2.7,0,2.7h8.7c1.8,0,1.8-2.7,0-2.7H51.7z"/>
	<path id="XMLID_85_" d="M36.9,1059.6c-1.8,0-1.8,2.7,0,2.7H55c1.8,0,1.8-2.7,0-2.7H36.9z"/>
	<path id="XMLID_84_" d="M42.3,1070.3c-1.8,0-1.8,2.7,0,2.7h21.4c1.8,0,1.8-2.7,0-2.7H42.3z"/>
	<path id="XMLID_83_" d="M59.7,1059.6c-1.8,0-1.8,2.7,0,2.7h9.3c1.8,0,1.8-2.7,0-2.7H59.7z"/>
	<path id="XMLID_82_" d="M36.9,1064.9c-1.8,0-1.8,2.7,0,2.7h4c1.8,0,1.8-2.7,0-2.7H36.9z"/>
	<path id="XMLID_81_" d="M57.7,1064.9c-1.8,0-1.8,2.7,0,2.7h11.4c1.8,0,1.8-2.7,0-2.7H57.7z"/>
	<path id="XMLID_80_" d="M45.6,1064.9c-1.8,0-1.8,2.7,0,2.7H53c1.8,0,1.8-2.7,0-2.7H45.6z"/>
</g>
</svg>
