<svg xmlns="http://www.w3.org/2000/svg" width="27" height="27" viewBox="0 0 220.523 175.425"><path class="fill_main-color" d="M187.28,6.455l-19.49,19.49,6.5,6.5,19.508-19.49ZM156.466,39.046a4.594,4.594,0,0,0-.969.125L26.859,71.33a4.6,4.6,0,0,0-3.482,4.451H9.594A4.6,4.6,0,0,0,5,80.375v27.566a4.6,4.6,0,0,0,4.594,4.594H23.377A4.6,4.6,0,0,0,26.859,117l19.49,4.863v13.639a4.6,4.6,0,0,0,3.7,4.5L95.987,149.2a4.595,4.595,0,0,0,5.492-4.5V135.65L155.5,149.163a4.595,4.595,0,0,0,5.707-4.468V123.123a32,32,0,0,0,0-57.912V43.622a4.595,4.595,0,0,0-4.738-4.576ZM215.2,45.363,189.613,55.646l3.427,8.524L218.632,53.9Zm-63.189,4.163v89.3L32.565,108.964V79.389ZM161.2,75.817a22.864,22.864,0,0,1,0,36.646ZM14.188,84.97h9.188v18.377H14.188Zm183.769,4.594v9.188h27.565V89.564Zm-142.421,34.6,36.754,9.188V139.1l-36.754-7.34Zm136.822,1.92-3.607,8.452,25.341,10.84,3.606-8.452Zm-18.072,29.809-6.5,6.5,19.49,19.49,6.515-6.5Z" transform="translate(-5 -6.455)" fill="#fff"/></svg>