<svg xmlns="http://www.w3.org/2000/svg" width="20" height="20" viewBox="0 0 15.851 15.848">
  <g id="Group_1063" data-name="Group 1063" transform="translate(-9646.074 -8623.624)">
    <path class="fill_main-color" id="Path_494" data-name="Path 494" d="M29.457,26.229a3.229,3.229,0,1,0-3.229,3.229A3.229,3.229,0,0,0,29.457,26.229Zm-4.7,0A1.468,1.468,0,1,1,26.229,27.7,1.468,1.468,0,0,1,24.761,26.229Z" transform="translate(9623.074 8600.624)" fill="#fff"/>
    <path class="fill_main-color" id="Path_495" data-name="Path 495" d="M58.229,55a3.229,3.229,0,1,0,3.229,3.229A3.229,3.229,0,0,0,58.229,55Zm0,4.7A1.468,1.468,0,1,1,59.7,58.229,1.468,1.468,0,0,1,58.229,59.7Z" transform="translate(9600.467 8578.015)" fill="#fff"/>
    <path class="fill_main-color" id="Path_496" data-name="Path 496" d="M39.623,23H36.1a.881.881,0,0,0-.881.969.916.916,0,0,0,.93.792h2.521L27.26,36.173a.881.881,0,0,0,0,1.244.9.9,0,0,0,1.244,0L39.916,26.005v2.571a.881.881,0,0,0,.969.881.916.916,0,0,0,.792-.93V25.055A2.055,2.055,0,0,0,39.623,23Z" transform="translate(9620.248 8600.624)" fill="#fff"/>
  </g>
</svg>
