<?xml version="1.0" encoding="utf-8"?>
<!-- Generator: Adobe Illustrator 24.2.3, SVG Export Plug-In . SVG Version: 6.00 Build 0)  -->
<svg version="1.2" baseProfile="tiny" id="Layer_1" xmlns="http://www.w3.org/2000/svg" xmlns:xlink="http://www.w3.org/1999/xlink"
	 x="0px" y="0px" viewBox="0 0 240 240" overflow="visible" xml:space="preserve">
<g id="noun_Bitcoin_Currency_Exchange_1178486" transform="translate(-64.42 -135.647)">
	<g id="Group_1987" transform="translate(129.133 218.919)">
		<g id="Group_1986">
			<path id="Path_1779" fill="#EEEEEE" d="M69.7,58.5c0.1-5.6-1.5-11.1-4.8-15.7c-7.4-10-22-11.7-33.1-7.2
				c-9.3,3.7-15.5,12.7-15.4,22.7c0,4.4,1.6,8.6,3.3,12.6c1.5,3.5,3.4,6.8,5.4,10c0.5,0.8,1,1.6,1.5,2.5c0.2,0.4,0.4,0.7,0.6,1.1
				c0.7,1.3-0.3-1,0.2,0.4c0.3,1,0.6,1.9,0.8,2.9c0.4,1.5,0-1.1,0,0.4c0.1,0.5,0.1,1,0,1.6c0,0.4,0.1,1.3-0.1,1.6c0,0,0.3-1.5,0-0.5
				c-0.1,0.4-0.1,0.7-0.2,1c-0.1,0.6-0.3,1.2-0.5,1.8c-0.1,0.4-0.9,2.2-0.3,0.9c-1.2,2.7-2.8,5.3-4.6,7.6c-2.8,3.5-5.8,6.7-9.1,9.7
				c-4.6,4.4,1.3,11.6,6.7,8.6c0.7-0.4,1.4-0.7,2.1-1c0.8-0.4-1.3,0.5,0.2-0.1c0.5-0.2,1-0.4,1.5-0.5c1-0.4,2-0.7,3-0.9
				c1.1-0.3,2.3-0.6,3.4-0.8c0.4-0.1,0.7-0.1,1.1-0.2c-0.6,0.1-0.5,0.1,0.2,0c0.7,0,1.5-0.1,2.2-0.2h1.7c0.2,0,2.3,0.2,1.4,0.1
				c1.5,0.2,2.9,0.6,4.2,1.1c2.3,0.9,6.1,2.7,9.3,3.2c3.5,0.6,7.1,0.5,10.6-0.2c4.6-0.9,8.9-2.9,12.6-5.9c2.3-1.9,2-5.8,0-7.8
				c-2.2-2.2-5.5-1.9-7.8,0c-0.6,0.5,1.3-0.9,0.2-0.1L65,108c-0.8,0.5-1.6,0.9-2.4,1.3c1.3-0.6-0.6,0.2-0.8,0.3
				c-0.5,0.2-0.9,0.3-1.5,0.4c-0.7,0.2-1.4,0.3-2.1,0.5c-1.2,0.3,0.4,0-0.7,0.1c-2.9,0.3-5.9-0.1-8.7-1.1c-2.9-1.1-5.5-2.6-8.7-3.1
				c-8.8-1.3-17.7,0.4-25.4,4.7c2.2,2.9,4.4,5.8,6.7,8.6c8.2-7.8,18.1-18.2,17.9-30.4c-0.2-4.3-1.4-8.4-3.5-12.1
				c-1.5-2.7-3.2-5.2-4.6-7.9c-0.7-1.3-1.4-2.7-2-4.1c0.4,0.9-0.3-0.8-0.4-1.1c-0.2-0.5-0.4-1.1-0.6-1.7c-0.3-0.8-0.5-1.6-0.6-2.4
				c0-0.3-0.1-0.6-0.2-0.9c0.6,1.4,0.1,1.3,0.1,0.4c0-0.6,0-1.2,0-1.8c0-0.3,0-0.7,0.1-1c0-0.2,0-0.4,0-0.5c0.1-1-0.3,1.4,0,0.4
				c0.2-0.7,0.3-1.5,0.5-2.3l0.4-1.2l0.2-0.6c0.3-0.9-0.4,0.9-0.1,0.3c0.5-0.8,0.9-1.7,1.4-2.5c0.1-0.2,0.3-0.4,0.4-0.5
				c-0.1,0.1-0.8,0.9-0.2,0.3c0.4-0.4,0.7-0.8,1.1-1.2c0.4-0.4,0.8-0.7,1.1-1c0.5-0.5-0.8,0.5-0.2,0.2c0.2-0.1,0.5-0.3,0.7-0.5
				c0.5-0.3,0.9-0.6,1.5-0.9c0.3-0.2,0.7-0.3,1-0.5c0.9-0.5-0.5,0.2,0.2-0.1c2.5-1,5.2-1.5,7.9-1.5c1.4,0,2.8,0,4.2,0.1
				c1.5,0.1-0.7-0.2,0.2,0c0.3,0,0.6,0.1,0.9,0.2c0.6,0.1,1.3,0.3,1.9,0.5c0.5,0.2,1.7,0.7,0.5,0.2c0.5,0.2,0.9,0.4,1.4,0.7
				c0.4,0.2,0.8,0.5,1.2,0.7c0.2,0.1,0.4,0.3,0.6,0.4c-1.2-0.7-0.4-0.3,0,0c0.4,0.4,0.8,0.7,1.2,1.1c0.2,0.2,1.1,1.4,0.6,0.7
				c-0.5-0.8,0.3,0.5,0.4,0.7c0.3,0.4,0.5,0.9,0.7,1.3c0.1,0.2,0.2,0.3,0.3,0.5c0.2,0.4,0,0.7,0.1,0.1c0-0.5-0.2-0.5,0,0
				c0.1,0.2,0.2,0.4,0.2,0.6c0.3,0.8,0.5,1.6,0.7,2.4c0.2,0.6,0.2,1.4,0.4,2c-0.5-1.6-0.1-1.1,0-0.4c0,0.2,0,0.5,0.1,0.7
				c0.1,0.5,0.1,1,0,1.5c0,3,2.5,5.5,5.5,5.5C67.2,64,69.6,61.6,69.7,58.5L69.7,58.5z"/>
		</g>
	</g>
	<g id="Group_1989" transform="translate(127.629 260.591)">
		<g id="Group_1988">
			<path id="Path_1780" fill="#EEEEEE" d="M17.3,44.3h35.4c3-0.1,5.4-2.6,5.3-5.7c-0.1-2.9-2.4-5.2-5.3-5.3H17.3
				c-3,0.1-5.4,2.6-5.3,5.7C12.1,41.9,14.4,44.2,17.3,44.3z"/>
		</g>
	</g>
	<g id="Group_1991" transform="translate(199.693 189.908)">
		<g id="Group_1990">
			<path id="Path_1781" fill="#EEEEEE" d="M82,36C71.9,49.3,61.7,62.7,51.6,76.1c-1.5,1.9-2.9,3.8-4.3,5.7h9.5
				C46.7,68.4,36.6,55,26.5,41.7c-1.5-1.9-2.9-3.8-4.3-5.7c-1.8-2.4-4.8-3.6-7.5-2c-2.3,1.4-3.8,5.1-2,7.5
				C22.8,54.9,32.9,68.3,43,81.6c1.5,1.9,2.9,3.8,4.3,5.7c2.6,3.5,6.8,3.5,9.5,0C67,74,77.1,60.6,87.2,47.3c1.5-1.9,2.9-3.8,4.3-5.7
				c1.8-2.4,0.4-6.2-2-7.5C86.7,32.4,83.8,33.6,82,36L82,36z"/>
		</g>
	</g>
	<g id="Group_1993" transform="translate(234.47 235.617)">
		<g id="Group_1992">
			<path id="Path_1782" fill="#EEEEEE" d="M22.8,82.7V38.8c-0.1-3-2.6-5.4-5.7-5.3c-2.9,0.1-5.2,2.4-5.3,5.3v43.9
				c-0.1,3,2.3,5.6,5.3,5.7c3,0.1,5.6-2.3,5.7-5.3C22.8,82.9,22.8,82.8,22.8,82.7z"/>
		</g>
	</g>
	<g id="Group_1995" transform="translate(213.148 233.496)">
		<g id="Group_1994">
			<path id="Path_1783" fill="#EEEEEE" d="M17.3,44.3H60c3,0.1,5.6-2.3,5.7-5.3c0.1-3-2.3-5.6-5.3-5.7c-0.1,0-0.2,0-0.4,0H17.3
				c-3,0.1-5.4,2.6-5.3,5.7C12.1,41.9,14.4,44.2,17.3,44.3z"/>
		</g>
	</g>
	<g id="Group_1997" transform="translate(213.148 259.883)">
		<g id="Group_1996">
			<path id="Path_1784" fill="#EEEEEE" d="M17.3,44.3H60c3,0.1,5.6-2.3,5.7-5.3c0.1-3-2.3-5.6-5.3-5.7c-0.1,0-0.2,0-0.4,0H17.3
				c-3-0.1-5.6,2.3-5.7,5.3c-0.1,3,2.3,5.6,5.3,5.7C17.1,44.3,17.2,44.3,17.3,44.3z"/>
		</g>
	</g>
	<g id="Group_1999" transform="translate(64.42 148.726)">
		<g id="Group_1998">
			<path id="Path_1785" fill="#EEEEEE" d="M65.9,56.1c0.6-11.6-9.2-20.6-20-22.3c-9.5-1.5-20.8-0.3-27.6,7.2
				c-4.6,5.2-6.9,12-6.3,18.9c0.8,8.2,5.9,15,12.8,19.1c4.8,2.8,10,4,15.4,5.3c1.3,0.3,2.6,0.7,3.9,1.1l1.6,0.6c0.6,0.2,0.1,0,0,0
				c0.4,0.2,0.8,0.4,1.2,0.5c0.9,0.4,1.8,0.9,2.7,1.5c0.4,0.2,0.8,0.5,1.2,0.8c0.1,0.1,0.9,0.7,0.4,0.2c-0.5-0.4,0.2,0.2,0.3,0.3
				c0.6,0.5,1.3,1.1,1.8,1.7c0.3,0.4,0.6,0.7,0.9,1.1c-0.7-0.8-0.2-0.2,0.2,0.3c0.4,0.7,0.8,1.3,1.2,2c0.4,0.7,0.3,0.7,0-0.1
				c0.1,0.4,0.3,0.7,0.4,1.1c0.2,0.7,0.4,1.3,0.5,2c0.3,1.2-0.2-0.2,0-0.3c0,0,0.1,0.9,0.1,1c0,0.6,0,1.2,0,1.8c0,0.3,0,0.6,0,0.9
				c0,0.2,0,0.3,0,0.4c0,0.7-0.4,0.2,0.1-0.4c-0.2,0.6-0.3,1.2-0.4,1.9c-0.2,0.7-0.4,1.5-0.6,2.2c-0.2,0.7-0.3,0.7,0,0
				c-0.2,0.3-0.3,0.6-0.4,0.9c-0.4,0.7-0.8,1.4-1.3,2.1c-0.5,0.8,0.7-0.7,0,0c-0.3,0.3-0.5,0.5-0.7,0.8c-0.3,0.3-0.6,0.6-1,0.9
				c-0.9,0.8,0.5-0.2-0.3,0.2c-0.8,0.5-1.5,0.9-2.4,1.4c-0.2,0.1-0.4,0.2-0.6,0.3c0.1,0,0.9-0.3,0.3-0.1c-0.5,0.2-1.1,0.4-1.6,0.5
				c-0.6,0.2-1.1,0.3-1.7,0.4c-0.4,0.1-0.8,0.1-1.1,0.2c0.3,0-1,0.1-1.3,0.1c-0.7,0-1.4,0.1-2.2,0.1c-1.3,0-2.6,0-3.9-0.1
				c-0.3,0-1.6-0.2-1.1-0.1c0.6,0.1-0.2,0-0.3,0c-0.4-0.1-0.8-0.2-1.2-0.2c-0.9-0.2-1.8-0.4-2.6-0.7c-0.3-0.1-1.7-0.7-0.4-0.1
				c-0.4-0.2-0.8-0.4-1.2-0.6c-0.7-0.4-1.3-0.7-1.9-1.1c-1.1-0.7,0.6,0.5-0.1-0.1c-0.3-0.3-0.6-0.5-0.8-0.7
				c-0.2-0.2-0.4-0.4-0.6-0.7c-0.1-0.1-0.2-0.2-0.3-0.4c-0.7-0.7,0.4,0.4,0.3,0.4c-0.2,0-0.9-1.3-1-1.5c-0.2-0.3-0.8-1.1-0.8-1.5
				c0,0.3,0.5,1.3,0.2,0.4c-0.1-0.3-0.2-0.5-0.3-0.8c-0.3-0.9-0.3-1.8-0.6-2.7c0,0.2,0.2,1.6,0.1,0.8c0-0.2,0-0.3,0-0.4
				c0-0.3,0-0.5,0-0.8v-0.7c0.2-3-2.7-5.5-5.5-5.5c-3,0-5.5,2.5-5.5,5.5c-0.1,3.6,0.7,7.2,2.4,10.4c3.3,6.7,10.4,10.7,17.6,11.9
				c9.5,1.5,20.7,0.5,27.6-7c4.6-5.1,6.9-11.9,6.4-18.8c-0.7-8.2-5.6-14.9-12.5-19.1c-4.7-2.9-9.9-4.2-15.2-5.4
				c-1.3-0.3-2.7-0.7-4-1.1c-0.6-0.2-1.1-0.4-1.7-0.6c-0.3-0.1-0.6-0.2-0.8-0.3c0.7,0.3-0.2-0.1-0.4-0.2c-0.9-0.4-1.8-0.9-2.7-1.5
				c-0.4-0.2-0.8-0.5-1.2-0.8c-0.3-0.2-0.5-0.3-0.7-0.5c-0.7-0.5,0.7,0.5,0,0c-0.6-0.5-1.3-1.1-1.9-1.7c-0.3-0.4-0.6-0.7-0.9-1
				c-0.6-0.7,0.5,0.8-0.2-0.2c-0.4-0.6-0.8-1.3-1.2-2c-0.2-0.3-0.3-0.6-0.5-0.9c0.5,0.9,0.2,0.6,0-0.1c-0.2-0.7-0.4-1.3-0.6-2
				c0-0.1-0.2-0.9-0.2-0.9c-0.1,0,0.1,1.5,0,0.2c0-0.7-0.4-3.4,0.2-3.9c-0.3,0.3-0.2,1.3,0,0.2c0.1-0.3,0.1-0.6,0.2-0.9
				c0.2-0.7,0.4-1.5,0.6-2.2l0.4-0.9c-0.3,0.8-0.3,0.7,0,0c0.4-0.7,0.8-1.4,1.3-2.1c0.5-0.8-0.7,0.7,0,0c0.2-0.3,0.5-0.5,0.7-0.8
				c0.3-0.3,0.6-0.6,1-0.9c0.9-0.8-0.5,0.2,0.3-0.2c0.8-0.5,1.5-1,2.4-1.4c0.2-0.1,0.4-0.2,0.6-0.3c-0.1,0-0.9,0.3-0.2,0.1
				c0.6-0.2,1.1-0.4,1.6-0.5c2.1-0.7,4.2-1,6.4-0.9c1.3,0,2.6,0,3.8,0.1c0.2,0,1.6,0.2,1.1,0.1c-0.6-0.1,0.2,0,0.3,0
				c0.4,0.1,0.8,0.2,1.2,0.2c0.9,0.2,1.8,0.4,2.6,0.7c0.3,0.1,1.7,0.7,0.4,0.1c0.4,0.2,0.8,0.4,1.2,0.6c0.6,0.4,1.3,0.7,1.8,1.1
				c1.1,0.7-0.6-0.5,0.1,0.1c0.3,0.3,0.6,0.5,0.8,0.7c0.2,0.2,0.4,0.4,0.6,0.7c0.1,0.1,0.2,0.2,0.3,0.4c0.7,0.7-0.4-0.4-0.3-0.4
				c0.3,0,0.9,1.3,1,1.5c0.2,0.3,0.8,1.2,0.8,1.5c0-0.3-0.5-1.3-0.2-0.4c0.1,0.3,0.2,0.5,0.3,0.8c0.3,0.9,0.4,1.8,0.6,2.7
				c0,0.2-0.1-1.6-0.1-0.4c0,0.3,0,0.5,0,0.9v0.7c0,3.1,2.5,5.5,5.6,5.5C63.4,61.6,65.8,59.2,65.9,56.1L65.9,56.1z"/>
		</g>
	</g>
	<g id="Group_2001" transform="translate(86.712 135.647)">
		<g id="Group_2000">
			<path id="Path_1786" fill="#EEEEEE" d="M22.8,51.9V38.8c0.1-3-2.3-5.6-5.3-5.7c-3-0.1-5.6,2.3-5.7,5.3c0,0.1,0,0.2,0,0.4v13.1
				c0.1,3,2.6,5.4,5.7,5.3C20.4,57.1,22.7,54.8,22.8,51.9L22.8,51.9z"/>
		</g>
	</g>
	<g id="Group_2003" transform="translate(86.712 228.352)">
		<g id="Group_2002">
			<path id="Path_1787" fill="#EEEEEE" d="M22.8,51.7V38.8c0.1-3-2.3-5.6-5.3-5.7c-3-0.1-5.6,2.3-5.7,5.3c0,0.1,0,0.2,0,0.4v12.9
				c-0.1,3,2.3,5.6,5.3,5.7c3,0.1,5.6-2.3,5.7-5.3C22.8,51.9,22.8,51.8,22.8,51.7L22.8,51.7z"/>
		</g>
	</g>
</g>
</svg>
