<?xml version="1.0" encoding="utf-8"?>
<!-- Generator: Adobe Illustrator 25.4.0, SVG Export Plug-In . SVG Version: 6.00 Build 0)  -->
<svg version="1.2" baseProfile="tiny" id="Layer_1" xmlns="http://www.w3.org/2000/svg" xmlns:xlink="http://www.w3.org/1999/xlink"
	 x="0px" y="0px" viewBox="0 0 50 50" overflow="visible" xml:space="preserve">
<g id="Group_2601" transform="translate(-1007.909 -500.212)">
	<path class="fiat-kyc" id="Path_2313" fill="#FFFFFF" d="M1050.3,535.2c-2.8-4.8-7.4-8.2-12.8-9.5c3.6-2.6,4.5-7.6,1.9-11.2
		c-2.6-3.6-7.6-4.5-11.2-1.9c-3.6,2.6-4.5,7.6-1.9,11.2c0.5,0.7,1.2,1.4,1.9,1.9c-5.4,1.2-10,4.7-12.8,9.5
		c-5.5-9.6-2.2-21.9,7.4-27.4c6.9-4,15.6-3.5,22,1.3h-3.1v4h10v-10h-4v3.2c-10.4-8.3-25.6-6.5-33.9,3.9s-6.5,25.6,3.9,33.9
		c10.4,8.3,25.6,6.5,33.9-3.9c3.4-4.3,5.2-9.6,5.2-15h-4C1053,528.7,1052.1,532.1,1050.3,535.2z M1032.9,515.1c2.2,0,4,1.8,4,4
		c0,2.2-1.8,4-4,4c-2.2,0-4-1.8-4-4l0,0C1028.9,516.9,1030.7,515.1,1032.9,515.1z M1018.7,539.4c-0.2-0.2-0.3-0.4-0.5-0.6
		c2.5-5.8,8.2-9.6,14.5-9.6h0.4c6.3,0,12,3.8,14.5,9.6c-0.2,0.2-0.3,0.4-0.5,0.6C1039.3,547.2,1026.6,547.2,1018.7,539.4
		L1018.7,539.4z"/>
</g>
</svg>
