<?xml version="1.0" encoding="UTF-8" standalone="no"?>
<!DOCTYPE svg PUBLIC "-//W3C//DTD SVG 1.1//EN"
"http://www.w3.org/Graphics/SVG/1.1/DTD/svg11.dtd">


<!-- Page 4 -->
<svg x="0" y="0" width="280" height="280" viewBox="0 0 280 280" version="1.1" xmlns="http://www.w3.org/2000/svg" xmlns:xlink="http://www.w3.org/1999/xlink"
style="display: block;margin-left: auto;margin-right: auto;">
<defs>

<style type="text/css"><![CDATA[

.deposit-wallet-01{
fill: none;
stroke: #1F1F1E;
stroke-width: 8.795417;
stroke-linecap: round;
stroke-linejoin: round;
stroke-miterlimit: 4;
}
.deposit-wallet-02{
fill: #00A54F;
}


]]></style>

</defs>
<path d="M46.3,141.4c12.2,0,22,5.9,22,13.2c0,7.3,-9.8,13.2,-22,13.2c-12.1,0,-22,-5.9,-22,-13.2c0,-7.3,9.9,-13.2,22,-13.2Z" class="deposit-wallet-01" />
<path d="M107.9,115.1c12.1,0,22,5.9,22,13.1c0,7.3,-9.9,13.2,-22,13.2c-12.2,0,-22,-5.9,-22,-13.2c0,-7.2,9.8,-13.1,22,-13.1Z" class="deposit-wallet-01" />
<path d="M169.5,88.7c12.1,0,21.9,5.9,21.9,13.2c0,7.2,-9.8,13.2,-21.9,13.2c-12.2,0,-22,-6,-22,-13.2c0,-7.3,9.8,-13.2,22,-13.2Z" class="deposit-wallet-01" />
<path d="M68.3,154.6l0,26.4c0,7.3,-9.8,13.2,-22,13.2c-12.1,0,-22,-5.9,-22,-13.2l0,-26.4c0,7.3,9.9,13.2,22,13.2c12.2,0,22,-5.9,22,-13.2Z" class="deposit-wallet-02" />
<path d="M68.3,154.6l0,26.4c0,7.3,-9.8,13.2,-22,13.2c-12.1,0,-22,-5.9,-22,-13.2l0,-26.4c0,7.3,9.9,13.2,22,13.2c12.2,0,22,-5.9,22,-13.2Z" class="deposit-wallet-01" />
<path d="M129.9,154.6l0,26.4c0,7.3,-9.9,13.2,-22,13.2c-12.2,0,-22,-5.9,-22,-13.2l0,-26.4c0,7.3,9.8,13.2,22,13.2c12.1,0,22,-5.9,22,-13.2Z" class="deposit-wallet-02" />
<path d="M129.9,154.6l0,26.4c0,7.3,-9.9,13.2,-22,13.2c-12.2,0,-22,-5.9,-22,-13.2l0,-26.4c0,7.3,9.8,13.2,22,13.2c12.1,0,22,-5.9,22,-13.2Z" class="deposit-wallet-01" />
<path d="M129.9,128.2l0,26.4c0,7.3,-9.9,13.2,-22,13.2c-12.2,0,-22,-5.9,-22,-13.2l0,-26.4c0,7.3,9.8,13.2,22,13.2c12.1,0,22,-5.9,22,-13.2Z" class="deposit-wallet-02" />
<path d="M129.9,128.2l0,26.4c0,7.3,-9.9,13.2,-22,13.2c-12.2,0,-22,-5.9,-22,-13.2l0,-26.4c0,7.3,9.8,13.2,22,13.2c12.1,0,22,-5.9,22,-13.2Z" class="deposit-wallet-01" />
<path d="M191.4,154.6l0,26.4c0,7.3,-9.8,13.2,-21.9,13.2c-12.2,0,-22,-5.9,-22,-13.2l0,-26.4c0,7.3,9.8,13.2,22,13.2c12.1,0,21.9,-5.9,21.9,-13.2Z" class="deposit-wallet-02" />
<path d="M191.4,154.6l0,26.4c0,7.3,-9.8,13.2,-21.9,13.2c-12.2,0,-22,-5.9,-22,-13.2l0,-26.4c0,7.3,9.8,13.2,22,13.2c12.1,0,21.9,-5.9,21.9,-13.2Z" class="deposit-wallet-01" />
<path d="M191.4,128.2l0,26.4c0,7.3,-9.8,13.2,-21.9,13.2c-12.2,0,-22,-5.9,-22,-13.2l0,-26.4c0,7.3,9.8,13.2,22,13.2c12.1,0,21.9,-5.9,21.9,-13.2Z" class="deposit-wallet-02" />
<path d="M191.4,128.2l0,26.4c0,7.3,-9.8,13.2,-21.9,13.2c-12.2,0,-22,-5.9,-22,-13.2l0,-26.4c0,7.3,9.8,13.2,22,13.2c12.1,0,21.9,-5.9,21.9,-13.2Z" class="deposit-wallet-01" />
<path d="M191.4,101.9l0,26.3c0,7.3,-9.8,13.2,-21.9,13.2c-12.2,0,-22,-5.9,-22,-13.2l0,-26.3c0,7.3,9.8,13.2,22,13.2c12.1,0,21.9,-5.9,21.9,-13.2Z" class="deposit-wallet-02" />
<path d="M191.4,101.9l0,26.3c0,7.3,-9.8,13.2,-21.9,13.2c-12.2,0,-22,-5.9,-22,-13.2l0,-26.3c0,7.3,9.8,13.2,22,13.2c12.1,0,21.9,-5.9,21.9,-13.2Z" class="deposit-wallet-01" />
<path d="M253,154.6l0,26.4c0,7.3,-9.8,13.2,-22,13.2c-12.1,0,-22,-5.9,-22,-13.2l0,-26.4c0,7.3,9.9,13.2,22,13.2c12.2,0,22,-5.9,22,-13.2Z" class="deposit-wallet-02" />
<path d="M253,154.6l0,26.4c0,7.3,-9.8,13.2,-22,13.2c-12.1,0,-22,-5.9,-22,-13.2l0,-26.4c0,7.3,9.9,13.2,22,13.2c12.2,0,22,-5.9,22,-13.2Z" class="deposit-wallet-01" />
<path d="M253,128.2l0,26.4c0,7.3,-9.8,13.2,-22,13.2c-12.1,0,-22,-5.9,-22,-13.2l0,-26.4c0,7.3,9.9,13.2,22,13.2c12.2,0,22,-5.9,22,-13.2Z" class="deposit-wallet-02" />
<path d="M253,128.2l0,26.4c0,7.3,-9.8,13.2,-22,13.2c-12.1,0,-22,-5.9,-22,-13.2l0,-26.4c0,7.3,9.9,13.2,22,13.2c12.2,0,22,-5.9,22,-13.2Z" class="deposit-wallet-01" />
<path d="M253,101.9l0,26.3c0,7.3,-9.8,13.2,-22,13.2c-12.1,0,-22,-5.9,-22,-13.2l0,-26.3c0,7.3,9.9,13.2,22,13.2c12.2,0,22,-5.9,22,-13.2Z" class="deposit-wallet-02" />
<path d="M253,101.9l0,26.3c0,7.3,-9.8,13.2,-22,13.2c-12.1,0,-22,-5.9,-22,-13.2l0,-26.3c0,7.3,9.9,13.2,22,13.2c12.2,0,22,-5.9,22,-13.2Z" class="deposit-wallet-01" />
<path d="M253,75.5l0,26.4c0,7.3,-9.8,13.2,-22,13.2c-12.1,0,-22,-5.9,-22,-13.2l0,-26.4c0,7.3,9.9,13.2,22,13.2c12.2,0,22,-5.9,22,-13.2Z" class="deposit-wallet-02" />
<path d="M253,75.5l0,26.4c0,7.3,-9.8,13.2,-22,13.2c-12.1,0,-22,-5.9,-22,-13.2l0,-26.4c0,7.3,9.9,13.2,22,13.2c12.2,0,22,-5.9,22,-13.2Z" class="deposit-wallet-01" />
<path d="M231,62.3c12.2,0,22,5.9,22,13.2c0,7.3,-9.8,13.2,-22,13.2c-12.1,0,-22,-5.9,-22,-13.2c0,-7.3,9.9,-13.2,22,-13.2Z" class="deposit-wallet-01" />

</svg>
