<svg xmlns="http://www.w3.org/2000/svg" width="86.159" height="86.124" viewBox="0 0 86.159 86.124">
  <g id="Group_8" data-name="Group 8" transform="translate(-1025.42 -532.135)">
    <path id="Path_1" data-name="Path 1" d="M1117.121,583.3v7.612s-.147,1.769-.884,2.159a6.742,6.742,0,0,1-2.55.59c-.788.052-10.368,0-10.368,0s-2.314.435-2.557.98a9.653,9.653,0,0,0-.685,2.7v5.8" transform="translate(-56 8)" fill="none" stroke="#fff" stroke-linecap="round" stroke-linejoin="round" stroke-width="3"/>
    <path id="Path_2" data-name="Path 2" d="M1100.076,583.3v7.612s.147,1.769.884,2.159a6.742,6.742,0,0,0,2.55.59c.788.052,10.368,0,10.368,0s2.314.435,2.557.98a9.653,9.653,0,0,1,.685,2.7v5.8" transform="translate(-24 8)" fill="none" stroke="#f90c0c" stroke-linecap="round" stroke-linejoin="round" stroke-width="3"/>
    <path id="Path_3" data-name="Path 3" d="M1144.906,599.641l3.515,2.381,3.693-2.381" transform="translate(-56 8)" fill="none" stroke="#f90c0c" stroke-width="3"/>
    <path id="Path_4" data-name="Path 4" d="M1144.906,599.641l2.485,1.683,2.611-1.683" transform="translate(-102.944 8.349)" fill="none" stroke="#fff" stroke-linecap="round" stroke-linejoin="round" stroke-width="3"/>
    <path id="Path_5" data-name="Path 5" d="M1124.5,580.157v27.752l3.34-2.2-3.34,2.793-3.543-2.793" transform="translate(-56 8)" fill="none" stroke="#8f8f8f" stroke-linecap="round" stroke-linejoin="round" stroke-width="3"/>
    <g id="noun-ways-to-invest-money-3168817" transform="translate(1025.131 370.997)">
      <g id="Group_2" data-name="Group 2" transform="translate(0.488 161.353)">
        <path id="Path_4-2" data-name="Path 4" d="M165.327,193.886a.431.431,0,0,1,.3.806l-14.065,5.291a1.209,1.209,0,0,1-1.336-.274l-11.948-11.4.008,5.105a.845.845,0,0,0,.37.759L150.7,205.717a.736.736,0,0,0,.837.069l15.594-5.872.1-6.273-1.868-1.742-13.112,4.938a1.185,1.185,0,0,1-1.3-.313l-10.571-10.076-2.008.759,12.454,11.879a.445.445,0,0,0,.555.072l13.948-5.272Zm15.651,23.255a.432.432,0,0,1,.864,0v24.674l.116-.088a1.725,1.725,0,0,1,2.078,2.753l-2.855,2.156a1.733,1.733,0,0,1-2.133,0l-2.855-2.156a1.725,1.725,0,0,1,2.078-2.753l.116.088V217.141a.432.432,0,0,1,.864,0v26.406l-1.5-1.132a.862.862,0,0,0-1.039,1.376l2.869,2.166a.86.86,0,0,0,1.067,0l2.869-2.166a.862.862,0,0,0-1.039-1.376l-1.5,1.132V217.141Zm7.34,3a.432.432,0,0,1,.864,0v7.21c0,1.562.608,1.6,1.965,1.6H200.3c3.534,0,5.756,1.608,5.756,5.285v1.633l.031-.023a1.725,1.725,0,0,1,2.078,2.753l-2.855,2.156a1.715,1.715,0,0,1-2.2-.047l-2.793-2.109a1.725,1.725,0,0,1,2.078-2.753l.215.163v-1.8c0-1.7-.955-1.8-2.407-1.8h-8.7c-3.3,0-5.79-1.059-5.79-5.043v-8.357a.432.432,0,0,1,.864,0v8.371c0,3.61,2.267,4.166,5.008,4.166h8.619c2.022,0,3.262.368,3.262,2.689v3.507l-1.6-1.2a.862.862,0,0,0-1.039,1.376l2.723,2.056a.9.9,0,0,0,1.324.025l2.757-2.082a.862.862,0,0,0-1.039-1.376L205.2,237.6v-3.413c0-3.134-1.905-4.4-4.882-4.367l-9.158,0c-1.777,0-2.842-.259-2.842-2.47v-7.205Zm-14.681-1.133a.432.432,0,0,1,.864,0v8.38c0,3.822-2.095,5.02-5.578,5.02h-8.59c-1.56,0-2.724-.144-2.724,1.8v1.73a1.727,1.727,0,1,1,2.2,2.66l-2.855,2.156a1.632,1.632,0,0,1-2.132,0l-2.855-2.156a1.727,1.727,0,1,1,2.2-2.66v-1.881h0c0-4.009,2.763-5.106,6.295-5.106h8.462c1.352.038,2.124-.389,2.124-1.776v-7.036a.432.432,0,0,1,.864,0v7.041c0,1.943-1.1,2.674-3,2.635H160.47c-3.005,0-5.441.714-5.441,4.242h0v2.958c0,.781.1.73-.521.26l-.982-.742a.862.862,0,0,0-1.039,1.376l2.762,2.085a.881.881,0,0,0,1.272.006l2.77-2.092a.862.862,0,0,0-1.039-1.376l-.978.738c-.622.47-.525.529-.525-.247v-2.812c0-2.49,1.447-2.671,3.576-2.671h8.627c2.952,0,4.687-.843,4.687-4.138v-8.4Zm44.426-26.97-4.432,1.584.911.877a.756.756,0,0,1-.247,1.294l-40.1,15.154a1.131,1.131,0,0,1-1.3-.314l-7.138-6.877a.431.431,0,0,1,.6-.621l7.138,6.877a.394.394,0,0,0,.5.089l39.859-15.064L198.3,180.041c-.374-.36-.539-.293-1-.114l-2.124.817a.43.43,0,0,1-.307-.8l2.124-.817a1.512,1.512,0,0,1,1.907.3l11.141,10.733,4.45-1.566-7.669-7.388c-.374-.36-.539-.293-1-.114l-2.124.817a.43.43,0,0,1-.307-.8l2.124-.817a1.512,1.512,0,0,1,1.907.3l15.356,14.792a1.02,1.02,0,0,1-.339,1.723L183.043,211.98a1.434,1.434,0,0,1-1.8-.386l-1.094-1.192a.431.431,0,0,1,.634-.584l1.094,1.192c.3.326.464.315.866.163l39.387-14.886c.149-.056.154-.191.045-.3l-4.107-3.956ZM200.8,196.324a.215.215,0,1,1-.152-.4l5.49-2.075a.215.215,0,1,1,.152.4Zm-8.42,3.1a.215.215,0,1,1-.152-.4l5.49-2.075a.215.215,0,0,1,.152.4Zm-8.42,3.1a.215.215,0,1,1-.152-.4l5.49-2.075a.215.215,0,1,1,.152.4Zm-8.42,3.1a.215.215,0,1,1-.152-.4l5.49-2.075a.215.215,0,0,1,.152.4l-5.49,2.075Zm3.114-34.767c.58,0,1.049.319,1.049.712s-.47.712-1.049.712-1.049-.319-1.049-.712S178.069,170.844,178.649,170.844Zm-24.577,8.887c.58,0,1.049.319,1.049.712s-.47.712-1.049.712-1.049-.319-1.049-.712S153.492,179.731,154.071,179.731Zm19.9,1.7a.215.215,0,0,1,.152.4l-3.974,1.5a.215.215,0,0,1-.152-.4Zm2.426-.968a.215.215,0,0,1,.068.173l-.108,6.2,15.25-5.743c.469-.177.385-.248.385-.763v-5.2l-13.818,5.223a.431.431,0,0,1-.3-.806l14.034-5.3-12.454-11.879a.38.38,0,0,0-.454-.11L163.249,168.2,176.4,180.459Zm-.363.25L162.8,168.372l-7.641,2.888,13.149,12.257a.215.215,0,0,1,.068.173l-.1,6.187L175.925,187Zm-8.091,3.058L154.709,171.43l-15.621,5.9,12.323,11.754a.66.66,0,0,0,.786.159l13.678-5.169a.431.431,0,0,1,.3.806l-13.74,5.193a1.328,1.328,0,0,1-1.543-.291L139,178.441l.008,5.106a.845.845,0,0,0,.37.759L151.542,195.9a.436.436,0,0,0,.531.081l15.773-5.94.1-6.273Zm-16.521,8.178a.216.216,0,0,1,.432,0v1.672a.216.216,0,0,1-.432,0Zm14.385-.217,1.782,1.661a.215.215,0,0,1,.068.173l-.1,6.187,7.647-2.879.109-6.289-1.86-1.733-7.649,2.88Zm8.1-3.05,1.773,1.653a.215.215,0,0,1,.068.173l-.108,6.2,15.033-5.661c.469-.177.6-.33.6-.844V185l-13.76,5.2a.431.431,0,1,1-.3-.806l13.976-5.282-1.459-1.392-15.822,5.958Zm16.717-6.295,1.247,1.189c.334.319.269.672.269,1.087V190.2a1.529,1.529,0,0,1-1.163,1.651L151.822,206.6a1.5,1.5,0,0,1-1.72-.256L138.067,194.8a1.662,1.662,0,0,1-.637-1.383l-.077-5.757c.034-.548.01-1,.58-1.211l1.753-.662-.9-.859a1.545,1.545,0,0,1-.637-1.383l-.009-6.137a.73.73,0,0,1,.512-.831l40.1-15.154a1.256,1.256,0,0,1,1.3.313L192.588,173.7c.328.313.269.634.269,1.038v5.591c0,.86-.08,1.243-.945,1.569l-1.288.485ZM173.254,191.3a.215.215,0,1,1,.152.4l-3.974,1.5a.215.215,0,0,1-.152-.4ZM150.7,201.818a.216.216,0,0,1,.432,0v1.672a.216.216,0,0,1-.432,0Z" transform="translate(-137.353 -161.353)" fill="#fff" stroke="#fff" stroke-width="0.4"/>
      </g>
    </g>
  </g>
</svg>
