<svg xmlns="http://www.w3.org/2000/svg" width="36.2" height="25.5" viewBox="0 0 36.2 25.5">
  <path id="Path_66" data-name="Path 66" d="M43.1,27.6a7.6,7.6,0,0,0-7.6,7.6v3.2a6.4,6.4,0,1,1-12.8,0V32.7H25A2.689,2.689,0,0,0,27.7,30V25.4h1a.7.7,0,1,0,0-1.4H25.8V20.8H24.3V24H19.5V20.8H18V24H15.1a.7.7,0,0,0,0,1.4h1V30a2.689,2.689,0,0,0,2.7,2.7h2.3v5.7a7.9,7.9,0,1,0,15.8,0V35.2a6.1,6.1,0,1,1,12.2,0v4.2h1.5V35.2A7.576,7.576,0,0,0,43.1,27.6ZM17.6,30V25.4h8.7V30a1.216,1.216,0,0,1-1.2,1.2H18.9A1.181,1.181,0,0,1,17.6,30Z" transform="translate(-14.4 -20.8)" fill="#fff"/>
</svg>
