<svg xmlns="http://www.w3.org/2000/svg" width="66" height="66" viewBox="0 0 66 66"><g transform="translate(2380 -7795)"><path d="M37.735,57.866l24.776-32.21H46.975Zm24.6-34.148-9.4-10.66H42.745l4.161,10.66Zm-53.855,0H23.9l4.161-10.66H17.872Zm17.5,0,4.161-10.66H40.671l4.161,10.66Zm18.985,1.937L35.406,58.97,25.848,25.655Zm-21.13,0H8.3l24.776,32.21ZM36.206,63.023a.966.966,0,0,1-1.606-.005L5.607,25.327a.969.969,0,0,1,0-1.28L16.685,11.478a.97.97,0,0,1,.752-.358H53.371a.957.957,0,0,1,.726.329l11.1,12.6,0,0a.967.967,0,0,1,.039,1.228Z" transform="translate(-2381.865 7791.379)" fill-rule="evenodd"/><path d="M0,0H66V66H0Z" transform="translate(-2380 7795)" fill="none"/></g></svg>