<svg xmlns="http://www.w3.org/2000/svg" width="66" height="66" viewBox="0 0 66 66"><g transform="translate(1184 -7795)"><path d="M35.4,5.367A30.036,30.036,0,1,1,5.367,35.4,30.038,30.038,0,0,1,35.4,5.367ZM7.321,34.433H23.288a69.6,69.6,0,0,1,1.262-12.6l-13.759,0a27.963,27.963,0,0,0-3.47,12.595Zm17.907,0H45.579a67.1,67.1,0,0,0-1.3-12.6l-17.755,0a67.045,67.045,0,0,0-1.3,12.595Zm22.292,0H63.487a27.934,27.934,0,0,0-3.47-12.6l-13.761,0A69.532,69.532,0,0,1,47.52,34.433Zm15.967,1.94H47.519a69.815,69.815,0,0,1-1.262,12.6H60.019a28.015,28.015,0,0,0,3.467-12.6Zm-17.907,0H25.228a67.1,67.1,0,0,0,1.3,12.6H44.282a67.1,67.1,0,0,0,1.3-12.6Zm-22.292,0H7.321a27.934,27.934,0,0,0,3.47,12.6H24.552a69.586,69.586,0,0,1-1.264-12.6ZM58.842,50.905H45.835c-1.041,4.382-2.821,9.282-5.626,12.184A28.088,28.088,0,0,0,58.843,50.905Zm-15,0H26.966C31.111,67.653,39.7,67.653,43.842,50.905Zm-18.867,0H11.969A28.1,28.1,0,0,0,30.6,63.089c-2.808-2.9-4.59-7.8-5.628-12.184Zm-13.01-31H24.973C26.014,15.52,27.794,10.62,30.6,7.715A28.1,28.1,0,0,0,11.966,19.9Zm15,0H43.842C39.7,3.154,31.111,3.154,26.966,19.9Zm18.869,0H58.842A28.1,28.1,0,0,0,40.207,7.715c2.808,2.9,4.587,7.805,5.628,12.187Z" transform="translate(-1186.867 7793.133)" fill-rule="evenodd"/><path d="M0,0H66V66H0Z" transform="translate(-1184 7795)" fill="none"/></g></svg>