<svg xmlns="http://www.w3.org/2000/svg" width="66" height="66" viewBox="0 0 66 66"><g transform="translate(3022 -7795)"><path d="M37.782,5.5c4.1,2.277,7.313,7.108,9.356,12.855,5.983-1.1,11.837-.728,15.833,1.688a.963.963,0,0,1,.465.831c.034,4.761-2.453,9.834-6.456,14.529,3.956,4.642,6.551,9.868,6.456,14.556a.973.973,0,0,1-.486.82c-4.082,2.395-9.763,2.792-15.812,1.675-2.045,5.752-5.268,10.6-9.377,12.868a.96.96,0,0,1-.952-.013c-4.143-2.353-7.29-7.04-9.356-12.855-5.98,1.1-11.84.728-15.833-1.688a.963.963,0,0,1-.465-.831C11.121,45.17,13.608,40.1,17.611,35.4c-3.956-4.64-6.551-9.871-6.456-14.556a.97.97,0,0,1,.486-.82c4.082-2.395,9.763-2.792,15.812-1.675,2.04-5.747,5.273-10.607,9.377-12.868a.973.973,0,0,1,.952.013Zm17.9,31.359a49.438,49.438,0,0,1-6.22,5.568,49.191,49.191,0,0,1-1.711,8.17c5.239.931,10.249.657,13.751-1.22-.126-3.977-2.392-8.438-5.82-12.518ZM18.91,33.948a49.438,49.438,0,0,1,6.22-5.568,49.191,49.191,0,0,1,1.711-8.17c-5.247-.928-10.245-.662-13.751,1.22.126,3.983,2.392,8.436,5.82,12.518Zm26.316,18.1a49.273,49.273,0,0,1-7.931-2.6,49.219,49.219,0,0,1-7.934,2.6c1.816,5.008,4.55,9.2,7.931,11.3,3.389-2.1,6.117-6.288,7.934-11.3ZM34.848,48.345a58.069,58.069,0,0,1-7.539-4.353,45.737,45.737,0,0,0,1.435,6.217,45.19,45.19,0,0,0,6.1-1.864Zm-9.716-5.917a49.265,49.265,0,0,1-6.22-5.568c-3.431,4.082-5.694,8.536-5.817,12.518,3.507,1.882,8.5,2.148,13.751,1.22a48.978,48.978,0,0,1-1.714-8.17Zm4.232-23.675a49.292,49.292,0,0,1,7.931,2.605,49.278,49.278,0,0,1,7.931-2.6c-1.814-5.01-4.548-9.2-7.931-11.3-3.386,2.1-6.112,6.285-7.931,11.3Zm10.378,3.707a57.9,57.9,0,0,1,7.539,4.353A45.735,45.735,0,0,0,45.846,20.6a45.956,45.956,0,0,0-6.1,1.864Zm9.716,5.92a49.266,49.266,0,0,1,6.22,5.568c3.431-4.082,5.694-8.536,5.817-12.518-3.5-1.877-8.51-2.15-13.751-1.22a48.978,48.978,0,0,1,1.714,8.17ZM54.393,35.4a45.8,45.8,0,0,0-4.666-4.353,57.952,57.952,0,0,1,0,8.7A45.477,45.477,0,0,0,54.393,35.4Zm-6.759-5.967A55.644,55.644,0,0,0,37.3,23.469,55.832,55.832,0,0,0,26.96,29.437a55.927,55.927,0,0,0,0,11.937A55.8,55.8,0,0,0,37.3,47.343a55.856,55.856,0,0,0,10.339-5.967,56.124,56.124,0,0,0,0-11.94ZM34.848,22.46a45.636,45.636,0,0,0-6.1-1.864,45.731,45.731,0,0,0-1.435,6.217,58.184,58.184,0,0,1,7.537-4.353ZM20.2,35.4a45.8,45.8,0,0,0,4.666,4.353,57.953,57.953,0,0,1,0-8.7A45.478,45.478,0,0,0,20.2,35.4ZM39.742,48.345a45.637,45.637,0,0,0,6.1,1.864,45.731,45.731,0,0,0,1.435-6.217,57.118,57.118,0,0,1-7.537,4.353Z" transform="translate(-3026.653 7793.132)" fill-rule="evenodd"/><path d="M0,0H66V66H0Z" transform="translate(-3022 7795)" fill="none"/></g></svg>