<?xml version="1.0" encoding="utf-8"?>
<!-- Generator: Adobe Illustrator 24.3.0, SVG Export Plug-In . SVG Version: 6.00 Build 0)  -->
<svg version="1.2" baseProfile="tiny" id="Layer_1" xmlns="http://www.w3.org/2000/svg" xmlns:xlink="http://www.w3.org/1999/xlink"
	 x="0px" y="0px" viewBox="0 0 45 45" overflow="visible" xml:space="preserve">
<style type="text/css">
	.freeze-icon{fill:#00EDFF;}
</style>
<path id="Path_2310" class="freeze-icon" d="M41,28.6c-0.1-0.4-0.5-0.7-1-0.5c0,0,0,0,0,0l-3.4,0.9l-3.4-1.8l4.1-2.4
	c0.4-0.2,0.5-0.7,0.3-1c-0.2-0.4-0.7-0.5-1-0.3c0,0,0,0,0,0l-4.9,2.9L24.1,22l7.1-4.8l4.8,2.8c0.1,0.1,0.2,0.1,0.4,0.1
	c0.3,0,0.5-0.1,0.7-0.4c0.2-0.4,0.1-0.8-0.3-1c0,0,0,0,0,0l-4.2-2.4L36,14l3.7,1.1c0.1,0,0.1,0,0.2,0c0.3,0,0.6-0.2,0.8-0.5
	c0.1-0.4-0.1-0.8-0.5-1c0,0,0,0,0,0l-2.4-0.7l2-1.3c0.3-0.3,0.4-0.8,0.1-1.1c-0.2-0.3-0.7-0.4-1-0.2L37,11.5l0.5-2.1
	c0.1-0.4-0.2-0.8-0.6-0.9C36.5,8.3,36.1,8.5,36,9c0,0,0,0,0,0l-0.9,3.8l-3.2,2.1l-0.3-4.7c0-0.4-0.4-0.8-0.8-0.7
	c-0.4,0-0.8,0.4-0.7,0.8c0,0,0,0,0,0.1l0.3,5.6l-7.1,4.7v-9.4l4.9-3.1c0.4-0.2,0.5-0.7,0.2-1s-0.7-0.5-1-0.3l-4.1,2.5V6.1l2.9-2.6
	c0.3-0.3,0.3-0.8,0-1.1c-0.3-0.3-0.8-0.3-1.1,0L23.4,4V2.9c0-0.4-0.3-0.8-0.8-0.8c-0.4,0-0.8,0.3-0.8,0.8V4l-1.8-1.6
	c-0.3-0.3-0.8-0.3-1.1,0c0,0,0,0,0,0c-0.3,0.3-0.3,0.8,0,1.1l2.9,2.6v3.3l-4.3-2.6c-0.4-0.2-0.8-0.1-1,0.3c-0.2,0.3-0.1,0.8,0.2,1
	l5.1,3v9.6l-6.7-3.7l0.4-5.5c0-0.4-0.3-0.8-0.7-0.8S14.1,11,14,11.4l0,0l-0.3,4.8l-3.8-2.1l-1.2-3.6c-0.1-0.4-0.6-0.6-1-0.5
	c-0.4,0.1-0.6,0.6-0.5,1l0,0L7.9,13l-1.6-0.9c-0.4-0.2-0.8-0.1-1,0.3c-0.2,0.4-0.1,0.8,0.3,1l1.6,0.9L4.5,15
	c-0.4,0.1-0.6,0.5-0.6,0.8c0,0,0,0.1,0,0.1c0.1,0.3,0.4,0.6,0.8,0.6h0.2l4.2-1l3.7,2.1l-4,2.5c-0.4,0.2-0.5,0.7-0.2,1.1
	c0.1,0.2,0.4,0.4,0.7,0.4c0.1,0,0.3,0,0.4-0.1l4.8-2.9l6.7,3.7l-5.9,3.9L10,23.4c-0.4-0.2-0.9,0-1,0.4c-0.2,0.4,0,0.8,0.3,1l4.5,2.2
	l-4.1,2.7L5.5,29C5,29,4.6,29.2,4.6,29.6c-0.1,0.4,0.2,0.8,0.6,0.9c0,0,0,0,0,0L7.8,31L6,32.2c-0.4,0.2-0.5,0.7-0.2,1.1
	c0.1,0.2,0.4,0.3,0.6,0.3c0.1,0,0.3,0,0.4-0.1l1.6-1.1L7.7,35c-0.1,0.4,0.1,0.8,0.5,1c0,0,0,0,0,0c0.1,0,0.1,0,0.2,0
	c0.3,0,0.6-0.2,0.8-0.5l1.3-4.4l3.9-2.6l-0.4,5c0,0.4,0.3,0.8,0.7,0.8h0c0.4,0,0.7-0.3,0.8-0.7c0,0,0,0,0,0l0.5-6.2l5.8-3.9v8.8
	l-5.1,2.6c-0.4,0.2-0.5,0.7-0.3,1.1s0.7,0.5,1.1,0.3l0,0l4.4-2.2v3.8l-3.2,3.7c-0.3,0.3-0.2,0.8,0.1,1.1s0.8,0.2,1.1-0.1l2.1-2.4
	v2.2c0,0.4,0.3,0.8,0.8,0.8c0.4,0,0.8-0.3,0.8-0.8v-2.1l1.9,2.3c0.2,0.2,0.4,0.2,0.6,0.3c0.2,0,0.4-0.1,0.5-0.2
	c0.3-0.3,0.4-0.7,0.1-1.1c0,0,0,0,0,0l-3.1-3.7v-3.7l4.1,2.1c0.1,0,0.2,0.1,0.3,0.1c0.3,0,0.5-0.2,0.7-0.4c0.2-0.4,0-0.9-0.3-1
	c0,0,0,0,0,0l-4.8-2.4v-9.1l7.5,4.2l-0.3,5.6c0,0.4,0.3,0.8,0.7,0.8c0,0,0,0,0,0h0c0.4,0,0.8-0.3,0.8-0.8c0,0,0,0,0,0l0.2-4.9
	l3.4,1.9l1,4.1c0.1,0.3,0.4,0.6,0.8,0.6c0.1,0,0.1,0,0.2,0c0.4-0.1,0.6-0.5,0.5-0.9c0,0,0,0,0,0l-0.6-2.6l1.6,0.9
	c0.1,0.1,0.2,0.1,0.4,0.1c0.4,0,0.8-0.3,0.8-0.7c0-0.3-0.1-0.5-0.4-0.7L38.6,30l1.9-0.5C40.8,29.4,41.1,29,41,28.6
	C41,28.6,41,28.6,41,28.6"/>
</svg>
