<svg xmlns="http://www.w3.org/2000/svg" width="65.173" height="73.639" viewBox="0 0 65.173 73.639">
  <path id="Path_4"  class="fill_main-color" data-name="Path 4" d="M37.921,12.463a4.463,4.463,0,1,1,8.926,0v5.061l1.984-1.984a3.347,3.347,0,1,1,4.734,4.734l-6.312,6.312a3.362,3.362,0,0,1-.406.347V36.972l9.2-5.311,2.31-8.622a3.347,3.347,0,0,1,6.466,1.733l-.578,2.156L68.275,24.6a4.463,4.463,0,0,1,4.463,7.73l-4.383,2.53,2.71.726a3.347,3.347,0,1,1-1.733,6.466l-8.622-2.31a3.366,3.366,0,0,1-.5-.179l-8.7,5.021,9.2,5.311,8.622-2.31a3.347,3.347,0,1,1,1.733,6.466l-2.155.577,4.031,2.327a4.463,4.463,0,0,1-4.463,7.73L64.1,62.156l.726,2.71A3.347,3.347,0,1,1,58.356,66.6l-2.31-8.622a3.377,3.377,0,0,1-.1-.525l-9.1-5.255V63.576a3.362,3.362,0,0,1,.406.347l6.312,6.312a3.347,3.347,0,1,1-4.734,4.734l-1.984-1.984v4.192a4.463,4.463,0,0,1-8.926,0V73.39l-1.578,1.578a3.347,3.347,0,0,1-4.734-4.734l6.312-6.312V52.432l-9.447,5.454a3.373,3.373,0,0,1-.1.525l-2.31,8.622A3.347,3.347,0,0,1,19.6,65.3l.726-2.71-3.631,2.1a4.463,4.463,0,0,1-4.463-7.73l3.279-1.893-2.155-.578a3.347,3.347,0,0,1,1.733-6.466l8.622,2.31,9.951-5.745L24.213,39.13q-.116.052-.238.1t-.265.083l-8.622,2.31a3.347,3.347,0,1,1-1.733-6.466l2.71-.726-3.631-2.1A4.463,4.463,0,0,1,16.9,24.6l3.279,1.893L19.6,24.338a3.347,3.347,0,0,1,6.466-1.733l2.31,8.622,9.544,5.511V26.585l-6.312-6.312a3.347,3.347,0,0,1,4.734-4.734l1.578,1.578Z" transform="translate(-10 -8)" fill="#fff" fill-rule="evenodd"/>
</svg>
