<?xml version="1.0" encoding="UTF-8" standalone="no"?>
<!DOCTYPE svg PUBLIC "-//W3C//DTD SVG 1.1//EN"
"http://www.w3.org/Graphics/SVG/1.1/DTD/svg11.dtd">


<!-- Page 4 -->
<svg x="0" y="0" width="152" height="152" viewBox="0 0 152 152" version="1.1" xmlns="http://www.w3.org/2000/svg" xmlns:xlink="http://www.w3.org/1999/xlink"
style="display: block;margin-left: auto;margin-right: auto;">
<path d="M41.1,117.4c1.8,-3.1,1.3,-7,-1,-9.6c-1.7,-2,-3.2,-4.2,-4.4,-6.3c-1.3,-2.2,-2.6,-4.6,-3.4,-7C31,91.1,27.7,89,24.2,89l-6.9,0.1c-0.5,0,-1.2,-0.2,-1.6,-0.6C15.2,88,15,87.4,14.9,86.9L14.8,69.4c0,-1.3,1,-2.3,2.3,-2.3L24,67c3.4,0,6.7,-2.3,8,-5.6C33.7,56.5,36.3,52,39.5,47.9c2.2,-2.7,2.6,-6.8,0.8,-9.8L36.8,32.2c-0.7,-1.1,-0.4,-2.4,0.7,-3l15,-8.9c1.1,-0.7,2.4,-0.4,3.1,0.7l3.5,6c1.8,3,5.3,4.7,9,4c5.1,-0.9,10.2,-1,15.4,-0.2c3.4,0.5,7,-1.2,8.8,-4.3l3.3,-6.1c0.7,-1.1,2.1,-1.5,3.2,-0.9L114,28c0.6,0.2,0.9,0.8,1.1,1.4c0.1,0.6,0.1,1.2,-0.3,1.8l-3.3,6c-1.9,3.1,-1.4,7,0.9,9.7c1.7,1.9,3.2,4,4.5,6.3c1.4,2.3,2.5,4.5,3.4,6.9c1.3,3.5,4.6,5.5,8,5.5l6.9,-0.1c0.6,0.1,1.3,0.2,1.7,0.7c0.5,0.4,0.7,1.1,0.8,1.6l0,17.5c0,1.3,-1.1,2.3,-2.3,2.3l-6.9,0.1c-3.5,0,-6.7,2.3,-8,5.6c-1.7,4.9,-4.3,9.4,-7.6,13.5c-2.3,2.8,-2.6,6.7,-0.7,9.8l3.5,5.9c0.6,1.1,0.3,2.4,-0.8,3l-15,9c-1.1,0.6,-2.4,0.3,-3,-0.8l-3.5,-6c-1.9,-3.1,-5.4,-4.6,-9,-4c-5.2,0.9,-10.2,1,-15.4,0.2c-2,-0.2,-4,0.2,-5.7,1.2c-1.3,0.8,-2.4,1.8,-3.1,3.2l-3.3,5.9c-0.6,1.1,-2,1.6,-3.1,0.9L38.5,126.7c-0.5,-0.3,-0.8,-0.8,-1,-1.5c-0.2,-0.6,-0.1,-1.1,0.2,-1.7Zm-5.4,-3l-3.4,6.1c-1.2,2,-1.4,4.3,-0.7,6.4c0.6,2.3,2,4,4,5.2l15.2,8.5c4.2,2.3,9.3,0.8,11.7,-3.3l3.3,-6c0.5,-0.8,1.5,-1.2,2.3,-1.2c5.8,1,11.6,0.8,17.4,-0.1c1,-0.2,2,0.3,2.5,1.1l3.6,5.9c2.4,4.1,7.5,5.4,11.6,3l15,-8.9c4.1,-2.4,5.4,-7.6,3,-11.7l-3.6,-5.9c-0.4,-0.8,-0.3,-1.8,0.3,-2.7c3.7,-4.6,6.5,-9.7,8.5,-15.3c0.3,-0.9,1.1,-1.4,2,-1.4L135.3,94c4.8,0,8.5,-3.9,8.4,-8.6L143.6,67.9c-0.1,-2.3,-1,-4.4,-2.6,-6c-1.7,-1.5,-3.9,-2.4,-6.1,-2.4L128,59.6c-0.9,0,-1.8,-0.6,-2.1,-1.5c-1,-2.7,-2.3,-5.4,-3.8,-7.8c-1.4,-2.5,-3.2,-4.9,-5,-7.1c-0.7,-0.7,-0.7,-1.8,-0.3,-2.6l3.4,-6c1.2,-2,1.4,-4.3,0.7,-6.5c-0.6,-2.2,-2.1,-4.1,-4,-5.1L101.6,14.5C97.5,12.2,92.3,13.6,90,17.7l-3.3,6.1c-0.5,0.8,-1.5,1.2,-2.3,1.1C78.6,24,72.8,24.1,66.9,25.1C66,25.3,64.9,24.8,64.4,24L60.9,18C58.5,14,53.3,12.7,49.3,15.1L34.3,24c-4.1,2.4,-5.4,7.6,-3,11.6l3.5,6c0.5,0.8,0.4,1.8,-0.2,2.7C30.9,48.8,28.1,54,26.1,59.6C25.8,60.5,25,61,24,61L17,60.8c-4.7,0,-8.5,3.9,-8.4,8.6L8.7,86.9c0.1,2.3,1,4.4,2.6,6c1.7,1.5,3.9,2.4,6.1,2.4l6.9,-0.1c0.9,0,1.8,0.6,2.1,1.5c1.1,2.8,2.4,5.5,3.8,8c1.5,2.4,3.3,4.8,5.1,7c0.7,0.9,0.8,1.9,0.4,2.7Z" class="gear-grey-1" />
<path d="M65,58.4c10.4,-6.2,24,-2.7,30.2,7.7c6.1,10.4,2.7,24,-7.7,30.2C77.1,102.5,63.5,99,57.3,88.6C51.1,78.2,54.6,64.6,65,58.4m25.7,43.3c13.4,-8,17.8,-25.4,9.9,-38.8C92.6,49.5,75.1,45.1,61.8,53C48.4,61,43.9,78.4,51.9,91.8c7.9,13.4,25.4,17.9,38.8,9.9Z" class="gear-grey-1" />

</svg>
