<?xml version="1.0" encoding="utf-8"?>
<!-- Generator: Adobe Illustrator 24.3.0, SVG Export Plug-In . SVG Version: 6.00 Build 0)  -->
<svg version="1.2" baseProfile="tiny" id="Layer_1" xmlns="http://www.w3.org/2000/svg" xmlns:xlink="http://www.w3.org/1999/xlink"
	 x="0px" y="0px" viewBox="0 0 100 100" overflow="visible" xml:space="preserve">
<ellipse id="Ellipse_649" transform="matrix(0.866 -0.5 0.5 0.866 -21.1673 33.0026)" cx="51" cy="56" rx="14.5" ry="24.5"/>
<ellipse id="Ellipse_655" transform="matrix(0.866 -0.5 0.5 0.866 -16.1053 15.4571)" cx="20.8" cy="37.8" rx="3" ry="6"/>
<ellipse id="Ellipse_656" transform="matrix(0.866 -0.5 0.5 0.866 -27.4617 27.0744)" cx="36.8" cy="64.8" rx="3" ry="6"/>
<g id="Group_3481" transform="translate(-390.8 -368.803)">
	<path id="Path_4241" fill="#FFFFFF" stroke="#FFFFFF" stroke-width="0.4" d="M431.7,435.1l-0.1-0.6c0,0,0,0,0,0c0,0,0,0,0,0
		l-0.1-0.7c0,0,0,0,0,0c0,0,0,0,0,0l-0.2-0.6c0,0,0,0,0,0c0,0,0,0,0,0l-0.2-0.6c0,0,0,0,0,0c0,0,0,0,0,0l-0.3-0.6c0,0,0,0,0,0
		c0,0,0,0,0,0l-0.4-0.6l-0.4-0.6c0,0,0,0,0,0c0,0,0,0,0,0l-0.4-0.5c0,0,0,0,0,0c0,0,0,0,0,0l-0.5-0.5c0,0,0,0,0,0c0,0,0,0,0,0
		l-0.5-0.4l0,0l-0.5-0.4c0,0,0,0,0,0c0,0,0,0,0,0l-0.5-0.3c0,0,0,0,0,0c0,0,0,0,0,0l-0.5-0.2c0,0,0,0,0,0c0,0,0,0,0,0l-0.5-0.2
		c0,0,0,0,0,0c0,0,0,0,0,0l-0.5-0.1c0,0,0,0,0,0c0,0,0,0,0,0l-0.4-0.1l0,0h0c0,0-0.1,0-0.1,0c0,0,0,0-0.1,0h0h0l-0.4,0.1l-0.4,0.1
		l0,0h0c0,0,0,0-0.1,0c0,0-0.1,0-0.1,0l0,0l0,0l-0.3,0.2c0,0,0,0,0,0c0,0,0,0,0,0l-0.3,0.2c0,0,0,0,0,0c0,0,0,0,0,0l-0.3,0.4
		c0,0,0,0,0,0c0,0,0,0,0,0l-0.2,0.3c0,0,0,0,0,0c0,0,0,0,0,0l-0.2,0.5c0,0,0,0,0,0c0,0,0,0,0,0l-0.1,0.5c0,0,0,0,0,0s0,0,0,0l0,0.5
		c0,0,0,0,0,0c0,0,0,0,0,0v0.6c0,0,0,0,0,0c0,0,0,0,0,0l0.1,0.6c0,0,0,0,0,0c0,0,0,0,0,0l0.1,0.6l0,0l0.1,0.7c0,0,0,0,0,0
		c0,0,0,0,0,0l0.2,0.6l0,0c0,0,0,0,0,0l0.3,0.6c0,0,0,0,0,0c0,0,0,0,0,0l0.4,0.6c0,0,0,0,0,0c0,0,0,0,0,0l0.4,0.5l0,0c0,0,0,0,0,0
		l0.4,0.6c0,0,0,0,0,0c0,0,0,0,0,0l0.4,0.5c0,0,0,0,0,0s0,0,0,0l0.5,0.5c0,0,0,0,0,0c0,0,0,0,0,0l0.5,0.4c0,0,0,0,0,0c0,0,0,0,0,0
		l0.5,0.4c0,0,0,0,0,0c0,0,0,0,0,0l0.5,0.2c0,0,0,0,0,0c0,0,0,0,0,0l0.5,0.2c0,0,0,0,0,0c0,0,0,0,0,0l0.5,0.1c0,0,0.1,0,0.1,0h0.9
		c0.1,0,0.1,0,0.2,0l0.4-0.1c0,0,0,0,0,0h0l0.4-0.1c0,0,0.1,0,0.1-0.1c0,0,0,0,0,0l0.3-0.2c0,0,0,0,0.1-0.1c0,0,0,0,0,0l0.2-0.4v0
		l0,0l0.3-0.4c0,0,0,0,0-0.1c0,0,0,0,0,0l0.1-0.4c0,0,0,0,0,0c0,0,0,0,0,0l0.1-0.5c0,0,0,0,0,0s0,0,0,0l0-0.5v0c0,0,0,0,0,0
		L431.7,435.1C431.7,435.2,431.7,435.2,431.7,435.1C431.7,435.2,431.7,435.1,431.7,435.1z M428.3,437.9l-0.5-0.2l-0.4-0.2l-0.5-0.3
		l-0.4-0.4l-0.5-0.4l-0.4-0.4l-0.4-0.6l-0.3-0.5l-0.3-0.6l-0.3-0.6l-0.2-0.6l-0.1-0.6l0,0l0,0l-0.1-0.6l-0.1-0.5v-0.5l0-0.5l0.1-0.4
		l0.1-0.4l0.2-0.3l0.2-0.3l0.2-0.2l0.2-0.1l0.3-0.1l0.3-0.1l0.3,0.1l0.4,0.1l0.5,0.2l0.4,0.2l0.5,0.3l0.5,0.4l0,0l0.4,0.4l0.4,0.5
		l0.4,0.5l0.3,0.6l0.3,0.6l0.3,0.6l0.2,0.6l0.2,0.6l0.1,0.6l0.1,0.6v0.5l0,0.5l-0.1,0.5l-0.1,0.3l-0.2,0.3l-0.2,0.3l-0.2,0.2
		l-0.3,0.1l-0.3,0.1h-0.7L428.3,437.9z"/>
	<path id="Path_4242" fill="#FFFFFF" stroke="#FFFFFF" stroke-width="0.4" d="M407,405C407,405,407,405,407,405
		C407,405,407,405,407,405l0.1,0.6c0,0,0,0,0,0c0,0,0,0,0,0l0.1,0.6c0,0,0,0,0,0v0l0.2,0.7c0,0,0,0,0,0c0,0,0,0,0,0.1l0.3,0.6l0,0
		c0,0,0,0,0,0l0.3,0.6c0,0,0,0,0,0c0,0,0,0,0,0l0.4,0.6l0.4,0.6c0,0,0,0,0,0c0,0,0,0,0,0l0.4,0.5l0.4,0.5c0,0,0,0,0,0s0,0,0,0
		l0.5,0.4l0,0l0.5,0.4c0,0,0,0,0,0c0,0,0,0,0,0l0.5,0.3h0c0,0,0,0,0,0l0.5,0.3c0,0,0,0,0,0s0,0,0,0l0.5,0.2c0,0,0,0,0.1,0
		c0,0,0,0,0,0l0.5,0.1l0.5,0.1c0,0,0,0,0.1,0l0,0c0,0,0,0,0.1,0l0.4-0.1c0,0,0,0,0,0c0,0,0,0,0,0l0.4-0.1c0,0,0,0,0,0s0,0,0,0
		l0.4-0.2c0,0,0,0,0,0c0,0,0,0,0,0l0.3-0.2c0,0,0,0,0.1-0.1c0,0,0,0,0,0l0.2-0.3c0,0,0,0,0,0c0,0,0,0,0,0l0.2-0.4c0,0,0,0,0,0
		c0,0,0,0,0-0.1l0.1-0.5l0,0l0,0l0.1-0.5c0,0,0,0,0,0s0,0,0,0l0-0.5c0,0,0,0,0,0c0,0,0,0,0,0v-0.5c0,0,0,0,0,0c0,0,0,0,0,0l-0.1-0.6
		l0,0l-0.1-0.6c0,0,0,0,0,0c0,0,0,0,0,0l-0.2-0.6l0,0l0,0l-0.2-0.7c0,0,0,0,0,0c0,0,0,0,0,0l-0.3-0.6c0,0,0,0,0,0c0,0,0,0,0,0
		l-0.3-0.6c0,0,0,0,0,0c0,0,0,0,0,0l-0.4-0.5l-0.4-0.6c0,0,0,0,0,0c0,0,0,0,0,0l-0.5-0.5l-0.5-0.5c0,0,0,0,0,0c0,0,0,0,0,0l-0.5-0.4
		c0,0,0,0,0,0c0,0,0,0,0,0l-0.5-0.3c0,0,0,0,0,0c0,0,0,0,0,0l-0.5-0.2l-0.5-0.2c0,0,0,0,0,0c0,0,0,0,0,0l-0.5-0.1c0,0,0,0-0.1,0
		c0,0,0,0,0,0h-0.8c0,0,0,0-0.1,0c0,0,0,0-0.1,0l-0.4,0.1c0,0,0,0-0.1,0c0,0,0,0-0.1,0l-0.4,0.2c0,0,0,0,0,0c0,0,0,0,0,0l-0.3,0.3
		c0,0,0,0,0,0c0,0,0,0,0,0l-0.3,0.3c0,0,0,0,0,0.1c0,0,0,0,0,0.1l-0.2,0.4l-0.2,0.4c0,0,0,0,0,0c0,0,0,0,0,0l-0.1,0.5c0,0,0,0,0,0
		c0,0,0,0,0,0l0,0.5c0,0,0,0,0,0c0,0,0,0,0,0L407,405z M413.4,404.6l0.4,0.5l0.3,0.6l0.3,0.6l0.2,0.6l0.2,0.6l0.1,0.6l0,0l0.1,0.6
		v0.5l0,0.5l-0.1,0.5l-0.1,0.4l-0.2,0.3l-0.2,0.2l-0.2,0.2l-0.3,0.2l-0.3,0.1l-0.3,0.1l-0.4-0.1l-0.4-0.1l-0.4-0.1l-0.5-0.3
		l-0.5-0.3l-0.4-0.4l0,0l-0.5-0.4l-0.4-0.5l-0.4-0.5l-0.3-0.6l-0.3-0.6l-0.3-0.5l-0.3-0.6l-0.2-0.6l0,0l-0.1-0.6l-0.1-0.6l0-0.6
		l0-0.5l0.1-0.4l0.2-0.3l0.1-0.3l0.2-0.3l0.2-0.2l0.3-0.2l0.3-0.1h0.7l0.4,0.1l0.5,0.2l0.5,0.2l0.4,0.3l0.4,0.4l0.4,0.4l0.4,0.4
		L413.4,404.6L413.4,404.6C413.4,404.6,413.4,404.6,413.4,404.6z"/>
	<path id="Path_4243" fill="#FFFFFF" stroke="#FFFFFF" stroke-width="0.4" d="M398.8,400.2C398.8,400.2,398.8,400.2,398.8,400.2
		c0,0.1,0,0.1,0.1,0.1l0.6,0.8c0,0,0,0,0,0c0,0,0,0,0,0l0.7,0.8l0,0l0.6,0.7c0,0,0,0,0,0c0,0,0,0,0,0l0.5,0.4l0,0l0.3,0.3
		c0,0,0,0,0,0c0,0,0,0,0,0l0.2,0.1c0,0,0,0,0,0c0,0,0,0,0.1,0l1.6,0.6l0.1,0.1l0.1,0.1l0,0.1l0.2,1c0,0,0,0,0,0c0,0,0,0,0,0l0,0.1
		l0.1,0.3l-1.4,0.7c0,0,0,0,0,0s0,0,0,0l-0.3,0.2c0,0,0,0,0,0c0,0,0,0,0,0l-0.3,0.3c0,0,0,0,0,0c0,0,0,0,0,0l-0.3,0.5c0,0,0,0,0,0
		s0,0,0,0l-0.3,0.6c0,0,0,0,0,0c0,0,0,0,0,0L401,409c0,0,0,0,0,0.1c0,0,0,0.1,0,0.1c0,0,0,0.1,0,0.1c0,0,0,0,0,0.1l0.8,1.7
		c0,0,0,0,0,0c0,0.1,0.1,0.1,0.1,0.1c0,0,0,0,0,0c0,0,0,0,0,0l0.7,0.3c0,0,0,0,0,0c0,0,0,0,0,0l0.7,0.3c0,0,0,0,0,0c0,0,0,0,0,0
		l0.6,0.1c0,0,0.1,0,0.1,0h0.8c0.1,0,0.1,0,0.2,0c0,0,0,0,0,0l0.1-0.1c0,0,0,0,0,0h0l1.1-0.6l1.4,1.8l0.1,0.1l0,0.1v0l-0.6,1.4
		c0,0,0,0,0,0.1c0,0,0,0,0,0.1l0,0.2c0,0,0,0,0,0c0,0,0,0,0,0l0,0.3c0,0,0,0,0,0c0,0,0,0,0,0l0,0.6v0l0,0l0.1,0.8c0,0,0,0,0,0
		c0,0,0,0,0,0l0.2,1c0,0,0,0,0,0c0,0,0,0,0,0l0.3,0.9c0,0,0,0,0,0c0,0.1,0.1,0.1,0.1,0.2l1.2,1c0,0,0,0,0,0c0,0,0,0,0,0
		c0.1,0,0.1,0.1,0.2,0.1l0,0c0,0,0.1,0,0.1,0c0,0,0.1,0,0.1,0l0,0l0.5-0.2c0,0,0,0,0,0c0,0,0,0,0,0l3.3-1.9l0.2,1.1c0,0,0,0,0,0
		c0,0,0,0,0,0l0.1,0.2l0,0c0,0,0,0,0,0l0.2,0.5c0,0,0,0,0,0c0,0,0,0,0,0l0.3,0.6c0,0,0,0,0,0s0,0,0,0l0.5,0.7l0,0l0,0l0.3,0.5l0,0
		c0,0,0,0,0,0c0,0,0,0.1,0,0.1c0,0,0,0,0,0.1c0,0,0,0,0,0.1c0,0,0,0.1,0,0.1c0,0,0,0,0,0l0.4,1c0,0,0,0,0,0c0,0,0,0,0,0l0.5,0.9
		c0,0,0,0,0,0s0,0,0,0l0.5,0.8c0,0,0,0,0,0s0,0,0,0l0.4,0.6c0,0,0,0,0,0c0,0,0,0,0,0l0.3,0.3l0.2,0.2c0,0,0,0,0,0c0,0,0,0,0,0
		l1.4,1.2l-2.9,1.6c0,0,0,0,0,0c0,0,0,0,0,0l-0.6,0.4c0,0,0,0,0,0c0,0,0,0,0,0l-0.4,0.4c0,0,0,0,0,0c0,0,0,0-0.1,0.1
		c0,0,0,0.1,0,0.1c0,0,0,0.1,0,0.1c0,0,0,0.1,0,0.1c0,0,0,0,0,0.1l0.4,1.7c0,0,0,0,0,0.1c0,0,0,0,0,0.1c0,0,0,0.1,0.1,0.1
		c0,0,0,0,0,0l0.7,0.6l0,0l0,0l0.8,0.6c0,0,0,0,0,0c0,0,0,0,0,0l0.6,0.4c0,0,0,0,0,0c0,0,0,0,0.1,0l0.5,0.2l0,0l0.4,0.1l0.2,0.1l0,0
		l0,0c0.1,0,0.1,0,0.2,0h0l1.4-0.1l0,0l0.1,0l0.1,0.1l0.4,0.9l0,0c0,0,0,0,0,0l0.1,0.1l0.5,1l0.1,0.1l-1,0.6c0,0,0,0,0,0s0,0,0,0
		l-0.1,0.1c0,0,0,0,0,0c0,0,0,0-0.1,0.1c0,0,0,0,0,0.1c0,0,0,0,0,0l-0.1,0.4c0,0,0,0,0,0c0,0,0,0,0,0l-0.1,0.4c0,0,0,0,0,0
		c0,0,0,0,0,0l-0.1,0.7c0,0,0,0,0,0c0,0,0,0,0,0l-0.1,0.8c0,0,0,0,0,0c0,0,0,0,0,0v0.8c0,0,0,0,0,0.1c0,0,0,0.1,0,0.1
		c0,0,0,0.1,0,0.1c0,0,0,0,0,0l1.1,1.4l0,0c0,0.1,0.1,0.1,0.1,0.1c0,0,0,0,0.1,0c0,0,0.1,0,0.1,0l0.7,0.1h0l0,0h0l0.7-0.1
		c0,0,0,0,0,0c0,0,0,0,0,0l0.5-0.1c0,0,0.1,0,0.1-0.1c0,0,0,0,0,0l0.3-0.2l1.8-1l0.7,0.6c0,0,0,0,0,0c0,0,0,0,0,0l0.1,0.1l0,0v0.1
		l-0.1,1.9c0,0,0,0,0,0s0,0,0,0l0,0.3c0,0,0,0,0,0c0,0,0,0,0,0l0.1,0.4c0,0,0,0,0,0c0,0,0,0,0,0l0.2,0.7c0,0,0,0,0,0c0,0,0,0,0,0
		l0.3,0.8c0,0,0,0,0,0c0,0,0,0,0,0l0.5,1l0,0l0,0l0.5,0.9c0,0,0,0,0,0c0,0.1,0.1,0.1,0.1,0.1c0,0,0,0,0,0c0,0,0,0,0,0l1.2,0.5
		c0.1,0,0.1,0,0.2,0l0,0h0c0.1,0,0.1,0,0.2-0.1c0,0,0,0,0,0l3.7-2.1l0.1,0.1c0,0,0,0,0,0c0,0,0,0,0,0l0.6,0.6c0,0,0,0,0,0
		c0,0,0,0,0,0l0.8,0.7c0,0,0,0,0,0s0,0,0,0l0.7,0.5c0,0,0,0,0,0c0,0,0,0,0,0c0.1,0,0.1,0.1,0.2,0.1l0,0h0c0.1,0,0.1,0,0.2-0.1
		c0,0,0,0,0,0l1.7-1c0,0,0.1,0.1,0.1,0.1c0,0,0,0,0,0l1.5,1.1c0,0,0,0,0,0c0,0,0,0,0,0c0.1,0,0.1,0.1,0.2,0.1l0,0c0.1,0,0.1,0,0.2,0
		l0,0c0,0,0,0,0,0l3.7-2.2l0.1,0.7c0,0,0,0,0,0c0,0,0,0,0,0l0.1,0.5l0,0v0l0.2,0.8c0,0,0,0,0,0s0,0,0,0l0.5,1.3c0,0,0,0,0,0
		c0,0,0,0,0,0l0.8,1.6c0,0,0,0,0,0c0,0,0,0,0,0l0.1,0.2c0,0,0,0,0,0c0,0,0.1,0.1,0.1,0.1c0,0,0,0,0.1,0c0,0,0,0,0,0l1.5,0.5
		c0,0,0,0,0,0c0,0,0,0,0,0c0,0,0,0,0.1,0l0,0c0.1,0,0.1,0,0.2-0.1c0,0,0,0,0,0l3.3-1.9l0.6,0.9c0,0,0,0,0,0c0,0,0,0,0,0l1.1,1.4
		c0,0,0,0,0,0c0,0,0,0,0,0l0.2,0.2c0,0,0,0,0,0c0,0,0.1,0.1,0.1,0.1c0,0,0,0,0,0c0.1,0,0.1,0,0.2,0l0,0h0l1.3-0.1c0,0,0,0,0.1,0
		c0,0,0.1,0,0.1,0l0,0h0l3.9-2.3l0,0l0.2,0.2c0,0,0,0,0.1,0c0,0,0,0,0,0c0,0,0,0,0,0c0.1,0,0.1,0,0.2,0l0,0c0.1,0,0.1,0,0.2,0
		c0,0,0,0,0,0c0,0,0,0,0,0l15-8.7c0,0,0,0,0,0c0,0,0,0,0,0l0.9-0.8l0,0c0,0,0,0,0,0c0,0,0,0,0.1-0.1c0,0,0,0,0,0c0,0,0,0,0,0
		c0,0,0-0.1,0-0.1c0,0,0,0,0,0c0,0,0,0,0-0.1c0,0,0-0.1,0-0.1c0,0,0,0,0,0l0,0l-0.1-0.4l0,0c0,0,0,0,0,0l-0.5-1.7c0,0,0,0,0,0
		c0,0,0,0,0,0l0,0l3.5-2c0,0,0,0,0,0s0,0,0,0c0.1,0,0.1-0.1,0.1-0.2c0,0,0,0,0,0l0.5-1.4c0,0,0,0,0,0c0,0,0,0,0,0c0,0,0,0,0-0.1
		c0,0,0-0.1,0-0.1c0,0,0,0,0,0c0,0,0,0,0-0.1c0,0,0-0.1,0-0.1c0,0,0,0,0,0c0,0,0,0,0,0c0,0,0,0,0,0l-0.2-0.3l-0.9-1.5c0,0,0,0,0,0
		c0,0,0,0,0,0l-0.8-1.2c0,0,0,0,0,0c0,0,0,0,0,0l-0.6-0.7l0,0v0l-0.2-0.2l3.4-2c0,0,0,0,0,0c0,0,0,0,0.1-0.1c0,0,0,0,0-0.1
		c0,0,0-0.1,0-0.1c0,0,0-0.1,0-0.1c0,0,0,0,0-0.1l0-1.8c0,0,0,0,0,0c0,0,0,0,0,0c0,0,0-0.1,0-0.1c0,0,0,0,0,0c0,0,0,0,0,0
		c0,0,0,0,0,0c0,0,0,0,0,0l-0.2-0.3c0,0,0,0,0,0c0,0,0,0,0,0l-1.2-1.2c0,0,0,0,0,0c0,0,0,0,0,0l-0.9-0.9c0,0,0,0,0,0s0,0,0,0
		l-0.7-0.6c0,0,0,0,0,0c0,0,0,0,0,0l-0.4-0.2c0,0,0,0,0,0c0,0,0,0,0,0l-1.1-0.5l-0.1-0.1l-0.1-0.1c0,0,0,0,0,0c0,0,0,0,0,0l-0.1-0.1
		l-0.1-0.7l2.7-1.5c0,0,0,0,0,0c0,0,0,0,0,0l0.8-0.6c0,0,0,0,0,0c0,0,0,0,0,0l0.2-0.1l0,0c0,0,0,0,0,0c0,0,0,0,0.1-0.1c0,0,0,0,0,0
		c0,0,0,0,0-0.1c0,0,0-0.1,0-0.1c0,0,0,0,0,0c0,0,0,0,0-0.1c0,0,0-0.1,0-0.1c0,0,0,0,0,0l0,0l-0.6-1.9c0,0,0,0,0,0c0,0,0,0,0-0.1
		c0,0,0,0,0,0s0,0,0,0c0,0,0,0,0-0.1c0,0,0,0,0,0l-0.2-0.2c0,0,0,0,0,0c0,0,0,0,0,0l-1.3-0.8c0,0,0,0,0,0c0,0,0,0,0,0l-1-0.5
		c0,0,0,0,0,0c0,0,0,0,0,0l-0.7-0.2c0,0,0,0,0,0c0,0,0,0,0,0l-0.4-0.1c0,0,0,0,0,0c0,0,0,0,0,0h-0.9l-0.1-0.1c0,0,0,0,0,0
		c0,0,0,0,0,0l-0.1-0.1l-0.4-1.1c0,0,0,0,0,0c0,0,0,0,0,0l-0.4-0.9l0.8-0.4l0,0l0.3-0.2c0,0,0,0,0,0c0,0,0,0,0,0l0.4-0.4
		c0,0,0,0,0-0.1c0,0,0,0,0,0l0.5-0.7c0,0,0,0,0,0c0,0,0,0,0,0l0.5-1.1c0,0,0,0,0,0s0,0,0,0l0.1-0.2l0,0c0,0,0,0,0,0c0,0,0-0.1,0-0.1
		c0,0,0,0,0-0.1l0,0c0,0,0,0,0,0c0,0,0-0.1,0-0.1c0,0,0-0.1,0-0.1l0,0l-1-1.9c0,0,0,0,0,0v0l0,0c0,0,0,0,0,0l0,0c0,0,0,0,0,0l0,0
		c0,0-0.1,0-0.1,0c0,0,0,0-0.1,0h0l0,0h0l-0.2-0.1l0,0h0l-1.2-0.3c0,0,0,0,0,0c0,0,0,0,0,0l-0.9-0.1c0,0,0,0,0,0c0,0,0,0,0,0h-0.6
		c0,0-0.1,0-0.1,0c0,0,0,0-0.1,0h0h0l-0.3,0.1c0,0,0,0,0,0c0,0,0,0,0,0l-0.7,0.4l0,0c0,0,0,0-0.1,0l0,0l-0.6-1c0,0,0,0,0,0
		c0,0,0,0,0,0l-0.7-1l0-0.1v0c0,0,0,0,0,0l0-0.1l0.6-0.7c0,0,0,0,0-0.1c0,0,0,0,0,0l0.2-0.4c0,0,0,0,0-0.1c0,0,0,0,0,0l0.2-0.6
		c0,0,0,0,0,0c0,0,0,0,0,0l0.2-1c0,0,0,0,0,0s0,0,0,0l0.1-1.5c0,0,0,0,0,0c0,0,0,0,0,0l0-0.2l0,0v0c0,0,0,0,0,0c0,0,0-0.1,0-0.1
		c0,0,0,0,0,0l0,0c0,0,0,0,0,0c0,0,0,0,0,0l-1.3-1.6l0,0c0,0,0,0,0,0c0,0,0,0-0.1,0c0,0,0,0,0,0c0,0,0,0,0,0c0,0,0,0-0.1,0
		c0,0,0,0-0.1,0c0,0,0,0,0,0h-0.2c0,0,0,0-0.1,0c0,0,0,0,0,0l-1,0.2c0,0,0,0,0,0c0,0,0,0,0,0l-0.7,0.4c0,0,0,0,0,0l0,0l-1.7,1
		l-0.2-0.2c0,0,0,0,0,0c0,0,0,0,0,0l-0.8-0.7l0-0.1l0-0.1v-0.1l0.2-1.1c0,0,0,0,0,0c0,0,0,0,0,0l0-0.5c0,0,0,0,0,0s0,0,0,0l0-0.8
		c0,0,0,0,0,0c0,0,0,0,0,0l-0.1-1.2c0,0,0,0,0,0c0,0,0,0,0,0l-0.4-1.7c0,0,0,0,0,0c0,0,0,0,0,0L462,393c0,0,0,0,0,0c0,0,0,0,0-0.1
		l0,0c0,0,0,0,0,0c0,0,0,0-0.1-0.1c0,0,0,0,0,0h0l0,0l-1.5-1.2h0c0,0-0.1,0-0.1-0.1c0,0,0,0,0,0c-0.1,0-0.2,0-0.2,0c0,0-0.1,0-0.1,0
		h0l-3.7,2.1l-0.1-0.6c0,0,0,0,0,0c0,0,0,0,0,0l-0.1-0.5l0,0l-0.2-0.9c0,0,0,0,0,0c0,0,0,0,0,0l-0.5-1.3c0,0,0,0,0,0c0,0,0,0,0,0
		l-0.8-1.7c0,0,0,0,0,0c0,0,0,0,0,0l-0.2-0.2c0,0,0,0,0,0c0,0,0,0,0,0c0,0,0,0,0,0c0,0,0,0-0.1,0c0,0,0,0,0,0l-1.5-0.6c0,0,0,0,0,0
		c0,0-0.1,0-0.1,0c0,0-0.1,0-0.1,0c0,0,0,0-0.1,0c0,0-0.1,0-0.1,0c0,0,0,0,0,0l-3.4,2l-0.6-0.9c0,0,0,0,0,0c0,0,0,0,0,0l-1.1-1.4
		l0,0l0,0l-0.2-0.3c0,0,0,0,0,0l0,0c0,0,0,0,0,0c0,0,0,0,0,0c0,0,0,0-0.1,0l0,0c0,0,0,0-0.1,0h0c0,0-0.1,0-0.1,0c0,0,0,0-0.1,0h0
		l-1.3,0.2c0,0,0,0-0.1,0c0,0-0.1,0-0.1,0l-3.9,2.3l0,0c0,0,0,0,0,0c0,0,0,0,0,0l-0.2-0.1c0,0,0,0,0,0c0,0-0.1,0-0.1,0
		c0,0-0.1,0-0.1,0c0,0-0.1,0-0.1,0c0,0-0.1,0-0.1,0c0,0,0,0-0.1,0l-6.6,3.7l0.1-0.6c0,0,0,0,0,0s0,0,0,0l0.1-0.9c0,0,0,0,0,0
		c0,0,0,0,0,0l0-0.8c0,0,0,0,0,0c0,0,0,0,0,0c0,0,0,0,0-0.1c0,0,0,0,0,0c0,0,0,0,0,0c0,0,0,0,0,0c0,0,0,0,0,0l-1.1-1.4c0,0,0,0,0,0
		c0,0,0,0,0,0c0,0,0,0,0,0c0,0,0,0,0,0c0,0,0,0,0,0c0,0,0,0-0.1,0c0,0,0,0-0.1,0c0,0,0,0,0,0h-0.7c0,0,0,0,0,0c0,0,0,0,0,0l-0.6,0.1
		c0,0,0,0,0,0c0,0,0,0,0,0l-0.5,0.1c0,0,0,0,0,0c0,0,0,0,0,0l-0.4,0.2l0,0c0,0,0,0,0,0l-1.8,1.1l-0.7-0.6l0,0v0l-0.1-0.1l-0.1-0.1
		v-0.1l0-1.9c0,0,0,0,0,0c0,0,0,0,0,0l0-0.3c0,0,0,0,0,0v0l-0.1-0.5c0,0,0,0,0,0c0,0,0,0,0,0l-0.2-0.6l0,0l-0.3-0.8c0,0,0,0,0,0
		c0,0,0,0,0,0l-0.5-1c0,0,0,0,0,0c0,0,0,0,0,0l-0.5-0.9l0,0l0,0c0,0,0,0,0,0c0,0,0,0-0.1-0.1c0,0,0,0-0.1-0.1c0,0,0,0,0,0l-1.2-0.5
		c0,0,0,0,0,0c0,0-0.1,0-0.1,0c0,0-0.1,0-0.1,0c0,0-0.1,0-0.1,0c0,0-0.1,0-0.1,0c0,0,0,0,0,0l-3.7,2.1c0,0,0,0,0,0l-0.6-0.6l0,0l0,0
		l-0.7-0.7c0,0,0,0,0,0c0,0,0,0,0,0l-0.7-0.5l0,0c0,0,0,0,0,0c0,0-0.1-0.1-0.1-0.1c0,0,0,0,0,0c0,0-0.1,0-0.1,0h0
		c-0.1,0-0.1,0-0.2,0.1l-15,8.7l0,0l0,0c0,0,0,0,0,0l-0.8,0.6l0,0c0,0-0.1,0.1-0.1,0.1c0,0,0,0.1,0,0.1c0,0,0,0,0,0.1
		c0,0.1,0,0.1,0,0.2l0,0l0.2,0.9l0,0l0,0l0.3,1c0,0,0,0,0,0s0,0,0,0l0.3,0.9c0,0,0,0,0,0c0,0,0,0,0,0l0.3,0.6c0,0,0,0,0,0
		c0,0,0,0,0,0l0.1,0.2l-3.5,2c-0.1,0-0.1,0.1-0.2,0.1l0,0c0,0,0,0,0,0c0,0,0,0.1-0.1,0.1c0,0,0,0,0,0c0,0,0,0,0,0.1c0,0,0,0,0,0.1
		l0,1.5C398.7,400,398.7,400,398.8,400.2C398.7,400.1,398.8,400.1,398.8,400.2z M417.7,383.6l0.4,0.3l0.7,0.7l0.4,0.4l-10.5,6.1
		c0,0,0,0,0,0c0,0,0,0-0.1,0c0,0,0,0,0,0c0,0,0,0,0,0c0,0,0,0,0,0l-0.3,0.5c0,0,0,0,0,0c0,0,0,0,0,0l-0.3,0.7c0,0,0,0,0,0
		c0,0,0,0,0,0l-0.1,0.6c0,0,0,0,0,0s0,0,0,0l-0.1,0.6c0,0,0,0,0,0c0,0,0,0,0,0l0,0.4v0c0,0,0,0,0,0l0,0.3c0,0,0,0,0,0c0,0,0,0,0,0
		l0.5,2H408c0,0,0,0,0,0c0,0,0,0,0,0h-0.1c0,0,0,0,0,0c0,0,0,0,0,0l-0.6,0.1h0l-0.1-0.1l-0.1-0.1l-1-2.1c0,0,0,0,0,0c0,0,0,0,0,0
		l-0.2-0.3c0,0,0,0,0,0c0,0,0,0,0,0l-0.3-0.4c0,0,0,0,0,0s0,0,0,0l-0.5-0.5c0,0,0,0,0,0c0,0,0,0,0,0l-0.6-0.6c0,0,0,0,0,0
		c0,0,0,0,0,0l-0.8-0.7c0,0,0,0,0,0c0,0,0,0,0,0l-0.2-0.1L417.7,383.6z M424,383.3l0.2,0.1l-14,8.1l-0.2-0.1l10.2-5.9l0,0L424,383.3
		z M447.4,389.1l0.5,0.8l-10.9,6.3c0,0,0,0,0,0c0,0,0,0-0.1,0.1c0,0,0,0,0,0c0,0,0,0.1,0,0.1c0,0,0,0,0,0.1l0,0l0,0l-0.1,0.2
		c0,0,0,0,0,0s0,0,0,0l-0.4,1.2c0,0,0,0,0,0s0,0,0,0l-0.1,1c0,0,0,0,0,0c0,0,0,0,0,0v0.9v0c0,0,0,0,0,0l0,0.5c0,0,0,0,0,0
		c0,0,0,0,0,0l0.1,0.4l-1.2,0.7l-0.1-0.1l0-0.1l-0.5-1.5c0,0,0,0,0,0c0,0,0,0,0,0l-0.2-0.6c0,0,0,0,0,0c0,0,0,0,0,0l-0.5-0.8v0l0,0
		l-0.7-1.2c0,0,0,0,0,0c0,0,0,0,0,0l-1-1.2l14.2-8.3L447.4,389.1z M452.3,388.4l0.4,0.1l-14,8.1l-0.4-0.1l10.4-6l0,0L452.3,388.4z
		 M460,392.5l0.8,0.6l-14.2,8.1l-0.7-0.5l10.1-5.8L460,392.5z M462.7,400.4L462.7,400.4l-12.4,7.3h0l0,0h0c0,0,0,0,0,0c0,0,0,0,0,0
		l-0.5,0.4c0,0,0,0,0,0c0,0,0,0,0,0l-0.2,0.2c0,0,0,0,0,0.1c0,0,0,0,0,0.1l-0.3,0.6l-0.1,0.1l-0.7-0.7c0,0,0,0,0,0c0,0,0,0,0,0
		l-0.4-0.4l14.2-8.2L462.7,400.4z M472.1,407.8l0.4,0.1l-13.9,8h0l-1.2-0.3c0,0,0,0,0,0c0,0,0,0,0,0l-0.2,0l12.6-7.2h0l0,0l0.8-0.5
		l0.2-0.1h0.5L472.1,407.8z M471.5,412.4L471.5,412.4L471.5,412.4l-11.9,6.9l0.3-0.5c0,0,0,0,0,0c0,0,0,0,0,0l0,0l13.7-7.9l-0.4,0.6
		l-0.3,0.3l-0.3,0.2l0,0L471.5,412.4z M474.2,416.2l0.3,0.1l0.6,0.2l0.9,0.5l0.9,0.6l-14.2,8.2l-1.3-0.8c0,0,0,0,0,0c0,0,0,0,0,0
		l-0.9-0.5c0,0,0,0,0,0c0,0,0,0,0,0l-0.7-0.3h0c0,0,0,0,0,0l-0.4-0.1c0,0,0,0-0.1,0c0,0,0,0-0.1,0h-0.4l13.8-8l0.1,0.1
		c0,0,0,0,0.1,0c0,0,0,0,0.1,0l0.1,0.1h0c0.1,0,0.1,0,0.2,0L474.2,416.2L474.2,416.2z M476,424.5l0.4,0.2l0.7,0.6l0.9,0.9l1,1
		l-14.2,8.2l-1.1-1.2c0,0,0,0,0,0s0,0,0,0l-0.9-0.9c0,0,0,0,0,0c0,0,0,0,0,0l-0.7-0.5c0,0,0,0,0,0c0,0,0,0,0,0l-0.4-0.3c0,0,0,0,0,0
		c0,0,0,0,0,0l-1.1-0.5l14.2-8.2l0,0c0,0,0,0,0,0c0,0.1,0.1,0.1,0.1,0.1l0.2,0.1c0,0,0,0,0,0c0,0,0,0,0,0L476,424.5z M477.8,436.7
		l-3.7,2.2l0,0l-10.1,5.8l0-0.1L477.8,436.7L477.8,436.7z M453.4,452.8L453.4,452.8l-1.1-1.4l-0.7-1.2l0,0l0,0c0,0,0,0,0,0l-0.4-0.8
		l-0.2-0.5l-0.5-1.5l1,0h0c0,0,0.1,0,0.1,0l1.1-0.3l0,0.1c0,0,0,0,0,0c0,0,0,0,0,0l0.7,1.5l0.2,0.5l0.2,0.9l0.2,1.1l0.1,1.4
		L453.4,452.8z M430.5,447.3C430.5,447.3,430.5,447.3,430.5,447.3L430.5,447.3l0.2-0.6c0,0,0,0,0,0c0,0,0,0,0-0.1l0-0.5c0,0,0,0,0,0
		c0,0,0,0,0,0v-0.6c0,0,0,0,0-0.1c0,0,0,0,0-0.1l-0.5-2h1.2l0.1,0.1l1,2.1c0,0,0,0,0,0c0,0,0,0,0,0l0.2,0.2l0.1,0.1L430.5,447.3
		L430.5,447.3z M434.2,446.2l-0.3-0.4c0,0,0,0,0,0c0,0,0,0,0,0l-0.1-0.1l-0.2-0.3c0,0,0,0,0,0c0,0,0,0,0,0l-0.2-0.2l-1-2.1
		c0,0,0,0,0,0c0,0,0,0,0,0l-0.1-0.2c0,0,0,0,0,0c0,0,0,0,0-0.1l-0.2-0.1c0,0,0,0,0,0c0,0-0.1,0-0.1,0c0,0-0.1,0-0.1,0c0,0,0,0-0.1,0
		h-1.4c-0.2-0.1-0.3-0.1-0.5,0c0,0,0,0,0,0c0,0,0,0-0.1,0c0,0-0.1,0-0.1,0c0,0,0,0-0.1,0.1c0,0,0,0,0,0.1l-0.1,0.2c0,0,0,0,0,0
		c0,0,0,0.1,0,0.1c0,0,0,0.1,0,0.1c0,0,0,0,0,0l0,0.2c0,0,0,0,0,0c0,0,0,0,0,0l0.5,2.1v0.6l0,0.5l-0.2,0.5l-0.2,0.7l-0.1,0.2
		l-0.7-0.3l-0.4-0.8l0,0l-0.5-1l-0.3-0.7l-0.2-0.6l-0.1-0.4l0-0.2l0.1-1.9c0,0,0,0,0,0c0,0,0,0,0,0v-0.2l0,0c0-0.1,0-0.1,0-0.2l0,0
		l-0.1-0.2c0,0,0,0,0,0c0,0,0-0.1-0.1-0.1c0,0,0,0-0.1-0.1c0,0,0,0,0,0l-0.2-0.1l-0.9-0.8c0,0,0,0,0,0c0,0,0,0,0,0l-0.1-0.1
		l-0.6-0.5l0,0l0,0l-0.2-0.1c0,0,0,0-0.1,0c0,0-0.1,0-0.1,0c0,0-0.1,0-0.1,0c0,0,0,0-0.1,0h-0.2c0,0,0,0,0,0c0,0-0.1,0-0.1,0
		c0,0-0.1,0-0.1,0c0,0,0,0,0,0l-0.1,0.1c0,0,0,0,0,0c0,0,0,0-0.1,0.1c0,0,0,0-0.1,0.1c0,0,0,0,0,0l-0.6,1.4l-0.1,0.1l-0.2,0.1
		l-0.2,0.2l-0.4,0.1l-0.6,0.1l-0.4,0l-0.9-1.1v-0.7l0.1-0.8l0.1-0.6l0.1-0.3l0.1-0.2l0,0l1.1-0.7c0.1,0,0.1-0.1,0.1-0.2c0,0,0,0,0,0
		l0.1-0.1c0,0,0,0,0,0c0-0.1,0-0.1,0-0.2v0v-0.2c0,0,0-0.1,0-0.1c0,0,0-0.1,0-0.1l-0.1-0.3c0,0,0,0,0,0c0,0,0,0,0,0l-0.5-1.1
		c0,0,0,0,0,0c0,0,0,0,0,0l-0.1-0.1l-0.4-0.9c0,0,0,0,0,0c0,0,0,0,0,0l-0.1-0.2l0,0v0c0,0,0,0-0.1-0.1c0,0,0,0-0.1-0.1l-0.2-0.1
		c0,0,0,0-0.1,0c0,0,0,0-0.1,0l-0.1-0.1c-0.1,0-0.1,0-0.2,0l0,0l-1.4,0.1l-0.1,0h0c0,0,0,0,0,0l-0.4-0.1l0,0l-0.4-0.1l-0.5-0.4
		l-0.8-0.6l0,0l-0.6-0.5l-0.3-1.3l0.2-0.2l0.5-0.3l0.4-0.1l0.4,0h0.3l0.1,0l1.6,0.7h0h0l0.2,0.1c0.1,0,0.1,0,0.2,0l0,0
		c0.1,0,0.2,0,0.2-0.1c0,0,0,0,0.1,0c0,0,0.1,0,0.1-0.1l0.1-0.1c0,0,0,0,0,0c0,0,0-0.1,0-0.1c0,0,0,0,0-0.1c0,0,0,0,0,0l0-0.2
		c0,0,0,0,0,0c0,0,0,0,0,0l0-0.8l0,0l0-1.1c0,0,0,0,0,0v0v-0.2c0,0,0,0,0-0.1c0,0,0-0.1,0-0.1c0,0,0-0.1,0-0.1c0,0,0,0,0,0l0,0
		c0,0,0-0.1,0-0.1c0,0,0-0.1-0.1-0.1l-0.2-0.2c0,0,0,0,0,0s0,0,0,0l-1.6-1.3l-0.1-0.2c0,0,0,0,0,0c0,0,0,0,0,0l-0.3-0.3l-0.4-0.6
		l-0.4-0.8l-0.5-0.9l-0.3-0.8l0-0.1l0.2-0.4l0.3,0.1l0.8,0.4l0.6,0.3l0.4,0.4l0.3,0.3l0.2,0.2l1.4,1.8c0,0,0,0,0,0v0l0.2,0.2
		c0,0,0,0,0,0c0,0,0.1,0.1,0.1,0.1c0,0,0,0,0.1,0c0,0,0,0,0,0l0.2,0.1c0.1,0,0.1,0,0.2,0l0,0c0.1,0,0.1,0,0.2,0l0.1-0.1c0,0,0,0,0,0
		s0,0,0,0l0.5-0.3c0,0,0,0,0,0c0,0,0,0,0,0c0,0,0,0,0.1,0c0,0,0,0,0.1,0l0,0l0.4-0.3l0.1-0.1c0,0,0,0,0,0c0,0,0.1,0,0.1-0.1
		c0,0,0,0,0-0.1c0,0,0,0,0-0.1c0,0,0-0.1,0-0.1c0,0,0,0,0-0.1v-0.2c0,0,0,0,0-0.1c0,0,0,0,0-0.1l-0.1-0.3c0,0,0-0.1,0-0.1l-1-2.1
		l-0.1-0.2l0,0c0,0,0,0,0,0l-0.1-0.4l-0.1-0.6l0-0.7V418l0-0.1h0.5l0.5,0.6l0,0l0.6,0.8l0.5,0.7l0.3,0.6l0,0l0.2,0.4l0.1,0.2
		l0.5,2.1c0,0,0,0,0,0c0,0,0,0,0,0l0.1,0.3c0,0,0,0,0,0c0,0,0,0.1,0,0.1l0.1,0.2c0,0,0,0,0,0c0,0,0.1,0.1,0.1,0.1c0,0,0,0,0.1,0
		c0,0,0,0,0,0l0.2,0.1l0.8,0.4l0,0c0,0,0,0,0,0l0.9,0.4c0,0,0,0,0,0l0,0l0.2,0.1c0.1,0,0.1,0,0.2,0l0,0c0.1,0,0.2,0,0.2-0.1l0.1-0.1
		l0,0l0,0c0.1,0,0.1-0.1,0.1-0.2c0,0,0,0,0,0l0.1-0.2c0,0,0,0,0-0.1c0,0,0,0,0-0.1l0.1-1.9l0-0.1l0.1-0.3l0,0l0.1-0.3l0.3-0.3
		l0.4-0.4l0.2-0.1l0.9,0.8l0.2,0.8l0.2,0.9l0.1,0.8l0,0.5l-0.1,0.3v0l0,0.2l-0.6,1.4c0,0,0,0,0,0c0,0,0,0,0,0l0,0.2c0,0,0,0,0,0
		c0,0,0,0.1,0,0.1c0,0,0,0.1,0,0.1c0,0,0,0,0,0l0.1,0.2c0,0,0,0,0,0c0,0,0,0,0,0l0.1,0.2c0,0,0,0,0,0c0,0,0,0,0,0l1.4,1.9
		c0,0,0,0,0,0c0,0,0,0,0,0l0.1,0.1c0,0,0,0,0,0c0,0,0,0,0,0l0.2,0.1c0,0,0,0,0,0c0.1,0,0.1,0.1,0.2,0.1c0,0,0,0,0,0l0,0
		c0.1,0,0.1,0,0.2,0l0.1-0.1c0,0,0,0,0,0c0,0,0,0,0,0l1.1-0.8l0,0h0.2l0.4,0.1l0.6,0.1l0.7,0.2l0.6,0.3l0.6,1.3l-0.1,0.4l-0.3,0.5
		l-0.3,0.4l-0.2,0.2l-0.2,0.1l0,0h-1.5c0,0,0,0,0,0c0,0-0.1,0-0.1,0c0,0-0.1,0-0.1,0c0,0,0,0,0,0l-0.1,0.1c0,0,0,0,0,0
		c0,0,0,0-0.1,0.1c0,0,0,0-0.1,0.1c0,0,0,0,0,0l-0.1,0.1c0,0,0,0,0,0c0,0,0,0.1,0,0.1c0,0,0,0.1,0,0.1c0,0,0,0,0,0l0,0.3
		c0,0,0,0,0,0c0,0,0,0,0,0l0.2,1.1c0,0,0,0,0,0c0,0,0,0,0,0l0,0.1l0.2,0.9l0,0v0l0.1,0.2c0,0,0,0,0,0c0,0,0,0,0,0.1l0.1,0.2
		c0,0,0,0,0,0c0,0.1,0.1,0.1,0.1,0.1c0,0,0,0,0,0c0,0,0,0,0,0l0.2,0.1c0,0,0,0,0,0c0,0,0,0,0,0l1.6,0.6l0.1,0.1c0,0,0,0,0,0
		c0,0,0,0,0,0l0.3,0.2l0.5,0.5l0.5,0.5l0.6,0.8l0.5,0.7l0,0.9l-0.2,0l-0.6-0.1l-0.6-0.1l-0.4-0.1l-0.3-0.2c0,0,0,0,0,0c0,0,0,0,0,0
		l-0.2-0.1l-1.6-1.4c0,0,0,0-0.1,0c0,0,0,0-0.1,0l-0.2-0.1l0,0h0c0,0,0,0-0.1,0c0,0-0.1,0-0.1,0h-0.2c0,0,0,0-0.1,0c0,0-0.1,0-0.1,0
		c0,0-0.1,0-0.1,0c0,0-0.1,0-0.1,0c0,0,0,0-0.1,0.1c0,0,0,0,0,0.1l-0.1,0.1c0,0,0,0,0,0l0,0l-0.3,0.6c0,0,0,0,0,0c0,0,0,0,0,0l0,0.1
		l0,0l-0.3,0.6c0,0,0,0,0,0.1c0,0,0,0,0,0.1l0,0.2c0,0,0,0.1,0,0.1c0,0,0,0.1,0,0.1l0,0.2c0,0,0,0.1,0.1,0.1c0,0,0,0,0,0l0,0l0,0
		l0.1,0.2c0,0,0,0,0,0c0,0,0,0,0,0l1.4,1.9l0,0l0.2,0.2l0.2,0.4l0.2,0.6l0.3,0.8l0,0l0.3,1l0.1,0.5l-0.4,0.2l-0.4-0.3l-0.7-0.6
		L434.2,446.2z M424.7,440.4L424.7,440.4L424.7,440.4L424.7,440.4z M419.5,428l0,0.7l0,0l0,0.5l-1.2-0.5L419.5,428z M411.7,417.9
		L411.7,417.9l0-0.3c0,0,0,0,0,0c0,0,0,0,0,0l0-1.6l0.4,0.2l0,0l0,0c0,0,0,0,0,0c0,0,0,0,0.1,0c0,0,0,0,0.1,0l0,0l0.7,0.2l0.1,0.1
		l0.1,0.1l0.1,0.1l0,0.1L411.7,417.9C411.7,417.9,411.7,417.9,411.7,417.9z M416.8,416.3C416.8,416.3,416.8,416.3,416.8,416.3
		C416.7,416.3,416.8,416.3,416.8,416.3l0.4-0.3c0,0,0.1-0.1,0.1-0.1c0,0,0,0,0,0l0,0l0,0l0.4-0.2l1.4,1.8c0,0,0,0,0,0c0,0,0,0,0,0
		l0.2,0.2l0,0c0,0,0,0,0,0l0.4,0.3c0,0,0,0,0,0c0,0,0,0,0,0l0.1,0.1l-1.8,1l-0.1-0.4l0,0l0,0l-0.1-0.3c0,0,0,0,0,0c0,0,0,0,0,0
		L416.8,416.3z M419.4,412.5L419.4,412.5l-0.1-0.2v-1.2l0-0.5l0.7,0.3l-0.1,0.1c0,0,0,0,0,0c0,0,0,0-0.1,0c0,0,0,0,0,0
		c0,0,0,0,0,0.1c0,0,0,0,0,0.1c0,0,0,0,0,0c0,0,0,0.1,0,0.1c0,0,0,0,0,0.1l0,0l0,0l0,1.4L419.4,412.5z M418.3,405.8L418.3,405.8
		L418.3,405.8l-0.1-0.2c0,0,0,0,0,0c0,0,0,0,0,0l-0.5-0.9c0,0,0,0,0,0c0,0,0,0,0,0l-0.1-0.1l-0.5-1l-0.1-0.1l1-0.7
		c0,0,0.1-0.1,0.1-0.1c0,0,0,0,0,0l0.1-0.1c0,0,0,0,0,0l0,0l0.2-0.3c0,0,0-0.1,0-0.1c0,0,0,0,0,0l0.1-0.5c0,0,0,0,0,0c0,0,0,0,0,0
		l0.1-0.7c0,0,0,0,0,0c0,0,0,0,0,0v-1.5l14.2-8.2v0.1l-0.1,0.8l-0.1,0.6l0,0l-0.1,0.4l-0.1,0.2c0,0,0,0,0,0c0,0,0,0,0,0l0,0.1
		l-1,0.6l-6.2,3.6c0,0,0,0,0,0c0,0,0,0,0,0l-0.9,0.9c0,0,0,0,0,0c0,0,0,0-0.1,0.1c0,0,0,0,0,0.1c0,0,0,0.1,0,0.1c0,0,0,0.1,0,0.1
		c0,0,0,0,0,0.1c0,0,0,0.1,0,0.1c0,0,0,0,0,0l0.1,0.2l0.5,1.6c0,0,0,0,0,0s0,0,0,0l0,0.1l-3.5,2c0,0,0,0,0,0c0,0,0,0-0.1,0.1
		c0,0,0,0,0,0c0,0,0,0,0,0.1c0,0,0,0,0,0.1l-0.5,1.4c0,0,0,0,0,0c0,0,0,0.1,0,0.1c0,0,0,0,0,0c0,0,0,0,0,0.1c0,0,0,0.1,0,0.1
		c0,0,0,0,0,0l0.1,0.3c0,0,0,0,0,0c0,0,0,0,0,0l0.7,1.1l-0.5-0.3c0,0,0,0,0,0c0,0,0,0,0,0l-0.5-0.2l-0.3-0.1c0,0,0,0,0,0
		c0,0,0,0,0,0l-0.2-0.1c-0.1,0-0.1,0-0.2,0l0,0L418.3,405.8z M461.5,395.1l0.1,1.2l0,0.8l0,0.4l-0.2,1.1c0,0,0,0,0,0c0,0,0,0,0,0
		v0.2c0,0,0,0,0,0.1c0,0,0,0,0,0.1l0,0.1l-14.2,8.2l0.3-1c0,0,0,0,0,0c0,0,0,0,0,0l0-0.5c0,0,0,0,0,0s0,0,0,0l0-0.8c0,0,0,0,0,0
		s0,0,0,0l-0.2-1.2c0,0,0,0,0,0c0,0,0,0,0,0L447,402l0,0l0,0l14.2-8.2L461.5,395.1z M468.2,402.1L468,403l-0.2,0.6l-0.1,0.3
		l-0.6,0.7c0,0,0,0,0,0c0,0,0,0,0,0l-0.1,0.1c0,0,0,0,0,0c0,0,0,0.1,0,0.1c0,0,0,0.1,0,0.1c0,0,0,0,0,0l0,0.1l-13.5,7.8l0,0
		c0,0,0-0.1,0.1-0.1c0,0,0,0,0,0l0.1-0.3c0,0,0,0,0,0c0,0,0,0,0,0l0.2-0.7c0,0,0,0,0,0c0,0,0,0,0,0l0.2-1.1c0,0,0,0,0,0s0,0,0,0
		l0-1.4l0,0c0,0,0,0,0,0v0l14.1-8.2L468.2,402.1z M467.9,406.8l0.4,0.8l-14.2,8.2l-0.5-0.8c0,0,0,0,0,0c0,0,0,0,0,0l-0.5-0.7
		l14.2-8.3L467.9,406.8z M461.1,425.7l1.3,0.8l0,0l0.1,0l0.4,1.5l-0.7,0.5l-0.7,0.2l-0.5,0.1l-0.3-0.1l-0.9-0.2l0,0c0,0,0,0,0,0
		c0,0-0.1,0-0.1,0c0,0-0.1,0-0.1,0c0,0-0.1,0-0.1,0l-0.4-2c0,0,0,0,0,0c0,0,0,0,0,0l-0.6-1.7h0.7l0.4,0.1l0.6,0.3L461.1,425.7z
		 M477.9,419.3l-14.2,8.2l-0.3-1.1l14.2-8.2L477.9,419.3z M460.9,433.2l0.4,0.2l0.6,0.5l0.9,0.9l1.1,1.3l0,0l0.1,0.1l0,1.2h-0.9
		l-0.8-0.1l-0.6-0.2l-0.2-0.1c0,0,0,0,0,0c0,0,0,0,0,0l-0.1-0.1l-1.1-0.8c0,0,0,0-0.1,0c0,0,0,0,0,0l-0.1-0.1l0.1-1.7c0,0,0,0,0,0
		c0,0,0,0,0,0l-0.1-1.4L460.9,433.2z M475.6,431.9l0.3,0.3l0,0l0.6,0.7l0.8,1.1l0.8,1.4l-14.2,8.3l-0.8-1.5c0,0,0,0,0,0c0,0,0,0,0,0
		l-0.8-1.1c0,0,0,0,0,0v0l-0.6-0.8c0,0,0,0,0,0c0,0,0,0,0,0l-0.4-0.4c0,0,0,0,0,0c0,0,0,0,0,0l-1.1-1l-0.1-0.1l0,0l1.6-0.9
		c0,0,0,0,0,0c0,0,0,0,0,0l0.7,0.2c0,0,0,0,0,0c0,0,0,0,0,0l0.9,0.1c0,0,0,0,0.1,0h1.4c0,0,0.1,0,0.1,0c0,0,0.1,0,0.1,0c0,0,0,0,0,0
		c0,0,0,0,0,0L475.6,431.9z M459.2,450.5l-0.2-0.2l-1-0.8l-0.9-0.9l-0.6-0.7l-0.3-0.4l-0.8-1.3c0,0,0,0,0,0s0,0,0,0l-0.1-0.1
		l0.9-0.6c0,0,0,0,0,0c0,0,0,0,0,0l0.7-0.7c0,0,0,0,0,0c0,0,0,0,0,0l1,1.3l0.3,0.4l0.4,0.9l0.5,1.2l0.5,1.6L459.2,450.5z
		 M460.5,440.5l0.4,0.4l0.6,0.7l0,0l0.8,1.1l0.9,1.6c0,0,0,0,0,0c0,0,0,0,0,0l0.1,0.1l-0.3,0.7l-1-0.5l-0.9-0.5l-0.6-0.5
		c0,0,0,0,0,0c0,0,0,0,0,0l-0.4-0.3l-0.8-0.9c0,0,0,0,0,0s0,0,0,0l-0.2-0.3l-0.1-0.1c0,0,0,0,0,0c0,0,0,0,0,0l0.6-1.2
		c0,0,0-0.1,0-0.1l0.2-1L460.5,440.5z M460,437.6l0-0.6l0.5,0.3L460,437.6C460,437.6,460,437.6,460,437.6L460,437.6z M474.1,439.9
		l0.5,1.5l0,0l-14.3,8.2l-0.5-1.4c0,0,0,0,0,0c0,0,0,0,0,0l-0.5-1.3c0,0,0,0,0,0c0,0,0,0,0,0l-0.5-0.9c0,0,0,0,0,0s0,0,0,0l-0.3-0.5
		c0,0,0,0,0,0c0,0,0,0,0,0l-1-1.3l-0.1-0.1l0-0.1l1.1-0.7l0.6,0.7c0,0,0,0,0,0c0,0,0,0,0,0l0.4,0.3l0.7,0.5c0,0,0,0,0,0c0,0,0,0,0,0
		l1,0.5c0,0,0,0,0,0s0,0,0,0l1.3,0.6c0,0,0,0,0,0c0,0,0,0,0,0l0.2,0.1c0,0,0.1,0,0.1,0l0,0c0.1,0,0.2,0,0.2-0.1L474.1,439.9z
		 M457.7,422.6C457.7,422.6,457.7,422.6,457.7,422.6C457.7,422.6,457.7,422.6,457.7,422.6l-0.4-0.9l14.2-8.3l0.4,0.8l0.3,0.9
		l-14.2,8.2L457.7,422.6z M458.2,416.8C458.3,416.8,458.3,416.8,458.2,416.8L458.2,416.8l0.8,1.5l-0.5,1l-0.4,0.7l-0.3,0.2l-0.3,0.1
		l-0.9,0.3l-0.9-1.9c0,0,0,0,0,0c0,0,0,0,0,0l-1.1-1.8l0.7-0.5l0.2,0l0.6,0l0.8,0.1L458.2,416.8z M453.2,409.4l0,1.3l-0.2,1
		l-0.2,0.6l-0.1,0.2l-0.5,0.6l-1.1-1.6c0,0,0,0,0,0c0,0,0,0,0,0l-1.4-1.5c0,0,0,0,0,0c0,0,0,0,0,0l0.1-0.2c0,0,0,0,0,0c0,0,0,0,0,0
		l0.3-0.7l0.2-0.2l0.4-0.3l0.6-0.3l0.9-0.2l1,1.3L453.2,409.4z M448.5,410.1L448.5,410.1l1.9,2l1.7,2.4l0,0l0,0l0.8,1l0.7,1.1l0,0
		l1.5,2.5l1.2,2.6l0,0l0.6,1.2l0.4,1.2l0,0l0,0l0.9,2.6l0.6,2.6l0,0l0,0l0.3,1.2l0.1,1.1l0,0v0l0,0l0.2,2.5l-0.1,2.2l0,0l-0.1,1
		l-0.2,0.9l0,0l-0.5,2l-0.9,1.6c0,0,0,0,0,0c0,0,0,0,0,0l-0.3,0.7l-0.5,0.6l-1.1,1.2l-1.4,0.9l0,0l-0.6,0.4l-0.7,0.2h0h0l-1.6,0.4
		l-1.8-0.1h0h0h-0.8l-0.9-0.2l0,0l-1.9-0.4l-2-1h0c0,0,0,0,0,0l-0.7-0.3l3.2-1.9l0.9,0.2c0,0,0.1,0,0.1,0c0,0,0,0,0,0l2.2,0.1h0
		c0,0,0.1,0,0.1,0l2-0.5c0,0,0.1,0,0.1,0c0,0,0,0,0,0l1.7-1.1c0,0,0,0,0.1,0c0,0,0,0,0,0l1.4-1.6c0,0,0,0,0-0.1c0,0,0,0,0,0l1-2
		c0,0,0,0,0,0c0,0,0,0,0-0.1l0.6-2.4c0,0,0,0,0,0s0,0,0,0l0.1-2.7c0,0,0,0,0,0c0,0,0,0,0,0l0-1c0,0,0,0,0,0c0,0,0,0,0,0l-0.2-2
		c0,0,0,0,0,0c0,0,0,0,0,0l-0.7-3.1c0,0,0,0,0,0c0,0,0,0,0,0l-1.1-3.2c0,0,0,0,0,0c0,0,0,0,0,0l-1.4-3.1c0,0,0,0,0,0c0,0,0,0,0,0
		l-1.8-3c0,0,0,0,0,0c0,0,0,0,0,0l-2-2.8c0,0,0,0,0,0c0,0,0,0,0,0l-2.2-2.4c0,0,0,0,0,0c0,0,0,0,0,0l-2.4-2c0,0,0,0,0,0s0,0,0,0
		l-1.1-0.7l0,0l-1.4-0.9c0,0,0,0,0,0c0,0,0,0,0,0l-2.4-1.1c0,0,0,0,0,0c0,0,0,0,0,0l-2.4-0.5c0,0,0,0,0,0c0,0,0,0,0,0l-2.2-0.1
		c0,0,0,0,0,0c0,0-0.1,0-0.1,0l-2,0.5c0,0,0,0-0.1,0c0,0,0,0-0.1,0l-1.7,1.1c0,0,0,0,0,0c0,0,0,0-0.1,0l-1.4,1.6c0,0,0,0,0,0.1
		c0,0,0,0,0,0l-1,2c0,0,0,0,0,0.1c0,0,0,0,0,0l-0.3,1.2l-3,1.7l0.1-1.9l0,0l0,0l0.1-1l0.2-0.9l0,0l0.5-2l0.8-1.6l0,0l0,0l0.4-0.8
		l0.5-0.6l1.1-1.2l1.4-0.8c0,0,0,0,0,0c0,0,0,0,0,0l0.6-0.4c0,0,0.1,0,0.1,0l0.6-0.2l0,0l1.6-0.4l1.8,0.1h0.8l0.9,0.2l1.9,0.5l2,0.9
		l0,0l0.9,0.4l0.9,0.6l0,0l0,0l2,1.3l2,1.7l0,0l0.9,0.8L448.5,410.1z M434.3,441.6l-0.1-0.2l0,0l0,0l0.3-0.5c0,0,0,0,0-0.1
		c0,0,0,0,0,0c0,0,0,0,0-0.1c0,0,0,0,0,0l0-0.1l0.2-0.3l1.5,1.3c0,0,0,0,0.1,0c0,0,0,0,0,0l0.2,0.1l0.3,0.2c0,0,0,0,0,0
		c0,0,0,0,0.1,0l0.5,0.1c0,0,0,0,0,0c0,0,0,0,0,0l0.6,0.1h0l0,0l0.7,0.1h0l0,0c0,0,0.1,0,0.1,0l0.6-0.1c0,0,0,0,0,0c0,0,0.1,0,0.1,0
		c0,0,0,0,0,0l10.6-6.1v0l0,0l0,0l0.3,0.6l0.3,0.8l0.3,1l0.1,0.6L437,447l0-0.2c0,0,0,0,0,0c0,0,0,0,0,0l-0.3-1v0v0l-0.3-0.9
		c0,0,0,0,0,0c0,0,0,0,0,0l-0.2-0.6c0,0,0,0,0,0c0,0,0,0,0,0l-0.2-0.5c0,0,0,0,0,0c0,0,0,0,0,0l-0.2-0.2c0,0,0,0,0,0l0,0
		L434.3,441.6z M435.2,436L435.2,436L435.2,436l-0.1-0.3l0,0l-0.2-0.9c0,0,0,0,0,0c0,0,0,0,0,0l0-0.1l-0.2-1h1.2c0,0,0.1,0,0.1,0
		l0.1,0c0,0,0,0,0.1,0c0,0,0,0,0,0l0.3-0.1c0,0,0,0,0,0c0,0,0,0,0,0l12.5-7.3l0.2,1.1v0l0.1,0.3c0,0,0,0,0,0c0,0.1,0.1,0.1,0.1,0.2
		l0.2,0.2l0.1,0.1l0,0l0,0c0,0,0,0,0.1,0c0,0,0,0,0.1,0h0l0,0l1.7,0.7l0.2,0.1l0.3,0.3l0,0l0.4,0.4l0.6,0.6l0,0l0.7,0.8l0.3,0.5
		l-14.3,8.2l-0.3-0.5c0,0,0,0,0,0s0,0,0,0l-0.7-0.9c0,0,0,0,0,0c0,0,0,0,0,0l-0.6-0.6l-0.5-0.5c0,0,0,0,0,0c0,0,0,0,0,0l-0.3-0.2
		l-0.2-0.1c0,0,0,0-0.1,0c0,0,0,0-0.1,0L435.2,436z M432.4,429.1L432.4,429.1l-1.4-1.9l-0.1-0.1l0-0.1v0l0.6-1.4c0,0,0,0,0,0
		c0,0,0,0,0-0.1l0-0.2l0,0l0.1-0.4c0,0,0,0,0-0.1c0,0,0,0,0-0.1l0-0.5v0c0,0,0,0,0,0l-0.1-0.8c0,0,0,0,0,0c0,0,0,0,0,0l-0.2-1
		c0,0,0,0,0,0c0,0,0,0,0,0l-0.2-0.6l14.2-8.2l0.1,0.4l0.2,1l0.1,0.7v0.5l0,0.3l-0.1,0.2l-0.5,1l-0.2,0.3c0,0,0,0,0,0.1
		c0,0,0,0,0,0.1l0,0.2c0,0,0,0,0,0c0,0,0,0.1,0,0.1c0,0,0,0.1,0,0.1c0,0,0,0,0,0l0.1,0.2c0,0,0,0,0,0c0,0,0,0,0,0l0.2,0.3
		c0,0,0,0,0,0c0,0,0,0,0,0l1,1.3l0.2,0.3l-13.1,7.6c0,0,0,0,0,0c0,0,0,0,0,0L432.4,429.1z M428.5,403.7
		C428.5,403.7,428.5,403.7,428.5,403.7c-0.1,0.1-0.1,0.1-0.1,0.1l-0.7,0.7l0,0l-0.9-1.3l-0.3-0.4l-0.4-0.9l-0.3-0.8l-0.2-0.4
		L425,399l0.4-0.4l1.2,1l0.9,0.9l0.6,0.7l0.3,0.4l0.8,1.3c0,0,0,0,0,0c0,0,0,0,0,0l0.1,0.2L428.5,403.7z M429.5,411.8l0.9-1.9
		l1.3-1.5l1.6-1l1.8-0.5l2.1,0.1l2.3,0.5l2.3,1.1l1.2,0.8l0.2,1.7c0,0,0,0,0,0c0,0,0,0,0,0l0.1,0.7l-1.3,0.7l-1.7,1l-0.3-1.2
		c0,0,0,0,0,0c0,0,0,0,0,0l-0.1-0.3l0,0l0,0l-0.2-0.5c0,0,0,0,0,0s0,0,0,0l-0.4-0.6l0,0l-0.5-0.8c0,0,0,0,0,0c0,0,0,0,0,0l-0.6-0.8
		l0,0c0,0,0,0,0,0l-0.6-0.8c0,0,0,0,0,0c0,0,0,0-0.1-0.1c0,0,0,0,0,0c0,0,0,0-0.1,0c0,0,0,0-0.1,0c0,0,0,0,0,0c0,0,0,0-0.1,0
		c0,0,0,0,0,0l-1.1,0.1c0,0,0,0,0,0c0,0-0.1,0-0.1,0c0,0-0.1,0-0.1,0c0,0,0,0,0,0l-6.5,3.8L429.5,411.8z M444.2,410.2l2.3,2l2.2,2.4
		l2,2.7l1.7,3l1.4,3l1.1,3.1l0.7,3l0.1,1l-0.2-0.2l-2.4-2l-2.2-2.4l-0.4-0.6l0.9-0.6c0,0,0,0,0,0c0,0,0,0,0,0l0.3-0.2c0,0,0,0,0,0
		c0,0,0,0,0,0l0.4-0.4c0,0,0-0.1,0.1-0.1c0,0,0,0,0,0l0.3-0.7c0,0,0,0,0,0s0,0,0,0l0.2-0.7c0,0,0,0,0,0c0,0,0,0,0,0c0,0,0-0.1,0-0.1
		v0c0,0,0,0,0-0.1c0,0,0,0,0,0c0,0,0-0.1,0-0.1c0,0,0-0.1,0-0.1c0,0,0,0,0,0l-0.8-1.6c0,0,0,0,0,0c0,0,0,0,0,0c0,0,0,0,0,0
		c0,0,0,0,0-0.1c0,0,0,0,0,0c0,0,0,0,0,0c0,0,0,0,0,0l-0.7-0.4c0,0,0,0,0,0c0,0,0,0,0,0l-0.8-0.3c0,0,0,0,0,0c0,0,0,0,0,0l-0.6-0.1
		l0,0h0l-0.5-0.1c0,0,0,0,0,0c0,0-0.1,0-0.1,0l-0.3,0.1c0,0,0,0,0,0c0,0,0,0,0,0l-0.2,0.1c0,0,0,0,0,0c0,0,0,0,0,0l-1.1,0.6
		l-0.3-0.4l-1-2.1l0.4-0.9c0,0,0,0,0-0.1c0,0,0,0,0,0l0.1-0.3c0,0,0,0,0,0c0,0,0,0,0,0l0-0.3c0,0,0,0,0,0c0,0,0,0,0,0v-0.6
		c0,0,0,0,0,0c0,0,0,0,0,0l-0.1-0.8c0,0,0,0,0,0c0,0,0,0,0,0l-0.2-1c0,0,0,0,0,0c0,0,0,0,0,0l-0.2-1c0,0,0,0,0,0c0,0,0,0,0-0.1
		c0,0,0,0,0,0c0,0,0,0,0,0c0,0,0,0,0-0.1c0,0,0,0,0,0l-1.3-1.1c0,0,0,0,0,0l0,0c0,0,0,0-0.1,0c0,0,0,0-0.1,0h0c0,0-0.1,0-0.1,0
		c0,0,0,0-0.1,0h0c0,0,0,0-0.1,0c0,0,0,0-0.1,0h0l0,0l-0.1-0.4l-0.1-1L444.2,410.2z M454.2,439.2l-1.3,1.5l-1.5,1l-1.9,0.5l-2.1-0.1
		h0l3.7-2.1l0.8-0.5l0,0l0,0l0,0l0,0c0,0,0.1,0,0.1-0.1c0,0,0,0,0,0l0,0c0,0,0-0.1,0-0.1c0,0,0,0,0-0.1l0,0c0,0,0,0,0,0c0,0,0,0,0,0
		c0,0,0-0.1,0-0.1c0,0,0,0,0,0l0,0l-0.1-0.9c0,0,0,0,0,0c0,0,0,0,0,0l-0.3-1c0,0,0,0,0,0v0l-0.3-0.8c0,0,0,0,0,0c0,0,0,0,0,0
		l-0.3-0.6l0,0l0-0.1l3.6-2c0,0,0,0,0,0c0,0,0,0,0.1-0.1c0,0,0,0,0-0.1c0,0,0,0,0-0.1c0,0,0-0.1,0-0.1c0,0,0,0,0,0l0.1-1.4
		c0,0,0,0,0,0c0,0,0,0,0-0.1c0,0,0-0.1,0-0.1c0,0,0,0,0,0c0,0,0,0,0,0c0,0,0,0,0,0l-0.5-0.7l0.4,0.4c0,0,0,0,0,0c0,0,0,0,0,0
		l0.9,0.6l0,0.7l-0.1,2.6l-0.5,2.3L454.2,439.2z M440,440.5l14.1-8.1l0,0.4l-3.8,2.1l0,0l0,0l-10.4,6L440,440.5z M437.7,431.4
		l13.8-8l0,0.1l-0.3,0.3l-0.3,0.2l-1.3,0.8l-0.6,0.3l0,0c0,0,0,0,0,0l-11.4,6.6L437.7,431.4z M436.6,429l-0.5-0.3c0,0,0,0,0,0
		c0,0,0,0,0,0l-0.7-0.2c0,0,0,0,0,0c0,0,0,0,0,0l-0.2,0l12.4-7.2l1.4-0.7l0.1,0l0.2,0l0.4,0.1l0,0l0.5,0.1l0.7,0.2L436.6,429z
		 M450.3,427.4L450.3,427.4l-0.2-0.2l0-0.2l0,0l-0.3-1.2l0.4,0.6c0,0,0,0,0,0c0,0,0,0,0,0l1.4,1.5L450.3,427.4z M422.8,404.5
		l0.9,0.5l0.7,0.5l0.4,0.3l1,1.2c0,0,0,0,0,0c0,0,0,0,0,0l0.1,0.1c0,0,0,0,0,0l-0.6,1.2c0,0,0,0,0,0c0,0,0,0,0,0l-0.2,1.1l-0.5-0.4
		l-0.1-0.1c0,0,0,0,0,0c0,0,0,0,0,0l-0.3-0.2l-0.3-0.4l-0.4-0.5c0,0,0,0,0,0s0,0,0,0l-0.2-0.2l-0.8-1.1l-0.9-1.6l0-0.1l0.3-0.7
		L422.8,404.5z M421.8,414.3l-1.1-1.2l0,0l-0.1-0.1l0-1.2h0.8l0.9,0.1l0.6,0.2l0.4,0.2l1.1,0.8c0,0,0,0,0,0c0,0,0,0,0,0l0.1,0.1
		c0,0,0,0,0,0l-0.1,1.7c0,0,0,0,0,0s0,0,0,0l0,0.1l-1.1,0.6l-0.6-0.5L421.8,414.3z M422.3,411C422.4,411,422.4,411,422.3,411
		c0.1,0,0.1,0,0.1-0.1l1.8-1l0.4,0.4l0.1,0.1l0.1,0.3l-0.2,0.8c0,0,0,0,0,0s0,0,0,0l0,0.6l-0.9-0.7c0,0,0,0,0,0c0,0,0,0,0,0
		l-0.4-0.2c0,0,0,0,0,0s0,0,0,0l-0.7-0.2C422.4,411,422.4,411,422.3,411C422.4,411,422.4,411,422.3,411L422.3,411L422.3,411z
		 M429.7,396.4C429.7,396.4,429.7,396.4,429.7,396.4l0.1,1.5c0,0,0,0,0,0c0,0,0,0,0,0l0.2,1.2c0,0,0,0,0,0v0l0.2,0.9c0,0,0,0,0,0
		c0,0,0,0,0,0l0.2,0.5c0,0,0,0,0,0s0,0,0,0l0.6,1.4l-0.5,0.3c0,0,0,0,0,0c0,0,0,0,0,0l-0.4,0.3l0,0l-0.1-0.1l-0.8-1.4c0,0,0,0,0,0
		c0,0,0,0,0,0l-0.4-0.5c0,0,0,0,0,0s0,0,0,0l-0.6-0.7c0,0,0,0,0,0s0,0,0,0l-0.9-0.9c0,0,0,0,0,0s0,0,0,0l-1-0.9l3.5-2L429.7,396.4
		C429.7,396.3,429.7,396.3,429.7,396.4L429.7,396.4z M425.1,401.9l0.2,0.3c0,0,0,0,0,0c0,0,0,0,0,0l0.5,0.9c0,0,0,0,0,0c0,0,0,0,0,0
		l0.3,0.5c0,0,0,0,0,0c0,0,0,0,0,0l0.9,1.3c0,0,0,0,0,0c0,0,0,0,0,0l0.1,0.1l0,0.1l-0.4,0.5c0,0,0,0,0,0c0,0,0,0,0,0l-0.2,0.4
		l-1-1.1c0,0,0,0,0,0c0,0,0,0,0,0l-0.4-0.3l-0.7-0.5c0,0,0,0,0,0c0,0,0,0,0,0l-1-0.5h0c0,0,0,0,0,0l-0.7-0.3L425.1,401.9z
		 M426.4,423.8L426.4,423.8l-0.8-0.3h0l0,0l-0.1,0l0,0l-0.1-0.2l-0.5-2.1c0,0,0,0,0,0s0,0,0,0l-0.1-0.2c0,0,0,0,0,0c0,0,0,0,0,0
		l-0.2-0.5l0,0l0,0l-0.3-0.7c0,0,0,0,0,0c0,0,0,0,0,0l-0.5-0.7l0,0c0,0,0,0,0,0l-0.6-0.8l0,0c0,0,0,0,0,0l-0.3-0.4l14.2-8.2l0.4,0.5
		l0,0l0.6,0.8l0.4,0.8l0,0l0.3,0.6l0.2,0.4l0.1,0.2l0.3,1.4l-10.9,6.3c0,0,0,0,0,0c0,0,0,0,0,0l-0.5,0.4c0,0,0,0,0,0s0,0,0,0
		l-0.4,0.4l0,0l0,0c0,0,0,0,0,0.1c0,0,0,0-0.1,0.1l-0.2,0.4l0,0l-0.1,0.3c0,0,0,0,0,0.1c0,0,0,0,0,0.1l0,0.2c0,0,0,0,0,0
		c0,0,0,0,0,0l-0.1,1.6L426.4,423.8z M442.5,413.4l1.5-0.8c0,0,0.1,0,0.1,0c0,0,0,0,0,0l0.2-0.2l0.5,0.4l-14.2,8.2l-0.5-0.4
		L442.5,413.4z M451.4,421.4l0.4,0.8l-14.2,8.3l-0.4-0.8L451.4,421.4z M438.5,397.6L438.5,397.6l0.8,1.7l0.5,1.3l0.3,0.8l0.1,0.5
		l0.1,1.1l-1.1-0.5c0,0,0,0,0,0c0,0,0,0,0,0l-1.5-0.4v-0.2c0,0,0,0,0,0c0,0,0,0,0-0.1l-0.2-0.8l-0.1-0.7l0-0.4v-0.8l0.1-0.9l0.3-0.9
		L438.5,397.6z M446.1,402l0,0.2l0,0v0l0.4,1.6l0.2,1.2l0,0.8l0,0.4l-0.2,0.8l-1.2-1c0,0,0,0,0,0c0,0,0,0,0,0l-1.6-1c0,0,0,0,0,0
		c0,0,0,0,0,0v0l0-0.1c0,0,0,0,0,0c0,0,0,0,0,0l0.1-1.2l0.1-0.4l0.2-0.5l0,0v0c0,0,0,0,0,0c0,0,0,0,0-0.1l0.4-0.6l0.5-0.6L446.1,402
		z M442.8,404.3l-0.6-0.4c0,0,0,0,0,0c0,0,0,0,0,0l-0.1-0.1l0.8-0.5L442.8,404.3z M436.6,401.9L436.6,401.9L436.6,401.9L436.6,401.9
		z M432.4,397.8l0.7,1.2l0,0l0.5,0.8l0.2,0.5l0.5,1.5l-1,0c0,0-0.1,0-0.1,0c0,0,0,0,0,0l0,0h0l-1,0.3l0-0.1c0,0,0,0,0,0c0,0,0,0,0,0
		l-0.7-1.5l-0.2-0.5l-0.2-0.9l-0.2-1.2l-0.1-1.3l0.6-0.1l0,0c0,0,0,0,0,0c0,0,0,0,0,0L432.4,397.8z M418,420.3L418,420.3L418,420.3
		l2.6-1.5v0.4c0,0,0,0,0,0s0,0,0,0l0,0.7c0,0,0,0,0,0c0,0,0,0,0,0l0.1,0.7c0,0,0,0,0,0c0,0,0,0,0,0l0.1,0.4l0.1,0.2c0,0,0,0,0,0
		c0,0,0,0,0,0.1l1,2.1l0,0.1l-0.4,0.3c0,0,0,0,0,0c0,0,0,0,0,0l0,0h0c0,0,0,0,0,0c0,0,0,0,0,0l-0.4,0.2l0,0l-1.4-1.8c0,0,0,0,0,0
		c0,0,0,0,0,0l-0.2-0.2l-0.3-0.3c0,0,0,0,0,0c0,0,0,0,0,0l-0.5-0.4c0,0,0,0,0,0c0,0,0,0,0,0l-0.6-0.3l-0.6-0.3L418,420.3z
		 M440.8,446l-0.1,0.2l-0.2,0.5l-0.4,0.6l-0.5,0.6l-1-0.7L440.8,446z M441.6,446.5C441.6,446.5,441.6,446.4,441.6,446.5
		C441.6,446.4,441.6,446.4,441.6,446.5l0.1-0.5c0,0,0,0,0,0c0,0,0,0,0,0l0-0.5l0.4-0.2l0.2,0.1c0,0,0,0,0,0c0,0,0,0,0.1,0l0.9,0.4
		l0.1,0.2l-2,1.2L441.6,446.5z M446.2,451.6L446.2,451.6l-0.8-1.7l-0.5-1.3l-0.2-0.8l-0.1-0.5l-0.1-1.1l1.1,0.5c0,0,0,0,0,0
		c0,0,0,0,0,0l1.5,0.3v0.1c0,0,0,0,0,0.1c0,0,0,0,0,0.1l0.3,1.5v1.3l-0.1,0.9l-0.3,0.9L446.2,451.6z M448.2,451.2
		C448.2,451.2,448.2,451.2,448.2,451.2C448.2,451.1,448.2,451.1,448.2,451.2l0.1-1.1c0,0,0,0,0,0c0,0,0,0,0,0v-1.3c0,0,0,0,0-0.1
		c0,0,0,0,0-0.1l-0.3-1.4l0.5,0.1c0,0,0.1,0,0.1,0h0.7l0.2,0.2h0c0,0,0,0,0,0l0.1,0.1l0.5,1.4c0,0,0,0,0,0c0,0,0,0,0,0l0.2,0.6
		c0,0,0,0,0,0c0,0,0,0,0,0l0.2,0.4l-2.4,1.4L448.2,451.2z M454.9,452.4l-0.1-1.1c0,0,0,0,0,0c0,0,0,0,0,0l-0.2-1.2c0,0,0,0,0,0
		c0,0,0,0,0,0l-0.2-0.9c0,0,0,0,0,0s0,0,0,0l-0.2-0.5c0,0,0,0,0,0c0,0,0,0,0,0l-0.7-1.5l0-0.1l0.4-0.1c0,0,0.1,0,0.1,0c0,0,0,0,0,0
		l0.5-0.3l0,0l0.1,0.1l0.8,1.3c0,0,0,0,0,0c0,0,0,0,0,0l0.4,0.5c0,0,0,0,0,0c0,0,0,0,0,0l0.6,0.7c0,0,0,0,0,0s0,0,0,0l0.9,0.9
		c0,0,0,0,0,0s0,0,0,0l0.5,0.4L454.9,452.4z M475.5,431L475.5,431L465,437l0-0.8l14.1-8.2l0,0.7L475.5,431z M474.1,422.8l-14.2,8.2
		l0-0.5c0,0,0,0,0,0c0,0,0,0,0,0l-0.2-0.9l0.8,0.2h0h0l0.4,0.1c0,0,0,0,0.1,0l0,0c0,0,0.1,0,0.1,0l0.6-0.1c0,0,0,0,0,0h0l0.8-0.2
		c0,0,0,0,0.1,0c0,0,0,0,0,0l11.5-6.7L474.1,422.8z M459.7,417.7l-0.6-1.1l14.3-8.2l0.6,1.1L459.7,417.7z M453.8,408.5l-0.7-0.9
		l14.2-8.2l0.7,0.9L453.8,408.5z M444.8,400.2L444.8,400.2C444.7,400.2,444.7,400.2,444.8,400.2
		C444.7,400.2,444.7,400.3,444.8,400.2l-0.2,0.2c0,0,0,0,0,0s0,0,0,0l-0.7,0.8c0,0,0,0,0,0c0,0,0,0,0,0l-0.5,0.7c0,0,0,0,0,0
		l-2.1,1.2l0-0.1l0-0.1l-0.1-1.3c0,0,0,0,0,0c0,0,0,0,0,0l-0.1-0.6c0,0,0,0,0,0c0,0,0,0,0,0l-0.3-0.8c0,0,0,0,0,0c0,0,0,0,0,0
		l-0.5-1.3c0,0,0,0,0,0c0,0,0,0,0,0l-0.7-1.5l14.2-8.2l0.7,1.5l0.5,1.2l0.2,0.9l0,0l0.1,0.5l0.1,1L444.8,400.2z M418.5,398.5
		l-0.5-0.7l14.2-8.3l0.5,0.7L418.5,398.5z M415.2,397.5L415.2,397.5l-0.3,0.2c0,0,0,0,0,0c0,0,0,0,0,0l-0.2,0.2c0,0,0,0,0,0
		c0,0,0,0,0,0l-0.1,0.1c0,0,0,0,0,0c0,0,0,0,0,0l-0.5,1.2l-1.5-1.2l-0.1-0.1l-0.1-0.1l0,0l0.1-1.9c0,0,0,0,0,0c0,0,0,0,0,0l0-0.2
		c0,0,0,0,0,0c0,0,0,0,0,0l-0.1-0.5c0,0,0,0,0,0c0,0,0,0,0,0l-0.2-0.6c0,0,0,0,0,0c0,0,0,0,0,0l-0.3-0.8c0,0,0,0,0,0c0,0,0,0,0,0
		l-0.5-1c0,0,0,0,0,0c0,0,0,0,0,0l-0.3-0.5l14.2-8.2l0.3,0.5l0.5,1l0.3,0.8l0,0c0,0,0,0,0,0l0.2,0.6l0.1,0.4l0,0.2l0,1.9l0,0v0.2
		c0,0,0,0,0,0c0,0,0,0.1,0,0.1c0,0,0,0.1,0,0.1c0,0,0,0,0,0l0.1,0.2l0,0v0c0,0,0,0,0,0c0,0,0.1,0.1,0.1,0.1l0.2,0.1l0,0l0.4,0.4
		L415.2,397.5z M402.7,392.3l0.4,0.3l0.7,0.6l0.5,0.6l0.4,0.5l0.3,0.4l0.2,0.2l1,2.1c0,0,0,0,0,0c0,0,0,0,0,0.1l0.1,0.2c0,0,0,0,0,0
		c0,0,0,0,0,0l0.2,0.1c0,0,0,0,0,0c0,0,0.1,0,0.1,0.1l0.2,0.1l0,0c0.1,0,0.1,0,0.2,0l0,0h0l0.7-0.1l0,0c0,0,0,0,0,0h0.7
		c0.1,0,0.1,0,0.2,0h0l0,0l0.2-0.1c0,0,0,0,0,0c0,0,0,0,0.1,0c0,0,0.1-0.1,0.1-0.1c0,0,0,0,0,0l0.1-0.1c0,0,0,0,0-0.1
		c0,0,0-0.1,0-0.1c0,0,0-0.1,0-0.1c0,0,0,0,0-0.1l0-0.2c0,0,0,0,0,0c0,0,0,0,0,0l-0.5-2.2l0-0.2l0-0.3l0.1-0.5l0.1-0.5l0.3-0.6
		l0.1-0.2l0.7,0.3l0.4,0.8l0.4,1l0.3,0.8l0.2,0.6l0.1,0.5l0,0.2l-0.1,1.9c0,0,0,0,0,0.1c0,0,0,0,0,0.1l0,0.2v0c0,0.1,0,0.1,0.1,0.2
		c0,0,0,0,0,0l0.1,0.2c0,0,0,0,0,0c0,0,0,0,0,0l0.1,0.2c0,0,0,0,0,0c0,0,0,0,0,0l1.7,1.3l0,0l0,0l0.2,0.1c0,0,0,0,0,0
		c0.1,0.1,0.2,0.1,0.3,0.1h0.2c0.1,0,0.2,0,0.3-0.1l0.1-0.1c0,0,0.1-0.1,0.1-0.1c0,0,0,0,0,0l0.6-1.5l0-0.1l0.2-0.1l0.2-0.1l0.4-0.1
		l0.6-0.1h0.4l0.8,1.1v1.5l-0.1,0.6l-0.1,0.4l-0.1,0.2l0,0l0,0l-1.1,0.8c0,0,0,0,0,0c0,0,0,0-0.1,0.1c0,0,0,0-0.1,0.1c0,0,0,0,0,0
		l-0.1,0.1c0,0,0,0,0,0c0,0.1,0,0.1,0,0.2c0,0,0,0,0,0v0.2c0,0,0,0,0,0c0,0,0,0.1,0,0.1c0,0,0,0.1,0,0.1c0,0,0,0,0,0l0.1,0.2
		l0.5,1.1c0,0,0,0,0,0c0,0,0,0,0,0l0.1,0.1l0.4,0.9l0.1,0.2c0,0,0,0,0,0c0,0.1,0.1,0.1,0.1,0.2l0.2,0.1c0,0,0,0,0,0
		c0,0,0.1,0,0.1,0.1l0.2,0.1l0,0c0.1,0,0.1,0,0.2,0l0,0h0l1.4-0.1l0.1,0l0.3,0.1c0,0,0,0,0,0c0,0,0,0,0,0l0.4,0.2l0.6,0.4l0.7,0.6
		l0.6,0.6l0.3,1.2l-0.2,0.2l-0.5,0.4l-0.4,0.1l-0.3,0.1h-0.4l-1.6-0.7c0,0,0,0,0,0c0,0-0.1,0-0.1,0H419h0c0,0-0.1,0-0.1,0
		c0,0-0.1,0-0.1,0h0l-0.1,0c0,0,0,0,0,0c0,0-0.1,0-0.1,0.1c0,0,0,0,0,0c-0.1,0.1-0.1,0.1-0.1,0.2l0,0.2c0,0,0,0,0,0c0,0,0,0,0,0
		l0,0.8c0,0,0,0,0,0c0,0,0,0,0,0v1.3c0,0,0,0.1,0,0.1c0,0,0,0.1,0,0.1l0.1,0.3c0,0,0,0,0,0c0,0,0,0.1,0,0.1l0.1,0.2c0,0,0,0,0,0
		c0,0,0,0,0,0l1.7,1.3l0.2,0.1l0.2,0.4c0,0,0,0,0,0c0,0,0,0,0,0l0.4,0.5l0.4,0.7l0,0l0.1,0.3l-0.9,0.5c0,0,0,0,0,0c0,0,0,0-0.1,0
		c0,0,0,0,0,0c0,0,0,0,0,0c0,0,0,0,0,0.1c0,0,0,0,0,0c0,0,0,0,0,0.1c0,0,0,0,0,0l0,0.2l-0.4-0.2l-0.3-0.3l-0.2-0.2l-1.4-1.8
		c0,0,0,0,0,0c0,0,0,0,0,0l-0.1-0.1c0,0,0,0,0,0c0,0,0,0,0,0l-0.1-0.1c0,0,0,0,0,0c0,0,0,0-0.1,0c0,0,0,0,0,0c0,0,0,0-0.1,0
		c0,0,0,0,0,0h-0.1h0c0,0-0.1,0-0.1,0c0,0,0,0-0.1,0c0,0,0,0,0,0l-0.1,0.1c0,0,0,0,0,0s0,0,0,0l-0.4,0.3l-0.2,0.1c0,0,0,0,0,0
		c0,0-0.1,0-0.1,0.1c0,0,0,0,0,0.1l0,0l-0.3,0.2c0,0,0,0-0.1,0.1c0,0,0,0-0.1,0l-0.1,0.1c0,0,0,0,0,0c0,0,0,0.1,0,0.1
		c0,0,0,0.1,0,0.1c0,0,0,0,0,0l0,0.2c0,0,0,0,0,0.1c0,0,0,0.1,0,0.1c0,0,0,0.1,0,0.1c0,0,0,0,0,0.1l0.1,0.2l1,2.1l0.1,0.3l0,0
		l0.1,0.3l0,0.2l-1.2,0.7c0,0,0,0,0,0c0,0,0,0-0.1,0c0,0,0,0,0,0c0,0,0,0,0,0.1c0,0,0,0,0,0l0,0.1l0,0l0,0l-0.5-0.7l-0.3-0.6
		l-0.2-0.4l0,0l-0.1-0.2l-0.4-1.6c0,0,0,0,0,0v0l-0.1-0.5c0,0,0,0,0,0c0,0,0,0,0,0l-0.1-0.2c0,0,0,0,0,0c0,0,0,0,0,0l-0.1-0.2
		c0,0,0,0,0,0c0,0,0,0,0,0l-0.2-0.1c0,0,0,0-0.1,0c0,0,0,0-0.1,0l-0.6-0.2c0,0,0,0,0,0c0,0,0,0,0,0l-0.1-0.1c0,0,0,0,0,0
		c0,0,0,0,0,0l-0.6-0.2c0,0,0-0.1,0-0.1c-0.2-0.2-0.5-0.2-0.6,0c0,0,0,0,0,0l-0.1,0c0,0,0,0,0,0c0,0-0.1,0-0.1,0.1c0,0,0,0-0.1,0.1
		c0,0,0,0,0,0.1c0,0,0,0.1,0,0.1c0,0,0,0,0,0l0,0.2c0,0,0,0,0,0c0,0,0,0,0,0l0,1.9l0,0.2l-0.1,0.2c0,0,0,0,0,0s0,0,0,0l-0.2,0.3
		l-0.3,0.4l-0.4,0.3l-0.2,0.1l-0.9-0.7l-0.3-0.8l-0.2-0.9l-0.1-0.8l0-0.6l0-0.3l0-0.2l0.6-1.4c0,0,0,0,0,0c0,0,0,0,0,0l0-0.2
		c0,0,0,0,0,0c0,0,0-0.1,0-0.1c0,0,0-0.1,0-0.1c0,0,0,0,0,0l-0.1-0.2c0,0,0,0,0,0c0,0,0,0,0,0l-0.1-0.2c0,0,0,0,0,0c0,0,0,0,0,0
		l-1.5-1.9l-0.1-0.2c0,0,0,0,0,0c0,0,0,0-0.1-0.1c0,0,0,0-0.1,0c0,0,0,0-0.1,0c0,0-0.1,0-0.1,0l-0.1,0c0,0,0,0-0.1,0c0,0,0,0-0.1,0
		h-0.2c0,0,0,0-0.1,0c0,0-0.1,0-0.1,0c0,0-0.1,0-0.1,0c0,0,0,0,0,0l-1.1,0.8h0h-0.6l-0.5-0.1l-0.7-0.3l0,0l-0.6-0.2l-0.6-1.3
		l0.1-0.4l0.3-0.5l0.3-0.4l0.2-0.2l0.1-0.1h0l1.5-0.1c0,0,0,0,0,0c0,0,0,0,0.1,0l0.1,0c0,0,0,0,0,0c0,0,0.1,0,0.1,0c0,0,0,0,0,0
		c0,0,0.1-0.1,0.1-0.1c0,0,0,0,0,0c0,0,0-0.1,0.1-0.2v0l0-0.2c0,0,0-0.1,0-0.1l0-0.2c0,0,0,0,0,0c0,0,0,0,0,0L405,406l0,0l-0.2-0.7
		c0,0,0,0,0,0c0,0,0,0,0,0l0-0.1l-0.2-1c0,0,0,0,0,0c0,0,0,0,0,0l-0.1-0.2c0,0,0,0,0-0.1c0,0,0,0,0-0.1l-0.1-0.2l0,0l0,0
		c0,0,0-0.1-0.1-0.1c0,0,0,0-0.1-0.1l0,0l-0.2-0.1c0,0,0,0,0,0c0,0,0,0,0,0l-1.6-0.6l-0.2-0.1l-0.3-0.3l0,0l-0.5-0.4l-0.5-0.6l0,0
		l0,0l-0.7-0.8l-0.5-0.7l0-0.9l0.2,0h0.6l0.5,0.1l0.4,0.1l0.3,0.1l0.1,0.1l0,0l1.7,1.4l0,0l0,0l0.2,0.1c0,0,0,0,0,0
		c0.1,0.1,0.2,0.1,0.3,0.1l0,0c0.1,0,0.1,0,0.2,0l0.2-0.1c0,0,0.1,0,0.1-0.1c0,0,0,0,0,0c0.1-0.1,0.1-0.1,0.1-0.2c0,0,0,0,0,0l0-0.1
		l0.3-0.6l0,0l0-0.1l0-0.1c0,0,0,0,0,0s0,0,0,0l0.2-0.6c0,0,0,0,0,0c0,0,0,0,0,0l0-0.1c0,0,0-0.1,0-0.1c0,0,0-0.1,0-0.1l0-0.3
		c0,0,0,0,0,0c0,0,0-0.1,0-0.1c0,0,0-0.1,0-0.1c0,0,0,0,0,0L405,398l0,0l-1.4-1.9c0,0,0,0,0,0c0,0,0,0,0,0l0,0v0c0,0,0,0,0,0
		c0,0,0,0,0-0.1l-0.2-0.4L403,395l-0.3-0.8l-0.2-1l0,0l-0.1-0.6L402.7,392.3z M403.1,396.9l1.3,1.7l0,0l0,0l0.1,0.1l0,0.1l0,0
		l-0.2,0.6c0,0,0,0,0,0c0,0,0,0,0,0c0,0,0,0,0,0c0,0,0,0,0,0c0,0,0,0,0,0l0,0l-0.2,0.4l-1.5-1.2l0,0l0,0l-0.2-0.1c0,0,0,0-0.1,0
		c0,0,0,0-0.1,0l-0.4-0.1h0c0,0,0,0,0,0l-0.5-0.1c0,0,0,0,0,0s0,0,0,0l-0.3-0.1L403.1,396.9z"/>
</g>
</svg>
