<svg xmlns="http://www.w3.org/2000/svg" width="66" height="66" viewBox="0 0 66 66"><g transform="translate(302 -7795)"><path d="M35.4,5.367A30.036,30.036,0,1,1,5.367,35.4,30.038,30.038,0,0,1,35.4,5.367Zm18.5,51.182a31.734,31.734,0,0,0-5.142-3.176,24.061,24.061,0,0,1-6.225,9.212A28.013,28.013,0,0,0,53.908,56.55ZM47,52.577a30.1,30.1,0,0,0-10.631-2.292V63.442C41.2,62.822,44.864,57.817,47,52.577ZM34.433,50.283A30.156,30.156,0,0,0,23.8,52.575c2.14,5.239,5.8,10.247,10.631,10.862ZM22.041,53.374A31.542,31.542,0,0,0,16.9,56.55a28.051,28.051,0,0,0,11.367,6.038,24.066,24.066,0,0,1-6.225-9.214Zm-6.569,1.835a33.385,33.385,0,0,1,5.881-3.646,48.906,48.906,0,0,1-2.576-15.189H7.322a27.988,27.988,0,0,0,8.149,18.835Zm7.652-4.44a32.1,32.1,0,0,1,11.312-2.424l0-11.971H20.714a47.089,47.089,0,0,0,2.411,14.4Zm13.249-2.424a32.158,32.158,0,0,1,11.312,2.424,47.013,47.013,0,0,0,2.408-14.4l-13.72,0Zm13.081,3.218a33.385,33.385,0,0,1,5.881,3.646,28,28,0,0,0,8.149-18.835H52.03a48.906,48.906,0,0,1-2.576,15.189ZM42.541,8.22a24.045,24.045,0,0,1,6.225,9.212,31.361,31.361,0,0,0,5.142-3.176A28.077,28.077,0,0,0,42.541,8.22Zm6.913,11.025a48.906,48.906,0,0,1,2.576,15.189H63.485A28.012,28.012,0,0,0,55.336,15.6a33.385,33.385,0,0,1-5.881,3.646ZM18.777,34.434a48.893,48.893,0,0,1,2.576-15.189A33.385,33.385,0,0,1,15.472,15.6,27.987,27.987,0,0,0,7.323,34.434l11.454,0Zm3.265-17A24.093,24.093,0,0,1,28.267,8.22,28,28,0,0,0,16.9,14.258a31.733,31.733,0,0,0,5.142,3.176ZM45.63,15.307c-2.445-4.537-5.694-7.484-9.259-7.942V20.522A30.144,30.144,0,0,0,47,18.23a30.038,30.038,0,0,0-1.372-2.923Zm-11.2-7.939C29.6,7.985,25.943,12.991,23.8,18.233a30.143,30.143,0,0,0,10.631,2.292ZM23.124,20.038a47.013,47.013,0,0,0-2.408,14.4l13.717,0V22.462a32.073,32.073,0,0,1-11.309-2.424Zm26.968,14.4a47.109,47.109,0,0,0-2.408-14.4,32.1,32.1,0,0,1-11.312,2.424V34.431Z" transform="translate(-303.867 7793.133)" fill-rule="evenodd"/><path d="M0,0H66V66H0Z" transform="translate(-302 7795)" fill="none"/></g></svg>