<svg xmlns="http://www.w3.org/2000/svg" width="48" height="56" viewBox="0 0 48 56">
  <g id="Group_14" data-name="Group 14" transform="translate(-469 -90)">
    <g id="Path_1" data-name="Path 1" transform="translate(453 79)" fill="none" fill-rule="evenodd">
      <path d="M22,11H63.02a.98.98,0,0,1,.98.98V56.75a.25.25,0,0,1-.25.25H22a6,6,0,0,0-5.995,5.75c0,.005-.005.006-.005,0V17A6,6,0,0,1,22,11Z" stroke="none"/>
      <path class="fill_secondary-color" d="M 22 14 C 20.34579086303711 14 19 15.34579086303711 19 17 L 19 54.50803756713867 C 19.93832397460938 54.1787109375 20.94810104370117 54 22 54 L 61 54 L 61 14 L 22 14 M 22 11 L 63.02040100097656 11 C 63.5614013671875 11 64 11.43860244750977 64 11.9796028137207 L 64 56.75 C 64 56.88809967041016 63.88809967041016 57 63.75 57 L 22 57 C 18.77019882202148 57 16.13639831542969 59.552001953125 16.00510025024414 62.74960327148438 C 16.0048942565918 62.75480270385742 15.99999237060547 62.75520324707031 16 62.75 L 16 17 C 16 13.68630218505859 18.68629837036133 11 22 11 Z" stroke="none" fill="#fff"/>
    </g>
    <g id="Path_2" data-name="Path 2" transform="translate(453 77)" fill="none" fill-rule="evenodd">
      <path d="M63.375,66.755A2.45,2.45,0,0,1,64,68.3v.452a.25.25,0,0,1-.25.25H22a6,6,0,0,1,0-12H63.938a.063.063,0,0,1,.063.063V57.6a2.45,2.45,0,0,1-.625,1.543,5.951,5.951,0,0,0,0,7.61Z" stroke="none"/>
      <path class="fill_secondary-color" d="M 59.53648376464844 66 C 59.18447494506836 65.02861022949219 59 63.99633026123047 59 62.95000076293945 C 59 61.93949127197266 59.17205810546875 60.94209671020508 59.50090789794922 60 L 22 60 C 20.34579086303711 60 19 61.34579086303711 19 63 C 19 64.65421295166016 20.34579086303711 66 22 66 L 59.53648376464844 66 M 63.75 69 L 22 69 C 18.68630027770996 69 16 66.31369781494141 16 63 C 16 59.68629837036133 18.68630027770996 57 22 57 L 63.9375 57 C 63.97200012207031 57 64 57.02799987792969 64 57.0625 L 64 57.60169982910156 C 64 58.17319869995117 63.7411994934082 58.7057991027832 63.3754997253418 59.14500045776367 C 62.5166015625 60.17639923095703 62 61.50289916992188 62 62.95000076293945 C 62 64.39710235595703 62.5166015625 65.72360229492188 63.3754997253418 66.75499725341797 C 63.7411994934082 67.19419860839844 64 67.72679901123047 64 68.29830169677734 L 64 68.75 C 64 68.88809967041016 63.88809967041016 69 63.75 69 Z" stroke="none" fill="#fff"/>
    </g>
    <path class="" id="Path_3" data-name="Path 3" d="M34.594,21.72a12.934,12.934,0,0,1,9.9,0h0a12.934,12.934,0,0,1,7,7h0a12.934,12.934,0,0,1,0,9.9h0a12.934,12.934,0,0,1-7,7h0a12.935,12.935,0,0,1-9.9,0h0a12.934,12.934,0,0,1-7-7h0a12.934,12.934,0,0,1,0-9.9h0a12.934,12.934,0,0,1,7-7Z" transform="translate(453.456 79.263)" fill="none" stroke="#fff" stroke-linecap="round" stroke-linejoin="round" stroke-width="4"/>
    <path class="icon-check-1" id="Path_4" data-name="Path 4" d="M44,40.931l-1.848-.765Zm0-14.519-1.848.765ZM40.379,46.579l.129,2a2,2,0,0,0,1.336-.635Zm-1.67,0L37.244,47.94a2,2,0,0,0,1.336.635ZM35.084,40.93l1.848-.765Zm0-14.519-1.848-.765h0Zm3.623-5.646-.129-2a2,2,0,0,0-1.336.635Zm1.673,0L41.845,19.4a2,2,0,0,0-1.337-.635ZM45.851,41.7a20.971,20.971,0,0,0,0-16.05l-3.7,1.531a16.97,16.97,0,0,1,0,12.988Zm-4.006,6.243A20.967,20.967,0,0,0,45.851,41.7l-3.7-1.531a16.965,16.965,0,0,1-3.242,5.053Zm-3.264.635a14.941,14.941,0,0,0,1.928,0l-.258-3.992a10.935,10.935,0,0,1-1.411,0Zm-5.344-6.88a20.964,20.964,0,0,0,4.008,6.245l2.931-2.722a16.966,16.966,0,0,1-3.243-5.054Zm0-16.05a20.97,20.97,0,0,0,0,16.05l3.7-1.531a16.97,16.97,0,0,1,0-12.989Zm4-6.241a20.966,20.966,0,0,0-4,6.241l3.7,1.531a16.967,16.967,0,0,1,3.241-5.051Zm3.268-.635a14.93,14.93,0,0,0-1.932,0l.259,3.992a10.926,10.926,0,0,1,1.414,0Zm5.342,6.878A20.967,20.967,0,0,0,41.845,19.4l-2.932,2.722a16.965,16.965,0,0,1,3.242,5.052Z" transform="translate(453.456 79.263)" fill="#fff"/>
    <path class="icon-check-1" id="Path_5" data-name="Path 5" d="M27.31,39.87H51.777v-4H27.31ZM27.48,31H51.606V27H27.48Z" transform="translate(453.456 79.263)" fill="#fff"/>
  </g>
</svg>
