<svg xmlns="http://www.w3.org/2000/svg" width="48.681" height="73.584" viewBox="0 0 48.681 73.584">
  <g id="Group_5179" data-name="Group 5179" transform="translate(-372 -207.208)">
    <path id="Path_7681" data-name="Path 7681" d="M26.164,21.42a9.914,9.914,0,0,0,4.885,11.3c-3.358-17.4,13.637-23.1,13.637-23.1-1.323,11.9,13.026,15.467,13.026,29.611A20.25,20.25,0,0,1,37.458,59.5,19.943,19.943,0,0,1,17.2,39.438C17.2,25.605,26.164,21.42,26.164,21.42Z" transform="translate(362.969 197.59)" fill="red"/>
    <g id="Group_6" data-name="Group 6" transform="translate(372 235.4)">
      <path id="Path_19" data-name="Path 19" d="M193.58,299.842a.972.972,0,0,1-.734-1.609L209.653,278.9a.972.972,0,1,1,1.468,1.273l-16.806,19.328a.957.957,0,0,1-.734.335Z" transform="translate(-183.573 -256)" fill="#fff"/>
      <path id="Path_20" data-name="Path 20" d="M107.286,239.573a.97.97,0,0,1-.642-1.7l19.3-16.855a.971.971,0,0,1,1.278,1.463l-19.3,16.855a.969.969,0,0,1-.637.238Z" transform="translate(-104.763 -203.222)" fill="#fff"/>
      <path id="Path_21" data-name="Path 21" d="M94.742,425.923a6.268,6.268,0,0,1-4.427-10.7A.973.973,0,0,1,91.69,416.6,4.323,4.323,0,1,0,97.8,422.71a.973.973,0,0,1,1.375,1.375,6.23,6.23,0,0,1-4.437,1.837Z" transform="translate(-88.477 -380.531)" fill="#fff"/>
      <path id="Path_22" data-name="Path 22" d="M325.782,44.432a12.96,12.96,0,0,1-6.1-1.531.974.974,0,1,1,.914-1.721,11.017,11.017,0,0,0,16.184-9.686l-4.024,4.024a1.535,1.535,0,0,1-1.579.374l-4.364-1.453a6.392,6.392,0,0,1-4.029-4.029l-1.458-4.379a1.54,1.54,0,0,1,.345-1.55l3.849-4.039a10.6,10.6,0,0,0-7.538,3.227,10.96,10.96,0,0,0-1.968,12.908.972.972,0,0,1-1.72.9,12.892,12.892,0,0,1,2.313-15.188,12.469,12.469,0,0,1,9.948-3.752,1.544,1.544,0,0,1,.981,2.6l-4.292,4.505L324.63,29.8a4.433,4.433,0,0,0,2.8,2.8l4.131,1.375,4.5-4.5a1.532,1.532,0,0,1,1.633-.355,1.508,1.508,0,0,1,1,1.317,12.985,12.985,0,0,1-12.9,13.992Z" transform="translate(-293.326 -18.5)" fill="#fff"/>
    </g>
  </g>
</svg>
