<svg xmlns="http://www.w3.org/2000/svg" width="38.564" height="49.295" viewBox="0 0 38.564 49.295">
  <g id="Group_96" data-name="Group 96" transform="translate(-1103.072 -492.116)">
    <path id="Path_65" data-name="Path 65" d="M40.026-96.483H4.245v-19.21H40.026ZM6.481-98.743H37.79v-14.69H6.481Z" transform="translate(1099.005 637.893)" fill="#fff"/>
    <path id="Path_66" data-name="Path 66" d="M.208.158H-5.383A1.123,1.123,0,0,1-6.5-.972V-3.8a1.124,1.124,0,0,1,1.118-1.13H.208A1.125,1.125,0,0,1,1.326-3.8V-.972A1.124,1.124,0,0,1,.208.158M-4.265-2.1H-.91v-.566H-4.265Z" transform="translate(1115.343 524.303)" fill="#fff"/>
    <path id="Path_67" data-name="Path 67" d="M.208.158H-5.383A1.122,1.122,0,0,1-6.5-.972V-3.8a1.124,1.124,0,0,1,1.118-1.13H.208A1.125,1.125,0,0,1,1.326-3.8V-.972A1.123,1.123,0,0,1,.208.158M-4.265-2.1H-.91v-.566H-4.265Z" transform="translate(1132.115 524.303)" fill="#fff"/>
    <path id="Path_68" data-name="Path 68" d="M1.091.783-34.132-5.574l3.34-18.911L4.433-18.128ZM-31.538-7.4-.718-1.838,1.837-16.3l-30.821-5.561Z" transform="translate(1137.204 518.208)" fill="#fff"/>
    <path id="Path_69" data-name="Path 69" d="M.205.187a.981.981,0,0,1-.2-.019L-5.5-.824a1.129,1.129,0,0,1-.9-1.311l.49-2.781a1.129,1.129,0,0,1,.462-.729,1.109,1.109,0,0,1,.836-.186l5.5.994A1.129,1.129,0,0,1,1.8-3.526L1.306-.745a1.133,1.133,0,0,1-.461.729,1.109,1.109,0,0,1-.64.2M-4-2.85l3.3.6.1-.556-3.3-.6Z" transform="translate(1118.119 497.963)" fill="#fff"/>
    <path id="Path_70" data-name="Path 70" d="M.205.187a.981.981,0,0,1-.2-.019L-5.5-.824a1.13,1.13,0,0,1-.9-1.311l.489-2.781a1.128,1.128,0,0,1,.461-.729,1.109,1.109,0,0,1,.836-.186l5.5.994A1.129,1.129,0,0,1,1.8-3.526L1.305-.745a1.136,1.136,0,0,1-.46.729,1.111,1.111,0,0,1-.64.2M-4-2.849l3.3.6.1-.556-3.3-.6Z" transform="translate(1134.63 500.942)" fill="#fff"/>
  </g>
</svg>
