<svg xmlns="http://www.w3.org/2000/svg" width="48.494" height="48.476" viewBox="0 0 48.494 48.476">
  <g id="Group_95" data-name="Group 95" transform="translate(-795.753 -492.29)">
    <g id="Group_94" data-name="Group 94" transform="translate(722 482)">
      <path id="Path_64" data-name="Path 64" d="M3.015,7.259l.106-.052.115.027a21.912,21.912,0,0,0,5.09.6A22.017,22.017,0,0,0,30.318-14.153a22.07,22.07,0,0,0-.61-5.131l-.027-.114.051-.106c3.583-7.323,3.794-13.366.579-16.581-3.166-3.166-9.178-2.962-16.491.56l-.107.051L13.6-35.5a22,22,0,0,0-5.273-.643,21.806,21.806,0,0,0-15.9,6.792,1.413,1.413,0,0,0,.051,2.105,1.414,1.414,0,0,0,2.109-.04A18.844,18.844,0,0,1,8.326-33.156h.062l1.08.043-.887.565C-3.421-25.2-14.589-10.306-15.806-.034c-.406,3.427.316,6.092,2.145,7.92,3.229,3.23,9.307,3,16.676-.627M20.388.52A18.994,18.994,0,0,1,15.338,3.5l-1.412.563,1.055-1.094a27.311,27.311,0,0,0,3.09-3.837l.156-.236.256.119c.646.3,1.271.627,1.859.966l.409.236Zm6.85-12.82A18.9,18.9,0,0,1,23.077-2.191l-.182.225L22.65-2.12A27.3,27.3,0,0,0,20-3.577L19.7-3.718l.138-.294a23.474,23.474,0,0,0,2.212-8.344l.021-.3h5.2Zm-5.181-3.348-.025-.3a23.512,23.512,0,0,0-2.285-8.3l-.144-.3.3-.142a27.231,27.231,0,0,0,2.748-1.5l.245-.153.182.225a18.888,18.888,0,0,1,4.162,10.11l.034.359ZM18.5-34.264c4.433-1.544,7.968-1.437,9.7.291h0c1.744,1.746,1.85,5.3.289,9.747l-.253.717-.347-.676a22,22,0,0,0-9.431-9.481l-.672-.35ZM14.982-31.95a18.959,18.959,0,0,1,5.4,3.123l.365.3-.409.237c-.622.359-1.291.7-1.985,1.023l-.253.117-.156-.231a27.611,27.611,0,0,0-3.314-4.031l-1.055-1.063ZM9.821-29.794l.146-.1c.347-.228.692-.452,1.034-.666l.214-.134.184.171a25.819,25.819,0,0,1,3.529,4.069l.265.381-.446.123a24.074,24.074,0,0,1-4.575.8l-.352.026Zm0,7.663.306-.02a27.012,27.012,0,0,0,6.352-1.193l.269-.084.124.252a21.431,21.431,0,0,1,2.145,7.165l.04.364H9.821Zm0,9.471h9.255l-.031.356a20.5,20.5,0,0,1-2,7.226l-.125.257-.27-.088a26.992,26.992,0,0,0-6.522-1.248l-.306-.02Zm0,9.471.352.027a24.155,24.155,0,0,1,4.735.846l.448.127-.272.379a25.521,25.521,0,0,1-4.73,4.966l-.533.431ZM1.455,3.558A19.084,19.084,0,0,1-3.735.52L-4.1.219l.41-.237c.6-.347,1.244-.679,1.9-.986l.255-.118.156.233A27.23,27.23,0,0,0,1.809,3.024L2.871,4.108ZM6.83,3.485,6.3,3.054A25.559,25.559,0,0,1,1.629-1.825L1.353-2.2l.452-.127A24.053,24.053,0,0,1,6.478-3.16l.352-.027Zm0-9.662-.307.02A27.009,27.009,0,0,0,.045-4.923l-.269.087L-.349-5.09A20.549,20.549,0,0,1-2.384-12.3l-.033-.357H6.832ZM4.659-25.906c.548-.463,1.1-.905,1.643-1.333l.529-.416v2.533l-.352-.027c-.571-.044-1.128-.1-1.657-.182L4.1-25.437Zm-7.043,9.9a20.128,20.128,0,0,1,.718-3.767l.021-.074.051-.057c.659-.717,2.6-2.685,2.874-2.952l.131-.126.177.045a27.232,27.232,0,0,0,4.936.787l.306.02v6.481H-2.417ZM-9.76-8.629C-9.083-9.9-8.3-11.21-7.433-12.513l.1-.146h1.92l.024.3A23.439,23.439,0,0,0-3.154-4.031l.14.3-.295.14A27.182,27.182,0,0,0-6-2.115l-.245.153-.182-.225a18.783,18.783,0,0,1-3.351-6.19l-.042-.131Zm-2.054,4.621.251-.716.349.673A22.247,22.247,0,0,0-1.658,5.425l.677.346-.716.255a17.376,17.376,0,0,1-5.69,1.137,5.715,5.715,0,0,1-4.159-1.39c-1.738-1.737-1.834-5.3-.266-9.781" transform="translate(89.668 48.611)" fill="#fff"/>
    </g>
  </g>
</svg>
