<svg xmlns="http://www.w3.org/2000/svg" width="57.218" height="46.337" viewBox="0 0 57.218 46.337">
  <g id="Group_97" data-name="Group 97" transform="translate(-1383.391 -495.314)">
    <path id="Path_80" data-name="Path 80" d="M.475,3.1V-9.543c0-.046.006-.093.006-.14.013-.226.04-.066-.012.034A2.733,2.733,0,0,0,.548-10c.027-.1.073-.193.1-.293.04-.146-.04.127-.046.113a.8.8,0,0,1,.079-.16,2.149,2.149,0,0,1,.18-.3.764.764,0,0,1,.1-.146c.006,0-.221.252-.048.066.067-.073.134-.152.207-.219.013-.013.2-.213.226-.2.007,0-.233.16-.06.054.06-.04.121-.08.187-.119.087-.054.18-.1.267-.146.2-.113-.24.079.046-.021a2.973,2.973,0,0,1,.346-.1,1.026,1.026,0,0,1,.133-.027c.293-.066-.213.007-.04,0,.146-.006.294-.013.44-.013H39.714a2.652,2.652,0,0,0,.325.021c-.219.033-.212-.04-.087-.007.073.021.148.034.221.048.1.026.2.06.3.093.221.067-.219-.119.048.02.087.048.179.094.266.148.046.033.1.066.146.093.24.154-.14-.133-.027-.02.054.052.486.393.46.466-.006.013-.152-.227-.073-.093.027.052.067.093.1.146.073.113.127.226.193.346.113.2-.087-.26.021.046a2.777,2.777,0,0,1,.087.3c.013.06.079.379.04.179s-.007,0,0,.054c.006.079.006.152.006.233V7.934c0,1.2.013,2.4,0,3.589,0,.06.02.352-.02.372-.007,0,.066-.346.006-.087-.006.048-.02.087-.027.134-.033.133-.073.26-.113.385-.073.221.121-.219-.02.048-.046.087-.093.179-.146.266a1.111,1.111,0,0,0-.094.146c-.106.173.048-.066.054-.06.013.033-.206.233-.233.26-.073.073-.16.133-.227.206-.113.127.213-.133.06-.046-.052.027-.093.067-.146.1-.087.054-.173.106-.266.154-.021.013-.154.079-.16.079s.279-.1.073-.033c-.113.04-.227.073-.34.106-.052.013-.4.087-.179.04s-.133.006-.194.006H7.351A1.345,1.345,0,0,0,6.02,14.931a1.359,1.359,0,0,0,1.331,1.331h30.2a15.177,15.177,0,0,0,3.208-.127,4.783,4.783,0,0,0,3.649-4.607c.006-.366,0-.739,0-1.106V-9.043a5.16,5.16,0,0,0-.739-2.916,4.823,4.823,0,0,0-4.048-2.191c-.931-.007-1.87,0-2.8,0H2.606a4.8,4.8,0,0,0-4.108,2.3A5.684,5.684,0,0,0-2.168-8.77v11.9A1.344,1.344,0,0,0-.837,4.465,1.408,1.408,0,0,0,.475,3.1" transform="translate(1396.199 509.466)" fill="#fff"/>
    <path id="Path_81" data-name="Path 81" d="M1.369.239V8.668L2.7,7.337H-4.916c.445.446.885.885,1.331,1.331V.239c-.446.446-.886.885-1.331,1.331H2.7A1.344,1.344,0,0,0,4.032.239,1.358,1.358,0,0,0,2.7-1.092H-4.916A1.353,1.353,0,0,0-6.248.239V8.668A1.353,1.353,0,0,0-4.916,10H2.7A1.353,1.353,0,0,0,4.032,8.668V.239a1.332,1.332,0,0,0-2.664,0" transform="translate(1418.406 524.137)" fill="#fff"/>
    <path id="Path_82" data-name="Path 82" d="M.239.479H17.875A1.344,1.344,0,0,0,19.206-.853a1.357,1.357,0,0,0-1.331-1.332H.239A1.344,1.344,0,0,0-1.092-.853,1.352,1.352,0,0,0,.239.479" transform="translate(1408.903 533.658)" fill="#fff"/>
    <path id="Path_83" data-name="Path 83" d="M2.635,1.557c0,.187-.006.373-.02.552-.007.094-.021.18-.027.273-.027.319.06-.306,0,.007a8.161,8.161,0,0,1-.28,1.125c-.013.039-.1.4-.152.412.02-.052.046-.106.066-.152a1.675,1.675,0,0,1-.073.16c-.033.079-.073.16-.113.239a6.7,6.7,0,0,1-.585.965c-.02.027-.033.046-.054.073-.087.113-.066.094.054-.06,0,.046-.133.167-.167.2a4.33,4.33,0,0,1-.293.319c-.119.127-.246.246-.373.366C.552,6.1.491,6.15.425,6.21l-.133.113C.179,6.41.2,6.4.358,6.277c-.013.08-.352.254-.425.3-.146.093-.294.187-.446.266-.127.073-.26.14-.386.2-.054.027-.179.113-.24.106.187-.079.207-.087.074-.033-.054.021-.113.04-.167.06a6.564,6.564,0,0,1-1.033.286c-.085.021-.179.033-.266.046-.313.061.313-.026-.006,0-.187.021-.367.034-.553.04a8.531,8.531,0,0,1-1.1-.04c-.319-.026.306.061-.007,0-.087-.02-.179-.033-.266-.046-.194-.04-.379-.087-.566-.14-.154-.046-.313-.093-.467-.146-.033-.013-.239-.066-.246-.093.054.02.107.046.154.066a1.438,1.438,0,0,1-.16-.073,7.186,7.186,0,0,1-.992-.552c-.054-.04-.346-.187-.352-.252.046.033.087.066.133.1-.046-.033-.094-.073-.133-.106-.067-.054-.134-.113-.2-.166a6.739,6.739,0,0,1-.779-.813c-.021-.02-.033-.046-.054-.066-.087-.113-.073-.094.046.066-.033-.006-.133-.179-.152-.212-.08-.121-.16-.24-.24-.367-.093-.146-.179-.3-.26-.452-.04-.08-.079-.154-.119-.233-.027-.054-.046-.107-.073-.16-.06-.134-.046-.107.033.073-.067-.021-.16-.427-.179-.5-.054-.166-.1-.339-.148-.512-.033-.148-.066-.294-.093-.44A.426.426,0,0,1-9.329,2.4c-.02-.146-.02-.119.007.087a.923.923,0,0,1-.034-.366A7.692,7.692,0,0,1-9.355,1c.007-.094.021-.18.027-.273.027-.319-.06.306,0-.007.033-.179.067-.352.106-.533A4.318,4.318,0,0,1-9.075-.32c.02-.073.112-.473.179-.5-.02.054-.046.107-.067.154.021-.054.048-.106.074-.16.033-.08.073-.16.112-.24.094-.179.194-.36.3-.533.073-.126.154-.246.24-.366.02-.033.119-.206.152-.213-.033.046-.066.087-.1.133.034-.046.074-.093.107-.133A7.891,7.891,0,0,1-7.3-2.99c.066-.06.133-.113.2-.167.026-.02.252-.173.066-.06s.054-.033.073-.052c.073-.054.14-.1.213-.148a7.621,7.621,0,0,1,.992-.552A.364.364,0,0,1-5.674-4c.134-.06.107-.046-.073.033.007-.027.219-.079.246-.093.14-.054.28-.094.419-.14.173-.054.346-.093.519-.133.087-.021.18-.034.267-.054.06-.013.119-.02.179-.027-.206.027-.233.034-.087.013A8.865,8.865,0,0,1-3.1-4.442c.152.007.306.013.46.034.033,0,.06.006.093.006.146.021.119.013-.087-.013.027-.027.313.054.354.06a8.331,8.331,0,0,1,1.191.346c.293.107-.273-.126.007,0,.093.04.187.087.279.134.167.087.333.173.5.273s.346.212.512.333l.073.052c.113.087.094.067-.06-.052.067,0,.219.179.266.219a7.425,7.425,0,0,1,.792.8c.027.033.16.16.167.2-.119-.154-.133-.173-.054-.06.034.046.067.093.1.14.113.166.227.339.327.512s.2.36.286.539c.026.054.112.18.106.24-.073-.167-.087-.206-.054-.113.013.04.034.08.046.127a6.979,6.979,0,0,1,.334,1.2A1.06,1.06,0,0,1,2.589.8C2.562.592,2.554.565,2.575.711c.006.061.013.121.02.18a4.558,4.558,0,0,1,.04.666,1.332,1.332,0,0,0,2.664,0A8.776,8.776,0,0,0-.448-6.6a8.68,8.68,0,0,0-9.54,2.576A8.854,8.854,0,0,0-12,.957a8.6,8.6,0,0,0,1.212,5.06A8.62,8.62,0,0,0-7.052,9.393a8.936,8.936,0,0,0,5.453.646,8.686,8.686,0,0,0,6.771-7.03A9.728,9.728,0,0,0,5.3,1.557,1.338,1.338,0,0,0,3.966.226,1.356,1.356,0,0,0,2.635,1.557" transform="translate(1401.408 517.959)" fill="#fff"/>
    <path id="Path_84" data-name="Path 84" d="M5.263,2.63a14.582,14.582,0,0,0-2.65-8.388A15,15,0,0,0-4.4-11.138,14.727,14.727,0,0,0-20.587-6.791,14.861,14.861,0,0,0-24.03,2.63,1.353,1.353,0,0,0-22.7,3.961H.649c1.073,0,2.158.027,3.229,0h.046A1.342,1.342,0,0,0,5.263,2.63,1.357,1.357,0,0,0,3.932,1.3H-19.416c-1.072,0-2.156-.046-3.229,0h-.046L-21.36,2.63c0-.34.013-.679.04-1.025.013-.167.027-.333.046-.506.013-.127-.033-.26-.006.033a1.677,1.677,0,0,1,.054-.36,13.364,13.364,0,0,1,.466-1.918c.1-.306.213-.612.333-.918.093-.227-.033.06-.033.073-.007-.046.087-.194.106-.24.073-.16.146-.319.227-.472A13,13,0,0,1-19.089-4.42a1.717,1.717,0,0,1,.26-.354c-.034.046-.067.087-.1.133.033-.046.073-.093.106-.133a1.07,1.07,0,0,1,.113-.133q.329-.4.7-.779c.221-.227.453-.453.692-.666.107-.1.221-.194.327-.286.067-.054.133-.113.2-.167l.1-.079c.079-.06.046-.033-.1.073a1.741,1.741,0,0,1,.419-.306c.119-.087.239-.167.36-.246.293-.194.592-.373.9-.54.26-.139.519-.273.785-.4.08-.04.161-.073.24-.107.279-.127-.279.113.007-.006.166-.067.325-.133.492-.194A13.756,13.756,0,0,1-11.7-9.141l.533-.1c.06-.007.119-.021.179-.027.319-.048-.313.033.006,0,.367-.04.733-.073,1.106-.087a13.85,13.85,0,0,1,2.037.087c.319.033-.306-.048.007,0,.06.006.119.02.179.027.18.026.36.06.533.1.327.067.646.14.958.234s.627.187.933.3c.14.054.279.1.413.16.026.013.052.021.079.034.133.052.107.046-.073-.034.067-.006.219.094.279.127a13.122,13.122,0,0,1,1.725.952c.119.08.24.16.36.246a1.83,1.83,0,0,1,.419.306c-.013-.02-.246-.2-.067-.046.067.054.134.107.2.167.133.113.267.226.393.339A13.448,13.448,0,0,1-.143-4.953c.048.052.094.112.14.166s.073.094.107.133c-.121-.152-.134-.173-.048-.06.107.14.207.28.306.427.207.3.4.606.586.918s.354.64.513.973c.039.079.073.16.112.239.054.113.18.246.007.007a2.445,2.445,0,0,1,.213.533A13.442,13.442,0,0,1,2.388.539a2.181,2.181,0,0,1,.093.586c.027-.254-.027-.2-.013-.08s.027.246.04.367c.033.4.054.8.054,1.2a1.352,1.352,0,0,0,2.7.013" transform="translate(1407.421 537.678)" fill="#fff"/>
    <path id="Path_85" data-name="Path 85" d="M.522,2.221C1.112.974,1.7-.273,2.286-1.525L5.1-7.491l.642-1.364c.236-.511-.28-1.14-1.034-1.258A1.673,1.673,0,0,0,2.892-9.4Q2.005-7.525,1.128-5.65-.278-2.667-1.685.315-2.005,1-2.327,1.68c-.236.511.28,1.14,1.033,1.257A1.671,1.671,0,0,0,.522,2.221" transform="translate(1414.618 517.189)" fill="#fff"/>
    <path id="Path_86" data-name="Path 86" d="M.522,3.037C1.112,1.79,1.7.542,2.286-.709,3.224-2.7,6.6-9.223,7.537-11.212l.642-1.364c.236-.512-.28-1.14-1.034-1.258a1.671,1.671,0,0,0-1.815.716c-.591,1.247-3.619,7.031-4.2,8.283Q-.278-1.852-1.685,1.13q-.32.682-.641,1.365c-.236.511.28,1.14,1.033,1.257A1.671,1.671,0,0,0,.522,3.037" transform="translate(1424.824 513.566)" fill="#fff"/>
    <path id="Path_87" data-name="Path 87" d="M.705,1.717C.115.47-.476-.777-1.059-2.029-2-4.017-1.582-3.2-2.519-5.187q-.322-.682-.642-1.365c-.236-.511.28-1.14,1.033-1.257a1.67,1.67,0,0,1,1.816.716C.277-5.846.869-4.6,1.451-3.347c.937,1.988.523,1.169,1.462,3.157q.32.682.641,1.365c.236.511-.28,1.14-1.033,1.257A1.671,1.671,0,0,1,.705,1.717" transform="translate(1421.2 514.886)" fill="#fff"/>
    <path id="Path_88" data-name="Path 88" d="M.705,1.717C.115.47-.476-.777-1.059-2.029-2-4.017-1.582-3.2-2.519-5.187q-.322-.682-.642-1.365c-.236-.511.28-1.14,1.033-1.257a1.67,1.67,0,0,1,1.816.716C.277-5.846.869-4.6,1.451-3.347c.937,1.988.523,1.169,1.462,3.157q.32.682.641,1.365c.236.511-.28,1.14-1.033,1.257A1.671,1.671,0,0,1,.705,1.717" transform="translate(1411.334 517.694)" fill="#fff"/>
  </g>
</svg>
