<svg xmlns="http://www.w3.org/2000/svg" width="49.82" height="58.476" viewBox="0 0 49.82 58.476"><g transform="translate(-1094.59 -700.524)"><g transform="translate(1095.59 700.524)"><text transform="translate(11 21)" fill="#fff" font-size="20" font-family="OpenSans-Light, Open Sans" font-weight="300"><tspan class="fill_secondary-color" x="-11.416" y="0">+</tspan></text></g><g transform="translate(1096.16 720.38)"><path class="fill_secondary-color" d="M90.543,121c4.06,0,7.241,2.12,7.241,4.827s-3.181,4.827-7.241,4.827-7.241-2.12-7.241-4.827S86.483,121,90.543,121Zm0,7.242c2.764,0,4.828-1.275,4.828-2.415s-2.065-2.415-4.828-2.415-4.828,1.275-4.828,2.415S87.78,128.244,90.543,128.244Z" transform="translate(-83.302 -106.519)" fill="#fff"/><path class="fill_secondary-color" d="M152.143,94.6c4.06,0,7.241,2.12,7.241,4.827s-3.181,4.827-7.241,4.827-7.241-2.12-7.241-4.827S148.083,94.6,152.143,94.6Zm0,7.242c2.763,0,4.828-1.275,4.828-2.415s-2.065-2.415-4.828-2.415-4.828,1.275-4.828,2.415S149.38,101.844,152.143,101.844Z" transform="translate(-128.004 -87.361)" fill="#fff"/><path class="fill_secondary-color" d="M84.509,160.6a1.206,1.206,0,0,1,1.206,1.206c0,1.14,2.065,2.414,4.828,2.414s4.828-1.275,4.828-2.414a1.206,1.206,0,0,1,2.413,0v7.242c0,2.707-3.181,4.827-7.241,4.827s-7.241-2.12-7.241-4.827v-7.242A1.206,1.206,0,0,1,84.509,160.6Zm6.035,6.033a9.583,9.583,0,0,1-4.828-1.2v3.616c0,1.14,2.065,2.414,4.828,2.414s4.828-1.275,4.828-2.414v-3.616A9.583,9.583,0,0,1,90.543,166.636Z" transform="translate(-83.302 -135.257)" fill="#fff"/><path class="fill_secondary-color" d="M84.509,134.2a1.206,1.206,0,0,1,1.206,1.206c0,1.14,2.065,2.415,4.828,2.415s4.828-1.275,4.828-2.415a1.206,1.206,0,0,1,2.413,0v7.242c0,2.707-3.181,4.827-7.241,4.827s-7.241-2.12-7.241-4.827v-7.242A1.206,1.206,0,0,1,84.509,134.2Zm6.035,6.033a9.583,9.583,0,0,1-4.828-1.2v3.616c0,1.14,2.065,2.414,4.828,2.414s4.828-1.275,4.828-2.414v-3.616A9.583,9.583,0,0,1,90.543,140.236Z" transform="translate(-83.302 -116.098)" fill="#fff"/><path class="fill_secondary-color" d="M146.109,160.6a1.206,1.206,0,0,1,1.206,1.206c0,1.14,2.065,2.414,4.828,2.414s4.828-1.275,4.828-2.414a1.206,1.206,0,0,1,2.413,0v7.242c0,2.707-3.181,4.827-7.241,4.827s-7.241-2.12-7.241-4.827v-7.242A1.206,1.206,0,0,1,146.109,160.6Zm6.035,6.033a9.583,9.583,0,0,1-4.828-1.2v3.616c0,1.14,2.065,2.414,4.828,2.414s4.828-1.275,4.828-2.414v-3.616A9.583,9.583,0,0,1,152.143,166.636Z" transform="translate(-128.004 -135.257)" fill="#fff"/><path class="fill_secondary-color" d="M146.109,134.2a1.206,1.206,0,0,1,1.206,1.206c0,1.14,2.065,2.415,4.828,2.415s4.828-1.275,4.828-2.415a1.206,1.206,0,1,1,2.413,0v7.242c0,2.707-3.181,4.827-7.241,4.827s-7.241-2.12-7.241-4.827v-7.242A1.206,1.206,0,0,1,146.109,134.2Zm6.035,6.033a9.583,9.583,0,0,1-4.828-1.2v3.616c0,1.14,2.065,2.414,4.828,2.414s4.828-1.275,4.828-2.414v-3.616A9.583,9.583,0,0,1,152.143,140.236Z" transform="translate(-128.004 -116.098)" fill="#fff"/><path class="fill_secondary-color" d="M146.109,107.8a1.206,1.206,0,0,1,1.206,1.206c0,1.14,2.065,2.415,4.828,2.415s4.828-1.275,4.828-2.415a1.206,1.206,0,1,1,2.413,0v7.242c0,2.707-3.181,4.827-7.241,4.827s-7.241-2.12-7.241-4.827v-7.242A1.206,1.206,0,0,1,146.109,107.8Zm6.035,6.033a9.583,9.583,0,0,1-4.828-1.2v3.616c0,1.14,2.065,2.414,4.828,2.414s4.828-1.275,4.828-2.414v-3.616A9.583,9.583,0,0,1,152.143,113.836Z" transform="translate(-128.004 -96.94)" fill="#fff"/><path class="fill_secondary-color" d="M207.709,160.6a1.206,1.206,0,0,1,1.206,1.206c0,1.14,2.053,2.414,4.8,2.414,2.764,0,4.828-1.275,4.828-2.414a1.206,1.206,0,0,1,2.413,0v7.242c0,2.707-3.181,4.827-7.241,4.827-4.045,0-7.214-2.12-7.214-4.827v-7.242A1.206,1.206,0,0,1,207.709,160.6Zm6.007,10.862c2.764,0,4.828-1.275,4.828-2.414v-3.616a10.271,10.271,0,0,1-9.629.005v3.61C208.915,170.19,210.968,171.465,213.716,171.465Z" transform="translate(-172.707 -135.257)" fill="#fff"/><path class="fill_secondary-color" d="M207.709,134.2a1.206,1.206,0,0,1,1.206,1.206c0,1.14,2.053,2.415,4.8,2.415,2.764,0,4.828-1.275,4.828-2.415a1.206,1.206,0,0,1,2.413,0v7.242c0,2.707-3.181,4.827-7.241,4.827-4.045,0-7.214-2.12-7.214-4.827v-7.242A1.206,1.206,0,0,1,207.709,134.2Zm6.007,10.862c2.764,0,4.828-1.275,4.828-2.414v-3.616a10.271,10.271,0,0,1-9.629.005v3.61C208.915,143.79,210.968,145.065,213.716,145.065Z" transform="translate(-172.707 -116.098)" fill="#fff"/><path class="fill_secondary-color" d="M207.709,107.8a1.206,1.206,0,0,1,1.206,1.206c0,1.14,2.053,2.415,4.8,2.415,2.764,0,4.828-1.275,4.828-2.415a1.206,1.206,0,0,1,2.413,0v7.242c0,2.707-3.181,4.827-7.241,4.827-4.045,0-7.214-2.12-7.214-4.827v-7.242A1.206,1.206,0,0,1,207.709,107.8Zm6.007,10.862c2.764,0,4.828-1.275,4.828-2.414v-3.616a10.271,10.271,0,0,1-9.629.005v3.61C208.915,117.39,210.968,118.665,213.716,118.665Z" transform="translate(-172.707 -96.94)" fill="#fff"/><path class="fill_secondary-color" d="M207.709,81.4a1.206,1.206,0,0,1,1.206,1.206c0,1.14,2.053,2.414,4.8,2.414,2.764,0,4.828-1.275,4.828-2.414a1.206,1.206,0,0,1,2.413,0V89.85c0,2.707-3.181,4.827-7.241,4.827-4.045,0-7.214-2.12-7.214-4.827V82.609A1.206,1.206,0,0,1,207.709,81.4Zm6.007,10.862c2.764,0,4.828-1.275,4.828-2.415V86.235a10.271,10.271,0,0,1-9.629.005v3.61C208.915,90.99,210.968,92.265,213.716,92.265Z" transform="translate(-172.707 -77.782)" fill="#fff"/><path class="fill_secondary-color" d="M213.716,68.2c4.06,0,7.241,2.12,7.241,4.827s-3.181,4.827-7.241,4.827a9.565,9.565,0,0,1-4.871-1.233,4.317,4.317,0,0,1-2.343-3.595C206.5,70.323,209.671,68.2,213.716,68.2Zm0,7.242c2.764,0,4.828-1.275,4.828-2.415s-2.065-2.414-4.828-2.414h0c-2.748,0-4.8,1.275-4.8,2.415a2.027,2.027,0,0,0,1.175,1.528A7.239,7.239,0,0,0,213.716,75.444Z" transform="translate(-172.707 -68.202)" fill="#fff"/></g></g></svg>