<svg xmlns="http://www.w3.org/2000/svg" width="20" height="20" viewBox="0 0 18.197 18.2"><g transform="translate(4624.099 -2616.899)"><g transform="translate(-14538.038 -6054.561)"><path class="fill_main-color" d="M19.842,31.914l-.763,2.668a2.055,2.055,0,0,0,2.539,2.539l2.671-.763.1.044a9.008,9.008,0,0,0,3.713.8A9.1,9.1,0,1,0,19,28.1a9.008,9.008,0,0,0,.8,3.713ZM21.5,31.3a7.355,7.355,0,1,1,3.4,3.4,1.333,1.333,0,0,0-.948-.079l-2.824.813a.294.294,0,0,1-.373-.373l.807-2.821a1.332,1.332,0,0,0-.068-.951Z" transform="translate(9894.939 8652.46)" fill="#fff"/></g><path class="fill_main-color" d="M11.424,8.228a1.2,1.2,0,0,0-1.2,1.2v.3a.864.864,0,1,1-1.728,0v-.3A2.924,2.924,0,0,1,11.424,6.5h.042a2.875,2.875,0,0,1,1.051,5.551l-.194.076a.273.273,0,0,0-.173.254v.168a.864.864,0,0,1-1.728,0v-.168a2,2,0,0,1,1.27-1.863l.194-.076a1.147,1.147,0,0,0-.419-2.214Zm-.115,6.049a.864.864,0,1,1-.864.864A.864.864,0,0,1,11.309,14.278Z" transform="translate(-4626.541 2614.746)" fill="#fff" fill-rule="evenodd"/></g></svg>