<?xml version="1.0" encoding="utf-8"?>
<!-- Generator: Adobe Illustrator 23.1.0, SVG Export Plug-In . SVG Version: 6.00 Build 0)  -->
<svg version="1.2" baseProfile="tiny" id="Layer_1" xmlns="http://www.w3.org/2000/svg" xmlns:xlink="http://www.w3.org/1999/xlink"
	 x="0px" y="0px" viewBox="0 0 86 86" xml:space="preserve">
<g>
	<g>
		<path fill="#000000" d="M998.8,660.8h-15.4c-0.5,0-0.9-0.2-1.1-0.6l-7.7-12.8c-0.2-0.4-0.2-0.9,0-1.3l7.7-12.8
			c0.2-0.4,0.6-0.6,1.1-0.6h3.8v2.6h-3.1l-6.9,11.5l6.9,11.5H998l6.9-11.5l-6.9-11.5h-3.1v-2.6h3.8c0.5,0,0.9,0.2,1.1,0.6l7.7,12.8
			c0.2,0.4,0.2,0.9,0,1.3l-7.7,12.8C999.6,660.6,999.2,660.8,998.8,660.8z"/>
		<rect x="989.8" y="632.6" fill="#000000" width="2.6" height="2.6"/>
		<rect x="1034.7" y="632.6" fill="#000000" width="2.6" height="2.6"/>
		<path fill="#000000" d="M1043,635.2h-3.2v-2.6h2.5l6.3-10.3l-6.3-10.3h-12.7l-6.3,10.3l6.3,10.3h2.5v2.6h-3.2
			c-0.4,0-0.9-0.2-1.1-0.6l-7.1-11.5c-0.3-0.4-0.3-0.9,0-1.3l7.1-11.5c0.2-0.4,0.6-0.6,1.1-0.6h14.1c0.4,0,0.9,0.2,1.1,0.6l7.1,11.5
			c0.3,0.4,0.3,0.9,0,1.3l-7.1,11.5C1043.9,634.9,1043.4,635.2,1043,635.2z"/>
		<path fill="#000000" d="M1021.8,650.6c-2.1,0-3.8-1.7-3.8-3.8s1.7-3.8,3.8-3.8s3.8,1.7,3.8,3.8S1024,650.6,1021.8,650.6z
			 M1021.8,645.4c-0.7,0-1.3,0.6-1.3,1.3c0,0.7,0.6,1.3,1.3,1.3c0.7,0,1.3-0.6,1.3-1.3C1023.1,646,1022.6,645.4,1021.8,645.4z"/>
		<rect x="1010.3" y="645.4" fill="#000000" width="5.1" height="2.6"/>
		
			<rect x="1023.4" y="638.4" transform="matrix(0.5547 -0.8321 0.8321 0.5547 -75.4825 1138.304)" fill="#000000" width="4.6" height="2.6"/>
	</g>
</g>
<g>
	<g>
		<path fill="#000000" d="M28.4,67.8H13c-0.5,0-0.9-0.2-1.1-0.6L4.2,54.3C4,53.9,4,53.4,4.2,53l7.7-12.8c0.2-0.4,0.6-0.6,1.1-0.6
			h3.8v2.6h-3.1L6.8,53.7l6.9,11.5h13.9l6.9-11.5l-6.9-11.5h-3.1v-2.6h3.8c0.5,0,0.9,0.2,1.1,0.6L37.2,53c0.2,0.4,0.2,0.9,0,1.3
			l-7.7,12.8C29.3,67.6,28.9,67.8,28.4,67.8z"/>
		<rect x="19.4" y="39.6" fill="#000000" width="2.6" height="2.6"/>
		<rect x="64.3" y="39.6" fill="#000000" width="2.6" height="2.6"/>
		<path fill="#000000" d="M72.6,42.1h-3.2v-2.6h2.5l6.3-10.3l-6.3-10.3H59.3L53,29.3l6.3,10.3h2.5v2.6h-3.2c-0.4,0-0.9-0.2-1.1-0.6
			L50.4,30c-0.3-0.4-0.3-0.9,0-1.3l7.1-11.5c0.2-0.4,0.6-0.6,1.1-0.6h14.1c0.4,0,0.9,0.2,1.1,0.6l7.1,11.5c0.3,0.4,0.3,0.9,0,1.3
			l-7.1,11.5C73.5,41.9,73.1,42.1,72.6,42.1z"/>
		<path fill="#000000" d="M51.5,57.5c-2.1,0-3.8-1.7-3.8-3.8c0-2.1,1.7-3.8,3.8-3.8c2.1,0,3.8,1.7,3.8,3.8
			C55.3,55.8,53.6,57.5,51.5,57.5z M51.5,52.4c-0.7,0-1.3,0.6-1.3,1.3s0.6,1.3,1.3,1.3c0.7,0,1.3-0.6,1.3-1.3S52.2,52.4,51.5,52.4z"
			/>
		<rect x="39.9" y="52.4" fill="#000000" width="5.1" height="2.6"/>
		
			<rect x="53" y="45.4" transform="matrix(0.5547 -0.8321 0.8321 0.5547 -14.1579 66.8124)" fill="#000000" width="4.6" height="2.6"/>
	</g>
</g>
</svg>
