<?xml version="1.0" encoding="utf-8"?>
<!-- Generator: Adobe Illustrator 23.1.0, SVG Export Plug-In . SVG Version: 6.00 Build 0)  -->
<svg version="1.2" baseProfile="tiny" id="Layer_1" xmlns="http://www.w3.org/2000/svg" xmlns:xlink="http://www.w3.org/1999/xlink"
	 x="0px" y="0px" viewBox="0 0 86 86" xml:space="preserve">
<g>
	<polygon fill="#000000" stroke="#000000" stroke-miterlimit="10" points="39.4,33.6 34.6,48.3 36.1,48.8 40.9,34 	"/>
	
		<rect x="14.4" y="23.1" transform="matrix(0.9783 -0.2074 0.2074 0.9783 -4.4739 5.1183)" fill="#000000" stroke="#000000" stroke-miterlimit="10" width="15.5" height="1.6"/>
	<polygon fill="#000000" stroke="#000000" stroke-miterlimit="10" points="9.2,40.8 19.6,52.3 20.8,51.2 10.4,39.7 	"/>
	<path fill="#000000" stroke="#000000" stroke-miterlimit="10" d="M66.9,27.3l-20.8,4.4L31.8,15.9l-21.8,4.6L3.2,41.6l14.9,16.5
		l20.8-4.4l14.3,15.9L74.9,65l6.9-21.2L66.9,27.3z M38.6,52.2l-19.9,4.2L5,41.3l6.3-19.4l20-4.2l13.6,15.1L38.6,52.2z M73.7,63.6
		l-20,4.2L40.1,52.7l6.3-19.5L66.4,29L80,44.2L73.7,63.6z"/>
	
		<rect x="55.1" y="60.8" transform="matrix(0.9783 -0.2074 0.2074 0.9783 -11.4024 14.3719)" fill="#000000" stroke="#000000" stroke-miterlimit="10" width="15.5" height="1.6"/>
	
		<rect x="69.2" y="31.7" transform="matrix(0.7439 -0.6683 0.6683 0.7439 -8.4449 56.903)" fill="#000000" stroke="#000000" stroke-miterlimit="10" width="1.6" height="15.5"/>
</g>
</svg>
