<?xml version="1.0" encoding="utf-8"?>
<!-- Generator: Adobe Illustrator 23.1.0, SVG Export Plug-In . SVG Version: 6.00 Build 0)  -->
<svg version="1.2" baseProfile="tiny" id="Layer_1" xmlns="http://www.w3.org/2000/svg" xmlns:xlink="http://www.w3.org/1999/xlink"
	 x="0px" y="0px" viewBox="0 0 86 86" xml:space="preserve">
<g>
	<g>
		<path fill="#000000" d="M998.8,660.8h-15.4c-0.5,0-0.9-0.2-1.1-0.6l-7.7-12.8c-0.2-0.4-0.2-0.9,0-1.3l7.7-12.8
			c0.2-0.4,0.6-0.6,1.1-0.6h3.8v2.6h-3.1l-6.9,11.5l6.9,11.5H998l6.9-11.5l-6.9-11.5h-3.1v-2.6h3.8c0.5,0,0.9,0.2,1.1,0.6l7.7,12.8
			c0.2,0.4,0.2,0.9,0,1.3l-7.7,12.8C999.6,660.6,999.2,660.8,998.8,660.8z"/>
		<rect x="989.8" y="632.6" fill="#000000" width="2.6" height="2.6"/>
		<rect x="1034.7" y="632.6" fill="#000000" width="2.6" height="2.6"/>
		<path fill="#000000" d="M1043,635.2h-3.2v-2.6h2.5l6.3-10.3l-6.3-10.3h-12.7l-6.3,10.3l6.3,10.3h2.5v2.6h-3.2
			c-0.4,0-0.9-0.2-1.1-0.6l-7.1-11.5c-0.3-0.4-0.3-0.9,0-1.3l7.1-11.5c0.2-0.4,0.6-0.6,1.1-0.6h14.1c0.4,0,0.9,0.2,1.1,0.6l7.1,11.5
			c0.3,0.4,0.3,0.9,0,1.3l-7.1,11.5C1043.9,634.9,1043.4,635.2,1043,635.2z"/>
		<path fill="#000000" d="M1021.8,650.6c-2.1,0-3.8-1.7-3.8-3.8s1.7-3.8,3.8-3.8s3.8,1.7,3.8,3.8S1024,650.6,1021.8,650.6z
			 M1021.8,645.4c-0.7,0-1.3,0.6-1.3,1.3c0,0.7,0.6,1.3,1.3,1.3c0.7,0,1.3-0.6,1.3-1.3C1023.1,646,1022.6,645.4,1021.8,645.4z"/>
		<rect x="1010.3" y="645.4" fill="#000000" width="5.1" height="2.6"/>
		
			<rect x="1023.4" y="638.4" transform="matrix(0.5547 -0.8321 0.8321 0.5547 -75.4825 1138.304)" fill="#000000" width="4.6" height="2.6"/>
	</g>
</g>
<path fill="#000000" d="M65.7,58.4c0.9-0.9,1.4-2,1.4-3.3c0-1.3-0.5-2.5-1.4-3.3l5.7-9.9c0.2-0.4,0.2-0.8,0-1.2l-8-13.8
	c-0.2-0.4-0.6-0.6-1-0.6H47.1l-7.6-13.2c-0.2-0.4-0.6-0.6-1-0.6H22.5c-0.4,0-0.8,0.2-1,0.6l-8,13.8c-0.2,0.4-0.2,0.8,0,1.2l5.6,9.7
	c-0.9,0.9-1.5,2.1-1.5,3.4c0,1.4,0.6,2.6,1.5,3.4l-5.6,9.7c-0.2,0.4-0.2,0.8,0,1.2l8,13.8c0.2,0.4,0.6,0.6,1,0.6h15.9
	c0.4,0,0.8-0.2,1-0.6l7.6-13.2h10.8c0.5,2,2.4,3.5,4.5,3.5c0.4,0,0.8-0.1,1.2-0.2l5.7,9.9c0.2,0.4,0.6,0.6,1,0.6
	c0.2,0,0.4-0.1,0.6-0.2c0.6-0.3,0.8-1.1,0.4-1.6L65.7,58.4z M69,41.3l-5.3,9.3c-0.4-0.1-0.8-0.2-1.2-0.2c-2.2,0-4,1.5-4.5,3.5H47.2
	l-5.3-9.3c0.9-0.9,1.4-2,1.4-3.3c0-1.3-0.5-2.5-1.4-3.3l5.3-9.3h14.6L69,41.3z M40.8,41.3c0,1.3-1,2.3-2.3,2.3c-1.3,0-2.3-1-2.3-2.3
	c0-1.3,1-2.3,2.3-2.3C39.8,39,40.8,40,40.8,41.3z M15.9,27.5l7.3-12.6h14.6L45,27.5l-5.3,9.3c-0.4-0.1-0.8-0.2-1.2-0.2
	c-2.2,0-4,1.5-4.5,3.5h-7.1c-0.5-2-2.4-3.5-4.5-3.5c-0.4,0-0.7,0-1.1,0.1L15.9,27.5z M20,41.3c0-1.3,1-2.3,2.3-2.3
	c1.3,0,2.3,1,2.3,2.3s-1,2.3-2.3,2.3S20,42.5,20,41.3z M37.8,67.7H23.2l-7.3-12.6l5.3-9.2c0.3,0.1,0.7,0.1,1.1,0.1
	c2.2,0,4-1.5,4.5-3.5H34c0.5,2,2.4,3.5,4.5,3.5c0.4,0,0.8-0.1,1.2-0.2l5.3,9.3L37.8,67.7z M60.1,55.1c0-1.3,1-2.3,2.3-2.3
	c1.3,0,2.3,1,2.3,2.3c0,1.3-1,2.3-2.3,2.3C61.1,57.4,60.1,56.3,60.1,55.1z"/>
</svg>
