<?xml version="1.0" encoding="utf-8"?>
<!-- Generator: Adobe Illustrator 23.1.0, SVG Export Plug-In . SVG Version: 6.00 Build 0)  -->
<svg version="1.2" baseProfile="tiny" id="Layer_1" xmlns="http://www.w3.org/2000/svg" xmlns:xlink="http://www.w3.org/1999/xlink"
	 x="0px" y="0px" viewBox="0 0 86 86" xml:space="preserve">
<g>
	<g>
		<path fill="#000000" d="M998.8,660.8h-15.4c-0.5,0-0.9-0.2-1.1-0.6l-7.7-12.8c-0.2-0.4-0.2-0.9,0-1.3l7.7-12.8
			c0.2-0.4,0.6-0.6,1.1-0.6h3.8v2.6h-3.1l-6.9,11.5l6.9,11.5H998l6.9-11.5l-6.9-11.5h-3.1v-2.6h3.8c0.5,0,0.9,0.2,1.1,0.6l7.7,12.8
			c0.2,0.4,0.2,0.9,0,1.3l-7.7,12.8C999.6,660.6,999.2,660.8,998.8,660.8z"/>
		<rect x="989.8" y="632.6" fill="#000000" width="2.6" height="2.6"/>
		<rect x="1034.7" y="632.6" fill="#000000" width="2.6" height="2.6"/>
		<path fill="#000000" d="M1043,635.2h-3.2v-2.6h2.5l6.3-10.3l-6.3-10.3h-12.7l-6.3,10.3l6.3,10.3h2.5v2.6h-3.2
			c-0.4,0-0.9-0.2-1.1-0.6l-7.1-11.5c-0.3-0.4-0.3-0.9,0-1.3l7.1-11.5c0.2-0.4,0.6-0.6,1.1-0.6h14.1c0.4,0,0.9,0.2,1.1,0.6l7.1,11.5
			c0.3,0.4,0.3,0.9,0,1.3l-7.1,11.5C1043.9,634.9,1043.4,635.2,1043,635.2z"/>
		<path fill="#000000" d="M1021.8,650.6c-2.1,0-3.8-1.7-3.8-3.8s1.7-3.8,3.8-3.8s3.8,1.7,3.8,3.8S1024,650.6,1021.8,650.6z
			 M1021.8,645.4c-0.7,0-1.3,0.6-1.3,1.3c0,0.7,0.6,1.3,1.3,1.3c0.7,0,1.3-0.6,1.3-1.3C1023.1,646,1022.6,645.4,1021.8,645.4z"/>
		<rect x="1010.3" y="645.4" fill="#000000" width="5.1" height="2.6"/>
		
			<rect x="1023.4" y="638.4" transform="matrix(0.5547 -0.8321 0.8321 0.5547 -75.4825 1138.304)" fill="#000000" width="4.6" height="2.6"/>
	</g>
</g>
<path fill="#000000" d="M19.8,32.2c0.2,0.2,0.4,0.4,0.5,0.6l3.8,9.9c0.3,0.8-0.1,1.7-0.9,2c-0.8,0.3-1.7-0.1-2-0.9l-3.8-9.9
	c-0.3-0.8,0.1-1.7,0.9-2C18.8,31.7,19.4,31.8,19.8,32.2z"/>
<path fill="#000000" d="M47.7,44.3c0.7,0.5,0.8,1.5,0.2,2.2l-4.9,6c-0.5,0.7-1.5,0.8-2.2,0.2c-0.7-0.5-0.8-1.5-0.2-2.2l4.9-6
	C46.1,43.9,47,43.8,47.7,44.3z"/>
<path fill="#000000" d="M19.7,14.1l2.2,5.8l-9.5,11.6c-0.4,0.4-0.4,1-0.2,1.5l5.4,14.1l-4.1,5c-0.5,0.7-0.4,1.6,0.2,2.2
	c0.7,0.5,1.6,0.4,2.2-0.2l4.1-5l14,2.4L39,64.7l-4.1,5c-0.5,0.7-0.4,1.6,0.2,2.2c0.7,0.5,1.6,0.4,2.2-0.2l4.1-5l14.8,2.5
	c0.5,0.1,1.1-0.1,1.4-0.5L67.1,57l6.1,1c0.8,0.1,1.6-0.4,1.8-1.3c0.1-0.6-0.1-1.1-0.5-1.4C74.3,55.1,74,55,73.8,55l-6.2-1l-5-13.1
	l4.1-5c0.5-0.7,0.4-1.6-0.2-2.2c-0.7-0.5-1.6-0.4-2.2,0.2l-4.1,5l-14-2.4L41,23.2l4.1-5c0.5-0.7,0.4-1.6-0.2-2.2
	c-0.7-0.5-1.6-0.4-2.2,0.2l-4.1,5l-13.9-2.4L22.5,13c-0.1-0.3-0.3-0.5-0.5-0.6c-0.4-0.3-1-0.5-1.5-0.2
	C19.8,12.4,19.4,13.3,19.7,14.1z M42.1,63.6c-0.1-0.1-0.1-0.1-0.1-0.2c-0.1,0-0.1-0.1-0.2-0.1l-5-13l8.9-10.8l13.7,2.3
	c0.1,0.1,0.1,0.1,0.1,0.2c0.1,0,0.1,0.1,0.2,0.1l4.8,12.5c0,0.1-0.1,0.2-0.1,0.3c0,0.2,0,0.3,0,0.5L55.8,66L42.1,63.6z M34.4,48.4
	l-13.7-2.3c-0.1-0.1-0.1-0.1-0.1-0.2c-0.1,0-0.1-0.1-0.2-0.1l-5-13l8.6-10.5c0.2,0,0.3,0,0.5-0.1c0.1,0,0.2-0.1,0.3-0.2l13.3,2.2
	c0.1,0.1,0.1,0.1,0.1,0.2s0.1,0.1,0.2,0.1l5,13L34.4,48.4z"/>
</svg>
