<?xml version="1.0" encoding="utf-8"?>
<!-- Generator: Adobe Illustrator 23.1.0, SVG Export Plug-In . SVG Version: 6.00 Build 0)  -->
<svg version="1.2" baseProfile="tiny" id="Layer_1" xmlns="http://www.w3.org/2000/svg" xmlns:xlink="http://www.w3.org/1999/xlink"
	 x="0px" y="0px" viewBox="0 0 86 86" xml:space="preserve">
<path fill="#000000" d="M67.4,38.2c-0.3,0-0.6-0.1-0.8-0.2l-9.9-5.7c-0.8-0.5-1.1-1.5-0.6-2.3c0.5-0.8,1.5-1.1,2.3-0.6l9.9,5.7
	c0.8,0.5,1.1,1.5,0.6,2.3C68.6,37.9,68,38.2,67.4,38.2z"/>
<path fill="#000000" d="M36.1,47.1c-0.9,0-1.7-0.7-1.7-1.7v-8.3c0-0.9,0.7-1.7,1.7-1.7s1.7,0.7,1.7,1.7v8.3
	C37.7,46.4,37,47.1,36.1,47.1z"/>
<path fill="#000000" d="M79.8,53.1l-5.8-3.3V33.7c0-0.6-0.3-1.1-0.8-1.4l-14-8v-6.9c0-0.9-0.7-1.7-1.7-1.7c-0.9,0-1.7,0.7-1.7,1.7
	v6.9l-13.2,7.5l-13.2-7.5v-6.9c0-0.9-0.7-1.7-1.7-1.7c-0.9,0-1.7,0.7-1.7,1.7v6.9l-14,8c-0.5,0.3-0.8,0.8-0.8,1.4v16.1l-5.8,3.3
	c-0.8,0.5-1.1,1.5-0.6,2.3c0.3,0.5,0.9,0.8,1.4,0.8c0.3,0,0.6-0.1,0.8-0.2l5.9-3.4l13.1,7.5v6.9c0,0.9,0.7,1.7,1.7,1.7
	c0.9,0,1.7-0.7,1.7-1.7v-6.9l13.2-7.5l13.2,7.5v6.9c0,0.9,0.7,1.7,1.7,1.7c0.9,0,1.7-0.7,1.7-1.7v-6.9l13.1-7.5l5.9,3.4
	c0.3,0.2,0.5,0.2,0.8,0.2c0.6,0,1.1-0.3,1.4-0.8C80.9,54.6,80.6,53.6,79.8,53.1z M27.6,27.2c0.1,0,0.2,0,0.2,0s0.2,0,0.2,0l13,7.4
	v15l-13,7.4c-0.1,0-0.2,0-0.2,0s-0.2,0-0.2,0L15,49.9c0-0.1-0.1-0.2-0.1-0.3c-0.1-0.2-0.2-0.3-0.3-0.4V34.6L27.6,27.2z M44.3,34.6
	l13-7.4c0.1,0,0.2,0,0.2,0s0.2,0,0.2,0l13,7.4v14.6c-0.1,0.1-0.3,0.2-0.3,0.4c-0.1,0.1-0.1,0.2-0.1,0.3l-12.5,7.1
	c-0.1,0-0.2,0-0.2,0s-0.2,0-0.2,0l-13-7.4V34.6z"/>
</svg>
