<svg xmlns="http://www.w3.org/2000/svg" width="66" height="66" viewBox="0 0 66 66"><g transform="translate(2541 -7795)"><path d="M37.941,5.539,63.159,20.1a.967.967,0,0,1,.486.839h.005V50.12a.969.969,0,0,1-.57.884L37.886,65.552a.963.963,0,0,1-.969,0v0L11.645,50.961a.972.972,0,0,1-.486-.839h0V20.938a.975.975,0,0,1,.549-.876L36.917,5.508a.967.967,0,0,1,1.024.032ZM61.7,21.494,37.406,7.466,13.1,21.5V49.562L37.4,63.594,61.7,49.565V21.494Z" transform="translate(-2544.656 7792.124)" fill-rule="evenodd"/><path d="M0,0H66V66H0Z" transform="translate(-2541 7795)" fill="none"/></g></svg>