<svg xmlns="http://www.w3.org/2000/svg" xmlns:xlink="http://www.w3.org/1999/xlink" width="60.157" height="44.067" viewBox="0 0 60.157 44.067"><defs><clipPath id="a"><rect width="7.417" height="21.034" fill="#fff"/></clipPath></defs><g transform="translate(-763.551 -222.872)"><path class="fill_main-color" d="M28.554,45.067c-.65,0-1.3-.029-1.932-.058-.537-.024-1.044-.047-1.476-.047a6.645,6.645,0,0,0-.693.03c-1.084-.024-2.236-.036-3.517-.036-1.843,0-3.717.024-5.53.048s-3.685.048-5.525.048c-2.579,0-4.709-.048-6.7-.15-1.681-.3-2.058-1.272-2.14-2.854-.074-1.726-.012-3.573.048-5.359.051-1.514.1-3.079.073-4.566-.014-2.8-.006-5.644,0-8.4.013-4.587.027-9.331-.061-14-.008-.436-.025-.892-.041-1.333a20.3,20.3,0,0,1,.251-5.211c.164-.7,1.809-.84,2.009-.252A23.94,23.94,0,0,1,3.561,9.18c-.06,1.262-.121,2.567-.06,3.813C3.563,16,3.528,19.1,3.493,22.1c-.057,4.963-.116,10.1.263,15.022l0,.034.034.005a.351.351,0,0,0,.053,0c.336,0,.571-.5.779-.948a3.708,3.708,0,0,1,.245-.472c.461-.929.932-1.867,1.388-2.774.957-1.9,1.947-3.873,2.872-5.833.889-1.945,1.669-2.851,2.455-2.851.993,0,1.964,1.5,2.866,3.125l0,0,0,0a.8.8,0,0,0,.582.337c.318,0,.621-.3.927-.906.871-2.008,1.7-4.08,2.51-6.083.512-1.274,1.042-2.592,1.576-3.878a15.4,15.4,0,0,0,.746-1.942c.692-2.027,1.553-4.549,2.908-4.549a2.337,2.337,0,0,1,1.628,1.062c1.071,1.841,2.06,3.791,3.016,5.677,1.086,2.141,2.208,4.356,3.464,6.433a1.043,1.043,0,0,0,.8.51c.61,0,1.182-.791,1.788-1.629.66-.912,1.343-1.856,2.115-1.856a.941.941,0,0,1,.095,0c1.114.094,2.08,1.185,2.933,2.147a10.161,10.161,0,0,0,1.214,1.234.942.942,0,0,0,.627.271c.938,0,1.769-1.709,2.438-3.082a9.077,9.077,0,0,1,.758-1.389c1.772-3.351,3.449-6.821,5.07-10.177q.637-1.319,1.276-2.635c.284-.626.36-1,.24-1.189a.335.335,0,0,0-.308-.135,3.685,3.685,0,0,0-1.029.277,4.872,4.872,0,0,1-1.463.367.884.884,0,0,1-.5-.128.836.836,0,0,1-.5-.947c.418-1.734,5.844-4.148,6.9-4.212h.012c1.423.025,1.76,1.385,2.086,2.7.084.34.172.692.277,1.01.055.35.172.808.3,1.294.411,1.613.923,3.619.005,4.462a1.244,1.244,0,0,1-.324.045c-.933,0-1.367-1.221-1.75-2.3-.264-.743-.492-1.385-.85-1.479l-.019,0-.016.011A4.725,4.725,0,0,0,52.6,8.934a9.707,9.707,0,0,1-.556,1.2c-1.954,4.433-4.232,8.665-6.793,13.341-.155.278-.318.615-.49.971-.743,1.534-1.667,3.444-3.15,3.444a2.184,2.184,0,0,1-1.018-.28,5.524,5.524,0,0,1-1.662-1.655,5.014,5.014,0,0,0-1.813-1.723l0,0h0A.7.7,0,0,0,37,24.225c-.608,0-1.227.8-1.882,1.646-.76.982-1.621,2.094-2.585,2.095-.652,0-1.289-.494-1.947-1.512a37.712,37.712,0,0,1-1.995-3.784c-1.711-3.467-3.841-7.782-4.714-7.782a.259.259,0,0,0-.168.06A3.1,3.1,0,0,0,22.7,16.48c-.03.072-.059.14-.088.206-.933,2.159-1.809,4.39-2.656,6.548-1.076,2.74-2.188,5.573-3.426,8.282-.5.688-.969,1.023-1.428,1.023-.867,0-1.573-1.243-2.2-2.341a8.182,8.182,0,0,0-1.014-1.538.333.333,0,0,0-.216-.081c-.964,0-2.879,4.238-4.418,7.644A33.279,33.279,0,0,1,5.415,40c-.526.986-.666,1.71-.421,2.156a1.132,1.132,0,0,0,.986.5c1.724.053,3.612.078,5.944.078,1.23,0,2.481-.007,3.691-.013s2.461-.013,3.69-.013c1.094,0,2.064.005,2.966.016a3.924,3.924,0,0,0,.619.037c.581,0,1.359-.058,2.26-.126,1.1-.083,2.355-.176,3.494-.176,1.819,0,1.256,2.611-.091,2.611" transform="translate(762.549 221.872)" fill="#fff"/><g transform="translate(816.292 244.906)"><g transform="translate(0 0)" clip-path="url(#a)"><path class="fill_main-color" d="M1.681,21.034a1.639,1.639,0,0,1-1.2-.48,1.662,1.662,0,0,1,0-2.346,1.637,1.637,0,0,1,1.2-.477,1.635,1.635,0,0,1,1.194.477,1.662,1.662,0,0,1,0,2.346,1.637,1.637,0,0,1-1.194.48M2.883,0l-.26,14.92H.667L.405,0Z" transform="translate(0 0)" fill="#fff"/></g></g></g></svg>