<svg id="Group_1047" data-name="Group 1047" xmlns="http://www.w3.org/2000/svg" width="20" height="20" viewBox="0 0 18.218 18.197">
  <path class="fill_main-color" id="Path_432" data-name="Path 432" d="M58.612,53.6a2.055,2.055,0,0,0-2.906,0l-2.055,2.055a2.055,2.055,0,0,0,0,2.906l2.055,2.055a2.055,2.055,0,0,0,2.906,0l2.055-2.055a2.055,2.055,0,0,0,0-2.906Zm.81,3.716-2.055,2.055a.293.293,0,0,1-.414,0L54.9,57.317a.294.294,0,0,1,0-.414l2.055-2.055a.294.294,0,0,1,.414,0L59.422,56.9a.294.294,0,0,1-.015.414Z" transform="translate(-43.051 -43.02)" fill="#fff"/>
  <path class="fill_main-color" id="Path_433" data-name="Path 433" d="M38.816,33.881V37.7H35.881a.881.881,0,1,0,0,1.761h2.935A1.761,1.761,0,0,0,40.577,37.7V33.881a.881.881,0,0,0-1.761,0Z" transform="translate(-30.299 -28.891)" fill="#fff"/>
  <path class="fill_main-color" id="Path_434" data-name="Path 434" d="M26.519,37.062a.819.819,0,0,0,.663-.176.881.881,0,0,0-.382-1.561,7.338,7.338,0,1,1,8.453-8.785.857.857,0,0,0,.881.687h.056a.881.881,0,0,0,.634-.346.819.819,0,0,0,.153-.672A9.172,9.172,0,0,0,28.054,19a9.1,9.1,0,0,0-1.538,18.059Z" transform="translate(-18.982 -19)" fill="#fff"/>
</svg>
