<?xml version="1.0" encoding="utf-8"?>
<!-- Generator: Adobe Illustrator 23.1.0, SVG Export Plug-In . SVG Version: 6.00 Build 0)  -->
<svg version="1.1" id="Layer_1" xmlns="http://www.w3.org/2000/svg" xmlns:xlink="http://www.w3.org/1999/xlink" x="0px" y="0px"
	 viewBox="0 0 30.4 30.7" style="enable-background:new 0 0 30.4 30.7;" xml:space="preserve">
<style type="text/css">
	.st0{fill:#808083;}
</style>
<g>
	<path class="st0" d="M18.4,24.9v-6.1h-5.8v6.1c0,0.3-0.3,0.7-0.7,0.7h-5c-0.4,0-0.7-0.3-0.7-0.7V12.5c0-0.2,0.2-0.4,0.3-0.5L15,4.6
		c0.2-0.2,0.7-0.2,0.9,0l8.6,7.4c0.2,0.2,0.2,0.3,0.2,0.5v12.4c0,0.3-0.3,0.7-0.7,0.7h-5C18.7,25.5,18.4,25.2,18.4,24.9z M19.8,18.1
		v6.1h3.6V12.8l-7.9-6.7l-7.9,6.7v11.3h3.6v-6.1c0-0.3,0.3-0.7,0.7-0.7h7.2C19.4,17.4,19.8,17.7,19.8,18.1z"/>
</g>
</svg>
