<?xml version="1.0" encoding="utf-8"?>
<!-- Generator: Adobe Illustrator 25.2.0, SVG Export Plug-In . SVG Version: 6.00 Build 0)  -->
<svg version="1.2" baseProfile="tiny" id="Layer_1" xmlns="http://www.w3.org/2000/svg" xmlns:xlink="http://www.w3.org/1999/xlink"
	 x="0px" y="0px" viewBox="0 0 50 50" overflow="visible" xml:space="preserve">
<g id="Group_3630" transform="translate(0 0)">
	<path id="Path_4341" fill="#FFFFFF" d="M4.4,42.2h41.2c0.4,0,0.7-0.3,0.7-0.7V8.5c0-0.4-0.3-0.7-0.7-0.7H4.4C4,7.8,3.7,8.1,3.7,8.5
		v33.1C3.7,41.9,4,42.2,4.4,42.2z M5.1,40.8V17.6h39.8v23.3H5.1z M44.9,9.1v7.1H5.1V9.2L44.9,9.1z"/>
	<path id="Path_4342" fill="#FFFFFF" d="M6.8,13.5h24c0.4,0,0.7-0.3,0.7-0.7s-0.3-0.7-0.7-0.7h-24c-0.4,0-0.7,0.3-0.7,0.7
		S6.4,13.5,6.8,13.5z"/>
	<path id="Path_4343" fill="#FFFFFF" d="M42.5,13.5h0.3c0.4,0,0.7-0.3,0.7-0.7v-0.3c0-0.4-0.3-0.7-0.7-0.7h-0.3
		c-0.4,0-0.7,0.3-0.7,0.7v0.3C41.8,13.2,42.1,13.5,42.5,13.5z"/>
	<path id="Path_4344" fill="#FFFFFF" d="M38.5,13.5h0.3c0.4,0,0.7-0.3,0.7-0.7v-0.3c0-0.4-0.3-0.7-0.7-0.7h-0.3
		c-0.4,0-0.7,0.3-0.7,0.7v0.3C37.8,13.2,38.1,13.5,38.5,13.5C38.5,13.5,38.5,13.5,38.5,13.5z"/>
	<path id="Path_4345" fill="#FFFFFF" d="M34.2,13.5h0.3c0.4,0,0.7-0.3,0.7-0.7v-0.3c0-0.4-0.3-0.7-0.7-0.7h-0.3
		c-0.4,0-0.7,0.3-0.7,0.7v0.3C33.5,13.2,33.8,13.5,34.2,13.5z"/>
	<path id="Path_4346" fill="#FFFFFF" d="M34.6,26.2l-9-6.7c-0.5-0.4-1.1-0.4-1.6,0l-8.6,6.7c-0.5,0.4-0.6,1.1-0.2,1.6
		c0,0,0,0.1,0.1,0.1c0.2,0.2,0.4,0.3,0.7,0.4v9.7c0,0.4,0.3,0.7,0.7,0.7h6.1c0.4,0,0.7-0.3,0.7-0.7v-4.4h3.3l0.1,4.4
		c0,0.4,0.3,0.7,0.7,0.7h6c0.4,0,0.7-0.3,0.7-0.7v-9.6c0.3,0,0.6-0.2,0.8-0.4c0.2-0.2,0.3-0.6,0.3-0.9
		C35.1,26.7,34.9,26.4,34.6,26.2z M33,26.8c-0.2,0.1-0.4,0.4-0.4,0.6v9.9H28l0-4.4c0-0.4-0.3-0.7-0.7-0.7h-4.7
		c-0.4,0-0.7,0.3-0.7,0.7v4.4h-4.7v-9.8c0-0.3-0.1-0.5-0.4-0.6c0,0,0,0,0,0l0,0l8-6.2l8.3,6.2C33,26.8,33,26.8,33,26.8L33,26.8z"/>
</g>
</svg>
