<?xml version="1.0" encoding="UTF-8" standalone="no"?>
<!DOCTYPE svg PUBLIC "-//W3C//DTD SVG 1.1//EN"
"http://www.w3.org/Graphics/SVG/1.1/DTD/svg11.dtd">


<!-- Page 3 -->
<svg x="0" y="0" width="152" height="152" viewBox="0 0 152 152" version="1.1" xmlns="http://www.w3.org/2000/svg" xmlns:xlink="http://www.w3.org/1999/xlink"
style="display: block;margin-left: auto;margin-right: auto;">
<defs>

<style type="text/css"><![CDATA[

.g1_3{
fill: #787877;
}


]]></style>

</defs>
<path d="M0,0
L0,152
L152,152
L152,0 Z "
fill="transparent" stroke="none" />
<path d="M15.5,24.6c-3.3,0,-5.9,2.7,-5.9,6l0,79.9c0,3.2,2.6,5.9,5.9,5.9l122.2,0c3.3,0,5.9,-2.7,5.9,-5.9l0,-79.9c0,-3.3,-2.6,-6,-5.9,-6Zm119.8,97.5l-117.4,0c-7.3,0,-13.2,-5.9,-13.2,-13.2l0,-76.7C4.7,24.9,10.6,19,17.9,19l117.4,0c7.3,0,13.2,5.9,13.2,13.2l0,76.7c0,7.3,-5.9,13.2,-13.2,13.2Z" class="g1_3" />
<path d="M35.6,56.2c0,-7.2,5.8,-13.1,13,-13.1c7.2,0,13.1,5.9,13.1,13.1c0,7.1,-5.9,13,-13.1,13c-7.2,0,-13,-5.9,-13,-13M80.1,94.7c0,-0.3,-0.6,-6.5,-4.7,-12.8C72.5,77.7,67.6,72.8,59.3,70.5C63.7,67.3,66.5,62,66.5,56.2c0,-9.9,-8,-18,-17.9,-18c-9.9,0,-17.9,8.1,-17.9,18c0,9.8,7.9,17.8,17.7,17.9c0.2,0,0.4,0,0.6,0c10.1,0,17.5,3.5,22.2,10.4c2,2.9,3,5.9,3.5,7.9l-50.4,0C24.9,88.6,27.2,80.8,36.7,76.8c1.3,-0.6,1.8,-2,1.3,-3.3C37.5,72.3,36,71.7,34.8,72.3C26.5,75.8,22.7,81.8,21,86.2c-1.9,4.7,-1.8,8.6,-1.8,8.8l0.1,2.3l61.1,0Z" class="g1_3" />
<path d="M128.9,66.4c-0.1,0,-0.2,0,-0.3,0l-35.1,0c-0.1,0,-0.1,0,-0.2,0c-2.1,0,-3.8,1.7,-3.8,3.8c0,2,1.7,3.7,3.7,3.7l0,0.1l35.5,0l0,-0.1c0.1,0,0.1,0,0.2,0c2.1,0,3.7,-1.7,3.7,-3.7c0,-2.1,-1.6,-3.8,-3.7,-3.8Z" class="g1_3" />
<path d="M113.6,87.7c-0.1,0,-0.2,0,-0.3,0l-19.8,0c-0.1,0,-0.1,0,-0.2,0c-2.1,0,-3.8,1.7,-3.8,3.8c0,2,1.7,3.7,3.7,3.7l20.3,0c0,0,0.1,0,0.1,0c2.1,0,3.8,-1.7,3.8,-3.7c0,-2.1,-1.7,-3.8,-3.8,-3.8Z" class="g1_3" />
<path d="M128.9,45.1c-0.1,0,-0.2,0,-0.3,0.1l-35.1,0C93.4,45.1,93.4,45.1,93.3,45.1c-2.1,0,-3.8,1.7,-3.8,3.8c0,2,1.7,3.7,3.7,3.7l0,0.1l35.5,0l0,-0.1c0.1,0,0.1,0,0.2,0c2.1,0,3.7,-1.6,3.7,-3.7c0,-2.1,-1.6,-3.8,-3.7,-3.8Z" class="g1_3" />

</svg>
