<svg xmlns="http://www.w3.org/2000/svg" width="20" height="20" viewBox="0 0 18.192 18.197">
  <path class="fill_main-color" id="Path_576" data-name="Path 576" d="M32.5,22.267a3.249,3.249,0,0,0-.951-2.322A3.193,3.193,0,0,0,29.273,19a2.055,2.055,0,0,0-1.708.916l-4.086,6.128H21.055A2.055,2.055,0,0,0,19,28.1v7.044A2.055,2.055,0,0,0,21.055,37.2H31.8a3.5,3.5,0,0,0,3.27-2.213l1.831-4.6a4.024,4.024,0,0,0-3.789-5.518h-.907l.07-.352A11.632,11.632,0,0,0,32.5,22.267ZM23.7,35.436H20.761V27.805H23.7Zm9.419-8.805a2.263,2.263,0,0,1,2.16,3.1l-1.837,4.6A1.761,1.761,0,0,1,31.8,35.436H25.457V26.25l3.66-5.489h.156a1.468,1.468,0,0,1,1.468,1.468,9.862,9.862,0,0,1-.294,2.383l-.255,1.018a.8.8,0,0,0,.784,1Z" transform="translate(-19 -19)" fill="#fff"/>
</svg>
