<?xml version="1.0" encoding="utf-8"?>
<!-- Generator: Adobe Illustrator 23.1.0, SVG Export Plug-In . SVG Version: 6.00 Build 0)  -->
<svg version="1.2" baseProfile="tiny" id="Layer_1" xmlns="http://www.w3.org/2000/svg" xmlns:xlink="http://www.w3.org/1999/xlink"
	 x="0px" y="0px" viewBox="0 0 50 50" xml:space="preserve">
<style type="text/css">
	.newWave-icon{fill:#000000;}
</style>
<g>
	<path class="newWave-icon" d="M6.3,31.5c2.2,0.3,4.5-1.7,6.3-2.8c1.7-1,3.2-2.3,4.1-4.1c1.7-3.6,5.4-8.3,9.6-8.5c2.4-0.1,5.7-0.4,6.7,2.3
		c-4.7,0.9-4.3,7.6-0.2,9c1.5,0.5,3.9,0.5,5.5,0.4c2.2-0.2,4.3-2.1,6.6-1.8c0.9,1.5-0.8,4.8-1.1,6.5c-0.4,2.1-1.8,4.1-3,5.7
		c-1.3,1.7-3.2,3.7-5,4.9c-2.1,1.5-5.1,2.1-7.6,2.7c-4.7,1-9.1-0.5-13.2-2.5c-1.6-0.8-3.6-1.8-4.8-3.2C9.5,39.1,9,38,8.6,37
		c-0.5-1.2-1.4-2.3-1.9-3.5c-0.2-0.5-0.4-1.4-0.3-1.7"/>
</g>
<g>
	<g>
		<path  class="newWave-icon" d="M24.9,47C13,47,3.3,37.2,3.3,25.1C3.3,13,13,3.2,24.9,3.2S46.5,13,46.5,25.1C46.5,37.2,36.8,47,24.9,47z M24.9,5.5
			c-10.6,0-19.3,8.8-19.3,19.6s8.7,19.6,19.3,19.6s19.3-8.8,19.3-19.6S35.5,5.5,24.9,5.5z"/>
	</g>
	<g>
		<path  class="newWave-icon" d="M7.2,32.4c-0.8,0-1.7-0.2-2.7-0.5l0.8-2.1c2.3,0.9,4,0,6.3-1.3c0.3-0.2,0.6-0.3,0.9-0.5c2.2-1.1,4.1-5,5-6.8
			c2.1-4.2,6.9-7.3,11.2-7c2.7,0.1,4.9,1.7,5.8,4.2l0.7,1.8l-1.9-0.3c-0.8-0.1-1.4,0.1-1.9,0.5c-0.7,0.6-1.1,1.6-1.1,2.7
			c0,2.4,1.9,3.2,3.5,3.6c1.9,0.4,4.4,0.2,6.7-0.5c0.7-0.2,1.3-0.5,1.9-0.8c1-0.5,2.1-1,3.5-1.1l0.2,2.3c-1,0.1-1.8,0.5-2.7,0.9
			c-0.6,0.3-1.3,0.6-2.1,0.9c-2.6,0.8-5.5,1.1-7.8,0.6c-3.3-0.7-5.3-2.8-5.3-5.8c0-1.8,0.7-3.4,1.8-4.4c0.5-0.4,1.1-0.7,1.7-0.9
			c-0.9-1-2-1.3-3-1.3c-2.9-0.2-7.1,2-9,5.8c-1.6,3.3-3.5,6.5-6,7.8c-0.3,0.2-0.6,0.3-0.9,0.5C11,31.5,9.2,32.4,7.2,32.4z"/>
	</g>
</g>
</svg>
