<svg xmlns="http://www.w3.org/2000/svg" width="17.139" height="17.139" viewBox="0 0 17.139 17.139"><g transform="translate(-914.528 -195.706)"><path d="M178.094,247.954l.014.014a3.418,3.418,0,0,0,4.833,0L184.909,246l-1.08-1.08,1.62-1.62-1.145-1.145-1.62,1.62-1.555-1.555,1.62-1.62-1.145-1.145-1.62,1.62L178.9,240l-1.968,1.968h0a3.418,3.418,0,0,0,0,4.833l.014.014-1.89,1.89,1.145,1.145Zm-.014-4.846.823-.81,1.08,1.08,1.555,1.542,1.08,1.08-.81.823h0a1.8,1.8,0,0,1-2.543,0l-1.172-1.172a1.8,1.8,0,0,1,0-2.543Z" transform="translate(739.469 -37)" fill="#fff"/><path d="M333.071,101.349a3.418,3.418,0,0,0-4.833,0l-1.982,1.955,6,6,1.968-1.968h0a3.418,3.418,0,0,0,0-4.833l-.014-.014,1.89-1.89-1.145-1.145Zm.014,4.846-.824.824-3.715-3.715.823-.823h0a1.8,1.8,0,0,1,2.541,0l1.172,1.172a1.8,1.8,0,0,1,0,2.541Z" transform="translate(595.562 96.247)" fill="#fff"/></g></svg>