<svg xmlns="http://www.w3.org/2000/svg" width="20" height="20" viewBox="0 0 17.023 17.61">
  <path class="fill_main-color" id="Path_573" data-name="Path 573" d="M38.023,23.229A3.229,3.229,0,0,0,34.795,20H24.229A3.229,3.229,0,0,0,21,23.229V34.382a3.229,3.229,0,0,0,3.229,3.229H34.795a3.229,3.229,0,0,0,3.229-3.229ZM29.805,35.849H24.229a1.468,1.468,0,0,1-1.468-1.468V27.044h7.044Zm6.457-1.468a1.468,1.468,0,0,1-1.468,1.468H31.566V32.327h4.7Zm0-3.816h-4.7V27.044h4.7Zm0-5.283h-13.5V23.229a1.468,1.468,0,0,1,1.468-1.468H34.795a1.468,1.468,0,0,1,1.468,1.468Z" transform="translate(-21 -20)" fill="#fff"/>
</svg>
