<?xml version="1.0" encoding="utf-8"?>
<!-- Generator: Adobe Illustrator 23.0.1, SVG Export Plug-In . SVG Version: 6.00 Build 0)  -->
<svg version="1.1" id="Layer_1" xmlns="http://www.w3.org/2000/svg" xmlns:xlink="http://www.w3.org/1999/xlink" x="0px" y="0px"
	 viewBox="0 0 50 50" style="enable-background:new 0 0 50 50;" xml:space="preserve">
<style type="text/css">
	.chat-lvl-3{fill:#2881BE;}
</style>
<path class="chat-lvl-3" d="M42.7,40c-3.9,2.4-9.2-6.3-7.8-4.9c1.5,1.5,6.1,1.2,9.7-2.4c4.6-4.6,0.8-10.9-0.5-12.2c-0.7-0.7-2.2-2.2-3.4-1
	c-1,1-0.7,1.7,0,2.4c6.1,6.1-0.9,8.8-2.4,8.8c-1.5,0-5.3,0-5.3-5.3c0-4.4,4.9-5.9,4.9-10.8C37.9,3,25.2,3.4,25.2,3.4h-1l0,0
	c-2.3,0.1-12,1-12,11.3c0,4.9,4.9,6.3,4.9,10.7c0,5.3-3.9,5.3-5.3,5.3c-1.5,0-8.5-2.6-2.4-8.8c0.7-0.7,1-1.5,0-2.4
	c-1.2-1.2-2.7,0.2-3.4,1c-1.2,1.2-5.1,7.5-0.5,12.2c3.6,3.6,8.3,3.9,9.7,2.4c1.5-1.5-3.9,7.3-7.8,4.9c-1.4-0.8-1.9,0.5-1.9,0.5
	S3.8,42.4,7,43.9c0,0,4,2.4,18.1-9.7v0h0.1c14.1,12.2,18,9.7,18,9.7c2.7-1.1,1.5-3.4,1.5-3.4S44.1,39.2,42.7,40z M22.2,23
	c-1.2,0-2.1-0.9-2.1-2.1c0-1.2,0.9-2.1,2.1-2.1c1.2,0,2.1,0.9,2.1,2.1C24.3,22,23.3,23,22.2,23z M28.1,23C27,23,26,22,26,20.9
	c0-1.2,0.9-2.1,2.1-2.1c1.2,0,2.1,0.9,2.1,2.1C30.2,22,29.3,23,28.1,23z"/>
</svg>
