<?xml version="1.0" encoding="utf-8"?>
<!-- Generator: Adobe Illustrator 26.3.1, SVG Export Plug-In . SVG Version: 6.00 Build 0)  -->
<svg version="1.1" id="Layer_1" xmlns="http://www.w3.org/2000/svg" xmlns:xlink="http://www.w3.org/1999/xlink" x="0px" y="0px"
	 viewBox="0 0 57 43" style="enable-background:new 0 0 57 43;" xml:space="preserve">
<style type="text/css">
	.st0{fill:#FFFFFF;}
</style>
<g id="Group_81" transform="translate(-1057 -1032)">
	<path id="Path_13" class="st0" d="M1085.5,1032c-2.4,0-4.4,2-4.4,4.4v3.2h-19c-2.8,0-5.1,2.3-5.1,5.1v25.3c0,2.8,2.3,5.1,5.1,5.1
		h46.8c2.8,0,5.1-2.3,5.1-5.1v-25.3c0-2.8-2.3-5.1-5.1-5.1h-19v-3.2C1089.9,1034,1087.9,1032,1085.5,1032z M1085.5,1034.5
		c1,0,1.9,0.8,1.9,1.8c0,0,0,0,0,0.1v6.3c0,1-0.8,1.9-1.9,1.9s-1.9-0.8-1.9-1.9c0,0,0,0,0,0v-6.3
		C1083.6,1035.4,1084.4,1034.5,1085.5,1034.5C1085.4,1034.5,1085.5,1034.5,1085.5,1034.5z M1062.1,1042.1h19v0.6
		c0,2.4,2,4.4,4.4,4.4c2.4,0,4.4-2,4.4-4.4l0,0v-0.6h19c1.4,0,2.5,1.1,2.5,2.5c0,0,0,0,0,0.1v25.3c0,1.4-1.1,2.5-2.5,2.5
		c0,0,0,0-0.1,0h-46.8c-1.4,0-2.5-1.1-2.5-2.5c0,0,0,0,0-0.1v-25.3C1059.5,1043.3,1060.6,1042.1,1062.1,1042.1
		C1062,1042.1,1062,1042.1,1062.1,1042.1L1062.1,1042.1z M1073.5,1047.8c-2.4,0-4.4,2-4.4,4.4c0,2.4,2,4.4,4.4,4.4s4.4-2,4.4-4.4
		C1077.9,1049.8,1075.9,1047.8,1073.5,1047.8L1073.5,1047.8z M1088,1049.1c-0.7,0-1.3,0.6-1.3,1.3c0,0.7,0.6,1.3,1.3,1.3
		c0,0,0,0,0,0h18.4c0.7,0,1.3-0.6,1.3-1.3s-0.6-1.3-1.3-1.3c0,0,0,0,0,0H1088z M1073.5,1050.4c1,0,1.9,0.9,1.9,1.9s-0.9,1.9-1.9,1.9
		c-1,0-1.9-0.9-1.9-1.9C1071.5,1051.2,1072.4,1050.4,1073.5,1050.4C1073.4,1050.4,1073.4,1050.4,1073.5,1050.4L1073.5,1050.4z
		 M1088,1056.1c-0.7,0-1.3,0.6-1.3,1.3c0,0.7,0.6,1.3,1.3,1.3c0,0,0,0,0,0h18.4c0.7,0,1.3-0.6,1.3-1.3s-0.6-1.3-1.3-1.3c0,0,0,0,0,0
		H1088z M1073.5,1058c-2.3,0-4.6,0.6-6.5,1.8c-1.7,1-2.9,2.8-3,4.8v1.1c0,0.7,0.6,1.2,1.3,1.3h16.5c0.7,0,1.2-0.6,1.3-1.3v-1.1
		c-0.1-2-1.2-3.8-3-4.8C1078,1058.5,1075.8,1057.9,1073.5,1058L1073.5,1058z M1073.5,1060.5c1.8,0,3.6,0.4,5.1,1.4
		c0.9,0.5,1.6,1.4,1.8,2.4h-13.8c0.2-1,0.8-1.9,1.8-2.4C1069.9,1060.9,1071.7,1060.5,1073.5,1060.5L1073.5,1060.5z M1088,1063
		c-0.7,0-1.3,0.6-1.3,1.3c0,0.7,0.6,1.3,1.3,1.3h18.4c0.7,0,1.3-0.6,1.3-1.3c0-0.7-0.6-1.3-1.3-1.3H1088z"/>
</g>
</svg>
