<?xml version="1.0" encoding="utf-8"?>
<!-- Generator: Adobe Illustrator 25.4.0, SVG Export Plug-In . SVG Version: 6.00 Build 0)  -->
<svg version="1.2" baseProfile="tiny" id="Layer_1" xmlns="http://www.w3.org/2000/svg" xmlns:xlink="http://www.w3.org/1999/xlink"
	 x="0px" y="0px" viewBox="0 0 75 75" overflow="visible" xml:space="preserve">
<g id="Rectangle_3397">
	<path fill="#1559F5" d="M10,3h55c4.4,0,8,3.6,8,8v53c0,4.4-3.6,8-8,8H10c-4.4,0-8-3.6-8-8V11C2,6.6,5.6,3,10,3z"/>
	<path fill="none" stroke="#1559F5" d="M10,3.5h55c4.1,0,7.5,3.4,7.5,7.5v53c0,4.1-3.4,7.5-7.5,7.5H10c-4.1,0-7.5-3.4-7.5-7.5V11
		C2.5,6.9,5.9,3.5,10,3.5z"/>
</g>
<path id="Path_2350" fill="#FFFFFF" d="M52.9,46.5c-2.4-4.1-6.3-7-10.9-8.1c3.1-2.2,3.8-6.5,1.6-9.6S37.1,25,34,27.2
	s-3.8,6.5-1.6,9.6c0.4,0.6,1,1.2,1.6,1.6c-4.6,1.1-8.6,4-10.9,8.1c-4.7-8.2-1.9-18.7,6.3-23.4c5.9-3.4,13.3-3,18.8,1.2h-2.6v3.4h8.6
	v-8.6h-3.4v2.8c-8.9-7.1-21.9-5.6-28.9,3.3s-5.6,21.9,3.3,28.9s21.9,5.6,28.9-3.3c2.9-3.6,4.5-8.2,4.5-12.8h-3.4
	C55.1,41,54.4,43.9,52.9,46.5z M38,29.4c1.9,0,3.4,1.5,3.4,3.4s-1.5,3.4-3.4,3.4s-3.4-1.5-3.4-3.4l0,0C34.6,30.9,36.1,29.4,38,29.4z
	 M25.9,50.1c-0.2-0.2-0.3-0.3-0.4-0.5c2.1-5,7-8.2,12.4-8.2h0.3c5.4,0,10.3,3.2,12.4,8.2c-0.2,0.2-0.3,0.3-0.4,0.5
	C43.4,56.8,32.6,56.8,25.9,50.1z"/>
</svg>
