<svg xmlns="http://www.w3.org/2000/svg" width="66" height="66" viewBox="0 0 66 66"><g transform="translate(3016 1379)"><path d="M0,0H66V66H0Z" transform="translate(-3016 -1379)" fill="none"/><path d="M43.207,6.405a29.915,29.915,0,0,1,18.16,13.968h0A30.009,30.009,0,1,1,9.394,50.385h0A30,30,0,0,1,20.374,9.392v0A29.912,29.912,0,0,1,43.089,6.374l.118.032ZM32.815,46.239a.865.865,0,0,1,.189.176,49.328,49.328,0,0,0,10.5-3.386.957.957,0,0,1,.247-.076A49.636,49.636,0,0,0,46.07,32.17a1.028,1.028,0,0,1,.058-.255,49.6,49.6,0,0,0-8.183-7.4.865.865,0,0,1-.189-.176,49.328,49.328,0,0,0-10.5,3.386.957.957,0,0,1-.247.076,49.636,49.636,0,0,0-2.32,10.783,1.028,1.028,0,0,1-.058.255,49.361,49.361,0,0,0,8.183,7.4Zm-2.372.657c-8.175-6.236-14.937-15.788-19.292-25.72A28.1,28.1,0,0,0,9.905,47.188,71.261,71.261,0,0,0,30.443,46.9ZM12.412,19.214A71.2,71.2,0,0,0,22.938,36.867c1.311-10.208,6.2-20.829,12.627-29.574a28.025,28.025,0,0,0-14.222,3.767v0a27.964,27.964,0,0,0-8.931,8.157Zm25.479-11.8A71.226,71.226,0,0,0,27.872,25.347C37.366,21.383,49,20.3,59.786,21.5l-.089-.155h0A28.02,28.02,0,0,0,37.891,7.411Zm9.93,26.479c-1.313,10.208-6.2,20.829-12.627,29.574A28.123,28.123,0,0,0,58.347,51.543,71.152,71.152,0,0,0,47.822,33.89ZM32.869,63.349A71.272,71.272,0,0,0,42.887,45.412c-9.494,3.964-21.126,5.044-31.914,3.848l.089.155h0A28.009,28.009,0,0,0,32.869,63.349Zm7.447-39.488c8.175,6.236,14.937,15.788,19.292,25.72a28.079,28.079,0,0,0,1.245-26.012,71.263,71.263,0,0,0-20.537.292Z" transform="translate(-3018.364 -1381.36)" fill="#1f2980" fill-rule="evenodd" opacity="0.8"/></g></svg>