<?xml version="1.0" encoding="utf-8"?>
<!-- Generator: Adobe Illustrator 23.0.2, SVG Export Plug-In . SVG Version: 6.00 Build 0)  -->
<svg version="1.2" baseProfile="tiny" id="Layer_1" xmlns="http://www.w3.org/2000/svg" xmlns:xlink="http://www.w3.org/1999/xlink"
	 x="0px" y="0px" viewBox="0 0 85 85" xml:space="preserve">
<style type="text/css">
	.language-setting{fill:#BBBDBF}
</style>
<g>
	<path class="language-setting" d="M52.4,15.6c-9.2,0-17,5.1-19.5,12c-11.1,0.2-20.1,7.6-20.1,16.8c0.1,4.1,1.8,8,4.8,10.8v9.6
		c0,0.7,0.5,1.2,1.2,1.2c0.3,0,0.6-0.1,0.8-0.3l6.7-5.5c2.3,0.7,4.6,1,7,1c9.2,0,17-5.1,19.5-12c2.2,0,4.5-0.4,6.6-1l6.7,5.5
		c0.5,0.4,1.3,0.4,1.7-0.2c0.2-0.2,0.3-0.5,0.3-0.8v-9.6c3-2.8,4.7-6.7,4.8-10.8C72.8,23.1,63.6,15.6,52.4,15.6z M65.6,42.6v7.5
		l-5.2-4.3c-0.3-0.3-0.8-0.3-1.1-0.2c-1.9,0.6-3.9,1-5.9,1.1c0.1-0.8,0.2-1.6,0.2-2.4c0-3-1-6-2.8-8.4h4.6l1.9,5.2
		c0.2,0.6,0.9,1,1.5,0.7s1-0.9,0.7-1.5c0,0,0,0,0,0l-6-16.8c-0.2-0.6-0.9-0.9-1.5-0.7c-0.3,0.1-0.6,0.4-0.7,0.7L48,32.8
		c-3.5-3-7.9-4.8-12.6-5.1c2.4-5.6,9.1-9.7,17-9.7c9.9,0,18,6.5,18,14.4c-0.1,3.6-1.7,7-4.4,9.4C65.7,42,65.6,42.3,65.6,42.6z
		 M33.2,58.7c-2.3,0-4.6-0.4-6.9-1.1c-0.4-0.1-0.8,0-1.1,0.2L20,62.2v-7.5c0-0.3-0.1-0.7-0.4-0.9c-2.7-2.4-4.3-5.8-4.4-9.4
		c0-7.9,8.1-14.4,18-14.4s18,6.5,18,14.4S43.1,58.7,33.2,58.7z M50.2,33.6l2.2-6l2.2,6H50.2z"/>
	<path class="language-setting" d="M36.8,42.7c0-0.4,0-0.6,0-0.7c0-0.7-0.5-1.2-1.2-1.2s-1.2,0.5-1.2,1.2c0,0,0,0.1,0,0.2
		C33.6,42,32.9,42,32.1,42c0-0.8,0.1-1.4,0.1-2.1c1.4-0.4,2.8-1,4-1.7c0.6-0.4,0.7-1.1,0.3-1.7c-0.4-0.6-1.1-0.7-1.7-0.3
		c0,0,0,0,0,0c-0.7,0.5-1.5,0.8-2.4,1.1c0.1-0.7,0.3-1.4,0.5-2c0.3-0.6,0-1.3-0.6-1.6c-0.6-0.3-1.3,0-1.6,0.5
		c-0.5,1.2-0.8,2.4-0.9,3.7c-1.3,0.2-2.7,0.4-4,0.4c-0.7,0-1.2,0.5-1.2,1.2s0.5,1.2,1.2,1.2c1.3,0,2.5-0.1,3.8-0.3
		c0,0.6-0.1,1.2-0.1,1.8c-2.8,0.5-4.9,2.9-4.9,5.7c-0.1,2.5,1.9,4.7,4.4,4.8c0.1,0,0.3,0,0.4,0c0.4,0,0.8,0,1.2-0.1
		c0.3,1,1,1.8,1.9,2.4c0.2,0.1,0.4,0.1,0.6,0.1c0.5,0,0.9-0.2,1.1-0.7c0.3-0.6,0.1-1.3-0.5-1.6c0,0,0,0,0,0
		c-0.4-0.3-0.6-0.7-0.8-1.2c2.1-1.5,3.1-4.4,3.5-6.6c1.7,0.7,2.7,1.8,2.7,2.8c-0.1,1.7-1.2,3.1-2.8,3.7c-0.6,0.2-1,0.9-0.8,1.5
		c0.2,0.6,0.9,1,1.5,0.8c0.2-0.1,4.4-1.5,4.4-5.9C41.6,45.8,39.9,43.7,36.8,42.7z M29.6,50.3c-1.2,0.1-2.3-0.9-2.4-2.1
		c0-0.1,0-0.2,0-0.3c0-1.5,1-2.8,2.4-3.2c0,0.3,0,0.5,0,0.8c0,1.6,0.1,3.2,0.4,4.8C29.9,50.3,29.7,50.3,29.6,50.3z M32.3,49.2
		C32.1,48,32,46.8,32,45.5c0-0.4,0-0.8,0-1.2c0.7,0,1.4,0,2.1,0.2C33.9,46.2,33.3,47.8,32.3,49.2z"/>
</g>
</svg>
