<svg id="Group_1048" data-name="Group 1048" xmlns="http://www.w3.org/2000/svg" width="20" height="20" viewBox="0 0 18.197 18.197">
  <path class="fill_main-color" id="Path_435" data-name="Path 435" d="M21.748,34.617a9.1,9.1,0,1,0-.17-12.867A9.1,9.1,0,0,0,21.748,34.617Zm4.728.616a.766.766,0,0,1-.188-.023c-1.268-.323-1.036-3.681-.455-6.457l.062-.294,3.962.995-.088.294c-.772,2.589-2.075,5.486-3.29,5.486ZM32.053,27.9a21.819,21.819,0,0,0,.525-4.32c0-.205,0-.42-.021-.657l-.041-.722.587.534.109.1A7.291,7.291,0,0,1,35.434,28a6.827,6.827,0,0,1-.023.69l-.026.346L32,28.181ZM31.56,29.88l3.39.86-.141.317A7.323,7.323,0,0,1,29.878,35.2l-.7.176.382-.616c.126-.2.229-.382.329-.564a21.8,21.8,0,0,0,1.6-4.045ZM29.9,20.987c1.268.323,1.036,3.681.455,6.457l-.062.294-3.959-.995.088-.294C27.234,23.728,28.634,20.67,29.9,20.987ZM21.39,25.134a7.323,7.323,0,0,1,4.922-4.144l.7-.176-.384.613c-.126.205-.232.384-.329.564a21.83,21.83,0,0,0-1.591,4.053l-.079.27-3.387-.857Zm-.572,2.025,3.384.86-.059.276a21.813,21.813,0,0,0-.525,4.32c0,.2,0,.411.021.655l.041.722-.587-.537-.106-.1A7.291,7.291,0,0,1,20.759,28.2a6.828,6.828,0,0,1,.023-.69Z" transform="translate(-18.997 -19)" fill="#fff"/>
</svg>
