<?xml version="1.0" encoding="utf-8"?>
<!-- Generator: Adobe Illustrator 23.1.0, SVG Export Plug-In . SVG Version: 6.00 Build 0)  -->
<svg version="1.2" baseProfile="tiny" id="Layer_1" xmlns="http://www.w3.org/2000/svg" xmlns:xlink="http://www.w3.org/1999/xlink"
	 x="0px" y="0px" viewBox="0 0 1200 1200" xml:space="preserve">
<style type="text/css">
	.level_icon{fill:#BBBDBF;}
</style>
<path class="level_icon" d="M-3457.1-3833h-58.6c-2.2,12.1-4.8,25-8,38.5h-114l6,31.6v-2.9h186.4v1.3l21.4-29.9h-41.3
	C-3462.1-3807.9-3459.4-3820.8-3457.1-3833"/>
<path class="level_icon" d="M-3447.4-3898.5h-59.6c-0.7,7.5-1.7,18.1-3.4,30.9h-94.3l-24.6,28.7h230l20.5-28.7h-72.5
	C-3449.6-3879.2-3448.4-3889.5-3447.4-3898.5"/>
<path class="level_icon" d="M-3635.5-3596.8c-115.2,84-177.5,117.1-185,117.1c-7.6,0-69.9-33.1-185.1-117.1
	c-52.7-38.4-83.8-102.7-102.3-163.2h-58.8c21.8,74.7,59.4,155.7,124.8,203.5c137.8,100.5,212.3,140.1,221.3,140.1
	c9,0,83.5-39.6,221.3-140.1c65.4-47.7,103-128.8,124.8-203.5h-58.8C-3551.7-3699.5-3582.8-3635.2-3635.5-3596.8"/>
<path class="level_icon" d="M-3444.3-3933.1c1.5-30-6-144.4-11.5-155.3c-5.6-11.3-66.6-29.4-135.5-53.1
	c-68.9-23.7-229.2-46.3-229.2-46.3s-160.4,22.6-229.2,46.3c-68.9,23.7-129.9,41.8-135.5,53.1c-5.4,10.9-13,125.3-11.5,155.3h-109
	l20.4,28.7h221l-24.6-28.7h-46c1-37.5,5.9-101,9.5-108.4c4.8-9.4,55.7-24.5,113.3-44.4c57.6-19.8,191.7-38.7,191.7-38.7
	s134.1,18.9,191.6,38.7c57.6,19.8,108.5,34.9,113.3,44.4c3.6,7.4,8.5,70.8,9.5,108.4h-43.7l-24.6,28.7h220.9l20.5-28.7H-3444.3z"/>
<path class="level_icon" d="M-4239.4-3838.9h230l-24.6-28.7h-96.6c-1.7-12.8-2.7-23.4-3.4-30.9h-59.6c1,8.9,2.2,19.3,3.9,30.9h-70.2
	L-4239.4-3838.9z"/>
<path class="level_icon" d="M-4125.3-3833h-58.6c2.3,12.2,4.9,25,8.1,38.5h-38.9l21.4,29.9v-1.3h186.4v2.9l6-31.6h-116.4
	C-4120.5-3808-4123.1-3820.9-4125.3-3833"/>
<polygon class="level_icon" points="-3821.4,-4059.2 -3787.6,-3955.1 -3678.1,-3955.1 -3766.6,-3890.7 -3732.8,-3786.5 -3821.4,-3850.9 
	-3910,-3786.5 -3876.1,-3890.7 -3964.8,-3955.1 -3855.2,-3955.1 "/>
<polygon class="level_icon" points="-3821.4,-3778.9 -3802.8,-3721.6 -3742.6,-3721.6 -3791.3,-3686.2 -3772.7,-3629 -3821.4,-3664.3 
	-3870.1,-3629 -3851.5,-3686.2 -3900.2,-3721.6 -3840,-3721.6 "/>
<polygon class="level_icon" points="-3811.1,-2902.2 -3777.2,-2798.1 -3667.7,-2798.1 -3756.3,-2733.7 -3722.5,-2629.6 -3811.1,-2693.9 
	-3899.7,-2629.6 -3865.8,-2733.7 -3954.4,-2798.1 -3844.9,-2798.1 "/>
<polygon class="level_icon" points="-3714,-2595.8 -3695.4,-2538.5 -3635.2,-2538.5 -3683.9,-2503.1 -3665.3,-2445.9 -3714,-2481.2 
	-3762.7,-2445.9 -3744.1,-2503.1 -3792.8,-2538.5 -3732.6,-2538.5 "/>
<polygon class="level_icon" points="-3907.5,-2595.8 -3888.9,-2538.5 -3828.7,-2538.5 -3877.4,-2503.1 -3858.8,-2445.9 -3907.5,-2481.2 
	-3956.2,-2445.9 -3937.6,-2503.1 -3986.3,-2538.5 -3926.1,-2538.5 "/>
<path class="level_icon" d="M-3448.9-2665.9h-58.7c-2.1,12.1-4.8,25-8,38.5h-114l6,31.6v-2.9h186.4v1.3l21.4-30h-41.2
	C-3453.8-2640.8-3451.2-2653.6-3448.9-2665.9"/>
<path class="level_icon" d="M-3439.2-2731.3h-59.6c-0.7,7.5-1.7,18.1-3.4,30.9h-94.3l-24.6,28.7h229.9l20.5-28.7h-72.5
	C-3441.4-2712-3440.2-2722.4-3439.2-2731.3"/>
<path class="level_icon" d="M-3627.2-2429.6c-115.2,84-177.5,117.1-185,117.1c-7.6,0-69.8-33.1-185.1-117.1
	c-52.7-38.4-83.8-102.8-102.2-163.2h-58.8c21.8,74.7,59.4,155.7,124.8,203.5c137.8,100.5,212.3,140.1,221.3,140.1
	c9,0,83.6-39.6,221.3-140.1c65.5-47.7,103-128.8,124.8-203.5h-58.8C-3543.5-2532.4-3574.5-2468-3627.2-2429.6"/>
<path class="level_icon" d="M-3436-2765.9c1.6-30-6-144.4-11.5-155.3c-5.6-11.3-66.6-29.4-135.5-53.1c-68.9-23.7-229.2-46.3-229.2-46.3
	s-160.4,22.6-229.2,46.3c-68.9,23.7-129.9,41.8-135.5,53.1c-5.5,10.9-13,125.3-11.5,155.3h-109l20.5,28.7h220.9l-24.6-28.7h-46
	c1.1-37.5,5.9-101,9.6-108.4c4.7-9.4,55.7-24.6,113.3-44.4c57.6-19.8,191.6-38.7,191.6-38.7s134.1,18.9,191.6,38.7
	c57.6,19.8,108.6,34.9,113.3,44.4c3.7,7.4,8.5,70.8,9.6,108.4h-43.7l-24.6,28.7h220.9l20.5-28.7H-3436z"/>
<path class="level_icon" d="M-4231.1-2671.7h229.9l-24.6-28.7h-96.6c-1.6-12.8-2.7-23.4-3.4-30.9h-59.6c1,8.9,2.2,19.3,3.9,30.9h-70.2
	L-4231.1-2671.7z"/>
<path class="level_icon" d="M-4117-2665.9h-58.6c2.3,12.2,5,25.1,8.1,38.5h-38.9l21.4,30v-1.3h186.4v2.9l6-31.7H-4109
	C-4112.2-2640.9-4114.9-2653.8-4117-2665.9"/>
<path class="level_icon" d="M-3767.3-2765.9"/>
<path class="level_icon" d="M-3448.9-1467.4h-58.7c-2.1,12.1-4.8,25-8,38.5h-114l6,31.6v-2.9h186.4v1.3l21.4-30h-41.2
	C-3453.8-1442.3-3451.2-1455.2-3448.9-1467.4"/>
<path class="level_icon" d="M-3439.2-1532.9h-59.6c-0.7,7.5-1.7,18.1-3.4,30.9h-94.3l-24.6,28.7h229.9l20.5-28.7h-72.5
	C-3441.4-1513.6-3440.2-1523.9-3439.2-1532.9"/>
<path class="level_icon" d="M-3627.2-1231.2c-115.2,84-177.5,117.1-185,117.1c-7.6,0-69.8-33.1-185.1-117.1
	c-52.7-38.4-83.8-102.8-102.2-163.2h-58.8c21.8,74.7,59.4,155.7,124.8,203.5c137.8,100.5,212.3,140.1,221.3,140.1
	c9,0,83.6-39.6,221.3-140.1c65.5-47.7,103-128.8,124.8-203.5h-58.8C-3543.5-1333.9-3574.5-1269.6-3627.2-1231.2"/>
<path class="level_icon" d="M-3436-1567.4c1.6-30-6-144.4-11.5-155.3c-5.6-11.3-66.6-29.4-135.5-53.1c-68.9-23.7-229.2-46.3-229.2-46.3
	s-160.4,22.6-229.2,46.3c-68.9,23.7-129.9,41.8-135.5,53.1c-5.5,10.9-13,125.3-11.5,155.3h-109l20.5,28.7h220.9l-24.6-28.7h-46
	c1.1-37.5,5.9-101,9.6-108.4c4.7-9.4,55.7-24.6,113.3-44.4c57.6-19.8,191.6-38.7,191.6-38.7s134.1,18.9,191.6,38.7
	c57.6,19.8,108.6,34.9,113.3,44.4c3.7,7.4,8.5,70.8,9.6,108.4h-43.7l-24.6,28.7h220.9l20.5-28.7H-3436z"/>
<path class="level_icon" d="M-4231.1-1473.3h229.9l-24.6-28.7h-96.6c-1.6-12.8-2.7-23.4-3.4-30.9h-59.6c1,8.9,2.2,19.3,3.9,30.9h-70.2
	L-4231.1-1473.3z"/>
<path class="level_icon" d="M-4117-1467.4h-58.6c2.3,12.2,5,25.1,8.1,38.5h-38.9l21.4,30v-1.3h186.4v2.9l6-31.7H-4109
	C-4112.2-1442.4-4114.9-1455.3-4117-1467.4"/>
<polygon class="level_icon" points="-3810.3,-1549.4 -3776.5,-1445.3 -3667,-1445.3 -3755.6,-1380.9 -3721.8,-1276.8 -3810.3,-1341.2 
	-3898.9,-1276.8 -3865.1,-1380.9 -3953.7,-1445.3 -3844.2,-1445.3 "/>
<polygon class="level_icon" points="-3595.8,-1657.4 -3614.2,-1600.1 -3565.4,-1564.9 -3625.6,-1564.7 -3644,-1507.4 -3662.8,-1564.6 
	-3723,-1564.4 -3674.4,-1599.9 -3693.2,-1657.1 -3644.4,-1621.9 "/>
<polygon class="level_icon" points="-4031.5,-1657.4 -4013,-1600.1 -4061.9,-1564.9 -4001.7,-1564.7 -3983.2,-1507.4 -3964.5,-1564.6 
	-3904.3,-1564.4 -3952.9,-1599.9 -3934.1,-1657.1 -3982.9,-1621.9 "/>
<polygon class="level_icon" points="-3816,-1717.3 -3797.4,-1660.1 -3737.2,-1660.1 -3785.9,-1624.7 -3767.3,-1567.4 -3816,-1602.8 
	-3864.7,-1567.4 -3846.1,-1624.7 -3894.8,-1660.1 -3834.6,-1660.1 "/>
<g>
	<path fill-rule="evenodd" class="level_icon" d="M-3560.4,5819.3c2.4-21.2,2.4-45.1,0-63.4h265.1c-11.9,20.6-28.7,44.5-47.8,63.4
		H-3560.4z"/>
	<path fill-rule="evenodd" class="level_icon" d="M-4064.4,5855.7c28.7,109.9,129,188.3,248.4,188.3c119.4,0,222.1-78.5,248.4-188.3
		h200.6c-43,43-97.9,73.7-157.6,102.3c-59.7,97.9-167.2,164.8-291.4,164.8s-231.7-66.9-289-164.8c-62.1-28.7-117-59.4-160-102.3
		H-4064.4z"/>
	<path fill-rule="evenodd" class="level_icon" d="M-4069.1,5755.9c-4.8,18.3-4.8,42.1,0,63.4h-219.7c-19.1-18.9-33.4-42.7-47.8-63.4
		H-4069.1z"/>
	<path fill-rule="evenodd" class="level_icon" d="M-3266.6,5635.6c-2.4,31-7.2,54.7-19.1,80.9h-281.8c-26.3-109.9-129-188.4-248.4-188.4
		c-119.4,0-219.7,78.5-248.4,188.4h-281.8c-9.6-26.3-16.7-49.9-19.1-80.9c0-11.9,9.6-19.1,19.1-19.1h238.8
		c59.7-100.3,167.2-167.2,291.4-167.2s231.7,66.9,291.4,167.2h238.8C-3276.2,5616.5-3266.6,5623.7-3266.6,5635.6z"/>
</g>
<path fill-rule="evenodd" class="level_icon" d="M-3816,5564.9c-120.6,0-221.2,100.5-221.2,221.2c0,120.6,100.5,221.2,221.2,221.2
	c122.9,0,221.2-100.5,221.2-221.2C-3594.8,5665.5-3693.1,5564.9-3816,5564.9z M-3730.8,5914.2l-85.2-61.9l-85.2,61.9l32.5-100.2
	l-85.2-61.9h105.3l32.6-100.2l32.5,100.2h105.3l-85.2,61.9L-3730.8,5914.2z"/>
<path class="level_icon" d="M-3867,3233"/>
<polygon class="level_icon" points="-3792.5,4328.7 -3736.6,4500.9 -3555.7,4500.9 -3702.1,4607.1 -3646.1,4779.2 -3792.5,4672.9 
	-3938.9,4779.2 -3883,4607.1 -4029.4,4500.9 -3848.5,4500.9 "/>
<path class="level_icon" d="M-4135.5,2258.4l-57.7,11.9l10.2,42.3l72.7,66.7l30.1-4.5C-4104.4,2339.4-4122.3,2298.9-4135.5,2258.4"/>
<path class="level_icon" d="M-4168.6,2100l-72.2,15.5l30.2,120.9l64.5-13.8C-4158.2,2176.7-4165,2133.2-4168.6,2100"/>
<path class="level_icon" d="M-3434.5,2070.3c2.3-24.9-6-143.3-10.6-152.6c-3.6-7.2-47.9-22.1-90.7-36.4c-12.6-4.2-26-8.7-39.7-13.4
	c-64.2-22.1-212.5-43.6-223.1-45.1c-10.8,1.5-159,23-223.2,45.1c-13.6,4.7-27,9.2-39.6,13.4c-42.8,14.4-87,29.2-90.7,36.5
	c-4.6,9.2-12.9,127.6-10.6,152.6l0.3,4.1c6.5,79.9,34.1,274.8,149.5,359c131.1,95.7,205.4,135.8,214.3,136.4
	c8.8-0.6,83.1-40.7,214.2-136.4c115.4-84.2,143-279,149.5-359L-3434.5,2070.3z M-3489.5,2091.3c-1.9,20.3-13.9,223.8-126.7,306.1
	c-112.8,82.3-173.9,114.7-181.3,114.7c-7.4,0-68.5-32.4-181.3-114.7c-112.9-82.3-124.9-285.8-126.7-306.1
	c-1.8-20.3,4.6-120.3,9.2-129.5c4.6-9.3,54.6-24,111-43.5c56.4-19.4,187.8-37.9,187.8-37.9s131.3,18.5,187.7,37.9
	c56.4,19.5,106.4,34.2,111,43.5C-3494.1,1971-3487.6,2070.9-3489.5,2091.3"/>
<path class="level_icon" d="M-4164.3,1937.8l-108.6,19.5l14,118.2l87.6-5.1C-4172.8,2052.3-4169.1,1977.5-4164.3,1937.8"/>
<path class="level_icon" d="M-3579.2,2440.4c-10.2,7.4-20,14.5-29.5,21.3l1.3,3.4l31.4,3l50.9-34.2l4.9-22l-16.3-11.5
	C-3549.3,2415.3-3563.4,2428.8-3579.2,2440.4"/>
<path class="level_icon" d="M-4018,2440.4c-15.9-11.6-30.1-25.2-42.9-40.3l-16.5,11.7l4.9,22l51,34.2l31.4-3l1.4-3.7
	C-3998.2,2454.7-4007.9,2447.8-4018,2440.4"/>
<path class="level_icon" d="M-3432.9,1937.6c4.8,39.6,8.5,114.5,7.1,132.8l88.9,5.1l14-118.2L-3432.9,1937.6z"/>
<path class="level_icon" d="M-3451.1,2222.3l65.8,14.1l30.2-120.9l-73.5-15.8C-3432.3,2132.9-3439,2176.4-3451.1,2222.3"/>
<path class="level_icon" d="M-3516.9,2374.6l31.3,4.7l72.7-66.7l10.2-42.3l-58.9-12.1C-3474.8,2298.6-3492.7,2339.3-3516.9,2374.6"/>
<path class="level_icon" d="M-4135.5,1035.5l-57.7,11.9l10.2,42.3l72.7,66.7l30.1-4.5C-4104.4,1116.5-4122.3,1076-4135.5,1035.5"/>
<path class="level_icon" d="M-4168.6,877.1l-72.2,15.5l30.2,120.9l64.5-13.8C-4158.2,953.8-4165,910.3-4168.6,877.1"/>
<path class="level_icon" d="M-3434.5,847.4c2.3-24.9-6-143.3-10.6-152.6c-3.6-7.2-47.9-22.1-90.7-36.4c-12.6-4.2-26-8.7-39.7-13.4
	c-64.2-22.1-212.5-43.6-223.1-45.1c-10.8,1.5-159,23-223.2,45.1c-13.6,4.7-27,9.2-39.6,13.4c-42.8,14.4-87,29.2-90.7,36.5
	c-4.6,9.2-12.9,127.6-10.6,152.6l0.3,4.1c6.5,79.9,34.1,274.8,149.5,359c131.1,95.7,205.4,135.8,214.3,136.4
	c8.8-0.6,83.1-40.7,214.2-136.4c115.4-84.2,143-279,149.5-359L-3434.5,847.4z M-3489.5,868.4c-1.9,20.3-13.9,223.8-126.7,306.1
	c-112.8,82.3-173.9,114.7-181.3,114.7c-7.4,0-68.5-32.4-181.3-114.7c-112.9-82.3-124.9-285.8-126.7-306.1
	c-1.8-20.3,4.6-120.3,9.2-129.5c4.6-9.3,54.6-24,111-43.5c56.4-19.4,187.8-37.9,187.8-37.9s131.3,18.5,187.7,37.9
	c56.4,19.5,106.4,34.2,111,43.5C-3494.1,748.1-3487.6,848-3489.5,868.4"/>
<path class="level_icon" d="M-4164.3,714.9l-108.6,19.5l14,118.2l87.6-5.1C-4172.8,829.4-4169.1,754.6-4164.3,714.9"/>
<path class="level_icon" d="M-3579.2,1217.5c-10.2,7.4-20,14.5-29.5,21.3l1.3,3.4l31.4,3l50.9-34.2l4.9-22l-16.3-11.5
	C-3549.3,1192.4-3563.4,1205.9-3579.2,1217.5"/>
<path class="level_icon" d="M-4018,1217.5c-15.9-11.6-30.1-25.2-42.9-40.3l-16.5,11.7l4.9,22l51,34.2l31.4-3l1.4-3.7
	C-3998.2,1231.8-4007.9,1224.9-4018,1217.5"/>
<path class="level_icon" d="M-3432.9,714.7c4.8,39.6,8.5,114.5,7.1,132.8l88.9,5.1l14-118.2L-3432.9,714.7z"/>
<path class="level_icon" d="M-3451.1,999.4l65.8,14.1l30.2-120.9l-73.5-15.8C-3432.3,910-3439,953.5-3451.1,999.4"/>
<path class="level_icon" d="M-3516.9,1151.7l31.3,4.7l72.7-66.7l10.2-42.3l-58.9-12.1C-3474.8,1075.7-3492.7,1116.3-3516.9,1151.7"/>
<path class="level_icon" d="M-4125.2,3437l-57.7,11.9l10.2,42.3l72.7,66.7l30.1-4.5C-4094.1,3518-4112,3477.5-4125.2,3437"/>
<path class="level_icon" d="M-4158.3,3278.6l-72.2,15.5l30.2,120.9l64.5-13.8C-4147.9,3355.4-4154.7,3311.8-4158.3,3278.6"/>
<path class="level_icon" d="M-3424.2,3248.9c2.3-24.9-6-143.3-10.6-152.6c-3.6-7.2-47.9-22.1-90.7-36.4c-12.6-4.2-26-8.7-39.7-13.4
	c-64.2-22.1-212.5-43.6-223.1-45.1c-10.8,1.5-159,23-223.2,45.1c-13.6,4.7-27,9.2-39.6,13.4c-42.8,14.4-87,29.2-90.7,36.5
	c-4.6,9.2-12.9,127.6-10.6,152.6l0.3,4.1c6.5,79.9,34.1,274.8,149.5,359c131.1,95.7,205.4,135.8,214.3,136.4
	c8.8-0.6,83.1-40.7,214.2-136.4c115.4-84.2,143-279,149.5-359L-3424.2,3248.9z M-3479.1,3269.9c-1.9,20.3-13.9,223.8-126.7,306.1
	c-112.8,82.3-173.9,114.7-181.3,114.7c-7.4,0-68.5-32.4-181.3-114.7c-112.9-82.3-124.9-285.8-126.7-306.1
	c-1.8-20.3,4.6-120.3,9.2-129.5c4.6-9.3,54.6-24,111-43.5c56.4-19.4,187.8-37.9,187.8-37.9s131.3,18.5,187.7,37.9
	c56.4,19.5,106.4,34.2,111,43.5C-3483.7,3149.6-3477.3,3249.6-3479.1,3269.9"/>
<path class="level_icon" d="M-4154,3116.4l-108.6,19.5l14,118.2l87.6-5.1C-4162.5,3230.9-4158.8,3156.1-4154,3116.4"/>
<path class="level_icon" d="M-3568.9,3619c-10.2,7.4-20,14.5-29.5,21.3l1.3,3.4l31.4,3l50.9-34.2l4.9-22l-16.3-11.5
	C-3538.9,3593.9-3553.1,3607.5-3568.9,3619"/>
<path class="level_icon" d="M-4007.7,3619c-15.9-11.6-30.1-25.2-42.9-40.3l-16.5,11.7l4.9,22l51,34.2l31.4-3l1.4-3.7
	C-3987.9,3633.4-3997.6,3626.4-4007.7,3619"/>
<path class="level_icon" d="M-3422.6,3116.2c4.8,39.6,8.5,114.5,7.1,132.8l88.9,5.1l14-118.2L-3422.6,3116.2z"/>
<path class="level_icon" d="M-3440.8,3400.9l65.8,14.1l30.2-120.9l-73.5-15.8C-3421.9,3311.5-3428.6,3355.1-3440.8,3400.9"/>
<path class="level_icon" d="M-3506.6,3553.2l31.3,4.7l72.7-66.7l10.2-42.3l-58.9-12.1C-3464.5,3477.2-3482.4,3517.9-3506.6,3553.2"/>
<path class="level_icon" d="M-4125.2,4658.3l-57.7,11.9l10.2,42.3l72.7,66.7l30.1-4.5C-4094.1,4739.4-4112,4698.9-4125.2,4658.3"/>
<path class="level_icon" d="M-4158.3,4500l-72.2,15.5l30.2,120.9l64.5-13.8C-4147.9,4576.7-4154.7,4533.1-4158.3,4500"/>
<path class="level_icon" d="M-3424.2,4470.3c2.3-24.9-6-143.3-10.6-152.6c-3.6-7.2-47.9-22.1-90.7-36.4c-12.6-4.2-26-8.7-39.7-13.4
	c-64.2-22.1-212.5-43.6-223.1-45.1c-10.8,1.5-159,23-223.2,45.1c-13.6,4.7-27,9.2-39.6,13.4c-42.8,14.4-87,29.2-90.7,36.5
	c-4.6,9.2-12.9,127.6-10.6,152.6l0.3,4.1c6.5,79.9,34.1,274.8,149.5,359c131.1,95.7,205.4,135.8,214.3,136.4
	c8.8-0.6,83.1-40.7,214.2-136.4c115.4-84.2,143-279,149.5-359L-3424.2,4470.3z M-3479.1,4491.3c-1.9,20.3-13.9,223.8-126.7,306.1
	c-112.8,82.3-173.9,114.7-181.3,114.7c-7.4,0-68.5-32.4-181.3-114.7c-112.9-82.3-124.9-285.8-126.7-306.1
	c-1.8-20.3,4.6-120.3,9.2-129.5c4.6-9.3,54.6-24,111-43.5c56.4-19.4,187.8-37.9,187.8-37.9s131.3,18.5,187.7,37.9
	c56.4,19.5,106.4,34.2,111,43.5C-3483.7,4371-3477.3,4470.9-3479.1,4491.3"/>
<path class="level_icon" d="M-4154,4337.8l-108.6,19.5l14,118.2l87.6-5.1C-4162.5,4452.2-4158.8,4377.5-4154,4337.8"/>
<path class="level_icon" d="M-3568.9,4840.4c-10.2,7.4-20,14.5-29.5,21.3l1.3,3.4l31.4,3l50.9-34.2l4.9-22l-16.3-11.5
	C-3538.9,4815.3-3553.1,4828.8-3568.9,4840.4"/>
<path class="level_icon" d="M-4007.7,4840.4c-15.9-11.6-30.1-25.2-42.9-40.3l-16.5,11.7l4.9,22l51,34.2l31.4-3l1.4-3.7
	C-3987.9,4854.7-3997.6,4847.7-4007.7,4840.4"/>
<path class="level_icon" d="M-3422.6,4337.5c4.8,39.6,8.5,114.5,7.1,132.8l88.9,5.1l14-118.2L-3422.6,4337.5z"/>
<path class="level_icon" d="M-3440.8,4622.3l65.8,14.1l30.2-120.9l-73.5-15.8C-3421.9,4532.9-3428.6,4576.4-3440.8,4622.3"/>
<path class="level_icon" d="M-3506.6,4774.5l31.3,4.7l72.7-66.7l10.2-42.3l-58.9-12.1C-3464.5,4698.6-3482.4,4739.2-3506.6,4774.5"/>
<path class="level_icon" d="M-3798.6,819.9c-65.8,0-119.2,53.4-119.2,119.2c0,65.8,53.4,119.2,119.2,119.2
	c65.8,0,119.2-53.4,119.2-119.2C-3679.4,873.3-3732.8,819.9-3798.6,819.9z M-3798.6,1049.4c-60.8,0-110.2-49.4-110.2-110.2
	c0-60.8,49.4-110.2,110.2-110.2c60.8,0,110.2,49.4,110.2,110.2C-3688.4,999.9-3737.8,1049.4-3798.6,1049.4z"/>
<path class="level_icon" d="M-3798.6,847.5c-50.5,0-91.6,41.1-91.6,91.7c0,50.5,41.1,91.6,91.6,91.6c50.5,0,91.7-41.1,91.7-91.6
	C-3706.9,888.6-3748.1,847.5-3798.6,847.5z"/>
<path class="level_icon" d="M-3940.7,1996c-63.8,0-115.6,51.8-115.6,115.7c0,63.9,51.8,115.6,115.6,115.6c63.9,0,115.7-51.8,115.7-115.6
	C-3825.1,2047.7-3876.9,1996-3940.7,1996z M-3940.7,2218.5c-59,0-106.9-48-106.9-106.9c0-59,48-106.9,106.9-106.9
	c59,0,107,48,107,106.9C-3833.8,2170.6-3881.8,2218.5-3940.7,2218.5z"/>
<path class="level_icon" d="M-3940.7,2022.7c-49,0-88.9,39.9-88.9,88.9c0,49,39.9,88.9,88.9,88.9c49,0,88.9-39.9,88.9-88.9
	C-3851.8,2062.6-3891.7,2022.7-3940.7,2022.7z"/>
<path class="level_icon" d="M-3655.3,1996c-63.8,0-115.6,51.8-115.6,115.7c0,63.9,51.8,115.6,115.6,115.6c63.9,0,115.7-51.8,115.7-115.6
	C-3539.6,2047.7-3591.4,1996-3655.3,1996z M-3655.3,2218.5c-59,0-106.9-48-106.9-106.9c0-59,48-106.9,106.9-106.9
	c59,0,107,48,107,106.9C-3548.3,2170.6-3596.3,2218.5-3655.3,2218.5z"/>
<path class="level_icon" d="M-3655.3,2022.7c-49,0-88.9,39.9-88.9,88.9c0,49,39.9,88.9,88.9,88.9c49,0,88.9-39.9,88.9-88.9
	C-3566.3,2062.6-3606.2,2022.7-3655.3,2022.7z"/>
<path class="level_icon" d="M-3655.5,3117.3c-63.8,0-115.6,51.8-115.6,115.7c0,63.9,51.8,115.6,115.6,115.6
	c63.9,0,115.7-51.8,115.7-115.6C-3539.8,3169.1-3591.6,3117.3-3655.5,3117.3z M-3655.5,3339.9c-59,0-106.9-48-106.9-106.9
	c0-59,48-106.9,106.9-106.9c59,0,107,48,107,106.9C-3548.6,3292-3596.5,3339.9-3655.5,3339.9z"/>
<path class="level_icon" d="M-3655.5,3144.1c-49,0-88.9,39.9-88.9,88.9c0,49,39.9,88.9,88.9,88.9c49,0,88.9-39.9,88.9-88.9
	C-3566.6,3184-3606.5,3144.1-3655.5,3144.1z"/>
<path class="level_icon" d="M-3921.2,3117.3c-63.8,0-115.6,51.8-115.6,115.7c0,63.9,51.8,115.6,115.6,115.6
	c63.9,0,115.7-51.8,115.7-115.6C-3805.5,3169.1-3857.3,3117.3-3921.2,3117.3z M-3921.1,3339.9c-59,0-106.9-48-106.9-106.9
	c0-59,48-106.9,106.9-106.9c59,0,107,48,107,106.9C-3814.2,3292-3862.2,3339.9-3921.1,3339.9z"/>
<path class="level_icon" d="M-3921.1,3144.1c-49,0-88.9,39.9-88.9,88.9c0,49,39.9,88.9,88.9,88.9c49,0,88.9-39.9,88.9-88.9
	C-3832.2,3184-3872.1,3144.1-3921.1,3144.1z"/>
<path class="level_icon" d="M-3788.3,3367.9c-63.8,0-115.6,51.8-115.6,115.7c0,63.9,51.8,115.6,115.6,115.6
	c63.9,0,115.7-51.8,115.7-115.6C-3672.7,3419.7-3724.4,3367.9-3788.3,3367.9z M-3788.3,3590.5c-59,0-106.9-48-106.9-106.9
	c0-59,48-106.9,106.9-106.9c59,0,107,48,107,106.9C-3681.4,3542.5-3729.3,3590.5-3788.3,3590.5z"/>
<path class="level_icon" d="M-3788.3,3394.6c-49,0-88.9,39.9-88.9,88.9c0,49,39.9,88.9,88.9,88.9c49,0,88.9-39.9,88.9-88.9
	C-3699.4,3434.5-3739.3,3394.6-3788.3,3394.6z"/>
<g>
	<path class="level_icon" d="M-4004.5-596.6c-20.9,28.1-54.5,38.2-54.5,38.2s0.3-35.6,21.3-63.7c20.9-28.1,54.5-38.1,54.5-38.1
		S-3983.6-624.6-4004.5-596.6z"/>
	<path class="level_icon" d="M-4035.1-511.6c-34.3,5-65.1-12-65.1-12s24.9-25,59.2-30c34.3-4.9,65.1,12,65.1,12
		S-4000.8-516.6-4035.1-511.6z"/>
	<path class="level_icon" d="M-4103.8-438.6c-30.4,17.1-65.1,12.3-65.1,12.3s14.6-32.4,44.9-49.4c30.3-17,65-12.3,65-12.3
		S-4073.5-455.6-4103.8-438.6z"/>
	<path class="level_icon" d="M-4147.2-330.1c-21.4,27.7-55.2,37.1-55.2,37.1s1-35.5,22.4-63.2c21.4-27.7,55.1-37.1,55.1-37.1
		S-4125.8-357.8-4147.2-330.1z"/>
	<path class="level_icon" d="M-4143.4-215.6c-8.9,34.1-36.3,56.2-36.3,56.2s-12.9-33.1-3.9-67.1c8.9-34.1,36.3-56.2,36.3-56.2
		S-4134.5-249.6-4143.4-215.6z"/>
	<path class="level_icon" d="M-4104.3-121.2c6.2,34.7-9.3,66.6-9.3,66.6s-25.5-24.3-31.7-59c-6.2-34.7,9.3-66.6,9.3-66.6
		S-4110.5-155.9-4104.3-121.2z"/>
	<path class="level_icon" d="M-4040.3-60.2c15.4,31.6,9.2,66.6,9.2,66.6s-31.1-16.2-46.5-47.8c-15.3-31.6-9.2-66.6-9.2-66.6
		S-4055.6-91.9-4040.3-60.2z"/>
	<path class="level_icon" d="M-3950.2-14.8C-3925.4,9.9-3920,45-3920,45s-34.6-4.8-59.4-29.5c-24.7-24.6-30.3-59.8-30.3-59.8
		S-3974.9-39.4-3950.2-14.8z"/>
	<path class="level_icon" d="M-4174.5-422.2c0.7,35.2-19.6,64.2-19.6,64.2s-21.4-28.2-22.1-63.4c-0.7-35.2,19.6-64.2,19.6-64.2
		S-4175.1-457.5-4174.5-422.2z"/>
	<path class="level_icon" d="M-4210.2-278c17.9,30.2,14.7,65.5,14.7,65.5s-32.4-13.5-50.3-43.6c-17.9-30.2-14.6-65.6-14.6-65.6
		S-4228.1-308.2-4210.2-278z"/>
	<path class="level_icon" d="M-4186.9-153.7c28.1,20.6,38.7,54.5,38.7,54.5s-35,0.5-63.1-20.2c-28.1-20.6-38.7-54.5-38.7-54.5
		S-4215-174.4-4186.9-153.7z"/>
	<path class="level_icon" d="M-4113.3-43.8c33.5,9.1,55.2,37,55.2,37s-32.5,13.1-66,4c-33.5-9.1-55.3-36.9-55.3-36.9
		S-4146.8-52.9-4113.3-43.8z"/>
	<path class="level_icon" d="M-4039.4,14.8c34.6-2.2,63.9,17.1,63.9,17.1s-26.7,22.9-61.3,25.2c-34.6,2.2-64-17.1-64-17.1
		S-4073.9,17-4039.4,14.8z"/>
	<path class="level_icon" d="M-3942.6,58.2c33-10.6,66.1,0.9,66.1,0.9s-20.5,28.8-53.5,39.5c-33,10.7-66.1-0.8-66.1-0.8
		S-3975.7,68.9-3942.6,58.2z"/>
	<path class="level_icon" d="M-4106.2-526c-10.8,33.5-39.4,54-39.4,54s-11-33.8-0.2-67.2c10.8-33.5,39.4-54,39.4-54
		S-4095.4-559.4-4106.2-526z"/>
	<path class="level_icon" d="M-3844.7,23.8c-28.3-20.4-63.3-19.6-63.3-19.6s10.9,33.8,39.2,54.1c28.3,20.3,63.3,19.6,63.3,19.6
		S-3816.4,44.1-3844.7,23.8z"/>
	<path class="level_icon" d="M-3606.5-596.6c20.9,28.1,54.5,38.2,54.5,38.2s-0.3-35.6-21.2-63.7c-20.9-28.1-54.5-38.1-54.5-38.1
		S-3627.3-624.6-3606.5-596.6z"/>
	<path class="level_icon" d="M-3575.8-511.6c34.3,5,65-12,65-12s-24.9-25-59.2-30c-34.3-4.9-65.1,12-65.1,12S-3610.1-516.6-3575.8-511.6
		z"/>
	<path class="level_icon" d="M-3507.2-438.6c30.4,17.1,65,12.3,65,12.3s-14.6-32.4-44.9-49.4c-30.3-17-65-12.3-65-12.3
		S-3537.5-455.6-3507.2-438.6z"/>
	<path class="level_icon" d="M-3463.8-330.1c21.4,27.7,55.1,37.1,55.1,37.1s-1-35.5-22.4-63.2c-21.4-27.7-55.1-37.1-55.1-37.1
		S-3485.2-357.8-3463.8-330.1z"/>
	<path class="level_icon" d="M-3467.6-215.6c8.9,34.1,36.3,56.2,36.3,56.2s12.8-33.1,3.9-67.1c-8.9-34.1-36.3-56.2-36.3-56.2
		S-3476.5-249.6-3467.6-215.6z"/>
	<path class="level_icon" d="M-3506.7-121.2c-6.2,34.7,9.3,66.6,9.3,66.6s25.5-24.3,31.7-59c6.2-34.7-9.3-66.6-9.3-66.6
		S-3500.5-155.9-3506.7-121.2z"/>
	<path class="level_icon" d="M-3570.7-60.2c-15.4,31.6-9.2,66.6-9.2,66.6s31.1-16.2,46.5-47.8c15.3-31.6,9.2-66.6,9.2-66.6
		S-3555.3-91.9-3570.7-60.2z"/>
	<path class="level_icon" d="M-3660.8-14.8C-3685.5,9.9-3691,45-3691,45s34.6-4.8,59.4-29.5c24.7-24.6,30.3-59.8,30.3-59.8
		S-3636-39.4-3660.8-14.8z"/>
	<path class="level_icon" d="M-3436.5-422.2c-0.7,35.2,19.6,64.2,19.6,64.2s21.4-28.2,22.1-63.4c0.7-35.2-19.7-64.2-19.7-64.2
		S-3435.8-457.5-3436.5-422.2z"/>
	<path class="level_icon" d="M-3400.8-278c-17.9,30.2-14.7,65.5-14.7,65.5s32.4-13.5,50.3-43.6c17.9-30.2,14.6-65.6,14.6-65.6
		S-3382.9-308.2-3400.8-278z"/>
	<path class="level_icon" d="M-3424.1-153.7c-28.1,20.6-38.7,54.5-38.7,54.5s35,0.5,63.1-20.2c28.1-20.6,38.7-54.5,38.7-54.5
		S-3396-174.4-3424.1-153.7z"/>
	<path class="level_icon" d="M-3497.7-43.8c-33.5,9.1-55.2,37-55.2,37s32.5,13.1,66,4c33.5-9.1,55.3-36.9,55.3-36.9
		S-3464.2-52.9-3497.7-43.8z"/>
	<path class="level_icon" d="M-3571.6,14.8c-34.6-2.2-63.9,17.1-63.9,17.1s26.7,22.9,61.3,25.2c34.6,2.2,64-17.1,64-17.1
		S-3537,17-3571.6,14.8z"/>
	<path class="level_icon" d="M-3668.3,58.2c-33.1-10.6-66.1,0.9-66.1,0.9s20.4,28.8,53.5,39.5c33,10.7,66.1-0.8,66.1-0.8
		S-3635.3,68.9-3668.3,58.2z"/>
	<path class="level_icon" d="M-3504.8-526c10.8,33.5,39.4,54,39.4,54s11-33.8,0.2-67.2c-10.8-33.5-39.4-54-39.4-54
		S-3515.6-559.4-3504.8-526z"/>
	<path class="level_icon" d="M-3766.3,23.8C-3738,3.4-3703,4.2-3703,4.2s-10.9,33.8-39.2,54.1c-28.3,20.3-63.2,19.6-63.2,19.6
		S-3794.6,44.1-3766.3,23.8z"/>
	<path class="level_icon" d="M-3924.4,216.4c-1,0-1.9-0.3-2.8-0.8c-2.5-1.5-3.4-4.9-1.8-7.5c1-1.6,24.4-40.6,75.1-76.3
		c50.2-35.3,84.6-50.3,86.1-50.9c2.7-1.2,5.9,0.1,7,2.9c1.1,2.8-0.1,6-2.9,7.1c-0.4,0.1-35,15.2-84.1,49.8
		c-48.6,34.3-71.7,72.6-72,73C-3920.8,215.4-3922.6,216.4-3924.4,216.4z"/>
	<path class="level_icon" d="M-3686.5,216.4c-1.8,0-3.6-0.9-4.6-2.6c-0.2-0.4-23.3-38.7-72-73c-49.2-34.6-83.8-49.6-84.1-49.8
		c-2.7-1.2-4-4.4-2.9-7.1c1.2-2.8,4.3-4.1,7-2.9c1.5,0.6,35.9,15.5,86.1,50.9c50.7,35.7,74.1,74.7,75.1,76.3
		c1.5,2.6,0.7,5.9-1.8,7.5C-3684.6,216.1-3685.6,216.4-3686.5,216.4z"/>
	<path class="level_icon" d="M-3807.7-551.4c-147,0-266.3,119.3-266.3,266.4c0,147.1,119.3,266.4,266.3,266.4
		c147.2,0,266.5-119.3,266.5-266.4C-3541.2-432.1-3660.5-551.4-3807.7-551.4z M-3807.6-38.6c-135.8,0-246.3-110.5-246.3-246.3
		c0-135.8,110.5-246.4,246.3-246.4c135.8,0,246.4,110.5,246.4,246.4C-3561.3-149.1-3671.8-38.6-3807.6-38.6z"/>
	<path class="level_icon" d="M-3807.6-521.3c-130.3,0-236.3,106.1-236.3,236.4c0,130.3,106,236.3,236.3,236.3
		c130.3,0,236.4-106,236.4-236.3C-3571.3-415.3-3677.3-521.3-3807.6-521.3z M-3710.6-215.4h-193.9v-130.9l42.5,38l54.5-85l54.5,85
		l42.4-38V-215.4z"/>
</g>
<path class="level_icon" d="M956.1,569h-58.6c-2.2,12.1-4.8,25-8,38.5h-114l6,31.6v-2.9h186.4v1.3l21.4-29.9H948
	C951.2,594,953.9,581.2,956.1,569"/>
<path class="level_icon" d="M965.8,503.5h-59.6c-0.7,7.5-1.7,18.1-3.4,30.9h-94.3L784,563.1h230l20.5-28.7h-72.5
	C963.6,522.8,964.9,512.4,965.8,503.5"/>
<path class="level_icon" d="M777.8,805.2c-115.2,84-177.5,117.1-185,117.1c-7.6,0-69.9-33.1-185.1-117.1
	C355,766.8,323.9,702.5,305.4,642h-58.8c21.8,74.7,59.4,155.7,124.8,203.5C509.2,946,583.7,985.5,592.8,985.5
	c9,0,83.5-39.6,221.3-140.1c65.4-47.7,103-128.8,124.8-203.5h-58.8C861.6,702.5,830.5,766.8,777.8,805.2"/>
<path class="level_icon" d="M969,468.9c1.5-30-6-144.4-11.5-155.3c-5.6-11.3-66.6-29.4-135.5-53.1c-68.9-23.7-229.2-46.3-229.2-46.3
	s-160.4,22.6-229.2,46.3c-68.9,23.7-129.9,41.8-135.5,53.1c-5.4,10.9-13,125.3-11.5,155.3h-109l20.4,28.7h221l-24.6-28.7h-46
	c1-37.5,5.9-101,9.5-108.4c4.8-9.4,55.7-24.5,113.3-44.4c57.6-19.8,191.7-38.7,191.7-38.7s134.1,18.9,191.6,38.7
	C842,336,893,351.1,897.7,360.6c3.6,7.4,8.5,70.8,9.5,108.4h-43.7L839,497.6h220.9l20.5-28.7H969z"/>
<path class="level_icon" d="M173.9,563.1h230l-24.6-28.7h-96.6c-1.7-12.8-2.7-23.4-3.4-30.9h-59.6c1,8.9,2.2,19.3,3.9,30.9h-70.2
	L173.9,563.1z"/>
<path class="level_icon" d="M288,569h-58.6c2.3,12.2,4.9,25,8.1,38.5h-38.9l21.4,29.9v-1.3h186.4v2.9l6-31.6H296
	C292.8,594,290.2,581.1,288,569"/>
<polygon class="level_icon" points="591.9,342.8 625.7,446.9 735.2,446.9 646.6,511.3 680.5,615.4 591.9,551.1 503.3,615.4 537.1,511.3 
	448.5,446.9 558.1,446.9 "/>
<polygon class="level_icon" points="591.9,623.1 610.5,680.4 670.7,680.4 622,715.7 640.6,773 591.9,737.6 543.2,773 561.8,715.7 
	513,680.4 573.3,680.4 "/>
</svg>
