<?xml version="1.0" encoding="utf-8"?>
<!-- Generator: Adobe Illustrator 23.1.0, SVG Export Plug-In . SVG Version: 6.00 Build 0)  -->
<svg version="1.2" baseProfile="tiny" id="Layer_1" xmlns="http://www.w3.org/2000/svg" xmlns:xlink="http://www.w3.org/1999/xlink"
	 x="0px" y="0px" viewBox="0 0 1200 1200" xml:space="preserve">
<style type="text/css">
	.level_icon{fill:#BBBDBF;}
</style>
<g>
	<path fill-rule="evenodd" class="level_icon" d="M-1257.3,2629.4c2.4-21.2,2.4-45.1,0-63.4h265.1c-11.9,20.6-28.7,44.5-47.8,63.4
		H-1257.3z"/>
	<path fill-rule="evenodd" class="level_icon" d="M-1761.2,2665.8c28.7,109.9,129,188.3,248.4,188.3c119.4,0,222.1-78.5,248.4-188.3
		h200.6c-43,43-97.9,73.7-157.6,102.3c-59.7,97.9-167.2,164.8-291.4,164.8s-231.7-66.9-289-164.8c-62.1-28.7-117-59.4-160-102.3
		H-1761.2z"/>
	<path fill-rule="evenodd" class="level_icon" d="M-1766,2566c-4.8,18.3-4.8,42.1,0,63.4h-219.7c-19.1-18.9-33.4-42.7-47.8-63.4H-1766z"
		/>
	<path fill-rule="evenodd" class="level_icon" d="M-963.5,2445.8c-2.4,31-7.2,54.7-19.1,80.9h-281.8c-26.3-109.9-129-188.4-248.4-188.4
		c-119.4,0-219.7,78.5-248.4,188.4h-281.8c-9.6-26.3-16.7-49.9-19.1-80.9c0-11.9,9.6-19.1,19.1-19.1h238.8
		c59.7-100.3,167.2-167.2,291.4-167.2s231.7,66.9,291.4,167.2h238.8C-973.1,2426.7-963.5,2433.8-963.5,2445.8z"/>
</g>
<path fill-rule="evenodd" class="level_icon" d="M-1512.8,2375.1c-120.6,0-221.2,100.5-221.2,221.2c0,120.6,100.5,221.2,221.2,221.2
	c122.9,0,221.2-100.5,221.2-221.2C-1291.7,2475.6-1390,2375.1-1512.8,2375.1z M-1427.6,2724.3l-85.2-61.9l-85.2,61.9l32.5-100.2
	l-85.2-61.9h105.3l32.6-100.2l32.5,100.2h105.3l-85.2,61.9L-1427.6,2724.3z"/>
<path class="level_icon" d="M-1563.8,43.1"/>
<polygon class="level_icon" points="-1489.3,1138.8 -1433.5,1311 -1252.6,1311 -1399,1417.2 -1343,1589.3 -1489.3,1483 -1635.7,1589.3 
	-1579.8,1417.2 -1726.2,1311 -1545.4,1311 "/>
<path class="level_icon" d="M-1822.1,247.1l-57.7,11.9l10.2,42.3l72.7,66.7l30.1-4.5C-1790.9,328.2-1808.8,287.6-1822.1,247.1"/>
<path class="level_icon" d="M-1855.1,88.7l-72.2,15.5l30.2,120.9l64.5-13.8C-1844.8,165.5-1851.5,121.9-1855.1,88.7"/>
<path class="level_icon" d="M-1121,59.1c2.3-24.9-6-143.3-10.6-152.6c-3.6-7.2-47.9-22.1-90.7-36.4c-12.6-4.2-26-8.7-39.7-13.4
	c-64.2-22.1-212.5-43.6-223.1-45.1c-10.8,1.5-159,23-223.2,45.1c-13.6,4.7-27,9.2-39.6,13.4c-42.8,14.4-87,29.2-90.7,36.5
	c-4.6,9.2-12.9,127.6-10.6,152.6l0.3,4.1c6.5,79.9,34.1,274.8,149.5,359c131.1,95.7,205.4,135.8,214.3,136.4
	c8.8-0.6,83.1-40.7,214.2-136.4c115.4-84.2,143-279,149.5-359L-1121,59.1z M-1176,80c-1.9,20.3-13.9,223.8-126.7,306.1
	c-112.8,82.3-173.9,114.7-181.3,114.7c-7.4,0-68.5-32.4-181.3-114.7C-1778.1,303.8-1790.1,100.4-1792,80
	c-1.8-20.3,4.6-120.3,9.2-129.5c4.6-9.3,54.6-24,111-43.5c56.4-19.4,187.8-37.9,187.8-37.9s131.3,18.5,187.7,37.9
	c56.4,19.5,106.4,34.2,111,43.5C-1180.6-40.2-1174.1,59.7-1176,80"/>
<path class="level_icon" d="M-1850.9-73.5L-1959.5-54l14,118.2l87.6-5.1C-1859.3,41-1855.7-33.7-1850.9-73.5"/>
<path class="level_icon" d="M-1265.8,429.1c-10.2,7.4-20,14.5-29.5,21.3l1.3,3.4l31.4,3l50.9-34.2l4.9-22L-1223,389
	C-1235.8,404-1250,417.6-1265.8,429.1"/>
<path class="level_icon" d="M-1704.6,429.1c-15.9-11.6-30.1-25.2-42.9-40.3l-16.5,11.7l4.9,22l51,34.2l31.4-3l1.4-3.7
	C-1684.8,443.5-1694.5,436.5-1704.6,429.1"/>
<path class="level_icon" d="M-1119.5-73.7c4.8,39.6,8.5,114.5,7.1,132.8l88.9,5.1l14-118.2L-1119.5-73.7z"/>
<path class="level_icon" d="M-1137.6,211l65.8,14.1l30.2-120.9l-73.5-15.8C-1118.8,121.6-1125.5,165.2-1137.6,211"/>
<path class="level_icon" d="M-1203.4,363.3l31.3,4.7l72.7-66.7l10.2-42.3l-58.9-12.1C-1161.3,287.4-1179.3,328-1203.4,363.3"/>
<path class="level_icon" d="M-1822.1,1468.5l-57.7,11.9l10.2,42.3l72.7,66.7l30.1-4.5C-1790.9,1549.5-1808.8,1509-1822.1,1468.5"/>
<path class="level_icon" d="M-1855.1,1310.1l-72.2,15.5l30.2,120.9l64.5-13.8C-1844.8,1386.8-1851.5,1343.3-1855.1,1310.1"/>
<path class="level_icon" d="M-1121,1280.4c2.3-24.9-6-143.3-10.6-152.6c-3.6-7.2-47.9-22.1-90.7-36.4c-12.6-4.2-26-8.7-39.7-13.4
	c-64.2-22.1-212.5-43.6-223.1-45.1c-10.8,1.5-159,23-223.2,45.1c-13.6,4.7-27,9.2-39.6,13.4c-42.8,14.4-87,29.2-90.7,36.5
	c-4.6,9.2-12.9,127.6-10.6,152.6l0.3,4.1c6.5,79.9,34.1,274.8,149.5,359c131.1,95.7,205.4,135.8,214.3,136.4
	c8.8-0.6,83.1-40.7,214.2-136.4c115.4-84.2,143-279,149.5-359L-1121,1280.4z M-1176,1301.4c-1.9,20.3-13.9,223.8-126.7,306.1
	c-112.8,82.3-173.9,114.7-181.3,114.7c-7.4,0-68.5-32.4-181.3-114.7c-112.9-82.3-124.9-285.8-126.7-306.1
	c-1.8-20.3,4.6-120.3,9.2-129.5c4.6-9.3,54.6-24,111-43.5c56.4-19.4,187.8-37.9,187.8-37.9s131.3,18.5,187.7,37.9
	c56.4,19.5,106.4,34.2,111,43.5C-1180.6,1181.1-1174.1,1281-1176,1301.4"/>
<path class="level_icon" d="M-1850.9,1147.9l-108.6,19.5l14,118.2l87.6-5.1C-1859.3,1262.3-1855.7,1187.6-1850.9,1147.9"/>
<path class="level_icon" d="M-1265.8,1650.5c-10.2,7.4-20,14.5-29.5,21.3l1.3,3.4l31.4,3l50.9-34.2l4.9-22l-16.3-11.5
	C-1235.8,1625.4-1250,1638.9-1265.8,1650.5"/>
<path class="level_icon" d="M-1704.6,1650.5c-15.9-11.6-30.1-25.2-42.9-40.3l-16.5,11.7l4.9,22l51,34.2l31.4-3l1.4-3.7
	C-1684.8,1664.8-1694.5,1657.8-1704.6,1650.5"/>
<path class="level_icon" d="M-1119.5,1147.6c4.8,39.6,8.5,114.5,7.1,132.8l88.9,5.1l14-118.2L-1119.5,1147.6z"/>
<path class="level_icon" d="M-1137.6,1432.4l65.8,14.1l30.2-120.9l-73.5-15.8C-1118.8,1343-1125.5,1386.5-1137.6,1432.4"/>
<path class="level_icon" d="M-1203.4,1584.7l31.3,4.7l72.7-66.7l10.2-42.3l-58.9-12.1C-1161.3,1508.7-1179.3,1549.3-1203.4,1584.7"/>
<path class="level_icon" d="M-1352.4-72.5c-63.8,0-115.6,51.8-115.6,115.7c0,63.9,51.8,115.6,115.6,115.6c63.9,0,115.7-51.8,115.7-115.6
	C-1236.7-20.8-1288.5-72.5-1352.4-72.5z M-1352.4,150c-59,0-106.9-48-106.9-106.9c0-59,48-106.9,106.9-106.9c59,0,107,48,107,106.9
	C-1245.4,102.1-1293.4,150-1352.4,150z"/>
<path class="level_icon" d="M-1352.4-45.8c-49,0-88.9,39.9-88.9,88.9c0,49,39.9,88.9,88.9,88.9c49,0,88.9-39.9,88.9-88.9
	C-1263.4-5.9-1303.3-45.8-1352.4-45.8z"/>
<path class="level_icon" d="M-1618-72.5c-63.8,0-115.6,51.8-115.6,115.7c0,63.9,51.8,115.6,115.6,115.6c63.9,0,115.7-51.8,115.7-115.6
	C-1502.3-20.8-1554.1-72.5-1618-72.5z M-1618,150c-59,0-106.9-48-106.9-106.9c0-59,48-106.9,106.9-106.9c59,0,107,48,107,106.9
	C-1511,102.1-1559,150-1618,150z"/>
<path class="level_icon" d="M-1618-45.8c-49,0-88.9,39.9-88.9,88.9c0,49,39.9,88.9,88.9,88.9c49,0,88.9-39.9,88.9-88.9
	C-1529.1-5.9-1568.9-45.8-1618-45.8z"/>
<path class="level_icon" d="M-1485.2,178c-63.8,0-115.6,51.8-115.6,115.7c0,63.9,51.8,115.6,115.6,115.6c63.9,0,115.7-51.8,115.7-115.6
	C-1369.5,229.8-1421.3,178-1485.2,178z M-1485.2,400.6c-59,0-106.9-48-106.9-106.9c0-59,48-106.9,106.9-106.9c59,0,107,48,107,106.9
	C-1378.2,352.7-1426.2,400.6-1485.2,400.6z"/>
<path class="level_icon" d="M-1485.2,204.8c-49,0-88.9,39.9-88.9,88.9c0,49,39.9,88.9,88.9,88.9c49,0,88.9-39.9,88.9-88.9
	C-1396.2,244.7-1436.1,204.8-1485.2,204.8z"/>
<path class="level_icon" d="M262.4,662.1l-57.7,11.9l10.2,42.3l72.7,66.7l30.1-4.5C293.6,743.1,275.7,702.6,262.4,662.1"/>
<path class="level_icon" d="M229.4,503.7l-72.2,15.5l30.2,120.9l64.5-13.8C239.7,580.4,233,536.9,229.4,503.7"/>
<path class="level_icon" d="M963.5,474c2.3-24.9-6-143.3-10.6-152.6c-3.6-7.2-47.9-22.1-90.7-36.4c-12.6-4.2-26-8.7-39.7-13.4
	c-64.2-22.1-212.5-43.6-223.1-45.1c-10.8,1.5-159,23-223.2,45.1c-13.6,4.7-27,9.2-39.6,13.4c-42.8,14.4-87,29.2-90.7,36.5
	c-4.6,9.2-12.9,127.6-10.6,152.6l0.3,4.1c6.5,79.9,34.1,274.8,149.5,359c131.1,95.7,205.4,135.8,214.3,136.4
	c8.8-0.6,83.1-40.7,214.2-136.4c115.4-84.2,143-279,149.5-359L963.5,474z M908.5,495c-1.9,20.3-13.9,223.8-126.7,306.1
	C669,883.5,607.9,915.8,600.5,915.8c-7.4,0-68.5-32.4-181.3-114.7C306.4,718.8,294.4,515.3,292.5,495c-1.8-20.3,4.6-120.3,9.2-129.5
	c4.6-9.3,54.6-24,111-43.5c56.4-19.4,187.8-37.9,187.8-37.9s131.3,18.5,187.7,37.9c56.4,19.5,106.4,34.2,111,43.5
	C903.9,374.7,910.4,474.6,908.5,495"/>
<path class="level_icon" d="M233.6,341.5L125,361l14,118.2l87.6-5.1C225.2,456,228.8,381.2,233.6,341.5"/>
<path class="level_icon" d="M818.8,844.1c-10.2,7.4-20,14.5-29.5,21.3l1.3,3.4l31.4,3l50.9-34.2l4.9-22L861.5,804
	C848.7,819,834.5,832.5,818.8,844.1"/>
<path class="level_icon" d="M379.9,844.1c-15.9-11.6-30.1-25.2-42.9-40.3l-16.5,11.7l4.9,22l51,34.2l31.4-3l1.4-3.7
	C399.7,858.4,390,851.5,379.9,844.1"/>
<path class="level_icon" d="M965.1,341.3c4.8,39.6,8.5,114.5,7.1,132.8l88.9,5.1l14-118.2L965.1,341.3z"/>
<path class="level_icon" d="M946.9,626l65.8,14.1l30.2-120.9l-73.5-15.8C965.7,536.6,959,580.1,946.9,626"/>
<path class="level_icon" d="M881.1,778.3l31.3,4.7l72.7-66.7l10.2-42.3l-58.9-12.1C923.2,702.3,905.3,743,881.1,778.3"/>
<path class="level_icon" d="M457.2,399.7c-63.8,0-115.6,51.8-115.6,115.7c0,63.9,51.8,115.6,115.6,115.6c63.9,0,115.7-51.8,115.7-115.6
	C572.9,451.4,521.1,399.7,457.2,399.7z M457.2,622.2c-59,0-106.9-48-106.9-106.9c0-59,48-106.9,106.9-106.9c59,0,107,48,107,106.9
	C564.2,574.3,516.2,622.2,457.2,622.2z"/>
<path class="level_icon" d="M457.3,426.4c-49,0-88.9,39.9-88.9,88.9c0,49,39.9,88.9,88.9,88.9c49,0,88.9-39.9,88.9-88.9
	C546.2,466.3,506.3,426.4,457.3,426.4z"/>
<path class="level_icon" d="M742.7,399.7c-63.8,0-115.6,51.8-115.6,115.7c0,63.9,51.8,115.6,115.6,115.6c63.9,0,115.7-51.8,115.7-115.6
	C858.4,451.4,806.6,399.7,742.7,399.7z M742.7,622.2c-59,0-106.9-48-106.9-106.9c0-59,48-106.9,106.9-106.9c59,0,107,48,107,106.9
	C849.7,574.3,801.7,622.2,742.7,622.2z"/>
<path class="level_icon" d="M742.7,426.4c-49,0-88.9,39.9-88.9,88.9c0,49,39.9,88.9,88.9,88.9c49,0,88.9-39.9,88.9-88.9
	C831.7,466.3,791.8,426.4,742.7,426.4z"/>
</svg>
