<?xml version="1.0" encoding="utf-8"?>
<!-- Generator: Adobe Illustrator 23.1.0, SVG Export Plug-In . SVG Version: 6.00 Build 0)  -->
<svg version="1.2" baseProfile="tiny" id="Layer_1" xmlns="http://www.w3.org/2000/svg" xmlns:xlink="http://www.w3.org/1999/xlink"
	 x="0px" y="0px" viewBox="0 0 50 50" xml:space="preserve">
<g>
	<polygon class="level_icon"  fill="#231F20" points="24.8,11.1 27.5,19.5 36.3,19.5 29.2,24.7 31.9,33.1 24.8,27.9 17.7,33.1 20.4,24.7 13.2,19.5 
		22.1,19.5 	"/>
	<g>
		<path class="level_icon" fill="#231F20" d="M7.8,28l-2.9,0.6l0.5,2.1l3.7,3.4l1.5-0.2C9.4,32.1,8.5,30,7.8,28z"/>
		<path class="level_icon" fill="#231F20" d="M6.1,20l-3.6,0.8L4,26.9l3.3-0.7C6.7,23.9,6.3,21.7,6.1,20z"/>
		<path class="level_icon" fill="#231F20" d="M43.2,18.5c0.1-1.3-0.3-7.2-0.5-7.7c-0.2-0.4-2.4-1.1-4.6-1.8c-0.6-0.2-1.3-0.4-2-0.7
			C32.8,7.2,25.3,6.1,24.8,6c-0.5,0.1-8,1.2-11.3,2.3c-0.7,0.2-1.4,0.5-2,0.7C9.4,9.7,7.1,10.4,7,10.8c-0.2,0.5-0.7,6.4-0.5,7.7
			l0,0.2c0.3,4,1.7,13.9,7.5,18.1c6.6,4.8,10.4,6.8,10.8,6.9c0.4,0,4.2-2.1,10.8-6.9c5.8-4.2,7.2-14.1,7.5-18.1L43.2,18.5z
			 M40.4,19.6c-0.1,1-0.7,11.3-6.4,15.4c-5.7,4.2-8.8,5.8-9.1,5.8c-0.4,0-3.5-1.6-9.1-5.8C10,30.9,9.4,20.6,9.3,19.6
			c-0.1-1,0.2-6.1,0.5-6.5c0.2-0.5,2.8-1.2,5.6-2.2c2.8-1,9.5-1.9,9.5-1.9s6.6,0.9,9.5,1.9c2.8,1,5.4,1.7,5.6,2.2
			C40.2,13.5,40.5,18.5,40.4,19.6z"/>
		<path class="level_icon" fill="#231F20" d="M6.3,11.8l-5.5,1l0.7,6L6,18.5C5.9,17.6,6.1,13.8,6.3,11.8z"/>
		<path class="level_icon" fill="#231F20" d="M35.9,37.2c-0.5,0.4-1,0.7-1.5,1.1l0.1,0.2l1.6,0.2l2.6-1.7l0.2-1.1L38,35.2
			C37.4,35.9,36.7,36.6,35.9,37.2z"/>
		<path class="level_icon" fill="#231F20" d="M13.7,37.2c-0.8-0.6-1.5-1.3-2.2-2l-0.8,0.6l0.2,1.1l2.6,1.7l1.6-0.2l0.1-0.2
			C14.7,37.9,14.2,37.6,13.7,37.2z"/>
		<path class="level_icon" fill="#231F20" d="M43.2,11.8c0.2,2,0.4,5.8,0.4,6.7l4.5,0.3l0.7-6L43.2,11.8z"/>
		<path class="level_icon" fill="#231F20" d="M42.3,26.2l3.3,0.7l1.5-6.1L43.5,20C43.3,21.7,42.9,23.9,42.3,26.2z"/>
		<path class="level_icon" fill="#231F20" d="M39,33.9l1.6,0.2l3.7-3.4l0.5-2.1l-3-0.6C41.1,30,40.2,32.1,39,33.9z"/>
	</g>
</g>
</svg>
