<?xml version="1.0" encoding="utf-8"?>
<!-- Generator: Adobe Illustrator 23.1.0, SVG Export Plug-In . SVG Version: 6.00 Build 0)  -->
<svg version="1.2" baseProfile="tiny" id="Layer_1" xmlns="http://www.w3.org/2000/svg" xmlns:xlink="http://www.w3.org/1999/xlink"
	 x="0px" y="0px" viewBox="0 0 1200 1200" xml:space="preserve">
<style type="text/css">
	.level_icon{fill:#BBBDBF;}
</style>
<polygon class="level_icon" points="595.6,336.4 651.5,508.6 832.3,508.6 686,614.8 742,786.9 595.6,680.6 449.2,786.9 505.1,614.8 
	358.7,508.6 539.6,508.6 "/>
<path class="level_icon" d="M262.9,666l-57.7,11.9l10.2,42.3l72.7,66.7l30.1-4.5C294,747.1,276.1,706.6,262.9,666"/>
<path class="level_icon" d="M229.8,507.7l-72.2,15.5l30.2,120.9l64.5-13.8C240.2,584.4,233.4,540.9,229.8,507.7"/>
<path class="level_icon" d="M963.9,478c2.3-24.9-6-143.3-10.6-152.6c-3.6-7.2-47.9-22.1-90.7-36.4c-12.6-4.2-26-8.7-39.7-13.4
	c-64.2-22.1-212.5-43.6-223.1-45.1c-10.8,1.5-159,23-223.2,45.1c-13.6,4.7-27,9.2-39.6,13.4c-42.8,14.4-87,29.2-90.7,36.5
	c-4.6,9.2-12.9,127.6-10.6,152.6l0.3,4.1c6.5,79.9,34.1,274.8,149.5,359c131.1,95.7,205.4,135.8,214.3,136.4
	c8.8-0.6,83.1-40.7,214.2-136.4c115.4-84.2,143-279,149.5-359L963.9,478z M909,499c-1.9,20.3-13.9,223.8-126.7,306.1
	C669.4,887.4,608.4,919.8,601,919.8c-7.4,0-68.5-32.4-181.3-114.7C306.8,722.8,294.8,519.3,292.9,499c-1.8-20.3,4.6-120.3,9.2-129.5
	c4.6-9.3,54.6-24,111-43.5c56.4-19.4,187.8-37.9,187.8-37.9s131.3,18.5,187.7,37.9c56.4,19.5,106.4,34.2,111,43.5
	C904.3,378.7,910.8,478.6,909,499"/>
<path class="level_icon" d="M234.1,345.5L125.4,365l14,118.2l87.6-5.1C225.6,459.9,229.3,385.2,234.1,345.5"/>
<path class="level_icon" d="M819.2,848.1c-10.2,7.4-20,14.5-29.5,21.3l1.3,3.4l31.4,3l50.9-34.2l4.9-22L861.9,808
	C849.2,823,835,836.5,819.2,848.1"/>
<path class="level_icon" d="M380.4,848.1c-15.9-11.6-30.1-25.2-42.9-40.3L321,819.5l4.9,22l51,34.2l31.4-3l1.4-3.7
	C400.2,862.4,390.5,855.4,380.4,848.1"/>
<path class="level_icon" d="M965.5,345.2c4.8,39.6,8.5,114.5,7.1,132.8l88.9,5.1l14-118.2L965.5,345.2z"/>
<path class="level_icon" d="M947.3,630l65.8,14.1l30.2-120.9l-73.5-15.8C966.2,540.6,959.5,584.1,947.3,630"/>
<path class="level_icon" d="M881.5,782.2l31.3,4.7l72.7-66.7l10.2-42.3l-58.9-12.1C923.6,706.3,905.7,746.9,881.5,782.2"/>
</svg>
