<?xml version="1.0" encoding="utf-8"?>
<!-- Generator: Adobe Illustrator 23.1.0, SVG Export Plug-In . SVG Version: 6.00 Build 0)  -->
<svg version="1.2" baseProfile="tiny" id="Layer_1" xmlns="http://www.w3.org/2000/svg" xmlns:xlink="http://www.w3.org/1999/xlink"
	 x="0px" y="0px" viewBox="0 0 50 50" xml:space="preserve">
<style type="text/css">
	.level_icon{fill:#BBBDBF;}
</style>
<path class="level_icon" d="M42.7,23.4h-2.9c-0.1,0.6-0.2,1.2-0.4,1.9h-5.6l0.3,1.6v-0.1h9.1v0.1l1.1-1.5h-2
	C42.4,24.7,42.5,24,42.7,23.4z"/>
<path class="level_icon" d="M43.1,20.2h-2.9c0,0.4-0.1,0.9-0.2,1.5h-4.6l-1.2,1.4h11.3l1-1.4h-3.6C43,21.2,43.1,20.7,43.1,20.2z"/>
<path class="level_icon" d="M33.9,35c-5.7,4.1-8.7,5.7-9.1,5.7c-0.4,0-3.4-1.6-9.1-5.7c-2.6-1.9-4.1-5-5-8H7.8c1.1,3.7,2.9,7.6,6.1,10
	c6.8,4.9,10.4,6.9,10.9,6.9c0.4,0,4.1-1.9,10.9-6.9c3.2-2.3,5.1-6.3,6.1-10h-2.9C38,30,36.5,33.1,33.9,35z"/>
<path class="level_icon" d="M43.3,18.5c0.1-1.5-0.3-7.1-0.6-7.6c-0.3-0.6-3.3-1.4-6.6-2.6C32.7,7.1,24.8,6,24.8,6S17,7.1,13.6,8.3
	c-3.4,1.2-6.4,2.1-6.6,2.6c-0.3,0.5-0.6,6.1-0.6,7.6H1l1,1.4h10.8l-1.2-1.4H9.4c0.1-1.8,0.3-5,0.5-5.3c0.2-0.5,2.7-1.2,5.6-2.2
	c2.8-1,9.4-1.9,9.4-1.9s6.6,0.9,9.4,1.9c2.8,1,5.3,1.7,5.6,2.2c0.2,0.4,0.4,3.5,0.5,5.3h-2.1l-1.2,1.4h10.8l1-1.4H43.3z"/>
<g>
	<path class="level_icon" d="M4.3,23.1h11.3l-1.2-1.4H9.6c-0.1-0.6-0.1-1.2-0.2-1.5H6.5c0,0.4,0.1,0.9,0.2,1.5H3.3L4.3,23.1z"/>
	<path class="level_icon" d="M9.9,23.4H7c0.1,0.6,0.2,1.2,0.4,1.9H5.5l1.1,1.5v-0.1h9.1v0.1h0l0.3-1.6h-5.7C10.1,24.7,10,24,9.9,23.4z"
		/>
</g>
<polygon class="level_icon" points="24.9,19.4 26.6,24.5 32,24.5 27.6,27.7 29.3,32.8 24.9,29.6 20.6,32.8 22.2,27.7 17.9,24.5 
	23.3,24.5 "/>
<polygon class="level_icon" points="35.4,14.1 34.5,16.9 36.9,18.6 34,18.7 33.1,21.5 32.2,18.7 29.2,18.7 31.6,16.9 30.7,14.1 
	33.1,15.8 "/>
<polygon class="level_icon" points="14.1,14.1 15,16.9 12.6,18.6 15.5,18.7 16.4,21.5 17.4,18.7 20.3,18.7 17.9,16.9 18.8,14.1 
	16.5,15.8 "/>
<polygon class="level_icon" points="24.6,11.2 25.6,14 28.5,14 26.1,15.7 27,18.5 24.6,16.8 22.3,18.5 23.2,15.7 20.8,14 23.7,14 "/>
</svg>
