<?xml version="1.0" encoding="utf-8"?>
<!-- Generator: Adobe Illustrator 23.1.0, SVG Export Plug-In . SVG Version: 6.00 Build 0)  -->
<svg version="1.2" baseProfile="tiny" id="Layer_1" xmlns="http://www.w3.org/2000/svg" xmlns:xlink="http://www.w3.org/1999/xlink"
	 x="0px" y="0px" viewBox="0 0 1200 1200" xml:space="preserve">
<style type="text/css">
	.level_icon{fill:#BBBDBF;}
</style>
<g>
	<path fill-rule="evenodd" class="level_icon" d="M-3560.4,5819.3c2.4-21.2,2.4-45.1,0-63.4h265.1c-11.9,20.6-28.7,44.5-47.8,63.4
		H-3560.4z"/>
	<path fill-rule="evenodd" class="level_icon" d="M-4064.4,5855.7c28.7,109.9,129,188.3,248.4,188.3c119.4,0,222.1-78.5,248.4-188.3
		h200.6c-43,43-97.9,73.7-157.6,102.3c-59.7,97.9-167.2,164.8-291.4,164.8s-231.7-66.9-289-164.8c-62.1-28.7-117-59.4-160-102.3
		H-4064.4z"/>
	<path fill-rule="evenodd" class="level_icon" d="M-4069.1,5755.9c-4.8,18.3-4.8,42.1,0,63.4h-219.7c-19.1-18.9-33.4-42.7-47.8-63.4
		H-4069.1z"/>
	<path fill-rule="evenodd" class="level_icon" d="M-3266.6,5635.6c-2.4,31-7.2,54.7-19.1,80.9h-281.8c-26.3-109.9-129-188.4-248.4-188.4
		c-119.4,0-219.7,78.5-248.4,188.4h-281.8c-9.6-26.3-16.7-49.9-19.1-80.9c0-11.9,9.6-19.1,19.1-19.1h238.8
		c59.7-100.3,167.2-167.2,291.4-167.2s231.7,66.9,291.4,167.2h238.8C-3276.2,5616.5-3266.6,5623.7-3266.6,5635.6z"/>
</g>
<path fill-rule="evenodd" class="level_icon" d="M-3816,5564.9c-120.6,0-221.2,100.5-221.2,221.2c0,120.6,100.5,221.2,221.2,221.2
	c122.9,0,221.2-100.5,221.2-221.2C-3594.8,5665.5-3693.1,5564.9-3816,5564.9z M-3730.8,5914.2l-85.2-61.9l-85.2,61.9l32.5-100.2
	l-85.2-61.9h105.3l32.6-100.2l32.5,100.2h105.3l-85.2,61.9L-3730.8,5914.2z"/>
<path class="level_icon" d="M-3867,3233"/>
<polygon class="level_icon" points="-3792.5,4328.7 -3736.6,4500.9 -3555.7,4500.9 -3702.1,4607.1 -3646.1,4779.2 -3792.5,4672.9 
	-3938.9,4779.2 -3883,4607.1 -4029.4,4500.9 -3848.5,4500.9 "/>
<path class="level_icon" d="M-4135.5,2258.4l-57.7,11.9l10.2,42.3l72.7,66.7l30.1-4.5C-4104.4,2339.4-4122.3,2298.9-4135.5,2258.4"/>
<path class="level_icon" d="M-4168.6,2100l-72.2,15.5l30.2,120.9l64.5-13.8C-4158.2,2176.7-4165,2133.2-4168.6,2100"/>
<path class="level_icon" d="M-3434.5,2070.3c2.3-24.9-6-143.3-10.6-152.6c-3.6-7.2-47.9-22.1-90.7-36.4c-12.6-4.2-26-8.7-39.7-13.4
	c-64.2-22.1-212.5-43.6-223.1-45.1c-10.8,1.5-159,23-223.2,45.1c-13.6,4.7-27,9.2-39.6,13.4c-42.8,14.4-87,29.2-90.7,36.5
	c-4.6,9.2-12.9,127.6-10.6,152.6l0.3,4.1c6.5,79.9,34.1,274.8,149.5,359c131.1,95.7,205.4,135.8,214.3,136.4
	c8.8-0.6,83.1-40.7,214.2-136.4c115.4-84.2,143-279,149.5-359L-3434.5,2070.3z M-3489.5,2091.3c-1.9,20.3-13.9,223.8-126.7,306.1
	c-112.8,82.3-173.9,114.7-181.3,114.7c-7.4,0-68.5-32.4-181.3-114.7c-112.9-82.3-124.9-285.8-126.7-306.1
	c-1.8-20.3,4.6-120.3,9.2-129.5c4.6-9.3,54.6-24,111-43.5c56.4-19.4,187.8-37.9,187.8-37.9s131.3,18.5,187.7,37.9
	c56.4,19.5,106.4,34.2,111,43.5C-3494.1,1971-3487.6,2070.9-3489.5,2091.3"/>
<path class="level_icon" d="M-4164.3,1937.8l-108.6,19.5l14,118.2l87.6-5.1C-4172.8,2052.3-4169.1,1977.5-4164.3,1937.8"/>
<path class="level_icon" d="M-3579.2,2440.4c-10.2,7.4-20,14.5-29.5,21.3l1.3,3.4l31.4,3l50.9-34.2l4.9-22l-16.3-11.5
	C-3549.3,2415.3-3563.4,2428.8-3579.2,2440.4"/>
<path class="level_icon" d="M-4018,2440.4c-15.9-11.6-30.1-25.2-42.9-40.3l-16.5,11.7l4.9,22l51,34.2l31.4-3l1.4-3.7
	C-3998.2,2454.7-4007.9,2447.8-4018,2440.4"/>
<path class="level_icon" d="M-3432.9,1937.6c4.8,39.6,8.5,114.5,7.1,132.8l88.9,5.1l14-118.2L-3432.9,1937.6z"/>
<path class="level_icon" d="M-3451.1,2222.3l65.8,14.1l30.2-120.9l-73.5-15.8C-3432.3,2132.9-3439,2176.4-3451.1,2222.3"/>
<path class="level_icon" d="M-3516.9,2374.6l31.3,4.7l72.7-66.7l10.2-42.3l-58.9-12.1C-3474.8,2298.6-3492.7,2339.3-3516.9,2374.6"/>
<path class="level_icon" d="M-4125.2,3437l-57.7,11.9l10.2,42.3l72.7,66.7l30.1-4.5C-4094.1,3518-4112,3477.5-4125.2,3437"/>
<path class="level_icon" d="M-4158.3,3278.6l-72.2,15.5l30.2,120.9l64.5-13.8C-4147.9,3355.4-4154.7,3311.8-4158.3,3278.6"/>
<path class="level_icon" d="M-3424.2,3248.9c2.3-24.9-6-143.3-10.6-152.6c-3.6-7.2-47.9-22.1-90.7-36.4c-12.6-4.2-26-8.7-39.7-13.4
	c-64.2-22.1-212.5-43.6-223.1-45.1c-10.8,1.5-159,23-223.2,45.1c-13.6,4.7-27,9.2-39.6,13.4c-42.8,14.4-87,29.2-90.7,36.5
	c-4.6,9.2-12.9,127.6-10.6,152.6l0.3,4.1c6.5,79.9,34.1,274.8,149.5,359c131.1,95.7,205.4,135.8,214.3,136.4
	c8.8-0.6,83.1-40.7,214.2-136.4c115.4-84.2,143-279,149.5-359L-3424.2,3248.9z M-3479.1,3269.9c-1.9,20.3-13.9,223.8-126.7,306.1
	c-112.8,82.3-173.9,114.7-181.3,114.7c-7.4,0-68.5-32.4-181.3-114.7c-112.9-82.3-124.9-285.8-126.7-306.1
	c-1.8-20.3,4.6-120.3,9.2-129.5c4.6-9.3,54.6-24,111-43.5c56.4-19.4,187.8-37.9,187.8-37.9s131.3,18.5,187.7,37.9
	c56.4,19.5,106.4,34.2,111,43.5C-3483.7,3149.6-3477.3,3249.6-3479.1,3269.9"/>
<path class="level_icon" d="M-4154,3116.4l-108.6,19.5l14,118.2l87.6-5.1C-4162.5,3230.9-4158.8,3156.1-4154,3116.4"/>
<path class="level_icon" d="M-3568.9,3619c-10.2,7.4-20,14.5-29.5,21.3l1.3,3.4l31.4,3l50.9-34.2l4.9-22l-16.3-11.5
	C-3538.9,3593.9-3553.1,3607.5-3568.9,3619"/>
<path class="level_icon" d="M-4007.7,3619c-15.9-11.6-30.1-25.2-42.9-40.3l-16.5,11.7l4.9,22l51,34.2l31.4-3l1.4-3.7
	C-3987.9,3633.4-3997.6,3626.4-4007.7,3619"/>
<path class="level_icon" d="M-3422.6,3116.2c4.8,39.6,8.5,114.5,7.1,132.8l88.9,5.1l14-118.2L-3422.6,3116.2z"/>
<path class="level_icon" d="M-3440.8,3400.9l65.8,14.1l30.2-120.9l-73.5-15.8C-3421.9,3311.5-3428.6,3355.1-3440.8,3400.9"/>
<path class="level_icon" d="M-3506.6,3553.2l31.3,4.7l72.7-66.7l10.2-42.3l-58.9-12.1C-3464.5,3477.2-3482.4,3517.9-3506.6,3553.2"/>
<path class="level_icon" d="M-4125.2,4658.3l-57.7,11.9l10.2,42.3l72.7,66.7l30.1-4.5C-4094.1,4739.4-4112,4698.9-4125.2,4658.3"/>
<path class="level_icon" d="M-4158.3,4500l-72.2,15.5l30.2,120.9l64.5-13.8C-4147.9,4576.7-4154.7,4533.1-4158.3,4500"/>
<path class="level_icon" d="M-3424.2,4470.3c2.3-24.9-6-143.3-10.6-152.6c-3.6-7.2-47.9-22.1-90.7-36.4c-12.6-4.2-26-8.7-39.7-13.4
	c-64.2-22.1-212.5-43.6-223.1-45.1c-10.8,1.5-159,23-223.2,45.1c-13.6,4.7-27,9.2-39.6,13.4c-42.8,14.4-87,29.2-90.7,36.5
	c-4.6,9.2-12.9,127.6-10.6,152.6l0.3,4.1c6.5,79.9,34.1,274.8,149.5,359c131.1,95.7,205.4,135.8,214.3,136.4
	c8.8-0.6,83.1-40.7,214.2-136.4c115.4-84.2,143-279,149.5-359L-3424.2,4470.3z M-3479.1,4491.3c-1.9,20.3-13.9,223.8-126.7,306.1
	c-112.8,82.3-173.9,114.7-181.3,114.7c-7.4,0-68.5-32.4-181.3-114.7c-112.9-82.3-124.9-285.8-126.7-306.1
	c-1.8-20.3,4.6-120.3,9.2-129.5c4.6-9.3,54.6-24,111-43.5c56.4-19.4,187.8-37.9,187.8-37.9s131.3,18.5,187.7,37.9
	c56.4,19.5,106.4,34.2,111,43.5C-3483.7,4371-3477.3,4470.9-3479.1,4491.3"/>
<path class="level_icon" d="M-4154,4337.8l-108.6,19.5l14,118.2l87.6-5.1C-4162.5,4452.2-4158.8,4377.5-4154,4337.8"/>
<path class="level_icon" d="M-3568.9,4840.4c-10.2,7.4-20,14.5-29.5,21.3l1.3,3.4l31.4,3l50.9-34.2l4.9-22l-16.3-11.5
	C-3538.9,4815.3-3553.1,4828.8-3568.9,4840.4"/>
<path class="level_icon" d="M-4007.7,4840.4c-15.9-11.6-30.1-25.2-42.9-40.3l-16.5,11.7l4.9,22l51,34.2l31.4-3l1.4-3.7
	C-3987.9,4854.7-3997.6,4847.7-4007.7,4840.4"/>
<path class="level_icon" d="M-3422.6,4337.5c4.8,39.6,8.5,114.5,7.1,132.8l88.9,5.1l14-118.2L-3422.6,4337.5z"/>
<path class="level_icon" d="M-3440.8,4622.3l65.8,14.1l30.2-120.9l-73.5-15.8C-3421.9,4532.9-3428.6,4576.4-3440.8,4622.3"/>
<path class="level_icon" d="M-3506.6,4774.5l31.3,4.7l72.7-66.7l10.2-42.3l-58.9-12.1C-3464.5,4698.6-3482.4,4739.2-3506.6,4774.5"/>
<path class="level_icon" d="M-3940.7,1996c-63.8,0-115.6,51.8-115.6,115.7c0,63.9,51.8,115.6,115.6,115.6c63.9,0,115.7-51.8,115.7-115.6
	C-3825.1,2047.7-3876.9,1996-3940.7,1996z M-3940.7,2218.5c-59,0-106.9-48-106.9-106.9c0-59,48-106.9,106.9-106.9
	c59,0,107,48,107,106.9C-3833.8,2170.6-3881.8,2218.5-3940.7,2218.5z"/>
<path class="level_icon" d="M-3940.7,2022.7c-49,0-88.9,39.9-88.9,88.9c0,49,39.9,88.9,88.9,88.9c49,0,88.9-39.9,88.9-88.9
	C-3851.8,2062.6-3891.7,2022.7-3940.7,2022.7z"/>
<path class="level_icon" d="M-3655.3,1996c-63.8,0-115.6,51.8-115.6,115.7c0,63.9,51.8,115.6,115.6,115.6c63.9,0,115.7-51.8,115.7-115.6
	C-3539.6,2047.7-3591.4,1996-3655.3,1996z M-3655.3,2218.5c-59,0-106.9-48-106.9-106.9c0-59,48-106.9,106.9-106.9
	c59,0,107,48,107,106.9C-3548.3,2170.6-3596.3,2218.5-3655.3,2218.5z"/>
<path class="level_icon" d="M-3655.3,2022.7c-49,0-88.9,39.9-88.9,88.9c0,49,39.9,88.9,88.9,88.9c49,0,88.9-39.9,88.9-88.9
	C-3566.3,2062.6-3606.2,2022.7-3655.3,2022.7z"/>
<path class="level_icon" d="M-3655.5,3117.3c-63.8,0-115.6,51.8-115.6,115.7c0,63.9,51.8,115.6,115.6,115.6
	c63.9,0,115.7-51.8,115.7-115.6C-3539.8,3169.1-3591.6,3117.3-3655.5,3117.3z M-3655.5,3339.9c-59,0-106.9-48-106.9-106.9
	c0-59,48-106.9,106.9-106.9c59,0,107,48,107,106.9C-3548.6,3292-3596.5,3339.9-3655.5,3339.9z"/>
<path class="level_icon" d="M-3655.5,3144.1c-49,0-88.9,39.9-88.9,88.9c0,49,39.9,88.9,88.9,88.9c49,0,88.9-39.9,88.9-88.9
	C-3566.6,3184-3606.5,3144.1-3655.5,3144.1z"/>
<path class="level_icon" d="M-3921.2,3117.3c-63.8,0-115.6,51.8-115.6,115.7c0,63.9,51.8,115.6,115.6,115.6
	c63.9,0,115.7-51.8,115.7-115.6C-3805.5,3169.1-3857.3,3117.3-3921.2,3117.3z M-3921.1,3339.9c-59,0-106.9-48-106.9-106.9
	c0-59,48-106.9,106.9-106.9c59,0,107,48,107,106.9C-3814.2,3292-3862.2,3339.9-3921.1,3339.9z"/>
<path class="level_icon" d="M-3921.1,3144.1c-49,0-88.9,39.9-88.9,88.9c0,49,39.9,88.9,88.9,88.9c49,0,88.9-39.9,88.9-88.9
	C-3832.2,3184-3872.1,3144.1-3921.1,3144.1z"/>
<path class="level_icon" d="M-3788.3,3367.9c-63.8,0-115.6,51.8-115.6,115.7c0,63.9,51.8,115.6,115.6,115.6
	c63.9,0,115.7-51.8,115.7-115.6C-3672.7,3419.7-3724.4,3367.9-3788.3,3367.9z M-3788.3,3590.5c-59,0-106.9-48-106.9-106.9
	c0-59,48-106.9,106.9-106.9c59,0,107,48,107,106.9C-3681.4,3542.5-3729.3,3590.5-3788.3,3590.5z"/>
<path class="level_icon" d="M-3788.3,3394.6c-49,0-88.9,39.9-88.9,88.9c0,49,39.9,88.9,88.9,88.9c49,0,88.9-39.9,88.9-88.9
	C-3699.4,3434.5-3739.3,3394.6-3788.3,3394.6z"/>
<path class="level_icon" d="M254.8,662.1L197.1,674l10.2,42.3L280,783l30.1-4.5C286,743.2,268.1,702.6,254.8,662.1"/>
<path class="level_icon" d="M221.8,503.7l-72.2,15.5l30.2,120.9l64.5-13.8C232.1,580.5,225.4,536.9,221.8,503.7"/>
<path class="level_icon" d="M955.9,474c2.3-24.9-6-143.3-10.6-152.6c-3.6-7.2-47.9-22.1-90.7-36.4c-12.6-4.2-26-8.7-39.7-13.4
	c-64.2-22.1-212.5-43.6-223.1-45.1c-10.8,1.5-159,23-223.2,45.1c-13.6,4.7-27,9.2-39.6,13.4c-42.8,14.4-87,29.2-90.7,36.5
	c-4.6,9.2-12.9,127.6-10.6,152.6l0.3,4.1c6.5,79.9,34.1,274.8,149.5,359c131.1,95.7,205.4,135.8,214.3,136.4
	c8.8-0.6,83.1-40.7,214.2-136.4c115.4-84.2,143-279,149.5-359L955.9,474z M900.9,495c-1.9,20.3-13.9,223.8-126.7,306.1
	c-112.8,82.3-173.9,114.7-181.3,114.7c-7.4,0-68.5-32.4-181.3-114.7C298.8,718.8,286.8,515.4,284.9,495
	c-1.8-20.3,4.6-120.3,9.2-129.5c4.6-9.3,54.6-24,111-43.5c56.4-19.4,187.8-37.9,187.8-37.9s131.3,18.5,187.7,37.9
	c56.4,19.5,106.4,34.2,111,43.5C896.3,374.7,902.8,474.7,900.9,495"/>
<path class="level_icon" d="M226,341.5L117.4,361l14,118.2l87.6-5.1C217.6,456,221.3,381.2,226,341.5"/>
<path class="level_icon" d="M811.2,844.1c-10.2,7.4-20,14.5-29.5,21.3l1.3,3.4l31.4,3l50.9-34.2l4.9-22L853.9,804
	C841.1,819,826.9,832.6,811.2,844.1"/>
<path class="level_icon" d="M372.3,844.1c-15.9-11.6-30.1-25.2-42.9-40.3L313,815.5l4.9,22l51,34.2l31.4-3l1.4-3.7
	C392.1,858.5,382.5,851.5,372.3,844.1"/>
<path class="level_icon" d="M957.5,341.3c4.8,39.6,8.5,114.5,7.1,132.8l88.9,5.1l14-118.2L957.5,341.3z"/>
<path class="level_icon" d="M939.3,626l65.8,14.1l30.2-120.9l-73.5-15.8C958.1,536.6,951.4,580.2,939.3,626"/>
<path class="level_icon" d="M873.5,778.3l31.3,4.7l72.7-66.7l10.2-42.3l-58.9-12.1C915.6,702.3,897.7,743,873.5,778.3"/>
<path class="level_icon" d="M591.8,446.5c-65.8,0-119.2,53.4-119.2,119.2c0,65.8,53.4,119.2,119.2,119.2c65.8,0,119.2-53.4,119.2-119.2
	C711,499.9,657.6,446.5,591.8,446.5z M591.8,676c-60.8,0-110.2-49.4-110.2-110.2c0-60.8,49.4-110.2,110.2-110.2
	c60.8,0,110.2,49.4,110.2,110.2C702,626.5,652.6,676,591.8,676z"/>
<path class="level_icon" d="M591.8,474.1c-50.5,0-91.6,41.1-91.6,91.7c0,50.5,41.1,91.6,91.6,91.6c50.5,0,91.7-41.1,91.7-91.6
	C683.4,515.2,642.3,474.1,591.8,474.1z"/>
</svg>
