<?xml version="1.0" encoding="utf-8"?>
<!-- Generator: Adobe Illustrator 23.1.0, SVG Export Plug-In . SVG Version: 6.00 Build 0)  -->
<svg version="1.2" baseProfile="tiny" id="Layer_1" xmlns="http://www.w3.org/2000/svg" xmlns:xlink="http://www.w3.org/1999/xlink"
	 x="0px" y="0px" viewBox="0 0 1200 1200" xml:space="preserve">
<style type="text/css">
	.level_icon{fill:#BBBDBF;}
</style>
<g>
	<path fill-rule="evenodd" class="level_icon" d="M827.7,633.2c2.4-21.2,2.4-45.1,0-63.4h265.1c-11.9,20.6-28.7,44.5-47.8,63.4H827.7z"
		/>
	<path fill-rule="evenodd" class="level_icon" d="M323.7,669.6c28.7,109.9,129,188.3,248.4,188.3s222.1-78.5,248.4-188.3h200.6
		c-43,43-97.9,73.7-157.6,102.3c-59.7,97.9-167.2,164.8-291.4,164.8s-231.7-66.9-289-164.8c-62.1-28.7-117-59.4-160-102.3H323.7z"/>
	<path fill-rule="evenodd" class="level_icon" d="M318.9,569.8c-4.8,18.3-4.8,42.1,0,63.4H99.2c-19.1-18.9-33.4-42.7-47.8-63.4H318.9z"
		/>
	<path fill-rule="evenodd" class="level_icon" d="M1121.4,449.5c-2.4,31-7.2,54.7-19.1,80.9H820.5c-26.3-109.9-129-188.4-248.4-188.4
		s-219.7,78.5-248.4,188.4H41.9c-9.6-26.3-16.7-49.9-19.1-80.9c0-11.9,9.6-19.1,19.1-19.1h238.8c59.7-100.3,167.2-167.2,291.4-167.2
		s231.7,66.9,291.4,167.2h238.8C1111.9,430.4,1121.4,437.6,1121.4,449.5z"/>
</g>
<path fill-rule="evenodd" class="level_icon" d="M572.1,378.8c-120.6,0-221.2,100.5-221.2,221.2c0,120.6,100.5,221.2,221.2,221.2
	c122.9,0,221.2-100.5,221.2-221.2C793.3,479.4,695,378.8,572.1,378.8z M657.3,728.1l-85.2-61.9l-85.2,61.9l32.5-100.2L434.2,566
	h105.3l32.6-100.2L604.6,566H710l-85.2,61.9L657.3,728.1z"/>
</svg>
