<?xml version="1.0" encoding="utf-8"?>
<!-- Generator: Adobe Illustrator 23.1.0, SVG Export Plug-In . SVG Version: 6.00 Build 0)  -->
<svg version="1.2" baseProfile="tiny" id="Layer_1" xmlns="http://www.w3.org/2000/svg" xmlns:xlink="http://www.w3.org/1999/xlink"
	 x="0px" y="0px" viewBox="0 0 1200 1200" xml:space="preserve">
<style type="text/css">
	.level_icon{fill:#BBBDBF;}
</style>
<g>
	<path fill-rule="evenodd" class="level_icon" d="M-3560.4,5819.3c2.4-21.2,2.4-45.1,0-63.4h265.1c-11.9,20.6-28.7,44.5-47.8,63.4
		H-3560.4z"/>
	<path fill-rule="evenodd" class="level_icon" d="M-4064.4,5855.7c28.7,109.9,129,188.3,248.4,188.3c119.4,0,222.1-78.5,248.4-188.3
		h200.6c-43,43-97.9,73.7-157.6,102.3c-59.7,97.9-167.2,164.8-291.4,164.8s-231.7-66.9-289-164.8c-62.1-28.7-117-59.4-160-102.3
		H-4064.4z"/>
	<path fill-rule="evenodd" class="level_icon" d="M-4069.1,5755.9c-4.8,18.3-4.8,42.1,0,63.4h-219.7c-19.1-18.9-33.4-42.7-47.8-63.4
		H-4069.1z"/>
	<path fill-rule="evenodd" class="level_icon" d="M-3266.6,5635.6c-2.4,31-7.2,54.7-19.1,80.9h-281.8c-26.3-109.9-129-188.4-248.4-188.4
		c-119.4,0-219.7,78.5-248.4,188.4h-281.8c-9.6-26.3-16.7-49.9-19.1-80.9c0-11.9,9.6-19.1,19.1-19.1h238.8
		c59.7-100.3,167.2-167.2,291.4-167.2s231.7,66.9,291.4,167.2h238.8C-3276.2,5616.5-3266.6,5623.7-3266.6,5635.6z"/>
</g>
<path fill-rule="evenodd" class="level_icon" d="M-3816,5564.9c-120.6,0-221.2,100.5-221.2,221.2c0,120.6,100.5,221.2,221.2,221.2
	c122.9,0,221.2-100.5,221.2-221.2C-3594.8,5665.5-3693.1,5564.9-3816,5564.9z M-3730.8,5914.2l-85.2-61.9l-85.2,61.9l32.5-100.2
	l-85.2-61.9h105.3l32.6-100.2l32.5,100.2h105.3l-85.2,61.9L-3730.8,5914.2z"/>
<path class="level_icon" d="M-3867,3233"/>
<polygon class="level_icon" points="-3792.5,4328.7 -3736.6,4500.9 -3555.7,4500.9 -3702.1,4607.1 -3646.1,4779.2 -3792.5,4672.9 
	-3938.9,4779.2 -3883,4607.1 -4029.4,4500.9 -3848.5,4500.9 "/>
<path class="level_icon" d="M-4135.5,2258.4l-57.7,11.9l10.2,42.3l72.7,66.7l30.1-4.5C-4104.4,2339.4-4122.3,2298.9-4135.5,2258.4"/>
<path class="level_icon" d="M-4168.6,2100l-72.2,15.5l30.2,120.9l64.5-13.8C-4158.2,2176.7-4165,2133.2-4168.6,2100"/>
<path class="level_icon" d="M-3434.5,2070.3c2.3-24.9-6-143.3-10.6-152.6c-3.6-7.2-47.9-22.1-90.7-36.4c-12.6-4.2-26-8.7-39.7-13.4
	c-64.2-22.1-212.5-43.6-223.1-45.1c-10.8,1.5-159,23-223.2,45.1c-13.6,4.7-27,9.2-39.6,13.4c-42.8,14.4-87,29.2-90.7,36.5
	c-4.6,9.2-12.9,127.6-10.6,152.6l0.3,4.1c6.5,79.9,34.1,274.8,149.5,359c131.1,95.7,205.4,135.8,214.3,136.4
	c8.8-0.6,83.1-40.7,214.2-136.4c115.4-84.2,143-279,149.5-359L-3434.5,2070.3z M-3489.5,2091.3c-1.9,20.3-13.9,223.8-126.7,306.1
	c-112.8,82.3-173.9,114.7-181.3,114.7c-7.4,0-68.5-32.4-181.3-114.7c-112.9-82.3-124.9-285.8-126.7-306.1
	c-1.8-20.3,4.6-120.3,9.2-129.5c4.6-9.3,54.6-24,111-43.5c56.4-19.4,187.8-37.9,187.8-37.9s131.3,18.5,187.7,37.9
	c56.4,19.5,106.4,34.2,111,43.5C-3494.1,1971-3487.6,2070.9-3489.5,2091.3"/>
<path class="level_icon" d="M-4164.3,1937.8l-108.6,19.5l14,118.2l87.6-5.1C-4172.8,2052.3-4169.1,1977.5-4164.3,1937.8"/>
<path class="level_icon" d="M-3579.2,2440.4c-10.2,7.4-20,14.5-29.5,21.3l1.3,3.4l31.4,3l50.9-34.2l4.9-22l-16.3-11.5
	C-3549.3,2415.3-3563.4,2428.8-3579.2,2440.4"/>
<path class="level_icon" d="M-4018,2440.4c-15.9-11.6-30.1-25.2-42.9-40.3l-16.5,11.7l4.9,22l51,34.2l31.4-3l1.4-3.7
	C-3998.2,2454.7-4007.9,2447.8-4018,2440.4"/>
<path class="level_icon" d="M-3432.9,1937.6c4.8,39.6,8.5,114.5,7.1,132.8l88.9,5.1l14-118.2L-3432.9,1937.6z"/>
<path class="level_icon" d="M-3451.1,2222.3l65.8,14.1l30.2-120.9l-73.5-15.8C-3432.3,2132.9-3439,2176.4-3451.1,2222.3"/>
<path class="level_icon" d="M-3516.9,2374.6l31.3,4.7l72.7-66.7l10.2-42.3l-58.9-12.1C-3474.8,2298.6-3492.7,2339.3-3516.9,2374.6"/>
<path class="level_icon" d="M-4135.5,1035.5l-57.7,11.9l10.2,42.3l72.7,66.7l30.1-4.5C-4104.4,1116.5-4122.3,1076-4135.5,1035.5"/>
<path class="level_icon" d="M-4168.6,877.1l-72.2,15.5l30.2,120.9l64.5-13.8C-4158.2,953.8-4165,910.3-4168.6,877.1"/>
<path class="level_icon" d="M-3434.5,847.4c2.3-24.9-6-143.3-10.6-152.6c-3.6-7.2-47.9-22.1-90.7-36.4c-12.6-4.2-26-8.7-39.7-13.4
	c-64.2-22.1-212.5-43.6-223.1-45.1c-10.8,1.5-159,23-223.2,45.1c-13.6,4.7-27,9.2-39.6,13.4c-42.8,14.4-87,29.2-90.7,36.5
	c-4.6,9.2-12.9,127.6-10.6,152.6l0.3,4.1c6.5,79.9,34.1,274.8,149.5,359c131.1,95.7,205.4,135.8,214.3,136.4
	c8.8-0.6,83.1-40.7,214.2-136.4c115.4-84.2,143-279,149.5-359L-3434.5,847.4z M-3489.5,868.4c-1.9,20.3-13.9,223.8-126.7,306.1
	c-112.8,82.3-173.9,114.7-181.3,114.7c-7.4,0-68.5-32.4-181.3-114.7c-112.9-82.3-124.9-285.8-126.7-306.1
	c-1.8-20.3,4.6-120.3,9.2-129.5c4.6-9.3,54.6-24,111-43.5c56.4-19.4,187.8-37.9,187.8-37.9s131.3,18.5,187.7,37.9
	c56.4,19.5,106.4,34.2,111,43.5C-3494.1,748.1-3487.6,848-3489.5,868.4"/>
<path class="level_icon" d="M-4164.3,714.9l-108.6,19.5l14,118.2l87.6-5.1C-4172.8,829.4-4169.1,754.6-4164.3,714.9"/>
<path class="level_icon" d="M-3579.2,1217.5c-10.2,7.4-20,14.5-29.5,21.3l1.3,3.4l31.4,3l50.9-34.2l4.9-22l-16.3-11.5
	C-3549.3,1192.4-3563.4,1205.9-3579.2,1217.5"/>
<path class="level_icon" d="M-4018,1217.5c-15.9-11.6-30.1-25.2-42.9-40.3l-16.5,11.7l4.9,22l51,34.2l31.4-3l1.4-3.7
	C-3998.2,1231.8-4007.9,1224.9-4018,1217.5"/>
<path class="level_icon" d="M-3432.9,714.7c4.8,39.6,8.5,114.5,7.1,132.8l88.9,5.1l14-118.2L-3432.9,714.7z"/>
<path class="level_icon" d="M-3451.1,999.4l65.8,14.1l30.2-120.9l-73.5-15.8C-3432.3,910-3439,953.5-3451.1,999.4"/>
<path class="level_icon" d="M-3516.9,1151.7l31.3,4.7l72.7-66.7l10.2-42.3l-58.9-12.1C-3474.8,1075.7-3492.7,1116.3-3516.9,1151.7"/>
<path class="level_icon" d="M-4125.2,3437l-57.7,11.9l10.2,42.3l72.7,66.7l30.1-4.5C-4094.1,3518-4112,3477.5-4125.2,3437"/>
<path class="level_icon" d="M-4158.3,3278.6l-72.2,15.5l30.2,120.9l64.5-13.8C-4147.9,3355.4-4154.7,3311.8-4158.3,3278.6"/>
<path class="level_icon" d="M-3424.2,3248.9c2.3-24.9-6-143.3-10.6-152.6c-3.6-7.2-47.9-22.1-90.7-36.4c-12.6-4.2-26-8.7-39.7-13.4
	c-64.2-22.1-212.5-43.6-223.1-45.1c-10.8,1.5-159,23-223.2,45.1c-13.6,4.7-27,9.2-39.6,13.4c-42.8,14.4-87,29.2-90.7,36.5
	c-4.6,9.2-12.9,127.6-10.6,152.6l0.3,4.1c6.5,79.9,34.1,274.8,149.5,359c131.1,95.7,205.4,135.8,214.3,136.4
	c8.8-0.6,83.1-40.7,214.2-136.4c115.4-84.2,143-279,149.5-359L-3424.2,3248.9z M-3479.1,3269.9c-1.9,20.3-13.9,223.8-126.7,306.1
	c-112.8,82.3-173.9,114.7-181.3,114.7c-7.4,0-68.5-32.4-181.3-114.7c-112.9-82.3-124.9-285.8-126.7-306.1
	c-1.8-20.3,4.6-120.3,9.2-129.5c4.6-9.3,54.6-24,111-43.5c56.4-19.4,187.8-37.9,187.8-37.9s131.3,18.5,187.7,37.9
	c56.4,19.5,106.4,34.2,111,43.5C-3483.7,3149.6-3477.3,3249.6-3479.1,3269.9"/>
<path class="level_icon" d="M-4154,3116.4l-108.6,19.5l14,118.2l87.6-5.1C-4162.5,3230.9-4158.8,3156.1-4154,3116.4"/>
<path class="level_icon" d="M-3568.9,3619c-10.2,7.4-20,14.5-29.5,21.3l1.3,3.4l31.4,3l50.9-34.2l4.9-22l-16.3-11.5
	C-3538.9,3593.9-3553.1,3607.5-3568.9,3619"/>
<path class="level_icon" d="M-4007.7,3619c-15.9-11.6-30.1-25.2-42.9-40.3l-16.5,11.7l4.9,22l51,34.2l31.4-3l1.4-3.7
	C-3987.9,3633.4-3997.6,3626.4-4007.7,3619"/>
<path class="level_icon" d="M-3422.6,3116.2c4.8,39.6,8.5,114.5,7.1,132.8l88.9,5.1l14-118.2L-3422.6,3116.2z"/>
<path class="level_icon" d="M-3440.8,3400.9l65.8,14.1l30.2-120.9l-73.5-15.8C-3421.9,3311.5-3428.6,3355.1-3440.8,3400.9"/>
<path class="level_icon" d="M-3506.6,3553.2l31.3,4.7l72.7-66.7l10.2-42.3l-58.9-12.1C-3464.5,3477.2-3482.4,3517.9-3506.6,3553.2"/>
<path class="level_icon" d="M-4125.2,4658.3l-57.7,11.9l10.2,42.3l72.7,66.7l30.1-4.5C-4094.1,4739.4-4112,4698.9-4125.2,4658.3"/>
<path class="level_icon" d="M-4158.3,4500l-72.2,15.5l30.2,120.9l64.5-13.8C-4147.9,4576.7-4154.7,4533.1-4158.3,4500"/>
<path class="level_icon" d="M-3424.2,4470.3c2.3-24.9-6-143.3-10.6-152.6c-3.6-7.2-47.9-22.1-90.7-36.4c-12.6-4.2-26-8.7-39.7-13.4
	c-64.2-22.1-212.5-43.6-223.1-45.1c-10.8,1.5-159,23-223.2,45.1c-13.6,4.7-27,9.2-39.6,13.4c-42.8,14.4-87,29.2-90.7,36.5
	c-4.6,9.2-12.9,127.6-10.6,152.6l0.3,4.1c6.5,79.9,34.1,274.8,149.5,359c131.1,95.7,205.4,135.8,214.3,136.4
	c8.8-0.6,83.1-40.7,214.2-136.4c115.4-84.2,143-279,149.5-359L-3424.2,4470.3z M-3479.1,4491.3c-1.9,20.3-13.9,223.8-126.7,306.1
	c-112.8,82.3-173.9,114.7-181.3,114.7c-7.4,0-68.5-32.4-181.3-114.7c-112.9-82.3-124.9-285.8-126.7-306.1
	c-1.8-20.3,4.6-120.3,9.2-129.5c4.6-9.3,54.6-24,111-43.5c56.4-19.4,187.8-37.9,187.8-37.9s131.3,18.5,187.7,37.9
	c56.4,19.5,106.4,34.2,111,43.5C-3483.7,4371-3477.3,4470.9-3479.1,4491.3"/>
<path class="level_icon" d="M-4154,4337.8l-108.6,19.5l14,118.2l87.6-5.1C-4162.5,4452.2-4158.8,4377.5-4154,4337.8"/>
<path class="level_icon" d="M-3568.9,4840.4c-10.2,7.4-20,14.5-29.5,21.3l1.3,3.4l31.4,3l50.9-34.2l4.9-22l-16.3-11.5
	C-3538.9,4815.3-3553.1,4828.8-3568.9,4840.4"/>
<path class="level_icon" d="M-4007.7,4840.4c-15.9-11.6-30.1-25.2-42.9-40.3l-16.5,11.7l4.9,22l51,34.2l31.4-3l1.4-3.7
	C-3987.9,4854.7-3997.6,4847.7-4007.7,4840.4"/>
<path class="level_icon" d="M-3422.6,4337.5c4.8,39.6,8.5,114.5,7.1,132.8l88.9,5.1l14-118.2L-3422.6,4337.5z"/>
<path class="level_icon" d="M-3440.8,4622.3l65.8,14.1l30.2-120.9l-73.5-15.8C-3421.9,4532.9-3428.6,4576.4-3440.8,4622.3"/>
<path class="level_icon" d="M-3506.6,4774.5l31.3,4.7l72.7-66.7l10.2-42.3l-58.9-12.1C-3464.5,4698.6-3482.4,4739.2-3506.6,4774.5"/>
<path class="level_icon" d="M-3798.6,819.9c-65.8,0-119.2,53.4-119.2,119.2c0,65.8,53.4,119.2,119.2,119.2
	c65.8,0,119.2-53.4,119.2-119.2C-3679.4,873.3-3732.8,819.9-3798.6,819.9z M-3798.6,1049.4c-60.8,0-110.2-49.4-110.2-110.2
	c0-60.8,49.4-110.2,110.2-110.2c60.8,0,110.2,49.4,110.2,110.2C-3688.4,999.9-3737.8,1049.4-3798.6,1049.4z"/>
<path class="level_icon" d="M-3798.6,847.5c-50.5,0-91.6,41.1-91.6,91.7c0,50.5,41.1,91.6,91.6,91.6c50.5,0,91.7-41.1,91.7-91.6
	C-3706.9,888.6-3748.1,847.5-3798.6,847.5z"/>
<path class="level_icon" d="M-3940.7,1996c-63.8,0-115.6,51.8-115.6,115.7c0,63.9,51.8,115.6,115.6,115.6c63.9,0,115.7-51.8,115.7-115.6
	C-3825.1,2047.7-3876.9,1996-3940.7,1996z M-3940.7,2218.5c-59,0-106.9-48-106.9-106.9c0-59,48-106.9,106.9-106.9
	c59,0,107,48,107,106.9C-3833.8,2170.6-3881.8,2218.5-3940.7,2218.5z"/>
<path class="level_icon" d="M-3940.7,2022.7c-49,0-88.9,39.9-88.9,88.9c0,49,39.9,88.9,88.9,88.9c49,0,88.9-39.9,88.9-88.9
	C-3851.8,2062.6-3891.7,2022.7-3940.7,2022.7z"/>
<path class="level_icon" d="M-3655.3,1996c-63.8,0-115.6,51.8-115.6,115.7c0,63.9,51.8,115.6,115.6,115.6c63.9,0,115.7-51.8,115.7-115.6
	C-3539.6,2047.7-3591.4,1996-3655.3,1996z M-3655.3,2218.5c-59,0-106.9-48-106.9-106.9c0-59,48-106.9,106.9-106.9
	c59,0,107,48,107,106.9C-3548.3,2170.6-3596.3,2218.5-3655.3,2218.5z"/>
<path class="level_icon" d="M-3655.3,2022.7c-49,0-88.9,39.9-88.9,88.9c0,49,39.9,88.9,88.9,88.9c49,0,88.9-39.9,88.9-88.9
	C-3566.3,2062.6-3606.2,2022.7-3655.3,2022.7z"/>
<path class="level_icon" d="M-3655.5,3117.3c-63.8,0-115.6,51.8-115.6,115.7c0,63.9,51.8,115.6,115.6,115.6
	c63.9,0,115.7-51.8,115.7-115.6C-3539.8,3169.1-3591.6,3117.3-3655.5,3117.3z M-3655.5,3339.9c-59,0-106.9-48-106.9-106.9
	c0-59,48-106.9,106.9-106.9c59,0,107,48,107,106.9C-3548.6,3292-3596.5,3339.9-3655.5,3339.9z"/>
<path class="level_icon" d="M-3655.5,3144.1c-49,0-88.9,39.9-88.9,88.9c0,49,39.9,88.9,88.9,88.9c49,0,88.9-39.9,88.9-88.9
	C-3566.6,3184-3606.5,3144.1-3655.5,3144.1z"/>
<path class="level_icon" d="M-3921.2,3117.3c-63.8,0-115.6,51.8-115.6,115.7c0,63.9,51.8,115.6,115.6,115.6
	c63.9,0,115.7-51.8,115.7-115.6C-3805.5,3169.1-3857.3,3117.3-3921.2,3117.3z M-3921.1,3339.9c-59,0-106.9-48-106.9-106.9
	c0-59,48-106.9,106.9-106.9c59,0,107,48,107,106.9C-3814.2,3292-3862.2,3339.9-3921.1,3339.9z"/>
<path class="level_icon" d="M-3921.1,3144.1c-49,0-88.9,39.9-88.9,88.9c0,49,39.9,88.9,88.9,88.9c49,0,88.9-39.9,88.9-88.9
	C-3832.2,3184-3872.1,3144.1-3921.1,3144.1z"/>
<path class="level_icon" d="M-3788.3,3367.9c-63.8,0-115.6,51.8-115.6,115.7c0,63.9,51.8,115.6,115.6,115.6
	c63.9,0,115.7-51.8,115.7-115.6C-3672.7,3419.7-3724.4,3367.9-3788.3,3367.9z M-3788.3,3590.5c-59,0-106.9-48-106.9-106.9
	c0-59,48-106.9,106.9-106.9c59,0,107,48,107,106.9C-3681.4,3542.5-3729.3,3590.5-3788.3,3590.5z"/>
<path class="level_icon" d="M-3788.3,3394.6c-49,0-88.9,39.9-88.9,88.9c0,49,39.9,88.9,88.9,88.9c49,0,88.9-39.9,88.9-88.9
	C-3699.4,3434.5-3739.3,3394.6-3788.3,3394.6z"/>
<g>
	<path class="level_icon" d="M394.5,214.4c-20.9,28.1-54.5,38.2-54.5,38.2s0.3-35.6,21.3-63.7c20.9-28.1,54.5-38.1,54.5-38.1
		S415.4,186.3,394.5,214.4z"/>
	<path class="level_icon" d="M363.9,299.3c-34.3,5-65.1-12-65.1-12s24.9-25,59.2-30c34.3-4.9,65.1,12,65.1,12S398.2,294.4,363.9,299.3z"
		/>
	<path class="level_icon" d="M295.2,372.4c-30.4,17.1-65.1,12.3-65.1,12.3s14.6-32.4,44.9-49.4c30.3-17,65-12.3,65-12.3
		S325.5,355.3,295.2,372.4z"/>
	<path class="level_icon" d="M251.8,480.9c-21.4,27.7-55.2,37.1-55.2,37.1s1-35.5,22.4-63.2c21.4-27.7,55.1-37.1,55.1-37.1
		S273.2,453.2,251.8,480.9z"/>
	<path class="level_icon" d="M255.6,595.4c-8.9,34.1-36.3,56.2-36.3,56.2s-12.9-33.1-3.9-67.1c8.9-34.1,36.3-56.2,36.3-56.2
		S264.5,561.3,255.6,595.4z"/>
	<path class="level_icon" d="M294.7,689.7c6.2,34.7-9.3,66.6-9.3,66.6s-25.5-24.3-31.7-59c-6.2-34.7,9.3-66.6,9.3-66.6
		S288.5,655,294.7,689.7z"/>
	<path class="level_icon" d="M358.7,750.7c15.4,31.6,9.2,66.6,9.2,66.6s-31.1-16.2-46.5-47.8c-15.3-31.6-9.2-66.6-9.2-66.6
		S343.4,719.1,358.7,750.7z"/>
	<path class="level_icon" d="M448.8,796.2C473.6,820.9,479,856,479,856s-34.6-4.8-59.4-29.5c-24.7-24.6-30.3-59.8-30.3-59.8
		S424.1,771.5,448.8,796.2z"/>
	<path class="level_icon" d="M224.5,388.7c0.7,35.2-19.6,64.2-19.6,64.2s-21.4-28.2-22.1-63.4c-0.7-35.2,19.6-64.2,19.6-64.2
		S223.9,353.4,224.5,388.7z"/>
	<path class="level_icon" d="M188.8,533c17.9,30.2,14.7,65.5,14.7,65.5s-32.4-13.5-50.3-43.6c-17.9-30.2-14.6-65.6-14.6-65.6
		S170.9,502.8,188.8,533z"/>
	<path class="level_icon" d="M212.1,657.2c28.1,20.6,38.7,54.5,38.7,54.5s-35,0.5-63.1-20.2C159.6,671,149,637.1,149,637.1
		S184,636.6,212.1,657.2z"/>
	<path class="level_icon" d="M285.7,767.1c33.5,9.1,55.2,37,55.2,37s-32.5,13.1-66,4c-33.5-9.1-55.3-36.9-55.3-36.9
		S252.2,758.1,285.7,767.1z"/>
	<path class="level_icon" d="M359.6,825.7c34.6-2.2,63.9,17.1,63.9,17.1s-26.7,22.9-61.3,25.2c-34.6,2.2-64-17.1-64-17.1
		S325.1,828,359.6,825.7z"/>
	<path class="level_icon" d="M456.3,869.2c33-10.6,66.1,0.9,66.1,0.9S502,898.9,469,909.6c-33,10.7-66.1-0.8-66.1-0.8
		S423.3,879.9,456.3,869.2z"/>
	<path class="level_icon" d="M292.8,285c-10.8,33.5-39.4,54-39.4,54s-11-33.8-0.2-67.2c10.8-33.5,39.4-54,39.4-54S303.6,251.5,292.8,285
		z"/>
	<path class="level_icon" d="M554.3,834.7c-28.3-20.4-63.3-19.6-63.3-19.6s10.9,33.8,39.2,54.1c28.3,20.3,63.3,19.6,63.3,19.6
		S582.6,855,554.3,834.7z"/>
	<path class="level_icon" d="M792.5,214.4c20.9,28.1,54.5,38.2,54.5,38.2s-0.3-35.6-21.2-63.7c-20.9-28.1-54.5-38.1-54.5-38.1
		S771.7,186.3,792.5,214.4z"/>
	<path class="level_icon" d="M823.2,299.3c34.3,5,65-12,65-12s-24.9-25-59.2-30c-34.3-4.9-65.1,12-65.1,12S788.9,294.4,823.2,299.3z"/>
	<path class="level_icon" d="M891.8,372.4c30.4,17.1,65,12.3,65,12.3s-14.6-32.4-44.9-49.4c-30.3-17-65-12.3-65-12.3
		S861.5,355.3,891.8,372.4z"/>
	<path class="level_icon" d="M935.2,480.9c21.4,27.7,55.1,37.1,55.1,37.1s-1-35.5-22.4-63.2c-21.4-27.7-55.1-37.1-55.1-37.1
		S913.8,453.2,935.2,480.9z"/>
	<path class="level_icon" d="M931.4,595.4c8.9,34.1,36.3,56.2,36.3,56.2s12.8-33.1,3.9-67.1c-8.9-34.1-36.3-56.2-36.3-56.2
		S922.5,561.3,931.4,595.4z"/>
	<path class="level_icon" d="M892.3,689.7c-6.2,34.7,9.3,66.6,9.3,66.6s25.5-24.3,31.7-59c6.2-34.7-9.3-66.6-9.3-66.6
		S898.5,655,892.3,689.7z"/>
	<path class="level_icon" d="M828.3,750.7c-15.4,31.6-9.2,66.6-9.2,66.6s31.1-16.2,46.5-47.8c15.3-31.6,9.2-66.6,9.2-66.6
		S843.7,719.1,828.3,750.7z"/>
	<path class="level_icon" d="M738.2,796.2C713.5,820.9,708,856,708,856s34.6-4.8,59.4-29.5c24.7-24.6,30.3-59.8,30.3-59.8
		S763,771.5,738.2,796.2z"/>
	<path class="level_icon" d="M962.5,388.7c-0.7,35.2,19.6,64.2,19.6,64.2s21.4-28.2,22.1-63.4c0.7-35.2-19.7-64.2-19.7-64.2
		S963.2,353.4,962.5,388.7z"/>
	<path class="level_icon" d="M998.2,533c-17.9,30.2-14.7,65.5-14.7,65.5s32.4-13.5,50.3-43.6c17.9-30.2,14.6-65.6,14.6-65.6
		S1016.1,502.8,998.2,533z"/>
	<path class="level_icon" d="M974.9,657.2c-28.1,20.6-38.7,54.5-38.7,54.5s35,0.5,63.1-20.2c28.1-20.6,38.7-54.5,38.7-54.5
		S1003,636.6,974.9,657.2z"/>
	<path class="level_icon" d="M901.3,767.1c-33.5,9.1-55.2,37-55.2,37s32.5,13.1,66,4c33.5-9.1,55.3-36.9,55.3-36.9
		S934.8,758.1,901.3,767.1z"/>
	<path class="level_icon" d="M827.4,825.7c-34.6-2.2-63.9,17.1-63.9,17.1s26.7,22.9,61.3,25.2c34.6,2.2,64-17.1,64-17.1
		S862,828,827.4,825.7z"/>
	<path class="level_icon" d="M730.7,869.2c-33.1-10.6-66.1,0.9-66.1,0.9s20.5,28.8,53.5,39.5c33,10.7,66.1-0.8,66.1-0.8
		S763.7,879.9,730.7,869.2z"/>
	<path class="level_icon" d="M894.2,285c10.8,33.5,39.4,54,39.4,54s11-33.8,0.2-67.2c-10.8-33.5-39.4-54-39.4-54S883.4,251.5,894.2,285z
		"/>
	<path class="level_icon" d="M632.7,834.7c28.3-20.4,63.3-19.6,63.3-19.6s-10.9,33.8-39.2,54.1c-28.3,20.3-63.2,19.6-63.2,19.6
		S604.4,855,632.7,834.7z"/>
	<path class="level_icon" d="M474.6,1027.3c-1,0-1.9-0.3-2.8-0.8c-2.5-1.5-3.4-4.9-1.8-7.5c1-1.6,24.4-40.6,75.1-76.3
		c50.2-35.3,84.6-50.3,86.1-50.9c2.7-1.2,5.9,0.1,7,2.9c1.1,2.8-0.1,6-2.9,7.1c-0.4,0.1-35,15.2-84.1,49.8
		c-48.6,34.3-71.7,72.6-72,73C478.1,1026.4,476.4,1027.3,474.6,1027.3z"/>
	<path class="level_icon" d="M712.5,1027.3c-1.8,0-3.6-0.9-4.6-2.6c-0.2-0.4-23.3-38.7-72-73c-49.2-34.6-83.8-49.6-84.1-49.8
		c-2.7-1.2-4-4.4-2.9-7.1c1.2-2.8,4.3-4.1,7-2.9c1.5,0.6,35.9,15.5,86.1,50.9c50.7,35.7,74.1,74.7,75.1,76.3
		c1.5,2.6,0.7,5.9-1.8,7.5C714.4,1027,713.4,1027.3,712.5,1027.3z"/>
	<path class="level_icon" d="M591.3,259.6C444.3,259.6,325,378.9,325,526c0,147.1,119.3,266.4,266.3,266.4
		c147.2,0,266.5-119.3,266.5-266.4C857.8,378.9,738.5,259.6,591.3,259.6z M591.4,772.3c-135.8,0-246.3-110.5-246.3-246.3
		c0-135.8,110.5-246.4,246.3-246.4c135.8,0,246.4,110.5,246.4,246.4C837.7,661.8,727.2,772.3,591.4,772.3z"/>
	<path class="level_icon" d="M591.4,289.6c-130.3,0-236.3,106.1-236.3,236.4c0,130.3,106,236.3,236.3,236.3
		c130.3,0,236.4-106,236.4-236.3C827.7,395.7,721.7,289.6,591.4,289.6z M688.4,595.6H494.5V464.6l42.5,38l54.5-85l54.5,85l42.4-38
		V595.6z"/>
</g>
</svg>
