<?xml version="1.0" encoding="UTF-8" standalone="no"?>
<!DOCTYPE svg PUBLIC "-//W3C//DTD SVG 1.1//EN"
"http://www.w3.org/Graphics/SVG/1.1/DTD/svg11.dtd">


<!-- Page 7 -->
<svg x="0" y="0" width="275" height="275" viewBox="0 0 275 275" version="1.1" xmlns="http://www.w3.org/2000/svg" xmlns:xlink="http://www.w3.org/1999/xlink"
style="display: block;margin-left: auto;margin-right: auto;">
<defs>

<style type="text/css"><![CDATA[

.g1_7{
fill: #050604;
}


]]></style>

</defs>
<path d="M0,0
L0,275
L275,275
L275,0 Z " 
fill="#FFFFFF" stroke="none" />
<path d="M60.4,50.8c-7.6,0,-13.9,6.3,-13.9,13.9l0,10.8c0,1.7,1.4,3.1,3.1,3.1l18.5,0l0,121.8c0,7.7,6.3,13.9,13.9,13.9l24.7,0c4.2,0.1,4.2,-6.2,0,-6.1l-24.7,0c-4.3,0,-7.7,-3.5,-7.7,-7.8l0,-121.8l98.7,0c1.7,0,3.1,-1.4,3.1,-3.1l0,-10.7c0.1,-3.6,3.7,-7.8,7.7,-7.8c4.3,0,7.7,3.4,7.7,7.7l0,135.7c0,2.9,0.9,5.5,2.5,7.8l-34.9,0c-4.1,-0.1,-4.1,6.2,0,6.1l47.2,0c4.1,-0.1,7.6,-1.7,9.8,-4.3c2.3,-2.6,3.2,-6.1,3.2,-9.6l0,-13.8c0,-1.7,-1.4,-3.1,-3.1,-3.1l-10.8,0c-4.2,-0.1,-4.2,6.2,0,6.1l7.7,0l0,10.8l0,0.1c0,2.4,-0.6,4.2,-1.6,5.5c-1.1,1.2,-2.7,2,-5.4,2.2c-4.7,-0.1,-8.4,-4.1,-8.4,-7.7l0,-0.1l0,-135.7c0,-7.6,-6.2,-13.8,-13.9,-13.9c-7.8,0,-13.6,6.7,-13.9,13.8l0,0.1l0,7.7l-117.2,0l0,-7.7c0,-4.3,3.4,-7.7,7.7,-7.7c34.5,0,103.4,0,103.4,0c4.1,0.1,4.1,-6.2,0,-6.2c0,0,-68.9,0,-103.4,0Z" class="g1_7" />
<path d="M120.6,199.1c2.8,1.3,5.8,2,8.9,2.4l0,20.5l-8.9,5.4Zm24.7,-0.3l0,28.6l-9.6,-5.8l0,-20.1c3.4,-0.4,6.6,-1.3,9.6,-2.7m2.4,-23.2l7.7,0c-1.4,10.3,-9.4,18.3,-19.7,19.7l0,-7.7c6,-1.3,10.8,-6,12,-12Zm-37.9,0l7.7,0c1.2,6,6,10.7,12,12l0,7.7c-10.3,-1.4,-18.3,-9.4,-19.7,-19.7m22.8,-12.4c5.1,0,9.3,4.1,9.3,9.3c0,5.1,-4.1,9.2,-9.3,9.2c-5.1,0,-9.3,-4.1,-9.3,-9.2c0,-5.2,4.2,-9.3,9.3,-9.3m3.1,-13.6c10.3,1.4,18.3,9.5,19.7,19.8l-7.7,0c-1.2,-6,-6,-10.8,-12,-12Zm-6.2,0l0,7.8c-6.4,0.9,-10.8,6.6,-12,12l-7.7,0c1.4,-10.3,9.4,-18.4,19.7,-19.8m3.1,-6.4c-16.1,0,-29.3,13.1,-29.3,29.3c0,9.2,4.4,17.4,11.1,22.8l0,37.5c0,2.4,2.6,3.9,4.7,2.7l13.8,-8.3l13.8,8.3c2.1,1.2,4.7,-0.3,4.7,-2.7l0,-38.1c6.4,-5.3,10.5,-13.3,10.5,-22.2c0,-16.2,-13.1,-29.3,-29.3,-29.3Z" class="g1_7" />
<path d="M95.9,89.4c-4.1,-0.1,-4.1,6.2,0,6.2l23.1,0c4.2,0,4.2,-6.3,0,-6.2Z" class="g1_7" />
<path d="M160.4,89.4c-4.1,0.2,-3.8,6.4,0.3,6.2l9.2,0c4.1,0,4.1,-6.3,0,-6.2l-9.2,0c-0.1,0,-0.2,0,-0.3,0Z" class="g1_7" />
<path d="M129.9,89.4c-4.2,-0.1,-4.2,6.2,0,6.2l19.9,0c4.2,0,4.2,-6.3,0,-6.2Z" class="g1_7" />
<path d="M95.9,101.7c-4.1,0,-4.1,6.3,0,6.2l41.6,0c4.2,0.1,4.2,-6.2,0,-6.2Z" class="g1_7" />
<path d="M108.3,126.4c-4.2,-0.1,-4.2,6.2,0,6.2l49.2,0c4.2,0,4.2,-6.3,0,-6.2Z" class="g1_7" />
<path d="M148.4,101.7c-4.2,0,-4.2,6.3,0,6.2l21.5,0c4.2,0.1,4.2,-6.2,0,-6.2Z" class="g1_7" />
<path d="M95.9,114.1c-4.1,-0.1,-4.1,6.2,0,6.1l9.2,0c4.2,0.1,4.2,-6.2,0,-6.1Z" class="g1_7" />
<path d="M143.8,114.1c-4.2,-0.1,-4.2,6.2,0,6.1l26.1,0c4.2,0.1,4.2,-6.2,0,-6.1Z" class="g1_7" />
<path d="M116,114.1c-4.2,-0.1,-4.2,6.2,0,6.1l16.9,0c4.1,0.1,4.1,-6.2,0,-6.1Z" class="g1_7" />

</svg>
