<?xml version="1.0" encoding="utf-8"?>
<!-- Generator: Adobe Illustrator 24.0.0, SVG Export Plug-In . SVG Version: 6.00 Build 0)  -->
<svg version="1.2" baseProfile="tiny" id="Layer_1" xmlns="http://www.w3.org/2000/svg" xmlns:xlink="http://www.w3.org/1999/xlink"
	 x="0px" y="0px" viewBox="0 0 85.73 56.11" xml:space="preserve">
<g id="Group_24" transform="translate(-3261.925 -1146.987)">
	<rect id="Rectangle_34" x="3261.93" y="1146.99" fill="#050596" width="85.73" height="56.11"/>
	<g id="Group_20" transform="translate(3288.018 1151.428)">
		<path id="Path_29" fill="#FFFFFF" d="M0,28.41h1.67v-3.56H0V28.41z"/>
		<path id="Path_30" fill="#FFFFFF" d="M0.99,39.41H0v7.82h1.67v-7.82H0.99z"/>
		<path id="Path_31" fill="#FFFFFF" d="M21.28,20.88h1.65v-7.82h-1.65V20.88z"/>
		<path id="Path_32" fill="#FFFFFF" d="M22.27,31.88h-0.99v4.5h1.65v-4.5H22.27z"/>
		<path id="Path_33" fill="#FFFFFF" d="M33.24,19.83h-1.33v9.18h1.67v-9.18H33.24z"/>
		<path id="Path_34" fill="#FFFFFF" d="M31.91,6.99v9.89h1.67V6.99H31.91z"/>
		<path id="Path_35" fill="#FFFFFF" d="M12.29,0h-1.65v5.17H7.42v27.28h3.22v7.93h1.65v-7.93h3.22V5.17h-3.22V0z"/>
	</g>
	<g id="Group_21" transform="translate(3306.417 1172.311)">
		<path id="Path_36" fill="#FFFFFF" d="M5.88,1.54v7.91H1.54V1.54H5.88 M7.42,0H0v11h7.42V0z"/>
	</g>
	<g id="Group_22" transform="translate(3317.028 1168.239)">
		<path id="Path_37" fill="#FFFFFF" d="M5.88,1.54v1.03H1.55V1.54H5.88 M7.42,0H0v4.12h7.42V0z"/>
	</g>
	<g id="Group_23" transform="translate(3285.133 1179.76)">
		<path id="Path_38" fill="#FFFFFF" d="M5.89,1.54v8H1.54v-8H5.89 M7.43,0H0v11.09h7.42L7.43,0L7.43,0z"/>
	</g>
</g>
</svg>
