<svg xmlns="http://www.w3.org/2000/svg" width="20" height="20" viewBox="0 0 18.227 18.197">
  <g id="Group_1082" data-name="Group 1082" transform="translate(-3115 -8236.276)">
    <path class="fill_main-color" id="Path_568" data-name="Path 568" d="M38.8,29.228a.881.881,0,0,0,.675.229.916.916,0,0,0,.792-.93V25.055A2.055,2.055,0,0,0,38.21,23H34.688a.881.881,0,0,0-.881.969.916.916,0,0,0,.93.792h2.518l-12,12a.881.881,0,0,0,0,1.244A.9.9,0,0,0,26.5,38l12-12v2.571A.881.881,0,0,0,38.8,29.228Z" transform="translate(3091.773 8214.451)" fill="#fff"/>
    <path class="fill_main-color" id="Path_569" data-name="Path 569" d="M21.606,26.616a2.055,2.055,0,0,0,2.906,0l2.055-2.055a2.055,2.055,0,0,0,0-2.906L24.512,19.6a2.055,2.055,0,0,0-2.906,0l-2.055,2.055a2.055,2.055,0,0,0,0,2.906Zm-.8-3.716,2.055-2.055a.294.294,0,0,1,.414,0L25.333,22.9a.294.294,0,0,1,0,.414l-2.055,2.055a.294.294,0,0,1-.414,0L20.81,23.314A.294.294,0,0,1,20.81,22.9Z" transform="translate(3096.051 8217.277)" fill="#fff"/>
    <path class="fill_main-color" id="Path_570" data-name="Path 570" d="M58.612,53.6a2.055,2.055,0,0,0-2.906,0l-2.055,2.055a2.055,2.055,0,0,0,0,2.906l2.055,2.055a2.055,2.055,0,0,0,2.906,0l2.055-2.055a2.055,2.055,0,0,0,0-2.906Zm.81,3.716-2.055,2.055a.293.293,0,0,1-.414,0L54.9,57.317a.294.294,0,0,1,0-.414l2.055-2.055a.294.294,0,0,1,.414,0L59.422,56.9a.294.294,0,0,1-.015.414Z" transform="translate(3071.959 8193.256)" fill="#fff"/>
  </g>
</svg>
