<?xml version="1.0" encoding="utf-8"?>
<!-- Generator: Adobe Illustrator 19.0.0, SVG Export Plug-In . SVG Version: 6.00 Build 0)  -->
<svg version="1.1" id="Layer_1" xmlns="http://www.w3.org/2000/svg" xmlns:xlink="http://www.w3.org/1999/xlink" x="0px" y="0px"
	 viewBox="-170 262 270 270" style="enable-background:new -170 262 270 270;" xml:space="preserve">
<style type="text/css">
	.limit-sell-01{fill:none;stroke:#21201F;stroke-width:7;stroke-linecap:round;stroke-linejoin:round;stroke-miterlimit:10;}
	.limit-sell-02{fill:none;stroke:#03A550;stroke-width:7;stroke-linecap:round;stroke-linejoin:round;stroke-miterlimit:10;}
	.limit-sell-03{fill:#03A550;}
	.limit-sell-04{fill:#010101;}
</style>
<g id="XMLID_561_">
	<path id="XMLID_553_" class="limit-sell-01" d="M15.9,427v71.6c0,16.3-12.6,29.6-29.6,29.6h-94.7c-16.3,0-29.6-13.3-29.6-29.6v-142
		c0-16.3,13.3-29.6,29.6-29.6H-84"/>
</g>
<line id="XMLID_552_" class="limit-sell-01" x1="-102.4" y1="435.5" x2="-19.6" y2="435.5"/>
<line id="XMLID_551_" class="limit-sell-01" x1="-102.4" y1="464.1" x2="-19.6" y2="464.1"/>
<line id="XMLID_550_" class="limit-sell-01" x1="-102.8" y1="492.7" x2="-20" y2="492.7"/>
<path id="XMLID_560_" class="limit-sell-01" d="M-19.6,433.6"/>
<line id="XMLID_563_" class="limit-sell-02" x1="-82.6" y1="406.8" x2="-19.6" y2="406.8"/>
<polyline id="XMLID_555_" class="limit-sell-02" points="-105.2,406.8 -100.4,409.4 -94.1,399.7 "/>
<polyline id="XMLID_557_" class="limit-sell-02" points="-105.2,380.2 -100.4,382.8 -94.1,373 "/>
<polyline id="XMLID_558_" class="limit-sell-02" points="-105.2,353.5 -100.4,356.2 -94.1,346.4 "/>
<line id="XMLID_564_" class="limit-sell-02" x1="-82.6" y1="378.2" x2="-35.4" y2="378.2"/>
<line id="XMLID_611_" class="limit-sell-02" x1="-82.6" y1="352.8" x2="-45.4" y2="352.8"/>
<circle id="XMLID_478_" class="limit-sell-03" cx="7.6" cy="347.4" r="42.8"/>
<g id="XMLID_459_">
	<g id="XMLID_460_">
		<path id="XMLID_585_" class="limit-sell-04" d="M-45.3,348c0,28.1,21.9,51,48.8,51c2.4,0,4.8-0.2,7.2-0.6h13.6c26.8,0,48.5-22.8,48.5-50.8
			S51,296.9,24.3,296.9H5.4v0.2c-0.7,0-1.3-0.1-2-0.1C-23.4,297-45.3,319.9-45.3,348z M25.4,393.5c3.1-1.6,5.9-3.6,8.6-5.8h11.5
			C39.5,391.2,32.7,393.3,25.4,393.5z M52.3,382.8H39c2.7-3,5.1-6.4,7.1-10.1h14.7C58.5,376.5,55.6,379.9,52.3,382.8z M63.5,367.8
			H48.4c1.3-3.2,2.3-6.6,2.9-10.1h15.5C66.1,361.2,65,364.6,63.5,367.8z M67.9,347.7c0,1.7-0.1,3.4-0.3,5.1H52
			c0.1-1.6,0.2-3.2,0.2-4.8c0-1.8-0.1-3.6-0.3-5.3h15.7C67.8,344.3,67.9,346,67.9,347.7z M66.9,337.8H51.2
			c-0.7-3.5-1.7-6.9-3.1-10.1h15.4C65,330.9,66.2,334.3,66.9,337.8z M60.9,322.8H45.8c-2-3.7-4.4-7.1-7.2-10.1h13.9
			C55.7,315.6,58.6,319,60.9,322.8z M24.3,301.8c7.8,0,15.2,2.2,21.5,6H33.4c-2.9-2.3-6-4.4-9.3-6C24,301.8,24.3,301.8,24.3,301.8z
			 M3.5,301.9c24.2,0,43.9,20.7,43.9,46.1c0,25.4-19.7,46.1-43.9,46.1s-43.9-20.7-43.9-46.1C-40.4,322.6-20.7,301.9,3.5,301.9z"/>
		<path id="XMLID_576_" class="limit-sell-04" d="M3.5,381.8c17.9,0,32.4-15.2,32.4-33.8c0-18.7-14.5-33.8-32.4-33.8s-32.4,15.2-32.4,33.8
			C-28.9,366.6-14.4,381.8,3.5,381.8z M3.5,319.1c15.2,0,27.5,13,27.5,28.9c0,16-12.3,28.9-27.5,28.9S-24,363.9-24,348
			S-11.7,319.1,3.5,319.1z"/>
		<path id="XMLID_569_" class="limit-sell-04" d="M-40.4,307.5L-40.4,307.5L-40.4,307.5c0,0.1,0,0.3,0,0.4c0,0,0,0,0,0h5c0,0,0,0,0,0
			c0-0.1,0-0.2,0-0.3c0.4-10.1,8.6-18.1,18.6-18.3v-6.7c-10.1-0.2-18.2-8.1-18.6-18.2c0-0.1,0-0.3,0-0.4c0,0,0,0,0,0h-5c0,0,0,0,0,0
			c0,0.1,0,0.2,0,0.4c-0.4,10.1-8.6,18.1-18.6,18.3v6.7C-49,289.5-40.8,297.4-40.4,307.5z M-50.6,285.9l0.8-0.4
			c4.9-2.1,9-5.9,11.6-10.6l0.3-0.6l0.3,0.6c2.5,4.7,6.7,8.5,11.6,10.6l0.8,0.4l-0.8,0.4c-4.9,2.1-9,5.9-11.6,10.6l-0.3,0.6
			l-0.3-0.6c-2.5-4.7-6.7-8.5-11.6-10.6L-50.6,285.9z"/>
		<path id="XMLID_523_" class="limit-sell-04" d="M-57.6,332.4c0-0.1,0-0.2,0-0.3c0-0.1,0-0.1,0-0.2c0.3-6.3,5.4-11.2,11.6-11.2h0.2v-5.1H-46
			c-6.3,0-11.4-4.9-11.6-11.1c0-0.1,0-0.1,0-0.2c0-0.1,0-0.2,0-0.3l-0.1-0.2h-4.1v0.2c0,0.1,0,0.2,0,0.3c0,0.1,0,0.1,0,0.2
			c-0.3,6.3-5.4,11.2-11.6,11.2h-0.2v5.1h0.2c6.3,0,11.4,4.9,11.6,11.2c0,0.1,0,0.1,0,0.2c0,0.1,0,0.2,0,0.3l0.1,0.2h4.1
			L-57.6,332.4L-57.6,332.4z M-66.7,318.2c2.9-1.4,5.4-3.6,7-6.4c1.6,2.8,4.1,5.1,7,6.4c-2.9,1.4-5.4,3.6-7,6.4
			C-61.3,321.9-63.7,319.6-66.7,318.2z"/>
	</g>
</g>
</svg>
