<?xml version="1.0" encoding="utf-8"?>
<!-- Generator: Adobe Illustrator 25.0.0, SVG Export Plug-In . SVG Version: 6.00 Build 0)  -->
<svg version="1.2" baseProfile="tiny" id="Layer_1" xmlns="http://www.w3.org/2000/svg" xmlns:xlink="http://www.w3.org/1999/xlink"
	 x="0px" y="0px" viewBox="0 0 35 35" overflow="visible" xml:space="preserve">
<path fill="#FFFFFF" d="M29,9.4l-3.6-3.6c-0.3-0.3-0.7-0.6-1.2-0.9c-3.1-2.4-9.4-0.4-14.5,4.9c-5.2,5.4-7,12.1-4,14.9
	C5.9,24.9,6,25,6.1,25c0,0,0.1,0.1,0.1,0.1l3.6,3.6c1.2,1.1,2.8,1.7,4.4,1.7c3.4,0,7.5-1.9,11-5.5C30.6,19.5,32.3,12.7,29,9.4z
	 M27,9.7l0.9,0.9c0.7,0.7,1.1,1.7,1.2,2.7l-2-2C27.1,10.7,27.1,10.2,27,9.7z M7.2,24.1c-0.8-0.8-1.3-1.8-1.3-3c0-0.2,0-0.9,0-1.2
	c0.5-2.9,2.2-5.8,5.2-8.8C12.7,9.4,14.6,8,16.4,7c3.3-1.5,6.3-1.6,7.9,0c2.6,2.6,0.8,8.6-3.8,13.3C15.9,24.9,9.8,26.6,7.2,24.1z
	 M10.9,27.7L10,26.8h0.6c0.3,0,0.6,0,1,0l2.1,2.1C12.6,28.8,11.6,28.4,10.9,27.7z M15.6,28.7l-2.3-2.3c0.5-0.2,1.1-0.3,1.6-0.5
	l2.4,2.4C16.8,28.5,16.2,28.6,15.6,28.7z M18.9,27.6l-2.4-2.4c0.5-0.3,1.1-0.6,1.7-1l2.5,2.5C20,27,19.5,27.3,18.9,27.6z M21.9,25.8
	L21.9,25.8l-2.5-2.5c0.5-0.4,1.1-0.9,1.7-1.4l2.5,2.5C23,24.9,22.4,25.3,21.9,25.8z M24.6,23.3L24.6,23.3l-2.5-2.5
	c0.5-0.5,1-1.1,1.4-1.7l2.5,2.5C25.6,22.2,25.1,22.8,24.6,23.3z M26.9,20.3L26.9,20.3l-2.5-2.5c0.3-0.5,0.7-1.1,1-1.7l2.4,2.4
	C27.6,19.2,27.3,19.7,26.9,20.3z M28.5,17l-2.4-2.4c0.2-0.5,0.4-1.1,0.5-1.6l2.3,2.3C28.8,15.9,28.7,16.5,28.5,17z"/>
</svg>
