<?xml version="1.0" encoding="utf-8"?>
<!-- Generator: Adobe Illustrator 25.0.0, SVG Export Plug-In . SVG Version: 6.00 Build 0)  -->
<svg version="1.2" baseProfile="tiny" id="Layer_1" xmlns="http://www.w3.org/2000/svg" xmlns:xlink="http://www.w3.org/1999/xlink"
	 x="0px" y="0px" viewBox="0 0 45.6 35" overflow="visible" xml:space="preserve">
<g id="Group_1965" transform="translate(-377.513 -252.25)">
	<path id="Path_1553" fill="#FFFFFF" d="M415.7,258.3c-2.4-2.4-6.9-2.2-11.5,0.7c-0.4,0.2-0.5,0.7-0.2,1.1c0.2,0.4,0.7,0.5,1.1,0.3
		c3.9-2.4,7.8-2.7,9.6-0.9c2.6,2.6,0.8,8.6-3.8,13.3c-4.6,4.6-10.7,6.4-13.3,3.8c-0.8-0.8-1.2-1.9-1.2-3c0-0.4-0.4-0.7-0.8-0.7
		c-0.4,0-0.8,0.4-0.7,0.8c0,1.5,0.6,2.9,1.7,4l3.6,3.6c1.2,1.1,2.8,1.7,4.4,1.7c3.4,0,7.5-1.9,11-5.5c5.4-5.4,7.1-12.2,3.8-15.5
		L415.7,258.3z M418.2,263c0.7,0.7,1.1,1.7,1.2,2.7l-2-2c0-0.5,0-1,0-1.5L418.2,263z M417.2,272.7l-2.5-2.5c0.3-0.5,0.7-1.1,1-1.7
		l2.4,2.4C417.8,271.6,417.5,272.2,417.2,272.7L417.2,272.7z M414.9,275.7l-2.5-2.5c0.5-0.5,1-1.1,1.4-1.7l2.5,2.5
		C415.9,274.6,415.4,275.2,414.9,275.7L414.9,275.7z M412.1,278.2l-2.5-2.5c0.5-0.4,1.1-0.9,1.7-1.4l2.5,2.5
		C413.3,277.3,412.7,277.8,412.1,278.2L412.1,278.2z M409.1,280.1l-2.4-2.4c0.5-0.3,1.1-0.6,1.7-1l2.5,2.5
		C410.3,279.5,409.7,279.8,409.1,280.1z M405.9,281.1l-2.3-2.3c0.5-0.2,1.1-0.3,1.6-0.5l2.4,2.4C407.1,280.9,406.5,281,405.9,281.1
		L405.9,281.1z M416.4,267.1c0.2-0.5,0.4-1.1,0.5-1.6l2.3,2.3c-0.1,0.6-0.3,1.1-0.5,1.7L416.4,267.1z M400.8,279.3c0.3,0,0.6,0,1,0
		l2.1,2.1c-1,0-2-0.4-2.7-1.2l-0.9-0.9H400.8z"/>
	<path id="Path_1554" fill="#FFFFFF" d="M385,281.2c2.4,2.4,6.9,2.2,11.5-0.7c0.4-0.2,0.5-0.7,0.3-1.1c-0.2-0.4-0.7-0.5-1.1-0.3
		c0,0,0,0,0,0c-3.9,2.4-7.8,2.7-9.6,0.9c-2.6-2.6-0.8-8.6,3.8-13.3c4.6-4.6,10.7-6.4,13.3-3.8c0.8,0.8,1.2,1.9,1.2,3
		c0,0.4,0.4,0.7,0.8,0.7c0.4,0,0.8-0.4,0.7-0.8c0-1.5-0.6-2.9-1.7-4l-3.6-3.6c-1.2-1.1-2.8-1.7-4.4-1.7c-3.4,0-7.5,1.9-11,5.5
		c-5.4,5.4-7.1,12.2-3.8,15.5L385,281.2z M382.5,276.5c-0.7-0.7-1.1-1.7-1.2-2.7l2,2c0,0.5,0,1,0,1.5L382.5,276.5z M383.5,266.8
		l2.5,2.5c-0.3,0.5-0.7,1.1-1,1.7l-2.4-2.4C382.8,267.9,383.1,267.3,383.5,266.8L383.5,266.8z M385.8,263.8l2.5,2.5
		c-0.5,0.5-1,1.1-1.4,1.7l-2.5-2.5C384.8,264.9,385.3,264.3,385.8,263.8z M388.5,261.3l2.5,2.5c-0.5,0.4-1.1,0.9-1.7,1.4l-2.5-2.5
		C387.4,262.2,388,261.7,388.5,261.3L388.5,261.3z M391.5,259.4l2.4,2.4c-0.5,0.3-1.1,0.6-1.7,1l-2.5-2.5
		C390.4,260,391,259.7,391.5,259.4L391.5,259.4z M394.8,258.4l2.3,2.3c-0.5,0.2-1.1,0.3-1.6,0.5l-2.4-2.4
		C393.6,258.6,394.2,258.5,394.8,258.4L394.8,258.4z M384.3,272.4c-0.2,0.5-0.4,1.1-0.5,1.6l-2.3-2.3c0.1-0.6,0.3-1.1,0.5-1.7
		L384.3,272.4z M399.9,260.3c-0.3,0-0.6,0-1,0l-2.1-2.1c1,0,2,0.4,2.7,1.2l0.9,0.9L399.9,260.3z"/>
</g>
</svg>
