<?xml version="1.0" encoding="utf-8"?>
<!-- Generator: Adobe Illustrator 24.3.0, SVG Export Plug-In . SVG Version: 6.00 Build 0)  -->
<svg version="1.2" baseProfile="tiny" id="Layer_1" xmlns="http://www.w3.org/2000/svg" xmlns:xlink="http://www.w3.org/1999/xlink"
	 x="0px" y="0px" viewBox="0 0 15 15" overflow="visible" xml:space="preserve">
<path id="Path_2266" fill="#C4C4C4" d="M2.7,5.1c-0.2-0.2-0.2-0.4,0-0.6l1.8-1.8c0.2-0.2,0.4-0.2,0.6,0L8,5.6c0.2,0.2,0.5,0.2,0.7,0
	c0.2-0.2,0.2-0.5,0-0.7l0,0L5.8,2c-0.5-0.5-1.4-0.5-2,0L2,3.8c-0.5,0.5-0.5,1.4,0,2l2.9,2.9c0.2,0.2,0.5,0.2,0.7,0
	c0.2-0.2,0.2-0.5,0-0.7l0,0L2.7,5.1z M13,9.2l-2.9-2.9c-0.2-0.2-0.5-0.2-0.7,0s-0.2,0.5,0,0.7l2.9,2.9c0.2,0.2,0.2,0.4,0,0.6
	l-1.8,1.8c-0.2,0.2-0.4,0.2-0.6,0L7.1,9.4c-0.2-0.2-0.5-0.2-0.7,0c-0.2,0.2-0.2,0.5,0,0.7L9.2,13c0.5,0.5,1.4,0.5,2,0l1.8-1.8
	C13.5,10.7,13.5,9.8,13,9.2C13,9.2,13,9.2,13,9.2L13,9.2z M5,5C4.8,5.2,4.8,5.5,5,5.7c0,0,0,0,0,0L9.3,10c0.2,0.2,0.5,0.2,0.7,0
	s0.2-0.5,0-0.7L5.7,5C5.5,4.8,5.2,4.8,5,5C5,5,5,5,5,5L5,5z"/>
</svg>
