<svg xmlns="http://www.w3.org/2000/svg" width="75" height="75" viewBox="0 0 75 75">
  <path id="Path_102" data-name="Path 102" d="M9.5,5.75a3.75,3.75,0,1,0-7.5,0v67.5A3.75,3.75,0,0,0,5.75,77h67.5a3.75,3.75,0,0,0,0-7.5V62a3.75,3.75,0,0,0-7.5,0v7.5h-7.5v-15a3.75,3.75,0,0,0-7.5,0v15h-7.5V43.25a3.75,3.75,0,0,0-7.5,0V69.5h-7.5v-15a3.75,3.75,0,0,0-7.5,0v15H9.5V39.328a26.139,26.139,0,0,0,10.78-3.259,28.654,28.654,0,0,0,8.086-7.351c.461-.576.882-1.115,1.277-1.621a27.056,27.056,0,0,1,3.82-4.286A8.7,8.7,0,0,1,39.5,20.75a8.7,8.7,0,0,1,6.037,2.061,27.061,27.061,0,0,1,3.82,4.286c.4.506.816,1.045,1.277,1.621a28.657,28.657,0,0,0,8.086,7.351c3.7,2.136,8.355,3.432,14.53,3.432a3.75,3.75,0,0,0,0-7.5c-5.075,0-8.391-1.049-10.782-2.428a21.32,21.32,0,0,1-5.977-5.54c-.309-.387-.631-.8-.966-1.231a36.682,36.682,0,0,0-5.187-5.753A16.17,16.17,0,0,0,39.5,13.25a16.17,16.17,0,0,0-10.838,3.8A36.664,36.664,0,0,0,23.475,22.8c-.335.43-.656.844-.966,1.231a21.322,21.322,0,0,1-5.977,5.54A18.2,18.2,0,0,1,9.5,31.784Z" transform="translate(-2 -2)" fill="#fff"/>
</svg>
