<svg xmlns="http://www.w3.org/2000/svg" width="20" height="20" viewBox="0 0 18.22 18.197">
  <g id="Group_1086" data-name="Group 1086" transform="translate(-280.89 -140.901)">
    <path class="fill_main-color" id="Path_571" data-name="Path 571" d="M23.4,37.2h1.174a.881.881,0,0,0,0-1.761H23.4a2.642,2.642,0,0,1-2.642-2.642V23.4A2.642,2.642,0,0,1,23.4,20.761h9.392A2.642,2.642,0,0,1,35.436,23.4v.881a.881.881,0,0,0,1.761,0V23.4a4.4,4.4,0,0,0-4.4-4.4H23.4A4.4,4.4,0,0,0,19,23.4v9.392a4.4,4.4,0,0,0,4.4,4.4Z" transform="translate(261.89 121.901)" fill="#fff"/>
    <path class="fill_main-color" id="Path_572" data-name="Path 572" d="M55.281,53.065,52.9,50.693l1.491-.746a2.055,2.055,0,0,0-.294-3.8L47.638,44.1a2.055,2.055,0,0,0-2.58,2.58l2.055,6.457a2.055,2.055,0,0,0,3.8.294l.757-1.5L54.036,54.3a.881.881,0,1,0,1.244-1.244ZM50.77,49.8l-1.424,2.847a.294.294,0,0,1-.558-.044l-2.055-6.457a.294.294,0,0,1,.382-.382l6.457,2.055a.294.294,0,0,1,.041.543Z" transform="translate(243.549 104.237)" fill="#fff"/>
  </g>
</svg>
