<?xml version="1.0" encoding="utf-8"?>
<!-- Generator: Adobe Illustrator 19.0.0, SVG Export Plug-In . SVG Version: 6.00 Build 0)  -->
<svg version="1.1" id="Layer_1" xmlns="http://www.w3.org/2000/svg" xmlns:xlink="http://www.w3.org/1999/xlink" x="0px" y="0px"
	 viewBox="-292 383.7 26.3 26.3" style="enable-background:new -292 383.7 26.3 26.3;" xml:space="preserve">
<path id="XMLID_46_" d="M-291.2,406.6c0-4.5,1.2-8.1,3.7-10.5c2.8-2.7,6.4-3.1,7.8-3.1v-6l13.6,9.2l-13.4,9.2V399
	c-7,0.3-10.5,7.5-10.5,7.6 M-279.3,394.2c-0.9,0-4.6,0.2-7.4,2.8c-1.8,1.7-2.8,4-3.2,7c1.8-2.5,5.4-6.3,11-6.3h0.6v5.3l10-6.9
	l-10.1-6.9v5h-0.6C-279.1,394.2-279.2,394.2-279.3,394.2z"/>
</svg>
