<?xml version="1.0" encoding="utf-8"?>
<!-- Generator: Adobe Illustrator 24.1.3, SVG Export Plug-In . SVG Version: 6.00 Build 0)  -->
<svg version="1.2" baseProfile="tiny" id="Layer_1" xmlns="http://www.w3.org/2000/svg" xmlns:xlink="http://www.w3.org/1999/xlink"
	 x="0px" y="0px" viewBox="0 0 77.5 71.5" overflow="visible" xml:space="preserve">
	<style type="text/css">
		.ltc-icon{fill:#bcbec0;}
	</style>
<g>
	<g>
		<g transform="matrix(0.26458333,0,0,0.26458333,-33.403463,56.772625)">
			<path class="ltc-icon" d="M271.9-199.5c-66.2,0-120,53.8-120,120s53.8,120,120,120s120-53.8,120-120S338.1-199.5,271.9-199.5z
				 M271.9-187.5c59.7,0,108,48.3,108,108s-48.3,108-108,108s-108-48.3-108-108S212.2-187.5,271.9-187.5z"/>
		</g>
	</g>
</g>
<polygon class="ltc-icon" points="32,49.6 35.4,37.9 44.1,35.2 45,31.7 36.4,34.3 42.2,14.5 38.6,14.5 32.4,35.6 24.6,37.9 23.7,41.5 
	31.3,39.1 27.1,53.3 52.3,53.3 53.3,49.6 "/>
</svg>
