<?xml version="1.0" encoding="utf-8"?>
<!-- Generator: Adobe Illustrator 25.0.0, SVG Export Plug-In . SVG Version: 6.00 Build 0)  -->
<svg version="1.1" id="Layer_1" xmlns="http://www.w3.org/2000/svg" xmlns:xlink="http://www.w3.org/1999/xlink" x="0px" y="0px"
	 viewBox="0 0 80 23" style="enable-background:new 0 0 80 23;" xml:space="preserve">
<style type="text/css">
	.maker-tier{fill:#2BB473;}
	.st1{enable-background:new    ;}
</style>
<path id="Rectangle_2794" class="maker-tier" d="M8,2h64c2.8,0,5,2.2,5,5v9c0,2.8-2.2,5-5,5H8c-2.8,0-5-2.2-5-5V7C3,4.2,5.2,2,8,2z"/>
<g class="st1">
	<path d="M17.6,8.4h2.1l0.8,2.8c0.1,0.2,0.1,0.5,0.2,0.7c0.1,0.3,0.1,0.5,0.2,0.8c0.1,0.3,0.1,0.6,0.2,0.9h0c0-0.3,0.1-0.6,0.2-0.9
		c0-0.3,0.1-0.5,0.2-0.8c0.1-0.3,0.1-0.5,0.2-0.7l0.8-2.8h2.1v6.7H23v-3c0-0.2,0-0.5,0-0.7c0-0.3,0-0.5,0-0.8c0-0.3,0-0.6,0.1-0.9h0
		c-0.1,0.3-0.1,0.5-0.2,0.8c0,0.2-0.1,0.5-0.2,0.7s-0.1,0.5-0.2,0.7l-1,3.2h-1.3l-1-3.2c-0.1-0.2-0.1-0.4-0.2-0.7s-0.1-0.5-0.2-0.7
		C19,10.2,19,9.9,18.9,9.7h0c0,0.3,0,0.6,0.1,0.9c0,0.3,0,0.5,0,0.8c0,0.3,0,0.5,0,0.7v3h-1.4V8.4z"/>
	<path d="M27.5,8.4h1.6l2.4,6.7h-1.6l-0.4-1.3h-2.4l-0.4,1.3h-1.5L27.5,8.4z M27.4,12.7h1.7l-0.4-1.3c-0.1-0.2-0.1-0.4-0.2-0.7
		c-0.1-0.2-0.1-0.4-0.1-0.6c0-0.2-0.1-0.4-0.1-0.5h0c0,0.2-0.1,0.4-0.1,0.6c0,0.2-0.1,0.4-0.1,0.6c-0.1,0.2-0.1,0.4-0.2,0.6
		L27.4,12.7z"/>
	<path d="M32.2,8.4h1.5v1.1c0,0.3,0,0.6,0,0.9c0,0.3,0,0.5,0,0.7l2.5-2.7H38l-2.6,2.7l2.7,4h-1.8l-2-3l-0.6,0.6v2.4h-1.5V8.4z"/>
	<path d="M38.8,8.4h5v1.3h-3.5V11h3v1.2h-3v1.6h3.6v1.3h-5.1V8.4z"/>
	<path d="M44.9,8.4H48c0.3,0,0.6,0,0.9,0.1c0.3,0.1,0.5,0.2,0.7,0.4s0.4,0.4,0.5,0.6c0.1,0.2,0.2,0.5,0.2,0.8c0,0.4-0.1,0.7-0.3,1
		c-0.2,0.3-0.5,0.5-0.9,0.6v0c0.3,0.1,0.6,0.3,0.7,0.5c0.2,0.2,0.3,0.5,0.3,0.8c0,0.2,0.1,0.4,0.1,0.6s0,0.4,0,0.5s0,0.3,0.1,0.4
		c0,0.1,0.1,0.2,0.1,0.2v0.1h-1.5c0,0-0.1-0.1-0.1-0.2c0-0.1,0-0.2-0.1-0.4c0-0.1,0-0.3,0-0.5c0-0.2,0-0.4,0-0.5
		c0-0.3-0.2-0.6-0.3-0.8c-0.2-0.2-0.5-0.3-0.8-0.3h-1.1v2.6h-1.5V8.4z M46.4,11.4h1.4c0.3,0,0.6-0.1,0.8-0.2
		c0.2-0.2,0.3-0.4,0.3-0.6c0-0.3-0.1-0.5-0.2-0.7c-0.2-0.2-0.4-0.2-0.8-0.2h-1.4V11.4z"/>
</g>
<g class="st1">
	<path d="M59.7,12.8c-0.5,0-0.9-0.1-1.3-0.2c-0.4-0.2-0.7-0.4-1-0.7c-0.3-0.3-0.5-0.7-0.7-1.1c-0.2-0.4-0.2-0.9-0.2-1.5
		c0-0.5,0.1-1,0.2-1.5c0.2-0.4,0.4-0.8,0.7-1.1c0.3-0.3,0.6-0.5,1-0.7c0.4-0.2,0.8-0.2,1.3-0.2c0.5,0,0.9,0.1,1.3,0.2
		c0.4,0.2,0.7,0.4,1,0.7c0.3,0.3,0.5,0.7,0.6,1.1c0.2,0.4,0.2,0.9,0.2,1.5s-0.1,1-0.2,1.5s-0.4,0.8-0.7,1.1c-0.3,0.3-0.6,0.5-1,0.7
		C60.6,12.7,60.1,12.8,59.7,12.8z M59.7,11.3c0.4,0,0.7-0.2,0.9-0.6c0.2-0.4,0.3-0.9,0.3-1.5c0-0.6-0.1-1.1-0.3-1.5
		c-0.2-0.4-0.5-0.6-0.9-0.6c-0.4,0-0.7,0.2-0.9,0.6c-0.2,0.4-0.3,0.9-0.3,1.5s0.1,1.1,0.3,1.5C59,11.1,59.3,11.3,59.7,11.3z M66.4,6
		H68l-6.6,12.1h-1.6L66.4,6z M68.1,18.4c-0.5,0-0.9-0.1-1.3-0.3c-0.4-0.2-0.7-0.4-1-0.7c-0.3-0.3-0.5-0.7-0.7-1.1
		c-0.2-0.4-0.2-0.9-0.2-1.5c0-0.5,0.1-1,0.2-1.5s0.4-0.8,0.7-1.1c0.3-0.3,0.6-0.5,1-0.7s0.8-0.3,1.3-0.3c0.5,0,0.9,0.1,1.3,0.3
		c0.4,0.2,0.7,0.4,1,0.7c0.3,0.3,0.5,0.7,0.7,1.1s0.2,0.9,0.2,1.5c0,0.5-0.1,1-0.2,1.5c-0.2,0.4-0.4,0.8-0.7,1.1s-0.6,0.5-1,0.7
		C69,18.3,68.5,18.4,68.1,18.4z M68.1,16.9c0.4,0,0.7-0.2,0.9-0.6c0.2-0.4,0.3-0.9,0.3-1.5s-0.1-1.1-0.3-1.5s-0.5-0.6-0.8-0.6
		c-0.4,0-0.7,0.2-0.9,0.6S67,14.2,67,14.8s0.1,1.1,0.3,1.5C67.4,16.7,67.7,16.9,68.1,16.9z"/>
</g>
<circle id="Ellipse_567" cx="11.4" cy="11.6" r="2.5"/>
</svg>
