<svg xmlns="http://www.w3.org/2000/svg" width="22.195" height="22.195" viewBox="0 0 22.195 22.195">
  <path id="Path_4822" data-name="Path 4822" d="M22.805,8.1H15.09A6.994,6.994,0,0,0,8.1,15.09v7.715a6.994,6.994,0,0,0,6.99,6.99h.6V21.2H11.8l7.145-8.518L26.093,21.2H22.21v8.6h.6a6.994,6.994,0,0,0,6.99-6.99V15.09A6.994,6.994,0,0,0,22.805,8.1ZM29.2,22.805A6.392,6.392,0,0,1,22.805,29.2h0V21.8h4.556L18.948,11.724,10.508,21.8h4.556v7.4A6.392,6.392,0,0,1,8.67,22.805V15.09A6.392,6.392,0,0,1,15.064,8.7h7.715a6.392,6.392,0,0,1,6.395,6.395v7.715Z" transform="translate(-7.85 -7.85)" fill="#fff" stroke="#fff" stroke-width="0.5"/>
</svg>
