<svg xmlns="http://www.w3.org/2000/svg" width="85.814" height="54.984" viewBox="0 0 85.814 54.984">
  <g id="Group_9" data-name="Group 9" transform="translate(-1026.62 -380.838)">
    <g id="noun-bull-and-bear-markets-4289533" transform="translate(1026.62 380.837)">
      <path id="Path_2" data-name="Path 2" d="M61.273,17991.986a.714.714,0,1,1-.191,1.416,9.708,9.708,0,0,0-5.757.908,15.479,15.479,0,0,0-5.951,5.838c-.162.254-.466.74-.784,1.252-2.367,3.8-5.608,9.008-11.457,12.494a6.728,6.728,0,0,1-1.487,3.459,3.638,3.638,0,0,0-.871,1.834.717.717,0,0,1-1.435,0,4.625,4.625,0,0,1,1.135-2.65,5.252,5.252,0,0,0,1.24-3.059,2.042,2.042,0,0,0-.944-1.9,1.925,1.925,0,0,0-.855-.23,2.2,2.2,0,0,0-.938.189,2.778,2.778,0,0,0-1.532,2.371c-.032.283-.049.469-.067.662-.048.5-.1,1.049-.194,1.7a.717.717,0,0,1-.538.617,15.873,15.873,0,0,0-2.418.91l-.064.027c-.987.445-2.1,1.006-3.233,1.627a35.293,35.293,0,0,0-5.473,3.6c-1.644,1.4-1.663,1.553-1.811,2.74-.031.246-.066.533-.141,1.016a2.657,2.657,0,0,1-.539,1.3,6.875,6.875,0,0,1-1.334,1.225,8.322,8.322,0,0,1-1.224.766,6.738,6.738,0,0,1-1.28.5,1.583,1.583,0,0,0-1.154,1.07,2.16,2.16,0,0,0-.074.906,2.2,2.2,0,0,0,.271.836.887.887,0,0,0,.7.52,2.329,2.329,0,0,1,1.578.525,2.73,2.73,0,0,1,.712,1.02c.279.621.957.559,2,.463.034,0,.065-.008.244-.023a12.807,12.807,0,0,1,2.615-.043,3.475,3.475,0,0,1,2.128.951,4.244,4.244,0,0,0,1.263.939,2.211,2.211,0,0,0,1.222.16,6,6,0,0,1,3.1.4c.188.068.36.129.514.168,6.04,1.48,8.32-.363,10.512-2.135a13.3,13.3,0,0,1,3.323-2.168q-.463-.149-.94-.336a.715.715,0,0,1,.516-1.334,17.538,17.538,0,0,0,2.535.768,23.545,23.545,0,0,0,2.374.385c.627.07,1.137.119,1.646.166,1.168.107,2.329.215,3.529.445a17.9,17.9,0,0,1,5.766,1.967,15.107,15.107,0,0,1,4.226,3.793.715.715,0,1,1-1.115.9,13.761,13.761,0,0,0-3.828-3.453,16.621,16.621,0,0,0-5.318-1.8c-1.161-.221-2.271-.326-3.389-.428-.592-.055-1.186-.111-1.679-.168l-.213-.025c-3.208-.283-4.845,1.039-6.535,2.4-2.46,1.99-5.019,4.057-11.745,2.408a6.39,6.39,0,0,1-.66-.211,4.729,4.729,0,0,0-2.442-.318,3.631,3.631,0,0,1-1.967-.27,5.645,5.645,0,0,1-1.706-1.24,2.117,2.117,0,0,0-1.288-.541,11.618,11.618,0,0,0-2.318.043l-.239.021c-1.653.154-2.732.254-3.431-1.3a1.442,1.442,0,0,0-.331-.512.97.97,0,0,0-.653-.184,2.264,2.264,0,0,1-1.94-1.234,3.645,3.645,0,0,1-.456-1.381,3.6,3.6,0,0,1,.13-1.512,2.956,2.956,0,0,1,2.146-2.016,5.541,5.541,0,0,0,1.011-.4,7.086,7.086,0,0,0,1.005-.631,5.719,5.719,0,0,0,1.059-.951,1.328,1.328,0,0,0,.264-.648c.047-.3.092-.66.13-.969.208-1.676.235-1.889,2.3-3.652a36.787,36.787,0,0,1,5.714-3.77c.973-.537,1.943-1.029,2.84-1.451a8,8,0,0,1,.3-5.148,3.244,3.244,0,0,1,1.325-1.408,2.831,2.831,0,0,1,1.665-.332,2.993,2.993,0,0,1,1.536.627,3.863,3.863,0,0,1,.491-.262,3.61,3.61,0,0,1,1.555-.307,3.285,3.285,0,0,1,1.511.41,3.211,3.211,0,0,1,1.529,1.971c5.179-3.307,8.173-8.115,10.38-11.658.231-.369.451-.723.8-1.264a16.859,16.859,0,0,1,6.523-6.352,11.067,11.067,0,0,1,6.581-1.043Zm-84.34,49.852a.718.718,0,0,1-.841-.566.716.716,0,0,1,.566-.84,18.3,18.3,0,0,0,10.274-5.812,21.3,21.3,0,0,0,5.035-11.424l.007-.055c.362-2.682.7-5.174,2.7-7.447a6.133,6.133,0,0,1-2.009-3.553,12.27,12.27,0,0,1,.4-4.41.715.715,0,0,1,.846-.553.716.716,0,0,1,.555.848,11.262,11.262,0,0,0-.385,3.891,5.2,5.2,0,0,0,2.048,3.162c.024.018.046.037.068.057a11.039,11.039,0,0,1,3.2,4.242c.32.691.514,1.109,1.11,1.135a8.875,8.875,0,0,0,2.207-.193,5.2,5.2,0,0,0,1.645-.645,3.548,3.548,0,0,0,1.031-1.424,8.147,8.147,0,0,0,.709-2.447,21.865,21.865,0,0,1,3-8.834c1.009-1.852,1.875-3.441,1.818-5.707a8.641,8.641,0,0,1-1.579-.18,5.22,5.22,0,0,1-2.063-.932.714.714,0,1,1,.857-1.143,3.835,3.835,0,0,0,1.514.674,8.5,8.5,0,0,0,1.914.156h.045a10.835,10.835,0,0,1,2.894.33,10.367,10.367,0,0,1,2.949,1.316,6.427,6.427,0,0,0,2.828,1,8.38,8.38,0,0,0,2.828-.234,4.472,4.472,0,0,0,1.161-.418,3.408,3.408,0,0,0-.779-.145,6.976,6.976,0,0,1-3.407-1.156,9.356,9.356,0,0,1-2.263-2.332,7.843,7.843,0,0,0-2.982-2.113l-.137-.059a.354.354,0,0,1-.042-.02q-.378-.161-.789-.3a9.893,9.893,0,0,0-4.821-.426.717.717,0,0,1-.235-1.414,10.682,10.682,0,0,1,1.2-.131,9.962,9.962,0,0,0-1.086-1.594,10.867,10.867,0,0,0-6.8-3.68,15.616,15.616,0,0,0-8.414,1.131,16.482,16.482,0,0,0-4.134,2.516,19.51,19.51,0,0,1-5.58,3.244,31.289,31.289,0,0,1-7.062,1.7.717.717,0,0,1-.8-.615.714.714,0,0,1,.614-.8,29.892,29.892,0,0,0,6.743-1.619,18.1,18.1,0,0,0,5.177-3.01,17.942,17.942,0,0,1,4.492-2.734,17.069,17.069,0,0,1,9.187-1.225,12.293,12.293,0,0,1,7.683,4.178,11.666,11.666,0,0,1,1.606,2.541,11.776,11.776,0,0,1,2.7.58c.307.1.6.219.891.342a.222.222,0,0,1,.046.018,19.989,19.989,0,0,0,4.851,1.242,12.278,12.278,0,0,0,4.133-.008,1.869,1.869,0,0,1,1.247.055,1.1,1.1,0,0,1,.6.684,1.415,1.415,0,0,1,.013.754,2.524,2.524,0,0,1-.841,1.291,7.059,7.059,0,0,1-2.624,1.336c-.029.008-.059.018-.089.023a7.382,7.382,0,0,0,1.058.176,3.333,3.333,0,0,1,1.838.617,1.173,1.173,0,0,1,.438.861,1.227,1.227,0,0,1-.353.887,4.221,4.221,0,0,1-2.1,1.01,9.7,9.7,0,0,1-3.31.268,7.842,7.842,0,0,1-3.45-1.207,8.982,8.982,0,0,0-2.545-1.145,8.648,8.648,0,0,0-1.785-.268c.061,2.6-.889,4.34-2,6.369a20.623,20.623,0,0,0-2.836,8.307,9.666,9.666,0,0,1-.838,2.9,4.9,4.9,0,0,1-1.552,2.023,6.651,6.651,0,0,1-2.111.836,10.412,10.412,0,0,1-2.571.227c-1.473-.064-1.8-.779-2.354-1.965a9.632,9.632,0,0,0-2.353-3.33c-1.716,1.971-2.023,4.24-2.354,6.686l-.007.055A22.718,22.718,0,0,1-12,18035.572a19.709,19.709,0,0,1-11.069,6.266Zm43.281-43.037a5.25,5.25,0,0,0,2.072-.123,5.627,5.627,0,0,0,2.091-1.066,1.124,1.124,0,0,0,.249-.285l-.044.01a13.693,13.693,0,0,1-4.655.031c-.36-.051-.72-.107-1.078-.172.045.055.087.109.125.16a9.986,9.986,0,0,0,1.238,1.445Zm8.212,17.357c.519-.213.992-.391,1.4-.52.059-.463.1-.848.129-1.2.026-.271.05-.529.067-.684a4.705,4.705,0,0,1,.829-2.262,1.554,1.554,0,0,0-.623-.205,1.408,1.408,0,0,0-.836.164,1.826,1.826,0,0,0-.731.8,6.351,6.351,0,0,0-.235,3.906Z" transform="translate(23.921 -17986.867)" fill="#fff"/>
    </g>
    <ellipse id="Ellipse_1" data-name="Ellipse 1" cx="3.5" cy="2.5" rx="3.5" ry="2.5" transform="matrix(0.914, -0.407, 0.407, 0.914, 1069.527, 419.35)" fill="#ff0091"/>
    <circle id="Ellipse_2" data-name="Ellipse 2" cx="3" cy="3" r="3" transform="translate(1051.566 396)" fill="#288500"/>
  </g>
</svg>
