<svg xmlns="http://www.w3.org/2000/svg" xmlns:xlink="http://www.w3.org/1999/xlink" width="135" height="138" viewBox="0 0 135 138">
  <defs>
    <clipPath id="clip-path">
      <rect id="Rectangle_2666" data-name="Rectangle 2666" width="135" height="138" transform="translate(1333 534)" fill="#fff" stroke="#707070" stroke-width="1"/>
    </clipPath>
  </defs>
  <g id="Mask_Group_108" data-name="Mask Group 108" transform="translate(-1333 -534)" opacity="0.05" clip-path="url(#clip-path)">
    <path id="Path_4716" data-name="Path 4716" d="M197.95,122.882a49.5,49.5,0,0,1-13.592,5.572c5.9-5.137,9.087-11.346,9.087-17.933v-1.947c.837-.445,1.661-.9,2.454-1.388a34.049,34.049,0,0,0,10.777-9.943,15.618,15.618,0,0,1,2.934,8.872c0,6.216-4.141,12.17-11.659,16.767Zm11.659-1.022c0,4.934-2.617,9.7-7.453,13.756v-8.28A36.021,36.021,0,0,0,209.61,121Zm-9.458,15.305c-.7.5-1.429.99-2.2,1.462a45.208,45.208,0,0,1-7.039,3.464v-9.34a53.163,53.163,0,0,0,9.241-4.194Zm-11.246,5.667a59.045,59.045,0,0,1-9.241,2.363v-9.651a67.075,67.075,0,0,0,9.241-2.136Zm-10.934-17.006c-.7.5-1.43.99-2.2,1.463a45.248,45.248,0,0,1-7.039,3.464v-9.341a53.16,53.16,0,0,0,9.241-4.193Zm-.313,19.685a69.722,69.722,0,0,1-9.24.676v-8.92q1.2-.409,2.363-.863,3.494-.131,6.877-.572Zm-14.429-35.9V99.881a75.716,75.716,0,0,0,9.24-.623v9.679a69.734,69.734,0,0,1-9.24.676Zm-17.51,9.5c-11.4,0-22.071-2.687-30.051-7.566-7.519-4.6-11.659-10.551-11.659-16.768,0-6.022,3.9-11.8,10.976-16.329v6.841c0,8.389,5.162,16.166,14.536,21.9,8.912,5.449,20.7,8.449,33.188,8.449q2.41,0,4.779-.15a64.184,64.184,0,0,1-21.768,3.624Zm21.007,12.384a59.082,59.082,0,0,1-9.242,2.363V124.2a66.927,66.927,0,0,0,9.242-2.137Zm-.312,14.678a68.843,68.843,0,0,1-9.241-.8V140a67.3,67.3,0,0,0,9.241-2.093Zm-10.935-12a69.571,69.571,0,0,1-9.24.676v-9.732a75.522,75.522,0,0,0,9.24-.624Zm-.311,10.852a57.857,57.857,0,0,1-9.241-2.529v-1.628a75.807,75.807,0,0,0,9.241-.585Zm-10.934-10.19a68.992,68.992,0,0,1-9.241-.8v-9.672a75.124,75.124,0,0,0,9.241.742Zm-11.246-1.15a57.857,57.857,0,0,1-9.241-2.528v-9.384a66.143,66.143,0,0,0,9.241,2.27Zm-11.246-3.319a44.612,44.612,0,0,1-6.075-3.075,35.8,35.8,0,0,1-3.165-2.178v-8.455l.027.018a51.9,51.9,0,0,0,9.213,4.4ZM110.5,123.436c-4.218-3.867-6.488-8.319-6.488-12.915v-.86a35.25,35.25,0,0,0,6.488,5.689ZM121,84.427a35.26,35.26,0,0,0,6.488,5.69V98.2C123.271,94.334,121,89.883,121,85.288Zm17.734,11.415v9.288a44.546,44.546,0,0,1-6.074-3.076,35.947,35.947,0,0,1-3.166-2.177V91.422l.028.017a51.885,51.885,0,0,0,9.213,4.4Zm11.246,2.965v9.643a57.912,57.912,0,0,1-9.241-2.529V96.537a66.1,66.1,0,0,0,9.241,2.27Zm11.246,1.059V109.6a69.016,69.016,0,0,1-9.241-.8V99.125a75.142,75.142,0,0,0,9.241.741Zm24.5,5.652V96.178a53.225,53.225,0,0,0,9.241-4.193v8.606c-.7.5-1.429.991-2.2,1.463a45.2,45.2,0,0,1-7.038,3.464Zm-11.246,3.1V98.971a66.944,66.944,0,0,0,9.241-2.136v9.424a59.072,59.072,0,0,1-9.241,2.363Zm5.5,7.376a38.844,38.844,0,0,0,4.951-3.8c.837-.278,1.657-.575,2.468-.885-.264,4.65-2.844,9.125-7.419,12.963Zm24.443-31.57v.861c0,4.933-2.617,9.7-7.452,13.755v-8.28a36.037,36.037,0,0,0,7.452-6.336ZM132.66,52.775c7.98-4.879,18.652-7.566,30.049-7.566S184.78,47.9,192.76,52.775c7.519,4.6,11.659,10.552,11.659,16.768s-4.141,12.171-11.659,16.767c-7.979,4.879-18.652,7.567-30.051,7.567s-22.07-2.688-30.049-7.567C125.141,81.713,121,75.758,121,69.543s4.141-12.171,11.659-16.768Zm76.9,38.4a20.356,20.356,0,0,0,.873-5.887V69.542c0-8.39-5.162-16.167-14.535-21.9-8.913-5.449-20.7-8.45-33.19-8.45s-24.277,3-33.188,8.45c-9,5.5-14.142,12.89-14.536,20.9v2.947c-.837.446-1.661.9-2.454,1.389-9,5.5-14.142,12.891-14.536,20.9v16.746c0,8.39,5.162,16.167,14.536,21.9a55.81,55.81,0,0,0,15.61,6.353,39.173,39.173,0,0,0,6.569,4.986c8.912,5.448,20.7,8.449,33.188,8.449s24.277-3,33.188-8.449c9.373-5.731,14.536-13.507,14.536-21.9V106.115a22.423,22.423,0,0,0-6.063-14.941Z" transform="translate(1265.004 487.806)" fill="#fff" fill-rule="evenodd"/>
  </g>
</svg>
