<svg xmlns="http://www.w3.org/2000/svg" width="19.851" height="19.851" viewBox="0 0 19.851 19.851">
  <path class="mini-qr" id="Path_38" data-name="Path 38" d="M122.015,46.344h-2.836V43.508h-2.836v2.836h-2.836v2.836h2.836v2.836h-5.672V46.344H105V35h11.344v5.672h2.836V37.836h2.836v2.836h2.836v8.508h-2.836Zm-14.179-8.508v5.672h5.672V37.836ZM122.015,35h2.836v2.836h-2.836Zm-5.672,11.344h2.836v2.836h-2.836ZM105,49.179h2.836v2.836H105Zm2.836,2.836h2.836v2.836h-2.836Zm14.179,0h2.836v2.836h-2.836Zm-5.672,0h2.836v2.836h-2.836Zm-7.09-12.761h2.836V42.09h-2.836Z" transform="translate(-105 -35)" fill="#fff" fill-rule="evenodd"/>
</svg>
