<svg xmlns="http://www.w3.org/2000/svg" width="51.681" height="51.681" viewBox="0 0 51.681 51.681"><g transform="translate(0 0)"><path d="M615.594,239.218a1.692,1.692,0,0,1,.27-.918c1.036.416,2.094.777,3.163,1.123a.653.653,0,0,1,.259,1.085,2.256,2.256,0,0,1-1.56.61A2.028,2.028,0,0,1,615.594,239.218Z" transform="translate(-588.512 -223.667)" fill="#fe0"/><path d="M365.641,41.8A25.841,25.841,0,1,1,339.8,67.641,25.871,25.871,0,0,1,365.641,41.8Zm22.784,25.841A22.784,22.784,0,1,0,343.382,72.5c.875-5.99,3.465-12.337,8.288-16.736a18.5,18.5,0,0,1,14.576-4.881c3.9.416,7.3,2.043,9.214,4.392,3.845,1.24,5.5,3.436,6.208,5.1A7.738,7.738,0,0,1,381.7,66.5a1.529,1.529,0,0,1-2.772-.139,1.294,1.294,0,0,0-1.379-.934h0a6.893,6.893,0,0,0-4.691,2.59,22.238,22.238,0,0,0,1.3,7.923c1.007,2.991,2.947,6.836,6.551,8.8A22.772,22.772,0,0,0,388.425,67.641Zm-18.552-.336c.482-2.116,4.253-4.691,7.208-4.924a5.109,5.109,0,0,1,2.087.248,4.527,4.527,0,0,0-.314-1.051c-.7-1.634-2.291-2.816-4.735-3.516a1.517,1.517,0,0,1-.824-.584c-1.291-1.817-4.188-3.217-7.376-3.56a15.441,15.441,0,0,0-12.191,4.1,24.614,24.614,0,0,0-7.157,13.825,1.574,1.574,0,0,1,.3.285l3.334,4.158,3-3.735a1.612,1.612,0,0,1,1.269-.606,1.645,1.645,0,0,1,1.269.606l3,3.735,3-3.735a1.612,1.612,0,0,1,1.269-.606,1.645,1.645,0,0,1,1.269.606l3,3.735,2.889-3.626A16.491,16.491,0,0,1,369.872,67.305Zm-4.231,23.119a22.671,22.671,0,0,0,12.446-3.706c-3.743-2.539-5.778-6.632-6.858-9.864-.029-.08-.051-.153-.073-.233L368.522,79.9a1.612,1.612,0,0,1-1.269.606,1.645,1.645,0,0,1-1.269-.606l-3-3.735-3,3.735a1.612,1.612,0,0,1-1.269.606,1.645,1.645,0,0,1-1.269-.606l-3-3.735-3,3.735a1.612,1.612,0,0,1-1.269.606,1.645,1.645,0,0,1-1.269-.606l-2.838-3.538a26.082,26.082,0,0,0,.1,3.144A22.849,22.849,0,0,0,365.641,90.425Z" transform="translate(-339.8 -41.8)" fill="#fff"/></g></svg>