<?xml version="1.0" encoding="utf-8"?>
<!-- Generator: Adobe Illustrator 23.1.0, SVG Export Plug-In . SVG Version: 6.00 Build 0)  -->
<svg version="1.2" baseProfile="tiny" id="Layer_1" xmlns="http://www.w3.org/2000/svg" xmlns:xlink="http://www.w3.org/1999/xlink"
	 x="0px" y="0px" viewBox="0 0 77.5 71.5" xml:space="preserve">
<g>
	<g transform="matrix(0.26458333,0,0,0.26458333,-33.403463,56.772625)">
		<path class="default-icon" fill="#000000" d="M271.9-199.5c-66.2,0-120,53.8-120,120s53.8,120,120,120s120-53.8,120-120S338.1-199.5,271.9-199.5z
			 M271.9-187.5c59.7,0,108,48.3,108,108s-48.3,108-108,108s-108-48.3-108-108S212.2-187.5,271.9-187.5z"/>
	</g>
</g>
<g>
	<path class="default-icon" fill="#000000" d="M35.3,41.6c0-1.5,0.2-2.7,0.7-3.9c0.5-1.1,1.4-2.1,2.8-2.9c0.5-0.3,1-0.6,1.7-0.9c0.6-0.3,1.3-0.8,1.8-1.2
		c0.6-0.5,1.1-1,1.5-1.7c0.4-0.6,0.6-1.4,0.6-2.3c0-0.7-0.1-1.3-0.4-1.8c-0.3-0.5-0.6-1-1-1.3c-0.4-0.4-0.9-0.6-1.5-0.8
		c-0.6-0.2-1.1-0.3-1.7-0.3c-0.7,0-1.3,0.1-1.8,0.3c-0.6,0.2-1.1,0.5-1.6,0.8c-0.5,0.4-0.9,0.7-1.3,1.2c-0.4,0.4-0.7,0.9-0.9,1.3
		l-3-2.1c0.8-1.7,1.9-3.1,3.5-4c1.6-0.9,3.3-1.4,5.2-1.4c1,0,2.1,0.2,3.1,0.5c1,0.3,1.9,0.8,2.8,1.5c0.8,0.7,1.5,1.5,2,2.5
		c0.5,1,0.7,2.3,0.7,3.7c0,1-0.1,1.8-0.4,2.5c-0.3,0.7-0.6,1.4-1,1.9c-0.4,0.6-1,1.1-1.6,1.5c-0.6,0.4-1.2,0.8-1.9,1.2
		c-0.6,0.3-1.1,0.6-1.6,0.9c-0.5,0.3-1,0.7-1.4,1.1c-0.4,0.4-0.7,0.9-1,1.5c-0.3,0.6-0.4,1.2-0.4,2H35.3z M35.3,50.8v-5.3h3.9v5.3
		H35.3z"/>
</g>
</svg>
