<?xml version="1.0" encoding="utf-8"?>
<!-- Generator: Adobe Illustrator 24.3.0, SVG Export Plug-In . SVG Version: 6.00 Build 0)  -->
<svg version="1.2" baseProfile="tiny" id="Layer_1" xmlns="http://www.w3.org/2000/svg" xmlns:xlink="http://www.w3.org/1999/xlink"
	 x="0px" y="0px" viewBox="0 0 150 220" overflow="visible" xml:space="preserve">
<g>
	<circle id="Ellipse_669" fill="#F28041" cx="109.4" cy="44.9" r="25"/>
	<path id="Path_4383" fill="#FFFFFF" d="M141.9,41.2c0,5.9-1.9,11.7-5.4,16.4c7.2,0,12.3,6.8,10.8,14c-2.2,10.7-10.3,19.9-14.3,30.9
		c-9.3,25.9-7.3,49.9-22,76.3c-1.6,2.9-3.4,5.8-5.2,8.6c-4.5,7-8,12.5-9,23c-0.1,0.6-0.6,1.1-1.2,1c-0.6-0.1-1.1-0.6-1-1.2
		c0.9-9.7,3.8-15.3,7.7-21.5c-1.8,1-3.7,1.6-5.7,2c-0.6,0.1-1.2-0.3-1.3-0.9c-0.1-0.6,0.3-1.2,0.9-1.3c2.5-0.4,4.9-1.4,6.9-3
		c2.7-2.1,4.4-5,6.1-8c14.4-26.1,12.5-50.2,21.7-75.8c3.9-10.8,12.1-20.5,14.2-30.6c1.6-7.7-7.2-14-11.3-10.4
		c-3.6,3.1-6.3,5.1-10.6,6.5c-1,0.2-1.9,0.6-2.7,1.2c-3.2,2.2-5.1,5.8-6.4,9.6c-0.3,1.5-0.3,2.9-0.2,4.4c0.1,1.3,0.5,2.6,1.1,3.8
		c0.3,0.6,0.1,1.3-0.5,1.5c-0.6,0.3-1.3,0.1-1.5-0.5c-0.4-0.7-0.7-1.5-0.9-2.3c-2,7.8-5.4,14.4-7.4,20.1c-0.9,2.7-0.2,5.8,1,8.3
		c0.1,0.3,0,0.8-0.4,0.9c-0.3,0.1-0.7,0-0.9-0.3c-1.1-2.1-1.6-4.4-1.5-6.7c-1.1,1.7-2.4,3.3-3.9,4.8c0.1,3.7,0.1,7.5-0.2,11.1
		c-0.4,5-5,9.9-10.2,8.1c0.7,2.4,1.4,4.7,2,7.1c4.3,17.5-10.7,21.6-17.8,8.5c-0.5,3.3-1.2,6.6-2.1,9.9c-1.2,4.4-1,9.1,0.6,13.4
		c0.1,0.4-0.1,0.7-0.5,0.9c-0.3,0.1-0.7-0.1-0.8-0.4c-1.7-4.6-1.9-9.7-0.5-14.4c1-3.9,2-7.6,2-11.2c-6.7,1.6-10.7-4.9-13.6-9.8
		c-2.4-3.9-4-6.6-9.8-10.1c-4,6.3-10.6,10.7-18,11.8c-0.4,0.1-0.7-0.2-0.8-0.6c-0.1-0.4,0.2-0.7,0.6-0.8c7-1.1,13.2-5.2,17-11.2
		c-2.4-1.6-4.7-3.3-6.8-5.1c-3.9,4.4-14.2,5.5-19.5,3.2c-0.3-0.2-0.5-0.6-0.3-0.9c0.2-0.3,0.5-0.5,0.9-0.3c4.7,2,14.4,1.1,17.9-2.8
		c-1.8-1.6-4.7-4.3-5.6-6.5c-0.2-0.6,0.1-1.3,0.6-1.5c0.6-0.2,1.2,0,1.5,0.6c0.8,1.8,3.6,4.4,5.1,5.7c2.5,2.3,5.2,4.3,8.1,6.1
		c6.7,3.9,8.6,6.9,11.2,11.2c2.5,4.1,6.8,11.4,12.6,8.1c6.1-3.4,3.6-7.8,1.2-12.1c-1.3-2-2.2-4.1-2.8-6.4c-0.9-5.5-4.7-8.7-7.8-12.9
		c-3.8-5.1-11.8-13.7-18.4-14.5c-10.9-1.4-16.7,0.7-21.8,4.2c-5.3,3.9-10.1,8.5-14.3,13.6c-10.3,13.1,1.8,50.7,8.8,63.9
		c2.4,4.6,4.6,10,8.3,13.7c3.8,3.7,8.4,5.2,13.6,4.9c0.6,0,1.2,0.5,1.2,1.1c0,0.6-0.5,1.2-1.1,1.2l0,0c-5.6,0.3-10.6-1.2-14.7-5
		c1.8,5.6,2,10.8,1.9,16.6c0,0.6-0.6,1.1-1.2,1.1c-0.6,0-1.1-0.5-1.1-1.1c0.1-6-0.1-11.1-2.1-16.8c-1.9-5-4.2-9.9-6.9-14.6
		c-7.5-14.1-19.6-52.3-8.6-66.4c4.3-5.2,9-9.9,14.1-14.3c5.2-4.6,10.7-8.7,16.5-12.4c4.9-2.9,6-3.5,7.8-8.7c3-8.6,5.6-15.2,8-20.7
		c2.8-6.4,5.4-11.3,8-16c4.7-8.4,9.1-18.4,14.5-26.1c7.5-10.6,22.8-6.1,20.9,5.8c11.6-9.8,28.9-8.4,38.7,3.1
		C139.6,28.4,141.9,34.7,141.9,41.2L141.9,41.2z M123.7,23.1c-0.3-0.2-0.5-0.6-0.3-0.9c0.2-0.3,0.6-0.4,0.9-0.3
		c2.7,1.4,5.1,3.3,7.1,5.7c0.2,0.3,0.2,0.7-0.1,1c-0.3,0.2-0.7,0.2-1-0.1C128.5,26.2,126.3,24.4,123.7,23.1L123.7,23.1z M134.8,41.2
		c0-0.4,0.3-0.7,0.7-0.7c0.4,0,0.6,0.3,0.7,0.7c0,12-9.7,21.7-21.7,21.7s-21.7-9.7-21.7-21.7c0-12,9.7-21.7,21.7-21.7l0,0
		c0.4,0,0.7,0.3,0.7,0.7s-0.3,0.7-0.7,0.7c-11.2,0-20.3,9.1-20.3,20.3s9.1,20.3,20.3,20.3S134.8,52.4,134.8,41.2z M81,203.9
		c0.3,0.1,0.5,0.5,0.4,0.9c-0.1,0.3-0.5,0.5-0.9,0.4c-5.2-1.9-11.2,0-16.3,1.5c-0.4,0.1-0.7-0.1-0.8-0.5c-0.1-0.4,0.1-0.7,0.5-0.8
		C69.2,203.7,75.4,201.8,81,203.9L81,203.9z M93.2,101.5c0.4,0.1,0.6,0.5,0.5,0.8c-0.1,0.3-0.4,0.6-0.8,0.5
		c-1.7-0.4-3.4-0.2-4.4,1.5c-0.2,0.3-0.6,0.4-0.9,0.2c-0.3-0.2-0.4-0.6-0.3-0.9C88.6,101.4,90.9,101,93.2,101.5L93.2,101.5z
		 M80.7,116c0.4,0.1,0.6,0.5,0.5,0.8c-0.1,0.3-0.4,0.6-0.8,0.5c-1.5-0.3-2.7,0.7-3.5,1.8c-0.2,0.3-0.7,0.4-1,0.1
		c-0.3-0.2-0.4-0.6-0.2-0.9C76.9,116.7,78.6,115.5,80.7,116L80.7,116z M66,117.8c0.4,0.1,0.6,0.4,0.5,0.8c-0.1,0.4-0.4,0.6-0.8,0.6
		c-1.3-0.2-2.5,1.7-2.7,2.9c-0.1,0.4-0.5,0.6-0.8,0.5c-0.3-0.1-0.6-0.4-0.5-0.8C62,119.9,63.9,117.4,66,117.8L66,117.8z M44.7,99
		c0.4,0,0.7,0.3,0.7,0.6c0,0.4-0.2,0.7-0.6,0.7c-1.8,0.2-2.7,3.4-2.7,4.9c0,0.4-0.3,0.7-0.7,0.7c-0.4,0-0.6-0.3-0.7-0.7
		C40.8,103,42.1,99.3,44.7,99L44.7,99z M78.4,68.3c-2.1,0.7-3.8,2.2-4.7,4.1c-0.2,0.3-0.6,0.5-0.9,0.3c-0.3-0.2-0.5-0.6-0.3-0.9
		c0.9-1.8,2.3-3.3,4-4.2c-8.4-2.1-18.8,5.8-27.5,12.6c-0.9,0.7-1.8,1.4-2.7,2.2c2.1-0.8,4.2-1.5,6.3-2c16.8-4.4,17.5,5.2,25.7,17.9
		c2.7,4.6,4.9,9.5,6.6,14.7c2.1,6.3,2.1,9.4,3.1,15.3c3.9,3.1,8.3-1.1,8.6-5.3c0.2-2.5,0.2-5.1,0.2-7.7c0-9-3.6-23.4-8.7-34.1
		c-1.1-2.5-2.4-5-3.9-7.3C82.8,71.5,80.8,69.6,78.4,68.3L78.4,68.3z M61.7,83.6c0.4,0,0.7,0.3,0.7,0.6S62.2,85,61.8,85l0,0
		c-2.1,0.1-3.4,2.9-3.9,4.6c-0.1,0.4-0.5,0.6-0.8,0.5c-0.4-0.1-0.6-0.5-0.5-0.8C57.2,86.9,58.9,83.8,61.7,83.6L61.7,83.6z
		 M88.2,33.2c1-3.2,2.6-6.3,4.6-8.9c6.6-12.2-8-18.7-15.2-8.4c-5.3,7.6-9.8,17.5-14.4,25.8c-2.6,4.7-5.1,9.5-7.9,15.8
		c-2.4,5.6-5.1,12.3-8.2,21.2c9-7.1,20-15.5,29.4-13.5c-1-2.5-0.5-5.2,0.8-8.2c-1.3,0.5-2.8,0.5-4.1,0.1c-0.8-0.3-1-1.7,0.8-1.2
		c1.3,0.3,2.7,0,3.9-0.7c0.8-0.5,3-4.8,3.6-5.9c2.2-3.7,4.4-7.6,5.6-11.5c-1.5,1-3.4,1.2-5.1,0.6c-0.4-0.1-0.5-0.5-0.4-0.9
		c0.1-0.4,0.5-0.5,0.9-0.4c1.2,0.4,2.5,0.4,3.6-0.2C87.6,36,87.7,34.7,88.2,33.2L88.2,33.2z M69.5,127.8c0.3-0.2,0.7-0.1,1,0.2
		c0.2,0.3,0.1,0.7-0.2,1l0,0c-3,2.1,0.4,7.1,1.8,9.1c0.2,0.3,0.1,0.7-0.2,1c-0.3,0.2-0.7,0.1-0.9-0.2
		C69.1,136,65.7,130.5,69.5,127.8L69.5,127.8z M94.6,113.7c0.4,0,0.7,0.4,0.6,0.7c0,0.4-0.4,0.7-0.7,0.6c-3.9-0.4-4.3,5.7-4.1,8.4
		c0,0.4-0.3,0.7-0.7,0.7c-0.4,0-0.7-0.3-0.7-0.6C88.7,119.9,89.5,113.2,94.6,113.7L94.6,113.7z M84.7,131.9c0.4,0,0.7,0.2,0.8,0.6
		c0,0.4-0.2,0.7-0.6,0.7c-4.4,0.5-3.7,7.3-2.4,10.2c0.2,0.3,0,0.8-0.3,0.9s-0.8,0-0.9-0.3C79.4,140.2,79.1,132.5,84.7,131.9
		L84.7,131.9z M73.9,144c0.3,0.6,0.6,1.1,1,1.7c2.8,5.3,7.1,7.1,10.3,6c5.3-1.7,4.3-8.7,3.3-12.9c-0.6-2.3-1.7-5.5-2.4-8.4
		c-1.4-6-1-9.9-3.4-16.8c-1.6-4.9-3.7-9.7-6.3-14.1c-7.7-11.9-7.9-20.9-23.2-16.9c-3.4,0.8-6.7,1.8-9.9,3.1
		c-4.8,2.1-10.2,5.9-14.4,9.1c4.1-1.3,9.1-1.7,16.1-0.8c7.4,0.9,15.8,9.7,20,15.4c3.4,4.6,7.3,7.7,8.3,13.9c0.5,2,1.4,3.9,2.5,5.6
		C78.7,134.1,81.7,139.5,73.9,144L73.9,144z M98.9,108.6c0.8-1,1.6-2,2.2-3.1c3.9-6.2,6.9-14.6,8.8-21.6c1.3-5,2.9-11.1,6.9-15.3
		c-0.8,0.1-1.6,0.1-2.4,0.1c-14.2,0-26-10.8-27.3-24.9c-1.1,2.3-2.5,4.6-3.7,6.8C80,56.4,77,61.6,79.3,65.4c1.2,2,4.6,4.2,6.5,7
		c1.6,2.5,3,5,4.2,7.7C94.5,89.6,98.8,102.2,98.9,108.6L98.9,108.6z M89.3,41.2c0,13.9,11.3,25.2,25.2,25.2
		c13.9,0,25.2-11.3,25.2-25.2S128.4,16,114.5,16c-7.4,0-14.4,3.3-19.2,8.9C91.4,29.5,89.3,35.2,89.3,41.2L89.3,41.2z"/>
</g>
</svg>
