<?xml version="1.0" encoding="utf-8"?>
<!-- Generator: Adobe Illustrator 26.5.0, SVG Export Plug-In . SVG Version: 6.00 Build 0)  -->
<svg version="1.2" baseProfile="tiny" id="Layer_1" xmlns="http://www.w3.org/2000/svg" xmlns:xlink="http://www.w3.org/1999/xlink"
	 x="0px" y="0px" viewBox="0 0 26.3 26.3" overflow="visible" xml:space="preserve">
<g class="my-apps" id="Group_5258" transform="translate(-569.286 -408.426)">
	<path id="Path_4762" d="M575.6,425h-5.9c-0.3,0-0.5-0.2-0.5-0.5v-5.9c0-0.3,0.2-0.5,0.5-0.5h5.9
		c0.3,0,0.5,0.2,0.5,0.5v5.9C576.1,424.8,575.9,425,575.6,425z"/>
	<path id="Path_4762-2" d="M575.6,434.7h-5.9c-0.3,0-0.5-0.2-0.5-0.5v-5.9c0-0.3,0.2-0.5,0.5-0.5h5.9
		c0.3,0,0.5,0.2,0.5,0.5v5.9C576.1,434.5,575.9,434.7,575.6,434.7z"/>
	<path id="Path_4762-3" d="M575.6,415.3h-5.9c-0.3,0-0.5-0.2-0.5-0.5v-5.9c0-0.3,0.2-0.5,0.5-0.5h5.9
		c0.3,0,0.5,0.2,0.5,0.5v5.9C576.1,415.1,575.9,415.3,575.6,415.3z"/>
	<path id="Path_4762-4" d="M594.4,434.7h-14.2c-0.7,0-1.2-0.8-1.2-1.9v-22.5c0-1,0.5-1.9,1.2-1.9h14.2
		c0.7,0,1.2,0.8,1.2,1.9v22.5C595.5,433.9,595,434.7,594.4,434.7z"/>
</g>
</svg>
