<svg xmlns="http://www.w3.org/2000/svg" width="87.321" height="71.906" viewBox="0 0 87.321 71.906">
  <g id="Group_2" data-name="Group 2" transform="translate(-915 -324)" opacity="0.55">
    <g id="Layer_2" data-name="Layer 2" transform="translate(915 324)">
      <path id="Path_1" data-name="Path 1" d="M59.887,71.311A3.881,3.881,0,0,0,62.6,64.657a17.7,17.7,0,0,0-10.177-5.009,3.881,3.881,0,1,0-.988,7.7A10.007,10.007,0,0,1,57.172,70.2a3.869,3.869,0,0,0,2.715,1.108Z" transform="translate(-6.281 -10.157)" fill="#d9d9d9"/>
      <path id="Path_2" data-name="Path 2" d="M70.076,61.049a3.881,3.881,0,0,0,2.77-6.6,31.178,31.178,0,0,0-9.635-6.663,3.881,3.881,0,1,0-3.153,7.092,23.458,23.458,0,0,1,7.249,5.006,3.869,3.869,0,0,0,2.77,1.163Z" transform="translate(-6.57 -9.795)" fill="#d9d9d9"/>
      <path id="Path_3" data-name="Path 3" d="M80.3,50.759a3.881,3.881,0,0,0,2.744-6.625,45.158,45.158,0,0,0-10.3-7.781,3.881,3.881,0,1,0-3.709,6.818,37.384,37.384,0,0,1,8.525,6.45A3.868,3.868,0,0,0,80.3,50.759Z" transform="translate(-6.846 -9.45)" fill="#d9d9d9"/>
      <path id="Path_4" data-name="Path 4" d="M82.075,25a3.881,3.881,0,1,0-3.981,6.663,50.3,50.3,0,0,1,9.722,7.633A3.881,3.881,0,1,0,93.3,33.8,58.038,58.038,0,0,0,82.075,25Z" transform="translate(-7.119 -9.11)" fill="#d9d9d9"/>
      <path id="Path_5" data-name="Path 5" d="M6.137,38.822a3.881,3.881,0,0,0,5.489,0,52.017,52.017,0,0,1,37.035-15.3,52.924,52.924,0,0,1,11.709,1.305l-4.444,5.555a46.228,46.228,0,0,0-7.265-.567A45.572,45.572,0,0,0,16.118,43.331a3.881,3.881,0,1,0,5.5,5.473A37.864,37.864,0,0,1,48.66,37.572c.5,0,.988.019,1.479.038l-5.2,6.506a31.307,31.307,0,0,0-18.89,9.178,3.881,3.881,0,0,0,5.54,5.437,23.437,23.437,0,0,1,4.5-3.555L24.43,69.749A3.881,3.881,0,1,0,30.49,74.6L78.211,14.945A3.881,3.881,0,0,0,72.15,10.1l-6.468,8.086A60.4,60.4,0,0,0,6.137,33.334a3.88,3.88,0,0,0,0,5.488Z" transform="translate(-5 -8.639)" fill="#d9d9d9"/>
      <circle id="Ellipse_1" data-name="Ellipse 1" cx="4.685" cy="4.685" r="4.685" transform="translate(38.975 62.535)" fill="#d9d9d9"/>
    </g>
  </g>
</svg>
