<svg xmlns="http://www.w3.org/2000/svg" width="66" height="66" viewBox="0 0 66 66"><g transform="translate(3102 -7795)"><path d="M56.622,51.188,41.012,60.2a4.083,4.083,0,1,1-7.836,0L17.566,51.185A4.081,4.081,0,1,1,13.65,44.4V26.375a4.082,4.082,0,1,1,3-7.5v0l.91.712,15.612-9.006a4.083,4.083,0,1,1,7.836,0l15.609,9.012a4.083,4.083,0,1,1,3.917,6.787V44.4a4.082,4.082,0,1,1-3,7.5v0ZM17.569,45.549l17.6-10.16-17.6-10.16a4.082,4.082,0,0,1-1.987,1.149V44.4l1.075.434v0ZM38.063,33.714,55.655,23.556a4.035,4.035,0,0,1,0-2.295L40.048,12.25A4.058,4.058,0,0,1,38.063,13.4Zm18.556-8.485L39.024,35.389l17.6,10.16A4.065,4.065,0,0,1,58.606,44.4V26.378a4.073,4.073,0,0,1-1.987-1.149ZM36.125,37.064,18.533,47.219a4.058,4.058,0,0,1,0,2.295L34.14,58.528a4.078,4.078,0,0,1,1.985-1.146Zm1.937,0V57.381a4.118,4.118,0,0,1,1.982,1.143l15.609-9.012a4.049,4.049,0,0,1,0-2.292Zm-1.937-3.349V13.4a4.05,4.05,0,0,1-1.982-1.146L18.534,21.265a4.049,4.049,0,0,1,0,2.292Zm-20.954-9.23a2.148,2.148,0,0,0-1.112-4.148A2.148,2.148,0,0,0,15.171,24.485ZM61.435,49.44a2.15,2.15,0,0,0-3.722-2.15A2.15,2.15,0,0,0,61.435,49.44ZM60.128,24.485a2.136,2.136,0,0,0,1.3-1h0a2.149,2.149,0,0,0-3.722-2.148h0a2.158,2.158,0,0,0,2.419,3.149ZM37.65,63.419a2.151,2.151,0,0,0,.518-3.935v0a2.142,2.142,0,0,0-2.965.844h0a2.153,2.153,0,0,0,2.45,3.094Zm0-51.913a2.148,2.148,0,0,0-1.112-4.148C33.786,8.094,34.942,12.231,37.65,11.506ZM15.171,50.44a2.148,2.148,0,0,0-1.112-4.148A2.148,2.148,0,0,0,15.171,50.44Z" transform="translate(-3107.016 7793.154)" fill-rule="evenodd"/><path d="M0,0H66V66H0Z" transform="translate(-3102 7795)" fill="none"/></g></svg>