<svg xmlns="http://www.w3.org/2000/svg" width="42.439" height="42.446" viewBox="0 0 42.439 42.446">
  <g id="no-active-orders-01" opacity="0.55">
    <path id="Path_42" data-name="Path 42" d="M354.107,229.122h7.214a4.088,4.088,0,0,0,4.082-4.082V211.51a2.285,2.285,0,0,0-3.24-2.072l-.394.186-.178-.394a2.283,2.283,0,0,0-3.039-1.144l-.394.186-.178-.394a2.27,2.27,0,0,0-2.837-1.222l-.564.2v-7.074a2.294,2.294,0,0,0-.665-1.616,2.262,2.262,0,0,0-1.616-.665,2.3,2.3,0,0,0-1.616.665,2.262,2.262,0,0,0-.665,1.616v15.687l-2.42-2.42a2.262,2.262,0,0,0-1.616-.665,2.294,2.294,0,0,0-1.616.665,2.262,2.262,0,0,0-.665,1.616,2.3,2.3,0,0,0,.665,1.616l5.257,5.257a1.329,1.329,0,0,1,.387.936v2.567A4.112,4.112,0,0,0,354.107,229.122ZM345.053,215.6a1.323,1.323,0,0,1,1.871-1.871l3.232,3.232a.463.463,0,0,0,.518.1.48.48,0,0,0,.294-.441V199.781a1.316,1.316,0,0,1,.387-.936,1.329,1.329,0,0,1,.936-.387,1.316,1.316,0,0,1,.936.387,1.329,1.329,0,0,1,.387.936v14.435a.479.479,0,0,0,.959,0V208.8a1.33,1.33,0,1,1,2.66,0v5.412a.479.479,0,0,0,.959.015v-4.075a1.33,1.33,0,1,1,2.66,0v4.075a.479.479,0,0,0,.959-.015V211.51a1.33,1.33,0,1,1,2.66,0v13.53a3.138,3.138,0,0,1-3.131,3.131h-7.214a3.138,3.138,0,0,1-3.131-3.131v-2.567a2.3,2.3,0,0,0-.665-1.616Z" transform="translate(-322.964 -186.676)" fill="#fff" fill-rule="evenodd"/>
    <path id="Path_43" data-name="Path 43" d="M97.628,57.5H77.781A2.28,2.28,0,0,0,75.5,59.781v13.53a2.28,2.28,0,0,0,2.281,2.281H97.628a2.28,2.28,0,0,0,2.281-2.281V59.781A2.285,2.285,0,0,0,97.628,57.5ZM98.95,73.311a1.33,1.33,0,0,1-1.33,1.33H77.781a1.33,1.33,0,0,1-1.33-1.33V59.781a1.33,1.33,0,0,1,1.33-1.33H97.628a1.33,1.33,0,0,1,1.33,1.33v13.53Z" transform="translate(-75.5 -57.5)" fill="#fff" fill-rule="evenodd"/>
    <path id="Path_44" data-name="Path 44" d="M320.979,127.5a.482.482,0,0,0-.479.479V134.3a.479.479,0,1,0,.959,0v-6.317A.487.487,0,0,0,320.979,127.5Z" transform="translate(-301.558 -122.088)" fill="#fff" fill-rule="evenodd"/>
    <path id="Path_45" data-name="Path 45" d="M274.279,104.6a.482.482,0,0,0-.479.479V111.4a.479.479,0,1,0,.959,0v-6.317A.477.477,0,0,0,274.279,104.6Z" transform="translate(-258.468 -100.958)" fill="#fff" fill-rule="evenodd"/>
    <path id="Path_46" data-name="Path 46" d="M227.579,151.6a.482.482,0,0,0-.479.479V158.4a.479.479,0,1,0,.959,0v-6.317A.477.477,0,0,0,227.579,151.6Z" transform="translate(-215.379 -144.325)" fill="#fff" fill-rule="evenodd"/>
    <path id="Path_47" data-name="Path 47" d="M180.979,104.6a.482.482,0,0,0-.479.479V111.4a.479.479,0,0,0,.959,0v-6.317A.482.482,0,0,0,180.979,104.6Z" transform="translate(-172.382 -100.958)" fill="#fff" fill-rule="evenodd"/>
    <path id="Path_48" data-name="Path 48" d="M134.779,127.5a.482.482,0,0,0-.479.479V134.3a.479.479,0,0,0,.959,0v-6.317A.482.482,0,0,0,134.779,127.5Z" transform="translate(-129.754 -122.088)" fill="#fff" fill-rule="evenodd"/>
  </g>
</svg>
