<svg xmlns="http://www.w3.org/2000/svg" width="18.197" height="18.198" viewBox="0 0 18.197 18.198"><g transform="translate(-9955.192 -8524.574)"><circle cx="0.881" cy="0.881" r="0.881" transform="translate(9955.192 8541.01)" fill="#fff"/><circle cx="0.881" cy="0.881" r="0.881" transform="translate(9959.887 8541.01)" fill="#fff"/><circle cx="0.881" cy="0.881" r="0.881" transform="translate(9964.585 8541.01)" fill="#fff"/><path d="M25.751,30.74H21.642a.881.881,0,0,1-.881-.881V21.642a.881.881,0,0,1,.881-.881H32.5a.881.881,0,0,1,.881.881v1.174a.881.881,0,1,0,1.761,0V21.642A2.642,2.642,0,0,0,32.5,19H21.642A2.642,2.642,0,0,0,19,21.642V29.86A2.642,2.642,0,0,0,21.642,32.5h4.109a.881.881,0,0,0,0-1.761Z" transform="translate(9936.192 8505.574)" fill="#fff"/><path d="M59.283,43H56.642A2.642,2.642,0,0,0,54,45.642v2.935a.881.881,0,1,0,1.761,0V45.642a.881.881,0,0,1,.881-.881h2.642a.881.881,0,0,1,.881.881v5.87a.881.881,0,0,1-.881.881H58.7a.881.881,0,1,0,0,1.761h.587a2.642,2.642,0,0,0,2.642-2.642v-5.87A2.642,2.642,0,0,0,59.283,43Z" transform="translate(9911.465 8488.619)" fill="#fff"/></g></svg>