<svg xmlns="http://www.w3.org/2000/svg" width="31.263" height="40.277" viewBox="0 0 31.263 40.277">
  <g id="Group_7" data-name="Group 7" transform="translate(-1098 -418)">
    <g id="no-recent-trades-01" transform="translate(313.475 90.003)" opacity="0.55">
      <path id="Path_49" data-name="Path 49" d="M795.493,361.953h6.966a4.044,4.044,0,0,0,2.327-.727l8.922-6.177a4.829,4.829,0,0,0,2.08-3.974,2.019,2.019,0,0,0-1.129-1.809h0a2.02,2.02,0,0,0-2.118.209l-7.492,5.76-.155-.626a2.284,2.284,0,0,0-2.219-1.724h-7.94a4.075,4.075,0,0,0-3.44,1.879l-6.409,10a2.3,2.3,0,0,0-.085,2.327,2.274,2.274,0,0,0,2,1.183h2.319a2.273,2.273,0,0,0,1.856-.959l3.433-4.8A1.327,1.327,0,0,1,795.493,361.953Zm-1.856,0-3.433,4.809a1.329,1.329,0,0,1-1.082.557H786.8a1.326,1.326,0,0,1-1.121-2.042l6.409-9.989a3.107,3.107,0,0,1,2.636-1.438h7.948a1.315,1.315,0,0,1,1.307,1.137l.031.263-.07.294.008.008-.008-.008v.015a1.334,1.334,0,0,1-1.268.943h-5.412a.479.479,0,1,0,0,.959h5.7a2.3,2.3,0,0,0,1.392-.472l8.76-6.742a1.064,1.064,0,0,1,1.709.843h0a3.893,3.893,0,0,1-1.67,3.193l-8.922,6.177a3.133,3.133,0,0,1-1.786.557h-6.964A2.22,2.22,0,0,0,793.637,361.953Z" fill="#fff" fill-rule="evenodd"/>
    </g>
    <path id="Path_54" data-name="Path 54" d="M806.161,349H791.023a2.934,2.934,0,0,1-2.93-2.932V330.928a2.934,2.934,0,0,1,2.93-2.931h15.138a2.935,2.935,0,0,1,2.932,2.931v15.137A2.936,2.936,0,0,1,806.161,349Zm-15.138-20a1.933,1.933,0,0,0-1.93,1.931v15.137a1.933,1.933,0,0,0,1.93,1.932h15.138a1.934,1.934,0,0,0,1.932-1.932V330.928A1.933,1.933,0,0,0,806.161,329Z" transform="translate(313.475 90.003)" fill="#fff" opacity="0.55"/>
    <path id="Path_55" data-name="Path 55" d="M803.113,333.976a.5.5,0,0,0-.707,0l-7.481,7.481v-5.363a.5.5,0,0,0-1,0v6.571a.5.5,0,0,0,.309.461.505.505,0,0,0,.191.039h6.57a.5.5,0,0,0,0-1h-5.363l7.481-7.482A.5.5,0,0,0,803.113,333.976Z" transform="translate(313.475 90.003)" fill="#fff" opacity="0.55"/>
  </g>
</svg>
