<svg xmlns="http://www.w3.org/2000/svg" width="33.423" height="42.445" viewBox="0 0 33.423 42.445">
  <g id="no-recent-trades-01" opacity="0.55">
    <path id="Path_49" data-name="Path 49" d="M172.811,368.915h6.966a4.046,4.046,0,0,0,2.327-.727l8.922-6.177a4.828,4.828,0,0,0,2.08-3.974,2.017,2.017,0,0,0-1.129-1.809h0a2.021,2.021,0,0,0-2.118.209l-7.492,5.76-.155-.626a2.283,2.283,0,0,0-2.219-1.724h-7.94a4.077,4.077,0,0,0-3.44,1.879l-6.409,10a2.3,2.3,0,0,0-.085,2.327,2.275,2.275,0,0,0,2,1.183h2.319a2.273,2.273,0,0,0,1.856-.959l3.433-4.8A1.326,1.326,0,0,1,172.811,368.915Zm-1.856,0-3.433,4.809a1.327,1.327,0,0,1-1.082.557h-2.319A1.326,1.326,0,0,1,163,372.239l6.409-9.989a3.109,3.109,0,0,1,2.636-1.438h7.948a1.314,1.314,0,0,1,1.307,1.137l.031.263-.07.294.008.008-.008-.008v.015a1.332,1.332,0,0,1-1.268.943h-5.412a.479.479,0,1,0,0,.959h5.7a2.307,2.307,0,0,0,1.392-.472l8.76-6.742a1.064,1.064,0,0,1,1.709.843h0a3.891,3.891,0,0,1-1.67,3.193l-8.922,6.177a3.13,3.13,0,0,1-1.786.557H172.8A2.223,2.223,0,0,0,170.955,368.915Z" transform="translate(-159.683 -332.786)" fill="#fff" fill-rule="evenodd"/>
    <path id="Path_50" data-name="Path 50" d="M147.268,76.862a11.182,11.182,0,0,0,5.141,1.237,11.3,11.3,0,1,0-11.3-11.3,11.182,11.182,0,0,0,1.237,5.141l.139.278-7.917,7.925a2.262,2.262,0,0,0-.665,1.616,2.294,2.294,0,0,0,.665,1.616l1.276,1.276a2.262,2.262,0,0,0,1.616.665,2.294,2.294,0,0,0,1.616-.665h0l7.917-7.932Zm-8.876,7.113a1.316,1.316,0,0,1-.936.387h0a1.316,1.316,0,0,1-.935-.387L135.245,82.7a1.334,1.334,0,0,1-.387-.943,1.316,1.316,0,0,1,.387-.936L143,73.066l.294.4c.008.008.015.023.023.031a.169.169,0,0,0,.031.039c.031.046.07.093.1.139l.008.008c.062.077.124.162.193.24l.1.124c.054.07.116.139.17.2s.1.108.147.162a1.189,1.189,0,0,1,.131.147c.039.046.085.085.124.131l.2.2c.046.046.093.085.139.131s.093.085.139.131l.216.193c.039.039.085.07.124.108l.015.015.139.116c.07.054.131.108.2.162.054.046.116.085.17.131a.168.168,0,0,1,.039.031c.008.008.023.015.031.023l.4.294Zm8.474-8.443c-.085-.054-.17-.108-.255-.17l-.031-.023c-.07-.046-.139-.1-.209-.147l-.07-.046c-.062-.046-.124-.093-.178-.139l-.062-.046-.232-.186-.031-.031c-.062-.054-.131-.108-.193-.162-.023-.015-.039-.039-.062-.054l-.008-.008c-.054-.046-.1-.093-.155-.139l-.015-.015a.357.357,0,0,1-.054-.054c-.062-.062-.131-.124-.193-.186l-.031-.031c-.062-.062-.124-.124-.186-.193-.015-.023-.039-.039-.054-.062l-.015-.015c-.046-.046-.093-.1-.131-.147a.7.7,0,0,0-.07-.077l-.155-.178-.039-.046a2.515,2.515,0,0,1-.178-.224.235.235,0,0,1-.039-.054l-.015-.023c-.039-.054-.085-.108-.124-.17-.015-.023-.039-.054-.054-.077-.046-.062-.093-.131-.139-.193l-.031-.046c-.054-.085-.108-.162-.162-.247l-.039-.062c-.039-.07-.085-.131-.124-.2a10.359,10.359,0,1,1,3.6,3.6c-.077-.046-.147-.093-.224-.139Z" transform="translate(-133.9 -55.5)" fill="#fff" fill-rule="evenodd"/>
    <path id="Path_51" data-name="Path 51" d="M277.465,202.288v-5.165l1.894,1.894a.476.476,0,0,0,.673,0,.467.467,0,0,0,.139-.34.48.48,0,0,0-.139-.34l-2.706-2.706a.241.241,0,0,0-.07-.054l-.015-.008a.481.481,0,0,0-.2-.07h-.108a.416.416,0,0,0-.2.07c-.008.008-.015.008-.023.015a.431.431,0,0,0-.062.046l-2.706,2.706a.476.476,0,1,0,.673.673l1.894-1.894v5.165a.482.482,0,0,0,.479.479A.475.475,0,0,0,277.465,202.288Z" transform="translate(-262.984 -184.676)" fill="#fff" fill-rule="evenodd"/>
    <path id="Path_52" data-name="Path 52" d="M337.9,105.949a.475.475,0,0,0,.34-.812l-2.706-2.706a.447.447,0,0,0-.193-.116h-.008a.336.336,0,0,0-.039-.008h-.015a.666.666,0,0,0-.124-.008h-.015a.07.07,0,0,0-.039.008l-.015.008c-.008,0-.015.008-.031.008l-.015.008c-.008,0-.015.008-.031.008l-.015.008c-.008.008-.015.008-.031.015l-.015.008c-.008.008-.015.008-.023.015l-.015.008c-.008.008-.015.015-.023.015l-.039.039-2.706,2.706a.467.467,0,0,0-.139.34.48.48,0,0,0,.139.34.467.467,0,0,0,.34.139h0a.48.48,0,0,0,.34-.139h0l1.894-1.894v5.141a.479.479,0,1,0,.959,0v-5.165l1.894,1.894A.45.45,0,0,0,337.9,105.949Z" transform="translate(-316.684 -98.682)" fill="#fff" fill-rule="evenodd"/>
    <path id="Path_53" data-name="Path 53" d="M396.632,198.926a.467.467,0,0,0,.139-.34.48.48,0,0,0-.139-.34l-2.706-2.706a.136.136,0,0,0-.039-.031.507.507,0,0,0-.294-.108h-.016a.463.463,0,0,0-.325.139l-.015.015-2.7,2.7a.476.476,0,0,0,.673.673l1.894-1.894V202.2a.479.479,0,0,0,.959,0v-5.165l1.894,1.894A.476.476,0,0,0,396.632,198.926Z" transform="translate(-370.569 -184.584)" fill="#fff" fill-rule="evenodd"/>
  </g>
</svg>
