<?xml version="1.0" encoding="utf-8"?>
<!-- Generator: Adobe Illustrator 23.0.1, SVG Export Plug-In . SVG Version: 6.00 Build 0)  -->
<svg version="1.1" id="Layer_1" xmlns="http://www.w3.org/2000/svg" xmlns:xlink="http://www.w3.org/1999/xlink" x="0px" y="0px"
	 viewBox="0 0 50 50" style="enable-background:new 0 0 50 50;" xml:space="preserve">
<style type="text/css">
	.note-kyc{fill:#D0D2D3;}
</style>
<g>
	<path class="note-kyc" d="M45.26,36.29l-5.12-20.87c-0.44-1.79-1.96-3.07-3.77-3.22l-0.03-0.59c-0.12-2.35-2.09-4.18-4.48-4.06
		l-5.4,0.27l-0.03-0.49c-0.15-2.35-2.16-4.14-4.53-4c-1.14,0.07-2.19,0.58-2.94,1.44c-0.75,0.86-1.13,1.96-1.06,3.1
		c0.01,0.13,0.04,0.26,0.08,0.38L8.2,8.73c-2.35,0.12-4.17,2.13-4.05,4.48l1.19,23.65c0.06,1.14,0.56,2.19,1.4,2.95
		c0.79,0.71,1.81,1.11,2.87,1.11c0.07,0,0.14,0,0.21-0.01l5.58-0.28l0.69,2.81c0.47,1.92,2.18,3.26,4.15,3.26
		c0.34,0,0.69-0.04,1.02-0.12l20.87-5.12C44.42,40.9,45.82,38.58,45.26,36.29z M20.73,7.69c-0.03-0.38,0.1-0.75,0.35-1.03
		c0.25-0.29,0.6-0.46,0.98-0.48c0.8-0.05,1.46,0.55,1.51,1.33l0.03,0.45l-2.92,0.15C20.72,7.98,20.74,7.84,20.73,7.69z M9.67,38H9.6
		c-0.35,0-0.69-0.09-0.96-0.33c-0.28-0.26-0.45-0.59-0.47-0.96L6.99,13.07c-0.04-0.78,0.57-1.45,1.35-1.49l15.44-0.77l0.33,5.24
		c0.02,0.38-0.1,0.75-0.35,1.03c-0.25,0.28-0.6,0.46-0.98,0.48c-0.37,0.02-0.75-0.1-1.03-0.35c-0.28-0.25-0.46-0.6-0.48-0.98
		c-0.05-0.78-0.7-1.37-1.51-1.33c-0.78,0.05-1.38,0.73-1.33,1.51c0.07,1.14,0.58,2.18,1.44,2.94c0.79,0.69,1.78,1.07,2.82,1.07
		c0.09,0,0.18,0,0.27-0.01c1.14-0.07,2.19-0.58,2.94-1.44c0.75-0.86,1.13-1.96,1.06-3.09l-0.33-5.2l5.44-0.27
		c0.76,0,1.38,0.59,1.42,1.35l1.19,23.65c0.04,0.78-0.57,1.42-1.35,1.46L9.67,38z M41.45,38.69l-20.87,5.12
		c-0.76,0.18-1.54-0.29-1.72-1.04L18.3,40.5l15.17-0.76c2.35-0.12,4.17-2.13,4.05-4.48l-1.01-20.13c0.41,0.17,0.75,0.52,0.86,0.98
		l5.12,20.87C42.68,37.73,42.21,38.51,41.45,38.69z"/>
</g>
</svg>
