<?xml version="1.0" encoding="utf-8"?>
<!-- Generator: Adobe Illustrator 23.0.2, SVG Export Plug-In . SVG Version: 6.00 Build 0)  -->
<svg version="1.2" baseProfile="tiny" id="Layer_1" xmlns="http://www.w3.org/2000/svg" xmlns:xlink="http://www.w3.org/1999/xlink"
	 x="0px" y="0px" viewBox="0 0 85 85" xml:space="preserve">
<style type="text/css">
	.notification-setting{fill:#BBBDBF}
</style>
<g>
	<path class="notification-setting" d="M70.4,15.2c-5,0-9.6,3.4-11,8.2l-0.1,0.3H12c-2.5,0-4.6,2.1-4.6,4.7V61c0,2.6,2,4.7,4.6,4.7h55
		c2.5,0,4.6-2.1,4.6-4.7V49c0-0.3-0.1-0.7-0.4-0.9c-0.2-0.2-0.5-0.4-0.9-0.4l0,0c-0.7,0-1.2,0.5-1.2,1.2v12.4l-18.6-19l11-8.2
		l0.3,0.3c2.2,2.5,5.3,3.9,8.6,3.9c6.4,0,11.5-5.2,11.5-11.5S76.7,15.2,70.4,15.2z M9.9,28.3l18.6,14L9.9,61.4V28.3z M67.4,63.2
		H11.6l18.9-19.4l8.3,6.2c0.4,0.3,1,0.3,1.5,0l8.3-6.2L67.4,63.2z M39.5,47.4L11.3,26.3h47.5v0.5c0,1.7,0.4,3.3,1.1,4.9l0.2,0.3
		L39.5,47.4z M70.4,35.8c-5,0-9-4.1-9-9s4.1-9,9-9s9,4.1,9,9S75.3,35.8,70.4,35.8z"/>
	<path class="notification-setting" d="M70.4,41.8c-0.7,0-1.2,0.6-1.2,1.2c0,0.7,0.6,1.2,1.2,1.2s1.2-0.6,1.2-1.2C71.6,42.3,71,41.8,70.4,41.8z"/>
</g>
<g>
	<path fill-rule="evenodd" class="notification-setting" d="M69.3,30c0,0.6,0.5,1.1,1.1,1.1s1.1-0.5,1.1-1.1H69.3z M74.6,29.4h-8.5l0,0
		c0.9-0.9,1.4-2.1,1.4-3.4v-0.4c0-1.2,0.8-2.3,1.9-2.7c0-0.1,0-0.1,0-0.2c0-0.5,0.4-0.9,0.9-0.9s0.9,0.4,0.9,0.9c0,0.1,0,0.1,0,0.2
		c1.1,0.4,1.9,1.4,1.9,2.7V26C73.2,27.3,73.7,28.5,74.6,29.4L74.6,29.4z"/>
</g>
</svg>
