<svg xmlns="http://www.w3.org/2000/svg" width="20" height="20" viewBox="0 0 15.349 18.199">
  <g id="Group_1067" data-name="Group 1067" transform="translate(-9615.007 -8845.057)">
    <path class="fill_main-color" id="Path_582" data-name="Path 582" d="M37.635,27.16l-1.552-1.552V23.4a5.4,5.4,0,1,0-10.8,0v2.206L23.727,27.16a2.462,2.462,0,0,0,1.74,4.2H35.9a2.462,2.462,0,0,0,1.74-4.2ZM36.652,29a.773.773,0,0,1-.785.657H25.5a.773.773,0,0,1-.785-.66.753.753,0,0,1,.216-.631L26.4,26.9a1.99,1.99,0,0,0,.583-1.422v-1.99a3.778,3.778,0,0,1,3.346-3.761,3.659,3.659,0,0,1,2.843.947A3.7,3.7,0,0,1,34.377,23.4v2.087a1.99,1.99,0,0,0,.569,1.407l1.47,1.47A.753.753,0,0,1,36.652,29Z" transform="translate(9592 8827.057)" fill="#fff"/>
    <path class="fill_main-color" id="Path_583" data-name="Path 583" d="M45.876,74.25a.853.853,0,0,0-1.205,0h0a2.076,2.076,0,0,1-2.2.006.851.851,0,1,0-1.208,1.2,3.66,3.66,0,0,0,4.614,0A.853.853,0,0,0,45.876,74.25Z" transform="translate(9579.114 8786.979)" fill="#fff"/>
  </g>
</svg>
