<svg xmlns="http://www.w3.org/2000/svg" viewBox="0 0 17.688 17.687">
    <defs>
        <style>.a{fill:#fff;}.b{fill:#288500;}</style>
    </defs>
    <g transform="translate(17.688) rotate(90)">
        <path class="a" d="M10.907,0H6.78a.925.925,0,0,0-.928.92V3.062a6.25,6.25,0,0,0-.543.314L3.448,2.3a.927.927,0,0,0-1.262.336L.124,6.2A.919.919,0,0,0,.462,7.459L2.327,8.529q-.008.157-.008.313t.008.313L.462,10.226a.918.918,0,0,0-.338,1.257l2.063,3.558a.926.926,0,0,0,1.261.337l1.862-1.071a6.265,6.265,0,0,0,.543.314v2.142a.925.925,0,0,0,.928.925h4.126a.925.925,0,0,0,.928-.92V14.626a6.249,6.249,0,0,0,.543-.314l1.861,1.071a.927.927,0,0,0,1.262-.336l2.063-3.558a.919.919,0,0,0-.338-1.257L15.36,9.16q.008-.157.008-.313t-.008-.313l1.866-1.071a.919.919,0,0,0,.338-1.257L15.5,2.649a.926.926,0,0,0-1.261-.337L12.378,3.383a6.264,6.264,0,0,0-.543-.314V.927A.925.925,0,0,0,10.907,0Z"/>
        <circle class="b" cx="4.43" cy="4.43" r="4.43" transform="translate(4.372 4.367)"/>
    </g>
</svg>