<svg xmlns="http://www.w3.org/2000/svg" width="168.337" height="168.343" viewBox="0 0 168.337 168.343"><defs><style>.a{fill:#eee;}</style></defs><g transform="translate(-4.001 -4)"><path class="a" d="M90.131,56.7H84.4V45.318H95.447V39.579H84.4V35.114H78.657v4.465H74.4a11.153,11.153,0,0,0-4.584.867,8.1,8.1,0,0,0-3.143,2.422,8.709,8.709,0,0,0-1.506,3.153,15.656,15.656,0,0,0-.432,3.8v2.366A15.655,15.655,0,0,0,65.174,56,8.628,8.628,0,0,0,66.7,59.17a8.149,8.149,0,0,0,3.109,2.4,11.137,11.137,0,0,0,4.593.868h4.253V74.2l-7.939,0H68.482v5.739l10.173,0V84.4h5.739V79.937h5.735c4.75,0,7.82-3.554,7.82-9.054V65.752C97.951,60.253,94.881,56.7,90.131,56.7Zm2.081,14.189c0,3.315-1.565,3.315-2.081,3.315H84.4V62.435h5.735c.517,0,2.081,0,2.081,3.315ZM71.235,55.654a2.824,2.824,0,0,1-.5-1.062,9.875,9.875,0,0,1-.258-2.4V49.823a9.863,9.863,0,0,1,.254-2.385,2.95,2.95,0,0,1,.486-1.062,2.378,2.378,0,0,1,.947-.693A5.5,5.5,0,0,1,74.4,45.32h4.253V56.7H74.4a5.526,5.526,0,0,1-2.234-.36A2.5,2.5,0,0,1,71.235,55.654Z" transform="translate(55.454 28.407)"/><path class="a" d="M61.654,54.1a21.306,21.306,0,0,0,11.885-3.608L70.348,45.72a15.634,15.634,0,0,1-22.895-6.456l14.2,0V33.523l-15.618,0c-.013-.277-.04-.549-.04-.828s.029-.547.04-.821l15.618,0V26.135l-14.2,0a15.638,15.638,0,0,1,22.9-6.464l3.191-4.767A21.385,21.385,0,0,0,41.29,26.137h-4v5.739h3c-.01.275-.04.543-.04.821s.033.551.04.828h-3v5.739h4A21.431,21.431,0,0,0,61.654,54.1Z" transform="translate(30.392 6.661)"/><path class="a" d="M4,88.175A35.3,35.3,0,0,0,58.446,117.9a35.359,35.359,0,1,0,59.425-.021,35.361,35.361,0,1,0,.027-59.433,35.34,35.34,0,1,0-59.477,0A35.3,35.3,0,0,0,4,88.175ZM88.176,9.739a29.61,29.61,0,1,1-20.947,8.675A29.654,29.654,0,0,1,88.176,9.739Zm0,64.984a35.115,35.115,0,0,0,19.08-5.636,35.12,35.12,0,0,0,.017,38.189,35.117,35.117,0,0,0-38.193-.013A35.108,35.108,0,0,0,69.1,69.12,35.092,35.092,0,0,0,88.176,74.723Zm48.8,43.063A29.621,29.621,0,1,1,166.6,88.168,29.654,29.654,0,0,1,136.98,117.786ZM88.165,166.6a29.621,29.621,0,1,1,29.621-29.623A29.652,29.652,0,0,1,88.165,166.6ZM39.361,58.556A29.621,29.621,0,1,1,9.74,88.175,29.658,29.658,0,0,1,39.361,58.556Z"/><path class="a" d="M25.429,81.071h5.739V73.044H40.48V67.305H31.167V65.658H40.48V59.919H31.167V56.466l8.916-18.076-5.15-2.537L28.3,49.312l-6.64-13.46-5.146,2.54,8.916,18.074v3.453H16.118v5.739h9.311v1.647H16.118v5.739h9.311Z" transform="translate(11.063 29.08)"/><path class="a" d="M57.847,69.124c3.568-2.607,8.239-1.286,8.287-1.27l1.66-5.494c-.3-.09-7.357-2.177-13.265,2.079-4.176,3.007-6.558,8.272-7.134,15.62H41.7V85.8h5.391c-.767,11.727-3.6,14.912-4.184,15.436a2.62,2.62,0,0,0-1.827,3.005,3.052,3.052,0,0,0,3.093,2.466l22.772.008,0-5.739-17.125-.006c1.358-3.086,2.579-7.847,3.023-15.17h8.9V80.059H53.129C53.609,74.737,55.19,71.064,57.847,69.124Z" transform="translate(33.834 52.743)"/></g></svg>