<?xml version="1.0" encoding="utf-8"?>
<!-- Generator: Adobe Illustrator 26.3.1, SVG Export Plug-In . SVG Version: 6.00 Build 0)  -->
<svg version="1.1" id="Layer_1" xmlns="http://www.w3.org/2000/svg" xmlns:xlink="http://www.w3.org/1999/xlink" x="0px" y="0px"
	 viewBox="0 0 49 49" style="enable-background:new 0 0 49 49;" xml:space="preserve">
<style type="text/css">
	.st0{enable-background:new    ;}
	.st1{fill:#FFFFFF;}
	.st2{fill:none;}
	.st3{fill:none;stroke:#FFFFFF;}
	.st4{fill:#F28041;}
</style>
<g id="Group_227" transform="translate(-1464 -299)">
	<g class="st0">
		<path class="st1" d="M1488.7,332.3c-0.4,1-1,1.7-2,2.1s-2.2,0.4-3.6,0.1l-0.9,2.6l-1.4-0.5l0.9-2.5c-0.8-0.3-1.6-0.7-2.3-1.1
			c-0.7-0.4-1.3-0.8-1.7-1.2l0.6-1.7c0.5,0.5,1.1,1,1.9,1.4c0.7,0.5,1.4,0.8,2.1,1.1l1.8-4.8c-1.3-1-2.2-2-2.6-2.8s-0.4-1.8,0-2.8
			c0.3-1,1-1.6,2-2c1-0.3,2.1-0.4,3.4,0l0.7-2l1.4,0.5l-0.7,2c1.3,0.5,2.5,1.3,3.6,2.2l-1.1,1.2c-0.9-0.8-2-1.5-3.1-2l-1.7,4.8
			c1,0.8,1.8,1.5,2.2,2c0.4,0.6,0.7,1.1,0.8,1.7C1489,331,1489,331.6,1488.7,332.3z M1483.3,322.7c-0.2,0.6-0.2,1.1,0,1.5
			c0.2,0.5,0.7,1,1.4,1.6l1.6-4.3c-0.8-0.1-1.4-0.1-1.9,0.1C1483.8,321.9,1483.5,322.2,1483.3,322.7z M1486.8,331.8
			c0.2-0.5,0.2-1,0-1.5c-0.2-0.4-0.7-1-1.5-1.7l-1.6,4.3C1485.4,333.3,1486.4,332.9,1486.8,331.8z"/>
	</g>
	<g id="Ellipse_4" transform="translate(1464 306)">
		<circle class="st2" cx="21" cy="21" r="21"/>
		<circle class="st3" cx="21" cy="21" r="20.5"/>
	</g>
</g>
<g id="Group_2595">
	<path class="st4" d="M49,11.3C49,5.1,43.9,0,37.7,0c0,0,0,0-0.1,0c-2.8,0-5.8,1.1-8.1,3.4c-4.5,4.4-4.5,11.6,0,16.1
		s11.7,4.5,16.1,0C47.9,17.3,49,14.3,49,11.3C49,11.5,49,11.3,49,11.3z"/>
	<path id="Path_109" d="M40.2,13.3h1.8V6.9h-6.4v1.8h3.1l-5.1,5.1l1.4,1.4l5.1-5.1V13.3z"/>
</g>
</svg>
