<?xml version="1.0" encoding="utf-8"?>
<!-- Generator: Adobe Illustrator 26.3.1, SVG Export Plug-In . SVG Version: 6.00 Build 0)  -->
<svg version="1.1" id="Layer_1" xmlns="http://www.w3.org/2000/svg" xmlns:xlink="http://www.w3.org/1999/xlink" x="0px" y="0px"
	 viewBox="0 0 49 46" style="enable-background:new 0 0 49 46;" xml:space="preserve">
<style type="text/css">
	.st0{enable-background:new    ;}
	.st1{fill:#FFFFFF;}
	.st2{fill:none;}
	.st3{fill:none;stroke:#FFFFFF;}
	.st4{fill:#2BB473;}
</style>
<g id="Group_226" transform="translate(-614 -302)">
	<g class="st0">
		<path class="st1" d="M641.4,327.7c0.4,1,0.3,2-0.2,2.9c-0.5,0.9-1.4,1.7-2.7,2.4l0.9,2.6L638,336l-0.9-2.5
			c-0.8,0.3-1.6,0.5-2.5,0.7c-0.8,0.2-1.5,0.2-2.1,0.2l-0.6-1.7c0.7,0,1.5,0,2.4-0.1c0.9-0.1,1.6-0.3,2.3-0.5l-1.8-4.8
			c-1.7,0.1-2.9-0.1-3.8-0.5c-0.8-0.4-1.4-1.1-1.8-2.1c-0.3-1-0.3-1.9,0.3-2.8s1.4-1.6,2.5-2.2l-0.7-2l1.4-0.5l0.7,2
			c1.4-0.5,2.8-0.7,4.2-0.6l0,1.7c-1.3,0-2.5,0.1-3.6,0.4l1.7,4.8c1.3-0.1,2.3,0,3,0.1c0.7,0.1,1.3,0.4,1.7,0.7
			S641.2,327,641.4,327.7z M631.1,323.9c0.2,0.6,0.5,0.9,1,1.2c0.5,0.2,1.1,0.3,2.1,0.3l-1.6-4.3c-0.7,0.4-1.2,0.8-1.4,1.3
			C630.9,322.9,630.9,323.3,631.1,323.9z M639.6,328.5c-0.2-0.5-0.5-0.9-1-1.1c-0.4-0.2-1.2-0.3-2.3-0.3l1.6,4.3
			C639.5,330.6,640,329.6,639.6,328.5z"/>
	</g>
	<g id="Ellipse_3" transform="translate(614 306)">
		<circle class="st2" cx="21" cy="21" r="21"/>
		<circle class="st3" cx="21" cy="21" r="20.5"/>
	</g>
</g>
<g id="Group_2595">
	<path class="st4" d="M48.8,10.9C48.8,4.9,44,0.1,38,0.1c0,0,0,0-0.1,0c-2.7,0-5.5,1.1-7.7,3.2c-4.3,4.2-4.3,11,0,15.3
		s11.2,4.3,15.3,0C47.7,16.5,48.8,13.7,48.8,10.9C48.8,11,48.8,10.9,48.8,10.9z"/>
	<path id="Path_109" d="M36,8.6h-1.7v6.1h6.1v-1.7h-3L42.2,8l-1.3-1.3L36,11.5V8.6z"/>
</g>
</svg>
