<?xml version="1.0" encoding="utf-8"?>
<!-- Generator: Adobe Illustrator 27.2.0, SVG Export Plug-In . SVG Version: 6.00 Build 0)  -->
<svg version="1.1" id="Layer_1" xmlns="http://www.w3.org/2000/svg" xmlns:xlink="http://www.w3.org/1999/xlink" x="0px" y="0px"
	 viewBox="0 0 15 15" style="enable-background:new 0 0 15 15;" xml:space="preserve">
<style type="text/css">
	.st0{fill:#FFFFFF;}
</style>
<g transform="translate(-1454 -628.807)">
	<path class="st0" d="M1458.5,631.8c-1.9,0-3.5,2-3.5,4.5s1.6,4.5,3.5,4.5s4-2,4-4.5S1460.4,631.8,1458.5,631.8 M1458.5,630.8
		c2.5,0,5,2.5,5,5.5s-2.5,5.5-5,5.5s-4.5-2.5-4.5-5.5S1456,630.8,1458.5,630.8z"/>
</g>
<path class="st0" d="M10.5,12c1.9,0,3.5-2,3.5-4.5S12.4,3,10.5,3s-4,2-4,4.5S8.6,12,10.5,12 M10.5,13c-2.5,0-5-2.5-5-5.5S8,2,10.5,2
	S15,4.5,15,7.5S13,13,10.5,13z"/>
</svg>
