<svg xmlns="http://www.w3.org/2000/svg" width="18.216" height="18.21" viewBox="0 0 18.216 18.21"><g transform="translate(-10327.325 -8676.465)"><path d="M47.656,28.6,45.6,30.656a2.055,2.055,0,0,0,0,2.906l2.055,2.055a2.055,2.055,0,0,0,2.906,0l2.055-2.055a2.055,2.055,0,0,0,0-2.906L50.562,28.6a2.055,2.055,0,0,0-2.906,0Zm3.716,3.3a.294.294,0,0,1,0,.414l-2.055,2.055a.293.293,0,0,1-.414,0l-2.055-2.055a.294.294,0,0,1,0-.414L48.9,29.846a.293.293,0,0,1,.414,0Z" transform="translate(10289.975 8651.107)" fill="#fff"/><path d="M33.925,33.088H25.293l-.07-.2a3.229,3.229,0,0,0-1.964-1.964l-.194-.068V22.229A3.229,3.229,0,0,0,19.837,19a.881.881,0,0,0,0,1.761A1.468,1.468,0,0,1,21.3,22.229v8.632l-.2.07a3.229,3.229,0,1,0,4.109,4.109l.07-.2h8.638a1.468,1.468,0,0,1,1.468,1.468.881.881,0,0,0,1.761,0A3.229,3.229,0,0,0,33.925,33.088Zm-11.74,2.348a1.468,1.468,0,1,1,1.468-1.468A1.468,1.468,0,0,1,22.185,35.436Z" transform="translate(10308.387 8657.465)" fill="#fff"/></g></svg>