<svg xmlns="http://www.w3.org/2000/svg" width="50" height="49.024" viewBox="0 0 50 49.024"><path d="M64.943,40.3a.24.24,0,0,0,.044-.073,2.353,2.353,0,0,0,.123-.232v-.123a1.784,1.784,0,0,0,.065-.21v-.348h0a.725.725,0,0,1,0-.116,2.1,2.1,0,0,0,0-.21.792.792,0,0,0-.051-.174V38.67c0-.051-.058-.1-.087-.16a1.635,1.635,0,0,0-.087-.152l-.094-.109-.131-.16h0L41.266,16.1h0l-.16-.116a.726.726,0,0,0-.123-.087l-.174-.087-.138-.058a1.546,1.546,0,0,0-.2-.058H39.64l-.131.051-.174.065-.16.094-.138.087-.145.131a1.031,1.031,0,0,0-.094.087L15.615,41.61h0a1.363,1.363,0,0,0-.116.167l-.08.116c-.036.058-.058.116-.087.174a1.213,1.213,0,0,0-.058.145l-.044.167a.315.315,0,0,1-.036.181c-.036.058,0,0,0,.051a.725.725,0,0,1,0,.123.784.784,0,0,0,0,.131.123.123,0,0,0,0,.051,1.547,1.547,0,0,0,0,.181.259.259,0,0,0,.036.16,1.7,1.7,0,0,0,.065.174.878.878,0,0,0,.065.145.725.725,0,0,0,.094.16l.087.131.131.138.08.094L38.421,64.35a.174.174,0,0,1,.058.044l.131.087a1.323,1.323,0,0,0,.167.109h.065l.1.044H39l.261.073h.051a1.857,1.857,0,0,0,.283,0,1.45,1.45,0,0,0,.3,0h.087l.218-.065h.08a1.873,1.873,0,0,0,.269-.138l.051-.044a1.118,1.118,0,0,0,.21-.167h0l23.909-23.7h0A1.582,1.582,0,0,0,64.943,40.3ZM48.974,43.279l-1.1-4.028,9.356.675ZM32.2,38.489l.508,1.982,2.236.16-.6-2.366,6.881.5-.53-2.178-6.271-.457L39.5,22.056,45.44,43.664,23.36,41.631ZM45.135,47.2,39.626,58.812,36.432,46.4Zm2.178-10.162L43.429,22.977,59.4,37.951Zm-15.2-.8L21.951,39.868,36.613,23.783Zm2.069,9.937L37.39,58.667,22.082,45.079Zm14.981.878,6.83-2.773L45.534,54.624Z" transform="translate(-15.178 -15.69)" fill="#fff"/></svg>