<svg id="Group_236" data-name="Group 236" xmlns="http://www.w3.org/2000/svg" width="37.898" height="29.016" viewBox="0 0 37.898 29.016">
  <path id="Path_7589" data-name="Path 7589" d="M37.306,0H.592A.592.592,0,0,0,0,.592v22.5a.592.592,0,0,0,.592.592H16.58V22.5H1.184V1.184h35.53V11.251H37.9V.592A.592.592,0,0,0,37.306,0Z" transform="translate(0)" fill="#fff"/>
  <path id="Path_7592" data-name="Path 7592" d="M21.184,15.106a5.923,5.923,0,0,1,11.2-2.691l1.055-.539a7.107,7.107,0,1,0-8.916,9.851l.432-1.1A5.888,5.888,0,0,1,21.184,15.106Z" transform="translate(-8.157 -3.263)" fill="#fff"/>
  <path id="Path_7593" data-name="Path 7593" d="M9,18.369A2.369,2.369,0,1,0,11.369,16,2.371,2.371,0,0,0,9,18.369Zm3.553,0a1.184,1.184,0,1,1-1.184-1.184A1.186,1.186,0,0,1,12.553,18.369Z" transform="translate(-3.671 -6.525)" fill="#fff"/>
  <path id="Path_7590" data-name="Path 7590" d="M5.184,18.853V8.1A3.563,3.563,0,0,0,8.1,5.184H33.065A3.563,3.563,0,0,0,35.977,8.1v3.6h1.184V7.553a.592.592,0,0,0-.592-.592A2.371,2.371,0,0,1,34.2,4.592.592.592,0,0,0,33.608,4H7.553a.592.592,0,0,0-.592.592A2.371,2.371,0,0,1,4.592,6.961.592.592,0,0,0,4,7.553V19.4a.592.592,0,0,0,.592.592,2.371,2.371,0,0,1,2.369,2.369.592.592,0,0,0,.592.592H18.212V21.765H8.1A3.563,3.563,0,0,0,5.184,18.853Z" transform="translate(-1.631 -1.631)" fill="#fff"/>
  <path id="Path_7591" data-name="Path 7591" d="M41.475,17a9.475,9.475,0,1,0,9.475,9.475A9.486,9.486,0,0,0,41.475,17Zm0,17.765a8.29,8.29,0,1,1,8.29-8.29A8.3,8.3,0,0,1,41.475,34.765Z" transform="translate(-13.051 -6.933)" fill="#fff"/>
  <g id="Group_231" data-name="Group 231" transform="translate(24.871 13.136)">
    <path id="Path_7576" data-name="Path 7576" d="M30.547,24.675v1.084h2.792v1.6h1.084V14.552H33.339v1.6H30.547V21.5h2.792v3.175Zm1.084-4.259V17.241h1.708v3.175Z" transform="translate(-30.547 -14.552)" fill="#fff"/>
    <path id="Path_7577" data-name="Path 7577" d="M57.995,51.259v1.084h2.071V47H57.995v1.084h.986v3.175Z" transform="translate(-53.035 -41.136)" fill="#fff"/>
    <rect id="Rectangle_654" data-name="Rectangle 654" width="2.071" height="1.084" transform="translate(4.96 1.604)" fill="#fff"/>
  </g>
</svg>
