<svg xmlns="http://www.w3.org/2000/svg" width="66" height="66" viewBox="0 0 66 66"><g transform="translate(2461 -7795)"><path d="M40.113,5.363c5.7,0,10.825,3.417,14.508,8.946,7.784,11.675,7.784,30.507,0,42.184-7.952,11.93-21.064,11.93-29.016,0-7.784-11.677-7.784-30.507,0-42.184,3.683-5.526,8.812-8.946,14.508-8.946Zm12.9,10.021c-7.185-10.776-18.609-10.776-25.793,0-7.353,11.028-7.353,29.006,0,40.033,7.185,10.776,18.609,10.776,25.793,0,7.353-11.028,7.353-29.006,0-40.033Z" transform="translate(-2467.268 7793.137)" fill-rule="evenodd"/><path d="M0,0H66V66H0Z" transform="translate(-2461 7795)" fill="none"/></g></svg>