<svg xmlns="http://www.w3.org/2000/svg" width="20" height="20" viewBox="0 0 15.849 18.197">
  <g id="Group_1060" data-name="Group 1060" transform="translate(-113.484 -140.867)">
    <path class="fill_main-color" id="Path_557" data-name="Path 557" d="M23,21.642V33.969A3.229,3.229,0,0,0,26.229,37.2h9.392a3.229,3.229,0,0,0,3.229-3.229V21.642A2.642,2.642,0,0,0,36.208,19H25.642A2.642,2.642,0,0,0,23,21.642Zm11.153-.881h2.055a.881.881,0,0,1,.881.881v1.174a1.468,1.468,0,1,1-2.935,0Zm-4.7,0h2.935v2.055a1.468,1.468,0,1,1-2.935,0Zm-.881,4.279.2.176a3.208,3.208,0,0,0,4.3,0l.2-.176.2.176a3.229,3.229,0,0,0,3.229.64l.39-.141v8.253a1.468,1.468,0,0,1-1.468,1.468H26.229a1.468,1.468,0,0,1-1.468-1.468V25.715l.39.138a3.229,3.229,0,0,0,3.229-.64ZM27.7,22.816a1.468,1.468,0,1,1-2.935,0V21.642a.881.881,0,0,1,.881-.881H27.7Z" transform="translate(90.484 121.867)" fill="#fff"/>
  </g>
</svg>
