<?xml version="1.0" encoding="utf-8"?>
<!-- Generator: Adobe Illustrator 27.9.1, SVG Export Plug-In . SVG Version: 6.00 Build 0)  -->
<svg version="1.2" baseProfile="tiny" id="Layer_1" xmlns="http://www.w3.org/2000/svg" xmlns:xlink="http://www.w3.org/1999/xlink"
	 x="0px" y="0px" viewBox="0 0 61.7 51" overflow="visible" xml:space="preserve">
<g transform="translate(18543.051 281)">
	<path fill="#FFFFFF" d="M-18523.5-244.6h-1.8v-0.9c0-2.5-2-4.4-4.4-4.4l0,0h-5.3c-2.5,0-4.4,2-4.4,4.4l0,0v0.9h-1.8v-0.9
		c0-3.4,2.8-6.2,6.2-6.2h5.3c3.4,0,6.2,2.8,6.2,6.2L-18523.5-244.6z"/>
	<path fill="#FFFFFF" d="M-18532.6-252.2c-2.5,0-4.4-2-4.4-4.4s2-4.4,4.4-4.4c2.5,0,4.4,2,4.4,4.4S-18530.1-252.2-18532.6-252.2
		L-18532.6-252.2z M-18532.6-259.3c-1.5,0-2.7,1.2-2.7,2.7s1.2,2.7,2.7,2.7c1.5,0,2.7-1.2,2.7-2.7c0,0,0,0,0,0
		C-18529.9-258.1-18531.1-259.3-18532.6-259.3L-18532.6-259.3z"/>
	<path fill="#FFFFFF" d="M-18483.2-244.6h-1.8v-0.9c0-2.5-2-4.4-4.4-4.4h-5.3c-2.5,0-4.4,2-4.4,4.4l0,0v0.9h-1.8v-0.9
		c0-3.4,2.8-6.2,6.2-6.2h5.3c3.4,0,6.2,2.8,6.2,6.2L-18483.2-244.6z"/>
	<path fill="#FFFFFF" d="M-18491.8-252.2c-2.5,0-4.4-2-4.4-4.4s2-4.4,4.4-4.4c2.5,0,4.4,2,4.4,4.4l0,0
		C-18487.4-254.2-18489.4-252.2-18491.8-252.2z M-18491.8-259.3c-1.5,0-2.7,1.2-2.7,2.7s1.2,2.7,2.7,2.7c1.5,0,2.7-1.2,2.7-2.7
		c0,0,0,0,0,0C-18489.2-258.1-18490.4-259.3-18491.8-259.3L-18491.8-259.3z"/>
	<path fill="#FFFFFF" d="M-18494.8-240.5l-1.3-1.3l4.2-4.2l4.2,4.2l-1.3,1.3l-2.9-2.9L-18494.8-240.5z"/>
	<path fill="#FFFFFF" d="M-18532.6-262.1l-4.2-4.2l1.3-1.3l2.9,2.9l3-3l1.3,1.3L-18532.6-262.1z"/>
	<path fill="#FFFFFF" d="M-18491.1-262.8h-1.7v-7.1c0-1-0.7-1.8-1.7-1.8h-12v-1.8h12c1.9,0.1,3.4,1.6,3.4,3.6V-262.8L-18491.1-262.8
		z M-18531.5-263.7h-1.7v-6.2c0-1.9,1.5-3.5,3.4-3.6h11v1.8h-11c-1,0-1.7,0.8-1.7,1.8V-263.7L-18531.5-263.7z"/>
	<g>
		<path fill="#FFFFFF" d="M-18509.6-268.3c0,0.7-0.2,1.2-0.7,1.6c-0.5,0.4-1.2,0.7-2.1,0.8v1.7h-0.9v-1.6c-0.5,0-1.1,0-1.6-0.1
			c-0.5-0.1-0.9-0.2-1.3-0.4v-1.1c0.4,0.2,0.9,0.3,1.4,0.4c0.5,0.1,1,0.2,1.4,0.2v-3.2c-1-0.3-1.7-0.7-2.1-1.1
			c-0.4-0.4-0.6-1-0.6-1.6c0-0.6,0.2-1.2,0.7-1.6s1.2-0.7,2-0.7v-1.3h0.9v1.3c0.9,0,1.8,0.2,2.6,0.5l-0.4,1
			c-0.7-0.3-1.5-0.5-2.2-0.5v3.2c0.8,0.2,1.3,0.5,1.7,0.7c0.4,0.2,0.7,0.5,0.8,0.8C-18509.7-269.1-18509.6-268.7-18509.6-268.3z
			 M-18514.9-272.7c0,0.4,0.1,0.7,0.3,0.9c0.2,0.2,0.6,0.4,1.1,0.6v-2.8c-0.5,0.1-0.8,0.2-1.1,0.5
			C-18514.8-273.4-18514.9-273.1-18514.9-272.7z M-18510.9-268.2c0-0.4-0.1-0.6-0.3-0.9c-0.2-0.2-0.6-0.4-1.3-0.6v2.8
			C-18511.4-267-18510.9-267.4-18510.9-268.2z"/>
	</g>
	<g>
		<path fill="#FFFFFF" d="M-18515.7-244.7h3c1.4,0,2.4,0.2,3.1,0.6c0.6,0.4,1,1.1,1,2c0,0.6-0.2,1.2-0.5,1.6
			c-0.4,0.4-0.9,0.7-1.5,0.8v0.1c1.6,0.3,2.4,1.1,2.4,2.6c0,1-0.3,1.7-1,2.2c-0.6,0.5-1.6,0.8-2.7,0.8h-3.7V-244.7z M-18514.5-240.1
			h2.1c0.9,0,1.5-0.1,1.9-0.4c0.4-0.3,0.6-0.7,0.6-1.4c0-0.6-0.2-1-0.6-1.3c-0.4-0.3-1.1-0.4-2.1-0.4h-1.8V-240.1z M-18514.5-239.1
			v4h2.2c0.9,0,1.5-0.2,2-0.5c0.4-0.3,0.7-0.9,0.7-1.6c0-0.7-0.2-1.2-0.7-1.5c-0.4-0.3-1.1-0.5-2-0.5H-18514.5z"/>
	</g>
	<path fill="#FFFFFF" d="M-18513.2-246h1v13h-1V-246z"/>
	<path fill="#FFFFFF" d="M-18494.5-234.6h-12v-1.8h12c1,0,1.7-0.8,1.7-1.8v-6.2h1.7v6.2C-18491.1-236.2-18492.6-234.6-18494.5-234.6
		z M-18518.9-234.6h-11c-1.9-0.1-3.4-1.6-3.4-3.6v-7.1h1.7v7.1c0,1,0.7,1.8,1.7,1.8h11V-234.6L-18518.9-234.6z"/>
</g>
</svg>
