<svg xmlns="http://www.w3.org/2000/svg" height="50px" id="Layer_1" data-name="Layer 1" viewBox="0 0 67.08 67.06"><script xmlns=""/>
  <circle class="fill_secondary-color" cx="15.29" cy="24.71" r="7.75" style="stroke-width: 0px;"/>
  <path class="fill_secondary-color" d="m26.69,46.5c.87-1.4.96-3.13.23-4.61l-2.16-4.38c-.81-1.63-2.44-2.65-4.26-2.65h-10.4c-1.82,0-3.45,1.02-4.26,2.65l-2.16,4.38c-.73,1.48-.65,3.21.23,4.61.87,1.4,2.38,2.24,4.03,2.24h14.72c1.65,0,3.16-.84,4.03-2.24Z" style="stroke-width: 0px;"/>
  <circle class="fill_secondary-color" cx="51.79" cy="24.71" r="7.75" style="stroke-width: 0px;"/>
  <path class="fill_secondary-color" d="m63.41,41.89l-2.16-4.38c-.79-1.61-2.46-2.65-4.26-2.65h-10.4c-1.82,0-3.45,1.02-4.26,2.65l-2.16,4.38c-.73,1.48-.65,3.21.23,4.61.87,1.4,2.38,2.24,4.03,2.24h14.72c1.65,0,3.16-.84,4.03-2.24s.96-3.13.23-4.61Z" style="stroke-width: 0px;"/>
  <path class="fill_secondary-color" d="m26.41,14.98c.07-.02,6.34-1.62,10.13-2.45v2.46c0,.28.15.53.4.66.24.13.54.11.77-.04l8.25-5.57c.21-.14.33-.37.33-.62s-.12-.48-.33-.62l-8.25-5.57c-.23-.16-.53-.17-.77-.04-.25.13-.4.38-.4.66v2.34c-2.91.04-8.37,1.07-11.01,7.79-.1.26-.05.56.14.77.19.21.48.3.75.23h0Z" style="stroke-width: 0px;"/>
  <path class="fill_secondary-color" d="m42.82,52.72c-.07.02-6.34,1.62-10.13,2.45v-2.45c0-.28-.15-.53-.4-.66-.25-.13-.54-.12-.77.04l-8.25,5.57c-.21.14-.33.37-.33.62s.12.48.33.62l8.25,5.57c.23.16.53.17.77.04.24-.13.4-.38.4-.66v-2.34c2.91-.04,8.37-1.07,11.01-7.79.1-.26.05-.56-.14-.77-.19-.21-.47-.3-.75-.23h0Z" style="stroke-width: 0px;"/>
<script xmlns=""/></svg>