<svg id="Group_1066" data-name="Group 1066" xmlns="http://www.w3.org/2000/svg" width="20" height="20" viewBox="0 0 18.197 18.189">
  <path class="fill_main-color" id="Path_482" data-name="Path 482" d="M68.816,65a.881.881,0,0,0-.881.881v1.174a.88.88,0,0,1-.881.881H65.881a.881.881,0,0,0,0,1.761h1.174A2.642,2.642,0,0,0,69.7,67.055V65.881A.881.881,0,0,0,68.816,65Z" transform="translate(-51.499 -51.506)" fill="#fff"/>
  <path class="fill_main-color" id="Path_483" data-name="Path 483" d="M39.327,44.218a.881.881,0,0,0,.7-.341l5.022-6.457a.879.879,0,1,0-1.388-1.08L38.635,42.8a.881.881,0,0,0,.693,1.421Z" transform="translate(-32.741 -31.018)" fill="#fff"/>
  <path class="fill_main-color" id="Path_485" data-name="Path 485" d="M22.816,69.7a.881.881,0,0,0,0-1.761H21.642a.881.881,0,0,1-.881-.881V65.881a.881.881,0,0,0-1.761,0v1.174A2.642,2.642,0,0,0,21.642,69.7Z" transform="translate(-19 -51.506)" fill="#fff"/>
  <path class="fill_main-color" id="Path_517" data-name="Path 517" d="M19.881,23.7a.881.881,0,0,0,.881-.881V21.642a.881.881,0,0,1,.881-.881h1.174a.881.881,0,1,0,0-1.761H21.642A2.642,2.642,0,0,0,19,21.642v1.174A.881.881,0,0,0,19.881,23.7Z" transform="translate(-19 -19)" fill="#fff"/>
  <path class="fill_main-color" id="Path_518" data-name="Path 518" d="M67.055,19H65.881a.881.881,0,0,0,0,1.761h1.174a.881.881,0,0,1,.881.881v1.174a.881.881,0,0,0,1.761,0V21.642A2.642,2.642,0,0,0,67.055,19Z" transform="translate(-51.499 -19)" fill="#fff"/>
  <path class="fill_main-color" id="Path_577" data-name="Path 577" d="M39.327,44.218a.881.881,0,0,0,.7-.341l5.022-6.457a.879.879,0,1,0-1.388-1.08L38.635,42.8a.881.881,0,0,0,.693,1.421Z" transform="matrix(0.259, -0.966, 0.966, 0.259, -40.473, 39.124)" fill="#fff"/>
  <path class="fill_main-color" id="Path_578" data-name="Path 578" d="M39.327,44.218a.881.881,0,0,0,.7-.341l5.022-6.457a.879.879,0,1,0-1.388-1.08L38.635,42.8a.881.881,0,0,0,.693,1.421Z" transform="matrix(-0.616, -0.788, 0.788, -0.616, 3.251, 66.755)" fill="#fff"/>
  <path class="fill_main-color" id="Path_579" data-name="Path 579" d="M39.327,44.218a.881.881,0,0,0,.7-.341l5.022-6.457a.879.879,0,1,0-1.388-1.08L38.635,42.8a.881.881,0,0,0,.693,1.421Z" transform="matrix(0.259, -0.966, 0.966, 0.259, -40.473, 39.124)" fill="#fff"/>
</svg>
