<?xml version="1.0" encoding="utf-8"?>
<!-- Generator: Adobe Illustrator 25.0.1, SVG Export Plug-In . SVG Version: 6.00 Build 0)  -->
<svg version="1.1" id="Layer_1" xmlns="http://www.w3.org/2000/svg" xmlns:xlink="http://www.w3.org/1999/xlink" x="0px" y="0px"
	 viewBox="0 0 85 85" style="enable-background:new 0 0 85 85;" xml:space="preserve">
<style type="text/css">
	.st0{fill:#FFFFFF;}
</style>
<path class="st0" d="M37.8,44.2c0.3,0.4,0.7,0.7,1.2,0.7c0.2,0,0.5-0.1,0.7-0.2l1.5-0.9v1.7c0,0.8,0.6,1.4,1.4,1.4
	c0.8,0,1.4-0.6,1.4-1.4v-1.7l1.5,0.9c0.2,0.1,0.4,0.2,0.7,0.2c0.5,0,0.9-0.2,1.2-0.7c0.4-0.6,0.2-1.5-0.5-1.9l-1.5-0.9l1.5-0.9
	c0.6-0.4,0.9-1.2,0.5-1.9c-0.4-0.6-1.2-0.9-1.9-0.5l-1.5,0.9v-1.7c0-0.8-0.6-1.4-1.4-1.4c-0.8,0-1.4,0.6-1.4,1.4v1.7l-1.5-0.9
	c-0.6-0.4-1.5-0.2-1.9,0.5c-0.4,0.6-0.2,1.5,0.5,1.9l1.5,0.9l-1.5,0.9C37.7,42.7,37.4,43.6,37.8,44.2z"/>
<path class="st0" d="M24.2,44.2c0.3,0.4,0.7,0.7,1.2,0.7c0.2,0,0.5-0.1,0.7-0.2l1.5-0.9v1.7c0,0.8,0.6,1.4,1.4,1.4
	c0.8,0,1.4-0.6,1.4-1.4v-1.7l1.5,0.9c0.2,0.1,0.4,0.2,0.7,0.2c0.5,0,0.9-0.2,1.2-0.7c0.4-0.6,0.2-1.5-0.5-1.9l-1.5-0.9l1.5-0.9
	c0.6-0.4,0.9-1.2,0.5-1.9c-0.4-0.6-1.2-0.9-1.9-0.5l-1.5,0.9v-1.7c0-0.8-0.6-1.4-1.4-1.4c-0.8,0-1.4,0.6-1.4,1.4v1.7l-1.5-0.9
	c-0.7-0.4-1.5-0.2-1.9,0.5c-0.4,0.6-0.2,1.5,0.5,1.9l1.5,0.9l-1.5,0.9C24.1,42.7,23.8,43.6,24.2,44.2z"/>
<path class="st0" d="M51.4,44.2c0.3,0.4,0.7,0.7,1.2,0.7c0.2,0,0.5-0.1,0.7-0.2l1.5-0.9v1.7c0,0.8,0.6,1.4,1.4,1.4s1.4-0.6,1.4-1.4
	v-1.7l1.5,0.9c0.2,0.1,0.4,0.2,0.7,0.2c0.5,0,0.9-0.2,1.2-0.7c0.4-0.6,0.2-1.5-0.5-1.9l-1.5-0.9l1.5-0.9c0.6-0.4,0.9-1.2,0.5-1.9
	c-0.4-0.6-1.2-0.9-1.9-0.5l-1.5,0.9v-1.7c0-0.8-0.6-1.4-1.4-1.4s-1.4,0.6-1.4,1.4v1.7l-1.5-0.9c-0.7-0.4-1.5-0.2-1.9,0.5
	c-0.4,0.6-0.2,1.5,0.5,1.9l1.5,0.9l-1.5,0.9C51.2,42.7,51,43.6,51.4,44.2z"/>
<path class="st0" d="M42.5,17.1c-5.5,0-10.7,1.8-15,5.1v-3.8c0-0.8-0.6-1.4-1.4-1.4s-1.4,0.6-1.4,1.4v6.8c0,0,0,0.1,0,0.1
	c0,0,0,0.1,0,0.1c0,0,0,0,0,0c0,0,0,0.1,0,0.1c0,0,0,0.1,0,0.1c0,0,0,0,0,0c0,0,0,0.1,0,0.1c0,0,0,0.1,0.1,0.1c0,0,0,0,0,0
	c0,0,0,0,0.1,0.1c0,0,0.1,0.1,0.1,0.1c0,0,0.1,0.1,0.1,0.1c0,0,0.1,0.1,0.1,0.1c0,0,0,0,0,0c0,0,0.1,0,0.1,0c0,0,0.1,0,0.1,0.1
	c0,0,0,0,0,0c0,0,0.1,0,0.1,0c0,0,0,0,0.1,0l6.6,1.8c0.1,0,0.2,0,0.4,0c0.6,0,1.1-0.4,1.3-1c0.2-0.7-0.2-1.5-1-1.7L29,24.5
	c3.8-3.1,8.6-4.7,13.5-4.7c12,0,21.7,9.7,21.7,21.7s-9.7,21.7-21.7,21.7s-21.7-9.7-21.7-21.7c0-0.8-0.6-1.4-1.4-1.4
	c-0.8,0-1.4,0.6-1.4,1.4C18.1,55,29,66,42.5,66S67,55,67,41.5S56,17.1,42.5,17.1z"/>
</svg>
