<?xml version="1.0" encoding="utf-8"?>
<!-- Generator: Adobe Illustrator 23.1.0, SVG Export Plug-In . SVG Version: 6.00 Build 0)  -->
<svg version="1.2" baseProfile="tiny" id="Layer_1" xmlns="http://www.w3.org/2000/svg" xmlns:xlink="http://www.w3.org/1999/xlink"
	 x="0px" y="0px" viewBox="0 0 25 25" xml:space="preserve">
<path d="M21.1,19.1L12.9,4.8c-0.1-0.1-0.3-0.1-0.4-0.1s-0.3,0-0.4,0.1L3.8,19.1c-0.1,0.1-0.1,0.3,0,0.4c0.1,0.1,0.3,0.3,0.4,0.3
	h16.6c0.1,0,0.3-0.1,0.4-0.3C21.3,19.6,21.3,19.3,21.1,19.1z M12.5,6L19,17.4c-0.3,0.1-0.7,0.1-0.9,0.1c-0.6,0.1-1.5,0.1-2.1,0
	c-1,0-2.1-0.3-2.8-0.9c-0.3-0.1-0.6-0.7-0.6-1.2c-0.1-0.6,0-1,0.6-1.3c0.3-0.3,0.9-0.3,1.3-0.3c0.3,0.1,0.6,0.1,1,0.6l0.1-0.1
	c-0.1-0.1-0.3-0.4-0.3-0.6c-0.1-0.1-0.4-0.4-0.6-0.6c-0.3-0.3-0.6-0.4-0.9-0.6c-0.4-0.3-0.7-0.3-1.3-0.3c-0.4,0-0.9,0-1.3,0.1
	c-0.3,0-0.7,0-0.9,0.1c-0.4,0.1-0.7,0.3-1,0.4c-0.1,0-0.9,0.4-1,0.6L12.5,6z"/>
</svg>
