<svg xmlns="http://www.w3.org/2000/svg" width="38.324" height="23" viewBox="0 0 38.324 23">
  <path id="Path_4815" data-name="Path 4815" d="M29.877,23H4.324A4.531,4.531,0,0,1,0,18.3a4.655,4.655,0,0,1,3.275-4.565A6.348,6.348,0,0,1,8.314,9.524C8.553,4.229,12.587,0,17.511,0a9.224,9.224,0,0,1,8.325,5.736,7.878,7.878,0,0,1,4.041-1.118c4.658,0,8.447,4.123,8.447,9.191S34.535,23,29.877,23ZM4.3,16.836a1.467,1.467,0,0,0,.028,2.92H29.877a5.728,5.728,0,0,0,5.465-5.947,5.727,5.727,0,0,0-5.465-5.946A5.215,5.215,0,0,0,26.1,9.511L24.15,11.542l-.538-2.881a6.4,6.4,0,0,0-6.1-5.417,6.526,6.526,0,0,0-6.227,6.775,7.5,7.5,0,0,0,.061.937l.28,2.2-2.014-.385a3.033,3.033,0,0,0-.565-.055,3.32,3.32,0,0,0-3.168,2.818l-.249,1.346L4.368,16.84l-.072,0Z" fill="#08f" opacity="0.6"/>
</svg>
