<svg xmlns="http://www.w3.org/2000/svg" width="63.488" height="60.597" viewBox="0 0 63.488 60.597"><g transform="translate(-501.082 -220.379)"><g transform="translate(490.854 222.129)"><path class="fill_main-color" d="M-6499.829-6736.817a1.744,1.744,0,0,1-1.237-.513l-15.188-15.187a1.749,1.749,0,0,1,0-2.475,1.749,1.749,0,0,1,2.475,0l15.188,15.188a1.749,1.749,0,0,1,0,2.475A1.743,1.743,0,0,1-6499.829-6736.817Z" transform="translate(6526.997 6753.755)"/><path class="fill_main-color" d="M-6515.018-6736.817a1.744,1.744,0,0,1-1.237-.513,1.749,1.749,0,0,1,0-2.475l15.188-15.187a1.749,1.749,0,0,1,2.475,0,1.749,1.749,0,0,1,0,2.475l-15.187,15.188A1.744,1.744,0,0,1-6515.018-6736.817Z" transform="translate(6526.996 6753.755)"/></g><g transform="translate(-835.967 -903.81)"><g transform="translate(1353.899 1134.482)"><path class="fill_main-color" d="M16,19.99a9,9,0,1,1,9-9,9,9,0,0,1-9,9ZM16,5.6a5.4,5.4,0,1,0,5.4,5.4A5.4,5.4,0,0,0,16,5.6Z" transform="translate(20.055 -2)"/><path class="fill_main-color" d="M16,19.99a9,9,0,1,1,9-9,9,9,0,0,1-9,9ZM16,5.6a5.4,5.4,0,1,0,5.4,5.4A5.4,5.4,0,0,0,16,5.6Z" transform="translate(21.647 30.313)"/><path class="fill_main-color" d="M.671,9.3-.671,6.616,15.244-1.342l1.342,2.683Z" transform="translate(14.259 11.936)"/><path class="fill_main-color" d="M16,19.99a9,9,0,1,1,9-9,9,9,0,0,1-9,9ZM16,5.6a5.4,5.4,0,1,0,5.4,5.4A5.4,5.4,0,0,0,16,5.6Z" transform="translate(-7 13.915)"/><path class="fill_main-color" d="M15.244,9.3-.671,1.342.671-1.342,16.586,6.616Z" transform="translate(14.259 29.926)"/></g></g></g></svg>