<?xml version="1.0" encoding="UTF-8" standalone="no"?>
<!DOCTYPE svg PUBLIC "-//W3C//DTD SVG 1.1//EN"
"http://www.w3.org/Graphics/SVG/1.1/DTD/svg11.dtd">


<!-- Page 3 -->
<svg x="0" y="0" width="275" height="275" viewBox="0 0 275 275" version="1.1" xmlns="http://www.w3.org/2000/svg" xmlns:xlink="http://www.w3.org/1999/xlink"
style="display: block;margin-left: auto;margin-right: auto;">
<defs>

<style type="text/css"><![CDATA[

.g1_3{
fill: #050604;
}


]]></style>

</defs>
<path d="M0,0
L0,275
L275,275
L275,0 Z " 
fill="#FFFFFF" stroke="none" />
<path d="M197.3,65.7l-119.6,0c-15,0,-27.2,12.2,-27.2,27.2c0,13.2,9.5,24.2,22.1,26.6l0,-7.7C64.2,109.6,58,102,58,92.9C58,82,66.8,73.2,77.7,73.2l119.6,0c10.9,0,19.7,8.8,19.7,19.7c0,9.1,-6.2,16.7,-14.6,18.9l0,7.7c12.6,-2.4,22.1,-13.4,22.1,-26.6c0,-15,-12.2,-27.2,-27.2,-27.2Z" class="g1_3" />
<path d="M84.9,93.1l64,0l0,117.3l-64,0l0,-117.3Zm89,0l16.2,0l0,117.3l-16.2,0ZM77.4,86.7l0,6.4l0,117.3c0,4.1,3.4,7.4,7.5,7.4l105.2,0c4.1,0,7.5,-3.3,7.5,-7.4l0,-117.3l0,-6.6l0,-0.8l-120.2,0Z" class="g1_3" />

</svg>
