<?xml version="1.0" encoding="utf-8"?>
<!-- Generator: Adobe Illustrator 26.3.1, SVG Export Plug-In . SVG Version: 6.00 Build 0)  -->
<svg version="1.1" id="Layer_1" xmlns="http://www.w3.org/2000/svg" xmlns:xlink="http://www.w3.org/1999/xlink" x="0px" y="0px"
	 viewBox="0 0 89.1 25.7" style="enable-background:new 0 0 89.1 25.7;" xml:space="preserve">
<style type="text/css">
	.st0{fill:#FFFFFF;}
	.st1{fill:#E8E8E8;}
</style>
<g>
	<path class="st0" d="M11.1,1.1H4.3c-0.5,0-0.9,0.3-0.9,0.8L0.6,19.5c-0.1,0.3,0.2,0.7,0.6,0.7h3.3c0.5,0,0.9-0.3,0.9-0.8l0.7-4.7
		c0.1-0.5,0.5-0.8,0.9-0.8h2.2c4.5,0,7.1-2.2,7.8-6.5c0.3-1.9,0-3.4-0.9-4.4C15.1,1.7,13.4,1.1,11.1,1.1z M11.9,7.5
		C11.5,10,9.7,10,7.8,10h-1l0.7-4.6c0-0.3,0.3-0.5,0.6-0.5h0.5c1.2,0,2.4,0,3,0.7C11.9,6.1,12,6.7,11.9,7.5z"/>
	<path class="st0" d="M31.6,7.5h-3.3c-0.3,0-0.5,0.2-0.6,0.5l-0.1,0.9l-0.2-0.3c-0.7-1-2.3-1.4-3.9-1.4c-3.6,0-6.7,2.7-7.3,6.6
		c-0.3,1.9,0.1,3.8,1.2,5c1,1.2,2.4,1.7,4.1,1.7c2.9,0,4.5-1.9,4.5-1.9l-0.1,0.9c-0.1,0.3,0.2,0.7,0.6,0.7h2.9
		c0.5,0,0.9-0.3,0.9-0.8l1.8-11.2C32.2,7.8,31.9,7.5,31.6,7.5z M27,13.8c-0.3,1.9-1.8,3.1-3.7,3.1c-1,0-1.7-0.3-2.2-0.9
		c-0.5-0.6-0.7-1.4-0.5-2.3c0.3-1.9,1.8-3.2,3.7-3.2c0.9,0,1.7,0.3,2.2,0.9C26.9,12.1,27.1,12.9,27,13.8z"/>
	<path class="st0" d="M49,7.5h-3.3c-0.3,0-0.6,0.2-0.8,0.4l-4.5,6.7l-1.9-6.4c-0.1-0.4-0.5-0.7-0.9-0.7h-3.2c-0.4,0-0.7,0.4-0.5,0.8
		l3.6,10.6L34,23.7c-0.3,0.4,0,0.9,0.5,0.9h3.3c0.3,0,0.6-0.2,0.8-0.4L49.5,8.4C49.7,8,49.5,7.5,49,7.5z"/>
	<path class="st1" d="M59.9,1.1h-6.8c-0.5,0-0.9,0.3-0.9,0.8l-2.8,17.5c-0.1,0.3,0.2,0.7,0.6,0.7h3.5c0.3,0,0.6-0.2,0.7-0.6l0.8-5
		c0.1-0.5,0.5-0.8,0.9-0.8H58c4.5,0,7.1-2.2,7.8-6.5c0.3-1.9,0-3.4-0.9-4.4C63.9,1.7,62.2,1.1,59.9,1.1z M60.7,7.5
		C60.3,10,58.4,10,56.6,10h-1l0.7-4.6c0-0.3,0.3-0.5,0.6-0.5h0.5c1.2,0,2.4,0,3,0.7C60.7,6.1,60.8,6.7,60.7,7.5z"/>
	<path class="st1" d="M80.3,7.5h-3.3c-0.3,0-0.5,0.2-0.6,0.5l-0.1,0.9l-0.2-0.3c-0.7-1-2.3-1.4-3.9-1.4c-3.6,0-6.7,2.7-7.3,6.6
		c-0.3,1.9,0.1,3.8,1.2,5c1,1.2,2.4,1.7,4.1,1.7c2.9,0,4.5-1.9,4.5-1.9l-0.1,0.9c-0.1,0.3,0.2,0.7,0.6,0.7h2.9
		c0.5,0,0.9-0.3,0.9-0.8l1.8-11.2C81,7.8,80.7,7.5,80.3,7.5z M75.8,13.8C75.5,15.7,74,17,72.1,17c-0.9,0-1.7-0.3-2.2-0.9
		c-0.5-0.6-0.7-1.4-0.5-2.3c0.3-1.9,1.8-3.2,3.7-3.2c0.9,0,1.7,0.3,2.2,0.9C75.7,12.1,75.9,12.9,75.8,13.8z"/>
	<path class="st1" d="M84.2,1.6l-2.8,17.9c-0.1,0.3,0.2,0.7,0.6,0.7h2.8c0.5,0,0.9-0.3,0.9-0.8l2.8-17.5c0.1-0.3-0.2-0.7-0.6-0.7
		h-3.2C84.5,1.1,84.2,1.3,84.2,1.6z"/>
</g>
</svg>
