<svg xmlns="http://www.w3.org/2000/svg" width="15" height="15" viewBox="0 0 15 15">
  <g id="Group_4435" data-name="Group 4435" transform="translate(-1860.857 -673.125)">
    <circle id="Ellipse_943" data-name="Ellipse 943" cx="6" cy="6" r="6" transform="translate(1862 675)" fill="#fff"/>
    <path id="Intersection_1" data-name="Intersection 1" d="M7,14.007a7,7,0,0,1-7-7c0-.02,0-.04,0-.06V6.934c0-.041,0-.082,0-.124v0A7,7,0,0,1,.87,3.624h0l.022-.039A7,7,0,0,1,7,.006q.224,0,.445.014a7.009,7.009,0,0,1,6.54,6.525h0v.022q.013.217.014.439,0,.293-.024.579V7.6l0,.019a7.019,7.019,0,0,1-.954,2.965l-.011.019h0a6.966,6.966,0,0,1-3.292,2.856,6.544,6.544,0,0,1-.771.277l-.026.007h0a6.964,6.964,0,0,1-1.2.229h0l-.038,0H7.668l-.033,0H7.623l-.03,0H7.577l-.025,0-.02,0-.024,0H7.467l-.024,0H7.423L7.4,14H7.383l-.029,0H7Zm-.95-3.767v.6a.252.252,0,0,0,.2.25,3.874,3.874,0,0,0,1.634,0,.252.252,0,0,0,.2-.25v-.6a2.419,2.419,0,0,0,.483-.2l.417.417a.251.251,0,0,0,.316.033,3.968,3.968,0,0,0,1.15-1.15.251.251,0,0,0-.033-.316L10,8.607a2.419,2.419,0,0,0,.2-.483h.6a.252.252,0,0,0,.25-.2,3.874,3.874,0,0,0,0-1.634.252.252,0,0,0-.25-.2h-.6a2.419,2.419,0,0,0-.2-.483l.417-.417a.252.252,0,0,0,.033-.317A3.976,3.976,0,0,0,9.3,3.723a.251.251,0,0,0-.316.033l-.417.417a2.476,2.476,0,0,0-.483-.2V3.34a.251.251,0,0,0-.2-.25,3.845,3.845,0,0,0-1.634,0,.251.251,0,0,0-.2.25v.6a2.476,2.476,0,0,0-.483.2L5.15,3.723a.252.252,0,0,0-.317-.033A3.973,3.973,0,0,0,3.684,4.839a.252.252,0,0,0,.033.317l.417.417a2.476,2.476,0,0,0-.2.483h-.6a.251.251,0,0,0-.25.2,3.845,3.845,0,0,0,0,1.633.251.251,0,0,0,.25.2h.6a2.476,2.476,0,0,0,.2.483l-.417.417a.251.251,0,0,0-.033.316,3.965,3.965,0,0,0,1.149,1.15.252.252,0,0,0,.317-.033l.417-.383A2.419,2.419,0,0,0,6.05,10.239Zm.517.383v-.566a.27.27,0,0,0-.183-.25,2.726,2.726,0,0,1-.717-.3.252.252,0,0,0-.317.033l-.4.4a3.65,3.65,0,0,1-.716-.716l.4-.4a.252.252,0,0,0,.033-.317,2.967,2.967,0,0,1-.3-.716.235.235,0,0,0-.25-.184H3.55a3.5,3.5,0,0,1,0-1.016h.567a.271.271,0,0,0,.25-.184,2.72,2.72,0,0,1,.3-.716.252.252,0,0,0-.033-.317l-.4-.4a3.631,3.631,0,0,1,.716-.717l.4.4a.253.253,0,0,0,.317.033,2.991,2.991,0,0,1,.717-.3.266.266,0,0,0,.2-.249V3.573a3.433,3.433,0,0,1,1.016,0V4.14a.271.271,0,0,0,.184.249,2.709,2.709,0,0,1,.716.3.253.253,0,0,0,.317-.033l.4-.4a3.631,3.631,0,0,1,.716.717l-.4.4A.252.252,0,0,0,9.5,5.69a2.967,2.967,0,0,1,.3.716.25.25,0,0,0,.25.184h.566a3.433,3.433,0,0,1,0,1.016H10.05a.266.266,0,0,0-.25.2,2.732,2.732,0,0,1-.3.716.252.252,0,0,0,.033.317l.4.4a3.655,3.655,0,0,1-.716.717l-.4-.4A.253.253,0,0,0,8.5,9.523a2.967,2.967,0,0,1-.716.3.252.252,0,0,0-.184.25v.567c-.183.016-.349.016-.517.016S6.75,10.64,6.566,10.623ZM5.8,7.089a1.283,1.283,0,0,0,2.567,0A1.306,1.306,0,0,0,7.083,5.806,1.285,1.285,0,0,0,5.8,7.089Z" transform="translate(1861.357 673.619)" fill="#e18700"/>
    <path id="Intersection_1_-_Outline" data-name="Intersection 1 - Outline" d="M7,14.507a7.509,7.509,0,0,1-7.5-7.5c0-.021,0-.042,0-.064V6.933c0-.049,0-.093,0-.137A7.538,7.538,0,0,1,.432,3.382l.024-.044A7.515,7.515,0,0,1,7-.494c.158,0,.318.005.476.015a7.509,7.509,0,0,1,7.008,6.991l0,.024c.01.156.015.314.015.47,0,.206-.009.415-.025.62l0,.032a7.56,7.56,0,0,1-1.022,3.177l-.016.026A7.467,7.467,0,0,1,9.91,13.917a7.047,7.047,0,0,1-.826.3l-.033.009a7.489,7.489,0,0,1-1.283.245l-.45.032L7.294,14l.02.5Zm.621-1.029.055.5-.048-.5.035,0a6.5,6.5,0,0,0,1.115-.213l.026-.008A6.065,6.065,0,0,0,9.518,13a6.467,6.467,0,0,0,3.062-2.654l.011-.018a6.553,6.553,0,0,0,.886-2.753l0-.028c.015-.177.022-.359.022-.538,0-.135,0-.273-.013-.408v-.02A6.509,6.509,0,0,0,7.412.519C7.277.511,7.138.506,7,.506A6.514,6.514,0,0,0,1.329,3.828l-.023.041A6.537,6.537,0,0,0,.5,6.822c0,.041,0,.079,0,.117v.068a6.508,6.508,0,0,0,6.5,6.5l.591-.027Zm-.554-1.8a4.353,4.353,0,0,1-.911-.1.75.75,0,0,1-.606-.741v-.105l-.055.051A.757.757,0,0,1,4.97,11a.747.747,0,0,1-.413-.124A4.447,4.447,0,0,1,3.265,9.579a.751.751,0,0,1,.1-.944L3.41,8.59H3.334a.748.748,0,0,1-.742-.608,4.342,4.342,0,0,1,0-1.82.748.748,0,0,1,.742-.606H3.41L3.363,5.51a.751.751,0,0,1-.1-.948A4.452,4.452,0,0,1,4.56,3.271a.747.747,0,0,1,.41-.122.757.757,0,0,1,.535.223l.045.045V3.34A.748.748,0,0,1,6.156,2.6a4.365,4.365,0,0,1,1.82,0,.748.748,0,0,1,.608.742v.11L8.63,3.4a.755.755,0,0,1,.533-.221.744.744,0,0,1,.414.125A4.454,4.454,0,0,1,10.869,4.6a.753.753,0,0,1-.1.945l-.045.045H10.8a.75.75,0,0,1,.741.606,4.371,4.371,0,0,1,0,1.822.75.75,0,0,1-.741.606h-.076l.046.046a.75.75,0,0,1,.1.947,4.447,4.447,0,0,1-1.293,1.292.744.744,0,0,1-.41.122.757.757,0,0,1-.535-.223l-.045-.045v.076a.75.75,0,0,1-.606.741A4.344,4.344,0,0,1,7.067,11.677Zm0-1.521H7.1v-.083a.752.752,0,0,1,.546-.731l.009,0a2.472,2.472,0,0,0,.587-.245.746.746,0,0,1,.395-.112A.76.76,0,0,1,9.17,9.2l.072.072.01-.01L9.18,9.193a.753.753,0,0,1-.1-.938,2.238,2.238,0,0,0,.239-.578l0-.008a.769.769,0,0,1,.731-.564h.1c0-.005,0-.011,0-.016h-.1a.751.751,0,0,1-.731-.547l0-.008a2.471,2.471,0,0,0-.245-.586.754.754,0,0,1,.108-.929l.071-.071-.01-.01L9.17,5.01a.76.76,0,0,1-.534.221.746.746,0,0,1-.4-.118,2.21,2.21,0,0,0-.578-.24l-.03-.009A.774.774,0,0,1,7.1,4.14v-.1H7.084v.1a.769.769,0,0,1-.562.73l-.009,0a2.5,2.5,0,0,0-.588.246.743.743,0,0,1-.394.113A.763.763,0,0,1,5,5.012l-.073-.073-.009.009.071.071a.753.753,0,0,1,.1.938,2.228,2.228,0,0,0-.239.578l-.009.03a.774.774,0,0,1-.725.525h-.1c0,.005,0,.011,0,.016h.08l.053,0a.734.734,0,0,1,.7.548l0,.009a2.472,2.472,0,0,0,.245.587.753.753,0,0,1-.11.93l-.069.07.01.01L5,9.186a.76.76,0,0,1,.534-.221.744.744,0,0,1,.4.119,2.233,2.233,0,0,0,.579.239l.029.009a.774.774,0,0,1,.525.725Zm.017-1.283a1.783,1.783,0,0,1,0-3.567A1.809,1.809,0,0,1,8.866,7.078v.012A1.764,1.764,0,0,1,7.083,8.873Zm0-2.567a.783.783,0,0,0,0,1.567A.775.775,0,0,0,7.866,7.1.8.8,0,0,0,7.083,6.306Z" transform="translate(1861.357 673.619)" fill="rgba(0,0,0,0)"/>
  </g>
</svg>
