<svg xmlns="http://www.w3.org/2000/svg" width="20" height="20" viewBox="0 0 16.436 18.197">
  <g id="Group_1065" data-name="Group 1065" transform="translate(-9731.564 -8946.867)">
    <path class="fill_main-color" id="Path_500" data-name="Path 500" d="M52.656,60.616a2.055,2.055,0,0,0,2.906,0l2.055-2.055a2.055,2.055,0,0,0,0-2.906L55.562,53.6a2.055,2.055,0,0,0-2.906,0L50.6,55.656a2.055,2.055,0,0,0,0,2.906Zm-.81-3.716L53.9,54.846a.294.294,0,0,1,.414,0L56.369,56.9a.294.294,0,0,1,0,.414l-2.055,2.055a.294.294,0,0,1-.414,0l-2.055-2.055A.294.294,0,0,1,51.846,56.9Z" transform="translate(9689.782 8903.846)" fill="#fff"/>
    <path class="fill_main-color" id="Path_501" data-name="Path 501" d="M24.245,21.163a1.424,1.424,0,0,1,1.057-.4h6.9a1.426,1.426,0,0,1,1.057.4,1.567,1.567,0,0,1,.484,1.133v3.164a.881.881,0,1,0,1.761,0V22.229A3.229,3.229,0,0,0,32.273,19H25.229A3.229,3.229,0,0,0,22,22.229v11.74A3.229,3.229,0,0,0,25.229,37.2h2.348a.881.881,0,0,0,0-1.761H25.229a1.468,1.468,0,0,1-1.468-1.468V22.293A1.567,1.567,0,0,1,24.245,21.163Z" transform="translate(9709.564 8927.867)" fill="#fff"/>
  </g>
</svg>
