<svg xmlns="http://www.w3.org/2000/svg" width="22.793" height="19.746" viewBox="0 0 22.793 19.746">
  <g id="Group_22" data-name="Group 22" transform="translate(-3991.5 -4362)">
    <g id="Group_16" data-name="Group 16" transform="translate(3991.5 4362)">
      <path class="fill_main-color" id="Path_29" data-name="Path 29" d="M13.9,8.8A11.4,11.4,0,0,0,5.835,28.258a1.016,1.016,0,0,0,.72.288h0a1.016,1.016,0,0,0,.72-.288l2.447-2.447a1.018,1.018,0,1,0-1.44-1.44l-1.7,1.7A9.235,9.235,0,0,1,4.587,21.2H6.963a1.008,1.008,0,0,0,0-2.015h-2.4a9.141,9.141,0,0,1,2.015-4.847l1.679,1.679a1.044,1.044,0,0,0,1.44,0,1.044,1.044,0,0,0,0-1.44L8.018,12.9a9.221,9.221,0,0,1,4.847-2.015v2.4a1.008,1.008,0,1,0,2.015,0v-2.4a9.389,9.389,0,0,1,8.3,8.3h-2.4a1.008,1.008,0,0,0,0,2.015h2.375a8.808,8.808,0,0,1-1.943,4.871l-1.7-1.7a1.018,1.018,0,1,0-1.44,1.44l2.447,2.447a1.016,1.016,0,0,0,.72.288h0a1.016,1.016,0,0,0,.72-.288A11.4,11.4,0,0,0,13.9,8.8Z" transform="translate(-2.5 -8.8)" fill="#fff"/>
      <path class="fill_main-color" id="Path_30" data-name="Path 30" d="M47.9,35.2a.837.837,0,0,0-1.128-.216L41.5,38.629a2.507,2.507,0,0,0-.5.5,2,2,0,0,0,3.287,2.279l3.647-5.278A.832.832,0,0,0,47.9,35.2Z" transform="translate(-31.494 -28.6)" fill="#fff"/>
    </g>
  </g>
</svg>
