<?xml version="1.0" encoding="utf-8"?>
<!-- Generator: Adobe Illustrator 24.0.1, SVG Export Plug-In . SVG Version: 6.00 Build 0)  -->
<svg version="1.2" baseProfile="tiny" id="Layer_1" xmlns="http://www.w3.org/2000/svg" xmlns:xlink="http://www.w3.org/1999/xlink"
	 x="0px" y="0px" viewBox="0 0 134 100" xml:space="preserve">
<path id="Path_785" fill-rule="evenodd" stroke="#FFFFFF" d="M2.07,42.46C14.88,35.53,27.7,28.6,40.51,21.68S66.14,7.83,78.95,0.9
	c1.19-0.59,2.51-0.86,3.84-0.8l0,0c1.31,0.02,2.59,0.39,3.71,1.06c7.63,5.11,15.27,10.22,22.91,15.34
	c7.63,5.11,15.27,10.23,22.91,15.34c0.84,0.47,1.36,1.36,1.35,2.32v21.27h-0.01c-0.19,0.95-0.84,1.74-1.73,2.12
	c-12.81,6.93-25.63,13.85-38.44,20.77C80.7,85.25,67.88,92.17,55.06,99.09c-1.19,0.6-2.52,0.88-3.86,0.81l0,0
	c-1.3-0.02-2.56-0.39-3.67-1.07c-7.63-5.11-15.27-10.22-22.91-15.34C17,78.38,9.35,73.27,1.7,68.15c-0.85-0.46-1.38-1.34-1.38-2.31
	l0,0V44.93c-0.01-0.09-0.01-0.18,0-0.27v-0.08h0.03C0.55,43.63,1.19,42.85,2.07,42.46L2.07,42.46z M51.8,98.81
	c0.71-0.02,1.41-0.2,2.04-0.53c12.81-6.93,25.63-13.85,38.44-20.76c12.81-6.93,25.63-13.85,38.44-20.77
	c0.72-0.39,1.62-0.88,1.62-1.42V36.14c-0.13,0.08-0.26,0.16-0.4,0.24c-12.81,6.93-25.62,13.85-38.44,20.77S67.88,70.99,55.07,77.91
	c-1.01,0.51-2.13,0.79-3.27,0.82L51.8,98.81L51.8,98.81z M50.46,78.66c-1.04-0.1-2.03-0.45-2.92-1.01
	c-7.63-5.11-15.27-10.23-22.91-15.34C16.99,57.21,9.35,52.09,1.71,46.98l-0.04-0.03v18.9c0,0.55,0.73,1.16,1.38,1.59
	c7.64,5.11,15.29,10.22,22.93,15.33C33.61,87.89,41.25,93,48.88,98.11c0.48,0.31,1.02,0.52,1.58,0.61L50.46,78.66L50.46,78.66z
	 M49.72,61.92c-0.06,0.56,0.66,1.03,1.59,1.06s1.69-0.4,1.74-0.94s-0.67-1.03-1.59-1.06S49.77,61.36,49.72,61.92z M49.37,66.23
	c-0.04,0.55,0.67,1.03,1.58,1.06s1.71-0.39,1.75-0.94s-0.67-1.03-1.58-1.06S49.4,65.67,49.37,66.23z M69.17,51.41
	c-0.05,0.55,0.67,1.03,1.58,1.06s1.7-0.4,1.75-0.94s-0.66-1.03-1.59-1.06C70,50.43,69.22,50.86,69.17,51.41z M68.82,55.72
	c-0.04,0.55,0.67,1.03,1.58,1.06s1.69-0.39,1.74-0.94s-0.66-1.03-1.59-1.06S68.86,55.16,68.82,55.72z M88.62,40.9
	c-0.04,0.54,0.67,1.03,1.59,1.06s1.7-0.39,1.75-0.94s-0.67-1.03-1.59-1.06S88.66,40.35,88.62,40.9z M88.25,45.2
	c-0.04,0.56,0.67,1.03,1.59,1.06s1.7-0.39,1.75-0.94s-0.65-1.03-1.58-1.06S88.3,44.65,88.25,45.2L88.25,45.2z M108.07,30.39
	c-0.05,0.54,0.67,1.03,1.59,1.06s1.68-0.39,1.74-0.94s-0.66-1.03-1.59-1.06S108.12,29.84,108.07,30.39z M107.72,34.69
	c-0.04,0.56,0.67,1.03,1.59,1.06s1.7-0.39,1.75-0.94s-0.66-1.03-1.59-1.06S107.76,34.14,107.72,34.69z M81.34,12.49
	c-0.05,0.55,0.66,1.02,1.59,1.06s1.69-0.38,1.74-0.93s-0.66-1.02-1.59-1.06S81.39,11.94,81.34,12.49z M80.99,16.8
	c-0.05,0.55,0.67,1.02,1.59,1.05s1.7-0.4,1.75-0.95s-0.67-1.01-1.59-1.04S81.03,16.25,80.99,16.8L80.99,16.8z M61.89,23
	c-0.04,0.55,0.67,1.02,1.58,1.06s1.71-0.39,1.75-0.94s-0.67-1.02-1.59-1.06S61.92,22.45,61.89,23L61.89,23z M61.53,27.31
	c-0.05,0.55,0.67,1.02,1.59,1.05s1.7-0.4,1.75-0.94s-0.67-1.01-1.59-1.05S61.58,26.77,61.53,27.31z M42.43,33.52
	c-0.05,0.56,0.66,1.03,1.58,1.06s1.72-0.4,1.75-0.95s-0.67-1.03-1.58-1.06S42.48,32.97,42.43,33.52z M42.08,37.82
	c-0.05,0.55,0.67,1.02,1.59,1.05s1.69-0.39,1.74-0.94s-0.67-1.02-1.59-1.05S42.13,37.27,42.08,37.82z M22.98,44.01
	c-0.05,0.56,0.66,1.03,1.59,1.06s1.7-0.39,1.74-0.93s-0.67-1.02-1.59-1.06S23.04,43.46,22.98,44.01z M22.62,48.33
	c-0.04,0.56,0.68,1.02,1.59,1.05s1.69-0.4,1.74-0.94s-0.67-1.01-1.58-1.05S22.67,47.78,22.62,48.33z M102.24,27.69
	c-2.24,1.2-3.42,2.85-3.56,4.51s0.77,3.4,2.8,4.75c2.27,1.38,4.86,2.13,7.52,2.17c2.72,0.14,5.42-0.43,7.85-1.65
	c2.22-1.2,3.42-2.84,3.55-4.51s-0.78-3.38-2.79-4.73c-2.27-1.39-4.87-2.15-7.53-2.19C107.38,25.9,104.67,26.47,102.24,27.69
	L102.24,27.69z M110.01,27.13c-2.26-0.11-4.52,0.36-6.54,1.38c-1.86,1.01-2.85,2.37-2.96,3.76c-0.13,1.39,0.64,2.82,2.33,3.95
	c1.89,1.16,4.05,1.79,6.27,1.81c2.26,0.11,4.51-0.36,6.53-1.38c1.85-1,2.87-2.37,2.98-3.75c0.11-1.4-0.66-2.82-2.35-3.95
	C114.38,27.79,112.22,27.17,110.01,27.13z M82.79,38.23c-2.21,1.19-3.42,2.83-3.55,4.5s0.78,3.39,2.81,4.75
	c2.26,1.39,4.86,2.14,7.51,2.17c2.72,0.13,5.42-0.43,7.85-1.64c2.23-1.21,3.42-2.85,3.55-4.52s-0.77-3.39-2.78-4.73
	c-2.27-1.4-4.87-2.15-7.54-2.19C87.93,36.43,85.22,37,82.79,38.23L82.79,38.23z M90.56,37.66c-2.26-0.11-4.52,0.36-6.54,1.38
	c-1.86,1-2.85,2.37-2.96,3.75s0.65,2.82,2.33,3.94c1.89,1.16,4.06,1.79,6.27,1.81c2.26,0.11,4.51-0.36,6.53-1.37
	c1.86-1.01,2.86-2.38,2.98-3.77c0.02-1.64-0.88-3.16-2.33-3.93C94.94,38.32,92.77,37.7,90.56,37.66L90.56,37.66z M63.33,48.73
	c-2.21,1.2-3.41,2.83-3.56,4.51c-0.12,1.67,0.78,3.39,2.82,4.74c2.26,1.39,4.85,2.15,7.51,2.19c2.71,0.14,5.42-0.43,7.85-1.65
	c2.23-1.2,3.42-2.85,3.56-4.51s-0.77-3.39-2.79-4.73c-2.27-1.39-4.88-2.15-7.54-2.19C68.47,46.94,65.76,47.51,63.33,48.73
	L63.33,48.73z M71.1,48.18c-2.26-0.11-4.52,0.36-6.54,1.38c-1.86,1-2.85,2.37-2.96,3.76s0.66,2.81,2.35,3.95
	c1.88,1.16,4.05,1.79,6.26,1.81c2.26,0.11,4.51-0.36,6.53-1.38c1.86-1.01,2.86-2.37,2.97-3.76s-0.64-2.81-2.33-3.93
	C75.48,48.84,73.32,48.2,71.1,48.18z M43.87,59.24c-2.22,1.19-3.42,2.85-3.56,4.51s0.78,3.38,2.81,4.74
	c2.26,1.39,4.85,2.15,7.51,2.19c2.72,0.14,5.42-0.44,7.85-1.66c2.24-1.2,3.43-2.85,3.56-4.51c0.15-1.67-0.77-3.38-2.78-4.74
	c-2.27-1.39-4.87-2.15-7.53-2.19C49.01,57.46,46.31,58.03,43.87,59.24L43.87,59.24z M51.66,58.68c-2.27-0.12-4.53,0.36-6.56,1.38
	c-1.85,1.01-2.84,2.37-2.95,3.76s0.65,2.81,2.33,3.95c1.89,1.16,4.05,1.78,6.27,1.81c2.26,0.11,4.5-0.37,6.52-1.38
	c1.86-1,2.88-2.36,2.99-3.75s-0.66-2.82-2.34-3.95C56.03,59.34,53.87,58.71,51.66,58.68L51.66,58.68z M75.53,9.82
	c-2.23,1.2-3.43,2.84-3.57,4.51s0.77,3.39,2.8,4.74c2.27,1.4,4.87,2.15,7.54,2.18c2.71,0.14,5.42-0.43,7.84-1.66
	c2.22-1.2,3.42-2.83,3.57-4.5c0.11-1.67-0.8-3.39-2.81-4.74c-2.27-1.39-4.87-2.14-7.53-2.18C80.66,8.03,77.96,8.6,75.53,9.82
	L75.53,9.82z M83.27,9.26c-2.26-0.11-4.51,0.36-6.53,1.38c-1.86,1.01-2.85,2.37-2.97,3.75s0.65,2.82,2.34,3.94
	c1.89,1.16,4.05,1.79,6.27,1.82c2.26,0.12,4.52-0.36,6.54-1.38c1.85-1,2.85-2.37,2.97-3.76s-0.67-2.82-2.34-3.94
	C87.66,9.91,85.49,9.29,83.27,9.26L83.27,9.26z M56.07,20.33c-2.22,1.2-3.43,2.83-3.57,4.5s0.78,3.39,2.82,4.74
	c2.26,1.4,4.86,2.15,7.52,2.18c2.71,0.14,5.42-0.43,7.84-1.65c2.23-1.2,3.42-2.83,3.56-4.51c0.13-1.67-0.78-3.39-2.79-4.74
	c-2.27-1.39-4.88-2.15-7.54-2.18C61.2,18.54,58.5,19.11,56.07,20.33L56.07,20.33z M63.81,19.76c-2.26-0.11-4.51,0.36-6.53,1.38
	c-1.86,1.01-2.85,2.36-2.98,3.75c-0.01,1.65,0.89,3.16,2.35,3.94c1.88,1.17,4.05,1.8,6.27,1.82c2.26,0.12,4.51-0.36,6.53-1.37
	c1.57-0.67,2.69-2.09,2.98-3.77c0.01-1.64-0.89-3.16-2.33-3.95C68.2,20.42,66.03,19.79,63.81,19.76L63.81,19.76z M36.62,30.84
	c-2.22,1.2-3.43,2.83-3.58,4.5c-0.12,1.67,0.78,3.38,2.81,4.74c2.27,1.39,4.86,2.14,7.52,2.18c2.71,0.14,5.42-0.43,7.84-1.65
	c2.24-1.2,3.42-2.83,3.57-4.51c0.12-1.67-0.78-3.39-2.8-4.74c-2.27-1.39-4.87-2.15-7.53-2.18C41.74,29.04,39.04,29.62,36.62,30.84z
	 M44.36,30.28c-2.26-0.11-4.51,0.36-6.53,1.38c-1.86,1-2.85,2.36-2.98,3.76s0.67,2.81,2.35,3.94c1.88,1.16,4.04,1.79,6.26,1.82
	c2.26,0.11,4.51-0.37,6.53-1.38c1.86-1.01,2.85-2.38,2.98-3.76c0.11-1.4-0.66-2.82-2.33-3.95C48.75,30.93,46.58,30.31,44.36,30.28
	L44.36,30.28z M17.16,41.34c-2.22,1.2-3.43,2.85-3.57,4.52s0.78,3.38,2.81,4.73c2.27,1.39,4.87,2.15,7.53,2.18
	c2.71,0.13,5.42-0.44,7.84-1.66c2.23-1.2,3.43-2.83,3.57-4.51s-0.78-3.39-2.8-4.74c-2.27-1.4-4.87-2.15-7.54-2.19
	C22.29,39.55,19.59,40.12,17.16,41.34L17.16,41.34z M24.92,40.78c-2.26-0.11-4.52,0.37-6.55,1.39c-1.85,1-2.84,2.36-2.96,3.75
	s0.66,2.82,2.35,3.95c1.89,1.16,4.05,1.78,6.26,1.81c2.25,0.12,4.5-0.36,6.51-1.38c1.86-1,2.86-2.37,2.99-3.76s-0.67-2.81-2.34-3.94
	C29.3,41.44,27.13,40.81,24.92,40.78L24.92,40.78z M80.17,1.73C67.36,8.65,54.54,15.58,41.73,22.5S16.09,36.35,3.28,43.28
	c-0.6,0.26-1.03,0.8-1.14,1.44h0.01c-0.03,0.64,0.32,1.24,0.88,1.54c7.64,5.11,15.29,10.22,22.93,15.33s15.28,10.22,22.91,15.34
	c0.73,0.45,1.58,0.69,2.44,0.7l0,0c0.87,0.05,1.74-0.13,2.52-0.53c12.82-6.93,25.64-13.85,38.45-20.77s25.63-13.84,38.44-20.77
	c0.61-0.26,1.04-0.81,1.15-1.46c0-0.63-0.34-1.22-0.9-1.52c-7.63-5.12-15.27-10.23-22.92-15.34C100.44,12.13,92.8,7.02,85.15,1.91
	c-0.73-0.45-1.57-0.7-2.43-0.71l0,0C81.84,1.15,80.96,1.34,80.17,1.73z"/>
</svg>
