<?xml version="1.0" encoding="utf-8"?>
<!-- Generator: Adobe Illustrator 24.3.0, SVG Export Plug-In . SVG Version: 6.00 Build 0)  -->
<svg version="1.2" baseProfile="tiny" id="Layer_1" xmlns="http://www.w3.org/2000/svg" xmlns:xlink="http://www.w3.org/1999/xlink"
	 x="0px" y="0px" viewBox="0 0 110 120" overflow="visible" xml:space="preserve">
<g id="Group_3604" transform="translate(-11.485 -151.643)">
	<path id="Path_4385" fill="#F28041" d="M62.4,220.9c-5.8,0.2-10.3,5.2-10.1,11c0.2,5.5,4.6,9.9,10.1,10.1c5.8-0.2,10.3-5.2,10.1-11
		C72.3,225.5,67.9,221.1,62.4,220.9z M60.5,232.8c-0.7,0-1.3-0.6-1.3-1.3c0-0.7,0.6-1.3,1.3-1.3c0.7,0,1.3,0.6,1.3,1.3c0,0,0,0,0,0
		C61.8,232.2,61.2,232.8,60.5,232.8L60.5,232.8z M67.1,232.8c-0.7,0-1.3-0.6-1.3-1.4c0-0.7,0.6-1.3,1.3-1.3l0,0
		c0.7,0,1.3,0.6,1.4,1.3C68.5,232.2,67.9,232.8,67.1,232.8C67.2,232.8,67.1,232.8,67.1,232.8z"/>
	<path id="Path_4386" fill="#F28041" d="M62.4,191.7c-5.8,0.2-10.3,5.2-10.1,11c0.2,5.5,4.6,9.9,10.1,10.1c5.8-0.2,10.3-5.2,10.1-11
		C72.3,196.3,67.9,191.9,62.4,191.7z M60.5,203.6c-0.7,0-1.3-0.6-1.3-1.3c0-0.7,0.6-1.3,1.3-1.3s1.3,0.6,1.3,1.3
		C61.8,203,61.2,203.6,60.5,203.6L60.5,203.6z M67.1,203.6c-0.7,0-1.3-0.6-1.3-1.3c0-0.7,0.6-1.3,1.3-1.3l0,0c0.7,0,1.3,0.6,1.3,1.3
		C68.4,203,67.8,203.6,67.1,203.6C67.1,203.6,67.1,203.6,67.1,203.6z"/>
	<path id="Path_4387" fill="#F28041" d="M62.4,162.7c-5.8,0.2-10.3,5.2-10.1,11c0.2,5.5,4.6,9.9,10.1,10.1c5.8-0.2,10.3-5.2,10.1-11
		C72.3,167.3,67.9,162.9,62.4,162.7z M60.5,174.6c-0.7,0-1.3-0.6-1.3-1.3c0-0.7,0.6-1.3,1.3-1.3s1.3,0.6,1.3,1.3
		C61.8,174,61.2,174.6,60.5,174.6L60.5,174.6z M67.1,174.6c-0.7,0-1.3-0.6-1.3-1.3c0-0.7,0.6-1.3,1.3-1.3l0,0c0.7,0,1.3,0.6,1.3,1.3
		C68.4,174,67.8,174.6,67.1,174.6C67.1,174.6,67.1,174.6,67.1,174.6z"/>
	<path id="Path_4261" fill="#FFFFFF" d="M49.6,155.2h30.9c2.5,0,4.5,2,4.5,4.5v86.9c0,2.5-2,4.5-4.5,4.5h-7v4.3
		c0,0.6-0.3,1.2-0.7,1.6c-0.5,0.4-1,0.6-1.6,0.6H66l0,8.8c0,0.5-0.4,1-1,1s-1-0.4-1-1l0-8.8H59c-0.6,0-1.2-0.2-1.6-0.6
		c-0.5-0.4-0.7-1-0.7-1.6v-4.3h-7c-2.5,0-4.5-2-4.5-4.5v-86.9C45.1,157.2,47.1,155.2,49.6,155.2L49.6,155.2z M65.1,238.5L65.1,238.5
		c0.6,0,1.2,0.5,1.2,1.2v1.3c0,0,0,0.1,0,0.1c5.4-0.6,9.2-5.5,8.5-10.9c-0.5-4.5-4.1-8-8.6-8.5c0,0.1,0.1,0.3,0.1,0.4v1.3
		c0,0.6-0.5,1.2-1.2,1.2l0,0c-0.6,0-1.2-0.5-1.2-1.2v-1.3c0-0.1,0-0.3,0.1-0.4c-5.4,0.6-9.2,5.5-8.6,10.8c0.5,4.5,4,8.1,8.5,8.6
		c0,0,0-0.1,0-0.1v-1.3C63.9,239,64.4,238.5,65.1,238.5L65.1,238.5z M65.1,209.3L65.1,209.3c0.6,0,1.2,0.5,1.2,1.2v1.3
		c0,0.1,0,0.1,0,0.2c5.4-0.6,9.2-5.5,8.5-10.9c-0.5-4.5-4.1-8-8.6-8.6c0,0.1,0.1,0.2,0.1,0.3v1.3c0,0.6-0.5,1.2-1.2,1.2l0,0
		c-0.6,0-1.2-0.5-1.2-1.2v-1.3c0-0.1,0-0.2,0.1-0.3c-5.4,0.6-9.2,5.5-8.6,10.8c0.5,4.5,4.1,8,8.6,8.6c0-0.1,0-0.1,0-0.2v-1.3
		C63.9,209.8,64.4,209.3,65.1,209.3L65.1,209.3z M65.1,180L65.1,180c0.6,0,1.2,0.5,1.2,1.2v1.3c0,0.1,0,0.2,0,0.3
		c5.4-0.6,9.2-5.5,8.6-10.8c-0.5-4.5-4.1-8-8.6-8.6c0,0.1,0,0.1,0,0.2v1.3c0,0.6-0.5,1.2-1.2,1.2l0,0c-0.6,0-1.2-0.5-1.2-1.2v-1.3
		c0-0.1,0-0.1,0-0.2c-5.4,0.6-9.2,5.5-8.6,10.9c0.5,4.5,4.1,8,8.6,8.6c0-0.1,0-0.2,0-0.3v-1.3C63.9,180.5,64.4,180,65.1,180
		L65.1,180z M65.1,219.7c6.5,0,11.7,5.2,11.7,11.7s-5.2,11.7-11.7,11.7c-6.5,0-11.7-5.2-11.7-11.7c0-3.1,1.2-6.1,3.4-8.3
		C59,221,62,219.7,65.1,219.7z M65.1,190.6c6.5,0,11.7,5.2,11.7,11.7S71.5,214,65.1,214c-6.5,0-11.7-5.2-11.7-11.7
		c0-3.1,1.2-6.1,3.4-8.3C59,191.8,62,190.6,65.1,190.6z M65.1,161.4c6.5,0,11.7,5.2,11.7,11.7s-5.2,11.7-11.7,11.7
		c-6.5,0-11.7-5.2-11.7-11.7c0-3.1,1.2-6.1,3.4-8.3C59,162.6,62,161.4,65.1,161.4z M71.6,251.2H58.5v4.3c0,0.1,0,0.1,0.1,0.2
		c0.1,0.1,0.2,0.1,0.4,0.1h12.2c0.1,0,0.3,0,0.4-0.1c0.1,0,0.1-0.1,0.1-0.2V251.2z M80.5,157.1H49.6c-1.5,0-2.6,1.2-2.6,2.6v86.9
		c0,1.5,1.2,2.6,2.6,2.6h30.9c1.5,0,2.6-1.2,2.6-2.6v-86.9C83.1,158.3,82,157.1,80.5,157.1L80.5,157.1z"/>
</g>
</svg>
