<svg xmlns="http://www.w3.org/2000/svg" width="109" height="70" viewBox="0 0 109 70"><g transform="translate(2751 4192)"><g transform="translate(282)"><g opacity="0"><rect width="109" height="25" transform="translate(-3033 -4192)" fill="#fff"/><path d="M1,1V24H108V1H1M0,0H109V25H0Z" transform="translate(-3033 -4192)" fill="#040696"/></g><rect width="109" height="45" transform="translate(-3033 -4167)" fill="none"/></g><g transform="translate(0 3)"><rect width="47" height="51" transform="translate(-2720 -4186)" fill="#fff"/><rect width="35" height="8" transform="translate(-2714 -4181)" fill="#040696"/><rect width="35" height="4" transform="translate(-2714 -4169)" fill="#040696"/><rect width="35" height="4" transform="translate(-2714 -4163)" fill="#040696"/><rect width="25" height="4" transform="translate(-2714 -4157)" fill="#040696"/><rect width="4" height="4" transform="translate(-2714 -4151)" fill="#040696"/><rect width="16" height="4" transform="translate(-2695 -4143)" fill="#040696"/><rect width="16" height="4" transform="translate(-2714 -4143)" fill="#040696"/></g></g></svg>