<?xml version="1.0" encoding="utf-8"?>
<!-- Generator: Adobe Illustrator 24.0.1, SVG Export Plug-In . SVG Version: 6.00 Build 0)  -->
<svg version="1.1" id="Layer_1" xmlns="http://www.w3.org/2000/svg" xmlns:xlink="http://www.w3.org/1999/xlink" x="0px" y="0px"
	 viewBox="0 0 30.4 30.7" style="enable-background:new 0 0 30.4 30.7;" xml:space="preserve">
<style type="text/css">
	.post-icon{fill:#808184;}
</style>
<path class="post-icon" d="M28.4,5.4C28.4,5.4,28.4,5.4,28.4,5.4L28.4,5.4c0,0,0-0.1,0-0.1c0,0,0,0,0-0.1c0,0,0-0.1,0-0.1c0,0,0,0,0,0
	c0,0,0,0,0,0c0,0,0,0,0,0c0,0-0.1,0-0.1-0.1c0,0,0,0-0.1,0c0,0-0.1,0-0.1,0c0,0,0,0,0,0c0,0,0,0,0,0c0,0-0.1,0-0.1,0c0,0,0,0,0,0
	l-1,0.3C5.6,11.8,1.8,12.9,1.4,13c-0.2,0-0.4,0.2-0.4,0.4C1,13.6,1,13.8,1.2,14l6.6,3.9l2,8.6c0,0,0,0,0,0c0,0,0,0,0,0.1
	c0,0,0,0.1,0,0.1c0,0,0,0,0,0.1c0,0,0,0,0.1,0.1c0,0,0,0,0,0c0,0,0,0,0,0c0,0,0,0,0.1,0c0,0,0.1,0,0.1,0c0,0,0,0,0,0c0,0,0,0,0,0
	c0,0,0,0,0,0c0,0,0,0,0,0c0,0,0,0,0,0c0.1,0,0.1,0,0.2,0c0,0,0,0,0,0c0,0,0.1,0,0.1-0.1c0,0,0,0,0,0l4.8-4.9l4.7,2.3
	c0.1,0.1,0.3,0.1,0.4,0c0.1-0.1,0.2-0.2,0.3-0.3l7.4-18.2c0,0,0,0,0,0l0,0C28.3,5.6,28.3,5.5,28.4,5.4C28.3,5.5,28.4,5.4,28.4,5.4z
	 M12.3,19.6C12.3,19.6,12.3,19.6,12.3,19.6c0,0-0.1,0.1-0.1,0.2c0,0,0,0,0,0c0,0,0,0,0,0l-1.8,4.8l-1.6-6.8L24,8.4L12.3,19.6z
	 M11.6,24.4l1.4-3.7l1.6,0.8L11.6,24.4z"/>
</svg>
