<svg xmlns="http://www.w3.org/2000/svg" width="36.969" height="51.253" viewBox="0 0 36.969 51.253"><g transform="translate(-29 -9.373)"><g transform="translate(2)"><path d="M61.242,42.144h-8.4A.84.84,0,0,1,52,41.3V25.34a.84.84,0,0,1,.84-.84h8.4a.84.84,0,0,1,.84.84V41.3A.84.84,0,0,1,61.242,42.144Zm-7.562-1.68H60.4V26.18H53.68Z" transform="translate(1.887 -10.926)" fill="#fff"/><path d="M57.84,25.381a.84.84,0,0,1-.84-.84v-4.2a.84.84,0,0,1,1.68,0v4.2A.84.84,0,0,1,57.84,25.381Z" transform="translate(1.088 -10.127)" fill="#fff"/><path d="M57.84,49.381a.84.84,0,0,1-.84-.84v-4.2a.84.84,0,0,1,1.68,0v4.2A.84.84,0,0,1,57.84,49.381Z" transform="translate(1.088 -13.962)" fill="#fff"/><path d="M45.242,61.386h-8.4a.84.84,0,0,1-.84-.84V35.34a.84.84,0,0,1,.84-.84h8.4a.84.84,0,0,1,.84.84V60.546A.84.84,0,0,1,45.242,61.386Zm-7.562-1.68H44.4V36.18H37.68Z" transform="translate(4.443 -12.523)" fill="#fff"/><path d="M41.84,35.381a.84.84,0,0,1-.84-.84v-4.2a.84.84,0,0,1,1.68,0v4.2A.84.84,0,0,1,41.84,35.381Z" transform="translate(3.645 -11.725)" fill="#fff"/><path d="M41.84,70.381a.84.84,0,0,1-.84-.84v-4.2a.84.84,0,0,1,1.68,0v4.2A.84.84,0,0,1,41.84,70.381Z" transform="translate(3.645 -17.317)" fill="#fff"/><ellipse cx="0.5" cy="1" rx="0.5" ry="1" transform="translate(45 43.625)" fill="#fff"/><ellipse cx="0.5" cy="1" rx="0.5" ry="1" transform="translate(45 37.625)" fill="#fff"/><circle cx="1" cy="1" r="1" transform="translate(48 40.625)" fill="#fff"/><circle cx="1" cy="1" r="1" transform="translate(41 40.625)" fill="#fff"/><ellipse cx="1" cy="0.5" rx="1" ry="0.5" transform="translate(48 35.625)" fill="#fff"/><ellipse cx="1" cy="0.5" rx="1" ry="0.5" transform="translate(41 35.625)" fill="#fff"/><ellipse cx="0.5" cy="1" rx="0.5" ry="1" transform="translate(45 31.625)" fill="#fff"/><circle cx="0.5" cy="0.5" r="0.5" transform="translate(45 26.625)" fill="#fff"/><circle cx="1" cy="1" r="1" transform="translate(48 28.625)" fill="#fff"/><circle cx="1" cy="1" r="1" transform="translate(41 28.625)" fill="#fff"/><path d="M29.242,71.185h-8.4a.84.84,0,0,1-.84-.84V49.34a.84.84,0,0,1,.84-.84h8.4a.84.84,0,0,1,.84.84V70.345A.84.84,0,0,1,29.242,71.185Zm-7.562-1.68H28.4V50.18H21.68Z" transform="translate(7 -14.761)" fill="#fff"/><path d="M25.84,49.381a.84.84,0,0,1-.84-.84v-4.2a.84.84,0,1,1,1.68,0v4.2A.84.84,0,0,1,25.84,49.381Z" transform="translate(6.201 -13.962)" fill="#fff"/><path d="M25.84,79.381a.84.84,0,0,1-.84-.84v-4.2a.84.84,0,1,1,1.68,0v4.2A.84.84,0,0,1,25.84,79.381Z" transform="translate(6.201 -18.756)" fill="#fff"/></g></g></svg>