<svg xmlns="http://www.w3.org/2000/svg" width="20" height="20" viewBox="0 0 18.198 18.199">
  <g id="Group_1081" data-name="Group 1081" transform="translate(-3114.9 -8235.862)">
    <path class="fill_main-color" id="Path_574" data-name="Path 574" d="M26.925,59.805a.881.881,0,0,0,.881-.881V51.881A.881.881,0,0,0,26.925,51H19.881a.881.881,0,0,0-.881.881A7.925,7.925,0,0,0,26.925,59.805Zm-6.111-7.044h5.23v5.23l-.352-.073a6.164,6.164,0,0,1-4.808-4.8Z" transform="translate(3095.9 8194.256)" fill="#fff"/>
    <path class="fill_main-color" id="Path_575" data-name="Path 575" d="M43.827,26.093a7.925,7.925,0,0,0-15.353-1.814.881.881,0,0,0,1.655.587,6.164,6.164,0,0,1,5.814-4.109,6.357,6.357,0,0,1,.684.038A6.164,6.164,0,0,1,38,32.732a.881.881,0,0,0,.587,1.655A7.925,7.925,0,0,0,43.827,26.093Z" transform="translate(3089.229 8216.867)" fill="#fff"/>
  </g>
</svg>
