<?xml version="1.0" encoding="UTF-8" standalone="no"?>
<!DOCTYPE svg PUBLIC "-//W3C//DTD SVG 1.1//EN"
"http://www.w3.org/Graphics/SVG/1.1/DTD/svg11.dtd">


<!-- Page 1 -->
<svg x="0" y="0" width="275" height="275" viewBox="0 0 275 275" version="1.1" xmlns="http://www.w3.org/2000/svg" xmlns:xlink="http://www.w3.org/1999/xlink"
style="display: block;margin-left: auto;margin-right: auto;">
<defs>

<style type="text/css"><![CDATA[

.quick-trade-1{
fill: none;
stroke: #1F1F1E;
stroke-width: 8.5525;
stroke-linecap: butt;
stroke-linejoin: miter;
}
.quick-trade-2{
fill: #F69322;
}
.quick-trade-3{
fill: none;
stroke: #F69322;
stroke-width: 1.2573612;
stroke-linecap: butt;
stroke-linejoin: miter;
}
.quick-trade-4{
fill: #211E1E;
}


]]></style>

</defs>
<path d="M141.5,134.9l-56.7,0L165.1,19.7l-14.3,83.2l57.8,0L130.2,214.7l11.3,-79.8Z" class="quick-trade-1" />
<path d="M189.5,224.1c0,0,-21.4,22.1,-57,22.1c-35.6,0,-57.1,-14,-60.1,-26.2c-1.9,14.2,-3,18.2,1.3,26.1c4.2,7.9,22.8,24.2,59,24.2c36.1,0,54.3,-12.7,55.7,-33.8c1.5,-21.1,1.1,-12.4,1.1,-12.4Z" class="quick-trade-2" />
<path d="M189.5,224.1c0,0,-21.4,22.1,-57,22.1c-35.6,0,-57.1,-14,-60.1,-26.2c-1.9,14.2,-3,18.2,1.3,26.1c4.2,7.9,22.8,24.2,59,24.2c36.1,0,54.3,-12.7,55.7,-33.8c1.5,-21.1,1.1,-12.4,1.1,-12.4Z" class="quick-trade-3" />
<path d="M80.7,235.3l0,13c-3.1,-3.8,-4.9,-7.9,-4.8,-12.2l0,-5.7c1.5,1.8,3.1,3.4,4.8,4.9m104.4,-4.9l0,5.7c0,4.5,-1.7,8.6,-5,12.7l0,-13.3c1.1,-0.9,2.2,-2,3.2,-3c0.6,-0.6,1.3,-1.3,1.8,-2.1m-18.9,28.5l0,-15.3c2.5,-0.9,4.7,-2.2,6.9,-3.4l0,14.8c-0.9,0.7,-2,1.3,-3.2,2c-1.2,0.7,-2.5,1.3,-3.7,1.9m-7,-12.7l0,15.8c-2.7,1,-5.4,1.7,-8.5,2.3l0,-15.7c3.1,-0.9,5.8,-1.6,8.5,-2.4m-15.5,3.2l0,16.1c-3.2,0.5,-6.4,0.7,-9.8,0.8l0,-16c3.5,-0.3,6.7,-0.5,9.8,-0.9m-26.6,0c3.2,0.5,6.5,0.6,9.9,0.9l0,16c-3.3,-0.1,-6.7,-0.3,-9.9,-0.8Zm-29.4,5.2l0,-14.5c2.2,1.2,4.4,2.4,6.9,3.4l0,15.3c-2.5,-1.2,-4.7,-2.7,-6.9,-4.2m13.9,7l0,-15.5c2.6,0.9,5.6,1.6,8.4,2.2l0,15.8c-2.9,-0.7,-5.6,-1.5,-8.4,-2.5m81.7,-5.9c5.6,-5.7,8.8,-12.3,8.8,-19.5l0,-22.9c0,-7.4,-3.5,-14.7,-10.2,-20.8c-1.5,-1.3,-3.6,-1.1,-4.9,0.2c-1.3,1.5,-1.3,3.7,0.2,4.9c5.2,4.7,7.9,10.2,8,15.7c0,16.5,-25,30.2,-54.6,30.2C101,243.5,76,229.6,76,213.3C76,199.5,93.6,187,118,183.8c2,-0.2,3.2,-1.9,3,-3.9c-0.2,-2,-2,-3.2,-3.9,-3C88.7,180.6,69,195.7,68.8,213.3l0,22.9c0,21,27.2,37.3,61.7,37.3c22.6,-0.2,42.2,-7.2,52.8,-17.8Z" class="quick-trade-4" />

</svg>
