<svg xmlns="http://www.w3.org/2000/svg" width="34.002" height="30.001" viewBox="0 0 34.002 30.001"><g transform="translate(-176.998 -24.999)"><path d="M13,3A10,10,0,1,0,23,13,10.011,10.011,0,0,0,13,3m0-3A13,13,0,1,1,0,13,13,13,0,0,1,13,0Z" transform="translate(185 29)" fill="#fff"/><path d="M22662,9440a10,10,0,0,0,0-20,10.25,10.25,0,0,0-1.123.062l-1.629.181-1.033-1.273a8,8,0,1,0-7.738,12.888l1.615.31.607,1.526a10.013,10.013,0,0,0,9.3,6.309m0,3a13.012,13.012,0,0,1-12.088-8.2,11,11,0,1,1,10.635-17.723,13.229,13.229,0,0,1,1.453-.08,13,13,0,0,1,0,26Z" transform="translate(-22464 -9388)" fill="#fff"/></g></svg>