<svg xmlns="http://www.w3.org/2000/svg" width="20" height="20" viewBox="0 0 18.197 18.198"><g transform="translate(4627.592 -2149.802)"><path class="fill_main-color" d="M35.436,23.693h-.916l.138-.39a3.17,3.17,0,0,0-.035-2.251A3.229,3.229,0,0,0,31.527,19a4.4,4.4,0,0,0-3.208,1.5l-.22.261-.22-.249A4.4,4.4,0,0,0,24.671,19a3.229,3.229,0,0,0-3.1,2.055,3.17,3.17,0,0,0-.035,2.254l.138.387h-.916A1.761,1.761,0,0,0,19,25.454v2.935a1.761,1.761,0,0,0,1.007,1.588l.167.079V35.14a2.055,2.055,0,0,0,2.055,2.055h11.74a2.055,2.055,0,0,0,2.055-2.055V30.056l.167-.079A1.761,1.761,0,0,0,37.2,28.389V25.454A1.761,1.761,0,0,0,35.436,23.693Zm-8.218,11.74H21.935V30.15h5.283Zm0-7.044H20.761V25.454h6.457Zm0-4.7H24.577a1.468,1.468,0,1,1,0-2.935A2.642,2.642,0,0,1,27.218,23.4Zm1.761-.294a2.642,2.642,0,0,1,2.642-2.642,1.468,1.468,0,0,1,0,2.935H28.979Zm5.283,12.034H28.979V30.15h5.283Zm1.174-7.044H28.979V25.454h6.457Z" transform="translate(-4646.592 2130.806)" fill="#fff"/></g></svg>