<svg xmlns="http://www.w3.org/2000/svg" width="37.08" height="33.795" viewBox="0 0 37.08 33.795">
  <g id="referral-link-dollar-graphic" transform="translate(-559.79 -316.993)">
    <text id="_" data-name="$" transform="translate(559.79 331.993)" class="fill_secondary-color" font-size="15" font-family="NHaasGroteskTXPro-55Rg, Neue Haas Grotesk Text Pro"><tspan x="0" y="0">$</tspan></text>
    <path class="fill_secondary-color" id="Path_4775" data-name="Path 4775" d="M27.952,26.21l-.648-.648,1.852-1.852a6.342,6.342,0,1,1,8.969,8.969l-7.562,7.561A6.341,6.341,0,1,1,21.6,31.272l3.392-3.392.648.648L22.243,31.92a5.424,5.424,0,1,0,7.671,7.671l7.562-7.561A5.425,5.425,0,1,0,29.8,24.358Zm-13.1,18.957a6.323,6.323,0,0,0,4.485-1.854L21.1,41.548l-.648-.648-1.766,1.766a5.424,5.424,0,1,1-7.671-7.671l7.561-7.562A5.425,5.425,0,0,1,26.247,35.1L22.9,38.446l.648.648,3.342-3.342a6.342,6.342,0,1,0-8.968-8.968l-7.561,7.562a6.337,6.337,0,0,0,4.483,10.822Z" transform="translate(556.891 305.62)" fill="#fff"/>
  </g>
</svg>
