<svg xmlns="http://www.w3.org/2000/svg" width="31.824" height="30.258" viewBox="0 0 31.824 30.258"><g transform="translate(15944.375 4633.5)"><g transform="translate(-15956.264 -4649.646)"><g transform="translate(11.888 7.783)"><path d="M88.078,121c2.678,0,4.776,1.4,4.776,3.184s-2.1,3.184-4.776,3.184-4.776-1.4-4.776-3.184S85.4,121,88.078,121Zm0,4.777c1.823,0,3.185-.841,3.185-1.593s-1.362-1.593-3.185-1.593-3.185.841-3.185,1.593S86.256,125.779,88.078,125.779Z" transform="translate(-83.302 -98.302)" fill="#fff"/><path d="M149.678,94.6c2.678,0,4.776,1.4,4.776,3.184s-2.1,3.184-4.776,3.184-4.776-1.4-4.776-3.184S147,94.6,149.678,94.6Zm0,4.776c1.823,0,3.185-.841,3.185-1.593s-1.362-1.593-3.185-1.593-3.185.841-3.185,1.593S147.856,99.379,149.678,99.379Z" transform="translate(-133.757 -76.679)" fill="#fff"/><path d="M84.1,160.6a.8.8,0,0,1,.8.8c0,.752,1.362,1.593,3.185,1.593s3.185-.841,3.185-1.593a.8.8,0,1,1,1.591,0v4.776c0,1.785-2.1,3.184-4.776,3.184s-4.776-1.4-4.776-3.184V161.4A.8.8,0,0,1,84.1,160.6Zm3.98,3.98a6.321,6.321,0,0,1-3.185-.792v2.385c0,.752,1.362,1.593,3.185,1.593s3.185-.841,3.185-1.593V163.79A6.321,6.321,0,0,1,88.078,164.582Z" transform="translate(-83.302 -130.738)" fill="#fff"/><path d="M84.1,134.2a.8.8,0,0,1,.8.8c0,.752,1.362,1.593,3.185,1.593s3.185-.841,3.185-1.593a.8.8,0,0,1,1.591,0v4.776c0,1.785-2.1,3.184-4.776,3.184s-4.776-1.4-4.776-3.184V135A.8.8,0,0,1,84.1,134.2Zm3.98,3.98a6.321,6.321,0,0,1-3.185-.792v2.385c0,.752,1.362,1.593,3.185,1.593s3.185-.841,3.185-1.593V137.39A6.321,6.321,0,0,1,88.078,138.182Z" transform="translate(-83.302 -109.114)" fill="#fff"/><path d="M145.7,160.6a.8.8,0,0,1,.8.8c0,.752,1.362,1.593,3.185,1.593s3.185-.841,3.185-1.593a.8.8,0,1,1,1.591,0v4.776c0,1.785-2.1,3.184-4.776,3.184s-4.776-1.4-4.776-3.184V161.4A.8.8,0,0,1,145.7,160.6Zm3.98,3.98a6.321,6.321,0,0,1-3.185-.792v2.385c0,.752,1.362,1.593,3.185,1.593s3.185-.841,3.185-1.593V163.79A6.321,6.321,0,0,1,149.678,164.582Z" transform="translate(-133.757 -130.738)" fill="#fff"/><path d="M145.7,134.2a.8.8,0,0,1,.8.8c0,.752,1.362,1.593,3.185,1.593s3.185-.841,3.185-1.593a.8.8,0,0,1,1.591,0v4.776c0,1.785-2.1,3.184-4.776,3.184s-4.776-1.4-4.776-3.184V135A.8.8,0,0,1,145.7,134.2Zm3.98,3.98a6.321,6.321,0,0,1-3.185-.792v2.385c0,.752,1.362,1.593,3.185,1.593s3.185-.841,3.185-1.593V137.39A6.321,6.321,0,0,1,149.678,138.182Z" transform="translate(-133.757 -109.114)" fill="#fff"/><path d="M145.7,107.8a.8.8,0,0,1,.8.8c0,.752,1.362,1.593,3.185,1.593s3.185-.841,3.185-1.593a.8.8,0,1,1,1.591,0v4.776c0,1.785-2.1,3.184-4.776,3.184s-4.776-1.4-4.776-3.184V108.6A.8.8,0,0,1,145.7,107.8Zm3.98,3.98a6.321,6.321,0,0,1-3.185-.792v2.385c0,.752,1.362,1.593,3.185,1.593s3.185-.841,3.185-1.593V110.99A6.321,6.321,0,0,1,149.678,111.782Z" transform="translate(-133.757 -87.49)" fill="#fff"/><path d="M207.3,160.6a.8.8,0,0,1,.8.8c0,.752,1.354,1.593,3.167,1.593s3.185-.841,3.185-1.593a.8.8,0,1,1,1.591,0v4.776c0,1.785-2.1,3.184-4.776,3.184s-4.758-1.4-4.758-3.184V161.4A.8.8,0,0,1,207.3,160.6Zm3.962,7.165c1.823,0,3.185-.841,3.185-1.593V163.79a6.774,6.774,0,0,1-6.351,0v2.381C208.094,166.926,209.448,167.767,211.26,167.767Z" transform="translate(-184.212 -130.738)" fill="#fff"/><path d="M207.3,134.2a.8.8,0,0,1,.8.8c0,.752,1.354,1.593,3.167,1.593s3.185-.841,3.185-1.593a.8.8,0,0,1,1.591,0v4.776c0,1.785-2.1,3.184-4.776,3.184s-4.758-1.4-4.758-3.184V135A.8.8,0,0,1,207.3,134.2Zm3.962,7.165c1.823,0,3.185-.841,3.185-1.593V137.39a6.775,6.775,0,0,1-6.351,0v2.381C208.094,140.526,209.448,141.367,211.26,141.367Z" transform="translate(-184.212 -109.114)" fill="#fff"/><path d="M207.3,107.8a.8.8,0,0,1,.8.8c0,.752,1.354,1.593,3.167,1.593s3.185-.841,3.185-1.593a.8.8,0,1,1,1.591,0v4.776c0,1.785-2.1,3.184-4.776,3.184s-4.758-1.4-4.758-3.184V108.6A.8.8,0,0,1,207.3,107.8Zm3.962,7.165c1.823,0,3.185-.841,3.185-1.593V110.99a6.774,6.774,0,0,1-6.351,0v2.381C208.094,114.126,209.448,114.967,211.26,114.967Z" transform="translate(-184.212 -87.49)" fill="#fff"/><path d="M207.3,81.4a.8.8,0,0,1,.8.8c0,.752,1.354,1.593,3.167,1.593s3.185-.841,3.185-1.593a.8.8,0,1,1,1.591,0v4.776c0,1.785-2.1,3.184-4.776,3.184s-4.758-1.4-4.758-3.184V82.2A.8.8,0,0,1,207.3,81.4Zm3.962,7.165c1.823,0,3.185-.841,3.185-1.593V84.59a6.774,6.774,0,0,1-6.351,0v2.381C208.094,87.726,209.448,88.567,211.26,88.567Z" transform="translate(-184.212 -65.867)" fill="#fff"/><path d="M211.26,68.2c2.678,0,4.776,1.4,4.776,3.184s-2.1,3.184-4.776,3.184a6.309,6.309,0,0,1-3.213-.813,2.848,2.848,0,0,1-1.545-2.371C206.5,69.6,208.592,68.2,211.26,68.2Zm0,4.776c1.823,0,3.185-.841,3.185-1.593s-1.362-1.593-3.185-1.593h0c-1.812,0-3.167.841-3.167,1.593a1.337,1.337,0,0,0,.775,1.008A4.775,4.775,0,0,0,211.26,72.979Z" transform="translate(-184.212 -55.055)" fill="#fff"/></g></g><path d="M.5,9h-1V0h1Z" transform="translate(-15939.5 -4633.5)" fill="#fff"/><path d="M.5,9h-1V0h1Z" transform="translate(-15935 -4629) rotate(90)" fill="#fff"/></g></svg>