<svg xmlns="http://www.w3.org/2000/svg" width="60.419" height="47.621" viewBox="0 0 60.419 47.621"><g transform="translate(-508.399 -226.515)"><g transform="translate(2.317 -0.802)"><g transform="translate(507.832 229.066)"><path class="fill_main-color" d="M-6489.136-6726.124a1.744,1.744,0,0,1-1.237-.513l-25.883-25.881a1.749,1.749,0,0,1,0-2.475,1.749,1.749,0,0,1,2.475,0l25.883,25.881a1.749,1.749,0,0,1,0,2.475A1.743,1.743,0,0,1-6489.136-6726.124Z" transform="translate(6515.021 6753.755)" /><path class="fill_main-color" d="M-6515.019-6726.124a1.744,1.744,0,0,1-1.237-.513,1.749,1.749,0,0,1,0-2.475l25.881-25.881a1.749,1.749,0,0,1,2.475,0,1.749,1.749,0,0,1,0,2.475l-25.881,25.881A1.744,1.744,0,0,1-6515.019-6726.124Z" transform="translate(6515.019 6753.755)"/></g></g><g transform="translate(540.033 238.155)"><g transform="translate(0)"><path class="fill_main-color" d="M30.986,28.392a1.8,1.8,0,0,1-1.8-1.8V23a5.4,5.4,0,0,0-5.4-5.4H13A5.4,5.4,0,0,0,7.6,23v3.6a1.8,1.8,0,0,1-3.6,0V23a9,9,0,0,1,9-9H23.79a9,9,0,0,1,9,9v3.6A1.8,1.8,0,0,1,30.986,28.392Z" transform="translate(-4 7.588)"/><path class="fill_main-color" d="M16,19.99a9,9,0,1,1,9-9,9,9,0,0,1-9,9ZM16,5.6a5.4,5.4,0,1,0,5.4,5.4A5.4,5.4,0,0,0,16,5.6Z" transform="translate(-1.603 -2)"/></g></g></g></svg>