<?xml version="1.0" encoding="utf-8"?>
<!-- Generator: Adobe Illustrator 24.3.0, SVG Export Plug-In . SVG Version: 6.00 Build 0)  -->
<svg version="1.2" baseProfile="tiny" id="Layer_1" xmlns="http://www.w3.org/2000/svg" xmlns:xlink="http://www.w3.org/1999/xlink"
	 x="0px" y="0px" viewBox="0 0 150 150" overflow="visible" xml:space="preserve">
<g id="Group_3385" transform="translate(0 0)">
	<g id="Group_3399" transform="translate(0 0)">
		<path id="Path_4219" fill="#ffffff" d="M125.5,56.3c-11.6-27.6-43.5-40.6-71.1-29s-40.6,43.5-29,71.1s43.5,40.6,71.1,29
			c20.1-8.5,33.2-28.2,33.2-50.1C129.8,70.1,128.3,62.9,125.5,56.3z M75.6,27c27.8,0,50.3,22.5,50.3,50.3
			c0,27.8-22.5,50.3-50.3,50.3c-27.8,0-50.3-22.5-50.3-50.3C25.4,49.6,47.9,27.1,75.6,27L75.6,27z"/>
	</g>
	<g id="Group_3411" transform="translate(18.038 112.812)">
		<path id="Path_4234" fill="#ffffff" d="M49.9-56.9c12.7-3.8,26.1,3.4,29.8,16.1l2.5-4.1c0.6-0.9,1.8-1.2,2.8-0.6c0.9,0.6,1.2,1.8,0.6,2.7
			l-5.3,8.5l0,0c-0.6,0.9-1.8,1.2-2.8,0.7l-8.5-5.3L69-39c-0.9-0.6-1.2-1.8-0.6-2.8c0.6-0.9,1.8-1.2,2.8-0.6l4.8,3
			C73-50,62-56.2,51.4-53.2c-5.8,1.6-10.5,5.8-12.9,11.3c-0.2,0.6-0.5,1.1-0.7,1.7l0,0.1c-3.4,10.5,2.4,21.8,12.9,25.1
			C60.4-11.8,71-16.6,75.1-26c0.2-0.6,0.5-1.1,0.7-1.7c0.4-1,1.5-1.6,2.5-1.2c1,0.4,1.6,1.5,1.3,2.5c-0.2,0.7-0.5,1.4-0.8,2.1
			C73.5-12.3,59.4-6.7,47.2-12c-11.3-4.9-17.1-17.6-13.3-29.3l0-0.1c0.2-0.7,0.5-1.4,0.8-2.1C37.6-50,43.1-54.9,49.9-56.9z"/>
	</g>
</g>
</svg>
