<svg xmlns="http://www.w3.org/2000/svg" width="51.7" height="50.714" viewBox="0 0 51.7 50.714">
  <g id="Group_103" data-name="Group 103" transform="translate(-840.65 -860.643)">
    <path id="Path_12" data-name="Path 12" d="M134.827,65.185c.15.152.271.275.393.4.274.275.551.549.825.826a1.147,1.147,0,0,0,.9.36,1.254,1.254,0,0,0,.921-.4,6.57,6.57,0,0,0,.463-.5,1.27,1.27,0,0,0-.141-1.558q-6.723-6.7-13.428-13.415c-.257-.258-.515-.515-.78-.779.042-.047.078-.087.115-.127.172-.184.353-.362.516-.554a.973.973,0,0,0,.2-.763,1.2,1.2,0,0,0-.408-.764,1.128,1.128,0,0,0-.446-.252,2.609,2.609,0,0,0-.559-.11.814.814,0,0,0-.642.227c-.146.142-.288.288-.433.431-.038.038-.08.073-.11.1l-.522-.524a1.178,1.178,0,0,1,.079-.094c.139-.141.277-.282.419-.419a1.028,1.028,0,0,0,.309-.725,1.374,1.374,0,0,0-.994-1.315,1.07,1.07,0,0,0-1.072.272c-.138.141-.278.28-.418.419-.035.034-.072.064-.092.083l-2.052-2.052c.1,0,.211,0,.327,0a4.306,4.306,0,0,0,1.432-.227,5.632,5.632,0,0,0,3.315-2.9,5.68,5.68,0,0,0,.446-1.44,5.418,5.418,0,0,0-.375-3.053,5.51,5.51,0,0,0-1.2-1.74,5.4,5.4,0,0,0-2.007-1.252,4.531,4.531,0,0,0-1.33-.282c-.177-.006-.355-.033-.533-.031a5.467,5.467,0,0,0-2,.4,5.634,5.634,0,0,0-1.341.773c-.18.139-.342.3-.52.454a5.4,5.4,0,0,0-4.663-2.135,5.24,5.24,0,0,0-3.7,1.745,5.468,5.468,0,0,0,.694,8.059,6.108,6.108,0,0,0-.827,1.052,5.459,5.459,0,0,0-.8,2.545,5.128,5.128,0,0,0,.1,1.339,5.426,5.426,0,0,0,.41,1.279,5.173,5.173,0,0,0,.714,1.141,5.465,5.465,0,0,0,5.893,1.768,5.357,5.357,0,0,0,2.79-2.032,5.1,5.1,0,0,0,1.012-3.295c.129.079,1.838,1.771,2.066,2.043-.133.133-.261.275-.4.4a1.165,1.165,0,0,0-.057,1.576,1.356,1.356,0,0,0,.8.5,1.021,1.021,0,0,0,.986-.273c.14-.147.286-.288.417-.419l.537.538c-.086.086-.186.2-.3.3a1.212,1.212,0,0,0-.282,1.39,1.471,1.471,0,0,0,.49.638.934.934,0,0,0,.5.178,1.154,1.154,0,0,0,1-.361c.123-.128.252-.252.375-.375.145.086,6.418,6.334,6.826,6.794-.043.047-.087.1-.133.141-.737.738-1.464,1.486-2.216,2.209a1.184,1.184,0,0,0-.151,1.384.7.7,0,0,0,.119.14c.256.258.515.515.772.773a.745.745,0,0,0,.548.227,1.081,1.081,0,0,0,.627-.115,1.57,1.57,0,0,0,.233-.178q1.122-1.116,2.24-2.237c.047-.048.1-.093.141-.138.144.092,1.625,1.555,2.007,1.979-.043.046-.087.095-.132.141-.738.738-1.472,1.48-2.216,2.211a1.172,1.172,0,0,0-.368.783.751.751,0,0,0,.2.612c.2.2.4.4.6.6.087.087.171.177.264.257a.532.532,0,0,0,.34.124,1.174,1.174,0,0,0,.926-.373c.735-.749,1.482-1.486,2.223-2.229.043-.043.077-.1.134-.165ZM109.735,40.722a2.758,2.758,0,1,1,0-5.515,2.758,2.758,0,1,1,0,5.515Zm3.275,5.493a2.754,2.754,0,1,1-2.729-2.759,2.727,2.727,0,0,1,2.729,2.759Zm4.985-4.974a2.754,2.754,0,1,1,2.748-2.766A2.75,2.75,0,0,1,117.995,41.242Z" transform="translate(744.759 834.922)" fill="#fff" opacity="0.52"/>
    <g id="Group_102" data-name="Group 102" transform="translate(841 861)">
      <line id="Line_4" data-name="Line 4" y1="50" x2="51" fill="none" stroke="red" stroke-width="1"/>
      <line id="Line_5" data-name="Line 5" x1="51" y1="50" fill="none" stroke="red" stroke-width="1"/>
    </g>
  </g>
</svg>
