<?xml version="1.0" encoding="utf-8"?>
<!-- Generator: Adobe Illustrator 23.0.2, SVG Export Plug-In . SVG Version: 6.00 Build 0)  -->
<svg version="1.2" baseProfile="tiny" id="Layer_1" xmlns="http://www.w3.org/2000/svg" xmlns:xlink="http://www.w3.org/1999/xlink"
	 x="0px" y="0px" viewBox="0 0 113.5 113.5" xml:space="preserve">
<style type="text/css">
	.risk-order-warning{fill:#000000}
</style>
<path class="risk-order-warning" d="M26,14.9h36.6v6.6H26c-0.3,0-0.6,0.1-0.8,0.3c-0.2,0.2-0.3,0.5-0.3,0.8v72.7c0,0.3,0.1,0.6,0.3,0.8
	c0.2,0.2,0.5,0.3,0.8,0.3h57.4c0.3,0,0.6-0.1,0.8-0.3c0.2-0.2,0.3-0.5,0.3-0.8V44.6h6.6v50.6c0,2.1-0.9,4-2.3,5.4
	c-1.4,1.4-3.4,2.3-5.5,2.3H26c-2.1,0-4-0.9-5.5-2.2c-1.4-1.4-2.3-3.4-2.3-5.5V22.6c0-2.1,0.9-4,2.3-5.5C21.9,15.7,23.9,14.9,26,14.9
	z"/>
<path class="risk-order-warning" d="M36.7,38.3c-1.8,0-3.3-1.5-3.3-3.3c0-1.8,1.5-3.3,3.3-3.3h26.3c1.8,0,3.3,1.5,3.3,3.3c0,1.8-1.5,3.3-3.3,3.3
	H36.7z"/>
<path class="risk-order-warning" d="M36.7,54.2c-1.8,0-3.3-1.5-3.3-3.3c0-1.8,1.5-3.3,3.3-3.3h31.7c1.8,0,3.3,1.5,3.3,3.3c0,1.8-1.5,3.3-3.3,3.3
	H36.7z"/>
<path class="risk-order-warning" d="M36.7,70c-1.8,0-3.3-1.5-3.3-3.3c0-1.8,1.5-3.3,3.3-3.3h35c1.8,0,3.3,1.5,3.3,3.3c0,1.8-1.5,3.3-3.3,3.3
	H36.7z"/>
<path class="risk-order-warning" d="M36.7,85.8c-1.8,0-3.3-1.5-3.3-3.3s1.5-3.3,3.3-3.3h25.6c1.8,0,3.3,1.5,3.3,3.3s-1.5,3.3-3.3,3.3H36.7z"/>
<path class="risk-order-warning" d="M96.3,34.5c6.3-6.3,6.3-16.6,0-22.9s-16.6-6.3-22.9,0s-6.3,16.6,0,22.9S90,40.9,96.3,34.5z M83.1,15.3
	c0.4-0.9,1.4-1.4,2.3-1.1c0.9,0.2,1.5,1.1,1.5,2.1c0,0.6-0.1,1.3-0.1,1.9c-0.1,2.4-0.3,4.8-0.4,7.1c0,0.8-0.7,1.4-1.5,1.4
	c-0.8,0-1.4-0.6-1.5-1.5c0-0.5,0-1-0.1-1.4c-0.1-1.5-0.2-3.1-0.3-4.7c-0.1-1-0.1-2-0.2-3C82.9,15.9,82.9,15.6,83.1,15.3z M84.9,28.1
	c1.1,0,2,0.9,2,2c0,1.1-0.9,2-2,2c-1.1,0-2-0.9-2-1.9C82.9,29,83.8,28.1,84.9,28.1z"/>
</svg>
