<?xml version="1.0" encoding="utf-8"?>
<!-- Generator: Adobe Illustrator 24.3.0, SVG Export Plug-In . SVG Version: 6.00 Build 0)  -->
<svg version="1.2" baseProfile="tiny" id="Layer_1" xmlns="http://www.w3.org/2000/svg" xmlns:xlink="http://www.w3.org/1999/xlink"
	 x="0px" y="0px" viewBox="0 0 110 120" overflow="visible" xml:space="preserve">
<ellipse id="Ellipse_654" fill="#9C00DF" cx="55" cy="63.2" rx="38.5" ry="14.5"/>
<g id="Group_3475" transform="translate(0.25 0.25)">
	<path id="Path_4260" fill="#FFFFFF" stroke="#FFFFFF" stroke-width="0.5" d="M54.6,49c10.9,0,20.8,1.5,28,3.8
		c7.3,2.4,11.8,5.8,11.9,9.6c0.3,4.3-1.4,6.9-4.9,9.1c-0.2,0.1-0.4,0-0.5-0.1c-0.1-0.2,0-0.4,0.1-0.5c1.7-0.9,3.1-2.4,4-4.1
		c0.8-1.8,0.4-1-0.3-0.3c-0.9,1-2,1.9-3.2,2.6c-0.3,0.2-0.7,0.1-0.8-0.2s-0.1-0.7,0.2-0.8c1.2-0.7,2.3-1.7,3.2-2.8
		c0.6-0.8,1-1.8,1-2.8c0-3.3-4.2-6.4-11.1-8.6c-7.1-2.3-16.8-3.8-27.6-3.8S34.1,51.7,27,54c-6.9,2.3-11.1,5.3-11.1,8.6
		c0,1,0.4,2,1,2.8c0.9,1.1,2,2.1,3.2,2.8c0.3,0.2,0.4,0.5,0.2,0.8s-0.5,0.4-0.8,0.2c-1.1-0.7-2.1-1.5-3-2.4c-0.9-1.1-1-1.1-0.2,0.4
		c0.1,0.3,0.3,0.5,0.5,0.8c0.9,1.2,2,2.2,3.4,3c0.2,0.1,0.2,0.3,0.1,0.5c-0.1,0.1-0.3,0.2-0.5,0.1c-1.4-0.8-2.6-1.9-3.6-3.2
		c-1.1-1.7-1.6-3.8-1.4-5.9c0.1-3.8,4.6-7.2,11.9-9.6C33.8,50.5,43.7,49,54.6,49z M75.9,75.8c0.2,0,0.4,0.1,0.4,0.3
		c0,0.2-0.1,0.4-0.3,0.4c-4.3,0.9-8.6,1.5-12.9,1.8c-0.2,0-0.4-0.1-0.4-0.3c0-0.2,0.1-0.4,0.3-0.4l0,0
		C67.3,77.3,71.6,76.7,75.9,75.8z M33.3,76.5c-0.2,0-0.3-0.2-0.3-0.4c0-0.2,0.2-0.3,0.4-0.3c4.2,0.9,8.5,1.5,12.9,1.8
		c0.2,0,0.3,0.2,0.3,0.4c0,0.2-0.2,0.3-0.4,0.3C41.9,78,37.6,77.4,33.3,76.5z M32,79c0,0.3-0.3,0.6-0.6,0.6s-0.6-0.3-0.6-0.6l0,0
		c0-1.2-0.6-2.4-1.5-3.1c-2.1-1.8-5.2-1.8-7.3,0c-0.9,0.8-1.5,1.9-1.5,3.1c0,0.3-0.3,0.6-0.6,0.6s-0.6-0.3-0.6-0.6l0,0
		c0-1.6,0.7-3,1.9-4c2.6-2.2,6.3-2.2,8.9,0C31.3,76,32,77.5,32,79L32,79z M23.9,66.7c-1,1-1,2.6,0,3.6c1,1,2.6,1,3.6,0
		c1-1,1-2.6,0-3.6C26.5,65.7,24.9,65.7,23.9,66.7L23.9,66.7z M23.1,65.9c1.5-1.5,3.8-1.5,5.3,0c1.5,1.5,1.5,3.8,0,5.3
		s-3.8,1.5-5.3,0c0,0,0,0,0,0C21.6,69.7,21.6,67.3,23.1,65.9L23.1,65.9z M13.2,63.2c0,0.3-0.3,0.6-0.6,0.6S12,63.5,12,63.2
		c0-2.7-2.6-4.5-5.1-4.5s-5.1,1.8-5.1,4.5c0,0.3-0.3,0.6-0.6,0.6s-0.6-0.3-0.6-0.6c0-3.4,3.1-5.7,6.3-5.7S13.2,59.8,13.2,63.2
		L13.2,63.2z M5.1,50.9c-1,1-1,2.6,0,3.6s2.6,1,3.6,0s1-2.6,0-3.6h0C7.6,49.9,6,49.9,5.1,50.9L5.1,50.9z M4.2,50
		c1.5-1.5,3.8-1.5,5.3,0c1.5,1.5,1.5,3.8,0,5.3c-1.5,1.5-3.8,1.5-5.3,0C2.8,53.8,2.8,51.5,4.2,50L4.2,50z M33.6,48.5
		c0.2,0.3,0.1,0.7-0.2,0.8c-0.3,0.2-0.7,0.1-0.8-0.2c-0.5-0.7-1.1-1.3-1.9-1.7c-2-1.1-4.5-0.8-6.3,0.7c-0.9,0.8-1.5,1.9-1.5,3.1
		c0,0.3-0.3,0.6-0.6,0.6s-0.6-0.3-0.6-0.6l0,0c0-1.6,0.7-3,1.9-4c2.1-1.8,5.2-2.2,7.6-0.9C32.3,46.9,33.1,47.6,33.6,48.5L33.6,48.5z
		 M26.1,39.1c-1,1-1,2.6,0,3.6s2.6,1,3.6,0s1-2.6,0-3.6h0C28.7,38.1,27.1,38.1,26.1,39.1L26.1,39.1z M25.3,38.2
		c1.5-1.5,3.8-1.5,5.3,0c1.5,1.5,1.5,3.8,0,5.3c-1.5,1.5-3.8,1.5-5.3,0c0,0,0,0,0,0C23.8,42,23.8,39.7,25.3,38.2L25.3,38.2z
		 M31.5,73.8c-0.3-0.1-0.5-0.4-0.4-0.7c0.1-0.3,0.4-0.5,0.7-0.4c5.5,1.3,11.2,2,16.9,2.3c0.3,0,0.6,0.3,0.6,0.6
		c0,0.3-0.3,0.6-0.6,0.6C42.8,75.9,37.1,75.1,31.5,73.8L31.5,73.8z M78.5,79c0,0.3-0.3,0.6-0.6,0.6s-0.6-0.3-0.6-0.6l0,0
		c0-3.4,3.1-5.7,6.3-5.7s6.3,2.3,6.3,5.7c0,0.3-0.3,0.6-0.6,0.6s-0.6-0.3-0.6-0.6l0,0c0-2.7-2.6-4.5-5.1-4.5S78.5,76.3,78.5,79
		L78.5,79z M86.2,65.9c1.5,1.5,1.5,3.8,0,5.3c-1.5,1.5-3.8,1.5-5.3,0c-1.5-1.5-1.5-3.8,0-5.3C82.4,64.4,84.8,64.4,86.2,65.9
		L86.2,65.9z M85.4,66.7c-1-1-2.6-1-3.6,0c-1,1-1,2.6,0,3.6c1,1,2.6,1,3.6,0C86.4,69.3,86.4,67.7,85.4,66.7L85.4,66.7z M97.4,63.2
		c0,0.3-0.3,0.6-0.6,0.6s-0.6-0.3-0.6-0.6c0-1.6,0.7-3,1.9-4c2.6-2.2,6.3-2.2,8.9,0c1.2,1,1.9,2.5,1.9,4c0,0.3-0.3,0.6-0.6,0.6
		s-0.6-0.3-0.6-0.6c0-1.2-0.6-2.4-1.5-3.1c-2.1-1.8-5.2-1.8-7.3,0C97.9,60.8,97.4,62,97.4,63.2L97.4,63.2z M105.1,50
		c1.5,1.5,1.5,3.8,0,5.3c-1.5,1.5-3.8,1.5-5.3,0c-1.5-1.5-1.5-3.8,0-5.3C101.3,48.6,103.6,48.6,105.1,50L105.1,50z M104.2,50.9
		c-1-1-2.6-1-3.6,0c-1,1-1,2.6,0,3.6c1,1,2.6,1,3.6,0l0,0C105.2,53.4,105.2,51.8,104.2,50.9L104.2,50.9z M76.7,49.1
		c-0.2,0.3-0.5,0.4-0.8,0.2s-0.4-0.5-0.2-0.8c1.2-1.8,3.3-2.9,5.5-2.9c3.2,0,6.3,2.3,6.3,5.7c0,0.3-0.3,0.6-0.6,0.6
		s-0.6-0.3-0.6-0.6c0-2.7-2.6-4.5-5.1-4.5C79.4,46.7,77.7,47.6,76.7,49.1L76.7,49.1z M84,38.2c1.5,1.5,1.5,3.8,0,5.3
		c-1.5,1.5-3.8,1.5-5.3,0c-1.5-1.5-1.5-3.8,0-5.3C80.2,36.8,82.6,36.8,84,38.2L84,38.2z M83.2,39.1c-1-1-2.6-1-3.6,0
		c-1,1-1,2.6,0,3.6c1,1,2.6,1,3.6,0l0,0C84.2,41.6,84.2,40.1,83.2,39.1L83.2,39.1z M49.5,82c0,0.3-0.3,0.6-0.6,0.6s-0.6-0.3-0.6-0.6
		l0,0c0-1.6,0.7-3,1.9-4c2.6-2.2,6.3-2.2,8.9,0c1.2,1,1.9,2.5,1.9,4c0,0.3-0.3,0.6-0.6,0.6s-0.6-0.3-0.6-0.6l0,0
		c0-1.2-0.6-2.4-1.5-3.1c-2.1-1.8-5.2-1.8-7.3,0C50.1,79.7,49.6,80.8,49.5,82L49.5,82z M57.3,68.8c1.5,1.5,1.5,3.8,0,5.3
		c-1.5,1.5-3.8,1.5-5.3,0c-1.5-1.5-1.5-3.8,0-5.3C53.5,67.4,55.8,67.4,57.3,68.8L57.3,68.8z M56.4,69.7c-1-1-2.6-1-3.6,0
		c-1,1-1,2.6,0,3.6c1,1,2.6,1,3.6,0C57.4,72.3,57.4,70.7,56.4,69.7L56.4,69.7z M49.5,46.6c0,0.3-0.3,0.6-0.6,0.6s-0.6-0.3-0.6-0.6
		c0-3.4,3.1-5.7,6.3-5.7s6.3,2.3,6.3,5.7c0,0.3-0.3,0.6-0.6,0.6s-0.6-0.3-0.6-0.6c0-2.7-2.6-4.5-5.1-4.5S49.5,43.9,49.5,46.6
		L49.5,46.6z M57.3,33.4c1.5,1.5,1.5,3.8,0,5.3c-1.5,1.5-3.8,1.5-5.3,0c-1.5-1.5-1.5-3.8,0-5.3C53.5,32,55.8,32,57.3,33.4L57.3,33.4
		z M56.4,34.3c-1-1-2.6-1-3.6,0c-1,1-1,2.6,0,3.6c1,1,2.6,1,3.6,0l0,0C57.4,36.9,57.4,35.3,56.4,34.3L56.4,34.3z M77.5,72.7
		c0.3-0.1,0.6,0.1,0.7,0.4c0.1,0.3-0.1,0.6-0.4,0.7c-5.6,1.3-11.3,2.1-17,2.3c-0.3,0-0.6-0.2-0.6-0.6c0-0.3,0.2-0.6,0.6-0.6l0,0
		C66.3,74.7,72,73.9,77.5,72.7L77.5,72.7z"/>
</g>
</svg>
