<?xml version="1.0" encoding="utf-8"?>
<!-- Generator: Adobe Illustrator 26.4.1, SVG Export Plug-In . SVG Version: 6.00 Build 0)  -->
<svg version="1.1" id="Layer_1" xmlns="http://www.w3.org/2000/svg" xmlns:xlink="http://www.w3.org/1999/xlink" x="0px" y="0px" viewBox="0 0 480 480" style="enable-background:new 0 0 480 480;" xml:space="preserve">
    <g class="search-blockchain">
        <path d="M460.7,460.1l-55.6-64.9c18.8-21.9,26.6-51.2,21.1-79.5c-5.5-28.3-23.8-52.5-49.5-65.7c-25.7-13.2-56-13.8-82.2-1.7
		c-26.2,12.1-45.5,35.5-52.2,63.6c-6.7,28.1-0.2,57.7,17.7,80.3c17.9,22.6,45.2,35.8,74.1,35.7c21.2,0,41.8-7.2,58.4-20.5l55,64.1h0
		c1.4,2.1,3.6,3.5,6.1,3.8s5-0.4,6.9-2.1s3-4,3-6.5c0-2.5-1-4.9-2.9-6.6L460.7,460.1z M257.2,332.4c0.3-20.3,8.6-39.7,23.1-53.9
		s34.1-22.1,54.4-21.9c20.3,0.2,39.8,8.4,54,22.9c14.3,14.5,22.2,34,22.1,54.3c-0.1,20.3-8.2,39.8-22.6,54.1
		c-14.4,14.3-33.9,22.4-54.2,22.4c-20.5-0.2-40.1-8.5-54.5-23.1C265.1,372.7,257.1,352.9,257.2,332.4L257.2,332.4z" />
        <path d="M213.4,348.9L191.6,362V203.9l140-80.8v88.2c0,4.8,3.9,8.8,8.8,8.8s8.8-3.9,8.8-8.8v-107c0-3.1-1.7-6-4.4-7.6L187.2,5.9
		c-2.7-1.6-6-1.6-8.8,0L20.9,96.8c-2.7,1.6-4.4,4.5-4.4,7.6v182c0,3.1,1.7,6,4.4,7.6l157.5,90.7c2.7,1.6,6,1.6,8.8,0l35-20.8
		c3.6-2.6,4.7-7.6,2.4-11.5C222.4,348.6,217.5,347.1,213.4,348.9L213.4,348.9z M182.8,23.5l143.1,82.6l-143.1,82.6L39.7,106.1
		L182.8,23.5z M34.1,123.1l140,80.8V362l-140-80.9V123.1z" />
    </g>
</svg>