<?xml version="1.0" encoding="UTF-8" standalone="no"?>
<!DOCTYPE svg PUBLIC "-//W3C//DTD SVG 1.1//EN"
"http://www.w3.org/Graphics/SVG/1.1/DTD/svg11.dtd">


<!-- Page 2 -->
<svg x="0" y="0" width="275" height="275" viewBox="0 0 275 275" version="1.1" xmlns="http://www.w3.org/2000/svg" xmlns:xlink="http://www.w3.org/1999/xlink"
style="display: block;margin-left: auto;margin-right: auto;">
<defs>

<style type="text/css"><![CDATA[

.secure-1{
fill: #050604;
}


]]></style>

</defs>
<path d="M144,163.8c0,-2.8,-2.2,-5,-5,-5c-2.7,0,-5,2.2,-5,5l0,13.5c0,2.8,2.3,5,5,5c2.8,0,5,-2.2,5,-5Z" class="secure-1" />
<path d="M192.7,163.4c0,29.6,-24.1,53.7,-53.7,53.7C109.4,217.1,85.4,193,85.4,163.4c0,-29.6,24,-53.7,53.6,-53.7c29.6,0,53.7,24.1,53.7,53.7M106.8,87.8c0,-17.7,14.5,-32.2,32.2,-32.2c17.8,0,32.3,14.5,32.3,32.2l0,20.5L168.7,107c-18.6,-9.8,-40.8,-9.8,-59.3,0l-2.6,1.3ZM139,45.6c-23.3,0,-42.2,18.9,-42.2,42.2l0,27.9l-0.6,0.5c-26,23.7,-27.9,64,-4.3,90c23.6,26,64,27.9,90,4.3c26,-23.6,27.9,-64,4.3,-89.9c-1.4,-1.6,-2.8,-3,-4.3,-4.4l-0.6,-0.5l0,-27.9c0,-23.3,-19,-42.2,-42.3,-42.2Z" class="secure-1" />

</svg>
