<?xml version="1.0" encoding="UTF-8" standalone="no"?>
<!DOCTYPE svg PUBLIC "-//W3C//DTD SVG 1.1//EN"
"http://www.w3.org/Graphics/SVG/1.1/DTD/svg11.dtd">


<!-- Page 2 -->
<svg x="0" y="0" width="152" height="152" viewBox="0 0 152 152" version="1.1" xmlns="http://www.w3.org/2000/svg" xmlns:xlink="http://www.w3.org/1999/xlink"
style="display: block;margin-left: auto;margin-right: auto;">
<path d="M27.1,34.2c-1.5,5.7,-4.3,32.7,4.8,58.4c10.1,28.3,33.8,42.5,44.2,42.5l2.6,0c10.4,0,34.1,-14.2,44.1,-42.5c9.2,-25.7,6.3,-52.7,4.8,-58.4c-0.9,0,-2.5,0,-3.9,0.1c-4.1,0.2,-10.2,0.5,-17.7,-0.5C94.8,32.4,82.2,22.8,77.4,18.9C72.6,22.8,59.9,32.4,48.7,33.8c-7.4,1,-13.6,0.7,-17.6,0.5c-1.5,-0.1,-3,-0.1,-4,-0.1M78.7,141.6l-2.6,0C62.3,141.6,36.5,125,25.8,94.8C20.1,78.9,18.9,62.9,19,52.3c0,-5.4,0.3,-10.7,0.9,-15c1,-7,2.1,-7.8,2.9,-8.4c1.8,-1.4,4.3,-1.3,8.6,-1.1c4,0.2,9.6,0.5,16.5,-0.4C59.8,25.8,74.8,12.5,75,12.3l0.9,-0.8l2.9,0l1,0.8c0.1,0.2,15.2,13.5,27.1,15.1c6.8,0.9,12.4,0.6,16.5,0.4c4.2,-0.2,6.8,-0.3,8.6,1.1c0.7,0.6,1.9,1.4,2.8,8.4c0.6,4.3,1,9.6,1,15c0,10.6,-1.2,26.6,-6.8,42.5C118.3,125,92.4,141.6,78.7,141.6Z" class="security-grey-1" />
<path d="M69.3,93.9L46.9,75.5C45.5,74.3,45.3,72.3,46.4,70.9c1.2,-1.4,3.2,-1.6,4.6,-0.5L69.2,85.3L107.5,51.9c1.4,-1.2,3.4,-1.1,4.6,0.3c1.2,1.3,1.1,3.4,-0.3,4.6Z" class="security-grey-1" />

</svg>
