<svg xmlns="http://www.w3.org/2000/svg" width="94.968" height="73.6" viewBox="0 0 94.968 73.6">
  <path id="Path_6" data-name="Path 6" d="M84.871,59.682a7.125,7.125,0,0,0-12.037,0L58.909,81.667A7.122,7.122,0,0,0,64.927,92.6H92.777A7.122,7.122,0,0,0,98.8,81.667Zm9.984,26.935a2.3,2.3,0,0,1-2.077,1.235H64.927a2.3,2.3,0,0,1-2.077-1.235,2.341,2.341,0,0,1,.071-2.422L76.846,62.211a2.375,2.375,0,0,1,4.012,0L94.783,84.2A2.314,2.314,0,0,1,94.854,86.617ZM80.039,68.858v9.5a1.187,1.187,0,0,1-2.374,0v-9.5a1.187,1.187,0,0,1,2.374,0Zm0,14.245a1.187,1.187,0,1,1-1.187-1.187A1.191,1.191,0,0,1,80.039,83.1ZM93.1,51.052H45.613a1.187,1.187,0,0,1,0-2.374H93.1a1.187,1.187,0,0,1,0,2.374Zm-64.1,2.374V46.3a1.187,1.187,0,0,1,2.374,0v7.123a1.187,1.187,0,0,1-2.374,0Zm-4.748,0V46.3a1.187,1.187,0,0,1,2.374,0v7.123a1.187,1.187,0,0,1-2.374,0Zm-4.748,0V51.052a1.187,1.187,0,1,1,2.374,0v2.374a1.187,1.187,0,0,1-2.374,0Zm0-7.123a1.187,1.187,0,1,1,1.187,1.187A1.191,1.191,0,0,1,19.5,46.3ZM62.233,70.045H45.613a1.187,1.187,0,0,1,0-2.374H62.233a1.187,1.187,0,0,1,0,2.374ZM28.994,72.42V65.3a1.187,1.187,0,0,1,2.374,0V72.42a1.187,1.187,0,0,1-2.374,0Zm-4.748,0V65.3a1.187,1.187,0,0,1,2.374,0V72.42a1.187,1.187,0,0,1-2.374,0Zm-4.748,0V70.045a1.187,1.187,0,0,1,2.374,0V72.42a1.187,1.187,0,0,1-2.374,0Zm0-7.123a1.187,1.187,0,1,1,1.187,1.187A1.191,1.191,0,0,1,19.5,65.3Zm83.1-46.3H12.374A2.381,2.381,0,0,0,10,21.374V78.355a2.381,2.381,0,0,0,2.374,2.374H55.11a2.374,2.374,0,0,0,0-4.748H38.49V61.736H66.981a2.374,2.374,0,1,0,0-4.748H38.49V42.742H100.22V56.987h-9.5a2.374,2.374,0,0,0,0,4.748h9.5V78.355a2.374,2.374,0,0,0,4.748,0V21.374A2.381,2.381,0,0,0,102.594,19ZM36.116,75.981H14.748V61.736H36.116Zm0-18.994H14.748V42.742H36.116Zm0-18.994H14.748V23.748H36.116Zm64.1,0H38.49V23.748H100.22ZM44.426,30.871a1.191,1.191,0,0,1,1.187-1.187H93.1a1.187,1.187,0,0,1,0,2.374H45.613A1.191,1.191,0,0,1,44.426,30.871ZM28.994,34.432V27.31a1.187,1.187,0,1,1,2.374,0v7.123a1.187,1.187,0,0,1-2.374,0Zm-4.748,0V27.31a1.187,1.187,0,1,1,2.374,0v7.123a1.187,1.187,0,0,1-2.374,0Zm-4.748,0V32.058a1.187,1.187,0,1,1,2.374,0v2.374a1.187,1.187,0,0,1-2.374,0Zm0-7.123A1.187,1.187,0,1,1,20.684,28.5,1.191,1.191,0,0,1,19.5,27.31Z" transform="translate(-10 -19)" fill="#fff" opacity="0.55"/>
</svg>
