<svg xmlns="http://www.w3.org/2000/svg" width="115.753" height="103.51" viewBox="0 0 115.753 103.51">
  <g id="Group_5" data-name="Group 5" transform="translate(-907 -302)">
    <g id="Group_4" data-name="Group 4" transform="translate(925.609 318.108)">
      <g id="noun-maintenance-server-4330410" transform="translate(0 0)">
        <g id="Group_3" data-name="Group 3" transform="translate(0 0)" opacity="0.55">
          <path id="Path_7" data-name="Path 7" d="M11.447,54.278a1.431,1.431,0,1,1-1.431,1.431A1.431,1.431,0,0,1,11.447,54.278ZM5.724,55.709a1.431,1.431,0,1,0,1.431-1.431A1.431,1.431,0,0,0,5.724,55.709Zm8.586,0a1.431,1.431,0,1,0,1.431-1.431A1.431,1.431,0,0,0,14.309,55.709Zm15.74-1.431a1.431,1.431,0,0,0,0,2.862h5.867a1.431,1.431,0,0,0,0-2.862Zm8.886-5.724A1.431,1.431,0,0,1,37.5,49.985H4.293a1.431,1.431,0,0,0-1.431,1.431V60a1.431,1.431,0,0,0,1.431,1.431h31.8a1.431,1.431,0,0,1,0,2.862H4.293A4.293,4.293,0,0,1,0,60V51.416a4.293,4.293,0,0,1,4.293-4.293H7.155V42.83H4.293A4.293,4.293,0,0,1,0,38.537V29.952a4.293,4.293,0,0,1,4.293-4.293H7.155V21.366H4.293A4.293,4.293,0,0,1,0,17.074V8.488A4.293,4.293,0,0,1,4.293,4.2h60.1a4.293,4.293,0,0,1,4.293,4.293v8.586a4.293,4.293,0,0,1-4.293,4.293H61.53v4.293h2.862a4.28,4.28,0,0,1,3.739,2.192,1.431,1.431,0,1,1-2.5,1.4,1.421,1.421,0,0,0-1.24-.726H4.293a1.431,1.431,0,0,0-1.431,1.431v8.586a1.431,1.431,0,0,0,1.431,1.431H41.182a1.431,1.431,0,0,1,0,2.862H10.017v4.293H37.5A1.431,1.431,0,0,1,38.936,48.554ZM4.293,18.5h60.1a1.431,1.431,0,0,0,1.431-1.431V8.488a1.431,1.431,0,0,0-1.431-1.431H4.293A1.431,1.431,0,0,0,2.862,8.488v8.586A1.431,1.431,0,0,0,4.293,18.5Zm5.724,7.155H58.668V21.366H10.017Zm0,8.586a1.431,1.431,0,1,0,1.431-1.431A1.431,1.431,0,0,0,10.017,34.245Zm-4.293,0a1.431,1.431,0,1,0,1.431-1.431A1.431,1.431,0,0,0,5.724,34.245Zm8.586,0a1.431,1.431,0,1,0,1.431-1.431A1.431,1.431,0,0,0,14.309,34.245Zm15.74-1.431a1.431,1.431,0,1,0,0,2.862H48.208a1.431,1.431,0,0,0,0-2.862Zm-18.6-18.6a1.431,1.431,0,1,0-1.431-1.431A1.431,1.431,0,0,0,11.447,14.212ZM7.155,11.35a1.431,1.431,0,1,0,1.431,1.431A1.431,1.431,0,0,0,7.155,11.35Zm8.586,2.862a1.431,1.431,0,1,0-1.431-1.431A1.431,1.431,0,0,0,15.74,14.212Zm14.309,0H61.53a1.431,1.431,0,1,0,0-2.862H30.05a1.431,1.431,0,0,0,0,2.862ZM91.58,58.571A25.757,25.757,0,1,1,65.823,32.814,25.757,25.757,0,0,1,91.58,58.571Zm-2.862,0A22.895,22.895,0,1,0,65.823,81.465,22.895,22.895,0,0,0,88.718,58.571Zm-8.892,5.614a5.932,5.932,0,1,1-8.39,8.39l-5.517-5.516A12.362,12.362,0,0,1,50.881,50.825a1.431,1.431,0,0,1,2.35-.505l7.043,7.043a3.07,3.07,0,0,0,4.341-4.341l-7.043-7.043a1.431,1.431,0,0,1,.505-2.35A12.362,12.362,0,0,1,74.31,58.666ZM77.8,66.207,71.66,60.064a1.431,1.431,0,0,1-.326-1.518,9.5,9.5,0,0,0-9.946-12.8L66.634,51a5.931,5.931,0,0,1-8.388,8.388L53,54.135a9.5,9.5,0,0,0,12.8,9.942,1.448,1.448,0,0,1,.507-.093,1.431,1.431,0,0,1,1.011.419l6.143,6.143A3.071,3.071,0,0,0,77.8,66.2Z" transform="translate(0 -4.195)" fill="#d9d9d9"/>
        </g>
      </g>
    </g>
    <path id="Path_8" data-name="Path 8" d="M0,0H115.753V103.51H0Z" transform="translate(907 302)" fill="none"/>
  </g>
</svg>