<svg xmlns="http://www.w3.org/2000/svg" width="20" height="20" viewBox="0 0 18.228 18.228">
  <g id="Group_1064" data-name="Group 1064" transform="translate(-9561.771 -8818.488)">
    <path class="fill_main-color" id="Path_463" data-name="Path 463" d="M57.038,53a2.055,2.055,0,0,0-1.468.587l-2.055,2.055a2.055,2.055,0,0,0,0,2.935l2.055,2.055a2.055,2.055,0,0,0,2.935,0l2.055-2.055a2.055,2.055,0,0,0,0-2.935l-2.055-2.055A2.055,2.055,0,0,0,57.038,53ZM59.3,57.317l-2.055,2.055a.293.293,0,0,1-.414,0l-2.055-2.055a.294.294,0,0,1,0-.414l2.055-2.055a.293.293,0,0,1,.414,0L59.3,56.9A.294.294,0,0,1,59.3,57.317Z" transform="translate(9518.823 8775.469)" fill="#fff"/>
    <path class="fill_main-color" id="Path_464" data-name="Path 464" d="M21.642,32.5h4.109a.881.881,0,0,0,0-1.761H21.642a.881.881,0,0,1-.881-.881V21.642a.881.881,0,0,1,.881-.881H32.5a.881.881,0,0,1,.881.881v3.816a.881.881,0,1,0,1.761,0V21.642A2.642,2.642,0,0,0,32.5,19H21.642A2.642,2.642,0,0,0,19,21.642V29.86A2.642,2.642,0,0,0,21.642,32.5Z" transform="translate(9542.771 8799.488)" fill="#fff"/>
    <path class="fill_main-color" id="Path_465" data-name="Path 465" d="M19.881,76.761h6.164a.881.881,0,0,0,0-1.761H19.881a.881.881,0,0,0,0,1.761Z" transform="translate(9542.771 8759.923)" fill="#fff"/>
  </g>
</svg>
