<?xml version="1.0" encoding="utf-8"?>
<!-- Generator: Adobe Illustrator 24.3.0, SVG Export Plug-In . SVG Version: 6.00 Build 0)  -->
<svg version="1.2" baseProfile="tiny" id="Layer_1" xmlns="http://www.w3.org/2000/svg" xmlns:xlink="http://www.w3.org/1999/xlink"
	 x="0px" y="0px" viewBox="0 0 145 145" overflow="visible" xml:space="preserve">
<g>
	<path fill="#C4C4C4" d="M52.9,26.2C53,26.3,53,26.3,52.9,26.2L52.9,26.2z"/>
	<path fill="#C4C4C4" d="M36,42.9C36.1,43.1,36.3,43.3,36,42.9L36,42.9z"/>
	<path fill="#C4C4C4" d="M38.1,26.1C37.9,26.3,37.7,26.4,38.1,26.1L38.1,26.1z"/>
	<path fill="#C4C4C4" d="M54.8,43C54.7,43.2,54.7,43.1,54.8,43L54.8,43z"/>
	<path fill="#C4C4C4" d="M52.8,45C53,44.9,53.1,44.7,52.8,45L52.8,45z"/>
	<path fill="#C4C4C4" d="M38,44.9C37.8,44.8,37.9,44.8,38,44.9L38,44.9z"/>
	<path fill="#C4C4C4" d="M54.9,28.2C54.7,28,54.6,27.9,54.9,28.2L54.9,28.2z"/>
	<path fill="#C4C4C4" d="M36.1,28.1C36.2,28,36.2,28,36.1,28.1L36.1,28.1z"/>
	<path fill="#C4C4C4" d="M37.6,52.1c3.6,1.7,7.7,2.2,11.7,1.4c7.3-1.6,12.9-7.4,14.2-14.8c0.1-0.9,0.2-1.7,0.3-2.6
		c0-0.1,0-0.1,0-0.2c0-0.1,0-0.2,0-0.4c0,0,0,0,0,0c0,0,0,0,0,0c0,0,0,0,0,0c0-3.7-1.1-7.4-3.3-10.4c-2.2-3.1-5.3-5.5-8.9-6.8
		c-7.2-2.5-15.1-0.4-20.1,5.4c-2.5,3-4,6.7-4.3,10.6C26.6,41.8,30.8,48.9,37.6,52.1z M33.6,34c0.1-0.7,0.3-1.4,0.5-2
		c0.1-0.4,0.2-0.7,0.4-1.1c0,0,0,0,0,0c0.1-0.2,0.2-0.4,0.3-0.5c0.3-0.7,0.7-1.3,1.2-1.9c0.1-0.1,0.1-0.2,0.2-0.3
		c-0.1,0.1-0.1,0.2-0.3,0.3c0.1-0.1,0.3-0.3,0.4-0.5c0.3-0.3,0.5-0.6,0.8-0.9c0.3-0.3,0.6-0.5,0.9-0.8c0.1-0.1,0.3-0.3,0.5-0.4
		c-0.1,0.1-0.2,0.1-0.2,0.2c0.1-0.1,0.1-0.1,0.2-0.1c0.6-0.4,1.3-0.8,1.9-1.2c0.2-0.1,0.4-0.2,0.5-0.3c0,0,0,0,0,0
		c0.4-0.1,0.7-0.3,1.1-0.4c0.7-0.2,1.4-0.4,2.1-0.5c1-0.1,2.1-0.1,3.1,0c0.7,0.1,1.4,0.3,2,0.5c0.4,0.1,0.7,0.2,1.1,0.4c0,0,0,0,0,0
		c0.2,0.1,0.4,0.2,0.5,0.3c0.7,0.3,1.3,0.7,1.9,1.2c0.1,0.1,0.2,0.1,0.3,0.2c-0.1-0.1-0.2-0.1-0.3-0.3c0.1,0.1,0.3,0.3,0.5,0.4
		c0.3,0.3,0.6,0.5,0.9,0.8s0.5,0.6,0.8,0.9c0.1,0.1,0.3,0.3,0.4,0.5c-0.1-0.1-0.1-0.2-0.2-0.2c0.1,0.1,0.1,0.1,0.1,0.2
		c0.4,0.6,0.8,1.3,1.2,1.9c0.1,0.2,0.2,0.4,0.3,0.5c0,0,0,0,0,0c0.1,0.4,0.3,0.7,0.4,1.1c0.2,0.6,0.3,1.3,0.4,1.9
		c0.1,0.6,0.1,1.1,0.1,1.7c0,0.5,0,1.1-0.1,1.6c-0.1,0.7-0.3,1.4-0.5,2c-0.1,0.4-0.2,0.7-0.4,1.1c0,0,0,0,0,0
		c-0.1,0.2-0.2,0.4-0.3,0.5c-0.3,0.7-0.7,1.3-1.2,1.9c-0.1,0.1-0.1,0.2-0.2,0.3c0.1-0.1,0.1-0.2,0.3-0.3c-0.1,0.1-0.3,0.3-0.4,0.5
		c-0.3,0.3-0.5,0.6-0.8,0.9c-0.3,0.3-0.6,0.5-0.9,0.8c-0.1,0.1-0.3,0.3-0.5,0.4c0.1-0.1,0.2-0.1,0.2-0.2c-0.1,0.1-0.1,0.1-0.2,0.1
		c-0.6,0.4-1.3,0.8-1.9,1.2c-0.2,0.1-0.4,0.2-0.5,0.3c0,0,0,0,0,0c-0.4,0.1-0.7,0.3-1.1,0.4c-0.7,0.2-1.4,0.4-2.1,0.5
		c-1,0.1-2.1,0.1-3.1,0c-0.7-0.1-1.4-0.3-2-0.5c-0.4-0.1-0.7-0.2-1.1-0.4c0,0,0,0,0,0c-0.2-0.1-0.4-0.2-0.5-0.3
		c-0.7-0.3-1.3-0.7-1.9-1.2c-0.1-0.1-0.2-0.1-0.3-0.2c0.1,0.1,0.2,0.1,0.3,0.3c-0.1-0.1-0.3-0.3-0.5-0.4c-0.3-0.3-0.6-0.5-0.9-0.8
		s-0.5-0.6-0.8-0.9c-0.1-0.1-0.3-0.3-0.4-0.5c0.1,0.1,0.1,0.2,0.2,0.2c-0.1-0.1-0.1-0.1-0.1-0.2c-0.4-0.6-0.8-1.3-1.2-1.9
		c-0.1-0.2-0.2-0.4-0.3-0.5c0,0,0,0,0,0c-0.1-0.4-0.3-0.7-0.4-1.1c-0.2-0.7-0.4-1.4-0.5-2.1C33.5,36.1,33.5,35,33.6,34z"/>
	<path fill="#C4C4C4" d="M109.4,79.1c-1.6-0.5-3.3-0.7-5-0.5H89.1l-6.3-6.7c-3.3-3.5-6.6-7.1-10-10.6c-0.3-0.3-0.6-0.7-1-1
		c-2-2-4.7-3.1-7.5-3.1h-9.8c-1.1,0-2.2,0.6-2.8,1.6c-1.7,3-3.4,6-5,8.9c-1.4-2.4-2.7-4.9-4.1-7.3c-0.3-0.5-0.6-1.1-0.9-1.7
		c-0.6-1-1.6-1.6-2.8-1.6h-5.3c-2.1-0.1-4.1,0-6.2,0.2c-3.3,0.2-6.5,1.3-9.2,3.2c-2.7,2-4.7,4.8-5.7,7.9c-1.2,3.4-1.1,7.1-1.1,10.7
		v31.5c0,0.8,0,1.6,0,2.4c0.4,5.8,5.3,10.1,11.1,9.8c1.3-0.1,2.6-0.4,3.7-1c0.2,1.4,0.8,2.8,1.8,3.9c1.3,1.1,3,1.8,4.7,1.9
		c1.7,0.1,3.4,0.2,5.1,0.1h19.3c2.8,0,6.2,0.1,8.3-2c2.1-2.1,2-5.5,2-8.3c0-3,0-6,0-8.9c0-5.4,0-10.8,0-16.1c0-1.7,0-3.4,0-5.1
		c0.6,0.5,1.2,1,1.8,1.5c3,2.4,5.9,4.8,8.9,7.2c0.7,0.6,1.4,1.2,2.2,1.7c1.7,1,3.7,1.6,5.6,1.6c1.2,0,2.4,0,3.5,0h13.4c1,0,2,0,3,0
		c4.5-0.1,8.4-3,9.9-7.2c0.3-1,0.5-2.1,0.5-3.1c0-0.1,0-0.2,0-0.3C116.2,84.3,113.5,80.5,109.4,79.1z M107.5,85.2
		c-0.1,0-0.1,0-0.1,0C107.4,85.2,107.4,85.2,107.5,85.2L107.5,85.2z M32.4,121C32.4,121,32.4,121,32.4,121
		C32.5,121.1,32.5,121.1,32.4,121c0.1,0.1,0.1,0.1,0.1,0.1c0,0,0,0,0,0c0,0,0,0,0,0C32.5,121.1,32.5,121.1,32.4,121
		C32.4,121,32.4,121,32.4,121C32.2,120.9,32.1,120.7,32.4,121C32.4,121,32.4,121,32.4,121z M32.8,121.3
		C32.7,121.3,32.7,121.3,32.8,121.3C32.7,121.3,32.7,121.3,32.8,121.3C32.7,121.3,32.7,121.3,32.8,121.3z M32.6,121.2
		C32.6,121.2,32.7,121.2,32.6,121.2C32.7,121.2,32.6,121.2,32.6,121.2C32.6,121.2,32.6,121.2,32.6,121.2z M32.7,121.3
		C32.7,121.3,32.7,121.3,32.7,121.3C33.1,121.7,32.8,121.6,32.7,121.3z M60.9,121.3C60.8,121.3,60.8,121.3,60.9,121.3
		C60.8,121.3,60.8,121.3,60.9,121.3C60.9,121.3,60.9,121.3,60.9,121.3C60.9,121.3,60.9,121.2,60.9,121.3
		C60.9,121.2,60.9,121.2,60.9,121.3C60.9,121.2,60.9,121.2,60.9,121.3C60.9,121.2,60.9,121.3,60.9,121.3
		C60.9,121.3,60.8,121.3,60.9,121.3C60.7,121.6,60.5,121.7,60.9,121.3z M61,121.1C61,121.1,61,121.1,61,121.1
		C61.1,121.1,61,121.1,61,121.1C61,121.1,61,121.1,61,121.1z M61.2,121C61.1,121,61.1,121,61.2,121C61.5,120.7,61.4,120.9,61.2,121z
		 M61.1,121.1C61.1,121.1,61.1,121.1,61.1,121.1C61.1,121,61.1,121,61.1,121.1C61.1,121,61.1,121,61.1,121.1z M84.2,92.4
		C84.2,92.4,84.2,92.4,84.2,92.4C84.2,92.4,84.2,92.4,84.2,92.4z M108.5,92c-0.3,0.2-0.5,0.3-0.8,0.5l-0.1,0c-0.1,0-0.2,0.1-0.3,0.1
		c-0.3,0.1-0.5,0.1-0.8,0.2c-0.7,0-1.5,0.1-2.2,0H88.4c-1,0-1.9,0-2.9,0c-0.2,0-0.5-0.1-0.7-0.1c-0.2,0-0.3-0.1-0.5-0.2
		c-0.1,0-0.2-0.1-0.2-0.1c-0.1-0.1-0.3-0.1-0.4-0.2c0,0-0.1,0-0.2-0.1c0,0,0,0-0.1-0.1c0,0-0.1-0.1-0.1-0.1c0,0,0.1,0,0.1,0
		c-0.1-0.1-0.2-0.2-0.3-0.3c-0.2-0.2-0.5-0.4-0.7-0.5c-1.2-1-2.4-2-3.6-2.9c-3.3-2.6-6.5-5.3-9.8-7.9c-0.8-0.7-1.6-1.3-2.4-1.9
		c-0.9-0.9-2.3-1.1-3.5-0.7c-1.2,0.5-2,1.6-2,2.9c0,1.3,0,2.7,0,4.1c0,3.2,0,6.4,0,9.6c0,3.8,0,7.5,0,11.3c0,3,0,6,0,9
		c0,1.7,0,3.5,0,5.2c0,0.3,0,0.7-0.1,1c0,0.2-0.1,0.3-0.1,0.5c-0.1,0-0.3,0.1-0.4,0.1c-1.4,0.1-2.8,0.2-4.3,0.1H37.8
		c-1.6,0.1-3.2,0-4.7-0.1c-0.1,0-0.3-0.1-0.4-0.1c0-0.1-0.1-0.3-0.1-0.4c-0.2-2.3-0.2-4.6-0.1-6.9c0-2.2,0-4.3,0-6.5
		c0-3.6,0-7.2,0-10.9c0-1.8,0-3.6,0-5.4v-7.6c0,0,0-0.1,0-0.1v-2.7h0v0c-0.1-1.8-1.6-3.1-3.4-3c-1.6,0.1-2.9,1.4-3,3v28.1
		c0.1,1.4,0,2.8,0,4.2c-0.1,0.3-0.1,0.6-0.2,0.9c0,0,0,0.1,0,0.1c0,0.1-0.1,0.2-0.1,0.2c-0.1,0.2-0.2,0.4-0.3,0.6
		c0,0.1-0.1,0.1-0.1,0.1c-0.1,0.1-0.2,0.3-0.4,0.4c-0.1,0.1-0.2,0.2-0.3,0.3c-0.3,0.2-0.6,0.4-0.9,0.5c-0.1,0.1-0.3,0.1-0.4,0.1
		c-0.2,0.1-0.5,0.1-0.7,0.1c-0.4,0-0.7,0-1.1,0c-0.2,0-0.5-0.1-0.7-0.1c-0.1,0-0.3-0.1-0.4-0.1c-0.3-0.2-0.6-0.3-0.9-0.5
		c-0.1-0.1-0.2-0.2-0.4-0.3c-0.1-0.1-0.2-0.2-0.3-0.4c-0.2-0.3-0.3-0.5-0.5-0.8c0,0,0,0,0,0c0-0.1-0.1-0.2-0.1-0.4
		c-0.1-0.3-0.1-0.5-0.2-0.8c-0.1-1.4-0.1-2.8,0-4.2V79.5c-0.1-2.1,0-4.2,0.2-6.3c0.2-1.1,0.4-2.2,0.8-3.2c0-0.1,0-0.1,0.1-0.2
		c0.1-0.3,0.2-0.5,0.4-0.7c0.3-0.5,0.6-1,0.9-1.5c0,0,0,0,0,0c0.2-0.2,0.4-0.4,0.6-0.6c0.3-0.3,0.6-0.6,1-0.9
		c0.1-0.1,0.3-0.2,0.3-0.3c0.3-0.2,0.5-0.3,0.8-0.5c0.3-0.1,0.5-0.3,0.7-0.4c0.1,0,0.2-0.1,0.2-0.1c1.1-0.4,2.3-0.7,3.5-0.9
		c1.6-0.2,3.1-0.2,4.7-0.2h5.1c2,3.5,4,7,5.9,10.5c0.3,0.6,0.7,1.2,1,1.7c0.9,1.5,2.9,2,4.4,1.1c0.4-0.3,0.8-0.6,1.1-1.1
		c2.3-4.1,4.6-8.1,6.9-12.2c0,0,0,0,0-0.1h7.9c0.3,0,0.5,0,0.8,0c0.2,0.1,0.5,0.1,0.7,0.2c0,0,0.1,0,0.1,0c0.2,0.1,0.4,0.2,0.5,0.3
		c0.1,0.1,0.4,0.3,0.5,0.4c0,0,0.1,0.1,0.1,0.1c0.1,0.1,0.1,0.1,0.2,0.2c0.2,0.2,0.4,0.4,0.5,0.6c1,1,1.9,2.1,2.9,3.1
		c3,3.2,6,6.4,9,9.6c1.3,1.4,2.5,2.7,3.8,4.1c0.6,0.6,1.2,1.3,1.8,1.9c1.2,1.2,2.8,1,4.3,1h6c3.4,0,6.8,0,10.2,0c0.2,0,0.4,0,0.6,0
		c0.2,0,0.5,0.1,0.7,0.1c0.1,0,0.2,0.1,0.4,0.1l0.1,0c0.3,0.1,0.5,0.3,0.8,0.5c0.1,0.1,0.2,0.2,0.4,0.3c0.1,0.1,0.2,0.2,0.3,0.3
		c0.2,0.3,0.3,0.5,0.5,0.8l0,0.1c0,0.1,0.1,0.2,0.1,0.3c0.1,0.3,0.1,0.6,0.2,0.8c0,0.1,0,0.3,0,0.4c0,0,0,0,0,0v0c0,0.2,0,0.3,0,0.5
		c0,0.2-0.1,0.5-0.2,0.7c0,0.1-0.1,0.2-0.1,0.4l0,0.1c-0.1,0.3-0.3,0.5-0.5,0.8c-0.1,0.1-0.2,0.2-0.3,0.4
		C108.8,91.8,108.7,91.9,108.5,92z M109.8,90.3c0-0.1,0-0.1,0-0.1C109.9,90.2,109.8,90.2,109.8,90.3L109.8,90.3z"/>
	<path fill="#C4C4C4" d="M83.4,91.9C83.4,92,83.5,92,83.4,91.9c0.1,0.1,0.1,0.1,0.1,0.1c0.1,0,0.1,0.1,0.2,0.1
		C83.7,92.1,83.6,92.1,83.4,91.9z"/>
	<path fill="#C4C4C4" d="M32.5,121.1C32.5,121,32.5,121,32.5,121.1C32.5,121,32.5,121,32.5,121.1C32.5,121.1,32.5,121.1,32.5,121.1z
		"/>
	<path fill="#C4C4C4" d="M60.9,121.3C60.9,121.3,60.9,121.3,60.9,121.3C60.9,121.3,60.9,121.3,60.9,121.3
		C60.9,121.3,60.9,121.3,60.9,121.3z"/>
	<path fill="#C4C4C4" d="M125.5,42.4h-29c-2.8,0-5.1,2.3-5.1,5.1v16.4c0,2.8,2.3,5.1,5.1,5.1h29c2.8,0,5.1-2.3,5.1-5.1V47.5
		C130.6,44.7,128.3,42.4,125.5,42.4z M111,59.1c-0.5,0-1-0.2-1.5-0.5l-13.9-9.6v-1.6c0-0.5,0.4-0.8,0.9-0.8h29
		c0.2,0,0.4,0.1,0.6,0.2c0.2,0.2,0.2,0.4,0.2,0.6v1.4l-13.7,9.6C112.1,58.8,111.5,59,111,59.1z M95.6,54.2l11.3,7.8
		c1.1,0.9,2.6,1.4,4.1,1.4c0,0,0,0,0,0c1.4-0.1,2.8-0.6,3.9-1.4l11.3-7.9v10.1c-0.1,0.3-0.4,0.5-0.8,0.5h-29c-0.4,0-0.8-0.4-0.8-0.9
		V54.2z"/>
</g>
</svg>
