<?xml version="1.0" encoding="utf-8"?>
<!-- Generator: Adobe Illustrator 24.3.0, SVG Export Plug-In . SVG Version: 6.00 Build 0)  -->
<svg version="1.2" baseProfile="tiny" id="Layer_1" xmlns="http://www.w3.org/2000/svg" xmlns:xlink="http://www.w3.org/1999/xlink"
	 x="0px" y="0px" viewBox="0 0 145 145" overflow="visible" xml:space="preserve">
<g>
	<path fill="#C4C4C4" d="M38,44.9C37.8,44.8,37.9,44.8,38,44.9L38,44.9z"/>
	<path fill="#C4C4C4" d="M54.8,28.2C54.7,28,54.6,27.9,54.8,28.2L54.8,28.2z"/>
	<path fill="#C4C4C4" d="M52.8,26.2C53,26.3,53,26.3,52.8,26.2L52.8,26.2z"/>
	<path fill="#C4C4C4" d="M54.8,43C54.6,43.2,54.7,43.1,54.8,43L54.8,43z"/>
	<path fill="#C4C4C4" d="M36,42.9C36.1,43.1,36.2,43.3,36,42.9L36,42.9z"/>
	<path fill="#C4C4C4" d="M52.8,45C52.9,44.9,53.1,44.7,52.8,45L52.8,45z"/>
	<path fill="#C4C4C4" d="M37.6,52.1c3.6,1.7,7.7,2.2,11.7,1.4c7.3-1.6,12.9-7.4,14.2-14.8c0.1-0.9,0.2-1.7,0.3-2.6
		c0-0.1,0-0.1,0-0.2c0-0.1,0-0.2,0-0.4c0,0,0,0,0,0c0,0,0,0,0,0c0,0,0,0,0,0c0-3.7-1.1-7.4-3.3-10.4c-2.2-3.1-5.3-5.5-8.9-6.8
		c-7.2-2.5-15.1-0.4-20.1,5.4c-2.5,3-4,6.7-4.3,10.6C26.6,41.8,30.8,48.9,37.6,52.1z M33.5,34c0.1-0.7,0.3-1.4,0.5-2
		c0.1-0.4,0.2-0.7,0.4-1.1c0,0,0,0,0,0c0.1-0.2,0.2-0.4,0.3-0.5c0.3-0.7,0.7-1.3,1.2-1.9c0.1-0.1,0.1-0.2,0.2-0.3
		c-0.1,0.1-0.1,0.2-0.3,0.3c0.1-0.1,0.3-0.3,0.4-0.5c0.3-0.3,0.5-0.6,0.8-0.9c0.3-0.3,0.6-0.5,0.9-0.8c0.1-0.1,0.3-0.3,0.5-0.4
		c-0.1,0.1-0.2,0.1-0.2,0.2c0.1-0.1,0.1-0.1,0.2-0.1c0.6-0.4,1.3-0.8,1.9-1.2c0.2-0.1,0.4-0.2,0.5-0.3c0,0,0,0,0,0
		c0.3-0.1,0.7-0.3,1.1-0.4c0.7-0.2,1.4-0.4,2.1-0.5c1-0.1,2.1-0.1,3.1,0c0.7,0.1,1.4,0.3,2,0.5c0.4,0.1,0.7,0.2,1.1,0.4c0,0,0,0,0,0
		c0.2,0.1,0.4,0.2,0.5,0.3c0.7,0.3,1.3,0.7,1.9,1.2c0.1,0.1,0.2,0.1,0.3,0.2c-0.1-0.1-0.2-0.1-0.3-0.3c0.1,0.1,0.3,0.3,0.5,0.4
		c0.3,0.3,0.6,0.5,0.9,0.8c0.3,0.3,0.5,0.6,0.8,0.9c0.1,0.1,0.3,0.3,0.4,0.5c-0.1-0.1-0.1-0.2-0.2-0.2c0.1,0.1,0.1,0.1,0.1,0.2
		c0.4,0.6,0.8,1.3,1.2,1.9c0.1,0.2,0.2,0.4,0.3,0.5c0,0,0,0,0,0c0.1,0.4,0.3,0.7,0.4,1.1c0.2,0.6,0.3,1.3,0.4,1.9
		c0.1,0.6,0.1,1.1,0.1,1.7c0,0.5,0,1.1-0.1,1.6c-0.1,0.7-0.3,1.4-0.5,2c-0.1,0.4-0.2,0.7-0.4,1.1c0,0,0,0,0,0
		c-0.1,0.2-0.2,0.4-0.3,0.5c-0.3,0.7-0.7,1.3-1.2,1.9c-0.1,0.1-0.1,0.2-0.2,0.3c0.1-0.1,0.1-0.2,0.3-0.3c-0.1,0.1-0.3,0.3-0.4,0.5
		c-0.3,0.3-0.5,0.6-0.8,0.9c-0.3,0.3-0.6,0.5-0.9,0.8c-0.1,0.1-0.3,0.3-0.5,0.4c0.1-0.1,0.2-0.1,0.2-0.2c-0.1,0.1-0.1,0.1-0.2,0.1
		c-0.6,0.4-1.3,0.8-1.9,1.2c-0.2,0.1-0.4,0.2-0.5,0.3c0,0,0,0,0,0c-0.4,0.1-0.7,0.3-1.1,0.4c-0.7,0.2-1.4,0.4-2.1,0.5
		c-1,0.1-2.1,0.1-3.1,0c-0.7-0.1-1.4-0.3-2-0.5c-0.4-0.1-0.7-0.2-1.1-0.4c0,0,0,0,0,0c-0.2-0.1-0.4-0.2-0.5-0.3
		c-0.7-0.3-1.3-0.7-1.9-1.2c-0.1-0.1-0.2-0.1-0.3-0.2c0.1,0.1,0.2,0.1,0.3,0.3c-0.1-0.1-0.3-0.3-0.5-0.4c-0.3-0.3-0.6-0.5-0.9-0.8
		c-0.3-0.3-0.5-0.6-0.8-0.9c-0.1-0.1-0.3-0.3-0.4-0.5c0.1,0.1,0.1,0.2,0.2,0.2c-0.1-0.1-0.1-0.1-0.1-0.2c-0.4-0.6-0.8-1.3-1.2-1.9
		c-0.1-0.2-0.2-0.4-0.3-0.5c0,0,0,0,0,0c-0.1-0.4-0.3-0.7-0.4-1.1c-0.2-0.7-0.4-1.4-0.5-2.1C33.4,36.1,33.4,35,33.5,34z"/>
	<path fill="#C4C4C4" d="M38.1,26.1C37.9,26.3,37.7,26.4,38.1,26.1L38.1,26.1z"/>
	<path fill="#C4C4C4" d="M36,28.1C36.2,28,36.1,28,36,28.1L36,28.1z"/>
	<path fill="#C4C4C4" d="M116.4,88.6c-0.2-4.3-2.9-8.1-7.1-9.6c-1.6-0.5-3.3-0.7-5-0.5H89.1l-6.3-6.7c-3.3-3.5-6.6-7.1-10-10.6
		c-0.3-0.3-0.6-0.7-1-1c-2-2-4.7-3.1-7.5-3.1h-9.8c-1.1,0-2.2,0.6-2.8,1.6c-1.7,3-3.4,6-5,8.9c-1.4-2.4-2.7-4.9-4.1-7.3
		c-0.3-0.5-0.6-1.1-0.9-1.7c-0.6-1-1.6-1.6-2.8-1.6h-5.3c-2.1-0.1-4.1,0-6.2,0.2c-3.3,0.2-6.5,1.3-9.2,3.2c-2.7,2-4.7,4.8-5.7,7.9
		c-1.2,3.4-1.1,7.1-1.1,10.7v31.5c0,0.8,0,1.6,0,2.4c0.4,5.8,5.3,10.1,11.1,9.8c1.3-0.1,2.6-0.4,3.7-1c0.2,1.4,0.8,2.8,1.8,3.9
		c1.3,1.1,3,1.8,4.7,1.9c1.7,0.1,3.4,0.2,5.1,0.1h19.3c2.8,0,6.2,0.1,8.3-2c2.1-2.1,2-5.5,2-8.3c0-3,0-6,0-8.9c0-5.4,0-10.8,0-16.1
		c0-1.7,0-3.4,0-5.1c0.6,0.5,1.2,1,1.8,1.5c3,2.4,5.9,4.8,8.9,7.2c0.7,0.6,1.4,1.2,2.2,1.7c1.7,1,3.7,1.6,5.6,1.6c1.2,0,2.4,0,3.5,0
		h13.4c1,0,2,0,3,0c4.5-0.1,8.4-3,9.9-7.2c0.3-1,0.5-2.1,0.5-3.1C116.4,88.8,116.4,88.7,116.4,88.6z M107.5,85.2c-0.1,0-0.1,0-0.1,0
		C107.4,85.2,107.4,85.2,107.5,85.2L107.5,85.2z M32.4,121C32.4,121,32.4,121,32.4,121C32.4,121.1,32.4,121.1,32.4,121
		c0.1,0.1,0.1,0.1,0.1,0.1c0,0,0,0,0,0c0,0,0,0,0,0C32.5,121.1,32.5,121.1,32.4,121C32.4,121,32.4,121,32.4,121
		C32.1,120.9,32,120.7,32.4,121C32.4,121,32.4,121,32.4,121z M32.7,121.3C32.7,121.3,32.7,121.3,32.7,121.3
		C32.7,121.3,32.7,121.3,32.7,121.3C32.7,121.3,32.7,121.3,32.7,121.3z M32.6,121.2C32.6,121.2,32.6,121.2,32.6,121.2
		C32.6,121.2,32.6,121.2,32.6,121.2C32.6,121.2,32.6,121.2,32.6,121.2z M32.7,121.3C32.7,121.3,32.7,121.3,32.7,121.3
		C33,121.7,32.8,121.6,32.7,121.3z M60.8,121.3C60.8,121.3,60.8,121.3,60.8,121.3C60.8,121.3,60.8,121.3,60.8,121.3
		C60.8,121.3,60.8,121.3,60.8,121.3C60.8,121.3,60.9,121.2,60.8,121.3C60.9,121.2,60.9,121.2,60.8,121.3
		C60.9,121.2,60.9,121.2,60.8,121.3C60.9,121.2,60.9,121.3,60.8,121.3C60.8,121.3,60.8,121.3,60.8,121.3
		C60.7,121.6,60.5,121.7,60.8,121.3z M61,121.1C61,121.1,61,121.1,61,121.1C61,121.1,61,121.1,61,121.1C61,121.1,61,121.1,61,121.1z
		 M61.1,121C61.1,121,61.1,121,61.1,121C61.5,120.7,61.4,120.9,61.1,121z M61.1,121.1C61.1,121.1,61,121.1,61.1,121.1
		C61.1,121,61.1,121,61.1,121.1C61.1,121,61.1,121,61.1,121.1z M84.1,92.4C84.1,92.4,84.2,92.4,84.1,92.4
		C84.2,92.4,84.2,92.4,84.1,92.4z M108.5,92c-0.3,0.2-0.5,0.3-0.8,0.5l-0.1,0c-0.1,0-0.2,0.1-0.3,0.1c-0.3,0.1-0.5,0.1-0.8,0.2
		c-0.7,0-1.5,0.1-2.2,0H88.4c-1,0-1.9,0-2.9,0c-0.2,0-0.5-0.1-0.7-0.1c-0.2,0-0.3-0.1-0.5-0.2c-0.1,0-0.2-0.1-0.2-0.1
		c-0.1-0.1-0.3-0.1-0.4-0.2c0,0-0.1,0-0.2-0.1c0,0,0,0-0.1-0.1c0,0-0.1-0.1-0.1-0.1c0,0,0.1,0,0.1,0c-0.1-0.1-0.2-0.2-0.3-0.3
		c-0.2-0.2-0.5-0.4-0.7-0.5c-1.2-1-2.4-2-3.6-2.9c-3.3-2.6-6.5-5.3-9.8-7.9c-0.8-0.7-1.6-1.3-2.4-1.9c-0.9-0.9-2.3-1.1-3.5-0.7
		c-1.2,0.5-2,1.6-2,2.9c0,1.3,0,2.7,0,4.1c0,3.2,0,6.4,0,9.6c0,3.8,0,7.5,0,11.3c0,3,0,6,0,9c0,1.7,0,3.5,0,5.2c0,0.3,0,0.7-0.1,1
		c0,0.2-0.1,0.3-0.1,0.5c-0.1,0-0.3,0.1-0.4,0.1c-1.4,0.1-2.8,0.2-4.3,0.1H37.8c-1.6,0.1-3.2,0-4.7-0.1c-0.1,0-0.3-0.1-0.4-0.1
		c0-0.1-0.1-0.3-0.1-0.4c-0.2-2.3-0.2-4.6-0.1-6.9c0-2.2,0-4.3,0-6.5c0-3.6,0-7.2,0-10.9c0-1.8,0-3.6,0-5.4v-7.6c0,0,0-0.1,0-0.1
		v-2.7h0v0c-0.1-1.8-1.6-3.1-3.4-3c-1.6,0.1-2.9,1.4-3,3v28.1c0.1,1.4,0,2.8,0,4.2c-0.1,0.3-0.1,0.6-0.2,0.9c0,0,0,0.1,0,0.1
		c0,0.1-0.1,0.2-0.1,0.2c-0.1,0.2-0.2,0.4-0.3,0.6c0,0.1-0.1,0.1-0.1,0.1c-0.1,0.1-0.2,0.3-0.4,0.4c-0.1,0.1-0.2,0.2-0.3,0.3
		c-0.3,0.2-0.6,0.4-0.9,0.5c-0.1,0.1-0.3,0.1-0.4,0.1c-0.2,0.1-0.5,0.1-0.7,0.1c-0.4,0-0.7,0-1.1,0c-0.2,0-0.5-0.1-0.7-0.1
		c-0.1,0-0.3-0.1-0.4-0.1c-0.3-0.2-0.6-0.3-0.9-0.5c-0.1-0.1-0.2-0.2-0.4-0.3c-0.1-0.1-0.2-0.2-0.3-0.4c-0.2-0.3-0.3-0.5-0.5-0.8
		c0,0,0,0,0,0c0-0.1-0.1-0.2-0.1-0.4c-0.1-0.3-0.1-0.5-0.2-0.8c-0.1-1.4-0.1-2.8,0-4.2V79.5c-0.1-2.1,0-4.2,0.2-6.3
		c0.2-1.1,0.4-2.2,0.8-3.2c0-0.1,0-0.1,0.1-0.2c0.1-0.3,0.2-0.5,0.4-0.7c0.3-0.5,0.6-1,0.9-1.5c0,0,0,0,0,0c0.2-0.2,0.4-0.4,0.6-0.6
		c0.3-0.3,0.6-0.6,1-0.9c0.1-0.1,0.3-0.2,0.3-0.3c0.3-0.2,0.5-0.3,0.8-0.5c0.3-0.1,0.5-0.3,0.7-0.4c0.1,0,0.2-0.1,0.2-0.1
		c1.1-0.4,2.3-0.7,3.5-0.9c1.6-0.2,3.1-0.2,4.7-0.2h5.1c2,3.5,4,7,5.9,10.5c0.3,0.6,0.7,1.2,1,1.7c0.9,1.5,2.9,2,4.4,1.1
		c0.4-0.3,0.8-0.6,1.1-1.1c2.3-4.1,4.6-8.1,6.9-12.2c0,0,0,0,0-0.1h7.9c0.3,0,0.5,0,0.8,0c0.2,0.1,0.5,0.1,0.7,0.2c0,0,0.1,0,0.1,0
		c0.2,0.1,0.4,0.2,0.5,0.3c0.1,0.1,0.4,0.3,0.5,0.4c0,0,0.1,0.1,0.1,0.1c0.1,0.1,0.1,0.1,0.2,0.2c0.2,0.2,0.4,0.4,0.5,0.6
		c1,1,1.9,2.1,2.9,3.1c3,3.2,6,6.4,9,9.6c1.3,1.4,2.5,2.7,3.8,4.1c0.6,0.6,1.2,1.3,1.8,1.9c1.2,1.2,2.8,1,4.3,1h6
		c3.4,0,6.8,0,10.2,0c0.2,0,0.4,0,0.6,0c0.2,0,0.5,0.1,0.7,0.1c0.1,0,0.2,0.1,0.4,0.1l0.1,0c0.3,0.1,0.5,0.3,0.8,0.5
		c0.1,0.1,0.2,0.2,0.4,0.3c0.1,0.1,0.2,0.2,0.3,0.3c0.2,0.3,0.3,0.5,0.5,0.8l0,0.1c0,0.1,0.1,0.2,0.1,0.3c0.1,0.3,0.1,0.6,0.2,0.8
		c0,0.1,0,0.3,0,0.4c0,0,0,0,0,0v0c0,0.2,0,0.3,0,0.5c0,0.2-0.1,0.5-0.2,0.7c0,0.1-0.1,0.2-0.1,0.4l0,0.1c-0.1,0.3-0.3,0.5-0.5,0.8
		c-0.1,0.1-0.2,0.2-0.3,0.4C108.7,91.8,108.6,91.9,108.5,92z M109.8,90.3c0-0.1,0-0.1,0-0.1C109.8,90.2,109.8,90.2,109.8,90.3
		L109.8,90.3z"/>
	<path fill="#C4C4C4" d="M83.4,91.9C83.4,92,83.4,92,83.4,91.9c0.1,0.1,0.1,0.1,0.1,0.1c0.1,0,0.1,0.1,0.2,0.1
		C83.7,92.1,83.6,92.1,83.4,91.9z"/>
	<path fill="#C4C4C4" d="M32.4,121.1C32.4,121,32.4,121,32.4,121.1C32.4,121,32.4,121,32.4,121.1C32.4,121.1,32.4,121.1,32.4,121.1z
		"/>
	<path fill="#C4C4C4" d="M60.8,121.3C60.8,121.3,60.8,121.3,60.8,121.3C60.8,121.3,60.8,121.3,60.8,121.3
		C60.8,121.3,60.8,121.3,60.8,121.3z"/>
	<polygon fill="#C4C4C4" points="104.2,48.8 104.2,45.7 98,45.7 98,67.9 101.1,70 104.2,67.9 104.2,64.4 101.1,64.4 101.1,61.3 
		104.2,61.3 104.2,58.2 101.1,58.2 101.1,55 104.2,55 104.2,51.9 101.1,51.9 101.1,48.8 	"/>
	<path fill="#C4C4C4" d="M109.1,42.4L109.1,42.4l2.3-13.2l-10.3-2.4l-10.3,2.4L93,42.4H109.1z M100.9,29C100.9,29,101,29,100.9,29
		c1.3,0,2.4,1,2.3,2.3c0,1.3-1,2.3-2.3,2.3c-1.3,0-2.3-1-2.3-2.3C98.6,30,99.7,29,100.9,29z"/>
</g>
</svg>
