<?xml version="1.0" encoding="utf-8"?>
<!-- Generator: Adobe Illustrator 24.3.0, SVG Export Plug-In . SVG Version: 6.00 Build 0)  -->
<svg version="1.2" baseProfile="tiny" id="Layer_1" xmlns="http://www.w3.org/2000/svg" xmlns:xlink="http://www.w3.org/1999/xlink"
	 x="0px" y="0px" viewBox="0 0 205 205" overflow="visible" xml:space="preserve">
<path fill="#C4C4C4" d="M64.4,74.2c5,2.3,10.6,3,16.1,1.9c10.1-2.2,17.8-10.2,19.6-20.4c0.1-1.2,0.3-2.3,0.4-3.6c0-0.1,0-0.1,0-0.3
	c0-0.1,0-0.3,0-0.6l0,0l0,0l0,0c0-5.1-1.5-10.2-4.5-14.3c-3-4.3-7.3-7.6-12.3-9.4c-9.9-3.4-20.8-0.6-27.7,7.4
	c-3.4,4.1-5.5,9.2-5.9,14.6C49.2,60,55,69.8,64.4,74.2z M58.7,49.3c0.1-1,0.4-1.9,0.7-2.8c0.1-0.6,0.3-1,0.6-1.5l0,0
	c0.1-0.3,0.3-0.6,0.4-0.7c0.4-1,1-1.8,1.7-2.6c0.1-0.1,0.1-0.3,0.3-0.4c-0.1,0.1-0.1,0.3-0.4,0.4c0.1-0.1,0.4-0.4,0.6-0.7
	c0.4-0.4,0.7-0.8,1.1-1.2c0.4-0.4,0.8-0.7,1.2-1.1c0.1-0.1,0.4-0.4,0.7-0.6c-0.1,0.1-0.3,0.1-0.3,0.3c0.1-0.1,0.1-0.1,0.3-0.1
	c0.8-0.6,1.8-1.1,2.6-1.7c0.3-0.1,0.6-0.3,0.7-0.4l0,0c0.4-0.1,1-0.4,1.5-0.6c1-0.3,1.9-0.6,2.9-0.7c1.4-0.1,2.9-0.1,4.3,0
	c1,0.1,1.9,0.4,2.8,0.7c0.6,0.1,1,0.3,1.5,0.6l0,0c0.3,0.1,0.6,0.3,0.7,0.4c1,0.4,1.8,1,2.6,1.7c0.1,0.1,0.3,0.1,0.4,0.3
	c-0.1-0.1-0.3-0.1-0.4-0.4c0.1,0.1,0.4,0.4,0.7,0.6c0.4,0.4,0.8,0.7,1.2,1.1c0.4,0.4,0.7,0.8,1.1,1.2c0.1,0.1,0.4,0.4,0.6,0.7
	c-0.1-0.1-0.1-0.3-0.3-0.3c0.1,0.1,0.1,0.1,0.1,0.3c0.6,0.8,1.1,1.8,1.7,2.6c0.1,0.3,0.3,0.6,0.4,0.7l0,0c0.1,0.6,0.4,1,0.6,1.5
	c0.3,0.8,0.4,1.8,0.6,2.6c0.1,0.8,0.1,1.5,0.1,2.3c0,0.7,0,1.5-0.1,2.2c-0.1,1-0.4,1.9-0.7,2.8c-0.1,0.6-0.3,1-0.6,1.5l0,0
	c-0.1,0.3-0.3,0.6-0.4,0.7c-0.4,1-1,1.8-1.7,2.6c-0.1,0.1-0.1,0.3-0.3,0.4c0.1-0.1,0.1-0.3,0.4-0.4c-0.1,0.1-0.4,0.4-0.6,0.7
	c-0.4,0.4-0.7,0.8-1.1,1.2c-0.4,0.4-0.8,0.7-1.2,1.1c-0.1,0.1-0.4,0.4-0.7,0.6c0.1-0.1,0.3-0.1,0.3-0.3c-0.1,0.1-0.1,0.1-0.3,0.1
	c-0.8,0.6-1.8,1.1-2.6,1.7c-0.3,0.1-0.6,0.3-0.7,0.4l0,0c-0.6,0.1-1,0.4-1.5,0.6c-1,0.3-1.9,0.6-2.9,0.7c-1.4,0.1-2.9,0.1-4.3,0
	c-1-0.1-1.9-0.4-2.8-0.7c-0.6-0.1-1-0.3-1.5-0.6l0,0c-0.3-0.1-0.6-0.3-0.7-0.4c-1-0.4-1.8-1-2.6-1.7c-0.1-0.1-0.3-0.1-0.4-0.3
	c0.1,0.1,0.3,0.1,0.4,0.4c-0.1-0.1-0.4-0.4-0.7-0.6c-0.4-0.4-0.8-0.7-1.2-1.1s-0.7-0.8-1.1-1.2c-0.1-0.1-0.4-0.4-0.6-0.7
	c0.1,0.1,0.1,0.3,0.3,0.3c-0.1-0.1-0.1-0.1-0.1-0.3c-0.6-0.8-1.1-1.8-1.7-2.6c-0.1-0.3-0.3-0.6-0.4-0.7l0,0c-0.1-0.6-0.4-1-0.6-1.5
	c-0.3-1-0.6-1.9-0.7-2.9C58.6,52.2,58.6,50.7,58.7,49.3z"/>
<path fill="#C4C4C4" d="M65.1,38.4C64.8,38.7,64.5,38.8,65.1,38.4L65.1,38.4z"/>
<path fill="#C4C4C4" d="M88.1,41.3C87.9,41,87.8,40.9,88.1,41.3L88.1,41.3z"/>
<path fill="#C4C4C4" d="M62.2,41.1C62.4,41,62.3,41,62.2,41.1L62.2,41.1z"/>
<path fill="#C4C4C4" d="M62.2,61.5C62.3,61.8,62.4,62.1,62.2,61.5L62.2,61.5z"/>
<path fill="#C4C4C4" d="M88.1,61.7C87.8,61.9,87.9,61.8,88.1,61.7L88.1,61.7z"/>
<path fill="#C4C4C4" d="M85.3,38.5C85.6,38.7,85.6,38.7,85.3,38.5L85.3,38.5z"/>
<path fill="#C4C4C4" d="M64.9,64.3C64.6,64.2,64.8,64.2,64.9,64.3L64.9,64.3z"/>
<path fill="#C4C4C4" d="M85.3,64.4C85.4,64.3,85.7,64,85.3,64.4L85.3,64.4z"/>
<path fill="#C4C4C4" d="M163.1,111.4c-2.2-0.7-4.5-1-6.9-0.7h-20.9l-8.7-9.2c-4.5-4.8-9.1-9.8-13.8-14.6c-0.4-0.4-0.8-1-1.4-1.4
	c-2.8-2.8-6.5-4.3-10.3-4.3H87.7c-1.5,0-3,0.8-3.9,2.2c-2.3,4.1-4.7,8.3-6.9,12.3c-1.9-3.3-3.7-6.7-5.6-10.1
	c-0.4-0.7-0.8-1.5-1.2-2.3c-0.8-1.4-2.2-2.2-3.9-2.2h-7.3c-2.9-0.1-5.6,0-8.5,0.3c-4.5,0.3-9,1.8-12.7,4.4
	c-3.7,2.8-6.5,6.6-7.9,10.9c-1.7,4.7-1.5,9.8-1.5,14.7v43.4c0,1.1,0,2.2,0,3.3c0.6,8,7.3,13.9,15.3,13.5c1.8-0.1,3.6-0.6,5.1-1.4
	c0.3,1.9,1.1,3.9,2.5,5.4c1.8,1.5,4.1,2.5,6.5,2.6s4.7,0.3,7,0.1h26.6c3.9,0,8.5,0.1,11.4-2.8c2.9-2.9,2.8-7.6,2.8-11.4
	c0-4.1,0-8.3,0-12.3c0-7.4,0-14.9,0-22.2c0-2.3,0-4.7,0-7c0.8,0.7,1.7,1.4,2.5,2.1c4.1,3.3,8.1,6.6,12.3,9.9c1,0.8,1.9,1.7,3,2.3
	c2.3,1.4,5.1,2.2,7.7,2.2c1.7,0,3.3,0,4.8,0h18.5c1.4,0,2.8,0,4.1,0c6.2-0.1,11.6-4.1,13.6-9.9c0.4-1.4,0.7-2.9,0.7-4.3
	c0-0.1,0-0.3,0-0.4C172.6,118.6,168.8,113.3,163.1,111.4z M160.7,119.8c-0.1,0-0.1,0-0.1,0S160.5,119.8,160.7,119.8L160.7,119.8z
	 M57.2,169.1L57.2,169.1C57.2,169.3,57.2,169.3,57.2,169.1c0.1,0.1,0.1,0.1,0.1,0.1l0,0l0,0C57.3,169.3,57.3,169.3,57.2,169.1
	L57.2,169.1C56.8,169,56.7,168.7,57.2,169.1L57.2,169.1z M57.6,169.5L57.6,169.5L57.6,169.5L57.6,169.5z M57.5,169.4L57.5,169.4
	L57.5,169.4L57.5,169.4z M57.6,169.5L57.6,169.5C58,170.1,57.8,169.9,57.6,169.5z M96.3,169.5L96.3,169.5L96.3,169.5L96.3,169.5
	C96.3,169.5,96.5,169.4,96.3,169.5C96.5,169.4,96.5,169.4,96.3,169.5C96.5,169.4,96.5,169.4,96.3,169.5
	C96.5,169.4,96.5,169.5,96.3,169.5L96.3,169.5C96.2,169.9,95.9,170.1,96.3,169.5z M96.6,169.3L96.6,169.3L96.6,169.3L96.6,169.3z
	 M96.7,169.1L96.7,169.1C97.3,168.7,97.2,169,96.7,169.1z M96.7,169.3C96.7,169.3,96.6,169.3,96.7,169.3
	C96.7,169.1,96.7,169.1,96.7,169.3C96.7,169.1,96.7,169.1,96.7,169.3z M128.4,129.7C128.4,129.7,128.6,129.7,128.4,129.7
	C128.6,129.7,128.6,129.7,128.4,129.7z M162,129.2c-0.4,0.3-0.7,0.4-1.1,0.7h-0.1c-0.1,0-0.3,0.1-0.4,0.1c-0.4,0.1-0.7,0.1-1.1,0.3
	c-1,0-2.1,0.1-3,0h-21.9c-1.4,0-2.6,0-4,0c-0.3,0-0.7-0.1-1-0.1s-0.4-0.1-0.7-0.3c-0.1,0-0.3-0.1-0.3-0.1c-0.1-0.1-0.4-0.1-0.6-0.3
	c0,0-0.1,0-0.3-0.1c0,0,0,0-0.1-0.1l-0.1-0.1h0.1c-0.1-0.1-0.3-0.3-0.4-0.4c-0.3-0.3-0.7-0.6-1-0.7c-1.7-1.4-3.3-2.8-5-4
	c-4.5-3.6-9-7.3-13.5-10.9c-1.1-0.8-2.2-1.8-3.3-2.6c-1.2-1.2-3.2-1.5-4.8-1c-1.7,0.7-2.8,2.2-2.8,4s0,3.7,0,5.6c0,4.4,0,8.8,0,13.2
	c0,5.2,0,10.3,0,15.6c0,4.1,0,8.3,0,12.4c0,2.3,0,4.8,0,7.2c0,0.4,0,1-0.1,1.4c0,0.3-0.1,0.4-0.1,0.7c-0.1,0-0.4,0.1-0.6,0.1
	c-1.9,0.1-3.9,0.3-5.9,0.1H64.6c-2.2,0.1-4.4,0-6.5-0.1c-0.1,0-0.4-0.1-0.6-0.1c0-0.1-0.1-0.4-0.1-0.6c-0.3-3.2-0.3-6.3-0.1-9.5
	c0-3,0-5.9,0-9c0-5,0-9.9,0-15c0-2.5,0-5,0-7.4v-10.5v-0.1v-3.7l0,0l0,0c-0.1-2.5-2.2-4.3-4.7-4.1c-2.2,0.1-4,1.9-4.1,4.1v38.7
	c0.1,1.9,0,3.9,0,5.8c-0.1,0.4-0.1,0.8-0.3,1.2v0.1c0,0.1-0.1,0.3-0.1,0.3c-0.1,0.3-0.3,0.6-0.4,0.8c0,0.1-0.1,0.1-0.1,0.1
	c-0.1,0.1-0.3,0.4-0.6,0.6c-0.1,0.1-0.3,0.3-0.4,0.4c-0.4,0.3-0.8,0.6-1.2,0.7c-0.1,0.1-0.4,0.1-0.6,0.1c-0.3,0.1-0.7,0.1-1,0.1
	c-0.6,0-1,0-1.5,0c-0.3,0-0.7-0.1-1-0.1c-0.1,0-0.4-0.1-0.6-0.1c-0.4-0.3-0.8-0.4-1.2-0.7c-0.1-0.1-0.3-0.3-0.6-0.4
	c-0.1-0.1-0.3-0.3-0.4-0.6c-0.3-0.4-0.4-0.7-0.7-1.1l0,0c0-0.1-0.1-0.3-0.1-0.6c-0.1-0.4-0.1-0.7-0.3-1.1c-0.1-1.9-0.1-3.9,0-5.8
	V112c-0.1-2.9,0-5.8,0.3-8.7c0.3-1.5,0.6-3,1.1-4.4c0-0.1,0-0.1,0.1-0.3c0.1-0.4,0.3-0.7,0.6-1c0.4-0.7,0.8-1.4,1.2-2.1l0,0
	c0.3-0.3,0.6-0.6,0.8-0.8c0.4-0.4,0.8-0.8,1.4-1.2c0.1-0.1,0.4-0.3,0.4-0.4c0.4-0.3,0.7-0.4,1.1-0.7c0.4-0.1,0.7-0.4,1-0.6
	c0.1,0,0.3-0.1,0.3-0.1c1.5-0.6,3.2-1,4.8-1.2c2.2-0.3,4.3-0.3,6.5-0.3h7c2.8,4.8,5.5,9.6,8.1,14.5c0.4,0.8,1,1.7,1.4,2.3
	c1.2,2.1,4,2.8,6.1,1.5c0.6-0.4,1.1-0.8,1.5-1.5c3.2-5.6,6.3-11.2,9.5-16.8c0,0,0,0,0-0.1h10.9c0.4,0,0.7,0,1.1,0
	c0.3,0.1,0.7,0.1,1,0.3h0.1c0.3,0.1,0.6,0.3,0.7,0.4c0.1,0.1,0.6,0.4,0.7,0.6l0.1,0.1c0.1,0.1,0.1,0.1,0.3,0.3
	c0.3,0.3,0.6,0.6,0.7,0.8c1.4,1.4,2.6,2.9,4,4.3c4.1,4.4,8.3,8.8,12.4,13.2c1.8,1.9,3.4,3.7,5.2,5.6c0.8,0.8,1.7,1.8,2.5,2.6
	c1.7,1.7,3.9,1.4,5.9,1.4h8.3c4.7,0,9.4,0,14,0c0.3,0,0.6,0,0.8,0s0.7,0.1,1,0.1c0.1,0,0.3,0.1,0.6,0.1h0.1c0.4,0.1,0.7,0.4,1.1,0.7
	c0.1,0.1,0.3,0.3,0.6,0.4c0.1,0.1,0.3,0.3,0.4,0.4c0.3,0.4,0.4,0.7,0.7,1.1v0.1c0,0.1,0.1,0.3,0.1,0.4c0.1,0.4,0.1,0.8,0.3,1.1
	c0,0.1,0,0.4,0,0.6l0,0l0,0c0,0.3,0,0.4,0,0.7c0,0.3-0.1,0.7-0.3,1c0,0.1-0.1,0.3-0.1,0.6v0.1c-0.1,0.4-0.4,0.7-0.7,1.1
	c-0.1,0.1-0.3,0.3-0.4,0.6C162.3,128.9,162.2,129,162,129.2z M163.8,126.8c0-0.1,0-0.1,0-0.1C163.8,126.7,163.8,126.7,163.8,126.8
	L163.8,126.8z"/>
<path fill="#C4C4C4" d="M96.3,169.5L96.3,169.5L96.3,169.5L96.3,169.5z"/>
<path fill="#C4C4C4" d="M127.5,129C127.5,129.2,127.5,129.2,127.5,129c0.1,0.1,0.1,0.1,0.1,0.1c0.1,0,0.1,0.1,0.3,0.1
	C127.9,129.3,127.7,129.3,127.5,129z"/>
<path fill="#C4C4C4" d="M57.2,169.3C57.2,169.1,57.2,169.1,57.2,169.3C57.2,169.1,57.2,169.1,57.2,169.3L57.2,169.3z"/>
<path fill="#C4C4C4" d="M179.7,65.4c-6.1-11.3-20.2-15.6-31.5-9.4l1.1-4.5l0,0c0.3-1.1-0.4-2.1-1.5-2.3s-2.1,0.4-2.3,1.5l-2.2,9.5
	l0,0c-0.3,1.1,0.4,2.1,1.4,2.3l9.5,2.2c0,0,0,0,0.1,0c1.1,0.3,2.1-0.4,2.3-1.5c0.3-1.1-0.4-2.1-1.5-2.3l-5.4-1.2
	c5.1-2.9,11.2-3.3,16.7-1.1c9.9,4,14.9,15.2,10.9,25.2c-0.3,0.6-0.4,1.1-0.7,1.7v0.1c-4.5,9-15.2,12.8-24.4,9.2
	c-9.9-4-14.7-15.3-10.9-25.2c0.3-0.6,0.4-1.1,0.7-1.7c0.4-1,0.1-2.1-0.8-2.5c-1-0.6-2.1-0.1-2.6,0.8c-0.3,0.7-0.6,1.2-0.8,1.9
	c-4.4,11.2,0.3,23.8,11,29.3c11.4,5.8,25.5,1.4,31.3-10.1v-0.1c0.3-0.7,0.6-1.2,0.8-1.9l0,0C183.4,78.5,183,71.3,179.7,65.4z"/>
<polygon fill="#C4C4C4" points="158.3,71.2 158.3,75.3 154.6,74.1 153.6,76.5 157.5,77.8 155.1,81.1 157.4,82.7 159.7,79.3 
	162.2,82.7 164.4,81.1 161.9,77.8 165.8,76.5 164.8,74.1 161.1,75.3 161.1,71.2 "/>
</svg>
