<?xml version="1.0" encoding="utf-8"?>
<!-- Generator: Adobe Illustrator 24.3.0, SVG Export Plug-In . SVG Version: 6.00 Build 0)  -->
<svg version="1.2" baseProfile="tiny" id="Layer_1" xmlns="http://www.w3.org/2000/svg" xmlns:xlink="http://www.w3.org/1999/xlink"
	 x="0px" y="0px" viewBox="0 0 205 205" overflow="visible" xml:space="preserve">
<g id="wallet" transform="translate(0)">
	<g id="XMLID_94_" transform="translate(25.716 10.25)">
		<path id="XMLID_95_" fill="#C4C4C4" d="M28.4,46.1L28.4,46.1l89-6.2l0,0l-1.5-6.2c-0.1-0.6-0.3-1.1-0.8-1.5
			c-0.8-0.8-2.3-0.8-4.6-0.8L28.4,46.1L28.4,46.1z"/>
	</g>
	<path id="XMLID_90_" fill="#C4C4C4" d="M178.6,140.6l-21.3-82c0,0-0.8-5.4-10.1-4.6L35.5,62.5c0,0-8.5,0.8-7,11.2L42.9,165
		c0,0,0.8,7.7,12,7.7c12,0,104-9.3,107.1-10.1c3.1,0,8.5-3.1,7.7-7.7v-7l4.6-0.8C176.3,146.8,179.4,145.3,178.6,140.6z M162.8,153.8
		c-1.3,2.1-3.7,3.3-6.2,3.1l-101,10.1c-1.6,0.1-3.2-0.1-4.6-0.8c-0.8-0.8-0.8-0.8-0.8-1.5s0-1.5,0.8-1.5c1.5-2.3,7-2.3,7-2.3
		l104.8-12l0,0C164.3,150.7,164.3,152.2,162.8,153.8L162.8,153.8z M167.8,142.2l-3.9,0.8L52.2,154.2l-12-77.4
		c-1.5-8.5,6.2-9.3,6.2-9.3l98.6-7c7.7-0.8,8.5,3.9,8.5,3.9l18.2,71.6C173.2,139.9,170.9,141.4,167.8,142.2L167.8,142.2z"/>
	<path id="XMLID_96_" fill="#C4C4C4" d="M136.1,37.4L136.1,37.4l-0.8-3.9c-0.1-0.6-0.3-1.1-0.8-1.5c-0.8-0.8-1.5-0.8-3.1,0L43.3,54
		L136.1,37.4z"/>
</g>
<g id="Group_3423" transform="translate(44.027 43.804)">
	<path id="Path_4246" fill="#C4C4C4" d="M48.9,82.5h4.8v6c0,1.4,1.2,2.6,2.6,2.6c1.4,0,2.6-1.2,2.6-2.6c0,0,0,0,0,0v-6h1.7v6
		c0,1.4,1.2,2.6,2.6,2.6c1.4,0,2.6-1.2,2.6-2.6c0,0,0,0,0,0v-6h0.7c6.1,0,11-4.9,11-11c0,0,0,0,0,0v-1c0-4.2-2.4-8-6.1-9.9
		c2.2-2.1,3.5-5,3.5-8c0-5.4-3.9-9.9-9.2-10.9v-6.2c0-1.4-1.2-2.6-2.6-2.6c-1.4,0-2.6,1.2-2.6,2.6c0,0,0,0,0,0v6h-1.7v-6
		c0-1.4-1.2-2.6-2.6-2.6c-1.4,0-2.6,1.2-2.6,2.6c0,0,0,0,0,0v6h-4.8c-1.4,0-2.6,1.1-2.6,2.6c0,0,0,0,0,0v35.6
		c-0.1,1.5,1,2.8,2.5,2.9C48.8,82.5,48.9,82.5,48.9,82.5z M51.5,46.9H64c3.2,0,5.8,2.6,5.8,5.8s-2.6,5.8-5.8,5.8H51.5V46.9z
		 M51.5,64.6h15c3.2,0,5.8,2.6,5.8,5.8v1c0,3.2-2.6,5.8-5.8,5.8h-15V64.6z"/>
</g>
</svg>
