<?xml version="1.0" encoding="utf-8"?>
<!-- Generator: Adobe Illustrator 24.3.0, SVG Export Plug-In . SVG Version: 6.00 Build 0)  -->
<svg version="1.2" baseProfile="tiny" id="Layer_1" xmlns="http://www.w3.org/2000/svg" xmlns:xlink="http://www.w3.org/1999/xlink"
	 x="0px" y="0px" viewBox="0 0 205 205" overflow="visible" xml:space="preserve">
<path id="Path_4053" fill="none" d="M104.1,70.3c-26.3,0-47.6,21.3-47.6,47.6s21.3,47.6,47.6,47.6s47.6-21.3,47.6-47.6c0,0,0,0,0,0
	C151.7,91.7,130.4,70.4,104.1,70.3z M128,100.2c1.7-2.2,3.1-4.7,4.2-7.3c0.4-1,1.5-1.5,2.4-1.1c0,0,0,0,0.1,0c1,0.4,1.5,1.5,1.1,2.5
	c0,0,0,0,0,0c-1.2,3-2.9,5.8-4.9,8.3c-4.6,5.3-14,10.2-14.5,10.4c-0.9,0.5-2.1,0.2-2.6-0.7c0,0,0-0.1,0-0.1
	c-0.5-0.9-0.1-2.1,0.8-2.6c0,0,0,0,0,0C114.8,109.6,123.9,104.9,128,100.2z M109,105.5c0.1-0.1,5.6-8.7,6.8-14.8
	c0.3-2.8,0.4-5.6,0-8.4c-0.2-1,0.6-2,1.6-2.2c0,0,0,0,0,0c1.1-0.2,2.1,0.6,2.2,1.6c0,0,0,0,0,0c0.4,3.2,0.4,6.5-0.1,9.7
	c-1.3,6.9-7.1,15.8-7.3,16.2c-0.6,0.9-1.7,1.2-2.6,0.6c0,0-0.1-0.1-0.1-0.1C108.7,107.6,108.5,106.4,109,105.5
	C109,105.5,109,105.5,109,105.5z M112.1,118.1c0,4.4-3.6,8-8,8c-4.4,0-8-3.6-8-8c0-4.4,3.6-8,8-8
	C108.5,110.1,112.1,113.7,112.1,118.1C112.1,118.1,112.1,118.1,112.1,118.1z M96.8,78.4c0.9-0.7,2.1-0.5,2.8,0.3c0,0,0,0,0,0
	c2,2.6,3.6,5.4,4.7,8.4c2.3,6.6,1.7,17.2,1.7,17.7c0,1-0.9,1.9-1.9,1.9c0,0-0.1,0-0.1,0c-1.1,0-1.9-0.9-1.8-2c0,0,0,0,0,0
	c0-0.1,0.5-10.3-1.5-16.2c-1.1-2.6-2.5-5.1-4.2-7.3C95.8,80.3,96,79.1,96.8,78.4C96.8,78.4,96.8,78.4,96.8,78.4z M77.9,87.4
	c0.4-1,1.6-1.5,2.6-1.1c0,0,0,0,0,0c3,1.2,5.8,2.9,8.3,4.9c5.3,4.6,10.1,14.1,10.3,14.5c0.5,0.9,0.2,2.1-0.8,2.6c0,0-0.1,0-0.1,0
	c-0.9,0.5-2.1,0.1-2.6-0.8c0,0,0,0,0,0c-0.1-0.1-4.7-9.2-9.4-13.3C84,92.5,81.6,91,79,89.9C78,89.5,77.5,88.4,77.9,87.4
	C77.9,87.4,77.9,87.4,77.9,87.4z M67.7,102.4c3.2-0.4,6.5-0.4,9.7,0.1c6.9,1.3,15.8,7.1,16.2,7.4c0.9,0.6,1.2,1.7,0.6,2.6
	c0,0-0.1,0.1-0.1,0.1c-0.6,0.9-1.8,1.1-2.7,0.6c0,0,0,0,0,0c-0.1-0.1-8.7-5.6-14.8-6.8c-2.8-0.4-5.6-0.4-8.4-0.1
	c-1,0.2-2-0.6-2.2-1.6c0,0,0,0,0,0C65.9,103.5,66.7,102.5,67.7,102.4C67.7,102.4,67.7,102.4,67.7,102.4z M67.1,125.8
	c-0.8,0.7-2,0.5-2.7-0.3c0,0,0,0,0,0c-0.7-0.9-0.5-2.1,0.3-2.8c0,0,0,0,0,0c2.6-2,5.4-3.6,8.4-4.7c6.6-2.3,17.2-1.8,17.7-1.7
	c1,0,1.9,0.9,1.9,1.9c0,0.1,0,0.1,0,0.1c0,1.1-0.9,1.9-2,1.8c0,0,0,0,0,0c-0.1,0-10.3-0.5-16.2,1.5
	C71.8,122.7,69.4,124.1,67.1,125.8L67.1,125.8z M80.2,136c-1.7,2.2-3.1,4.7-4.3,7.3c-0.4,1-1.5,1.5-2.5,1.1c0,0,0,0,0,0
	c-1-0.4-1.5-1.6-1.1-2.6c1.2-3,2.9-5.8,4.9-8.3c4.6-5.3,14-10.1,14.5-10.4c0.9-0.5,2.1-0.1,2.6,0.8c0,0,0,0.1,0,0.1
	c0.5,0.9,0.1,2.1-0.8,2.6c0,0,0,0,0,0C93.4,126.6,84.2,131.3,80.2,136L80.2,136z M99.1,130.7c-0.1,0.1-5.6,8.7-6.8,14.8
	c-0.4,2.8-0.4,5.6-0.1,8.4c0.2,1-0.6,2-1.6,2.2c0,0,0,0,0,0c-1.1,0.1-2.1-0.6-2.2-1.7c-0.4-3.2-0.4-6.5,0.1-9.7
	c1.3-6.9,7.1-15.8,7.4-16.2c0.6-0.9,1.7-1.2,2.6-0.6c0,0,0.1,0.1,0.1,0.1C99.5,128.6,99.7,129.8,99.1,130.7
	C99.1,130.7,99.1,130.7,99.1,130.7L99.1,130.7z M111.5,157.8c-0.8,0.7-2.1,0.5-2.7-0.3c0,0,0,0,0,0c-2-2.6-3.6-5.4-4.8-8.4
	c-2.3-6.6-1.8-17.2-1.7-17.7c0-1,0.9-1.9,1.9-1.9c0,0,0.1,0,0.1,0c1.1,0,1.9,0.9,1.8,2c0,0,0,0,0,0c0,0.1-0.5,10.3,1.5,16.2
	c1.1,2.6,2.5,5.1,4.2,7.3C112.5,155.9,112.3,157.1,111.5,157.8C111.5,157.8,111.5,157.8,111.5,157.8L111.5,157.8z M130.3,148.8
	c-0.4,1-1.5,1.5-2.5,1.1c0,0,0,0,0,0c-3-1.2-5.8-2.9-8.3-4.9c-5.3-4.6-10.2-14-10.4-14.5c-0.5-0.9-0.2-2.1,0.7-2.6c0,0,0.1,0,0.1,0
	c0.9-0.5,2.1-0.1,2.6,0.8c0,0,0,0,0,0c0.1,0.1,4.7,9.2,9.4,13.3c2.3,1.7,4.7,3.1,7.3,4.3C130.2,146.6,130.7,147.7,130.3,148.8
	C130.3,148.7,130.3,148.8,130.3,148.8L130.3,148.8z M140.5,133.8c-3.2,0.4-6.5,0.4-9.7-0.1c-6.9-1.3-15.8-7.1-16.2-7.3
	c-0.9-0.6-1.2-1.7-0.6-2.6c0,0,0.1-0.1,0.1-0.1c0.6-0.9,1.8-1.1,2.7-0.6c0,0,0,0,0,0c0.1,0.1,8.7,5.6,14.8,6.8
	c2.8,0.3,5.6,0.4,8.4,0c1-0.2,2,0.6,2.2,1.6c0,0,0,0,0,0C142.3,132.6,141.6,133.6,140.5,133.8C140.5,133.8,140.5,133.8,140.5,133.8
	L140.5,133.8z M143.4,113.5c-2.6,2-5.4,3.6-8.4,4.8c-6.6,2.3-17.2,1.8-17.7,1.8c-1,0-1.9-0.9-1.9-1.9c0,0,0-0.1,0-0.1
	c0.1-1.1,1-1.9,2-1.8c0,0,0,0,0,0c0.1,0,10.3,0.5,16.2-1.5c2.6-1.1,5.1-2.5,7.3-4.2c0.8-0.7,2-0.5,2.7,0.3c0,0,0,0,0,0
	C144.4,111.5,144.3,112.8,143.4,113.5C143.5,113.4,143.4,113.4,143.4,113.5L143.4,113.5z"/>
<path id="Path_4054" fill="#C4C4C4" d="M100.6,88.5c2,5.9,1.5,16.1,1.5,16.2c-0.1,1.1,0.7,2,1.8,2c0,0,0,0,0,0c0,0,0.1,0,0.1,0
	c1,0,1.9-0.8,1.9-1.9c0-0.5,0.6-11.1-1.7-17.7c-1.2-3-2.8-5.9-4.7-8.4c-0.7-0.9-1.9-1-2.8-0.3c0,0,0,0,0,0c-0.8,0.6-1,1.8-0.4,2.7
	c0,0,0,0,0,0C98.2,83.4,99.5,85.9,100.6,88.5z"/>
<path id="Path_4055" fill="#C4C4C4" d="M79,89.9c2.6,1.1,5,2.6,7.3,4.3c4.7,4.1,9.3,13.2,9.4,13.3c0.5,0.9,1.6,1.3,2.6,0.9
	c0,0,0,0,0,0c0,0,0.1,0,0.1,0c0.9-0.5,1.2-1.7,0.8-2.6c-0.2-0.4-5-9.9-10.3-14.5c-2.5-2-5.3-3.7-8.3-4.9c-1-0.4-2.1,0.1-2.6,1.1
	c0,0,0,0,0,0C77.5,88.3,78,89.5,79,89.9C79,89.9,79,89.9,79,89.9z"/>
<path id="Path_4056" fill="#C4C4C4" d="M68.2,106.2c2.8-0.3,5.6-0.3,8.4,0.1c6.1,1.2,14.7,6.8,14.8,6.8c0.9,0.6,2.1,0.3,2.7-0.6
	c0,0,0,0,0,0c0,0,0.1-0.1,0.1-0.1c0.5-0.9,0.2-2.1-0.6-2.6c-0.4-0.3-9.3-6.1-16.2-7.4c-3.2-0.5-6.5-0.5-9.7-0.1
	c-1.1,0.1-1.8,1.1-1.7,2.2c0,0,0,0,0,0C66.2,105.6,67.2,106.4,68.2,106.2C68.2,106.2,68.2,106.2,68.2,106.2z"/>
<path id="Path_4057" fill="#C4C4C4" d="M90.7,120.1c1.1,0.1,2-0.7,2-1.8c0,0,0,0,0,0c0,0,0-0.1,0-0.1c0-1-0.8-1.9-1.9-1.9
	c-0.5,0-11.1-0.6-17.7,1.7c-3,1.2-5.9,2.8-8.4,4.7c-0.9,0.7-1,1.9-0.3,2.8c0,0,0,0,0,0c0.6,0.8,1.8,1,2.7,0.4c0,0,0,0,0,0
	c2.3-1.7,4.7-3.1,7.3-4.2C80.3,119.6,90.5,120.1,90.7,120.1z"/>
<path id="Path_4058" fill="#C4C4C4" d="M94.3,124c0,0,0-0.1,0-0.1c-0.5-0.9-1.7-1.2-2.6-0.8c-0.4,0.2-9.9,5-14.5,10.4
	c-2,2.5-3.7,5.3-4.9,8.3c-0.4,1,0.1,2.2,1.1,2.6c1,0.4,2.1-0.1,2.5-1c0,0,0,0,0,0c1.1-2.6,2.6-5,4.3-7.3c4.1-4.7,13.2-9.3,13.3-9.4
	C94.4,126.1,94.8,124.9,94.3,124C94.3,124,94.3,124,94.3,124z"/>
<path id="Path_4059" fill="#C4C4C4" d="M98.6,128.1C98.5,128,98.5,128,98.6,128.1c-1-0.6-2.2-0.3-2.7,0.5c-0.3,0.4-6,9.3-7.4,16.2
	c-0.5,3.2-0.5,6.5-0.1,9.7c0.2,1.1,1.1,1.8,2.2,1.7c1.1-0.1,1.8-1.1,1.7-2.2c0,0,0,0,0,0c-0.3-2.8-0.3-5.6,0.1-8.4
	c1.2-6.1,6.7-14.7,6.8-14.8C99.7,129.8,99.5,128.6,98.6,128.1C98.6,128.1,98.6,128.1,98.6,128.1z"/>
<path id="Path_4060" fill="#C4C4C4" d="M107.6,147.8c-2.1-5.9-1.5-16.1-1.5-16.2c0.1-1.1-0.7-2-1.8-2c0,0,0,0,0,0c0,0-0.1,0-0.1,0
	c-1,0-1.9,0.8-1.9,1.9c0,0.5-0.6,11.1,1.7,17.7c1.2,3,2.8,5.9,4.8,8.4c0.7,0.9,1.9,1,2.7,0.3c0,0,0,0,0,0c0.8-0.6,1-1.8,0.4-2.7
	c0,0,0,0,0,0C110.1,152.8,108.7,150.4,107.6,147.8z"/>
<path id="Path_4061" fill="#C4C4C4" d="M129.3,146.3c-2.6-1.1-5-2.6-7.3-4.3c-4.7-4.1-9.4-13.2-9.4-13.3c-0.5-0.9-1.6-1.3-2.6-0.9
	c0,0,0,0,0,0c0,0-0.1,0-0.1,0c-0.9,0.5-1.2,1.7-0.7,2.6c0.2,0.4,5.1,9.9,10.4,14.5c2.5,2,5.4,3.7,8.3,4.9c1,0.4,2.1-0.1,2.5-1.1
	c0,0,0,0,0,0C130.7,147.8,130.3,146.7,129.3,146.3C129.3,146.3,129.3,146.3,129.3,146.3z"/>
<path id="Path_4062" fill="#C4C4C4" d="M140,129.9c-2.8,0.3-5.6,0.3-8.4,0c-6.1-1.2-14.7-6.7-14.8-6.8c-0.9-0.6-2.1-0.3-2.7,0.6
	c0,0,0,0,0,0c0,0-0.1,0.1-0.1,0.1c-0.5,0.9-0.2,2.1,0.6,2.6c0.4,0.3,9.3,6,16.2,7.3c3.2,0.5,6.5,0.5,9.7,0.1
	c1.1-0.1,1.8-1.1,1.7-2.2c0,0,0,0,0,0C142,130.5,141.1,129.8,140,129.9C140,129.9,140,129.9,140,129.9z"/>
<path id="Path_4063" fill="#C4C4C4" d="M143.8,110.7c-0.6-0.8-1.8-1-2.7-0.4c0,0,0,0,0,0c-2.3,1.7-4.7,3.1-7.3,4.2
	c-5.9,2.1-16.1,1.5-16.2,1.5c-1.1-0.1-2,0.7-2,1.8c0,0,0,0,0,0c0,0,0,0.1,0,0.1c0,1,0.8,1.9,1.9,1.9c0.5,0,11.1,0.5,17.7-1.8
	c3-1.2,5.8-2.8,8.4-4.8C144.3,112.8,144.4,111.6,143.8,110.7C143.8,110.7,143.8,110.7,143.8,110.7z"/>
<path id="Path_4064" fill="#C4C4C4" d="M113.9,112.2c0,0,0,0.1,0,0.1c0.5,0.9,1.7,1.2,2.6,0.7c0.4-0.2,9.9-5.1,14.5-10.4
	c2-2.5,3.7-5.4,4.9-8.3c0.4-1-0.1-2.1-1.1-2.5c0,0,0,0,0,0c-1-0.4-2.1,0-2.5,1c0,0,0,0,0,0.1c-1.1,2.6-2.5,5-4.2,7.3
	c-4.1,4.7-13.2,9.4-13.3,9.4C113.7,110.1,113.4,111.3,113.9,112.2C113.9,112.2,113.9,112.2,113.9,112.2z"/>
<path id="Path_4065" fill="#C4C4C4" d="M109.6,108.1C109.6,108.1,109.7,108.2,109.6,108.1c1,0.6,2.1,0.3,2.7-0.5
	c0.3-0.4,6-9.3,7.3-16.2c0.5-3.2,0.5-6.5,0.1-9.7c-0.2-1.1-1.1-1.8-2.2-1.7c0,0,0,0,0,0c-1,0.1-1.8,1.1-1.6,2.1c0,0,0,0,0,0
	c0.3,2.8,0.3,5.6,0,8.4c-1.2,6.1-6.7,14.7-6.8,14.8C108.5,106.3,108.7,107.5,109.6,108.1C109.6,108.1,109.6,108.1,109.6,108.1z"/>
<path id="Path_4066" fill="#C4C4C4" d="M104.1,67.4C76.2,67.4,53.5,90,53.5,118c0,27.9,22.7,50.6,50.6,50.6
	c27.9,0,50.6-22.7,50.6-50.6C154.7,90,132.1,67.4,104.1,67.4z M104.1,165.6c-26.3,0-47.6-21.3-47.6-47.6s21.3-47.6,47.6-47.6
	c26.3,0,47.6,21.3,47.6,47.6c0,0,0,0,0,0C151.7,144.3,130.4,165.6,104.1,165.6L104.1,165.6z"/>
<path id="Path_4067" fill="#C4C4C4" d="M104.1,110.1c-4.4,0-8,3.6-8,8c0,4.4,3.6,8,8,8c4.4,0,8-3.6,8-8
	C112.1,113.7,108.6,110.1,104.1,110.1C104.1,110.1,104.1,110.1,104.1,110.1z"/>
<path fill="#C4C4C4" d="M171.9,35.4c2.3-1.4,4.1-3.6,5-6.3c1.1-3.5,0.5-7.4-1.7-10.4c-2.1-2.9-5.4-4.6-9-4.8v-5c0-1-0.8-1.8-1.8-1.8
	c-1,0-1.8,0.8-1.8,1.8v5c-1.9,0-3.8,0-5.7,0c-0.8,0-1.6,0-2.5,0c0-1.6,0-3.3,0-4.9V8.9c0-1-0.8-1.8-1.8-1.8c-1,0-1.8,0.8-1.8,1.8v0
	v5c-1.6,0-3.1,0-4.7,0H146c-1,0-1.8,0.8-1.8,1.8c0,1,0.8,1.8,1.8,1.8l0,0h4.9v17.6c0,0.1,0,0.2,0,0.3c0,0.1,0,0.2,0,0.3v17.6
	c-1.6,0-3.2,0-4.7,0H146c-1,0-1.8,0.8-1.8,1.8c0,1,0.8,1.8,1.8,1.8h4.9c0,1.6,0,3.3,0,4.9v0.1c0,1,0.8,1.8,1.8,1.8
	c1,0,1.8-0.8,1.8-1.8v-5h0.7c2.5,0,5,0,7.5,0v5c0,1,0.8,1.8,1.8,1.8c1,0,1.8-0.8,1.8-1.8c0,0,0,0,0,0v-5c6.2-0.2,11.2-5.2,11.2-11.5
	c0-1-0.1-2.1-0.4-3.1C176.3,39.4,174.4,37,171.9,35.4z M165.3,17.5c0.5,0,0.9,0,1.4,0c0,0,0.3,0,0.1,0c-0.2,0,0.2,0,0.2,0
	c0.2,0,0.3,0.1,0.5,0.1c0.4,0.1,0.8,0.2,1.2,0.3c0.1,0,0.3,0.1,0.3,0.1c0.1,0,0.2,0.1,0.2,0.1l0.2,0.1c0.3,0.2,0.7,0.4,1,0.6
	c0.1,0.1,0.2,0.2,0.4,0.3c0.1,0,0.2,0.2,0.3,0.2c0.3,0.2,0.5,0.5,0.8,0.8c0.1,0.1,0.3,0.3,0.4,0.4s0,0,0,0c0.1,0.1,0.1,0.1,0.2,0.2
	c0.2,0.3,0.4,0.6,0.6,1c0.1,0.2,0.2,0.4,0.3,0.5c0,0,0,0.1,0,0.1c0,0,0,0,0,0.1c0.1,0.4,0.3,0.8,0.4,1.1c0,0.2,0.1,0.3,0.1,0.5
	c0,0.1,0.1,0.4,0.1,0.5c0,0,0,0.1,0,0.1c0,0.1,0,0.2,0,0.3c0,0.2,0,0.5,0,0.7c0,0.8-0.1,1.6-0.4,2.4c-0.7,2.3-2.4,4.1-4.7,5
	c-0.1,0-0.2,0.1-0.3,0.1c-0.2,0.1-0.4,0.1-0.7,0.2c-0.2,0.1-0.4,0.1-0.6,0.1c-0.1,0-0.2,0-0.3,0.1c-0.1,0-0.1,0-0.1,0c0,0,0,0-0.1,0
	c-0.3,0-0.7,0-1,0h-0.3c-0.3,0-0.6,0-0.9,0h-10.1V17.5H165.3z M173.5,47.7c-0.2,0.8-0.6,1.5-1,2.1c-0.4,0.6-1,1.2-1.5,1.7
	c-0.6,0.5-1.3,0.9-2,1.2c-1,0.4-2.1,0.6-3.2,0.6c-0.4,0-0.8,0-1.2,0c0,0-0.1,0-0.1,0c0,0-0.1,0-0.1,0c-2.7,0-5.4,0-8.1,0
	c-0.6,0-1.2,0-1.8,0V37.2h8.8c0.9,0.1,1.8,0,2.7,0c0.2,0,0.4,0,0.6,0c0,0,0.4,0,0.2,0c-0.2,0,0.1,0,0.1,0c0.2,0,0.3,0.1,0.5,0.1
	c0.4,0.1,0.8,0.2,1.2,0.3c0.1,0,0.2,0.1,0.2,0.1c0,0,0.4,0.2,0.2,0.1c-0.1-0.1,0.3,0.1,0.3,0.2c0.3,0.2,0.7,0.4,1,0.6
	c0.1,0.1,0.3,0.2,0.4,0.3c0,0,0,0,0,0c0.1,0,0.1,0.1,0.2,0.2c0.3,0.3,0.6,0.5,0.8,0.8c0.1,0.1,0.2,0.3,0.3,0.4c0,0,0.1,0.1,0.1,0.1
	c0,0.1,0.1,0.1,0.1,0.1c0.2,0.3,0.4,0.6,0.6,1c0.1,0.2,0.2,0.3,0.2,0.4c0,0.1,0.1,0.1,0.1,0.2c0,0-0.1-0.2,0,0
	c0.1,0.4,0.3,0.7,0.4,1.1c0.1,0.3,0.2,0.7,0.2,1c0,0.1,0,0.3,0,0.4c0,0.2,0,0.4,0,0.6C173.9,46.1,173.8,46.9,173.5,47.7z"/>
<g>
	<path fill="#C4C4C4" d="M60.6,167.5c0-0.1,0,0,0.1,0.3c0,0,0,0,0,0C60.6,167.7,60.6,167.6,60.6,167.5z"/>
	<path fill="#C4C4C4" d="M62.8,181.8c0,0,0,0-0.1,0.1l-0.3,0.2c-0.2,0.1-0.4,0.2-0.6,0.3c0,0-0.3,0.1-0.3,0.1
		c-0.1,0-0.3,0.1-0.4,0.1c-0.2,0.1-0.4,0.1-0.6,0.1c-0.1,0-0.1,0-0.1,0c0,0,0,0-0.1,0c-0.8,0.1-1.6,0-2.4-0.3
		c-0.8-0.4-1.6-0.7-2.4-0.9c-0.6-0.1-1.2-0.1-1.8-0.1c0.9-1.4,1.6-3,1.6-4.6c0-0.3,0-0.6-0.1-0.9h3.4c0.8,0,1.5-0.7,1.5-1.5
		c0-0.8-0.7-1.5-1.5-1.5c0,0,0,0,0,0h-4.7c-0.3-0.5-0.6-1-0.9-1.6c-0.2-0.4-0.4-0.7-0.5-1.1c0-0.1-0.1-0.3-0.1-0.4
		c-0.1-0.2-0.1-0.3-0.2-0.5c-0.1-0.2-0.1-0.4-0.2-0.7c0-0.1,0-0.2,0-0.2c0,0,0,0.1,0,0.1c0-0.2,0-0.3,0-0.5c0-0.1,0-0.2,0-0.3
		c0,0,0,0,0-0.1c0-0.2,0.1-0.4,0.1-0.6l0.1-0.3l0-0.1c0.1-0.2,0.2-0.5,0.4-0.7c0,0,0,0,0.1-0.1c0,0,0,0,0,0c0.1-0.1,0.2-0.2,0.3-0.3
		c0.1-0.1,0.2-0.2,0.3-0.3c0.1,0,0.1-0.1,0.2-0.1c0.1-0.1,0.3-0.2,0.4-0.2c0.1,0,0.2-0.1,0.3-0.1c0,0,0,0,0,0c0,0,0,0,0,0
		c0.7-0.3,1.4-0.4,2.2-0.4c0.4,0,0.8,0,1.2,0c0,0,0,0,0,0c0,0,0,0,0,0c0.1,0,0.2,0,0.3,0c0.2,0,0.4,0.1,0.5,0.1
		c0.1,0,0.2,0.1,0.3,0.1c0.1,0,0.2,0.1,0.3,0.1c0.1,0.1,0.2,0.1,0.3,0.2c0.1,0,0.1,0.1,0.2,0.1c0,0,0,0-0.1,0c0,0,0,0,0,0
		c0.1,0.1,0.2,0.2,0.3,0.3c0,0,0.2,0.2,0.2,0.2c0,0.1,0.1,0.1,0.1,0.2c0.1,0.1,0.1,0.2,0.2,0.4c0,0,0,0.1,0.1,0.1c0,0,0,0,0,0.1
		c0,0,0,0,0,0c0,0.1,0,0.1,0.1,0.2c0.1,0.2,0.1,0.4,0.2,0.7c0,0.1,0,0.2,0,0.3c0,0,0,0.1,0,0.2c0,0,0,0.1,0,0.1c0,0,0,0,0,0
		c0,0,0,0,0,0c0,0,0,0.1,0,0.1c0,0.1,0,0.3,0,0.4c0,0.8,0.7,1.5,1.5,1.5c0.8,0,1.5-0.7,1.5-1.6l0,0c0-1.6-0.4-3.1-1.3-4.4
		c-2.1-2.8-6.1-3.2-9.2-2c-2.6,1-4.3,3.5-4.3,6.3c0.1,1.2,0.4,2.4,0.9,3.5c0.2,0.4,0.4,0.8,0.6,1.1h-1.7c-0.8,0-1.5,0.7-1.5,1.5
		c0,0.8,0.7,1.5,1.5,1.5H52c0.1,0.2,0.1,0.3,0.1,0.5c0,0,0,0,0,0c0,0,0,0,0,0.1c0,0.1,0,0.3,0,0.4c0,0.1,0,0.1,0,0.2c0,0,0,0,0,0.1
		c0,0.1,0,0.2-0.1,0.3c0,0.2-0.1,0.3-0.1,0.5c0,0.1-0.1,0.3-0.1,0.4c-0.3,0.7-0.7,1.4-1.2,2c-0.8,1-1.6,1.9-2.5,2.7
		c-0.6,0.6-0.6,1.6,0,2.2c0.5,0.5,1.2,0.6,1.8,0.2c0.2-0.1,0.4-0.2,0.6-0.3c0,0,0,0,0,0c0,0,0,0,0,0c0.1-0.1,0.3-0.1,0.4-0.2
		c0.3-0.1,0.6-0.2,0.8-0.3c0.3-0.1,0.6-0.2,1-0.2c0.1,0,0.1,0,0.2,0c0,0,0.1,0,0.1,0c0.2,0,0.4,0,0.6,0h0.5c0,0,0.3,0,0.4,0
		c0.4,0.1,0.8,0.2,1.2,0.3c0.8,0.4,1.7,0.7,2.6,0.9c1,0.2,2,0.1,3,0c1.3-0.2,2.5-0.8,3.5-1.6c0.6-0.6,0.6-1.6,0-2.2
		C64.2,181.4,63.4,181.3,62.8,181.8z M52.2,177.2c0,0.1,0,0.2,0,0.2C52.1,177.4,52.2,177.3,52.2,177.2z"/>
	<path fill="#C4C4C4" d="M51.9,168.6C51.9,168.6,51.9,168.6,51.9,168.6C51.9,168.8,52,168.8,51.9,168.6z"/>
	<path fill="#C4C4C4" d="M59.3,165.1C59.2,165.1,59.1,165,59.3,165.1L59.3,165.1z"/>
	<path fill="#C4C4C4" d="M60.3,166.4C60.3,166.5,60.3,166.5,60.3,166.4L60.3,166.4z"/>
	<path fill="#C4C4C4" d="M92.7,175.5c-0.6-0.3-1.3-0.1-1.6,0.4h0c-2.2,2.8-4.3,5.7-6.4,8.5c-1.8-2.4-3.7-4.9-5.5-7.3
		c-0.3-0.4-0.6-0.8-0.9-1.2c-0.3-0.5-1.1-0.7-1.6-0.4c-0.6,0.3-0.7,1.1-0.4,1.6c1.9,2.5,3.8,5.1,5.8,7.6H80c-0.7,0-1.2,0.5-1.2,1.2
		c0,0.7,0.5,1.2,1.2,1.2h3.4v3.3H80c-0.7,0-1.2,0.5-1.2,1.2c0,0.7,0.5,1.2,1.2,1.2h3.4v3c0,0.7,0.5,1.2,1.2,1.2
		c0.7,0,1.2-0.5,1.2-1.2v-3h3.4c0.7,0,1.2-0.5,1.2-1.2c0-0.7-0.5-1.2-1.2-1.2h-3.4v-3.3h3.4c0.7,0,1.2-0.5,1.2-1.2
		c0-0.7-0.5-1.2-1.2-1.2h-1.9c1.6-2.1,3.2-4.3,4.8-6.4c0.3-0.4,0.6-0.8,0.9-1.2C93.5,176.6,93.3,175.9,92.7,175.5z"/>
	<path fill="#C4C4C4" d="M27.5,130.2C27.5,130.2,27.5,130.2,27.5,130.2C27.5,130.1,27.5,130.1,27.5,130.2
		C27.5,130.2,27.5,130.2,27.5,130.2z"/>
	<path fill="#C4C4C4" d="M39.6,136.3c-1.8-1-3.8-1.7-5.9-2.1c-0.5-0.1-1-0.3-1.5-0.4c-0.2-0.1-0.4-0.2-0.7-0.2
		c-0.1,0-0.2-0.1-0.3-0.1c0.3,0.1-0.1,0-0.2-0.1c-0.4-0.2-0.7-0.3-1-0.6c-0.2-0.1-0.3-0.2-0.5-0.3c-0.1-0.1-0.2-0.1-0.3-0.2
		c0,0,0,0,0,0c-0.2-0.2-0.5-0.4-0.7-0.6c-0.1-0.1-0.2-0.3-0.4-0.4c0,0,0,0,0,0c0,0,0,0,0,0c-0.2-0.2-0.3-0.5-0.5-0.8
		c0-0.1-0.1-0.1-0.1-0.2c0,0,0,0,0-0.1c0,0,0-0.1-0.1-0.1c0,0,0,0.1,0.1,0.1c0,0,0-0.1-0.1-0.1c-0.1-0.3-0.2-0.5-0.2-0.8
		c0,0,0-0.1,0-0.2c0,0,0-0.1,0-0.1c0-0.3-0.1-1.1,0-1.4c-0.1,0.1,0,0.3,0,0c0-0.1,0-0.2,0.1-0.4c0.1-0.3,0.2-0.6,0.2-0.9l0.1-0.2
		c0,0,0,0,0-0.1l0-0.1c0,0,0,0.1,0,0.1c0,0,0,0,0-0.1c0.2-0.3,0.3-0.5,0.5-0.8c0,0,0,0,0,0c0,0,0,0,0,0c0.1-0.1,0.2-0.2,0.3-0.3
		c0.1-0.1,0.2-0.2,0.4-0.4c0,0,0.1-0.1,0.1-0.1c0,0,0,0,0,0c0.3-0.2,0.6-0.4,0.9-0.5c0,0,0.1,0,0.1,0c0,0,0,0,0,0
		c0.2-0.1,0.4-0.2,0.6-0.2c0.8-0.3,1.6-0.4,2.5-0.4c0.5,0,1,0,1.5,0c0.1,0,0.3,0,0.4,0c0.1,0,0.1,0,0.1,0c0.2,0,0.3,0.1,0.5,0.1
		c0.3,0.1,0.7,0.2,1,0.3c0.1,0,0.4,0.2,0.3,0.1c0.1,0,0.2,0.1,0.3,0.1c0.2,0.1,0.5,0.3,0.7,0.4c0,0,0,0,0,0c0,0,0,0,0,0
		c0.1,0.1,0.2,0.2,0.3,0.3c0.1,0.1,0.2,0.2,0.2,0.3c0,0,0.1,0.1,0.1,0.1c0,0,0.1,0.1,0.1,0.1c0.1,0.1,0.2,0.3,0.2,0.4
		c0,0.1,0.1,0.2,0.2,0.3c0,0,0,0.1,0,0.1c0,0.1,0.1,0.2,0.1,0.3c0.1,0.3,0.1,0.6,0.2,0.9c0,0.1,0,0.2,0,0.3v0.3
		c0,1.2,0.9,2.1,2.1,2.2c1.2,0,2.1-0.9,2.2-2.1l0,0c0.2-4.5-3.5-8-7.7-8.6c-0.1,0-0.2,0-0.3,0v-3.1c0-1.2-1-2.1-2.1-2.1
		c-1.2,0-2.1,1-2.1,2.1v3c-2.3,0.3-4.5,1.1-6.1,2.9c-3.5,3.8-3.3,9.8,0.6,13.3c0.6,0.5,1.3,1,2,1.4c1.9,1,3.9,1.7,5.9,2
		c0.5,0.1,1,0.3,1.5,0.4l0.6,0.2c0.2,0.1,0,0,0,0c0.2,0.1,0.3,0.1,0.5,0.2c0.3,0.2,0.7,0.4,1,0.6c0.2,0.1,0.3,0.2,0.5,0.3
		c0,0,0.1,0.1,0.2,0.1c0,0,0.1,0.1,0.1,0.1c0.2,0.2,0.5,0.4,0.7,0.7c0.1,0.1,0.2,0.3,0.3,0.4c-0.3-0.3-0.1-0.1,0.1,0.1
		c0.2,0.3,0.3,0.5,0.5,0.8c0,0,0,0.1,0,0.1c0,0.1,0.1,0.2,0.1,0.3c0.1,0.2,0.1,0.5,0.2,0.7c0,0,0-0.1,0-0.1c0,0,0,0.1,0,0.2
		c0,0.1,0,0.1,0,0.1c0,0.1,0,0.1,0,0.2c0,0.2,0,0.5,0,0.7c0,0.1,0,0.2,0,0.3c0,0,0,0,0,0.1c0,0,0,0,0,0c0,0,0,0,0,0.1
		c0,0,0,0.1,0,0.1c0,0.1,0,0.2,0,0.1c0,0.2,0,0.3-0.1,0.5c-0.1,0.3-0.2,0.6-0.2,0.9c0,0,0,0,0,0.1c0,0,0-0.1,0-0.1c0,0,0,0.1,0,0.1
		c0,0.1-0.1,0.2,0,0.1c0,0.1-0.1,0.1-0.1,0.2c-0.1,0.3-0.3,0.6-0.5,0.8c0,0,0,0,0,0c0,0,0,0,0,0c-0.1,0.1-0.2,0.2-0.3,0.3
		c-0.1,0.1-0.2,0.2-0.4,0.3c0,0-0.1,0.1-0.1,0.1c0,0,0,0,0,0c-0.3,0.2-0.6,0.4-0.9,0.5c0,0-0.1,0-0.1,0.1c-0.2,0.1-0.4,0.1-0.6,0.2
		c-0.2,0.1-0.4,0.1-0.7,0.2c-0.1,0-0.3,0.1-0.4,0.1c0,0-0.4,0-0.5,0c-0.3,0-0.5,0-0.8,0c-0.5,0-1,0-1.5,0c-0.1,0-0.3,0-0.4,0
		c-0.1,0-0.1,0-0.1,0l-0.5-0.1c-0.3-0.1-0.7-0.2-1-0.3c-0.1,0-0.5-0.2-0.3-0.1c-0.1,0-0.2-0.1-0.3-0.1c-0.3-0.1-0.5-0.3-0.7-0.4
		c0,0,0,0,0,0c0,0,0,0,0,0c-0.1-0.1-0.2-0.2-0.3-0.3c-0.1-0.1-0.2-0.2-0.2-0.3c0,0-0.1-0.1-0.1-0.1c0,0-0.1-0.1-0.1-0.1
		c-0.1-0.1-0.2-0.3-0.2-0.3c0-0.1-0.1-0.2-0.2-0.3c0,0,0-0.1,0-0.1c0-0.1-0.1-0.2-0.1-0.3c-0.1-0.3-0.1-0.6-0.2-0.9
		c0-0.1,0-0.2,0-0.3V145c0-1.2-1-2.1-2.1-2.1s-2.1,1-2.1,2.1c0,1.4,0.3,2.8,0.9,4c1.4,2.5,3.9,4.2,6.8,4.6c0.1,0,0.1,0,0.2,0v3
		c0,1.2,1,2.1,2.1,2.1c1.2,0,2.1-1,2.1-2.1v-2.9c2.3-0.3,4.6-1.1,6.2-2.8c1.8-2,2.7-4.6,2.5-7.3C44.1,140.6,42.3,137.8,39.6,136.3z
		 M38.7,125c-0.1-0.1-0.2-0.2-0.2-0.2C38.6,124.8,38.6,124.9,38.7,125z M39.8,142.5C39.9,142.6,39.9,142.7,39.8,142.5L39.8,142.5z
		 M28.6,147.6c0.1,0.1,0.2,0.2,0.2,0.2C28.7,147.9,28.7,147.8,28.6,147.6z M32.3,149.5C32.3,149.5,32.3,149.5,32.3,149.5
		C32.3,149.5,32.3,149.5,32.3,149.5z"/>
	<path fill="#C4C4C4" d="M40.1,143.6C40.1,143.6,40.1,143.6,40.1,143.6c0,0,0,0.1,0,0.1C40.1,143.7,40.1,143.7,40.1,143.6
		C40.1,143.6,40.1,143.6,40.1,143.6z"/>
	<path fill="#C4C4C4" d="M40.1,145c-0.1,0.1-0.1,0.2-0.1,0.2C40.1,145.1,40.1,145.1,40.1,145C40.1,145,40.1,145,40.1,145z"/>
	<path fill="#C4C4C4" d="M27.6,126.1c0,0,0-0.1,0-0.1C27.6,126,27.6,126,27.6,126.1L27.6,126.1z"/>
	<path fill="#C4C4C4" d="M39.7,146.6C39.7,146.6,39.7,146.7,39.7,146.6C39.7,146.7,39.7,146.6,39.7,146.6
		C39.7,146.6,39.7,146.6,39.7,146.6z"/>
</g>
<path fill="#C4C4C4" d="M142.9,33.5l-8.5-3.9c-0.4-0.2-0.8-0.4-1.2-0.6c-0.6-0.3-1.4-0.1-1.8,0.5c-0.4,0.6-0.2,1.5,0.5,1.8l6.7,3.1
	c-4.7,1.4-9.1,3.7-13,6.6c-4.2,3.2-7.7,7.3-10.2,11.9c-1.4,2.6-2.4,5.4-3,8.2c-0.2,0.7,0.2,1.4,0.9,1.6c0.7,0.2,1.4-0.2,1.6-0.9
	c0,0,0,0,0,0l0,0c0.3-1.2,0.6-2.4,1-3.6c0.2-0.6,0.4-1.2,0.7-1.7c-0.1,0.2,0.1-0.2,0.1-0.2c0.1-0.1,0.1-0.3,0.2-0.4
	c0.1-0.3,0.3-0.6,0.4-0.8c0.5-1.1,1.1-2.2,1.8-3.2c0.3-0.5,0.7-1.1,1.1-1.6c0.2-0.2,0.3-0.5,0.5-0.7c0,0,0.2-0.2,0,0l0.1-0.2
	c0.1-0.1,0.2-0.3,0.3-0.4c1.6-1.9,3.3-3.7,5.3-5.3c0.1-0.1,0.2-0.2,0.4-0.3c0,0,0.3-0.2,0.2-0.1c0.3-0.2,0.5-0.4,0.8-0.6
	c0.5-0.4,1-0.7,1.6-1.1c1.1-0.7,2.2-1.4,3.3-1.9c0.7-0.3,1.3-0.7,2-1c0.2-0.1,0.3-0.1,0.4-0.2c0,0,0.5-0.2,0.3-0.1
	c0.3-0.1,0.7-0.3,1-0.4c1.1-0.4,2.2-0.8,3.3-1.1l-2.6,5.6c-0.2,0.4-0.4,0.8-0.6,1.2c-0.3,0.6-0.1,1.4,0.5,1.8
	c0.6,0.4,1.5,0.2,1.8-0.5l3.9-8.5c0.2-0.4,0.4-0.8,0.6-1.2C143.7,34.7,143.5,33.9,142.9,33.5z"/>
</svg>
