<?xml version="1.0" encoding="utf-8"?>
<!-- Generator: Adobe Illustrator 24.3.0, SVG Export Plug-In . SVG Version: 6.00 Build 0)  -->
<svg version="1.2" baseProfile="tiny" id="Layer_1" xmlns="http://www.w3.org/2000/svg" xmlns:xlink="http://www.w3.org/1999/xlink"
	 x="0px" y="0px" viewBox="0 0 205 205" overflow="visible" xml:space="preserve">
<path fill="#C4C4C4" stroke="#C4C4C4" stroke-width="3" stroke-miterlimit="10" d="M173.2,70.6c0-1.2-1-2.1-2.1-2.1l-5,0
	c-0.2-0.4-0.5-0.9-0.7-1.3l2.5-4.3c0.6-1,0.2-2.3-0.8-2.9l-8.3-4.8c0,0,0,0,0,0c-1-0.6-2.3-0.2-2.9,0.8l-2.5,4.3c-0.5,0-1,0-1.5,0
	l-2.5-4.3c-0.6-1-1.9-1.4-2.9-0.8l-8.3,4.7c0,0,0,0,0,0c-1,0.6-1.4,1.9-0.8,2.9l2.5,4.3c-0.1,0.2-0.3,0.4-0.4,0.6
	c-0.1,0.2-0.2,0.4-0.3,0.6l-5,0c0,0,0,0,0,0c-1.2,0-2.1,1-2.1,2.1l0,9.5c0,1.2,1,2.1,2.1,2.1l5,0c0.2,0.4,0.5,0.9,0.7,1.3l-2.5,4.3
	c-0.6,1-0.2,2.3,0.8,2.9l8.3,4.8c0,0,0,0,0,0c1,0.6,2.3,0.2,2.9-0.8l2.5-4.3c0.5,0,1,0,1.5,0l2.5,4.3c0.6,1,1.9,1.4,2.9,0.8l8.3-4.7
	c0,0,0,0,0,0c1-0.6,1.4-1.9,0.8-2.9l-2.5-4.3c0.1-0.2,0.3-0.4,0.4-0.6c0.1-0.2,0.2-0.4,0.3-0.6l5,0c0,0,0,0,0,0c1.2,0,2.1-1,2.1-2.1
	L173.2,70.6z M164.2,79.2l-0.4,0.9c-0.4,0.8-0.8,1.6-1.4,2.4l-0.6,0.8l3,5.2l-6.8,3.9l-3-5.2l-1,0.1c-0.9,0.1-1.8,0.1-2.7,0l-1-0.1
	l-3,5.2l-6.8-3.9l0,0l3-5.2l-0.6-0.8c-0.5-0.7-1-1.5-1.4-2.4l-0.4-0.9l-6.1,0l0-7.8l6.1,0l0.4-0.9c0.4-0.8,0.8-1.6,1.4-2.4l0.6-0.8
	l-3-5.2l6.8-3.9l3,5.2l1-0.1c0.9-0.1,1.8-0.1,2.7,0l1,0.1l3-5.2l6.8,3.9l-3,5.2l0.6,0.8c0.5,0.7,1,1.5,1.4,2.4l0.4,0.9l6.1,0l0,7.8
	L164.2,79.2z"/>
<path fill="#C4C4C4" d="M152.2,79.3c-0.1,0-0.2,0-0.3-0.1c-0.2,0-0.3-0.1-0.5-0.1c-0.1,0-0.2-0.1-0.3-0.1c-0.2-0.1-0.3-0.1-0.5-0.2
	c-0.1-0.1-0.3-0.2-0.4-0.3c-0.1-0.1-0.2-0.1-0.3-0.2c-0.1-0.1-0.2-0.2-0.3-0.3c-0.1-0.1-0.2-0.2-0.2-0.3c-0.1-0.1-0.2-0.2-0.2-0.4
	c-0.1-0.1-0.1-0.2-0.2-0.3c-0.1-0.2-0.1-0.3-0.2-0.5c0-0.1-0.1-0.1-0.1-0.2c0-0.1-0.1-0.3-0.1-0.4c0-0.1,0-0.2-0.1-0.3
	c0-0.1,0-0.2,0-0.3c0-0.2,0-0.3,0-0.5c0-0.1,0-0.1,0-0.2c0-0.2,0.1-0.4,0.1-0.6c0-0.1,0.1-0.3,0.2-0.4c0.1-0.1,0.1-0.2,0.2-0.3
	c0.1-0.1,0.1-0.2,0.2-0.3c0.1-0.1,0.2-0.3,0.3-0.4c0.1-0.1,0.2-0.2,0.3-0.2c0.1-0.1,0.2-0.2,0.3-0.3c0.1-0.1,0.2-0.1,0.3-0.2
	c0.1-0.1,0.2-0.2,0.4-0.2c0.1,0,0.2-0.1,0.3-0.1c0.1-0.1,0.3-0.1,0.4-0.2c0.1,0,0.2,0,0.3-0.1c0.1,0,0.3-0.1,0.4-0.1
	c0.1,0,0.2,0,0.4,0c0.1,0,0.3,0,0.4,0c0.1,0,0.3,0.1,0.4,0.1c0.1,0,0.2,0,0.4,0.1c0.1,0,0.3,0.1,0.4,0.2c0.1,0.1,0.2,0.1,0.3,0.2
	l0,0c0,0,0,0,0,0c2,1.1,2.6,3.6,1.5,5.6c-0.1,0.1-0.2,0.3-0.3,0.4c-0.1,0.1-0.1,0.2-0.2,0.3c-0.1,0.1-0.2,0.2-0.3,0.3
	c-0.1,0.1-0.2,0.2-0.3,0.3c-0.6,0.5-1.4,0.8-2.2,0.8c0,0-0.1,0-0.1,0C152.7,79.4,152.4,79.4,152.2,79.3z"/>
<path fill="#C4C4C4" d="M85.8,38.9C86.2,39.2,86,39,85.8,38.9L85.8,38.9z"/>
<path fill="#C4C4C4" d="M88.6,61.9C88.3,62.3,88.4,62.1,88.6,61.9L88.6,61.9z"/>
<path fill="#C4C4C4" d="M85.8,64.7C86,64.5,86.2,64.4,85.8,64.7L85.8,64.7z"/>
<path fill="#C4C4C4" d="M62.7,61.9C62.9,62.1,63.1,62.3,62.7,61.9L62.7,61.9z"/>
<path fill="#C4C4C4" d="M65.5,64.7C65.2,64.4,65.3,64.5,65.5,64.7L65.5,64.7z"/>
<path fill="#C4C4C4" d="M65.6,38.8C65.3,39,65.1,39.2,65.6,38.8L65.6,38.8z"/>
<path fill="#C4C4C4" d="M88.7,41.7C88.5,41.4,88.3,41.2,88.7,41.7L88.7,41.7z"/>
<path fill="#C4C4C4" d="M64.9,74.5c5,2.3,10.6,3,16,1.9c10-2.1,17.8-10.2,19.5-20.3c0.2-1.4,0.4-2.8,0.4-4.2c0,0,0-0.1,0-0.1
	c0-5.1-1.6-10.1-4.5-14.3c-3.1-4.3-7.3-7.6-12.3-9.4c-9.8-3.5-20.8-0.5-27.6,7.4c-3.4,4.1-5.5,9.2-5.9,14.5
	C49.9,60.4,55.6,70.1,64.9,74.5z M59.4,49.6c0.2-0.9,0.4-1.9,0.6-2.8c0.1-0.5,0.3-1,0.5-1.4c0,0,0,0,0-0.1c0.1-0.3,0.2-0.5,0.4-0.8
	c0.5-0.9,1-1.8,1.6-2.6c0.1-0.1,0.2-0.2,0.2-0.3c-0.1,0.1-0.2,0.2-0.3,0.4c0.2-0.2,0.3-0.4,0.5-0.6c0.4-0.4,0.7-0.8,1.1-1.2
	c0.4-0.4,0.8-0.8,1.2-1.1c0.2-0.2,0.4-0.3,0.6-0.5c-0.1,0.1-0.2,0.2-0.3,0.3c0.1-0.1,0.2-0.2,0.3-0.2c0.8-0.6,1.7-1.1,2.6-1.6
	c0.3-0.1,0.5-0.3,0.8-0.4c0,0,0,0,0,0c0.5-0.2,1-0.4,1.5-0.5c0.9-0.3,1.9-0.5,2.8-0.6c1.4-0.1,2.9-0.1,4.3,0
	c0.9,0.2,1.9,0.4,2.8,0.6c0.5,0.1,1,0.3,1.4,0.5c0,0,0,0,0.1,0c0.3,0.1,0.5,0.2,0.8,0.4c0.9,0.5,1.8,1,2.6,1.6
	c0.1,0.1,0.2,0.2,0.3,0.2c-0.1-0.1-0.2-0.2-0.4-0.3c0.2,0.2,0.4,0.3,0.6,0.5c0.4,0.4,0.8,0.7,1.2,1.1c0.4,0.4,0.8,0.8,1.1,1.2
	c0.2,0.2,0.3,0.4,0.5,0.6c-0.1-0.1-0.2-0.2-0.3-0.3c0.1,0.1,0.2,0.2,0.2,0.3c0.6,0.8,1.1,1.7,1.6,2.6c0.1,0.3,0.3,0.5,0.4,0.8
	c0,0,0,0,0,0c0.2,0.5,0.4,1,0.5,1.5c0.3,0.9,0.5,1.8,0.6,2.8c0.1,0.7,0.1,1.4,0.1,2.2c0,0,0,0,0,0l0,0c0,0.7,0,1.5-0.1,2.2
	c-0.2,0.9-0.4,1.9-0.6,2.8c-0.1,0.5-0.3,1-0.5,1.4c0,0,0,0,0,0.1c-0.1,0.3-0.2,0.5-0.4,0.8c-0.5,0.9-1,1.8-1.6,2.6
	c-0.1,0.1-0.2,0.2-0.2,0.3c0.1-0.1,0.2-0.2,0.3-0.4c-0.2,0.2-0.3,0.4-0.5,0.6c-0.4,0.4-0.7,0.8-1.1,1.2c-0.4,0.4-0.8,0.8-1.2,1.1
	c-0.2,0.2-0.4,0.3-0.6,0.5c0.1-0.1,0.2-0.2,0.3-0.3c-0.1,0.1-0.2,0.2-0.3,0.2c-0.8,0.6-1.7,1.1-2.6,1.6c-0.3,0.1-0.5,0.3-0.8,0.4
	c0,0,0,0,0,0c-0.5,0.2-1,0.4-1.5,0.5c-0.9,0.3-1.9,0.5-2.8,0.6c-1.4,0.1-2.9,0.1-4.3,0c-0.9-0.2-1.9-0.4-2.8-0.6
	c-0.5-0.1-1-0.3-1.4-0.5c0,0,0,0-0.1,0c-0.3-0.1-0.5-0.2-0.8-0.4c-0.9-0.5-1.8-1-2.6-1.6c-0.1-0.1-0.2-0.2-0.3-0.2
	c0.1,0.1,0.2,0.2,0.4,0.3c-0.2-0.2-0.4-0.3-0.6-0.5c-0.4-0.4-0.8-0.7-1.2-1.1c-0.4-0.4-0.8-0.8-1.1-1.2c-0.2-0.2-0.3-0.4-0.5-0.6
	c0.1,0.1,0.2,0.2,0.3,0.3c-0.1-0.1-0.2-0.2-0.2-0.3c-0.6-0.8-1.1-1.7-1.6-2.6c-0.1-0.3-0.3-0.5-0.4-0.8c0,0,0,0,0,0
	c-0.2-0.5-0.4-1-0.5-1.5c-0.3-0.9-0.5-1.9-0.6-2.8C59.2,52.5,59.2,51,59.4,49.6z"/>
<path fill="#C4C4C4" d="M62.8,41.6C63.1,41.3,62.9,41.4,62.8,41.6L62.8,41.6z"/>
<path fill="#C4C4C4" d="M163.5,111.6c-2.2-0.6-4.5-0.9-6.8-0.7h-21l-8.6-9.2c-4.6-4.9-9.1-9.7-13.7-14.6c-0.4-0.5-0.9-0.9-1.3-1.4
	c-2.7-2.7-6.5-4.2-10.3-4.2H88.3c-1.6,0-3,0.8-3.8,2.2c-2.3,4.1-4.6,8.2-6.9,12.3c-1.9-3.3-3.8-6.7-5.6-10c-0.4-0.8-0.9-1.5-1.3-2.3
	c-0.8-1.4-2.2-2.2-3.8-2.2h-7.3c-2.8-0.1-5.6,0-8.5,0.2c-4.5,0.5-9,1.7-12.7,4.4c-3.7,2.7-6.4,6.5-7.8,10.9
	c-1.6,4.7-1.5,9.7-1.5,14.6v43.3c0,1.1,0,2.2,0,3.2c0.5,7.9,7.3,13.9,15.2,13.4c1.8-0.1,3.6-0.6,5.1-1.3c0.3,2,1,3.9,2.5,5.4
	c1.8,1.7,4.1,2.3,6.5,2.6c2.3,0.2,4.7,0.3,7,0.2h26.5c3.8,0,8.5,0.1,11.4-2.8c2.9-2.9,2.8-7.5,2.8-11.4c0-4.1,0-8.2,0-12.3
	c0-7.4,0-14.8,0-22.2c0-2.3,0-4.6,0-7c0.8,0.7,1.7,1.4,2.5,2c4.1,3.3,8.2,6.6,12.2,9.9c1,0.8,2,1.6,3,2.4c2.3,1.4,5,2.2,7.8,2.2
	c1.6,0,3.2,0,4.9,0h18.4c1.4,0,2.7,0,4.1,0c6.2-0.1,11.6-4,13.5-9.9c0.5-1.4,0.7-2.8,0.7-4.3c0-0.2,0-0.4-0.1-0.6
	C172.9,118.6,169.1,113.5,163.5,111.6z M45.4,162.5l0.4-0.2C45.7,162.4,45.5,162.4,45.4,162.5z M57.8,169.1c0,0,0.1,0.1,0.1,0.1
	c0,0,0,0,0,0c0,0,0,0,0,0c0,0,0,0,0,0c0,0,0,0,0,0c0,0,0,0-0.1-0.1C57.9,169.2,57.8,169.2,57.8,169.1
	C57.5,169,57.3,168.7,57.8,169.1C57.8,169.1,57.8,169.1,57.8,169.1z M58.1,169.4C58.1,169.4,58.1,169.4,58.1,169.4
	C58.1,169.4,58.1,169.4,58.1,169.4C58.1,169.4,58.1,169.4,58.1,169.4z M58.2,169.5c0,0,0.1,0.1,0.1,0.1
	C58.3,169.5,58.2,169.5,58.2,169.5C58.2,169.5,58.2,169.5,58.2,169.5z M58.2,169.6C58.2,169.5,58.2,169.5,58.2,169.6
	C58.7,170.1,58.4,169.9,58.2,169.6z M97.1,169.3C97.1,169.2,97.1,169.2,97.1,169.3C97.1,169.2,97.1,169.2,97.1,169.3
	C97.1,169.3,97.1,169.3,97.1,169.3z M97.3,169.2C97.2,169.2,97.2,169.2,97.3,169.2C97.7,168.7,97.6,169,97.3,169.2z M97.2,169.2
	C97.2,169.2,97.2,169.2,97.2,169.2c0,0,0.1-0.1,0.1-0.1C97.2,169.1,97.2,169.1,97.2,169.2z M96.9,169.5
	C96.8,169.5,96.8,169.6,96.9,169.5C96.8,169.5,96.8,169.5,96.9,169.5C96.9,169.5,96.9,169.5,96.9,169.5
	C96.9,169.5,96.9,169.5,96.9,169.5C96.9,169.4,96.9,169.4,96.9,169.5C97,169.4,96.9,169.4,96.9,169.5
	C96.9,169.4,96.9,169.5,96.9,169.5C96.9,169.5,96.9,169.5,96.9,169.5C96.7,169.9,96.4,170,96.9,169.5z M128.9,129.9
	c0,0,0.1,0,0.2,0.1C129,130,129,129.9,128.9,129.9z M162.4,129.3c-0.4,0.2-0.7,0.5-1.1,0.7l-0.1,0.1c-0.1,0-0.3,0.1-0.4,0.1
	c-0.3,0.1-0.6,0.2-0.9,0.2c-1.1,0.1-2.2,0.1-3.3,0.1h-21.9c-1.3,0.1-2.6,0-3.9-0.1c-0.3-0.1-0.6-0.1-1-0.2c-0.1,0-0.3-0.1-0.4-0.1
	c0,0,0,0,0,0c-0.2-0.1-0.4-0.2-0.5-0.3c-0.2-0.1-0.3-0.2-0.5-0.3c0,0-0.1,0-0.3-0.1c0,0-0.1-0.1-0.1-0.1c-0.1,0-0.1-0.1-0.2-0.1
	c0,0,0.1,0,0.1,0.1c-0.1-0.1-0.3-0.3-0.4-0.4c-0.3-0.3-0.6-0.5-0.9-0.8c-1.7-1.3-3.3-2.7-5-4c-4.5-3.6-9-7.2-13.4-10.9
	c-1.1-0.9-2.2-1.8-3.3-2.7c-1.3-1.2-3.2-1.6-4.8-0.9c-1.6,0.7-2.7,2.3-2.7,4c0,1.8,0,3.7,0,5.6c0,4.4,0,8.8,0,13.2
	c0,5.2,0,10.3,0,15.5c0,4.1,0,8.2,0,12.3c0,2.4,0,4.7-0.1,7.1c0,0.5-0.1,0.9-0.1,1.4c0,0.2-0.1,0.4-0.1,0.6c-0.2,0-0.4,0.1-0.6,0.1
	c-1.9,0.2-3.9,0.2-5.9,0.2H65.2c-2.2,0.1-4.3,0-6.5-0.2c-0.2,0-0.4-0.1-0.6-0.1c-0.1-0.2-0.1-0.4-0.1-0.6c-0.2-3.1-0.3-6.3-0.2-9.4
	c0-3,0-6,0-8.9c0-5,0-9.9,0-14.9c0-2.5,0-4.9,0-7.4v-10.5c0-0.1,0-0.1,0-0.2v-3.7h0v0c0-2.4-2-4.4-4.4-4.4s-4.4,2-4.4,4.4v38.6
	c0.1,2,0.1,4-0.1,5.9c-0.1,0.3-0.2,0.7-0.3,1c0,0.1-0.1,0.1-0.1,0.2c0,0.1-0.1,0.2-0.2,0.3c-0.1,0.3-0.3,0.6-0.5,0.8
	c-0.1,0.1-0.1,0.1-0.2,0.2c-0.2,0.2-0.3,0.4-0.5,0.5c-0.1,0.1-0.3,0.3-0.4,0.4c-0.4,0.3-0.8,0.5-1.2,0.7c-0.1,0-0.1,0.1-0.2,0.1
	c-0.1,0-0.2,0.1-0.3,0.1c-0.2,0.1-0.5,0.1-0.7,0.2c-0.6,0.1-1.2,0.1-1.9,0c-0.3-0.1-0.5-0.1-0.8-0.2c-0.2-0.1-0.4-0.1-0.6-0.2
	c-0.4-0.2-0.8-0.5-1.2-0.7c-0.2-0.2-0.3-0.3-0.5-0.5c-0.2-0.2-0.3-0.3-0.5-0.5c-0.2-0.4-0.5-0.7-0.7-1.1c0,0,0,0,0,0
	c-0.1-0.2-0.1-0.3-0.2-0.5c-0.1-0.3-0.2-0.6-0.2-0.8c-0.1-2-0.2-4-0.1-6v-40.1c-0.1-3,0-5.9,0.3-8.8c0.2-1.5,0.6-2.9,1.1-4.3
	c0-0.1,0.1-0.2,0.1-0.3c0.2-0.3,0.3-0.7,0.5-1c0.4-0.7,0.8-1.4,1.2-2c0,0,0,0,0-0.1c0.2-0.3,0.5-0.6,0.8-0.9
	c0.4-0.4,0.9-0.8,1.3-1.2c0.2-0.1,0.4-0.3,0.5-0.4c0.3-0.2,0.7-0.4,1-0.6c0.3-0.2,0.7-0.4,1-0.5c0.1-0.1,0.2-0.1,0.3-0.2
	c1.6-0.6,3.2-1,4.8-1.3c2.1-0.2,4.3-0.3,6.4-0.3h7c2.7,4.8,5.4,9.6,8.2,14.5c0.4,0.8,0.9,1.6,1.3,2.4c1.3,2.1,4,2.8,6.1,1.5
	c0.6-0.4,1.1-0.9,1.5-1.5c3.2-5.6,6.3-11.2,9.4-16.7c0,0,0-0.1,0.1-0.1h10.9c0.4,0,0.7,0,1.1,0.1c0.3,0.1,0.7,0.2,1,0.3
	c0.1,0,0.1,0,0.2,0.1c0.2,0.1,0.5,0.2,0.7,0.4c0.2,0.1,0.5,0.4,0.7,0.5c0,0,0.1,0.1,0.1,0.1c0.1,0.1,0.2,0.2,0.3,0.3
	c0.3,0.3,0.5,0.5,0.8,0.8c1.3,1.4,2.6,2.8,4,4.2c4.1,4.4,8.2,8.8,12.4,13.2c1.7,1.9,3.5,3.7,5.2,5.6c0.8,0.9,1.6,1.8,2.4,2.6
	c1.7,1.6,3.9,1.3,6,1.3h8.3c4.7,0,9.3,0,14,0c0.3,0,0.6,0,0.8,0c0.3,0.1,0.6,0.1,1,0.2c0.2,0,0.3,0.1,0.5,0.2l0.1,0.1
	c0.4,0.2,0.7,0.4,1.1,0.7c0.2,0.1,0.3,0.3,0.5,0.4c0.2,0.2,0.3,0.3,0.4,0.5c0.2,0.4,0.5,0.7,0.7,1.1l0.1,0.1c0,0.1,0.1,0.3,0.1,0.4
	c0.1,0.3,0.2,0.6,0.2,0.9c0,0.2,0,0.5,0,0.7c0,0,0,0,0,0c0,0.2,0,0.5,0,0.7c-0.1,0.3-0.1,0.7-0.2,1c0,0.2-0.1,0.3-0.2,0.5l-0.1,0.1
	c-0.2,0.4-0.4,0.7-0.7,1.1c-0.1,0.2-0.3,0.3-0.4,0.5C162.7,129,162.5,129.2,162.4,129.3z"/>
<path fill="#C4C4C4" d="M96.9,169.5C96.9,169.5,96.9,169.5,96.9,169.5C96.9,169.5,96.9,169.5,96.9,169.5
	C96.9,169.5,96.9,169.5,96.9,169.5z"/>
<path fill="#C4C4C4" d="M57.9,169.2C57.9,169.2,57.9,169.2,57.9,169.2C57.9,169.2,57.9,169.2,57.9,169.2
	C57.9,169.2,57.9,169.2,57.9,169.2z"/>
<path fill="#C4C4C4" d="M127.9,129.2C127.9,129.2,127.9,129.2,127.9,129.2c0.1,0.1,0.2,0.1,0.2,0.2c0.1,0,0.2,0.1,0.2,0.1
	C128.3,129.5,128.2,129.4,127.9,129.2z"/>
</svg>
