<?xml version="1.0" encoding="utf-8"?>
<!-- Generator: Adobe Illustrator 24.3.0, SVG Export Plug-In . SVG Version: 6.00 Build 0)  -->
<svg version="1.2" baseProfile="tiny" id="Layer_1" xmlns="http://www.w3.org/2000/svg" xmlns:xlink="http://www.w3.org/1999/xlink"
	 x="0px" y="0px" viewBox="0 0 205 205" overflow="visible" xml:space="preserve">
<g>
	<path id="Path_2873" fill="#C4C4C4" d="M154.6,4.7v34.1h5.7V4.7H154.6z"/>
	<path id="Path_2874" fill="#C4C4C4" d="M44.7,78.5h5.7V66.2h-5.7V78.5z"/>
	<path id="Path_2875" fill="#C4C4C4" d="M118,53.5h5.7V26.6H118V53.5z"/>
	<path id="Path_2876" fill="#C4C4C4" d="M121.4,89.4H118v16.2h5.7V89.4H121.4z"/>
	<path id="Path_2877" fill="#C4C4C4" d="M159.2,48.9h-4.6v31.6h5.7V48.9H159.2z"/>
	<path id="Path_2878" fill="#C4C4C4" d="M87.1,61.2h-5.7V79H70.3v94h11.1v27.3h5.7V173h11.1V79H87.1V61.2z"/>
	<path id="Path_2879" fill="#C4C4C4" d="M128.3,57.8v27.3h-14.9V57.8H128.3 M133.7,52.5h-25.6v37.9h25.6V52.5z"/>
	<path id="Path_2880" fill="#C4C4C4" d="M164.9,43.8v3.6H150v-3.6H164.9 M170.2,38.5h-25.6v14.2h25.6V38.5z"/>
	<path id="Path_2881" fill="#C4C4C4" d="M55.1,83.5v27.6h-15V83.5H55.1 M60.4,78.2H34.8v38.2h25.6L60.4,78.2L60.4,78.2z"/>
</g>
</svg>
