<?xml version="1.0" encoding="utf-8"?>
<!-- Generator: Adobe Illustrator 24.3.0, SVG Export Plug-In . SVG Version: 6.00 Build 0)  -->
<svg version="1.2" baseProfile="tiny" id="Layer_1" xmlns="http://www.w3.org/2000/svg" xmlns:xlink="http://www.w3.org/1999/xlink"
	 x="0px" y="0px" viewBox="0 0 205 205" overflow="visible" xml:space="preserve">
<path id="Path_4038" fill="#C4C4C4" d="M204,137.3c-3.5,1.4-7.1,2.9-11.3,2.9c-8.4,0-14.1-5.7-22.5-5.7c-8.5,0-14.1,5.7-22.6,5.7
	c-8.4,0-14.1-5.7-22.5-5.7c-8.5,0-14.1,5.7-22.6,5.7c-8.4,0-14.1-5.7-22.5-5.7c-8.5,0-14.1,5.7-22.6,5.7c-8.4,0-14.1-5.7-22.5-5.7
	c-8.5,0-14.1,5.7-22.6,5.7c-4.2,0-7.7-1.5-11.2-2.9v7.8c3.5,1.4,7,2.8,11.2,2.8c8.5,0,14.1-5.6,22.6-5.6c8.4,0,14.1,5.6,22.5,5.6
	c8.5,0,14.1-5.6,22.6-5.6c8.4,0,14.1,5.6,22.5,5.6c8.5,0,14.1-5.6,22.6-5.6c8.4,0,14.1,5.6,22.5,5.6c8.5,0,14.1-5.6,22.6-5.6
	c8.4,0,14.1,5.6,22.5,5.6c4.2,0,7.8-1.4,11.3-2.8V137.3z"/>
<path id="Path_4039" fill="#C4C4C4" d="M204,111.5c-3.5,1.4-7.1,2.8-11.3,2.8c-8.4,0-14.1-5.6-22.5-5.6c-8.5,0-14.1,5.6-22.6,5.6
	c-8.4,0-14.1-5.6-22.5-5.6c-8.5,0-14.1,5.6-22.6,5.6c-8.4,0-14.1-5.6-22.5-5.6c-8.5,0-14.1,5.6-22.6,5.6c-8.4,0-14.1-5.6-22.5-5.6
	c-8.5,0-14.1,5.6-22.6,5.6c-4.2,0-7.7-1.4-11.2-2.8v7.7c3.5,1.4,7,2.8,11.2,2.8c8.5,0,14.1-5.6,22.6-5.6c8.4,0,14.1,5.6,22.5,5.6
	c8.5,0,14.1-5.6,22.6-5.6c8.4,0,14.1,5.6,22.5,5.6c8.5,0,14.1-5.6,22.6-5.6c8.4,0,14.1,5.6,22.5,5.6c8.5,0,14.1-5.6,22.6-5.6
	c8.4,0,14.1,5.6,22.5,5.6c4.2,0,7.8-1.4,11.3-2.8V111.5z"/>
<path id="Path_4040" fill="#C4C4C4" d="M204,85.6c-3.5,1.4-7.1,2.8-11.3,2.8c-8.4,0-14.1-5.6-22.5-5.6c-8.5,0-14.1,5.6-22.6,5.6
	c-8.4,0-14.1-5.6-22.5-5.6c-8.5,0-14.1,5.6-22.6,5.6c-8.4,0-14.1-5.6-22.5-5.6c-8.5,0-14.1,5.6-22.6,5.6c-8.4,0-14.1-5.6-22.5-5.6
	c-8.5,0-14.1,5.6-22.6,5.6C8,88.4,4.5,87,1,85.6v7.8c3.5,1.4,7,2.8,11.2,2.8c8.5,0,14.1-5.7,22.6-5.7c8.4,0,14.1,5.7,22.5,5.7
	c8.5,0,14.1-5.7,22.6-5.7c8.4,0,14.1,5.7,22.5,5.7c8.5,0,14.1-5.7,22.6-5.7c8.4,0,14.1,5.7,22.5,5.7c8.5,0,14.1-5.7,22.6-5.7
	c8.4,0,14.1,5.7,22.5,5.7c4.2,0,7.8-1.4,11.3-2.8V85.6z"/>
<path id="Path_4041" fill="#C4C4C4" d="M204,59.8c-3.5,1.4-7.1,2.8-11.3,2.8c-8.4,0-14.1-5.6-22.5-5.6c-8.5,0-14.1,5.6-22.6,5.6
	c-8.4,0-14.1-5.6-22.5-5.6c-8.5,0-14.1,5.6-22.6,5.6C94,62.6,88.3,57,79.9,57c-8.5,0-14.1,5.6-22.6,5.6c-8.4,0-14.1-5.6-22.5-5.6
	c-8.5,0-14.1,5.6-22.6,5.6C8,62.6,4.5,61.2,1,59.8v7.7c3.5,1.4,7,2.8,11.2,2.8c8.5,0,14.1-5.6,22.6-5.6c8.4,0,14.1,5.6,22.5,5.6
	c8.5,0,14.1-5.6,22.6-5.6c8.4,0,14.1,5.6,22.5,5.6c8.5,0,14.1-5.6,22.6-5.6c8.4,0,14.1,5.6,22.5,5.6c8.5,0,14.1-5.6,22.6-5.6
	c8.4,0,14.1,5.6,22.5,5.6c4.2,0,7.8-1.4,11.3-2.8V59.8z"/>
</svg>
