<svg xmlns="http://www.w3.org/2000/svg" width="43.001" height="51.76" viewBox="0 0 43.001 51.76"><g transform="translate(-1774 -286.91)"><g transform="translate(21.161 22.824)"><g transform="translate(1770.363 288.366)"><path class="fill_main-color" d="M11.914,11.828a4.914,4.914,0,1,1,4.914-4.914,4.914,4.914,0,0,1-4.914,4.914Zm0-7.862a2.948,2.948,0,1,0,2.948,2.948,2.948,2.948,0,0,0-2.948-2.948Z" transform="translate(7.78 -2)"/><path class="fill_main-color" d="M11.914,11.828a4.914,4.914,0,1,1,4.914-4.914,4.914,4.914,0,0,1-4.914,4.914Zm0-7.862a2.948,2.948,0,1,0,2.948,2.948,2.948,2.948,0,0,0-2.948-2.948Z" transform="translate(8.649 15.652)" /><path class="fill_main-color" d="M.671,5.689-.671,3.005,8.023-1.342,9.365,1.342Z" transform="translate(7.789 6.52)"/><path class="fill_main-color" d="M11.914,11.828a4.914,4.914,0,1,1,4.914-4.914,4.914,4.914,0,0,1-4.914,4.914Zm0-7.862a2.948,2.948,0,1,0,2.948,2.948,2.948,2.948,0,0,0-2.948-2.948Z" transform="translate(-7 6.694)"/><path class="fill_main-color" d="M8.023,5.689-.671,1.342.671-1.342,9.365,3.005Z" transform="translate(7.789 16.348)"/></g></g><g transform="translate(9.297 20.91)"><circle cx="14" cy="14" r="14" transform="translate(1764.703 266)" fill="#059c00"/><path class="fill_main-color" d="M-10014.636,16101.392a1,1,0,0,1-.744-.332l-4.75-5.293a1,1,0,0,1,.076-1.412,1,1,0,0,1,1.412.076l3.811,4.246,6.149-11.147a1,1,0,0,1,1.359-.393,1,1,0,0,1,.393,1.359l-6.83,12.379a1,1,0,0,1-.763.51A.892.892,0,0,1-10014.636,16101.392Z" transform="translate(11792.355 -15813.488)"/></g></g></svg>