<svg xmlns="http://www.w3.org/2000/svg" width="16.32" height="14.044" viewBox="0 0 16.32 14.044"><g transform="translate(-10212 -8865)"><g transform="translate(7090 626.416)"><g transform="translate(6748.392 205.933) rotate(45)"><path class="fill_main-color" d="M38.8,29.228a.881.881,0,0,0,.675.229.916.916,0,0,0,.792-.93V25.055A2.055,2.055,0,0,0,38.21,23H34.688a.881.881,0,0,0-.881.969.916.916,0,0,0,.93.792h2.518l-3.51,3.513a.881.881,0,0,0,0,1.244.9.9,0,0,0,1.244,0L38.5,26.005v2.571A.881.881,0,0,0,38.8,29.228Z" transform="translate(3091.773 8214.451)" fill="#fff"/></g></g><g transform="translate(21 -21)"><path class="fill_main-color" d="M39.021,61.761h6.126a.89.89,0,1,0,0-1.761H39.021a.89.89,0,1,0,0,1.761Z" transform="translate(10131 8932.168) rotate(-90)" fill="#fff"/><path class="fill_main-color" d="M36.881,61.761h7.283a.881.881,0,1,0,0-1.761H36.881a.881.881,0,1,0,0,1.761Z" transform="translate(10236.044 8947.761) rotate(180)" fill="#fff"/><g transform="translate(10191 8893)"><path class="fill_main-color" d="M1,0H7.028a.948.948,0,0,1,1,.881.948.948,0,0,1-1,.881H1A.948.948,0,0,1,0,.881.948.948,0,0,1,1,0Z" transform="translate(1.761 -0.988) rotate(90)" fill="#fff"/><path class="fill_main-color" d="M-1.119,0H6.164a.881.881,0,1,1,0,1.761H-1.119A.881.881,0,0,1-2,.881.881.881,0,0,1-1.119,0Z" transform="translate(7.044 7.044) rotate(180)" fill="#fff"/></g></g></g></svg>