<?xml version="1.0" encoding="utf-8"?>
<!-- Generator: Adobe Illustrator 23.0.0, SVG Export Plug-In . SVG Version: 6.00 Build 0)  -->
<svg version="1.1" id="Layer_1" xmlns="http://www.w3.org/2000/svg" xmlns:xlink="http://www.w3.org/1999/xlink" x="0px" y="0px"
	 viewBox="0 0 16 16" style="enable-background:new 0 0 16 16;" xml:space="preserve">
<style type="text/css">
	.tab-signout{fill-rule:evenodd;clip-rule:evenodd;fill:#808184;}
</style>
<g id="white">
</g>
<g>
	<g transform="translate(-786.000000, -306.000000)">
		<g transform="translate(782.000000, 303.000000)">
			<g transform="translate(4.000000, 3.000000)">
				<path class="tab-signout" d="M2.8,1.46L2.8,1.46c0.33,0,0.6,0.27,0.6,0.6V14.1c0,0.33-0.27,0.6-0.6,0.6l0,0c-0.33,0-0.6-0.27-0.6-0.6
					V2.06C2.2,1.73,2.47,1.46,2.8,1.46z"/>
				<path class="tab-signout" d="M2.8,2.67c-0.33,0-0.6-0.27-0.6-0.6c0-0.33,0.27-0.6,0.6-0.6h6.02c0.33,0,0.6,0.27,0.6,0.6
					c0,0.33-0.27,0.6-0.6,0.6H2.8z"/>
				<path class="tab-signout" d="M2.2,14.1L2.2,14.1c0-0.33,0.27-0.6,0.6-0.6h6.02c0.33,0,0.6,0.27,0.6,0.6l0,0c0,0.33-0.27,0.6-0.6,0.6H2.8
					C2.47,14.7,2.2,14.43,2.2,14.1z"/>
				<path class="tab-signout" d="M5.51,8.68c-0.33,0-0.6-0.27-0.6-0.6c0-0.33,0.27-0.6,0.6-0.6h7.53c0.33,0,0.6,0.27,0.6,0.6
					c0,0.33-0.27,0.6-0.6,0.6H5.51z"/>
				<path class="tab-signout" d="M14.33,8.51l-2.98,2.98c-0.24,0.24-0.62,0.24-0.85,0c-0.24-0.24-0.24-0.62,0-0.85l2.55-2.55L10.5,5.53
					c-0.24-0.24-0.24-0.62,0-0.85c0.24-0.24,0.62-0.24,0.85,0l2.98,2.98C14.57,7.89,14.57,8.27,14.33,8.51z"/>
			</g>
		</g>
	</g>
</g>
</svg>
