<?xml version="1.0" encoding="utf-8"?>
<!-- Generator: Adobe Illustrator 26.3.1, SVG Export Plug-In . SVG Version: 6.00 Build 0)  -->
<svg version="1.1" id="Layer_1" xmlns="http://www.w3.org/2000/svg" xmlns:xlink="http://www.w3.org/1999/xlink" x="0px" y="0px"
	 viewBox="0 0 23.1 23.1" style="enable-background:new 0 0 23.1 23.1;" xml:space="preserve">
<style type="text/css">
	.st0{enable-background:new    ;}
	.st1{fill:#FFFFFF;}
	.st2{fill:none;}
	.st3{fill:none;stroke:#FFFFFF;}
</style>
<g id="Group_91" transform="translate(-776.615 -550.95) rotate(20)">
	<g class="st0">
		<path class="st1" d="M936.1,260.9c0,0.6-0.2,1.1-0.7,1.5c-0.5,0.4-1.1,0.7-1.9,0.8l0,1.6h-0.9l0-1.5c-0.5,0-1,0-1.5-0.1
			c-0.5-0.1-0.9-0.2-1.2-0.3l0-1.1c0.4,0.2,0.8,0.3,1.3,0.4c0.5,0.1,0.9,0.2,1.3,0.2l0-3c-0.9-0.3-1.6-0.6-2-1
			c-0.4-0.4-0.6-0.9-0.6-1.5c0-0.6,0.2-1.1,0.7-1.5s1.1-0.6,1.8-0.7l0-1.2l0.9,0l0,1.2c0.8,0,1.6,0.2,2.4,0.5l-0.4,0.9
			c-0.7-0.3-1.4-0.4-2.1-0.5l0,3c0.7,0.2,1.3,0.4,1.6,0.7c0.4,0.2,0.6,0.5,0.8,0.7C936,260.2,936.1,260.5,936.1,260.9z M931.2,256.8
			c0,0.3,0.1,0.6,0.3,0.8c0.2,0.2,0.6,0.4,1.1,0.6l0-2.6c-0.5,0.1-0.8,0.2-1,0.4C931.3,256.2,931.2,256.5,931.2,256.8z M934.9,261
			c0-0.3-0.1-0.6-0.3-0.8c-0.2-0.2-0.6-0.4-1.2-0.6v2.7C934.4,262.1,934.9,261.7,934.9,261z"/>
	</g>
	<g id="Ellipse_50" transform="translate(924 250)">
		<circle class="st2" cx="9" cy="9" r="9"/>
		<circle class="st3" cx="9" cy="9" r="8.5"/>
	</g>
</g>
</svg>
