<svg xmlns="http://www.w3.org/2000/svg" width="35.583" height="37.672" viewBox="0 0 35.583 37.672">
  <path id="Path_7571" data-name="Path 7571" d="M145.919,53.477l-.806-.458h0a1.032,1.032,0,0,1,0-1.807l.806-.458a5.2,5.2,0,0,0,2.478-3.2,5.141,5.141,0,0,0-.538-3.96L146.8,41.785a5.337,5.337,0,0,0-7.224-1.912l-.807.458a1.087,1.087,0,0,1-1.1-.005,1.03,1.03,0,0,1-.524-.9v-.917a5.27,5.27,0,0,0-5.3-5.232h-2.126a5.271,5.271,0,0,0-5.3,5.232v.917a1.028,1.028,0,0,1-.524.9,1.1,1.1,0,0,1-1.1.005L122,39.873a5.339,5.339,0,0,0-7.224,1.912L113.71,43.6a5.142,5.142,0,0,0-.538,3.96,5.2,5.2,0,0,0,2.478,3.2l.806.458a1.032,1.032,0,0,1,0,1.807l-.806.458a5.2,5.2,0,0,0-2.478,3.2,5.142,5.142,0,0,0,.538,3.96l1.063,1.813A5.337,5.337,0,0,0,122,64.357l.807-.458a1.092,1.092,0,0,1,1.1.005,1.03,1.03,0,0,1,.524.9v.917a5.27,5.27,0,0,0,5.3,5.232h2.126a5.27,5.27,0,0,0,5.3-5.232V64.8a1.028,1.028,0,0,1,.524-.9,1.091,1.091,0,0,1,1.1-.005l.806.458a5.337,5.337,0,0,0,7.224-1.912l1.063-1.813a5.142,5.142,0,0,0,.538-3.96,5.2,5.2,0,0,0-2.478-3.2Zm.136,6.1-1.063,1.812a3.243,3.243,0,0,1-4.385,1.152l-.806-.458a3.167,3.167,0,0,0-3.187.015A3.1,3.1,0,0,0,135.05,64.8v.917a3.175,3.175,0,0,1-3.2,3.139h-2.126a3.176,3.176,0,0,1-3.2-3.139V64.8a3.1,3.1,0,0,0-1.565-2.706,3.163,3.163,0,0,0-3.186-.015l-.806.458a3.242,3.242,0,0,1-4.385-1.152l-1.063-1.813a3.065,3.065,0,0,1-.321-2.359,3.132,3.132,0,0,1,1.491-1.919l.805-.458a3.124,3.124,0,0,0,0-5.445l-.805-.458a3.132,3.132,0,0,1-1.491-1.919,3.065,3.065,0,0,1,.321-2.359l1.062-1.813a3.239,3.239,0,0,1,4.385-1.152l.806.458a3.158,3.158,0,0,0,3.187-.015,3.1,3.1,0,0,0,1.565-2.706v-.917a3.175,3.175,0,0,1,3.2-3.139h2.126a3.176,3.176,0,0,1,3.2,3.139v.917a3.1,3.1,0,0,0,1.564,2.706,3.158,3.158,0,0,0,3.187.015l.806-.458h0a3.24,3.24,0,0,1,4.385,1.152l1.063,1.813a3.063,3.063,0,0,1,.321,2.359,3.131,3.131,0,0,1-1.491,1.919l-.806.458h0a3.124,3.124,0,0,0,0,5.445l.806.458h0a3.131,3.131,0,0,1,1.491,1.919,3.063,3.063,0,0,1-.32,2.359Zm-12.311-7.281a4.186,4.186,0,1,1-5.918,5.919,1.046,1.046,0,0,1,1.48-1.48,2.143,2.143,0,0,0,2.959,0,2.093,2.093,0,0,0-1.48-3.572,4.186,4.186,0,0,1-2.959-7.145,4.284,4.284,0,0,1,5.919,0,1.046,1.046,0,0,1-1.48,1.48,2.144,2.144,0,0,0-2.96,0,2.093,2.093,0,0,0,1.48,3.573,4.158,4.158,0,0,1,2.959,1.226Z" transform="translate(-112.993 -33.28)" fill="#fff"/>
</svg>
