<svg xmlns="http://www.w3.org/2000/svg" width="14.54" height="15.047" viewBox="0 0 14.54 15.047">
  <path id="Path_15" data-name="Path 15" d="M117.24,46.374l.167.169c.116.117.234.233.35.35a.487.487,0,0,0,.38.153.532.532,0,0,0,.391-.169,2.789,2.789,0,0,0,.2-.213.539.539,0,0,0-.06-.661q-2.854-2.843-5.7-5.694l-.331-.331.049-.054c.073-.078.15-.153.219-.235a.413.413,0,0,0,.087-.324.51.51,0,0,0-.173-.324.479.479,0,0,0-.189-.107,1.107,1.107,0,0,0-.237-.047.346.346,0,0,0-.273.1c-.062.06-.122.122-.184.183-.016.016-.034.031-.047.042l-.222-.222a.5.5,0,0,1,.034-.04c.059-.06.118-.12.178-.178a.436.436,0,0,0,.131-.308.583.583,0,0,0-.422-.558.454.454,0,0,0-.455.115c-.058.06-.118.119-.178.178-.015.014-.031.027-.039.035l-.871-.871c.041,0,.09,0,.139,0a1.828,1.828,0,0,0,.608-.1,2.39,2.39,0,0,0,1.407-1.232,2.411,2.411,0,0,0,.189-.611,2.3,2.3,0,0,0-.159-1.3,2.339,2.339,0,0,0-.509-.739,2.291,2.291,0,0,0-.852-.531,1.923,1.923,0,0,0-.565-.12c-.075,0-.151-.014-.226-.013a2.32,2.32,0,0,0-.847.169,2.391,2.391,0,0,0-.569.328c-.076.059-.145.127-.221.193a2.292,2.292,0,0,0-1.979-.906,2.224,2.224,0,0,0-1.569.74,2.321,2.321,0,0,0,.295,3.421,2.592,2.592,0,0,0-.351.446,2.317,2.317,0,0,0-.339,1.08,2.176,2.176,0,0,0,.041.568,2.3,2.3,0,0,0,.174.543,2.2,2.2,0,0,0,.3.484,2.32,2.32,0,0,0,2.5.75,2.274,2.274,0,0,0,1.184-.862,2.166,2.166,0,0,0,.43-1.4c.055.033.78.752.877.867-.056.056-.111.117-.171.17a.494.494,0,0,0-.024.669.576.576,0,0,0,.339.21.433.433,0,0,0,.419-.116c.06-.062.122-.122.177-.178l.228.228c-.036.036-.079.086-.128.127a.514.514,0,0,0-.12.59.624.624,0,0,0,.208.271.4.4,0,0,0,.212.076.49.49,0,0,0,.426-.153c.052-.055.107-.107.159-.159.062.036,2.724,2.689,2.9,2.884-.018.02-.037.04-.057.06-.313.313-.622.631-.941.937a.5.5,0,0,0-.064.587.3.3,0,0,0,.051.06l.328.328a.316.316,0,0,0,.233.1.459.459,0,0,0,.266-.049.667.667,0,0,0,.1-.075q.476-.474.951-.95l.06-.059c.061.039.69.66.852.84-.018.019-.037.04-.056.06-.313.313-.625.628-.941.939a.5.5,0,0,0-.156.332.319.319,0,0,0,.087.26c.087.084.171.17.256.255.037.037.073.075.112.109a.226.226,0,0,0,.144.053.5.5,0,0,0,.393-.158c.312-.318.629-.631.944-.946.018-.018.033-.04.057-.07ZM106.59,35.991a1.17,1.17,0,1,1,0-2.341,1.17,1.17,0,1,1,0,2.341Zm1.39,2.331a1.169,1.169,0,1,1-1.158-1.171,1.158,1.158,0,0,1,1.158,1.171Zm2.116-2.111a1.169,1.169,0,1,1,1.166-1.174A1.167,1.167,0,0,1,110.1,36.212Z" transform="translate(-104.271 -32.502)" fill="#fff"/>
</svg>
