<?xml version="1.0" encoding="utf-8"?>
<!-- Generator: Adobe Illustrator 23.1.0, SVG Export Plug-In . SVG Version: 6.00 Build 0)  -->
<svg version="1.2" baseProfile="tiny" id="Layer_1" xmlns="http://www.w3.org/2000/svg" xmlns:xlink="http://www.w3.org/1999/xlink"
	 x="0px" y="0px" viewBox="0 0 25 25" xml:space="preserve">
<g>
	<path fill-rule="evenodd" d="M10.6,7.5l0.5,1.3c0,5.4,0,1.7,0,7.1l-0.5,1.3c0.6-0.3,1.2-0.5,1.9-0.5c0.7,0,1.3,0.2,1.9,0.5
		l-0.5-1.3c0-5.4,0-1.7,0-7.1l0.5-1.3C13.8,7.9,13.2,8,12.5,8C11.8,8,11.2,7.9,10.6,7.5L10.6,7.5z M8.7,21.2c0-2.1,1.7-3.8,3.8-3.8
		c2.1,0,3.8,1.7,3.8,3.8c0,1.2-0.5,2.2-1.3,2.9l0-2.4c0-0.6-0.5-1-1-1l-2.9,0c-0.6,0-1,0.5-1,1l0,2.4C9.2,23.4,8.7,22.4,8.7,21.2
		L8.7,21.2z M8.7,3.5c0,2.1,1.7,3.8,3.8,3.8c2.1,0,3.8-1.7,3.8-3.8c0-1.2-0.5-2.2-1.3-2.9l0,2.4c0,0.6-0.5,1-1,1L11,4
		c-0.6,0-1-0.5-1-1l0-2.4C9.2,1.3,8.7,2.4,8.7,3.5L8.7,3.5z"/>
</g>
</svg>
