<?xml version="1.0" encoding="utf-8"?>
<!-- Generator: Adobe Illustrator 27.1.0, SVG Export Plug-In . SVG Version: 6.00 Build 0)  -->
<svg version="1.1" id="Layer_1" xmlns="http://www.w3.org/2000/svg" xmlns:xlink="http://www.w3.org/1999/xlink" x="0px" y="0px"
	 viewBox="0 0 55.3 69.1" style="enable-background:new 0 0 55.3 69.1;" xml:space="preserve">
<g class="sparkle-dust" transform="translate(-556.255 -304.844)">
	<g transform="translate(556.255 304.844)">
		<g>
			<path d="M7,23.1c-1.1-0.1-2-0.3-2.8-0.6c-0.8-0.3-1.4-0.8-1.9-1.3c-0.5-0.5-0.9-1.1-1.1-1.7c-0.3-0.6-0.4-1.3-0.4-2
				h2.3c0.1,1,0.5,1.9,1.1,2.5c0.6,0.6,1.6,1,2.8,1.2v-6.2c-0.8-0.2-1.5-0.4-2.2-0.6S3.6,14,3.1,13.6c-0.5-0.3-0.9-0.8-1.1-1.3
				c-0.3-0.5-0.4-1.2-0.4-2C1.6,9.6,1.7,9,2,8.4c0.3-0.6,0.6-1,1.1-1.4C3.6,6.6,4.1,6.3,4.8,6C5.5,5.8,6.2,5.7,7,5.6V3.9h1.4v1.8
				c1.7,0.1,3,0.6,3.8,1.4c0.9,0.8,1.4,1.8,1.6,3.1h-2.3c-0.1-0.8-0.4-1.4-0.9-1.8S9.4,7.5,8.4,7.4v5.8c0.8,0.2,1.6,0.4,2.3,0.6
				c0.7,0.2,1.3,0.5,1.8,0.9c0.5,0.4,0.9,0.8,1.2,1.4c0.3,0.6,0.4,1.3,0.4,2.1c0,0.8-0.1,1.4-0.4,2c-0.3,0.6-0.7,1.1-1.2,1.5
				s-1.1,0.8-1.8,1c-0.7,0.2-1.5,0.4-2.3,0.4v2.5H7V23.1z M3.8,10.2c0,0.8,0.3,1.4,0.8,1.8c0.5,0.4,1.4,0.7,2.5,1V7.4
				c-1,0.1-1.8,0.4-2.4,0.8C4.1,8.7,3.8,9.4,3.8,10.2z M12,18.2c0-0.4-0.1-0.8-0.2-1.1c-0.2-0.3-0.4-0.6-0.7-0.8
				c-0.3-0.2-0.7-0.4-1.1-0.5c-0.4-0.1-0.9-0.3-1.5-0.4v5.9c0.5,0,0.9-0.1,1.4-0.3c0.4-0.2,0.8-0.4,1.1-0.6c0.3-0.3,0.6-0.6,0.8-0.9
				C11.9,19.1,12,18.7,12,18.2z"/>
		</g>
	</g>
	<g transform="translate(611.593 315.006) rotate(90)">
		<path d="M51.2,4.8L49.9,0l-1.3,4.8c-0.4,1.5-1.6,2.7-3.1,3.1l-4.7,1.3l4.7,1.3c1.5,0.4,2.7,1.6,3.1,3.1l1.3,4.8
			l1.3-4.8c0.4-1.5,1.6-2.7,3.1-3.1L59,9.3l-4.7-1.3l0,0C52.8,7.5,51.6,6.3,51.2,4.8L51.2,4.8z"/>
		<path d="M40.8,33.4l-1.7-6.1l-1.7,6.1c-0.4,1.5-1.6,2.7-3.1,3.1l-6.1,1.7l6.1,1.7l0,0c1.5,0.4,2.7,1.6,3.1,3.1
			l1.7,6.1l1.7-6.1c0.4-1.5,1.6-2.7,3.1-3.1l6.1-1.7l-6.1-1.7C42.4,36.1,41.2,34.9,40.8,33.4L40.8,33.4z"/>
		<path d="M21,13.9c-1.5-0.4-2.7-1.6-3.1-3.1l-2.6-9.5l-2.7,9.5c-0.4,1.5-1.6,2.7-3.1,3.1L0,16.5l9.5,2.6
			c1.5,0.4,2.7,1.6,3.1,3.1l2.7,9.5l2.6-9.5c0.4-1.5,1.6-2.7,3.1-3.1l9.5-2.6L21,13.9z"/>
	</g>
</g>
</svg>
