<svg xmlns="http://www.w3.org/2000/svg" width="24" height="24" viewBox="0 0 24 24">
  <g id="Group_165" data-name="Group 165" transform="translate(-8819 238)">
    <rect id="Rectangle_281" data-name="Rectangle 281" width="24" height="24" transform="translate(8819 -238)" fill="none"/>
    <path id="Union_1" data-name="Union 1" d="M4.274,11.346l-.006.019a2.96,2.96,0,0,1-.158-.557C3.075,7.434,3.043,7.953,0,5.583,3.537,3.407,2.921,2.951,4.232.1c.012-.035.024-.07.037-.1l.006.012L4.28,0c.012.034.025.068.037.1,1.31,2.848.695,3.3,4.232,5.479C5.5,7.952,5.472,7.433,4.438,10.807a2.964,2.964,0,0,1-.159.558Z" transform="translate(8819 -238)" fill="#aaabab"/>
  </g>
</svg>
