<svg xmlns="http://www.w3.org/2000/svg" width="66" height="66" viewBox="0 0 66 66"><g transform="translate(863 -7795)"><path d="M36.39,5.9l4.619,9.154,8.578-5.619a.972.972,0,0,1,1.5.913l-.575,10.191,10.238-.578a.972.972,0,0,1,.866,1.5L56,30.037l9.154,4.619a.972.972,0,0,1,0,1.734L56,41.009l5.619,8.578a.972.972,0,0,1-.913,1.5l-10.191-.575.578,10.238a.972.972,0,0,1-1.5.866L41.009,56,36.39,65.149a.972.972,0,0,1-1.734,0L30.037,56l-8.578,5.619a.972.972,0,0,1-1.5-.913l.575-10.191L10.3,51.089a.972.972,0,0,1-.866-1.5l5.619-8.578L5.9,36.39a.972.972,0,0,1,0-1.734l9.154-4.619L9.431,21.459a.972.972,0,0,1,.913-1.5l10.191.575L19.957,10.3a.972.972,0,0,1,1.5-.866v0l8.578,5.619,4.619-9.154a.974.974,0,0,1,1.734,0Zm3.376,11L35.524,8.489l-4.294,8.5a.971.971,0,0,1-1.346.28l-7.876-5.16.531,9.507a.971.971,0,0,1-1.021.916l-9.4-.531,5.16,7.876h0a.973.973,0,0,1-.375,1.4L8.489,35.524l8.5,4.294a.971.971,0,0,1,.28,1.346l-5.16,7.876,9.507-.531a.971.971,0,0,1,.916,1.021l-.531,9.4,7.876-5.16v0a.973.973,0,0,1,1.4.375l4.244,8.409,4.294-8.5a.971.971,0,0,1,1.346-.28l7.876,5.16-.531-9.51a.971.971,0,0,1,1.021-.916l9.4.531-5.16-7.876h0a.973.973,0,0,1,.375-1.4l8.409-4.242-8.5-4.294a.971.971,0,0,1-.28-1.346l5.16-7.876-9.51.531a.971.971,0,0,1-.916-1.021l.531-9.4-7.876,5.16v0a.973.973,0,0,1-1.4-.375Z" transform="translate(-865.864 7792.135)" fill-rule="evenodd"/><path d="M0,0H66V66H0Z" transform="translate(-863 7795)" fill="none"/></g></svg>