<svg xmlns="http://www.w3.org/2000/svg" width="66" height="66" viewBox="0 0 66 66"><g transform="translate(1344 -7795)"><path d="M12.72,12.7V6.38a.969.969,0,0,1,.97-.97H64.473a.969.969,0,0,1,.97.97V57.165a.969.969,0,0,1-.97.97H58.082V64.46a.969.969,0,0,1-.97.97L6.33,65.425a.969.969,0,0,1-.97-.97V13.672a.969.969,0,0,1,.97-.97Zm45.362,43.49h5.423V7.347H14.657V12.7H57.112a.969.969,0,0,1,.97.97Zm-1.937-41.55H7.3V63.488H56.142Z" transform="translate(-1346.86 7793.09)" fill-rule="evenodd"/><path d="M0,0H66V66H0Z" transform="translate(-1344 7795)" fill="none"/></g></svg>