<?xml version="1.0" encoding="utf-8"?>
<!-- Generator: Adobe Illustrator 27.6.1, SVG Export Plug-In . SVG Version: 6.00 Build 0)  -->
<svg version="1.2" baseProfile="tiny" id="Layer_1" xmlns="http://www.w3.org/2000/svg" xmlns:xlink="http://www.w3.org/1999/xlink"
	 x="0px" y="0px" viewBox="0 0 131 85.3" overflow="visible" xml:space="preserve">
<circle fill="#79CDD3" cx="87.6" cy="43.1" r="36.3"/>
<path d="M87.6,18.7L65.7,30.9v24.4l21.9,12.1l21.9-12.1V30.9C109.4,30.9,87.6,18.7,87.6,18.7z M70.5,31.7L86.1,23v10.3l-6.3,3.5
	L70.5,31.7L70.5,31.7z M89.1,33.4V23l15.7,8.7l-9.3,5.2L89.1,33.4L89.1,33.4z M68.7,34.2l9.4,5.2v7.3L68.7,52V34.2L68.7,34.2z
	 M97,46.6v-7.1l9.4-5.2v17.5L97,46.6z M81.1,46.6v-7l6.4-3.6l6.4,3.6v7l-6.4,3.6C87.6,50.2,81.1,46.6,81.1,46.6z M89.1,52.8l6.4-3.6
	l9.3,5.2l-15.7,8.7L89.1,52.8L89.1,52.8z M70.5,54.5l9.3-5.2l6.3,3.5v10.3C86,63.1,70.5,54.5,70.5,54.5z"/>
<g>
	<circle fill="#00ABED" cx="42.2" cy="43.1" r="36.3"/>
	<path d="M78.7,40.8H52c-1-2-3.3-4.1-6-4.1c-0.8,0-1.7,0.1-2.4,0.4l-7-5.3C34.4,30,31.5,29,28.4,29H8.6l-1.4,4.5h21.2
		c1.7,0,3.3,0.6,4.5,1.6l6.8,5.8H6.1l0.1,4.6H40c1,2,3.3,3.9,6,3.9c0.8,0,1.7-0.2,2.4-0.4l7,5.4c2.2,1.9,5.1,2.9,8.2,2.9h11.9
		l1.7-4.5H63.6c-1.7,0-3.3-0.6-4.5-1.6l-6.8-5.8h26.3L78.7,40.8z M46,47.8c-2.6,0-4.7-2.1-4.7-4.7c0-2.6,2.1-4.7,4.7-4.7
		c2.6,0,4.7,2.1,4.7,4.7C50.7,45.7,48.6,47.8,46,47.8z"/>
</g>
</svg>
