<?xml version="1.0" encoding="utf-8"?>
<!-- Generator: Adobe Illustrator 23.1.0, SVG Export Plug-In . SVG Version: 6.00 Build 0)  -->
<svg version="1.1" id="Layer_1" xmlns="http://www.w3.org/2000/svg" xmlns:xlink="http://www.w3.org/1999/xlink" x="0px" y="0px"
	 viewBox="0 0 160 162" style="enable-background:new 0 0 160 162;" xml:space="preserve">
<style type="text/css">
	.stake_icon{fill:#BBBDBF}
</style>
<path class="stake_icon" d="M154,109.3c-4-6.5-11.8-8.8-18.3-5.3l-24.2,10.6c-1.2-3-3.7-5.3-6.9-6.1l-15.4-3.7c-5.6-1.4-10.8-3.8-15.5-7.4
	c-9.5-7.2-22.3-6.5-31.1,1.5c-1.1,1-2.4,1.5-3.8,1.5h-3.3c-0.2,0-0.3,0-0.5,0v-4.6c0-1.9-1.6-3.5-3.5-3.5H9c-1.9,0-3.5,1.6-3.5,3.5
	v49.9c0,1.9,1.6,3.5,3.5,3.5h22.5c1.9,0,3.5-1.6,3.5-3.5V138c0.2,0,0.3,0,0.5,0h11c2.5,0,4.9,0.3,7.3,1l33.9,8.9
	c0.1,0,0.3,0.1,0.4,0.1c1.2,0.2,2.4,0.3,3.6,0.3c2.4,0,4.7-0.3,7-1c0.3-0.1,0.6-0.2,0.8-0.4l53.2-32.8
	C154.5,113.1,155,111,154,109.3z M28,142.2H12.5V99.3H28V142.2z M96.3,140.7c-2.3,0.6-4.6,0.8-7,0.5l-33.7-8.9
	c-3-0.8-6.1-1.2-9.1-1.2h-11c-0.2,0-0.3,0-0.5,0v-23.8c0.2,0,0.3,0,0.5,0h3.3c3.1,0,6.2-1.2,8.5-3.4c6.3-5.8,15.4-6.2,22.2-1.1
	c5.5,4.1,11.5,7,18,8.6l15.4,3.7c1.6,0.4,2.6,2.2,2.3,4.1c-0.1,0.8-0.6,1.5-0.9,1.7l-28-4.1c-1.9-0.3-3.7,1-4,2.9
	c-0.3,1.9,1,3.7,2.9,4l28.3,4.2c0.3,0,0.6,0.1,0.9,0.1c3.3,0,6.1-2.8,7.3-6l26.9-11.8c0.1,0,0.2-0.1,0.3-0.1
	c2.2-1.2,4.6-1.1,6.6,0.2L96.3,140.7z"/>
<path class="stake_icon" d="M18.2,135.8c1.3,0.9,3.1,0.6,4.1-0.7c0.9-1.3,0.6-3.2-0.7-4.1c-1.3-0.9-3.1-0.6-4.1,0.7C16.5,133,16.8,134.9,18.2,135.8z"/>
<path class="stake_icon" d="M49.1,87.9C67.8,87.9,83,72.7,83,54c0-1.9-1.6-3.5-3.5-3.5H52.6V23.6c0-1.9-1.6-3.5-3.5-3.5c-18.7,0-33.9,15.2-33.9,33.9
	C15.2,72.7,30.4,87.9,49.1,87.9z M45.6,27.4V54c0,1.9,1.6,3.5,3.5,3.5h26.7c-1.7,13.2-13,23.4-26.7,23.4
	c-14.8,0-26.9-12.1-26.9-26.9C22.2,40.4,32.4,29.1,45.6,27.4z"/>
<path class="stake_icon" d="M58.9,48.2h30.4c1.9,0,3.5-1.6,3.5-3.5c0-18.7-15.2-33.9-33.9-33.9c-1.9,0-3.5,1.6-3.5,3.5v30.4
	C55.4,46.6,57,48.2,58.9,48.2z M62.4,18c12,1.6,21.6,11.1,23.2,23.2H62.4V18z"/>
<path class="stake_icon" d="M105.3,48.5h5.3v30.5c0,1.9,1.6,3.5,3.5,3.5h18.4c1.9,0,3.5-1.6,3.5-3.5V48.5h5.3c1.3,0,2.4-0.7,3.1-1.8
	c0.6-1.1,0.6-2.5-0.1-3.6l-18-28.7c-0.6-1-1.8-1.6-3-1.6s-2.3,0.6-3,1.6l-18,28.7c-0.7,1.1-0.7,2.4-0.1,3.6
	C102.8,47.8,104,48.5,105.3,48.5z M123.3,22.9L135,41.5h-2.5c-1.9,0-3.5,1.6-3.5,3.5v30.5h-11.4V45c0-1.9-1.6-3.5-3.5-3.5h-2.5
	L123.3,22.9z"/>
</svg>
