<svg xmlns="http://www.w3.org/2000/svg" viewBox="0 0 43 43" height="43" width="43" class="w-100 h-100">
    <g transform="translate(-400 -112)">
        <path class="stake-smiley-1" d="M21.5,0A21.5,21.5,0,1,1,0,21.5,21.5,21.5,0,0,1,21.5,0Z" transform="translate(400 112)" fill="#fff"/>
        <path class="stake-smiley-0" d="M7.616-11.764A17.753,17.753,0,0,1,6.324-5.219,33.021,33.021,0,0,1,2.856,1.258L1.156.34A35.666,35.666,0,0,0,2.941-2.754,27.3,27.3,0,0,0,4.3-5.865a22.15,22.15,0,0,0,.867-3.009,13.618,13.618,0,0,0,.306-2.788,14.753,14.753,0,0,0-.425-3.417,28.165,28.165,0,0,0-1.071-3.485,31.92,31.92,0,0,0-1.411-3.2,21.5,21.5,0,0,0-1.479-2.516l1.8-.85q.986,1.666,1.853,3.315a30.276,30.276,0,0,1,1.5,3.3,23.868,23.868,0,0,1,1,3.332A15.7,15.7,0,0,1,7.616-11.764Z" transform="translate(410 139) rotate(90)"/>
        <path class="stake-smiley-1" d="M21.5,1a20.506,20.506,0,0,0-7.979,39.389A20.506,20.506,0,0,0,29.479,2.611,20.371,20.371,0,0,0,21.5,1m0-1A21.5,21.5,0,1,1,0,21.5,21.5,21.5,0,0,1,21.5,0Z" transform="translate(400 112)" fill="#fff"/>
        <g class="stake-smiley-0" transform="translate(410.199 121.289)">
            <text transform="translate(-0.199 12.711)" font-size="14" font-family="Raleway-SemiBold, Raleway" font-weight="600">
                <tspan x="0" y="0">$</tspan>
            </text>
            <text transform="translate(13.801 12.711)" font-size="14" font-family="Raleway-SemiBold, Raleway" font-weight="600">
                <tspan x="0" y="0">$</tspan>
            </text>
        </g>
    </g>
</svg>