<?xml version="1.0" encoding="utf-8"?>
<!-- Generator: Adobe Illustrator 25.2.1, SVG Export Plug-In . SVG Version: 6.00 Build 0)  -->
<svg version="1.2" baseProfile="tiny" id="Layer_1" xmlns="http://www.w3.org/2000/svg" xmlns:xlink="http://www.w3.org/1999/xlink"
	 x="0px" y="0px" viewBox="0 0 95 95" overflow="visible" xml:space="preserve">
<g>
	<path fill="#FFFFFF" d="M43.5,17.5l15.4,18.7L43.5,55H29.2L13.8,36.3l15.4-18.7L43.5,17.5 M44.7,14.9H27.9L10.4,36.3l17.5,21.4
		h16.8l17.5-21.4L44.7,14.9L44.7,14.9z"/>
	<path fill="#00FFFF" d="M42,50.6H30.7L18.9,36.3l11.8-14.4H42l11.8,14.4L42,50.6z M31.1,49.7h10.5l11.1-13.5L41.6,22.8H31.1
		L20,36.3L31.1,49.7z"/>
	<path fill="#00FFFF" d="M39,43.1h-5.4l0-0.1l-5.5-6.7l5.6-6.8H39l0,0.1l5.5,6.7L39,43.1z M33.9,42.6h5l5.2-6.3l-5.2-6.3h-5
		l-5.2,6.3L33.9,42.6z"/>
</g>
</svg>
