<svg xmlns="http://www.w3.org/2000/svg" width="87.032" height="63.51" viewBox="0 0 87.032 63.51">
  <g id="Group_10" data-name="Group 10" transform="translate(-1023.432 -706.747)">
    <g id="Group_1" data-name="Group 1" transform="translate(-55 16)">
      <ellipse id="Ellipse_3" data-name="Ellipse 3" cx="24" cy="16.5" rx="24" ry="16.5" transform="translate(1079 713)" fill="#01259e"/>
      <ellipse id="Ellipse_4" data-name="Ellipse 4" cx="24" cy="16.5" rx="24" ry="16.5" transform="translate(1117 711)" fill="#01259e"/>
      <ellipse id="Ellipse_5" data-name="Ellipse 5" cx="23" cy="16.5" rx="23" ry="16.5" transform="translate(1098 691)" fill="#01259e"/>
      <path id="Path_3" data-name="Path 3" d="M1072.575,7562.876a.451.451,0,0,1-.876.219,11.91,11.91,0,0,1,2.236-10.124c2.93-3.935,7.9-6.685,13.576-7.947a33.092,33.092,0,0,1,17.719.936c5.012,1.735,10.078,5.1,12.055,10.222a11.677,11.677,0,0,1-1.789,11.47,21.107,21.107,0,0,1-9.711,6.817.452.452,0,0,1-.311-.849,20.18,20.18,0,0,0,9.3-6.5,10.779,10.779,0,0,0,1.672-10.609c-1.875-4.862-6.759-8.052-11.508-9.7a32.176,32.176,0,0,0-17.231-.906c-5.47,1.217-10.251,3.849-13.047,7.605A11,11,0,0,0,1072.575,7562.876Zm23.709,32.79a.271.271,0,0,1,.542,0v.591a.271.271,0,0,1-.542,0Zm2.031,1.146a.271.271,0,0,1,.542,0v1a.271.271,0,0,1-.542,0Zm-22.924-34.288a.271.271,0,0,0,.525-.136,8.485,8.485,0,0,1-.2-1.031.271.271,0,0,0-.538.07A9.021,9.021,0,0,0,1075.391,7562.524Zm28.812,8.583a.271.271,0,0,0,.191.508c.343-.129.681-.267,1.017-.41a.271.271,0,0,0-.215-.5Q1104.7,7570.919,1104.2,7571.107Zm2.443-1.093a.273.273,0,1,0,.3.455l.817-.458c.489-.276.088-.683-.184-.52C1107.268,7569.673,1106.964,7569.849,1106.646,7570.015Zm2.267-1.407a.271.271,0,0,0,.321.438q.445-.327.867-.682a.271.271,0,0,0-.35-.414C1109.479,7568.178,1109.2,7568.4,1108.913,7568.607Zm2-1.753a.271.271,0,0,0,.394.372c.254-.269.5-.546.726-.835a.271.271,0,0,0-.424-.338Q1111.277,7566.468,1110.912,7566.854Zm1.6-2.106a.271.271,0,0,0,.468.273,10.863,10.863,0,0,0,.514-.988.271.271,0,0,0-.5-.221A10.393,10.393,0,0,1,1112.51,7564.748Zm1.013-2.421a.271.271,0,0,0,.526.13,9.289,9.289,0,0,0,.208-1.1.271.271,0,0,0-.538-.067A8.893,8.893,0,0,1,1113.523,7562.327Zm.24-2.605a.271.271,0,0,0,.541-.037,9.352,9.352,0,0,0-.147-1.108.271.271,0,0,0-.532.105A8.865,8.865,0,0,1,1113.763,7559.722Zm-.583-2.552a.271.271,0,0,0,.5-.2,10.267,10.267,0,0,0-.464-1.014.271.271,0,0,0-.478.256A10.177,10.177,0,0,1,1113.181,7557.17Zm-1.28-2.3a.271.271,0,0,0,.437-.321c-.218-.3-.452-.587-.694-.864a.271.271,0,0,0-.405.359h0C1111.469,7554.309,1111.691,7554.581,1111.9,7554.867Zm-1.785-1.96a.271.271,0,0,0,.363-.4c-.276-.247-.556-.479-.847-.709a.271.271,0,0,0-.332.43C1109.58,7552.444,1109.849,7552.669,1110.115,7552.907Zm-2.125-1.6a.271.271,0,0,0,.29-.458c-.312-.2-.624-.383-.946-.562a.271.271,0,0,0-.262.475C1107.384,7550.932,1107.687,7551.111,1107.99,7551.3Zm-2.35-1.271a.271.271,0,0,0,.224-.494q-.5-.227-1.009-.432a.271.271,0,0,0-.2.5C1104.987,7549.743,1105.314,7549.883,1105.64,7550.031Zm-2.5-.968a.271.271,0,0,0,.165-.517c-.349-.112-.7-.217-1.049-.315a.271.271,0,0,0-.144.523C1102.46,7548.853,1102.8,7548.953,1103.143,7549.063Zm-2.591-.691a.271.271,0,0,0,.11-.53c-.358-.075-.715-.144-1.075-.206a.271.271,0,0,0-.09.534C1099.85,7548.231,1100.2,7548.3,1100.552,7548.372Zm-2.65-.426a.272.272,0,0,0,.058-.54c-.364-.039-.725-.072-1.09-.1a.271.271,0,0,0-.038.54C1097.19,7547.874,1097.545,7547.906,1097.9,7547.946Zm-2.679-.172a.271.271,0,0,0,.007-.542c-.365-.006-.729,0-1.094,0a.271.271,0,0,0,.012.541C1094.507,7547.77,1094.863,7547.769,1095.222,7547.774Zm-2.685.08a.272.272,0,0,0-.042-.542c-.364.03-.726.063-1.089.1a.271.271,0,0,0,.062.539C1091.825,7547.916,1092.18,7547.882,1092.538,7547.854Zm-2.663.329a.271.271,0,0,0-.095-.533c-.36.063-.717.131-1.075.206a.272.272,0,0,0,.115.531C1089.171,7548.313,1089.52,7548.245,1089.874,7548.184Zm-2.618.589a.271.271,0,0,0-.148-.522c-.352.1-.7.205-1.048.317a.271.271,0,0,0,.168.515C1086.57,7548.973,1086.911,7548.869,1087.256,7548.772Zm-2.539.86a.272.272,0,0,0-.2-.5c-.34.138-.675.283-1.009.437a.271.271,0,0,0,.23.491C1084.061,7549.907,1084.386,7549.767,1084.718,7549.633Zm-2.413,1.153a.271.271,0,0,0-.266-.473c-.321.182-.632.37-.943.567a.271.271,0,0,0,.294.455C1081.691,7551.145,1081.994,7550.963,1082.305,7550.786Zm-2.221,1.478a.271.271,0,0,0-.336-.426c-.29.229-.569.464-.843.712a.271.271,0,0,0,.365.4Q1079.666,7552.594,1080.084,7552.264Zm-1.928,1.825a.272.272,0,0,0-.412-.354c-.241.28-.473.567-.689.867a.271.271,0,0,0,.44.316C1077.7,7554.631,1077.925,7554.355,1078.156,7554.089Zm-1.494,2.178a.271.271,0,0,0-.482-.248,10.237,10.237,0,0,0-.457,1.017.271.271,0,0,0,.507.193A9.7,9.7,0,0,1,1076.662,7556.267Zm-.865,2.478a.271.271,0,0,0-.533-.1,9.047,9.047,0,0,0-.14,1.108.271.271,0,0,0,.541.034A8.393,8.393,0,0,1,1075.8,7558.744Zm18.817,23.98a.271.271,0,0,0-.54.055,8.056,8.056,0,0,0,.2,1.1.271.271,0,0,0,.527-.131A7.43,7.43,0,0,1,1094.614,7582.725Zm27.27-14.224a.271.271,0,0,0-.138.524c.347.09.691.188,1.033.292a.271.271,0,0,0,.159-.519C1122.589,7568.691,1122.237,7568.593,1121.884,7568.5Zm2.611.824a.271.271,0,0,0-.19.507c.334.125.667.259,1,.4a.271.271,0,0,0,.213-.5C1125.178,7569.589,1124.837,7569.451,1124.495,7569.325Zm2.509,1.105a.271.271,0,0,0-.249.481q.476.245.939.514a.271.271,0,0,0,.273-.468C1127.651,7570.773,1127.329,7570.6,1127,7570.431Zm2.353,1.416a.271.271,0,0,0-.312.443q.437.306.854.641a.271.271,0,0,0,.339-.424Q1129.808,7572.163,1129.357,7571.847Zm2.119,1.758a.271.271,0,0,0-.382.385c.252.25.5.507.729.775a.271.271,0,0,0,.41-.355Q1131.87,7573.992,1131.476,7573.6Zm1.768,2.122a.271.271,0,0,0-.452.3c.2.3.377.594.547.906a.271.271,0,0,0,.479-.255C1133.64,7576.35,1133.451,7576.037,1133.244,7575.727Zm1.252,2.474a.271.271,0,0,0-.512.178,9.549,9.549,0,0,1,.292,1.011.271.271,0,0,0,.53-.116A10.289,10.289,0,0,0,1134.5,7578.2Zm.533,2.729a.271.271,0,0,0-.542.022,9.363,9.363,0,0,1-.018,1.052.271.271,0,0,0,.541.043A9.916,9.916,0,0,0,1135.029,7580.929Zm-.3,2.767a.271.271,0,0,0-.524-.138,10.075,10.075,0,0,1-.323,1,.271.271,0,0,0,.506.2A10.659,10.659,0,0,0,1134.73,7583.7Zm-1.059,2.565a.271.271,0,0,0-.47-.271c-.177.307-.366.6-.569.894a.271.271,0,0,0,.444.313C1133.29,7586.891,1133.485,7586.583,1133.672,7586.261Zm-1.635,2.229a.271.271,0,0,0-.4-.365c-.241.263-.486.513-.745.76a.271.271,0,0,0,.373.394C1131.53,7589.025,1131.79,7588.762,1132.037,7588.49Zm-2.031,1.863a.271.271,0,0,0-.329-.431c-.283.217-.571.426-.866.626a.271.271,0,0,0,.3.449C1129.419,7590.792,1129.715,7590.577,1130.006,7590.354Zm-2.294,1.511a.27.27,0,0,0-.265-.472c-.313.174-.626.34-.946.5a.272.272,0,0,0,.24.487C1127.069,7592.214,1127.391,7592.044,1127.712,7591.864Zm-2.47,1.193a.271.271,0,0,0-.2-.5c-.332.136-.664.264-1,.387a.271.271,0,0,0,.182.511C1124.563,7593.327,1124.9,7593.2,1125.241,7593.058Zm-2.584.905a.271.271,0,0,0-.152-.521c-.344.1-.688.194-1.036.281a.271.271,0,0,0,.132.526C1121.955,7594.161,1122.306,7594.065,1122.657,7593.963Zm-2.661.64a.271.271,0,0,0-.1-.532q-.529.1-1.059.182a.271.271,0,0,0,.082.535C1119.279,7594.733,1119.638,7594.671,1120,7594.6Zm-2.708.388a.271.271,0,0,0-.052-.539c-.357.034-.714.062-1.071.084a.271.271,0,0,0,.033.541Q1116.745,7595.044,1117.289,7594.99Zm-2.731.144a.271.271,0,0,0,0-.542c-.359,0-.716,0-1.075-.011a.271.271,0,0,0-.015.542C1113.829,7595.133,1114.194,7595.136,1114.559,7595.134Zm-2.733-.1a.27.27,0,0,0,.044-.539c-.357-.029-.714-.063-1.07-.105a.271.271,0,0,0-.063.538Q1111.281,7594.992,1111.826,7595.035Zm-2.714-.339a.271.271,0,0,0,.092-.534c-.353-.061-.706-.127-1.056-.2a.271.271,0,0,0-.112.53C1108.393,7594.567,1108.753,7594.635,1109.112,7594.7Zm-2.672-.587a.272.272,0,0,0,.142-.524c-.345-.092-.689-.193-1.03-.3a.271.271,0,0,0-.164.518C1105.736,7593.91,1106.088,7594.014,1106.44,7594.109Zm-2.6-.852a.271.271,0,0,0,.2-.506,9.413,9.413,0,0,1-.963-.434.271.271,0,0,0-.246.483A9.636,9.636,0,0,0,1103.837,7593.258Zm-2.452-1.258a.271.271,0,0,0,.281-.464c-.306-.185-.608-.378-.905-.574a.271.271,0,0,0-.3.45C1100.764,7591.614,1101.073,7591.812,1101.386,7592Zm-2.262-1.549a.271.271,0,0,0,.333-.429q-.422-.328-.827-.678a.271.271,0,0,0-.356.409C1098.55,7589.994,1098.835,7590.227,1099.124,7590.451Zm-2.048-1.835a.271.271,0,0,0,.392-.373q-.368-.385-.706-.8a.271.271,0,0,0-.42.344C1096.576,7588.074,1096.822,7588.351,1097.076,7588.616Zm-1.7-2.176a.271.271,0,0,0,.463-.283,10.312,10.312,0,0,1-.5-.926.271.271,0,0,0-.491.229A10.971,10.971,0,0,0,1095.373,7586.44Zm-5.647,6.241a.271.271,0,0,0-.27-.47c-.31.178-.624.347-.942.51a.271.271,0,0,0,.245.482C1089.086,7593.039,1089.407,7592.864,1089.726,7592.682Zm-3.52-21.595a.265.265,0,0,0,.2-.488l-1.049-.382a.272.272,0,0,0-.167.517Zm-2.557-.8a.271.271,0,0,0,.134-.525c-.354-.092-.707-.176-1.064-.255a.271.271,0,0,0-.115.53C1082.954,7570.109,1083.3,7570.193,1083.649,7570.282Zm-2.628-.548a.271.271,0,0,0,.083-.536c-.361-.057-.721-.106-1.083-.151a.271.271,0,0,0-.065.538C1080.312,7569.629,1080.666,7569.679,1081.021,7569.734Zm-2.669-.3a.271.271,0,0,0,.034-.54c-.365-.024-.728-.041-1.093-.052a.27.27,0,0,0-.014.54C1077.637,7569.4,1077.994,7569.413,1078.352,7569.436Zm-2.686-.056a.271.271,0,0,0-.014-.542c-.365.009-.729.024-1.093.046a.271.271,0,0,0,.034.541C1074.95,7569.4,1075.307,7569.389,1075.666,7569.38Zm-2.68.184a.271.271,0,0,0-.062-.538c-.363.042-.724.09-1.085.144a.271.271,0,0,0,.081.536C1072.276,7569.652,1072.629,7569.605,1072.986,7569.563Zm-2.651.427a.271.271,0,0,0-.112-.529c-.358.075-.712.156-1.067.244a.271.271,0,0,0,.132.526Q1069.809,7570.1,1070.335,7569.99Zm-2.6.679a.271.271,0,0,0-.164-.517c-.349.111-.693.229-1.038.353a.271.271,0,0,0,.187.51C1067.061,7570.892,1067.4,7570.777,1067.739,7570.669Zm-2.506.945a.271.271,0,0,0-.222-.5c-.335.149-.664.3-.991.47a.271.271,0,0,0,.244.484C1064.583,7571.913,1064.9,7571.76,1065.232,7571.614Zm-2.372,1.235a.271.271,0,0,0-.284-.462c-.314.192-.619.39-.923.6a.271.271,0,0,0,.31.445C1062.258,7573.229,1062.555,7573.037,1062.86,7572.85Zm-2.169,1.552a.271.271,0,0,0-.352-.413c-.282.238-.552.483-.818.742a.271.271,0,0,0,.381.386C1060.158,7574.869,1060.419,7574.632,1060.691,7574.4Zm-1.866,1.891a.271.271,0,0,0-.422-.34c-.233.288-.452.583-.66.889a.271.271,0,0,0,.45.3C1058.392,7576.852,1058.6,7576.568,1058.825,7576.292Zm-1.424,2.227a.271.271,0,0,0-.49-.234,10.6,10.6,0,0,0-.427,1.029.271.271,0,0,0,.512.177C1057.115,7579.159,1057.25,7578.837,1057.4,7578.519Zm-.8,2.5a.271.271,0,0,0-.535-.087,9.848,9.848,0,0,0-.113,1.113.271.271,0,0,0,.542.018A9.163,9.163,0,0,1,1056.6,7581.02Zm-.022,2.616a.271.271,0,0,0-.536.081,9.6,9.6,0,0,0,.228,1.093.271.271,0,0,0,.523-.144A9.12,9.12,0,0,1,1056.582,7583.636Zm.754,2.516a.271.271,0,0,0-.492.229c.156.338.327.662.515.985a.271.271,0,0,0,.466-.278C1057.647,7586.782,1057.484,7586.472,1057.336,7586.151Zm1.388,2.246a.271.271,0,0,0-.425.338c.228.288.47.57.721.839a.271.271,0,0,0,.4-.37C1059.175,7588.941,1058.944,7588.677,1058.724,7588.4Zm1.843,1.912a.271.271,0,0,0-.352.411c.28.241.565.468.859.69a.271.271,0,0,0,.324-.435C1061.114,7590.761,1060.838,7590.541,1060.567,7590.31Zm2.155,1.571a.271.271,0,0,0-.286.46c.313.193.628.376.95.553a.271.271,0,0,0,.26-.477C1063.333,7592.245,1063.028,7592.067,1062.722,7591.881Zm2.362,1.252a.271.271,0,0,0-.222.494c.333.151.67.293,1.01.429a.271.271,0,0,0,.2-.5Q1065.573,7593.352,1065.084,7593.133Zm2.5.962a.271.271,0,0,0-.167.517c.347.113.7.218,1.049.316a.271.271,0,0,0,.145-.522Q1068.1,7594.262,1067.586,7594.095Zm2.591.7a.271.271,0,0,0-.115.529q.535.116,1.075.212a.271.271,0,0,0,.094-.534Q1070.7,7594.905,1070.177,7594.792Zm2.648.442a.271.271,0,1,0-.064.539c.363.041.725.079,1.089.109a.271.271,0,1,0,.044-.541C1073.536,7595.313,1073.182,7595.276,1072.825,7595.234Zm2.678.2a.271.271,0,0,0-.014.541c.365.01.729.015,1.094.012a.272.272,0,0,0,0-.543C1076.22,7595.444,1075.862,7595.44,1075.5,7595.432Zm2.686-.046a.272.272,0,0,0,.034.542q.546-.032,1.091-.086a.271.271,0,0,0-.054-.54C1078.9,7595.338,1078.547,7595.364,1078.189,7595.386Zm2.671-.284a.271.271,0,0,0,.083.536q.541-.082,1.079-.186a.271.271,0,0,0-.1-.532C1081.567,7594.988,1081.214,7595.048,1080.86,7595.1Zm2.632-.529a.271.271,0,0,0,.134.524q.531-.133,1.056-.288a.271.271,0,0,0-.154-.521Q1084.012,7594.44,1083.492,7594.572Zm2.564-.788a.271.271,0,0,0,.187.509q.515-.189,1.021-.4a.271.271,0,0,0-.21-.5C1086.725,7593.531,1086.391,7593.661,1086.056,7593.784Zm14.391,4.011a.271.271,0,0,1,.542,0v1.275a.271.271,0,0,1-.542,0Zm2.668.83a.271.271,0,0,1,.542,0v1.65a.271.271,0,0,1-.542,0Zm2.668.739a.271.271,0,0,1,.542,0v1.94a.271.271,0,0,1-.542,0Zm2.668.682a.271.271,0,0,1,.542,0v1.975a.271.271,0,0,1-.542,0Zm2.668.292a.271.271,0,0,1,.542,0v2.176a.271.271,0,0,1-.542,0Zm2.668.178a.271.271,0,0,1,.542,0v2.23a.271.271,0,0,1-.542,0Zm2.668,0a.271.271,0,0,1,.542,0v2.3a.271.271,0,0,1-.542,0Zm2.668-.4a.271.271,0,0,1,.542,0v2.427a.271.271,0,0,1-.542,0Zm2.668-.342a.271.271,0,0,1,.542,0v2.175a.271.271,0,0,1-.542,0Zm2.668-.759a.271.271,0,0,1,.542,0v2.159a.271.271,0,0,1-.542,0Zm2.668-.992a.271.271,0,0,1,.542,0v2.19a.271.271,0,0,1-.542,0Zm2.668-1.292a.271.271,0,0,1,.542,0v2.146a.271.271,0,0,1-.542,0Zm2.668-1.4a.271.271,0,0,1,.542,0v1.482a.271.271,0,0,1-.542,0Zm2.668-1.948a.271.271,0,0,1,.542,0v.7a.271.271,0,0,1-.542,0Zm-44.705,5.58a.271.271,0,0,1,.542,0v.976a.271.271,0,0,1-.542,0Zm-2.63.9a.271.271,0,0,1,.542,0v1.651a.271.271,0,0,1-.542,0Zm-2.63.76a.271.271,0,0,1,.542,0v1.939a.271.271,0,0,1-.542,0Zm-2.63.681a.271.271,0,0,1,.542,0v1.974a.271.271,0,0,1-.542,0Zm-2.63.291a.271.271,0,0,1,.542,0v2.178a.271.271,0,0,1-.542,0Zm-2.63.271a.271.271,0,0,1,.542,0v2.231a.271.271,0,0,1-.542,0Zm-2.63,0a.271.271,0,0,1,.542,0v2.3a.271.271,0,0,1-.542,0Zm-2.629-.4a.271.271,0,0,1,.542,0v2.427a.271.271,0,0,1-.542,0Zm-2.63-.343a.271.271,0,0,1,.542,0v2.175a.271.271,0,0,1-.542,0Zm-2.63-.758a.271.271,0,0,1,.542,0v2.158a.271.271,0,0,1-.542,0Zm-2.63-.993a.271.271,0,0,1,.542,0v2.191a.271.271,0,0,1-.542,0Zm-2.63-1.291a.271.271,0,0,1,.542,0v2.144a.271.271,0,0,1-.542,0Zm-2.629-1.4a.271.271,0,0,1,.542,0v1.482a.271.271,0,0,1-.542,0Zm-2.63-1.948a.271.271,0,0,1,.542,0v.7a.271.271,0,0,1-.542,0Zm35.464,7.788a.451.451,0,0,1,.459.776c-11.194,6.637-32.35,5.29-38.74-6.937a.45.45,0,0,1,.8-.417C1060.357,7607.687,1080.953,7608.9,1091.7,7602.522Zm45.171-6.873a.451.451,0,0,1,.748.5c-4.222,6.293-12.7,8.925-19.9,9.4s-16.349-1.028-21.966-5.952a.451.451,0,0,1,.593-.679c5.434,4.764,14.344,6.193,21.317,5.73C1124.578,7604.2,1132.818,7601.7,1136.875,7595.649Zm-44.971-1.277a.451.451,0,0,1,.459.776c-11.265,6.68-33.985,5.36-39.271-8.349a11.67,11.67,0,0,1-.158-8.146c2.311-6.674,9.6-10.552,16.105-12a33.948,33.948,0,0,1,20.387,1.741.451.451,0,0,1-.357.828,33.005,33.005,0,0,0-19.836-1.69c-6.173,1.374-13.248,5.056-15.449,11.411a10.79,10.79,0,0,0,.147,7.53c5.073,13.153,27.19,14.288,37.972,7.9Zm29.874-27.871a.451.451,0,0,1,.194-.88c6.4,1.418,13.58,5.19,16.064,11.632a12.112,12.112,0,0,1-1.856,11.9c-3.04,4.084-8.2,6.938-14.091,8.249a34.36,34.36,0,0,1-18.395-.972,22.878,22.878,0,0,1-9.819-6.243,13.027,13.027,0,0,1-3.5-9.015.45.45,0,0,1,.9.024,12.157,12.157,0,0,0,3.279,8.4,21.993,21.993,0,0,0,9.435,5.984,33.463,33.463,0,0,0,17.907.943c5.685-1.267,10.655-4,13.562-7.907a11.211,11.211,0,0,0,1.739-11.035C1134.829,7571.439,1127.865,7567.849,1121.779,7566.5Z" transform="translate(26.367 -6853.249)" fill="#fff" stroke="#fff" stroke-width="0.4"/>
    </g>
  </g>
</svg>
