<svg xmlns="http://www.w3.org/2000/svg" width="66" height="66" viewBox="0 0 66 66"><g transform="translate(1424 -7795)"><path d="M11.327,21.494l8.1,14.032L11.279,49.639a.97.97,0,0,0,.839,1.452V51.1h16.3L36.557,65.2a.969.969,0,0,0,1.679,0l8.148-14.108h16.3a.972.972,0,0,0,.794-1.536l-8.1-14.032L63.52,21.412a.97.97,0,0,0-.839-1.452l0,0H46.385L38.239,5.853a.969.969,0,0,0-1.679,0L28.415,19.958H12.122a.973.973,0,0,0-.794,1.536Zm9.22,15.969,6.746,11.685H13.8ZM37.4,62.778,30.653,51.093H44.146Zm-7.868-13.63L21.665,35.526,29.531,21.9H45.27l7.863,13.622L45.27,49.148ZM20.546,33.588,13.8,21.9H27.293ZM47.505,49.148l6.746-11.685L61,49.148ZM61,21.9,54.252,33.588,47.506,21.9ZM44.146,19.958H30.653L37.4,8.273Z" transform="translate(-1428.646 7792.132)" fill-rule="evenodd"/><path d="M0,0H66V66H0Z" transform="translate(-1424 7795)" fill="none"/></g></svg>