<svg xmlns="http://www.w3.org/2000/svg" width="66" height="66" viewBox="0 0 66 66"><g transform="translate(382 -7795)"><path d="M14.853,13.883H26.491l8.228-8.228a.968.968,0,0,1,1.37,0l8.228,8.228H55.955a.969.969,0,0,1,.97.97V26.491l8.228,8.228a.968.968,0,0,1,0,1.37l-8.226,8.23V55.957a.969.969,0,0,1-.97.97H44.32l-8.228,8.228a.968.968,0,0,1-1.37,0l-8.23-8.228H14.854a.969.969,0,0,1-.97-.97V44.319L5.656,36.091a.968.968,0,0,1,0-1.37l8.228-8.228V14.853a.969.969,0,0,1,.97-.97Zm14.377,0H41.577L35.405,7.711Zm27.7,15.347V41.578L63.1,35.406Zm-15.347,27.7H29.229L35.4,63.1ZM13.883,41.58V29.23L7.711,35.4ZM46.256,15.824l8.73,8.73v-8.73Zm8.73,30.433-8.73,8.73h8.73l0-8.73Zm-30.433,8.73-8.73-8.73v8.73Zm-8.73-30.433,8.73-8.73-8.73,0Zm39.163,2.739L43.516,15.824H27.292L15.822,27.293V43.518L27.294,54.99H43.519L54.991,43.518Z" transform="translate(-383.872 7793.129)" fill-rule="evenodd"/><path d="M0,0H66V66H0Z" transform="translate(-382 7795)" fill="none"/></g></svg>