<svg xmlns="http://www.w3.org/2000/svg" width="27.298" height="40.542" viewBox="0 0 27.298 40.542"><g transform="translate(-1335.913 -578.729)"><g transform="translate(-7)"><g transform="translate(1342.912 603.81)"><g transform="translate(0.001 0)"><path class="fill_main-color" d="M15.6,20.184a.773.773,0,0,1-.773-.773V17.865A2.319,2.319,0,0,0,12.5,15.546H7.865a2.319,2.319,0,0,0-2.319,2.319v1.546a.773.773,0,0,1-1.546,0V17.865A3.865,3.865,0,0,1,7.865,14H12.5a3.865,3.865,0,0,1,3.865,3.865v1.546A.773.773,0,0,1,15.6,20.184Z" transform="translate(-4 -4.723)"/><path class="fill_main-color" d="M10.865,9.73a3.865,3.865,0,1,1,3.865-3.865A3.865,3.865,0,0,1,10.865,9.73Zm0-6.184a2.319,2.319,0,1,0,2.319,2.319,2.319,2.319,0,0,0-2.319-2.319Z" transform="translate(-4.681 -2)"/></g></g><g transform="translate(1357.842 603.81)"><g transform="translate(0 0)"><path class="fill_main-color" d="M15.6,20.184a.773.773,0,0,1-.773-.773V17.865A2.319,2.319,0,0,0,12.5,15.546H7.865a2.319,2.319,0,0,0-2.319,2.319v1.546a.773.773,0,0,1-1.546,0V17.865A3.865,3.865,0,0,1,7.865,14H12.5a3.865,3.865,0,0,1,3.865,3.865v1.546A.773.773,0,0,1,15.6,20.184Z" transform="translate(-4 -4.723)"/><path class="fill_main-color" d="M10.865,9.73a3.865,3.865,0,1,1,3.865-3.865A3.865,3.865,0,0,1,10.865,9.73Zm0-6.184a2.319,2.319,0,1,0,2.319,2.319,2.319,2.319,0,0,0-2.319-2.319Z" transform="translate(-4.681 -2)"/></g></g><g transform="translate(1347.494 578.729)"><g transform="translate(0 0)"><path class="fill_main-color" d="M20.956,23.043a1.13,1.13,0,0,1-1.13-1.13V19.652a3.391,3.391,0,0,0-3.391-3.391H9.652a3.391,3.391,0,0,0-3.391,3.391v2.261a1.13,1.13,0,0,1-2.261,0V19.652A5.652,5.652,0,0,1,9.652,14h6.783a5.652,5.652,0,0,1,5.652,5.652v2.261A1.13,1.13,0,0,1,20.956,23.043Z" transform="translate(-4 -0.435)"/><path class="fill_main-color" d="M12.652,13.3A5.652,5.652,0,1,1,18.3,7.652,5.652,5.652,0,0,1,12.652,13.3Zm0-9.043a3.391,3.391,0,1,0,3.391,3.391,3.391,3.391,0,0,0-3.391-3.391Z" transform="translate(-3.609 -2)"/></g></g></g></g></svg>