<svg xmlns="http://www.w3.org/2000/svg" width="60.006" height="89.118" viewBox="0 0 60.006 89.118">
    <g transform="translate(-1688.145 -424.677)">
        <g transform="translate(345.232 -154.052)">
            <g transform="translate(1342.913 633.861)">
                <g transform="translate(0 0)">
                    <path class="fill_main-color" d="M29.49,27.594a1.7,1.7,0,0,1-1.7-1.7V22.5a5.1,5.1,0,0,0-5.1-5.1H12.5a5.1,5.1,0,0,0-5.1,5.1v3.4a1.7,1.7,0,0,1-3.4,0V22.5A8.5,8.5,0,0,1,12.5,14h10.2a8.5,8.5,0,0,1,8.5,8.5v3.4A1.7,1.7,0,0,1,29.49,27.594Z" transform="translate(-4 6.392)" />
                    <path class="fill_main-color" d="M15.5,18.993a8.5,8.5,0,1,1,8.5-8.5A8.5,8.5,0,0,1,15.5,18.993ZM15.5,5.4a5.1,5.1,0,1,0,5.1,5.1,5.1,5.1,0,0,0-5.1-5.1Z" transform="translate(-1.902 -2)" />
                </g>
            </g>
            <g transform="translate(1375.73 633.861)">
                <g transform="translate(0 0)">
                    <path class="fill_main-color" d="M29.49,27.594a1.7,1.7,0,0,1-1.7-1.7V22.5a5.1,5.1,0,0,0-5.1-5.1H12.5a5.1,5.1,0,0,0-5.1,5.1v3.4a1.7,1.7,0,0,1-3.4,0V22.5A8.5,8.5,0,0,1,12.5,14h10.2a8.5,8.5,0,0,1,8.5,8.5v3.4A1.7,1.7,0,0,1,29.49,27.594Z" transform="translate(-4 6.392)" />
                    <path class="fill_main-color" d="M-6503.88-6740.868a1.744,1.744,0,0,1-1.237-.513l-11.137-11.137a1.749,1.749,0,0,1,0-2.475,1.749,1.749,0,0,1,2.475,0l11.137,11.137a1.749,1.749,0,0,1,0,2.475A1.744,1.744,0,0,1-6503.88-6740.868Z" transform="translate(6523.801 6756.455)" />
                    <path class="fill_main-color" d="M-6515.018-6740.868a1.744,1.744,0,0,1-1.237-.513,1.749,1.749,0,0,1,0-2.475l11.137-11.137a1.749,1.749,0,0,1,2.475,0,1.749,1.749,0,0,1,0,2.475l-11.137,11.137A1.744,1.744,0,0,1-6515.018-6740.868Z" transform="translate(6523.801 6756.455)" />
                </g>
            </g>
            <g transform="translate(1352.984 578.729)">
                <g transform="translate(0 0)">
                    <path class="fill_main-color" d="M41.273,33.879a2.485,2.485,0,0,1-2.485-2.485v-4.97a7.455,7.455,0,0,0-7.455-7.454H16.424A7.455,7.455,0,0,0,8.97,26.424v4.97a2.485,2.485,0,0,1-4.97,0v-4.97A12.424,12.424,0,0,1,16.424,14H31.334A12.424,12.424,0,0,1,43.758,26.424v4.97A2.485,2.485,0,0,1,41.273,33.879Z" transform="translate(-4 15.818)" />
                    <path class="fill_main-color" d="M19.424,26.848A12.424,12.424,0,1,1,31.849,14.424,12.424,12.424,0,0,1,19.424,26.848Zm0-19.879a7.454,7.454,0,1,0,7.455,7.454A7.455,7.455,0,0,0,19.424,6.97Z" transform="translate(0.455 -2)" />
                </g>
            </g>
        </g>
    </g>
</svg>