<svg xmlns="http://www.w3.org/2000/svg" width="66" height="66" viewBox="0 0 66 66"><g transform="translate(3314 1379)"><g transform="translate(-144 54)"><rect width="66" height="66" transform="translate(-3170 -1433)" fill="none"/><path d="M21.756,30.038l12.163,7.023V23.01L21.756,15.987ZM35.815,23.01V37.06l12.163-7.023V15.986Zm11.223-8.662L34.867,21.376,22.7,14.348,34.867,7.322Zm2.309-.845.527.3V30.038l14.059,8.117V55.474L48.926,64.138,34.867,56.021,20.808,64.138l-15-8.665V38.155l14.059-8.117,0-16.23L34.867,5.144ZM43.616,34.738l5.307-3.065L61.094,38.7,48.926,45.728,36.755,38.7ZM32.979,38.7,20.808,45.728,8.637,38.7l12.171-7.028Zm29.058,1.636L49.874,47.359V61.415l12.163-7.023ZM47.978,47.359,35.815,40.336V54.392l12.163,7.023ZM33.919,40.336,21.756,47.359V61.415l12.163-7.023ZM19.863,47.359,7.7,40.336V54.392L19.86,61.415V47.359Z" transform="translate(-3171.804 -1434.144)" fill="#fff" fill-rule="evenodd" opacity="0.8"/></g></g></svg>