<?xml version="1.0" encoding="utf-8"?>
<!-- Generator: Adobe Illustrator 24.3.0, SVG Export Plug-In . SVG Version: 6.00 Build 0)  -->
<svg version="1.2" baseProfile="tiny" id="Layer_1" xmlns="http://www.w3.org/2000/svg" xmlns:xlink="http://www.w3.org/1999/xlink"
	 x="0px" y="0px" viewBox="0 0 100 100" overflow="visible" xml:space="preserve">
<path id="Path_4235" fill="#FFFFFF" d="M93,20.4c4.7-2.6,4.8-6.1,0.7-5.1l-21.7,5.4c-9.2,2.5-9.6,10.8-7.1,17.6
	c2.3,3.8-2.1,4.5-6.6,5.4c-0.7-0.9-1.6-1.7-2.6-2.3l-0.4-0.1c-2.3-2.5,0.6-8.2-6.4-8.2c-1.3-0.1-2.6,0.5-3.2,1.7
	c-2.5,0-4.3,0.4-4.4,2.9c0,0.1,0,0.4,0.1,0.3c0.7-1,2.6-0.5,3.9,0.2l-0.9,3v0.1L44,41.4c-1,0.6-1.8,1.3-2.5,2.2
	c-4.5-0.9-8.6-1.7-6.4-5.3c2.5-6.9,2.1-15.1-7.1-17.6L6.3,15.3c-4-1-4,2.5,0.7,5.1c0.2,0.1,0.2,0.1-0.1,0.1
	c-4.4,0.1-0.9,3.6,1.4,4.9c0.1,0.1,0.1,0.1-0.1,0.2C7,26.2,8.5,28.3,10,28.9c0.2,0.1,0.2,0.2,0,0.4c-1,0.9,0.4,2.2,1.7,2.7
	c0.2,0.1,0.2,0.1,0.1,0.3c-0.4,0.7,0.9,2,1.9,2.2c0.2,0,0.2,0.1,0.1,0.2c0.1,1,0.7,1.8,1.6,2.3c0.2,0.1,0.2,0.1,0.2,0.3
	c-0.1,0.8,1.4,2.4,2.2,2.6c0.1,0,0.1,0.1,0.1,0.1c-0.1,0.7,1.2,2.2,2.2,2.5c0.1,0,0.1,0.1,0.1,0.1c0.1,0.5,1.2,1.7,1.9,1.6
	c0.1,0,0.1,0.1,0.1,0.1c0,0.6,1.1,1.3,1.8,1.4c0.1,0,0.2,0.1,0.2,0.2c0,0,0,0,0,0.1c0.4,0.8,1.1,1.5,2,1.7c0.1,0,0.1,0.1,0.2,0.1
	c0.6,0.9,1.6,1.4,2.7,1.6c0.1-0.1,0.1,0,0.2,0.1c0.3,0.4,1.9,0.7,2.6,0.7c0.1-0.1,0.1,0,0.2,0.1c0.4,0.4,1.2,0.8,1.6,0.6
	c0.1,0,0.2,0,0.2,0.1c0.5,0.4,1.2,0.5,1.8,0.2c0-0.1,0.1-0.1,0.2,0c0,0,0,0,0,0c0.4,0.6,1.7,0.4,2.1,0.1c0.1-0.1,0.1-0.1,0.2-0.1
	c0.6,0,1.2,0.1,1.7,0.2c0.3,2.5,0.9,5.8,1.7,9.8c-1.8,0.6-5.3,2.3-5.2,4.6l-1.8,1.1l0.1,1.3l2.3-1.1c1.4,1.7,5.1,0,7.7-1.1l0.4,0.8
	l0.2,0.4l-6.2,2.2c-1,0.4-0.5,2.2,0.1,2.2c-0.4,0.4,0.7,2.2,1.2,1.9c-0.2,0.6,1.2,1.7,1.7,1.5c0,0.5,1.2,1.3,1.7,1.1
	c0,0.6,1.4,1.2,1.7,0.9c0,0.4,1.9,1,2.3,0.5c0.5,0.6,1.3,0.7,1.9,0.3c0.1-0.1,0.2-0.1,0.2-0.2c0.3,0.8,1.7,0.5,1.9-0.1
	c0.4,0.5,2.3-0.1,2.3-0.5c0.3,0.3,1.7-0.4,1.7-0.9c0.4,0.2,1.7-0.6,1.7-1.1c0.4,0.2,1.9-0.9,1.7-1.5c0.6,0.2,1.6-1.5,1.2-1.9
	c0.7,0,1.2-1.8,0.1-2.2l-6.2-2.2l0.2-0.4l0.4-0.8c2.5,1.1,6,2.7,7.5,1.3l2.6,1.2l0.1-1.3L63,66.1c0.4-2.4-3.3-4.2-5.1-4.9
	c0.7-3.2,1.2-6.5,1.6-9.7c0.7-0.2,1.4-0.3,2.2-0.3c0.1,0,0.1,0.1,0.2,0.1c0.4,0.3,1.7,0.4,2.1-0.1c0-0.1,0.1-0.1,0.2,0c0,0,0,0,0,0
	c0.6,0.3,1.3,0.2,1.8-0.2c0.1-0.1,0.1-0.1,0.2-0.1c0.4,0.2,1.2-0.2,1.6-0.6c0.1-0.1,0.1-0.1,0.2-0.1c0.7,0.1,2.3-0.2,2.6-0.7
	c0.1-0.1,0.1-0.1,0.2-0.1c1.1-0.1,2-0.7,2.7-1.6c0.1-0.1,0.1-0.1,0.2-0.1c0.9-0.3,1.6-0.9,2-1.7c0-0.1,0.1-0.2,0.2-0.2
	c0,0,0,0,0.1,0c0.7-0.1,1.8-0.9,1.8-1.4c0-0.1,0.1-0.1,0.1-0.1c0.7,0.1,1.8-1.1,1.9-1.6c0.1-0.1,0.1-0.1,0.1-0.1
	c0.9-0.2,2.2-1.7,2.2-2.5c0-0.1,0-0.1,0.1-0.1c0.8-0.2,2.2-1.8,2.2-2.6c0-0.1,0-0.2,0.2-0.3c0.9-0.5,1.4-1.3,1.6-2.3
	c-0.1-0.1-0.1-0.2,0.1-0.2c1-0.2,2.3-1.5,1.9-2.2c-0.1-0.2-0.1-0.2,0.1-0.3c1.3-0.5,2.7-1.9,1.7-2.7c-0.2-0.1-0.2-0.2,0-0.4
	c1.5-0.6,3-2.7,1.7-3.2c-0.2-0.1-0.2-0.1-0.1-0.2c2.3-1.3,5.8-4.8,1.4-4.9C92.8,20.5,92.8,20.4,93,20.4z M46.9,35.2h1.4
	c0.2,0,0.2,0.4,0,0.4l-1.7,0.1L46.9,35.2z M45.1,35.8c0.1,0,0.2-0.1,0.2-0.2c0-0.1-0.1-0.2-0.2-0.2s-0.2,0.1-0.2,0.2c0,0,0,0,0,0
	C44.9,35.7,45,35.7,45.1,35.8L45.1,35.8z M46.6,35.6c0.3-0.6,1.4-0.5,1.1,0.2C47.4,36.5,46.4,36.4,46.6,35.6L46.6,35.6z M44.4,68.2
	L44.4,68.2 M54.7,41c0.9,1-2.2,1.7-3.1,0.7c-0.6,1-1.9,1.2-2.9,0.6c-0.3-0.2-0.5-0.4-0.6-0.7c-1.9,1.3-3.6,0.9-3.2-0.7l0.8-2.6
	c0.6,0.2,0.9,0.2,1.2-0.3c0.1-0.6-0.1-0.9-1.2-1.4c0-0.5,0.2-1,0.4-1.5c0.6-1.1,1.7-1.7,2.9-1.5C55.2,33.6,52.6,38.8,54.7,41z
	 M68.2,66.4l0.9,0.5l1.7-2.2l1.4,1l1.4-4.7l-3,1.6l4.2-5.1l1.2,0.9l1.5-4.7l-4.4,2.5l1.2,0.9l-4.8,5.8l2.2-8.6l1.7,0.4L72.6,50l-3,4
	l1.6,0.4l-2.5,9.7l-1.5,1.8l0.4,0.3l0.9-1.1L68.2,66.4z M67.2,72.2L66,71.9l-2.2,4.8l1.8-0.4h0.4l1.7,1L67.2,72.2z M63.1,74.5l1-1.8
	l0.9-1.5l-0.1-0.1l-0.5-0.3l-1.1,2l-0.9,1.3L62.2,74l-4,3.6l1.7,0.4l0.4,0.4l0.1,0.1l-0.5,1.1l-0.3-0.2l-4,3.5l1.7,0.4l0.5,0.2
	l1,1.5l1.7-5.1l-0.2-0.1l0.4-0.9l0.6,0.9L63.1,74.5z M69.6,63.8l0.8,0.6l-1.8,2.2l0.7-2.5L69.6,63.8z M31.3,66.4l0.4-0.4
	c-0.6-0.5-1.3-1-1.9-1.4l0.1-0.2c0.4-0.3,1.3-3.2,1.5-4.5c0.5-2.8,0.3-2.5-1.1-0.4c-0.4,0.5-0.7,1-0.9,1.5c-0.3-0.8-0.8-1.5-1.3-2.2
	c-1.6-2.3-1.8-2.8-1.1,0.5c0.3,1.7,0.8,3.3,1.5,4.9c-0.5-0.2-1-0.4-1.6-0.5c-0.6-0.1-1.3-0.3-1.8-0.7c0.4-1.9,0.4-1.9-1.4-4.6
	c-1.4-1.8-1.6-2.1-0.9,0.6c0.2,1.3,0.6,2.5,1.2,3.7c-2-1.1-3.5-2.8-4.3-5c1.1-0.9,1.8-2.2,1.9-3.6c0.4-2.2,0.4-2.6-1-0.4
	c-0.3,0.8-1,2.4-1.3,3.3c-0.4-1.1-0.7-2.3-0.9-3.5c0.1-1.3,0-2.6-0.2-3.9c-0.7-2.5-0.7-2.2-1,0c-0.2,0.9-0.2,1.8,0.1,2.6
	c-0.4-0.5-0.9-0.9-1.4-1.3c-1.8-1.4-2.2-1.8-0.8,0.7c0.8,1.2,1.7,2.3,2.7,3.3c0.2,0.7,0.4,1.5,0.7,2.2c-0.6-0.6-1.3-1.1-2-1.5
	c-2.2-1.4-2-1.2-0.9,0.3c-1.2-0.2-1.2-0.1,0.3,1c0.8,0.5,2.6,1.7,3.1,1.7l0.2-0.1c0.8,1.5,1.9,2.8,3.2,3.8c-1.2-0.3-2.5-0.5-3.8-0.6
	c-3.5-0.2-3,0.1-0.4,1.2c0.8,0.5,1.6,0.7,2.5,0.7c-0.4,0.4-1,0.7-1.6,1.3c-1.8,1.6-2.1,1.9,0.7,0.9c1.2-0.4,3.9-1.6,4-2.2l0.1-0.3
	v-0.1c0.8,0.4,1.7,0.7,2.7,0.9c0.5,0,1.1,0.2,1.6,0.4c-1.6,0.3-3.2,0.8-4.7,1.4c-3.3,1.4-2.7,1.4,0.1,1.4c2.2,0.2,4.3-0.6,5.8-2.2
	C30.2,65.5,30.8,65.9,31.3,66.4z M34.4,71.6l-0.6,0.2c1.3,2.1,1.4,4.7,0.4,7l0.7,0.3C36,77.1,35.7,74,34.4,71.6L34.4,71.6z M32,70.3
	c-0.4,0.2,0.1,1.4,0.6,1.2l2.9-1.5c0.4-0.1-0.1-1.3-0.6-1.1L32,70.3z M31.2,68.8c-0.4,0.2,0.1,1.4,0.6,1.2l2.1-1.1
	c-0.6,0.1-0.9-0.1-1.1-0.9L31.2,68.8z M33.1,65.7l0.1,2.6c0,0.4,1.2,0.7,1.2-0.1l-0.1-2.6C34.4,65.1,33.1,65.1,33.1,65.7L33.1,65.7z
	 M30.3,67.2c-0.4,0.1,0.2,1.3,0.6,1.1l2.1-1.1l-0.2-1.3L30.3,67.2z M67.9,70.7L65,69.3c-0.5-0.2-1,0.9-0.6,1.1l2.9,1.5
	C67.8,72.1,68.3,70.9,67.9,70.7L67.9,70.7z M68.7,69.1l-1.6-0.8c-0.1,0.7-0.5,0.9-1.1,0.9l2.1,1.1C68.5,70.5,69.1,69.3,68.7,69.1
	L68.7,69.1z M66.7,66c0.1-0.6-1.2-0.5-1.2-0.1l-0.1,2.6c0,0.7,1.2,0.5,1.2,0.1L66.7,66z M69.5,67.5L67,66.2l-0.2,1.3l2.1,1.1
	C69.3,68.8,69.9,67.7,69.5,67.5L69.5,67.5z"/>
</svg>
