<svg xmlns="http://www.w3.org/2000/svg" width="66" height="66" viewBox="0 0 66 66"><g transform="translate(3309 1236)"><rect width="66" height="66" transform="translate(-3309 -1236)" fill="none"/><g transform="translate(-201 54)"><path d="M35.389,5.367A30.022,30.022,0,1,1,5.367,35.389,30.023,30.023,0,0,1,35.389,5.367ZM62.961,40.751c-3.539,3.657-9.913,5.78-15.373,6.837-1.056,5.46-3.182,11.837-6.837,15.373a28.111,28.111,0,0,0,22.21-22.21ZM45.543,47.942a67.649,67.649,0,0,1-20.31,0c1.188,5.717,4.561,15.531,10.155,15.531s8.968-9.814,10.155-15.531Zm-22.354-.355c-5.46-1.056-11.837-3.179-15.373-6.837a28.108,28.108,0,0,0,22.212,22.21c-3.657-3.537-5.783-9.913-6.839-15.373ZM7.816,30.026c3.539-3.657,9.913-5.78,15.376-6.837,1.056-5.46,3.182-11.837,6.837-15.376A28.108,28.108,0,0,0,7.816,30.026Zm17.418-7.191a67.649,67.649,0,0,1,20.31,0C44.356,17.117,40.983,7.3,35.389,7.3s-8.968,9.814-10.155,15.531Zm22.354.355c5.46,1.056,11.837,3.182,15.373,6.837a28.111,28.111,0,0,0-22.21-22.21c3.655,3.537,5.78,9.913,6.837,15.373Zm7.967,20.045c10.552-4.485,10.552-11.206,0-15.691a40.678,40.678,0,0,0-7.609-2.31,67.649,67.649,0,0,1,0,20.31,40.661,40.661,0,0,0,7.609-2.31ZM45.923,24.855a65.759,65.759,0,0,0-21.069,0,65.759,65.759,0,0,0,0,21.069,65.759,65.759,0,0,0,21.069,0A65.609,65.609,0,0,0,45.923,24.855Zm-23.087.378C17.118,26.421,7.3,29.795,7.3,35.389s9.814,8.968,15.528,10.155a67.735,67.735,0,0,1,0-20.31Z" transform="translate(-3110.367 -1292.367)" fill-rule="evenodd" opacity="0.8"/></g></g></svg>