<svg id="Group_228" data-name="Group 228" xmlns="http://www.w3.org/2000/svg" xmlns:xlink="http://www.w3.org/1999/xlink" width="18.25" height="17.014" viewBox="0 0 18.25 17.014">
  <defs>
    <clipPath id="clip-path">
      <rect id="Rectangle_449" data-name="Rectangle 449" width="18.25" height="17.014" fill="#b7b7b7"/>
    </clipPath>
  </defs>
  <g id="Group_227" data-name="Group 227" clip-path="url(#clip-path)">
    <path id="Path_65" data-name="Path 65" d="M7.274,119.562H.808a.846.846,0,0,1,0-1.689H7.274a.846.846,0,0,1,0,1.689" transform="translate(-0.007 -106.02)" fill="#b7b7b7"/>
    <path id="Path_66" data-name="Path 66" d="M36.8,123.638a.777.777,0,0,1-.566-.247.878.878,0,0,1,0-1.194l3.226-3.4a.771.771,0,0,1,1.132,0,.878.878,0,0,1,0,1.194l-3.226,3.4A.776.776,0,0,1,36.8,123.638Z" transform="translate(-32.568 -106.624)" fill="#b7b7b7"/>
    <path id="Path_67" data-name="Path 67" d="M40.021,89.1a.777.777,0,0,1-.566-.247l-3.228-3.405a.878.878,0,0,1,0-1.194.771.771,0,0,1,1.132,0l3.228,3.405a.878.878,0,0,1,0,1.194A.777.777,0,0,1,40.021,89.1Z" transform="translate(-32.562 -75.559)" fill="#b7b7b7"/>
    <path id="Path_68" data-name="Path 68" d="M6.312,8.114a.784.784,0,0,1-.63-.323A.876.876,0,0,1,5.817,6.6a2.793,2.793,0,0,0,1-2.165A2.685,2.685,0,0,0,4.208,1.69,2.685,2.685,0,0,0,1.6,4.44,2.8,2.8,0,0,0,2.582,6.59a.877.877,0,0,1,.125,1.187.772.772,0,0,1-1.125.132A4.515,4.515,0,0,1,0,4.44,4.334,4.334,0,0,1,4.209,0,4.334,4.334,0,0,1,8.417,4.44,4.505,4.505,0,0,1,6.806,7.933.771.771,0,0,1,6.312,8.114Z" transform="translate(0)" fill="#b7b7b7"/>
    <path id="Path_69" data-name="Path 69" d="M114.108,36.222h-6.465a.846.846,0,0,1,0-1.689h6.466a.846.846,0,0,1,0,1.689Z" transform="translate(-96.659 -31.061)" fill="#b7b7b7"/>
    <path id="Path_70" data-name="Path 70" d="M105.62,5.1a.777.777,0,0,1-.566-.247.878.878,0,0,1,0-1.194l3.226-3.4a.771.771,0,0,1,1.132,0,.878.878,0,0,1,0,1.194l-3.226,3.4A.781.781,0,0,1,105.62,5.1Z" transform="translate(-94.829 -0.01)" fill="#b7b7b7"/>
    <path id="Path_71" data-name="Path 71" d="M108.841,39.631a.777.777,0,0,1-.566-.247l-3.228-3.405a.878.878,0,0,1,0-1.194.771.771,0,0,1,1.132,0l3.228,3.405a.878.878,0,0,1,0,1.194A.779.779,0,0,1,108.841,39.631Z" transform="translate(-94.823 -31.063)" fill="#b7b7b7"/>
    <path id="Path_72" data-name="Path 72" d="M107.375,96.621a4.334,4.334,0,0,1-4.209-4.44,4.508,4.508,0,0,1,1.611-3.493.773.773,0,0,1,1.124.143.876.876,0,0,1-.135,1.186,2.794,2.794,0,0,0-1,2.165,2.611,2.611,0,1,0,5.214,0,2.8,2.8,0,0,0-.981-2.15.877.877,0,0,1-.125-1.187A.774.774,0,0,1,110,88.712a4.515,4.515,0,0,1,1.582,3.47A4.333,4.333,0,0,1,107.375,96.621Z" transform="translate(-93.333 -79.607)" fill="#b7b7b7"/>
  </g>
</svg>
