<?xml version="1.0" encoding="utf-8"?>
<!-- Generator: Adobe Illustrator 23.0.0, SVG Export Plug-In . SVG Version: 6.00 Build 0)  -->
<svg version="1.1" id="Layer_1" xmlns="http://www.w3.org/2000/svg" xmlns:xlink="http://www.w3.org/1999/xlink" x="0px" y="0px"
	 viewBox="0 0 16 16" style="enable-background:new 0 0 16 16;" xml:space="preserve">
<style type="text/css">
	.tab-wallet0{fill:#808184;}
</style>
<g id="white">
</g>
<g id="Layer_4">
	<g id="XMLID_1947_">
		<path id="XMLID_1949_" class="tab-wallet0" d="M11.26,2.07L11.26,2.07L11.26,2.07L11.18,1.7c0,0,0-0.07-0.07-0.15
			c-0.07-0.07-0.15-0.07-0.29,0l-8.38,2.1L11.26,2.07z"/>
		<path id="XMLID_1948_" class="tab-wallet0" d="M3.47,3.87L3.47,3.87l8.45-0.59l0,0l0,0L11.77,2.7c0,0,0-0.07-0.07-0.15
			c-0.07-0.07-0.22-0.07-0.44-0.07L3.47,3.87L3.47,3.87z"/>
	</g>
	<path id="XMLID_1945_" class="tab-wallet0" d="M15.3,11.88l-2.02-7.79c0,0-0.07-0.51-0.95-0.44L1.71,4.46c0,0-0.81,0.07-0.66,1.07
		l1.36,8.67c0,0,0.07,0.73,1.14,0.73c1.14,0,9.88-0.88,10.17-0.95c0.29,0,0.81-0.29,0.73-0.73v-0.66l0.44-0.07
		C15.08,12.47,15.37,12.32,15.3,11.88z M13.79,13.13c-0.22,0.29-0.44,0.29-0.59,0.29l-9.59,0.95c-0.15,0-0.29,0-0.44-0.07
		C3.1,14.23,3.1,14.23,3.1,14.16s0-0.15,0.07-0.15c0.15-0.22,0.66-0.22,0.66-0.22l9.95-1.14l0,0
		C13.94,12.83,13.94,12.98,13.79,13.13z"/>
</g>
</svg>
