<?xml version="1.0" encoding="utf-8"?>
<!-- Generator: Adobe Illustrator 23.0.0, SVG Export Plug-In . SVG Version: 6.00 Build 0)  -->
<svg version="1.1" id="Layer_1" xmlns="http://www.w3.org/2000/svg" xmlns:xlink="http://www.w3.org/1999/xlink" x="0px" y="0px"
	 viewBox="0 0 16 16" style="enable-background:new 0 0 16 16;" xml:space="preserve">
<style type="text/css">
	.tab-security0{fill:#808184;}
</style>
<g id="white">
</g>
<g id="Layer_4">
	<path class="tab-security0" d="M13.15,7.28h-0.67V5.61c0-2.4-1.93-4.33-4.33-4.33S3.82,3.21,3.82,5.61v1.67H3.15c-0.37,0-0.67,0.3-0.67,0.67
		v6c0,0.37,0.3,0.67,0.67,0.67h10c0.37,0,0.67-0.3,0.67-0.67v-6C13.82,7.58,13.52,7.28,13.15,7.28z M5.15,5.61c0-1.67,1.33-3,3-3
		s3,1.33,3,3v1.67h-6C5.15,7.28,5.15,5.61,5.15,5.61z"/>
</g>
</svg>
