<?xml version="1.0" encoding="utf-8"?>
<!-- Generator: Adobe Illustrator 23.0.0, SVG Export Plug-In . SVG Version: 6.00 Build 0)  -->
<svg version="1.1" id="Layer_1" xmlns="http://www.w3.org/2000/svg" xmlns:xlink="http://www.w3.org/1999/xlink" x="0px" y="0px"
	 viewBox="0 0 16 16" style="enable-background:new 0 0 16 16;" xml:space="preserve">
<style type="text/css">
	.tab-setting0{fill:#808184;}
</style>
<g id="white">
</g>
<g id="Layer_4">
	<g>
		<path class="tab-setting0" d="M12.95,8.78c0-0.2,0.07-0.4,0.07-0.68c0.01-0.23-0.01-0.46-0.07-0.68l1.42-1.15c0.12-0.1,0.15-0.27,0.07-0.4
			L13.09,3.5c-0.11-0.1-0.27-0.13-0.4-0.07L11,4.11c-0.36-0.26-0.74-0.49-1.15-0.68L9.58,1.68c0.07-0.2-0.13-0.34-0.27-0.34H6.59
			c-0.13,0-0.34,0.13-0.34,0.27L5.99,3.43c-0.4,0.13-0.74,0.4-1.15,0.68L3.21,3.44C3.04,3.38,2.85,3.43,2.74,3.57L1.38,5.94
			c-0.07,0.07,0,0.27,0.13,0.4l1.42,1.08c0,0.2-0.07,0.4-0.07,0.68C2.85,8.33,2.87,8.56,2.93,8.78L1.52,9.93
			c-0.12,0.1-0.15,0.27-0.07,0.41L2.8,12.7c0.11,0.1,0.27,0.13,0.4,0.07l1.7-0.67c0.36,0.26,0.74,0.49,1.15,0.68l0.27,1.76
			c0.02,0.17,0.17,0.28,0.34,0.27h2.7c0.13,0,0.34-0.13,0.34-0.27l0.27-1.76c0.41-0.18,0.79-0.41,1.15-0.68l1.69,0.68
			c0.15,0.06,0.32,0.01,0.4-0.13l1.37-2.37c0.07-0.13,0.07-0.34-0.07-0.4L12.95,8.78z M7.94,10.47c-1.31,0-2.37-1.06-2.37-2.37
			s1.06-2.37,2.37-2.37s2.37,1.06,2.37,2.37l0,0C10.3,9.4,9.24,10.45,7.94,10.47z"/>
	</g>
</g>
</svg>
