<?xml version="1.0" encoding="utf-8"?>
<!-- Generator: Adobe Illustrator 25.0.0, SVG Export Plug-In . SVG Version: 6.00 Build 0)  -->
<svg version="1.1" id="Layer_1" xmlns="http://www.w3.org/2000/svg" xmlns:xlink="http://www.w3.org/1999/xlink" x="0px" y="0px"
	 viewBox="0 0 80 23" style="enable-background:new 0 0 80 23;" xml:space="preserve">
<style type="text/css">
	.taker-tier{fill:#F28041;}
	.st1{enable-background:new    ;}
</style>
<path id="Rectangle_2794" class="taker-tier" d="M8,2h64c2.8,0,5,2.2,5,5v9c0,2.8-2.2,5-5,5H8c-2.8,0-5-2.2-5-5V7C3,4.2,5.2,2,8,2z"/>
<g class="st1">
	<path d="M18.8,8.3h5.5v1.3h-2V15h-1.5V9.6h-2V8.3z"/>
	<path d="M26.2,8.3h1.6l2.4,6.7h-1.6l-0.4-1.3h-2.4L25.4,15h-1.5L26.2,8.3z M26.1,12.6h1.7l-0.4-1.3c-0.1-0.2-0.1-0.4-0.2-0.7
		c-0.1-0.2-0.1-0.4-0.1-0.6c0-0.2-0.1-0.4-0.1-0.5h0c0,0.2-0.1,0.4-0.1,0.6c0,0.2-0.1,0.4-0.1,0.6c-0.1,0.2-0.1,0.4-0.2,0.6
		L26.1,12.6z"/>
	<path d="M30.9,8.3h1.5v1.1c0,0.3,0,0.6,0,0.9c0,0.3,0,0.5,0,0.7l2.5-2.7h1.8L34.2,11l2.7,4h-1.8l-2-3l-0.6,0.6V15h-1.5V8.3z"/>
	<path d="M37.6,8.3h5v1.3h-3.5v1.3h3v1.2h-3v1.6h3.6V15h-5.1V8.3z"/>
	<path d="M43.6,8.3h3.2c0.3,0,0.6,0,0.9,0.1c0.3,0.1,0.5,0.2,0.7,0.4s0.4,0.4,0.5,0.6c0.1,0.2,0.2,0.5,0.2,0.8c0,0.4-0.1,0.7-0.3,1
		c-0.2,0.3-0.5,0.5-0.9,0.6v0c0.3,0.1,0.6,0.3,0.7,0.5c0.2,0.2,0.3,0.5,0.3,0.8c0,0.2,0.1,0.4,0.1,0.6s0,0.4,0,0.5s0,0.3,0.1,0.4
		c0,0.1,0.1,0.2,0.1,0.2V15h-1.5c0,0-0.1-0.1-0.1-0.2c0-0.1,0-0.2-0.1-0.4c0-0.1,0-0.3,0-0.5c0-0.2,0-0.4,0-0.5
		c0-0.3-0.2-0.6-0.3-0.8c-0.2-0.2-0.5-0.3-0.8-0.3h-1.1V15h-1.5V8.3z M45.1,11.3h1.4c0.3,0,0.6-0.1,0.8-0.2c0.2-0.2,0.3-0.4,0.3-0.6
		c0-0.3-0.1-0.5-0.2-0.7c-0.2-0.2-0.4-0.2-0.8-0.2h-1.4V11.3z"/>
</g>
<g class="st1">
	<path d="M59.8,12.7c-0.5,0-0.9-0.1-1.3-0.2c-0.4-0.2-0.7-0.4-1-0.7c-0.3-0.3-0.5-0.7-0.7-1.1c-0.2-0.4-0.2-0.9-0.2-1.5
		c0-0.5,0.1-1,0.2-1.5c0.2-0.4,0.4-0.8,0.7-1.1c0.3-0.3,0.6-0.5,1-0.7c0.4-0.2,0.8-0.2,1.3-0.2c0.5,0,0.9,0.1,1.3,0.2
		c0.4,0.2,0.7,0.4,1,0.7c0.3,0.3,0.5,0.7,0.6,1.1C62.9,8.1,63,8.6,63,9.2s-0.1,1-0.2,1.5s-0.4,0.8-0.7,1.1c-0.3,0.3-0.6,0.5-1,0.7
		C60.7,12.6,60.2,12.7,59.8,12.7z M59.8,11.2c0.4,0,0.7-0.2,0.9-0.6c0.2-0.4,0.3-0.9,0.3-1.5c0-0.6-0.1-1.1-0.3-1.5
		c-0.2-0.4-0.5-0.6-0.9-0.6c-0.4,0-0.7,0.2-0.9,0.6c-0.2,0.4-0.3,0.9-0.3,1.5s0.1,1.1,0.3,1.5C59.1,11,59.4,11.2,59.8,11.2z
		 M66.5,5.9h1.6L61.5,18h-1.6L66.5,5.9z M68.2,18.3c-0.5,0-0.9-0.1-1.3-0.3c-0.4-0.2-0.7-0.4-1-0.7c-0.3-0.3-0.5-0.7-0.7-1.1
		S65,15.3,65,14.8c0-0.5,0.1-1,0.2-1.5s0.4-0.8,0.7-1.1c0.3-0.3,0.6-0.5,1-0.7s0.8-0.3,1.3-0.3c0.5,0,0.9,0.1,1.3,0.3
		c0.4,0.2,0.7,0.4,1,0.7c0.3,0.3,0.5,0.7,0.7,1.1s0.2,0.9,0.2,1.5c0,0.5-0.1,1-0.2,1.5s-0.4,0.8-0.7,1.1s-0.6,0.5-1,0.7
		C69.1,18.2,68.7,18.3,68.2,18.3z M68.2,16.8c0.4,0,0.7-0.2,0.9-0.6c0.2-0.4,0.3-0.9,0.3-1.5s-0.1-1.1-0.3-1.5s-0.5-0.6-0.8-0.6
		c-0.4,0-0.7,0.2-0.9,0.6s-0.3,0.9-0.3,1.5s0.1,1.1,0.3,1.5C67.5,16.6,67.8,16.8,68.2,16.8z"/>
</g>
<circle id="Ellipse_557" cx="11.5" cy="11.5" r="2.5"/>
</svg>
