<?xml version="1.0" encoding="utf-8"?>
<!-- Generator: Adobe Illustrator 24.3.0, SVG Export Plug-In . SVG Version: 6.00 Build 0)  -->
<svg version="1.2" baseProfile="tiny" id="Layer_1" xmlns="http://www.w3.org/2000/svg" xmlns:xlink="http://www.w3.org/1999/xlink"
	 x="0px" y="0px" viewBox="0 0 110 120" overflow="visible" xml:space="preserve">
<path id="Path_4265" fill="#288500" d="M21.8,76l32.4,10.9v13L13.8,86.5L21.8,76z"/>
<path id="Path_4271" fill="#288500" d="M37.8,47.5l16.4,6.3v13l-24.4-8.8L37.8,47.5z"/>
<path id="Path_4266" fill="#288500" d="M88.2,76L54.8,86.9v13l40.4-13.3L88.2,76z"/>
<path id="Path_4270" fill="#288500" d="M72.9,47.5l-18,6.3v13l25-8.8L72.9,47.5z"/>
<path id="Path_4268" fill="#288500" d="M56.5,18.7l-1.7,0.1v15l8.6-3.6L56.5,18.7z"/>
<path id="Path_4269" fill="#288500" d="M52.8,18.7l1.7,0.1v15l-8.6-3.6L52.8,18.7z"/>
<path id="Path_4259" fill="#FFFFFF" stroke="#FFFFFF" stroke-width="0.6" d="M20.5,76.8L15,85c-0.8,1.1-1,1.1,0.1,1.4l38.5,13.4
	c0.7,0.2,0.8,0.3,0.8-0.5V87.6L22.5,76.5C21.3,76,21.3,75.7,20.5,76.8z M25.2,74.2l-2.4,1c-0.6,0.2-0.7,0.2,0,0.4l32,11.2
	c10.8-3.8,21.8-7.4,32.5-11.4c-1-0.4-2-0.8-3-1.2l-28.2,9.9c-0.4,0.2-0.9,0.3-1.3,0.4c-0.5-0.1-0.9-0.2-1.3-0.4
	C44.1,80.8,34.6,77.5,25.2,74.2L25.2,74.2z M22.4,74.4l1.5-0.7l-1.2-0.4c-0.5-0.2-1.4-0.3-1.5-0.8C21,72,21.7,71.3,22,70.9l5.9-8.6
	c0.4-0.6,0.5-1.1,1.3-1.4c0.3-0.1,0.7-0.3,0.9-0.3l1.9-0.8l-1.1-0.4c-0.5-0.2-1.4-0.4-1.6-0.9c-0.2-0.5,0.5-1.3,0.9-1.8l5.9-8.5
	c0.6-0.9,0.4-0.9,1.6-1.4l2.2-0.9l-1.6-0.6c-0.4-0.1-1-0.2-1.1-0.6c-0.2-0.4,0.2-0.8,0.4-1.1l6.6-9.7c0.1-0.2,0.3-0.5,0.5-0.6
	c0.2-0.1,0.5-0.2,0.8-0.3l2.4-1L46,31.4c-0.4-0.1-1-0.2-1.1-0.7c-0.1-0.4,0.4-0.9,0.6-1.2l8.5-12.6c0.2-0.2,0.4-0.7,0.7-0.7
	c0.4,0,0.6,0.5,0.8,0.8l8.6,12.6c0.2,0.3,0.6,0.7,0.5,1.1c-0.1,0.4-0.7,0.5-1,0.6L61.9,32l2.1,0.9c0.8,0.2,1.5,0.8,1.9,1.6l5.8,8.6
	c0.3,0.4,1,1.2,0.9,1.6c-0.1,0.5-1,0.7-1.5,0.9l-1.3,0.5l2,0.8c0.9,0.2,1.7,0.8,2.1,1.7l5.9,8.8c0.3,0.4,0.7,1.1,0.6,1.4
	c-0.1,0.4-0.9,0.6-1.3,0.8l-1.4,0.5c0.8,0.3,1.6,0.7,2.5,1c0.7,0.2,1.2,0.7,1.5,1.4l6.1,9c0.2,0.4,0.8,0.9,0.6,1.3
	c-0.1,0.5-0.8,0.6-1.2,0.7l-1.6,0.6c0.2,0.1,1.8,0.7,2.7,1.1c0.7,0.3,1.2,0.8,1.5,1.5c1.9,2.7,3.7,5.5,5.6,8.2
	c0.3,0.5,1,1.3,0.9,1.8c-0.2,0.6-1.2,0.8-1.7,0.9l-38.4,13.4c-1.5,0.5-1.3,0.5-2.7,0L14.8,87.2c-2.3-0.8-1.6-1.2-0.5-2.8l5.5-8.1
	C20.7,74.9,20.9,75,22.4,74.4L22.4,74.4z M55.9,83.2l31-10.8c0.7-0.2,0.5-0.3,0.2-0.7c-2.1-3.2-4.5-6.6-6.5-9.6l-19.7,6.9l-5.6,2
	v11.9C55.3,83.6,55.2,83.4,55.9,83.2L55.9,83.2z M88,76.1L55.3,87.6v11.7c0,0.8,0.1,0.8,0.9,0.5l38.1-13.3c0.2-0.1,0.3-0.1,0.5-0.2
	c0.5-0.2,0.5-0.3,0.2-0.8c-0.1-0.1-0.1-0.2-0.3-0.5l-5.6-8.3c-0.1-0.1-0.2-0.3-0.3-0.5C88.4,75.9,88.6,76,88,76.1L88,76.1z
	 M38.4,62.1l-5.2-1.8l-2.4,1c-0.6,0.2-0.6,0.2,0,0.4l24,8.5l6.4-2.2l18.3-6.4c-1-0.4-2-0.8-3-1.2l-20.6,7.2c-0.7,0.4-1.6,0.4-2.3,0
	L38.4,62.1z M38.7,61.2l15.2,5.3c0.6,0.2,0.5,0.3,0.5-0.4v-12l-16.8-5.9c-0.7-0.3-0.5-0.3-0.9,0.3l-6,8.7c-0.7,1-0.7,0.9,0.4,1.3
	L38.7,61.2z M55.8,66.5c7.7-2.7,15.4-5.4,23-8.1c0.7-0.2,0.7-0.1,0.2-0.8l-5.9-8.8c-0.6-0.9-0.8-0.6-1.9-0.3
	c-5.3,1.9-10.7,3.9-16,5.6v12C55.3,66.8,55.2,66.8,55.8,66.5L55.8,66.5z M54.3,70.9l-24.5-8.6c-0.7-0.2-0.6-0.4-1.1,0.3l-6,8.8
	c-0.6,0.8-0.7,0.8,0.3,1.1l30.5,10.7c1,0.3,0.8,0.3,0.8-0.5L54.3,70.9z M53.9,50.8l-12.8-4.5l-2.9,1.2l15.6,5.5c0.6,0.4,1.4,0.4,2,0
	l15.7-5.5l-3-1.2l-12.9,4.5c-0.3,0.1-0.6,0.2-0.9,0.3C54.5,51.1,54.2,51,53.9,50.8L53.9,50.8z M55.6,50l15.3-5.3
	c0.8-0.3,0.8-0.3,0.1-1.2c-2.1-3.1-4.2-6.1-6.3-9.2l-9.4,3.3v12.3C55.3,50.1,55.2,50.1,55.6,50L55.6,50z M49,32.5L46,33.7l8.8,3.1
	l8.8-3.1l-3-1.2l-5.1,1.8c-0.2,0.1-0.5,0.2-0.7,0.2c-0.4-0.1-0.9-0.2-1.3-0.4L49,32.5L49,32.5z M54.3,33.2l0-14.6
	c0-0.6,0.1-0.6-0.3-0.1L46.3,30c-0.4,0.6-0.4,0.4,0.1,0.6l7.8,2.7C54.4,33.4,54.4,33.4,54.3,33.2L54.3,33.2z M55.6,33.2l4.9-1.7
	l2.7-1c0.4-0.2,0.3-0.1,0.1-0.4l-7.9-11.6c-0.3-0.5-0.3-0.5-0.3,0.1v14.3C55.3,33.5,55.2,33.4,55.6,33.2L55.6,33.2z M54.3,37.5
	l-9.1-3.1c-0.4-0.1-0.3-0.2-0.6,0.2L38.3,44c-0.2,0.3-0.4,0.4,0.2,0.5L54.1,50c0.3,0.1,0.3,0.2,0.3-0.1L54.3,37.5z"/>
</svg>
