<?xml version="1.0" encoding="utf-8"?>
<!-- Generator: Adobe Illustrator 24.3.0, SVG Export Plug-In . SVG Version: 6.00 Build 0)  -->
<svg version="1.2" baseProfile="tiny" id="Layer_1" xmlns="http://www.w3.org/2000/svg" xmlns:xlink="http://www.w3.org/1999/xlink"
	 x="0px" y="0px" viewBox="0 0 300 135" overflow="visible" xml:space="preserve">
<g>
	<polygon fill="#C4C4C4" points="95.6,3.2 91.5,3.2 90.7,7.3 94.8,7.3 	"/>
	<polygon fill="#C4C4C4" points="100.8,3.2 96.7,3.2 95.9,7.3 100,7.3 	"/>
	<polygon fill="#C4C4C4" points="106.1,3.2 102,3.2 101.1,7.3 105.2,7.3 	"/>
	<polygon fill="#C4C4C4" points="111.3,3.2 107.2,3.2 106.3,7.3 110.4,7.3 	"/>
	<polygon fill="#C4C4C4" points="116.5,3.3 112.4,3.3 111.5,7.4 115.6,7.4 	"/>
	<polygon fill="#C4C4C4" points="121.7,3.3 117.6,3.3 116.7,7.4 120.8,7.4 	"/>
	<polygon fill="#C4C4C4" points="126.9,3.3 122.8,3.3 122,7.4 126.1,7.4 	"/>
	<polygon fill="#C4C4C4" points="89.5,8.3 85.4,8.3 84.5,12.4 88.7,12.4 	"/>
	<polygon fill="#C4C4C4" points="94.7,8.3 90.5,8.3 89.7,12.4 93.8,12.4 	"/>
	<polygon fill="#C4C4C4" points="99,12.3 99.9,8.2 95.7,8.2 94.9,12.3 	"/>
	<polygon fill="#C4C4C4" points="104.3,12.3 105.1,8.2 101,8.2 100.1,12.3 	"/>
	<polygon fill="#C4C4C4" points="109.5,12.3 110.3,8.2 106.2,8.2 105.3,12.3 	"/>
	<polygon fill="#C4C4C4" points="114.6,12.4 115.5,8.3 111.4,8.3 110.5,12.4 	"/>
	<polygon fill="#C4C4C4" points="119.8,12.4 120.7,8.3 116.6,8.3 115.7,12.4 	"/>
	<polygon fill="#C4C4C4" points="88.5,13.3 84.4,13.3 83.5,17.4 87.6,17.4 	"/>
	<polygon fill="#C4C4C4" points="99.2,17.4 103.3,17.4 104.2,13.3 100.1,13.3 	"/>
	<polygon fill="#C4C4C4" points="97.5,27.2 101.7,27.2 102.5,23.1 98.4,23.1 	"/>
	<polygon fill="#C4C4C4" points="104.3,17.3 108.4,17.3 109.3,13.2 105.2,13.2 	"/>
	<polygon fill="#C4C4C4" points="103.5,22.3 107.6,22.3 108.5,18.2 104.3,18.2 	"/>
	<polygon fill="#C4C4C4" points="102.7,27.3 106.8,27.3 107.6,23.2 103.5,23.2 	"/>
	<polygon fill="#C4C4C4" points="113.6,18.3 109.5,18.3 108.6,22.4 112.7,22.4 	"/>
	<polygon fill="#C4C4C4" points="114.7,17.5 118.8,17.5 119.7,13.4 115.6,13.4 	"/>
	<polygon fill="#C4C4C4" points="125.2,12.4 126.1,8.3 122,8.3 121.1,12.4 	"/>
	<polygon fill="#C4C4C4" points="130.4,12.6 131.3,8.5 127.2,8.5 126.3,12.6 	"/>
	<polygon fill="#C4C4C4" points="113.8,22.5 117.9,22.5 118.7,18.4 114.6,18.4 	"/>
	<polygon fill="#C4C4C4" points="109.5,17.4 113.6,17.4 114.5,13.3 110.4,13.3 	"/>
	<polygon fill="#C4C4C4" points="120,17.4 124.1,17.4 124.9,13.3 120.8,13.3 	"/>
	<polygon fill="#C4C4C4" points="120.4,26.3 124.6,26.3 125.4,22.2 121.3,22.2 	"/>
	<polygon fill="#C4C4C4" points="92.6,18.3 88.5,18.3 87.7,22.4 91.8,22.4 	"/>
	<polygon fill="#C4C4C4" points="128.7,28.6 124.6,28.6 123.7,32.7 127.8,32.7 	"/>
	<polygon fill="#C4C4C4" points="57.2,13.3 53,13.3 52.2,17.4 56.3,17.4 	"/>
	<polygon fill="#C4C4C4" points="43.1,37.3 47.3,37.3 48.1,33.2 44,33.2 	"/>
	<polygon fill="#C4C4C4" points="49.4,32.4 53.5,32.4 54.4,28.3 50.3,28.3 	"/>
	<polygon fill="#C4C4C4" points="48.4,37.5 52.6,37.5 53.4,33.4 49.3,33.4 	"/>
	<polygon fill="#C4C4C4" points="47.2,42.4 51.3,42.4 52.2,38.3 48.1,38.3 	"/>
	<polygon fill="#C4C4C4" points="51.2,43.3 47.1,43.3 46.2,47.4 50.4,47.4 	"/>
	<polygon fill="#C4C4C4" points="40.9,48.4 40.1,52.5 44.2,52.5 45,48.4 	"/>
	<polygon fill="#C4C4C4" points="56.7,68.3 52.6,68.3 51.7,72.4 55.8,72.4 	"/>
	<polygon fill="#C4C4C4" points="83.3,13.3 79.2,13.3 78.3,17.4 82.4,17.4 	"/>
	<polygon fill="#C4C4C4" points="60.6,22.4 61.4,18.3 57.3,18.3 56.5,22.4 	"/>
	<polygon fill="#C4C4C4" points="66.6,18.3 62.5,18.3 61.7,22.4 65.8,22.4 	"/>
	<polygon fill="#C4C4C4" points="66.9,22.4 71,22.4 71.8,18.3 67.7,18.3 	"/>
	<polygon fill="#C4C4C4" points="72.1,22.4 76.2,22.4 77,18.3 72.9,18.3 	"/>
	<polygon fill="#C4C4C4" points="81.4,22.4 82.3,18.3 78.2,18.3 77.3,22.4 	"/>
	<polygon fill="#C4C4C4" points="55.5,27.4 59.6,27.4 60.5,23.3 56.4,23.3 	"/>
	<polygon fill="#C4C4C4" points="54.6,32.4 58.7,32.4 59.6,28.3 55.5,28.3 	"/>
	<polygon fill="#C4C4C4" points="53.7,37.5 57.8,37.5 58.7,33.4 54.6,33.4 	"/>
	<polygon fill="#C4C4C4" points="64.9,27.2 65.8,23.1 61.7,23.1 60.8,27.2 	"/>
	<polygon fill="#C4C4C4" points="59.8,32.2 64,32.2 64.8,28.1 60.7,28.1 	"/>
	<polygon fill="#C4C4C4" points="69.2,37.2 73.3,37.2 74.2,33.1 70,33.1 	"/>
	<polygon fill="#C4C4C4" points="75.6,32.3 79.7,32.3 80.5,28.2 76.4,28.2 	"/>
	<polygon fill="#C4C4C4" points="74.2,37.3 78.4,37.3 79.2,33.2 75.1,33.2 	"/>
	<polygon fill="#C4C4C4" points="63.9,33.2 59.8,33.2 58.9,37.3 63,37.3 	"/>
	<polygon fill="#C4C4C4" points="79.4,37.4 83.5,37.4 84.4,33.3 80.3,33.3 	"/>
	<polygon fill="#C4C4C4" points="52.6,42.5 56.7,42.5 57.6,38.4 53.4,38.4 	"/>
	<polygon fill="#C4C4C4" points="51.6,47.4 55.7,47.4 56.5,43.3 52.4,43.3 	"/>
	<polygon fill="#C4C4C4" points="50.4,48.4 46.2,48.4 45.4,52.5 49.5,52.5 	"/>
	<polygon fill="#C4C4C4" points="57.8,42.4 61.9,42.4 62.8,38.3 58.6,38.3 	"/>
	<polygon fill="#C4C4C4" points="63,42.4 67.1,42.4 68,38.3 63.9,38.3 	"/>
	<polygon fill="#C4C4C4" points="89.5,33.4 85.4,33.4 84.5,37.5 88.6,37.5 	"/>
	<polygon fill="#C4C4C4" points="68.2,42.2 72.3,42.2 73.2,38.1 69,38.1 	"/>
	<polygon fill="#C4C4C4" points="56.8,47.3 60.9,47.3 61.7,43.2 57.6,43.2 	"/>
	<polygon fill="#C4C4C4" points="55.6,48.3 51.5,48.3 50.6,52.4 54.7,52.4 	"/>
	<polygon fill="#C4C4C4" points="60.7,48.4 56.6,48.4 55.8,52.5 59.9,52.5 	"/>
	<polygon fill="#C4C4C4" points="39,57.5 43.2,57.5 44,53.4 39.9,53.4 	"/>
	<polygon fill="#C4C4C4" points="49.3,53.4 45.2,53.4 44.3,57.5 48.4,57.5 	"/>
	<polygon fill="#C4C4C4" points="54.6,53.3 50.4,53.3 49.6,57.4 53.7,57.4 	"/>
	<polygon fill="#C4C4C4" points="54.7,57.4 58.8,57.4 59.7,53.3 55.6,53.3 	"/>
	<polygon fill="#C4C4C4" points="53.4,62.2 57.5,62.2 58.4,58.1 54.3,58.1 	"/>
	<polygon fill="#C4C4C4" points="65.3,65.4 61.1,65.4 60.3,69.5 64.4,69.5 	"/>
	<polygon fill="#C4C4C4" points="62,47.3 66.1,47.3 67,43.2 62.9,43.2 	"/>
	<polygon fill="#C4C4C4" points="73.3,42.4 77.4,42.4 78.3,38.3 74.1,38.3 	"/>
	<polygon fill="#C4C4C4" points="66,48.4 61.9,48.4 61,52.5 65.1,52.5 	"/>
	<polygon fill="#C4C4C4" points="67.3,47.2 71.4,47.2 72.3,43.1 68.2,43.1 	"/>
	<polygon fill="#C4C4C4" points="15.7,18.3 14.8,22.4 18.9,22.4 19.8,18.3 	"/>
	<polygon fill="#C4C4C4" points="25,18.3 20.9,18.3 20,22.4 24.1,22.4 	"/>
	<polygon fill="#C4C4C4" points="30.2,18.3 26.1,18.3 25.2,22.4 29.3,22.4 	"/>
	<polygon fill="#C4C4C4" points="8.5,27.3 12.6,27.3 13.5,23.2 9.4,23.2 	"/>
	<polygon fill="#C4C4C4" points="13.8,27.3 17.9,27.3 18.8,23.2 14.6,23.2 	"/>
	<polygon fill="#C4C4C4" points="24,23.2 19.8,23.2 19,27.3 23.1,27.3 	"/>
	<polygon fill="#C4C4C4" points="28.3,27.4 29.2,23.3 25,23.3 24.2,27.4 	"/>
	<polygon fill="#C4C4C4" points="35.4,18.3 31.3,18.3 30.4,22.4 34.5,22.4 	"/>
	<polygon fill="#C4C4C4" points="40.6,18.3 36.5,18.3 35.7,22.4 39.8,22.4 	"/>
	<polygon fill="#C4C4C4" points="45.8,18.3 41.7,18.3 40.9,22.4 45,22.4 	"/>
	<polygon fill="#C4C4C4" points="51,18.3 46.9,18.3 46,22.4 50.1,22.4 	"/>
	<polygon fill="#C4C4C4" points="38.8,27.4 39.6,23.3 35.5,23.3 34.6,27.4 	"/>
	<polygon fill="#C4C4C4" points="44,27.4 44.8,23.3 40.7,23.3 39.8,27.4 	"/>
	<polygon fill="#C4C4C4" points="49.2,27.3 50.1,23.2 46,23.2 45.1,27.3 	"/>
	<polygon fill="#C4C4C4" points="56.2,18.3 52.1,18.3 51.2,22.4 55.3,22.4 	"/>
	<polygon fill="#C4C4C4" points="50.4,27.4 54.5,27.4 55.3,23.3 51.2,23.3 	"/>
	<polygon fill="#C4C4C4" points="28.4,32.4 32.5,32.4 33.4,28.3 29.3,28.3 	"/>
	<polygon fill="#C4C4C4" points="33.7,32.4 37.8,32.4 38.6,28.3 34.5,28.3 	"/>
	<polygon fill="#C4C4C4" points="38.9,32.4 43,32.4 43.8,28.3 39.7,28.3 	"/>
	<polygon fill="#C4C4C4" points="44.1,32.4 48.2,32.4 49.1,28.3 45,28.3 	"/>
	<polygon fill="#C4C4C4" points="27.4,37.4 31.5,37.4 32.3,33.3 28.2,33.3 	"/>
	<polygon fill="#C4C4C4" points="32.6,37.4 36.7,37.4 37.6,33.3 33.5,33.3 	"/>
	<polygon fill="#C4C4C4" points="37.8,37.4 41.9,37.4 42.8,33.3 38.7,33.3 	"/>
	<polygon fill="#C4C4C4" points="21.2,42.4 25.3,42.4 26.2,38.3 22,38.3 	"/>
	<polygon fill="#C4C4C4" points="26.4,42.4 30.5,42.4 31.4,38.3 27.2,38.3 	"/>
	<polygon fill="#C4C4C4" points="36.6,38.3 32.5,38.3 31.7,42.4 35.8,42.4 	"/>
	<polygon fill="#C4C4C4" points="41.8,38.3 37.7,38.3 36.8,42.4 41,42.4 	"/>
	<polygon fill="#C4C4C4" points="42,42.4 46.1,42.4 47,38.3 42.9,38.3 	"/>
	<polygon fill="#C4C4C4" points="20.2,47.5 24.3,47.5 25.2,43.4 21.1,43.4 	"/>
	<polygon fill="#C4C4C4" points="25.4,47.5 29.5,47.5 30.4,43.4 26.3,43.4 	"/>
	<polygon fill="#C4C4C4" points="30.7,47.5 34.8,47.5 35.7,43.4 31.6,43.4 	"/>
	<polygon fill="#C4C4C4" points="40.9,43.3 36.7,43.3 35.9,47.4 40,47.4 	"/>
	<polygon fill="#C4C4C4" points="46,43.3 41.9,43.3 41,47.4 45.2,47.4 	"/>
	<polygon fill="#C4C4C4" points="24.2,48.4 20.1,48.4 19.3,52.5 23.4,52.5 	"/>
	<polygon fill="#C4C4C4" points="29.4,48.4 25.3,48.4 24.5,52.5 28.6,52.5 	"/>
	<polygon fill="#C4C4C4" points="34.7,48.4 30.6,48.4 29.7,52.5 33.8,52.5 	"/>
	<polygon fill="#C4C4C4" points="39.9,48.4 35.8,48.4 34.9,52.5 39,52.5 	"/>
	<polygon fill="#C4C4C4" points="24.3,53.4 23.4,57.5 27.5,57.5 28.4,53.4 	"/>
	<polygon fill="#C4C4C4" points="33.7,53.4 29.5,53.4 28.7,57.5 32.8,57.5 	"/>
	<polygon fill="#C4C4C4" points="38.9,53.4 34.7,53.4 33.9,57.5 38,57.5 	"/>
	<polygon fill="#C4C4C4" points="22.4,62.5 26.6,62.5 27.4,58.4 23.3,58.4 	"/>
	<polygon fill="#C4C4C4" points="28.6,58.4 27.7,62.5 31.8,62.5 32.7,58.4 	"/>
	<polygon fill="#C4C4C4" points="33.8,58.4 32.9,62.5 37,62.5 37.9,58.4 	"/>
	<polygon fill="#C4C4C4" points="31.9,67.4 36,67.4 36.9,63.3 32.8,63.3 	"/>
	<polygon fill="#C4C4C4" points="37.1,67.4 41.2,67.4 42,63.3 37.9,63.3 	"/>
	<polygon fill="#C4C4C4" points="51.5,68.3 47.4,68.3 46.5,72.4 50.7,72.4 	"/>
	<polygon fill="#C4C4C4" points="63.5,8.2 59.3,8.2 58.5,12.3 62.6,12.3 	"/>
	<polygon fill="#C4C4C4" points="68.9,12.4 73,12.4 73.9,8.3 69.7,8.3 	"/>
	<polygon fill="#C4C4C4" points="71.6,2.6 67.5,2.6 66.6,6.7 70.7,6.7 	"/>
	<polygon fill="#C4C4C4" points="62.4,13.2 58.3,13.2 57.5,17.3 61.6,17.3 	"/>
	<polygon fill="#C4C4C4" points="66.8,17.3 67.6,13.2 63.5,13.2 62.7,17.3 	"/>
	<polygon fill="#C4C4C4" points="77.2,17.4 78,13.3 73.9,13.3 73,17.4 	"/>
	<polygon fill="#C4C4C4" points="2.3,32.4 6.5,32.4 7.3,28.3 3.2,28.3 	"/>
	<polygon fill="#C4C4C4" points="33.5,27.4 34.3,23.3 30.2,23.3 29.4,27.4 	"/>
	<polygon fill="#C4C4C4" points="7.5,32.4 11.7,32.4 12.5,28.3 8.4,28.3 	"/>
	<polygon fill="#C4C4C4" points="61.1,77.4 65.2,77.4 66.1,73.3 62,73.3 	"/>
	<polygon fill="#C4C4C4" points="66.4,77.4 70.5,77.4 71.3,73.3 67.2,73.3 	"/>
	<polygon fill="#C4C4C4" points="71.6,77.4 75.7,77.4 76.5,73.3 72.4,73.3 	"/>
	<polygon fill="#C4C4C4" points="49.7,82.4 53.8,82.4 54.7,78.3 50.6,78.3 	"/>
	<polygon fill="#C4C4C4" points="64.2,82.5 65.1,78.4 61,78.4 60.1,82.5 	"/>
	<polygon fill="#C4C4C4" points="70.4,78.4 66.2,78.4 65.4,82.5 69.5,82.5 	"/>
	<polygon fill="#C4C4C4" points="75.6,78.4 71.4,78.4 70.6,82.5 74.7,82.5 	"/>
	<polygon fill="#C4C4C4" points="75.7,82.4 79.8,82.4 80.7,78.3 76.6,78.3 	"/>
	<polygon fill="#C4C4C4" points="80.9,82.4 85,82.4 85.9,78.3 81.8,78.3 	"/>
	<polygon fill="#C4C4C4" points="49.6,83.3 48.7,87.4 52.9,87.4 53.7,83.3 	"/>
	<polygon fill="#C4C4C4" points="58.9,83.4 54.8,83.4 53.9,87.5 58,87.5 	"/>
	<polygon fill="#C4C4C4" points="64.1,83.3 60,83.3 59.1,87.4 63.2,87.4 	"/>
	<polygon fill="#C4C4C4" points="69.4,83.3 65.3,83.3 64.4,87.4 68.5,87.4 	"/>
	<polygon fill="#C4C4C4" points="74.6,83.3 70.5,83.3 69.6,87.4 73.7,87.4 	"/>
	<polygon fill="#C4C4C4" points="79.7,83.3 75.6,83.3 74.7,87.4 78.8,87.4 	"/>
	<polygon fill="#C4C4C4" points="84.9,83.3 80.8,83.3 79.9,87.4 84,87.4 	"/>
	<polygon fill="#C4C4C4" points="90.2,83.3 86.1,83.3 85.2,87.4 89.3,87.4 	"/>
	<polygon fill="#C4C4C4" points="95.4,83.3 91.2,83.3 90.4,87.4 94.5,87.4 	"/>
	<polygon fill="#C4C4C4" points="53.8,88.4 53,92.5 57.1,92.5 57.9,88.4 	"/>
	<polygon fill="#C4C4C4" points="63.1,88.4 59,88.4 58.2,92.5 62.3,92.5 	"/>
	<polygon fill="#C4C4C4" points="68.4,88.4 64.3,88.4 63.4,92.5 67.5,92.5 	"/>
	<polygon fill="#C4C4C4" points="73.6,88.4 69.5,88.4 68.6,92.5 72.7,92.5 	"/>
	<polygon fill="#C4C4C4" points="78.7,88.3 74.6,88.3 73.7,92.4 77.9,92.4 	"/>
	<polygon fill="#C4C4C4" points="83.9,88.3 79.8,88.3 79,92.4 83.1,92.4 	"/>
	<polygon fill="#C4C4C4" points="89.2,88.3 85.1,88.3 84.2,92.4 88.3,92.4 	"/>
	<polygon fill="#C4C4C4" points="90.3,88.3 89.4,92.4 93.5,92.4 94.4,88.3 	"/>
	<polygon fill="#C4C4C4" points="94.6,92.5 98.7,92.5 99.6,88.4 95.5,88.4 	"/>
	<polygon fill="#C4C4C4" points="58,93.4 57.1,97.5 61.2,97.5 62.1,93.4 	"/>
	<polygon fill="#C4C4C4" points="67.4,93.4 63.2,93.4 62.4,97.5 66.5,97.5 	"/>
	<polygon fill="#C4C4C4" points="71.7,97.5 72.6,93.4 68.4,93.4 67.6,97.5 	"/>
	<polygon fill="#C4C4C4" points="77.7,93.3 73.6,93.3 72.7,97.4 76.8,97.4 	"/>
	<polygon fill="#C4C4C4" points="82.9,93.3 78.8,93.3 77.9,97.4 82,97.4 	"/>
	<polygon fill="#C4C4C4" points="88.2,93.3 84,93.3 83.2,97.4 87.3,97.4 	"/>
	<polygon fill="#C4C4C4" points="88.4,97.4 92.5,97.4 93.4,93.3 89.2,93.3 	"/>
	<polygon fill="#C4C4C4" points="93.6,97.5 97.7,97.5 98.6,93.4 94.4,93.4 	"/>
	<polygon fill="#C4C4C4" points="66.4,98.4 62.3,98.4 61.4,102.5 65.5,102.5 	"/>
	<polygon fill="#C4C4C4" points="70.7,102.5 71.6,98.4 67.5,98.4 66.6,102.5 	"/>
	<polygon fill="#C4C4C4" points="76.7,98.4 72.6,98.4 71.7,102.5 75.9,102.5 	"/>
	<polygon fill="#C4C4C4" points="81.9,98.3 77.8,98.3 76.9,102.4 81.1,102.4 	"/>
	<polygon fill="#C4C4C4" points="87.2,98.3 83.1,98.3 82.2,102.4 86.3,102.4 	"/>
	<polygon fill="#C4C4C4" points="87.4,102.4 91.5,102.4 92.4,98.3 88.3,98.3 	"/>
	<polygon fill="#C4C4C4" points="69.7,107.4 70.5,103.3 66.4,103.3 65.5,107.4 	"/>
	<polygon fill="#C4C4C4" points="75.8,103.3 71.7,103.3 70.8,107.4 74.9,107.4 	"/>
	<polygon fill="#C4C4C4" points="81,103.3 76.9,103.3 76,107.4 80.1,107.4 	"/>
	<polygon fill="#C4C4C4" points="82.1,103.3 81.2,107.4 85.3,107.4 86.2,103.3 	"/>
	<polygon fill="#C4C4C4" points="86.4,107.4 90.5,107.4 91.4,103.3 87.3,103.3 	"/>
	<polygon fill="#C4C4C4" points="64.6,112.4 68.7,112.4 69.5,108.3 65.4,108.3 	"/>
	<polygon fill="#C4C4C4" points="73.9,112.4 74.8,108.3 70.7,108.3 69.8,112.4 	"/>
	<polygon fill="#C4C4C4" points="80,108.3 75.9,108.3 75,112.4 79.1,112.4 	"/>
	<polygon fill="#C4C4C4" points="80.2,112.5 84.3,112.5 85.2,108.4 81.1,108.4 	"/>
	<polygon fill="#C4C4C4" points="85.4,112.5 89.5,112.5 90.4,108.4 86.3,108.4 	"/>
	<polygon fill="#C4C4C4" points="64.4,113.3 63.5,117.4 67.6,117.4 68.5,113.3 	"/>
	<polygon fill="#C4C4C4" points="73.8,113.3 69.7,113.3 68.8,117.4 72.9,117.4 	"/>
	<polygon fill="#C4C4C4" points="79,113.3 74.9,113.3 74,117.4 78.1,117.4 	"/>
	<polygon fill="#C4C4C4" points="79.2,117.5 83.3,117.5 84.2,113.4 80,113.4 	"/>
	<polygon fill="#C4C4C4" points="68.7,118.3 67.8,122.4 71.9,122.4 72.8,118.3 	"/>
	<polygon fill="#C4C4C4" points="78,118.3 73.9,118.3 73,122.4 77.1,122.4 	"/>
	<polygon fill="#C4C4C4" points="72.9,123.2 72,127.3 76.1,127.3 77,123.2 	"/>
	<polygon fill="#C4C4C4" points="54.9,82.5 59,82.5 59.9,78.4 55.8,78.4 	"/>
	<polygon fill="#C4C4C4" points="60,77.5 60.9,73.3 56.8,73.3 55.9,77.5 	"/>
	<polygon fill="#C4C4C4" points="76.3,132.4 80.4,132.4 81.3,128.3 77.2,128.3 	"/>
	<polygon fill="#C4C4C4" points="77.3,127.3 81.4,127.3 82.3,123.2 78.1,123.2 	"/>
	<polygon fill="#C4C4C4" points="115.8,58.2 111.7,58.2 110.9,62.3 115,62.3 	"/>
	<polygon fill="#C4C4C4" points="109.7,67.2 113.8,67.2 114.7,63.1 110.6,63.1 	"/>
	<polygon fill="#C4C4C4" points="109.6,68.5 108.8,72.6 112.9,72.6 113.7,68.5 	"/>
	<polygon fill="#C4C4C4" points="125.4,43.1 121.3,43.1 120.4,47.2 124.5,47.2 	"/>
	<polygon fill="#C4C4C4" points="144.8,18.3 140.7,18.3 139.8,22.4 143.9,22.4 	"/>
	<polygon fill="#C4C4C4" points="150,18.3 145.9,18.3 145,22.4 149.1,22.4 	"/>
	<polygon fill="#C4C4C4" points="150.2,22.4 154.3,22.4 155.2,18.3 151.1,18.3 	"/>
	<polygon fill="#C4C4C4" points="117.9,37.5 122,37.5 122.9,33.4 118.7,33.4 	"/>
	<polygon fill="#C4C4C4" points="160.4,18.3 156.3,18.3 155.4,22.4 159.5,22.4 	"/>
	<polygon fill="#C4C4C4" points="165.8,18.4 161.6,18.4 160.8,22.5 164.9,22.5 	"/>
	<polygon fill="#C4C4C4" points="127.3,37.6 131.4,37.6 132.3,33.5 128.2,33.5 	"/>
	<polygon fill="#C4C4C4" points="170.9,18.4 166.8,18.4 165.9,22.5 170,22.5 	"/>
	<polygon fill="#C4C4C4" points="137.4,33.4 133.2,33.4 132.4,37.5 136.5,37.5 	"/>
	<polygon fill="#C4C4C4" points="139.9,23.8 135.8,23.8 134.9,27.9 139.1,27.9 	"/>
	<polygon fill="#C4C4C4" points="139.9,28.1 144,28.1 144.9,24 140.8,24 	"/>
	<polygon fill="#C4C4C4" points="144.8,27.9 148.9,27.9 149.7,23.8 145.6,23.8 	"/>
	<polygon fill="#C4C4C4" points="126.4,42.5 130.5,42.5 131.4,38.4 127.3,38.4 	"/>
	<polygon fill="#C4C4C4" points="137.4,37.6 141.5,37.6 142.4,33.5 138.3,33.5 	"/>
	<polygon fill="#C4C4C4" points="142.5,37.7 146.6,37.7 147.4,33.6 143.3,33.6 	"/>
	<polygon fill="#C4C4C4" points="149.8,27.8 153.9,27.8 154.8,23.7 150.7,23.7 	"/>
	<polygon fill="#C4C4C4" points="154.8,27.9 159,27.9 159.8,23.8 155.7,23.8 	"/>
	<polygon fill="#C4C4C4" points="164,27.8 164.9,23.7 160.8,23.7 159.9,27.8 	"/>
	<polygon fill="#C4C4C4" points="148.8,32.7 152.9,32.7 153.7,28.6 149.6,28.6 	"/>
	<polygon fill="#C4C4C4" points="169.1,27.6 169.9,23.5 165.8,23.5 165,27.6 	"/>
	<polygon fill="#C4C4C4" points="135.6,42.6 136.5,38.5 132.3,38.5 131.5,42.6 	"/>
	<polygon fill="#C4C4C4" points="153.9,32.7 158,32.7 158.9,28.6 154.7,28.6 	"/>
	<polygon fill="#C4C4C4" points="159,32.7 163.1,32.7 163.9,28.6 159.8,28.6 	"/>
	<polygon fill="#C4C4C4" points="147.6,37.6 151.7,37.6 152.6,33.5 148.4,33.5 	"/>
	<polygon fill="#C4C4C4" points="152.7,37.5 156.9,37.5 157.7,33.4 153.6,33.4 	"/>
	<polygon fill="#C4C4C4" points="136.5,42.6 140.6,42.6 141.4,38.5 137.3,38.5 	"/>
	<polygon fill="#C4C4C4" points="141.6,42.6 145.7,42.6 146.5,38.5 142.4,38.5 	"/>
	<polygon fill="#C4C4C4" points="157.8,37.7 162,37.7 162.8,33.6 158.7,33.6 	"/>
	<polygon fill="#C4C4C4" points="163,37.6 167.1,37.6 168,33.5 163.9,33.5 	"/>
	<polygon fill="#C4C4C4" points="164,32.5 168.1,32.5 168.9,28.4 164.8,28.4 	"/>
	<polygon fill="#C4C4C4" points="203.9,8.5 199.7,8.5 198.9,12.6 203,12.6 	"/>
	<polygon fill="#C4C4C4" points="182,13.4 177.9,13.4 177,17.5 181.1,17.5 	"/>
	<polygon fill="#C4C4C4" points="151.3,11.6 147.2,11.6 146.3,15.7 150.4,15.7 	"/>
	<polygon fill="#C4C4C4" points="192.4,13.4 188.3,13.4 187.5,17.5 191.6,17.5 	"/>
	<polygon fill="#C4C4C4" points="197.6,13.5 193.5,13.5 192.6,17.6 196.8,17.6 	"/>
	<polygon fill="#C4C4C4" points="176,18.4 171.9,18.4 171.1,22.5 175.2,22.5 	"/>
	<polygon fill="#C4C4C4" points="181.1,18.3 177,18.3 176.2,22.4 180.3,22.4 	"/>
	<polygon fill="#C4C4C4" points="185.4,22.6 186.2,18.5 182.1,18.5 181.3,22.6 	"/>
	<polygon fill="#C4C4C4" points="191.4,18.4 187.3,18.4 186.5,22.5 190.6,22.5 	"/>
	<polygon fill="#C4C4C4" points="195.8,22.6 196.6,18.5 192.5,18.5 191.7,22.6 	"/>
	<polygon fill="#C4C4C4" points="174.3,27.6 175.1,23.5 171,23.5 170.2,27.6 	"/>
	<polygon fill="#C4C4C4" points="179.4,27.5 180.2,23.4 176.1,23.4 175.3,27.5 	"/>
	<polygon fill="#C4C4C4" points="180.3,27.5 184.4,27.5 185.3,23.4 181.2,23.4 	"/>
	<polygon fill="#C4C4C4" points="189.6,27.5 190.5,23.4 186.4,23.4 185.5,27.5 	"/>
	<polygon fill="#C4C4C4" points="190.7,27.5 194.8,27.5 195.7,23.4 191.6,23.4 	"/>
	<polygon fill="#C4C4C4" points="169,32.6 173.2,32.6 174,28.5 169.9,28.5 	"/>
	<polygon fill="#C4C4C4" points="174.2,32.5 178.3,32.5 179.2,28.4 175.1,28.4 	"/>
	<polygon fill="#C4C4C4" points="179.3,32.4 183.5,32.4 184.3,28.3 180.2,28.3 	"/>
	<polygon fill="#C4C4C4" points="184.5,32.5 188.7,32.5 189.5,28.4 185.4,28.4 	"/>
	<polygon fill="#C4C4C4" points="189.7,32.6 193.8,32.6 194.7,28.5 190.6,28.5 	"/>
	<polygon fill="#C4C4C4" points="168.1,37.6 172.2,37.6 173,33.5 168.9,33.5 	"/>
	<polygon fill="#C4C4C4" points="173.2,37.5 177.3,37.5 178.2,33.4 174.1,33.4 	"/>
	<polygon fill="#C4C4C4" points="146.7,42.6 150.8,42.6 151.7,38.5 147.6,38.5 	"/>
	<polygon fill="#C4C4C4" points="151.9,42.5 156,42.5 156.9,38.4 152.7,38.4 	"/>
	<polygon fill="#C4C4C4" points="182.6,37.4 183.5,33.3 179.4,33.3 178.5,37.4 	"/>
	<polygon fill="#C4C4C4" points="188.6,33.3 184.5,33.3 183.6,37.4 187.8,37.4 	"/>
	<polygon fill="#C4C4C4" points="188.7,37.6 192.8,37.6 193.7,33.5 189.6,33.5 	"/>
	<polygon fill="#C4C4C4" points="157,42.4 161.1,42.4 161.9,38.3 157.8,38.3 	"/>
	<polygon fill="#C4C4C4" points="162,42.4 166.2,42.4 167,38.3 162.9,38.3 	"/>
	<polygon fill="#C4C4C4" points="167.3,42.4 171.4,42.4 172.2,38.3 168.1,38.3 	"/>
	<polygon fill="#C4C4C4" points="177.3,38.3 173.2,38.3 172.4,42.4 176.5,42.4 	"/>
	<polygon fill="#C4C4C4" points="171.4,47.2 175.5,47.2 176.4,43.1 172.3,43.1 	"/>
	<polygon fill="#C4C4C4" points="182.5,38.4 178.4,38.4 177.5,42.5 181.6,42.5 	"/>
	<polygon fill="#C4C4C4" points="187.7,42.6 191.8,42.6 192.7,38.5 188.6,38.5 	"/>
	<polygon fill="#C4C4C4" points="186.6,43.4 182.5,43.4 181.6,47.5 185.8,47.5 	"/>
	<polygon fill="#C4C4C4" points="197.9,38.5 193.8,38.5 192.9,42.6 197,42.6 	"/>
	<polygon fill="#C4C4C4" points="191.7,43.4 187.6,43.4 186.7,47.5 190.8,47.5 	"/>
	<polygon fill="#C4C4C4" points="196.9,43.4 192.8,43.4 191.9,47.5 196,47.5 	"/>
	<polygon fill="#C4C4C4" points="140.6,47.5 144.7,47.5 145.6,43.4 141.5,43.4 	"/>
	<polygon fill="#C4C4C4" points="128.5,48.3 124.4,48.3 123.5,52.4 127.6,52.4 	"/>
	<polygon fill="#C4C4C4" points="165,48.4 160.9,48.4 160.1,52.5 164.2,52.5 	"/>
	<polygon fill="#C4C4C4" points="165.2,52.6 169.3,52.6 170.1,48.5 166,48.5 	"/>
	<polygon fill="#C4C4C4" points="175.3,48.5 171.2,48.5 170.3,52.6 174.4,52.6 	"/>
	<polygon fill="#C4C4C4" points="128.7,52.5 132.8,52.5 133.7,48.4 129.5,48.4 	"/>
	<polygon fill="#C4C4C4" points="133.9,52.5 138,52.5 138.9,48.4 134.7,48.4 	"/>
	<polygon fill="#C4C4C4" points="117.1,57.3 121.2,57.3 122.1,53.2 118,53.2 	"/>
	<polygon fill="#C4C4C4" points="127.3,53.3 123.2,53.3 122.3,57.4 126.5,57.4 	"/>
	<polygon fill="#C4C4C4" points="132.5,53.3 128.4,53.3 127.5,57.4 131.7,57.4 	"/>
	<polygon fill="#C4C4C4" points="132.8,57.4 136.9,57.4 137.8,53.3 133.7,53.3 	"/>
	<polygon fill="#C4C4C4" points="138,57.4 142.1,57.4 143,53.3 138.9,53.3 	"/>
	<polygon fill="#C4C4C4" points="143.2,57.5 147.3,57.5 148.2,53.4 144.1,53.4 	"/>
	<polygon fill="#C4C4C4" points="121,58.2 116.9,58.2 116.1,62.3 120.2,62.3 	"/>
	<polygon fill="#C4C4C4" points="126.3,58.2 122.1,58.2 121.3,62.3 125.4,62.3 	"/>
	<polygon fill="#C4C4C4" points="131.5,58.2 127.3,58.2 126.5,62.3 130.6,62.3 	"/>
	<polygon fill="#C4C4C4" points="136.7,58.2 132.6,58.2 131.7,62.3 135.9,62.3 	"/>
	<polygon fill="#C4C4C4" points="136.9,62.3 141.1,62.3 141.9,58.2 137.8,58.2 	"/>
	<polygon fill="#C4C4C4" points="142.1,62.4 146.3,62.4 147.1,58.3 143,58.3 	"/>
	<polygon fill="#C4C4C4" points="153.4,53.4 149.2,53.4 148.4,57.5 152.5,57.5 	"/>
	<polygon fill="#C4C4C4" points="153.6,57.5 157.7,57.5 158.6,53.4 154.4,53.4 	"/>
	<polygon fill="#C4C4C4" points="158.8,57.5 163,57.5 163.8,53.4 159.7,53.4 	"/>
	<polygon fill="#C4C4C4" points="169,53.4 164.9,53.4 164,57.5 168.2,57.5 	"/>
	<polygon fill="#C4C4C4" points="174.2,53.5 170.1,53.5 169.2,57.6 173.4,57.6 	"/>
	<polygon fill="#C4C4C4" points="147.3,62.5 151.5,62.5 152.3,58.4 148.2,58.4 	"/>
	<polygon fill="#C4C4C4" points="157.5,58.3 153.4,58.3 152.5,62.4 156.7,62.4 	"/>
	<polygon fill="#C4C4C4" points="157.8,62.4 161.9,62.4 162.8,58.3 158.7,58.3 	"/>
	<polygon fill="#C4C4C4" points="168,58.3 163.9,58.3 163,62.4 167.1,62.4 	"/>
	<polygon fill="#C4C4C4" points="173.2,58.4 169.1,58.4 168.2,62.5 172.3,62.5 	"/>
	<polygon fill="#C4C4C4" points="119.9,63.3 115.8,63.3 115,67.4 119.1,67.4 	"/>
	<polygon fill="#C4C4C4" points="125.1,63.3 121,63.3 120.2,67.4 124.3,67.4 	"/>
	<polygon fill="#C4C4C4" points="130.4,63.3 126.3,63.3 125.4,67.4 129.5,67.4 	"/>
	<polygon fill="#C4C4C4" points="135.6,63.2 131.5,63.2 130.6,67.3 134.7,67.3 	"/>
	<polygon fill="#C4C4C4" points="140.8,63.3 136.7,63.3 135.8,67.4 139.9,67.4 	"/>
	<polygon fill="#C4C4C4" points="115,68.3 114.1,72.4 118.2,72.4 119.1,68.3 	"/>
	<polygon fill="#C4C4C4" points="120.3,68.3 119.4,72.4 123.5,72.4 124.4,68.3 	"/>
	<polygon fill="#C4C4C4" points="125.5,68.3 124.6,72.4 128.7,72.4 129.6,68.3 	"/>
	<polygon fill="#C4C4C4" points="141,67.4 145.1,67.4 146,63.3 141.9,63.3 	"/>
	<polygon fill="#C4C4C4" points="146.2,67.4 150.3,67.4 151.2,63.3 147.1,63.3 	"/>
	<polygon fill="#C4C4C4" points="152.3,63.3 151.5,67.4 155.6,67.4 156.4,63.3 	"/>
	<polygon fill="#C4C4C4" points="161.6,63.3 157.5,63.3 156.7,67.4 160.8,67.4 	"/>
	<polygon fill="#C4C4C4" points="166.8,63.4 162.7,63.4 161.9,67.5 166,67.5 	"/>
	<polygon fill="#C4C4C4" points="113,77.4 117.1,77.4 118,73.3 113.9,73.3 	"/>
	<polygon fill="#C4C4C4" points="130.7,68.3 129.8,72.4 133.9,72.4 134.8,68.3 	"/>
	<polygon fill="#C4C4C4" points="140,68.3 135.9,68.3 135,72.4 139.1,72.4 	"/>
	<polygon fill="#C4C4C4" points="144.4,72.4 145.3,68.3 141.1,68.3 140.3,72.4 	"/>
	<polygon fill="#C4C4C4" points="145.5,72.4 149.6,72.4 150.4,68.3 146.3,68.3 	"/>
	<polygon fill="#C4C4C4" points="155.6,68.4 151.5,68.4 150.7,72.5 154.8,72.5 	"/>
	<polygon fill="#C4C4C4" points="160.9,68.4 156.8,68.4 155.9,72.5 160,72.5 	"/>
	<polygon fill="#C4C4C4" points="118.4,77.4 122.5,77.4 123.3,73.3 119.2,73.3 	"/>
	<polygon fill="#C4C4C4" points="123.6,77.4 127.7,77.4 128.5,73.3 124.4,73.3 	"/>
	<polygon fill="#C4C4C4" points="128.8,77.4 132.9,77.4 133.8,73.3 129.7,73.3 	"/>
	<polygon fill="#C4C4C4" points="139,73.3 134.9,73.3 134,77.4 138.1,77.4 	"/>
	<polygon fill="#C4C4C4" points="143.3,77.5 144.2,73.4 140.1,73.4 139.2,77.5 	"/>
	<polygon fill="#C4C4C4" points="149.4,73.3 145.3,73.3 144.4,77.5 148.5,77.5 	"/>
	<polygon fill="#C4C4C4" points="154.7,73.3 150.5,73.3 149.7,77.5 153.8,77.5 	"/>
	<polygon fill="#C4C4C4" points="159.9,73.3 155.7,73.3 154.9,77.4 159,77.4 	"/>
	<polygon fill="#C4C4C4" points="142.4,82.5 143.2,78.4 139.1,78.4 138.2,82.5 	"/>
	<polygon fill="#C4C4C4" points="147.6,82.5 148.4,78.4 144.3,78.4 143.4,82.5 	"/>
	<polygon fill="#C4C4C4" points="153.7,78.4 149.6,78.4 148.7,82.5 152.8,82.5 	"/>
	<polygon fill="#C4C4C4" points="158.9,78.4 154.8,78.4 153.9,82.5 158,82.5 	"/>
	<polygon fill="#C4C4C4" points="142.2,83.4 138.1,83.4 137.3,87.5 141.4,87.5 	"/>
	<polygon fill="#C4C4C4" points="146.6,87.5 147.4,83.4 143.3,83.4 142.5,87.5 	"/>
	<polygon fill="#C4C4C4" points="152.7,83.4 148.6,83.4 147.7,87.5 151.8,87.5 	"/>
	<polygon fill="#C4C4C4" points="157.9,83.3 153.8,83.3 152.9,87.4 157,87.4 	"/>
	<polygon fill="#C4C4C4" points="145.6,92.5 146.5,88.4 142.3,88.4 141.5,92.5 	"/>
	<polygon fill="#C4C4C4" points="151.7,88.4 147.6,88.4 146.7,92.5 150.9,92.5 	"/>
	<polygon fill="#C4C4C4" points="156.9,88.4 152.8,88.4 151.9,92.5 156.1,92.5 	"/>
	<polygon fill="#C4C4C4" points="140.4,97.5 144.6,97.5 145.4,93.4 141.3,93.4 	"/>
	<polygon fill="#C4C4C4" points="150.7,93.4 146.6,93.4 145.7,97.5 149.8,97.5 	"/>
	<polygon fill="#C4C4C4" points="155.9,93.4 151.8,93.4 150.9,97.5 155,97.5 	"/>
	<polygon fill="#C4C4C4" points="144.4,98.4 140.3,98.4 139.5,102.5 143.6,102.5 	"/>
	<polygon fill="#C4C4C4" points="149.7,98.4 145.6,98.4 144.7,102.5 148.8,102.5 	"/>
	<polygon fill="#C4C4C4" points="154.9,98.4 150.8,98.4 149.9,102.5 154,102.5 	"/>
	<polygon fill="#C4C4C4" points="185.5,48.4 181.4,48.4 180.5,52.5 184.7,52.5 	"/>
	<polygon fill="#C4C4C4" points="186.6,48.5 185.7,52.6 189.9,52.6 190.7,48.5 	"/>
	<polygon fill="#C4C4C4" points="195.9,48.5 191.8,48.5 190.9,52.6 195.1,52.6 	"/>
	<polygon fill="#C4C4C4" points="179.3,53.4 175.2,53.4 174.3,57.5 178.4,57.5 	"/>
	<polygon fill="#C4C4C4" points="184.5,53.4 180.4,53.4 179.5,57.5 183.6,57.5 	"/>
	<polygon fill="#C4C4C4" points="184.7,57.5 188.8,57.5 189.7,53.4 185.6,53.4 	"/>
	<polygon fill="#C4C4C4" points="190.8,53.4 189.9,57.5 194,57.5 194.9,53.4 	"/>
	<polygon fill="#C4C4C4" points="178.3,58.4 174.2,58.4 173.3,62.5 177.4,62.5 	"/>
	<polygon fill="#C4C4C4" points="183.5,58.4 179.4,58.4 178.5,62.5 182.6,62.5 	"/>
	<polygon fill="#C4C4C4" points="183.7,62.6 187.8,62.6 188.7,58.5 184.6,58.5 	"/>
	<polygon fill="#C4C4C4" points="172.1,63.4 168,63.4 167.1,67.5 171.2,67.5 	"/>
	<polygon fill="#C4C4C4" points="177.3,63.4 173.1,63.4 172.3,67.5 176.4,67.5 	"/>
	<polygon fill="#C4C4C4" points="182.5,63.4 178.4,63.4 177.5,67.5 181.6,67.5 	"/>
	<polygon fill="#C4C4C4" points="182.7,67.5 186.9,67.5 187.7,63.4 183.6,63.4 	"/>
	<polygon fill="#C4C4C4" points="165.9,68.4 161.8,68.4 160.9,72.5 165,72.5 	"/>
	<polygon fill="#C4C4C4" points="171.1,68.4 167,68.4 166.1,72.5 170.2,72.5 	"/>
	<polygon fill="#C4C4C4" points="176.4,68.3 172.2,68.3 171.4,72.4 175.5,72.4 	"/>
	<polygon fill="#C4C4C4" points="164.9,73.4 160.7,73.4 159.9,77.5 164,77.5 	"/>
	<polygon fill="#C4C4C4" points="170,73.4 165.9,73.4 165.1,77.5 169.2,77.5 	"/>
	<polygon fill="#C4C4C4" points="175.3,73.4 171.2,73.4 170.3,77.5 174.5,77.5 	"/>
	<polygon fill="#C4C4C4" points="180.5,73.4 176.4,73.4 175.5,77.5 179.7,77.5 	"/>
	<polygon fill="#C4C4C4" points="180.7,77.6 184.8,77.6 185.7,73.4 181.6,73.4 	"/>
	<polygon fill="#C4C4C4" points="163.9,78.4 159.8,78.4 158.9,82.5 163,82.5 	"/>
	<polygon fill="#C4C4C4" points="169.1,78.4 165,78.4 164.1,82.5 168.2,82.5 	"/>
	<polygon fill="#C4C4C4" points="174.3,78.4 170.2,78.4 169.4,82.5 173.5,82.5 	"/>
	<polygon fill="#C4C4C4" points="179.5,78.4 175.4,78.4 174.6,82.5 178.7,82.5 	"/>
	<polygon fill="#C4C4C4" points="163,83.5 158.9,83.5 158,87.6 162.1,87.6 	"/>
	<polygon fill="#C4C4C4" points="168.2,83.5 164.1,83.5 163.2,87.6 167.3,87.6 	"/>
	<polygon fill="#C4C4C4" points="173.4,83.5 169.3,83.5 168.5,87.6 172.6,87.6 	"/>
	<polygon fill="#C4C4C4" points="162,88.5 157.9,88.5 157,92.6 161.1,92.6 	"/>
	<polygon fill="#C4C4C4" points="163.1,88.5 162.2,92.6 166.3,92.6 167.2,88.5 	"/>
	<polygon fill="#C4C4C4" points="172.5,88.5 168.3,88.5 167.5,92.6 171.6,92.6 	"/>
	<polygon fill="#C4C4C4" points="161,93.5 156.9,93.5 156,97.6 160.1,97.6 	"/>
	<polygon fill="#C4C4C4" points="161.2,97.6 165.3,97.6 166.2,93.5 162,93.5 	"/>
	<polygon fill="#C4C4C4" points="171.4,93.5 167.3,93.5 166.5,97.6 170.6,97.6 	"/>
	<polygon fill="#C4C4C4" points="176.8,97.6 181,97.6 181.8,93.5 177.7,93.5 	"/>
	<polygon fill="#C4C4C4" points="160,98.5 155.9,98.5 155,102.6 159.1,102.6 	"/>
	<polygon fill="#C4C4C4" points="160.2,102.6 164.3,102.6 165.2,98.5 161.1,98.5 	"/>
	<polygon fill="#C4C4C4" points="170.7,102.6 174.8,102.6 175.6,98.5 171.5,98.5 	"/>
	<polygon fill="#C4C4C4" points="175.9,102.7 180,102.7 180.8,98.6 176.7,98.6 	"/>
	<polygon fill="#C4C4C4" points="147.8,107.4 148.6,103.3 144.5,103.3 143.7,107.4 	"/>
	<polygon fill="#C4C4C4" points="149.7,103.3 148.9,107.4 153,107.4 153.8,103.3 	"/>
	<polygon fill="#C4C4C4" points="155,103.3 154.1,107.4 158.2,107.4 159.1,103.3 	"/>
	<polygon fill="#C4C4C4" points="159.3,107.4 163.4,107.4 164.3,103.3 160.2,103.3 	"/>
	<polygon fill="#C4C4C4" points="169.7,107.4 173.8,107.4 174.7,103.3 170.6,103.3 	"/>
	<polygon fill="#C4C4C4" points="143.6,108.3 142.7,112.4 146.8,112.4 147.7,108.3 	"/>
	<polygon fill="#C4C4C4" points="147.9,112.4 152,112.4 152.9,108.3 148.7,108.3 	"/>
	<polygon fill="#C4C4C4" points="153.2,112.4 157.3,112.4 158.1,108.3 154,108.3 	"/>
	<polygon fill="#C4C4C4" points="158.3,112.4 162.5,112.4 163.3,108.3 159.2,108.3 	"/>
	<polygon fill="#C4C4C4" points="146.9,117.4 151,117.4 151.8,113.3 147.7,113.3 	"/>
	<polygon fill="#C4C4C4" points="202.8,13.5 198.7,13.5 197.8,17.6 202,17.6 	"/>
	<polygon fill="#C4C4C4" points="201,22.6 201.8,18.5 197.7,18.5 196.9,22.6 	"/>
	<polygon fill="#C4C4C4" points="195.9,27.5 200,27.5 200.9,23.4 196.8,23.4 	"/>
	<polygon fill="#C4C4C4" points="201.2,27.5 205.3,27.5 206.1,23.4 202,23.4 	"/>
	<polygon fill="#C4C4C4" points="194.9,32.6 199,32.6 199.9,28.5 195.8,28.5 	"/>
	<polygon fill="#C4C4C4" points="200.2,32.6 204.3,32.6 205.2,28.5 201.1,28.5 	"/>
	<polygon fill="#C4C4C4" points="193.9,37.6 198,37.6 198.9,33.5 194.8,33.5 	"/>
	<polygon fill="#C4C4C4" points="204.1,33.5 200,33.5 199.2,37.6 203.3,37.6 	"/>
	<polygon fill="#C4C4C4" points="198.2,42.6 202.3,42.6 203.2,38.5 199,38.5 	"/>
	<polygon fill="#C4C4C4" points="202.1,43.4 198,43.4 197.2,47.5 201.3,47.5 	"/>
	<polygon fill="#C4C4C4" points="201.2,48.5 197.1,48.5 196.2,52.6 200.3,52.6 	"/>
	<polygon fill="#C4C4C4" points="200.1,53.4 196,53.4 195.2,57.5 199.3,57.5 	"/>
	<polygon fill="#C4C4C4" points="195.3,58.5 194.5,62.6 198.6,62.6 199.5,58.5 	"/>
	<polygon fill="#C4C4C4" points="209.1,8.5 205,8.5 204.1,12.6 208.3,12.6 	"/>
	<polygon fill="#C4C4C4" points="207.2,17.6 208.1,13.5 204,13.5 203.1,17.6 	"/>
	<polygon fill="#C4C4C4" points="212.4,17.6 213.3,13.5 209.2,13.5 208.3,17.6 	"/>
	<polygon fill="#C4C4C4" points="202.1,22.6 206.2,22.6 207.1,18.5 203,18.5 	"/>
	<polygon fill="#C4C4C4" points="207.3,22.6 211.4,22.6 212.3,18.5 208.2,18.5 	"/>
	<polygon fill="#C4C4C4" points="216.6,22.6 217.5,18.5 213.3,18.5 212.5,22.6 	"/>
	<polygon fill="#C4C4C4" points="222.7,18.5 218.5,18.5 217.7,22.6 221.8,22.6 	"/>
	<polygon fill="#C4C4C4" points="206.4,27.5 210.5,27.5 211.3,23.4 207.2,23.4 	"/>
	<polygon fill="#C4C4C4" points="211.5,27.5 215.6,27.5 216.5,23.4 212.4,23.4 	"/>
	<polygon fill="#C4C4C4" points="220.8,27.5 221.7,23.4 217.6,23.4 216.7,27.5 	"/>
	<polygon fill="#C4C4C4" points="210.4,28.5 206.2,28.5 205.4,32.6 209.5,32.6 	"/>
	<polygon fill="#C4C4C4" points="210.5,32.5 214.7,32.5 215.5,28.4 211.4,28.4 	"/>
	<polygon fill="#C4C4C4" points="215.7,32.5 219.9,32.5 220.7,28.4 216.6,28.4 	"/>
	<polygon fill="#C4C4C4" points="209.3,33.4 205.2,33.4 204.4,37.5 208.5,37.5 	"/>
	<polygon fill="#C4C4C4" points="214.5,33.4 210.4,33.4 209.5,37.5 213.6,37.5 	"/>
	<polygon fill="#C4C4C4" points="214.7,37.5 218.8,37.5 219.7,33.4 215.6,33.4 	"/>
	<polygon fill="#C4C4C4" points="208.4,38.5 204.2,38.5 203.4,42.6 207.5,42.6 	"/>
	<polygon fill="#C4C4C4" points="206.4,48.3 202.3,48.3 201.5,52.4 205.6,52.4 	"/>
	<polygon fill="#C4C4C4" points="213.5,38.4 209.4,38.4 208.5,42.5 212.7,42.5 	"/>
	<polygon fill="#C4C4C4" points="205.3,53.4 201.2,53.4 200.4,57.5 204.5,57.5 	"/>
	<polygon fill="#C4C4C4" points="204.4,58.5 200.2,58.5 199.4,62.6 203.5,62.6 	"/>
	<polygon fill="#C4C4C4" points="218.7,38.4 214.6,38.4 213.7,42.5 217.9,42.5 	"/>
	<polygon fill="#C4C4C4" points="212.5,43.4 208.4,43.4 207.5,47.5 211.6,47.5 	"/>
	<polygon fill="#C4C4C4" points="217.7,43.4 213.6,43.4 212.7,47.5 216.8,47.5 	"/>
	<polygon fill="#C4C4C4" points="211.5,48.4 207.4,48.4 206.6,52.5 210.7,52.5 	"/>
	<polygon fill="#C4C4C4" points="216.7,48.4 212.6,48.4 211.8,52.5 215.9,52.5 	"/>
	<polygon fill="#C4C4C4" points="222,48.4 217.9,48.4 217,52.5 221.1,52.5 	"/>
	<polygon fill="#C4C4C4" points="210.5,53.4 206.4,53.4 205.5,57.5 209.6,57.5 	"/>
	<polygon fill="#C4C4C4" points="211.6,53.4 210.7,57.5 214.8,57.5 215.7,53.4 	"/>
	<polygon fill="#C4C4C4" points="216.8,53.4 216,57.5 220.1,57.5 221,53.4 	"/>
	<polygon fill="#C4C4C4" points="209.5,58.4 205.4,58.4 204.5,62.5 208.7,62.5 	"/>
	<polygon fill="#C4C4C4" points="209.7,62.5 213.9,62.5 214.7,58.4 210.6,58.4 	"/>
	<polygon fill="#C4C4C4" points="215,62.5 219.1,62.5 220,58.4 215.9,58.4 	"/>
	<polygon fill="#C4C4C4" points="207.7,67.5 208.5,63.4 204.4,63.4 203.6,67.5 	"/>
	<polygon fill="#C4C4C4" points="208.8,67.5 212.9,67.5 213.7,63.4 209.6,63.4 	"/>
	<polygon fill="#C4C4C4" points="203.4,68.4 202.6,72.5 206.7,72.5 207.6,68.4 	"/>
	<polygon fill="#C4C4C4" points="207.8,72.5 211.9,72.5 212.8,68.4 208.6,68.4 	"/>
	<polygon fill="#C4C4C4" points="206.7,77.5 210.9,77.5 211.7,73.4 207.6,73.4 	"/>
	<polygon fill="#C4C4C4" points="234.1,13.4 230,13.4 229.1,17.5 233.2,17.5 	"/>
	<polygon fill="#C4C4C4" points="227.9,18.5 223.8,18.5 222.9,22.6 227.1,22.6 	"/>
	<polygon fill="#C4C4C4" points="233.1,18.4 229,18.4 228.1,22.5 232.3,22.5 	"/>
	<polygon fill="#C4C4C4" points="237.5,22.6 238.3,18.5 234.2,18.5 233.3,22.6 	"/>
	<polygon fill="#C4C4C4" points="243.5,18.5 239.4,18.5 238.5,22.6 242.7,22.6 	"/>
	<polygon fill="#C4C4C4" points="248.8,18.5 244.7,18.5 243.8,22.6 247.9,22.6 	"/>
	<polygon fill="#C4C4C4" points="259.1,18.5 255,18.5 254.1,22.6 258.3,22.6 	"/>
	<polygon fill="#C4C4C4" points="226.1,27.5 227,23.4 222.9,23.4 222,27.5 	"/>
	<polygon fill="#C4C4C4" points="231.3,27.5 232.2,23.4 228,23.4 227.2,27.5 	"/>
	<polygon fill="#C4C4C4" points="232.4,27.5 236.5,27.5 237.4,23.4 233.2,23.4 	"/>
	<polygon fill="#C4C4C4" points="241.7,27.5 242.6,23.4 238.4,23.4 237.6,27.5 	"/>
	<polygon fill="#C4C4C4" points="247,27.5 247.8,23.4 243.7,23.4 242.8,27.5 	"/>
	<polygon fill="#C4C4C4" points="252.2,27.5 253,23.4 248.9,23.4 248,27.5 	"/>
	<polygon fill="#C4C4C4" points="258.2,23.4 254,23.4 253.2,27.5 257.3,27.5 	"/>
	<polygon fill="#C4C4C4" points="262.5,27.5 263.4,23.4 259.2,23.4 258.4,27.5 	"/>
	<polygon fill="#C4C4C4" points="268.6,23.4 264.5,23.4 263.6,27.5 267.8,27.5 	"/>
	<polygon fill="#C4C4C4" points="273.8,23.4 269.7,23.4 268.8,27.5 273,27.5 	"/>
	<polygon fill="#C4C4C4" points="221,32.5 225.1,32.5 226,28.4 221.9,28.4 	"/>
	<polygon fill="#C4C4C4" points="226.2,32.5 230.3,32.5 231.2,28.4 227.1,28.4 	"/>
	<polygon fill="#C4C4C4" points="220,37.5 224.1,37.5 225,33.4 220.8,33.4 	"/>
	<polygon fill="#C4C4C4" points="231.4,32.6 235.5,32.6 236.4,28.5 232.3,28.5 	"/>
	<polygon fill="#C4C4C4" points="236.6,32.6 240.7,32.6 241.6,28.5 237.5,28.5 	"/>
	<polygon fill="#C4C4C4" points="219,42.5 223.1,42.5 224,38.4 219.9,38.4 	"/>
	<polygon fill="#C4C4C4" points="241.9,32.6 246,32.6 246.8,28.5 242.7,28.5 	"/>
	<polygon fill="#C4C4C4" points="247.1,32.6 251.2,32.6 252,28.5 247.9,28.5 	"/>
	<polygon fill="#C4C4C4" points="257.4,32.5 261.5,32.5 262.4,28.4 258.3,28.4 	"/>
	<polygon fill="#C4C4C4" points="225.2,37.5 229.3,37.5 230.2,33.4 226,33.4 	"/>
	<polygon fill="#C4C4C4" points="230.4,37.6 234.5,37.6 235.3,33.5 231.2,33.5 	"/>
	<polygon fill="#C4C4C4" points="235.6,37.6 239.7,37.6 240.5,33.5 236.4,33.5 	"/>
	<polygon fill="#C4C4C4" points="240.8,37.6 244.9,37.6 245.8,33.5 241.7,33.5 	"/>
	<polygon fill="#C4C4C4" points="246,37.5 250.1,37.5 251,33.4 246.9,33.4 	"/>
	<polygon fill="#C4C4C4" points="261.6,37.5 265.7,37.5 266.6,33.4 262.5,33.4 	"/>
	<polygon fill="#C4C4C4" points="224.2,42.5 228.3,42.5 229.2,38.4 225.1,38.4 	"/>
	<polygon fill="#C4C4C4" points="229.4,42.6 233.5,42.6 234.4,38.5 230.3,38.5 	"/>
	<polygon fill="#C4C4C4" points="234.6,42.6 238.7,42.6 239.6,38.5 235.4,38.5 	"/>
	<polygon fill="#C4C4C4" points="239.9,42.6 244,42.6 244.8,38.5 240.7,38.5 	"/>
	<polygon fill="#C4C4C4" points="245.1,42.6 249.2,42.6 250,38.5 245.9,38.5 	"/>
	<polygon fill="#C4C4C4" points="250.2,42.5 254.3,42.5 255.2,38.4 251.1,38.4 	"/>
	<polygon fill="#C4C4C4" points="223.2,47.5 227.3,47.5 228.2,43.4 224.1,43.4 	"/>
	<polygon fill="#C4C4C4" points="228.4,47.5 232.5,47.5 233.4,43.4 229.2,43.4 	"/>
	<polygon fill="#C4C4C4" points="233.6,47.5 237.7,47.5 238.6,43.4 234.4,43.4 	"/>
	<polygon fill="#C4C4C4" points="243.8,43.4 239.7,43.4 238.8,47.5 243,47.5 	"/>
	<polygon fill="#C4C4C4" points="244,47.5 248.2,47.5 249,43.4 244.9,43.4 	"/>
	<polygon fill="#C4C4C4" points="249.2,47.5 253.3,47.5 254.2,43.4 250,43.4 	"/>
	<polygon fill="#C4C4C4" points="254.4,47.5 258.5,47.5 259.4,43.4 255.2,43.4 	"/>
	<polygon fill="#C4C4C4" points="227.2,48.4 223.1,48.4 222.2,52.5 226.3,52.5 	"/>
	<polygon fill="#C4C4C4" points="227.4,52.6 231.5,52.6 232.4,48.5 228.3,48.5 	"/>
	<polygon fill="#C4C4C4" points="232.6,52.6 236.7,52.6 237.6,48.5 233.5,48.5 	"/>
	<polygon fill="#C4C4C4" points="237.9,52.6 242,52.6 242.8,48.5 238.7,48.5 	"/>
	<polygon fill="#C4C4C4" points="248,48.5 243.9,48.5 243.1,52.6 247.2,52.6 	"/>
	<polygon fill="#C4C4C4" points="248.2,52.5 252.3,52.5 253.2,48.4 249.1,48.4 	"/>
	<polygon fill="#C4C4C4" points="253.4,52.5 257.5,52.5 258.4,48.4 254.3,48.4 	"/>
	<polygon fill="#C4C4C4" points="263.6,48.4 259.5,48.4 258.7,52.5 262.8,52.5 	"/>
	<polygon fill="#C4C4C4" points="226.2,53.4 222,53.4 221.2,57.5 225.3,57.5 	"/>
	<polygon fill="#C4C4C4" points="231.3,53.4 227.2,53.4 226.4,57.5 230.5,57.5 	"/>
	<polygon fill="#C4C4C4" points="231.6,57.5 235.7,57.5 236.6,53.4 232.4,53.4 	"/>
	<polygon fill="#C4C4C4" points="236.8,57.5 241,57.5 241.8,53.4 237.7,53.4 	"/>
	<polygon fill="#C4C4C4" points="247,53.4 242.9,53.4 242,57.5 246.2,57.5 	"/>
	<polygon fill="#C4C4C4" points="257.3,53.4 253.2,53.4 252.4,57.5 256.5,57.5 	"/>
	<polygon fill="#C4C4C4" points="230.4,58.5 226.3,58.5 225.4,62.6 229.5,62.6 	"/>
	<polygon fill="#C4C4C4" points="234.7,62.6 235.6,58.5 231.5,58.5 230.6,62.6 	"/>
	<polygon fill="#C4C4C4" points="235.9,62.6 240,62.6 240.8,58.5 236.7,58.5 	"/>
	<polygon fill="#C4C4C4" points="246,58.5 241.9,58.5 241.1,62.6 245.2,62.6 	"/>
	<polygon fill="#C4C4C4" points="251.2,58.4 247.1,58.4 246.2,62.5 250.3,62.5 	"/>
	<polygon fill="#C4C4C4" points="229.4,63.4 225.3,63.4 224.4,67.5 228.5,67.5 	"/>
	<polygon fill="#C4C4C4" points="233.7,67.5 234.6,63.4 230.5,63.4 229.6,67.5 	"/>
	<polygon fill="#C4C4C4" points="239.8,63.4 235.7,63.4 234.9,67.5 239,67.5 	"/>
	<polygon fill="#C4C4C4" points="255.4,63.4 251.3,63.4 250.4,67.5 254.5,67.5 	"/>
	<polygon fill="#C4C4C4" points="233.6,68.5 229.5,68.5 228.6,72.6 232.7,72.6 	"/>
	<polygon fill="#C4C4C4" points="238.9,68.5 234.8,68.5 233.9,72.6 238,72.6 	"/>
	<polygon fill="#C4C4C4" points="244.1,68.5 240,68.5 239.1,72.6 243.2,72.6 	"/>
	<polygon fill="#C4C4C4" points="259.7,68.4 255.6,68.4 254.7,72.5 258.8,72.5 	"/>
	<polygon fill="#C4C4C4" points="227.6,77.5 231.7,77.5 232.6,73.4 228.5,73.4 	"/>
	<polygon fill="#C4C4C4" points="237.8,73.4 233.7,73.4 232.9,77.5 237,77.5 	"/>
	<polygon fill="#C4C4C4" points="243,73.4 238.9,73.4 238.1,77.5 242.2,77.5 	"/>
	<polygon fill="#C4C4C4" points="248.4,77.5 252.5,77.5 253.4,73.4 249.3,73.4 	"/>
	<polygon fill="#C4C4C4" points="227.5,78.5 226.6,82.6 230.7,82.6 231.6,78.5 	"/>
	<polygon fill="#C4C4C4" points="232.7,78.5 231.9,82.6 236,82.6 236.9,78.5 	"/>
	<polygon fill="#C4C4C4" points="242.1,78.5 237.9,78.5 237.1,82.6 241.2,82.6 	"/>
	<polygon fill="#C4C4C4" points="247.2,78.4 243.1,78.4 242.2,82.5 246.3,82.5 	"/>
	<polygon fill="#C4C4C4" points="252.4,78.4 248.3,78.4 247.4,82.5 251.5,82.5 	"/>
	<polygon fill="#C4C4C4" points="231,87.6 235.1,87.6 236,83.5 231.8,83.5 	"/>
	<polygon fill="#C4C4C4" points="241.2,83.5 237,83.5 236.2,87.6 240.3,87.6 	"/>
	<polygon fill="#C4C4C4" points="245.4,87.6 246.3,83.5 242.2,83.5 241.3,87.6 	"/>
	<polygon fill="#C4C4C4" points="251.5,83.5 247.4,83.5 246.5,87.6 250.6,87.6 	"/>
	<polygon fill="#C4C4C4" points="256.8,83.5 252.6,83.5 251.8,87.6 255.9,87.6 	"/>
	<polygon fill="#C4C4C4" points="267.2,83.5 263,83.5 262.2,87.6 266.3,87.6 	"/>
	<polygon fill="#C4C4C4" points="267.4,87.6 271.5,87.6 272.4,83.5 268.2,83.5 	"/>
	<polygon fill="#C4C4C4" points="272.6,87.6 276.8,87.6 277.6,83.5 273.5,83.5 	"/>
	<polygon fill="#C4C4C4" points="245.3,88.5 241.2,88.5 240.3,92.6 244.5,92.6 	"/>
	<polygon fill="#C4C4C4" points="271.7,92.7 275.8,92.7 276.6,88.6 272.5,88.6 	"/>
	<polygon fill="#C4C4C4" points="281,92.7 281.8,88.6 277.7,88.6 276.9,92.7 	"/>
	<polygon fill="#C4C4C4" points="260,93.5 255.8,93.5 255,97.6 259.1,97.6 	"/>
	<polygon fill="#C4C4C4" points="265.1,93.5 261,93.5 260.2,97.6 264.3,97.6 	"/>
	<polygon fill="#C4C4C4" points="270.3,93.5 266.2,93.5 265.4,97.6 269.5,97.6 	"/>
	<polygon fill="#C4C4C4" points="270.6,97.6 274.7,97.6 275.6,93.5 271.5,93.5 	"/>
	<polygon fill="#C4C4C4" points="280.8,93.5 276.7,93.5 275.8,97.6 279.9,97.6 	"/>
	<polygon fill="#C4C4C4" points="285.1,97.6 286,93.5 281.8,93.5 281,97.6 	"/>
	<polygon fill="#C4C4C4" points="248.5,98.5 244.4,98.5 243.5,102.6 247.7,102.6 	"/>
	<polygon fill="#C4C4C4" points="253.8,98.5 249.7,98.5 248.8,102.6 252.9,102.6 	"/>
	<polygon fill="#C4C4C4" points="259,98.5 254.9,98.5 254,102.6 258.1,102.6 	"/>
	<polygon fill="#C4C4C4" points="264.2,98.6 260.1,98.6 259.2,102.7 263.3,102.7 	"/>
	<polygon fill="#C4C4C4" points="269.4,98.6 265.2,98.6 264.4,102.7 268.5,102.7 	"/>
	<polygon fill="#C4C4C4" points="274.6,98.6 270.5,98.6 269.7,102.7 273.8,102.7 	"/>
	<polygon fill="#C4C4C4" points="279.8,98.6 275.7,98.6 274.9,102.7 279,102.7 	"/>
	<polygon fill="#C4C4C4" points="237.4,107.5 241.5,107.5 242.4,103.4 238.3,103.4 	"/>
	<polygon fill="#C4C4C4" points="241.6,108.5 237.5,108.5 236.6,112.6 240.7,112.6 	"/>
	<polygon fill="#C4C4C4" points="247.6,103.4 243.5,103.4 242.6,107.5 246.7,107.5 	"/>
	<polygon fill="#C4C4C4" points="248.7,103.5 247.8,107.6 251.9,107.6 252.8,103.5 	"/>
	<polygon fill="#C4C4C4" points="258,103.5 253.9,103.5 253,107.6 257.1,107.6 	"/>
	<polygon fill="#C4C4C4" points="263.3,103.5 259.1,103.5 258.3,107.6 262.4,107.6 	"/>
	<polygon fill="#C4C4C4" points="268.5,103.5 264.3,103.5 263.5,107.6 267.6,107.6 	"/>
	<polygon fill="#C4C4C4" points="269.5,103.4 268.6,107.5 272.7,107.5 273.6,103.4 	"/>
	<polygon fill="#C4C4C4" points="278.8,103.4 274.7,103.4 273.8,107.5 277.9,107.5 	"/>
	<polygon fill="#C4C4C4" points="284.1,103.4 280,103.4 279.1,107.5 283.2,107.5 	"/>
	<polygon fill="#C4C4C4" points="242.5,108.5 241.6,112.6 245.8,112.6 246.6,108.5 	"/>
	<polygon fill="#C4C4C4" points="246.8,112.7 251,112.7 251.8,108.5 247.7,108.5 	"/>
	<polygon fill="#C4C4C4" points="257,108.5 252.9,108.5 252,112.7 256.2,112.7 	"/>
	<polygon fill="#C4C4C4" points="258.2,108.5 257.3,112.7 261.4,112.7 262.3,108.5 	"/>
	<polygon fill="#C4C4C4" points="263.4,108.5 262.5,112.6 266.6,112.6 267.5,108.5 	"/>
	<polygon fill="#C4C4C4" points="267.7,112.6 271.8,112.6 272.6,108.5 268.5,108.5 	"/>
	<polygon fill="#C4C4C4" points="277.8,108.5 273.7,108.5 272.9,112.6 277,112.6 	"/>
	<polygon fill="#C4C4C4" points="240.6,117.6 244.7,117.6 245.6,113.5 241.5,113.5 	"/>
	<polygon fill="#C4C4C4" points="245.8,117.6 249.9,117.6 250.8,113.5 246.7,113.5 	"/>
	<polygon fill="#C4C4C4" points="256.3,117.6 260.4,117.6 261.2,113.5 257.1,113.5 	"/>
	<polygon fill="#C4C4C4" points="261.5,117.6 265.6,117.6 266.4,113.5 262.3,113.5 	"/>
	<polygon fill="#C4C4C4" points="266.6,117.6 270.7,117.6 271.6,113.5 267.5,113.5 	"/>
	<polygon fill="#C4C4C4" points="293.5,113.5 292.7,117.6 296.8,117.6 297.7,113.5 	"/>
	<polygon fill="#C4C4C4" points="275.8,126.1 279.9,126.1 280.7,122 276.6,122 	"/>
	<polygon fill="#C4C4C4" points="207.4,43.4 203.2,43.4 202.4,47.5 206.5,47.5 	"/>
	<polygon fill="#C4C4C4" points="255.3,122.4 259.5,122.4 260.3,118.3 256.2,118.3 	"/>
	<polygon fill="#C4C4C4" points="281.3,122.6 285.4,122.6 286.3,118.5 282.2,118.5 	"/>
	<polygon fill="#C4C4C4" points="286.5,122.7 290.6,122.7 291.5,118.6 287.4,118.6 	"/>
	<polygon fill="#C4C4C4" points="221.1,58.4 220.2,62.5 224.3,62.5 225.2,58.4 	"/>
	<polygon fill="#C4C4C4" points="223,43.4 218.9,43.4 218,47.5 222.1,47.5 	"/>
</g>
</svg>
