<?xml version="1.0" encoding="utf-8"?>
<!-- Generator: Adobe Illustrator 23.0.1, SVG Export Plug-In . SVG Version: 6.00 Build 0)  -->
<svg version="1.2" baseProfile="tiny" id="Layer_1" xmlns="http://www.w3.org/2000/svg" xmlns:xlink="http://www.w3.org/1999/xlink"
	 x="0px" y="0px" viewBox="0 0 62 62" xml:space="preserve">
<style type="text/css">
	.shrimp-trader0{fill:none;stroke:#B7B5CD;stroke-miterlimit:10;}
	.shrimp-trader1{fill:#ECA2C7}
</style>
<path class="shrimp-trader0" d="M-113.3,71.2"/>
<g>
	<path class="shrimp-trader1" d="M48,16.8C47.4,13,40.6,9,27.7,4.8c-0.5-0.1-0.9,0.1-1.1,0.6c-0.1,0.5,0.1,0.9,0.6,1.1
		c16.2,5.2,18.8,9,19.1,10.5c-0.7-0.9-1.9-1.8-4-2.8c-3.7-1.8-9.5-3.3-17.1-4.6c-0.5-0.1-0.9,0.2-1,0.7c-0.1,0.5,0.2,0.9,0.7,1
		c7.3,1.2,13.1,2.7,16.6,4.4c3,1.4,3.7,2.6,3.7,3.1c0,0.3-0.5,0.7-1.2,0.8c0,0-0.1,0-0.1,0c-0.3,0-0.5,0.1-0.8,0l-9.2-0.6
		c0,0,0,0,0,0c-0.2,0-5-0.2-6.5-0.1c-3.4,0.3-5.2,1.9-5.3,2c-0.3,0.3-0.4,0.7-0.2,1c0,0.1,1.1,2.5,2.8,4.9c1.3,1.9,2.6,3.2,3.8,3.9
		c-0.9,0.6-1.8,1.4-2.5,2.3c-0.5,0.7-0.9,1.5-1.2,2.3c-0.1,0.4-0.2,0.8-0.3,1.2c-2.5,0-6.1-1.4-7.6-4.9c-1.6-3.7,2.8-7.1,2.9-7.1
		c0.4-0.3,0.5-0.8,0.2-1.2c-0.3-0.4-0.8-0.5-1.2-0.2c-0.1,0-1.4,1-2.5,2.6c-1.5,2.2-1.8,4.5-0.9,6.5c1.6,3.7,4.8,5.3,7.5,5.8
		c0.6,0.1,1.1,0.2,1.6,0.2c0,0.2,0,0.5,0.1,0.7c0.1,0.5,0.1,0.9,0.2,1.4c0.1,0.3,0.1,0.5,0.2,0.8c-0.5,0.2-1,0.4-1.5,0.5
		c-4.6,1.1-6.7-1.8-7-2.2c-0.6-1.2-0.9-2.4-0.9-3.5c0-0.5-0.4-0.9-0.9-0.9c-0.5,0-0.9,0.4-0.9,0.9c0,2.7,1.5,5.9,4,8.7
		c1.1,1.2,2.3,2.2,3.5,3c0,0,0.1,0.1,0.2,0.1c1.6,1,3.2,1.7,4.7,1.9c5.4,0.9,7.7,1.8,12.7,6.3c0.2,0.1,0.4,0.2,0.6,0.2
		c0.1,0,0.1,0,0.2,0c0.3-0.1,0.5-0.2,0.6-0.5c0-0.1,0.6-1.3,0.5-3c0-1.3-0.5-3-2.1-4.3c1.1-1,2.6-3,2.7-7.1c0-0.4-0.2-0.7-0.5-0.8
		c-0.3-0.1-0.7-0.1-1,0.2c0,0-4.1,4.4-8.4,4.1c-1.1-0.1-2.1-0.4-2.9-1c0,0,0,0,0,0c-0.5-0.4-0.9-0.9-1.3-1.5
		c-0.2-0.3-0.3-0.5-0.4-0.8c1.3-0.2,2.3,0.3,2.4,0.3c0.4,0.2,0.9,0.1,1.2-0.4c0.2-0.4,0.1-0.9-0.4-1.2c-0.1-0.1-1.7-0.9-3.7-0.5
		c-0.1-0.5-0.2-1.1-0.2-1.6c2-0.7,3.7,0.1,3.8,0.2c0.4,0.2,0.9,0,1.2-0.4c0.2-0.4,0.1-0.9-0.4-1.2c0,0-1.1-0.6-2.6-0.6
		c-0.5,0-1.1,0-1.8,0.2c0.1-0.6,0.4-1.1,0.7-1.6c2.4-0.4,3.9,0.5,4,0.6c0.4,0.3,0.9,0.2,1.2-0.2c0.3-0.4,0.2-0.9-0.2-1.2
		c-0.1-0.1-1.3-0.9-3.3-1c0.8-0.7,1.8-1.2,2.7-1.4c6-1.2,10.4-4.5,13.4-10.2c0.5-0.1,1-0.4,1.4-0.7c0,0,0,0,0,0
		C47.9,19.3,48.2,17.8,48,16.8z M19.2,43.4c0-0.1-0.1-0.1-0.1-0.2c0.8,0.2,1.6,0.4,2.4,0.4c1.5,0,3-0.4,4.2-0.8
		c0.1,0.1,0.1,0.2,0.2,0.3c0.3,0.5,0.6,0.9,1,1.3c-1.6,1.2-3.9,1.5-4.6,1.6C21.2,45.3,20.2,44.4,19.2,43.4z M31.6,48.8
		c0.7-0.8,1.1-1.6,1.4-2.4c2.7-0.3,5.1-1.9,6.7-3.1c-0.6,3.3-2.4,4.1-2.6,4.1c-0.3,0.1-0.6,0.4-0.6,0.7c0,0.3,0.1,0.7,0.5,0.8
		c2.3,1.3,2.5,3.4,2.3,4.7c-3-2.6-5.2-3.9-7.8-4.7C31.5,48.9,31.5,48.8,31.6,48.8z M28.3,45.5c0.8,0.5,1.8,0.8,2.8,0.9
		c-0.4,0.8-1.1,1.6-1.6,2.1c-0.9-0.2-1.8-0.4-2.9-0.6c-0.7-0.1-1.3-0.3-2-0.6C25.8,47,27.2,46.4,28.3,45.5z M37.3,27.2
		c-1.8,1.2-3.9,2-6.3,2.5c-2.3,0.5-5.5-4.3-7.2-7.8c0.7-0.4,1.9-1,3.8-1.2c1.1-0.1,4.8,0,6.2,0.1l8.9,0.6
		C41.2,23.8,39.4,25.8,37.3,27.2z"/>
	<circle class="shrimp-trader1" cx="35.3" cy="23.9" r="1.3"/>
</g>
</svg>
