<svg xmlns="http://www.w3.org/2000/svg" width="118.419" height="80.74" viewBox="0 0 118.419 80.74">
  <g id="Group_6" data-name="Group 6" transform="translate(-6 -34)" opacity="0.55">
    <path id="Path_9" data-name="Path 9" d="M47.018,60.265a2.07,2.07,0,0,0,2.018-2.018V51.519a2.018,2.018,0,1,0-4.037,0v6.728A2.07,2.07,0,0,0,47.018,60.265Z" transform="translate(13.481 5.358)" fill="#fff"/>
    <path id="Path_10" data-name="Path 10" d="M54.019,60.265a2.07,2.07,0,0,0,2.018-2.018V51.519a2.018,2.018,0,1,0-4.037,0v6.728A2.07,2.07,0,0,0,54.019,60.265Z" transform="translate(15.901 5.358)" fill="#fff"/>
    <path id="Path_11" data-name="Path 11" d="M55.88,59.6a18.182,18.182,0,0,0-15.61,8.881,2.153,2.153,0,0,0,.673,2.826,2.535,2.535,0,0,0,1.077.269,2.3,2.3,0,0,0,1.749-.942A14,14,0,0,1,55.88,63.772a14.259,14.259,0,0,1,10.092,4.172A2,2,0,0,0,68.8,65.117,17.721,17.721,0,0,0,55.88,59.6Z" transform="translate(11.751 8.849)" fill="#fff"/>
    <path id="Path_12" data-name="Path 12" d="M21.518,96.864H99.567a2.07,2.07,0,0,0,2.019-2.019V41.018A2.07,2.07,0,0,0,99.567,39H21.518A2.07,2.07,0,0,0,19.5,41.018V94.845A2.07,2.07,0,0,0,21.518,96.864Zm2.018-53.827H97.549v49.79H23.537Z" transform="translate(4.666 1.728)" fill="#fff"/>
    <path id="Path_13" data-name="Path 13" d="M119.843,101.283H112.98c0-.269.135-.4.135-.673V38.71a4.768,4.768,0,0,0-4.71-4.71H22.148a4.768,4.768,0,0,0-4.71,4.71v61.9a1.213,1.213,0,0,0,.135.673h-7c-1.346,0-4.575,0-4.575,4.71a9.887,9.887,0,0,0,2.96,6.459,7.475,7.475,0,0,0,5.248,2.288h101.6a8.16,8.16,0,0,0,6.325-3.23,9.761,9.761,0,0,0,2.288-5.517C124.419,104.244,123.88,101.283,119.843,101.283ZM21.475,38.71a.636.636,0,0,1,.673-.673h86.123a.636.636,0,0,1,.673.673v61.9a.636.636,0,0,1-.673.673H22.148a.636.636,0,0,1-.673-.673Zm97.561,70.244a4.173,4.173,0,0,1-3.1,1.749H14.478a3.646,3.646,0,0,1-2.691-1.077,5.371,5.371,0,0,1-1.749-3.633v-.673H56.6a1.213,1.213,0,0,0-.135.673,2.07,2.07,0,0,0,2.018,2.018H71.938a2.07,2.07,0,0,0,2.018-2.018,1.213,1.213,0,0,0-.135-.673h46.56v.673A5.087,5.087,0,0,1,119.036,108.954Z" transform="translate(0 0)" fill="#fff"/>
  </g>
</svg>
