<svg xmlns="http://www.w3.org/2000/svg" width="20" height="20" viewBox="0 0 16.436 17.023"><g transform="translate(-3115.782 -8236)"><path class="fill_main-color" d="M32.568,51.533V48.011a.881.881,0,0,0-.969-.881.916.916,0,0,0-.792.93v2.518l-7.3-7.3a.9.9,0,0,0-1.244,0,.881.881,0,0,0,0,1.244l7.3,7.3H26.991a.895.895,0,0,0-.881.969.916.916,0,0,0,.93.792h3.472A2.055,2.055,0,0,0,32.568,51.533Z" transform="translate(3093.779 8199.436)" fill="#fff"/><path class="fill_main-color" d="M48.228,22.467a.881.881,0,0,0,.229-.675.916.916,0,0,0-.93-.792H44.055A2.055,2.055,0,0,0,42,23.054v3.522a.881.881,0,0,0,.969.881.916.916,0,0,0,.792-.93V24l7.3,7.3a.9.9,0,0,0,1.244,0,.881.881,0,0,0,0-1.244l-7.3-7.3h2.571A.881.881,0,0,0,48.228,22.467Z" transform="translate(3079.652 8215.001)" fill="#fff"/></g></svg>