<?xml version="1.0" encoding="utf-8"?>
<!-- Generator: Adobe Illustrator 19.0.0, SVG Export Plug-In . SVG Version: 6.00 Build 0)  -->
<svg version="1.1" id="Layer_1" xmlns="http://www.w3.org/2000/svg" xmlns:xlink="http://www.w3.org/1999/xlink" x="0px" y="0px"
	 viewBox="-469 271.8 19.1 18.2" style="enable-background:new -469 271.8 19.1 18.2;" xml:space="preserve">
<style type="text/css">
	.st0{fill:#787678;}
</style>
<path id="XMLID_4653_" class="st0" d="M-450.5,276.4l-2.3,2.7c-0.3-0.2-0.6-0.3-0.9-0.3c-0.5,0-0.9,0.2-1.2,0.6l-1.9-1.4
	c0.1-0.2,0.1-0.4,0.1-0.6c0-1.1-0.7-1.9-1.7-1.9s-1.7,0.9-1.7,1.9c0,0.6,0.3,1.2,0.7,1.6l-1.6,4.2c-0.1,0-0.2,0-0.3,0
	c-0.4,0-0.7,0.1-1,0.4l-1.8-1.8c0.1-0.3,0.2-0.6,0.2-0.9c0-1.1-0.7-1.9-1.7-1.9s-1.7,0.9-1.7,1.9c0,0.4,0.1,0.7,0.3,1l-1.9,2.2
	c-0.1,0.2-0.1,0.4,0,0.6c0.1,0.1,0.2,0.1,0.3,0.1s0.2,0,0.3-0.1l1.9-2.2c0.3,0.2,0.6,0.3,0.9,0.3c0.4,0,0.7-0.1,1-0.4l1.8,1.8
	c-0.1,0.3-0.2,0.6-0.2,0.9c0,1.1,0.7,1.9,1.7,1.9s1.7-0.9,1.7-1.9c0-0.6-0.3-1.2-0.7-1.6l1.6-4.2c0.1,0,0.2,0,0.3,0
	c0.5,0,0.9-0.2,1.2-0.6l1.9,1.4c-0.1,0.2-0.1,0.4-0.1,0.6c0,1.1,0.7,1.9,1.7,1.9c0.9,0,1.7-0.9,1.7-1.9c0-0.4-0.1-0.7-0.3-1l2.3-2.7
	c0.1-0.2,0.1-0.4,0-0.6S-450.4,276.3-450.5,276.4z M-465.5,281.9c-0.5,0-0.9-0.5-0.9-1.1s0.4-1.1,0.9-1.1c0.5,0,0.9,0.5,0.9,1.1
	S-465,281.9-465.5,281.9z M-461.3,286.2c-0.5,0-0.9-0.5-0.9-1.1c0-0.6,0.4-1.1,0.9-1.1c0.5,0,0.9,0.5,0.9,1.1
	C-460.3,285.7-460.7,286.2-461.3,286.2z M-458.4,278.5c-0.5,0-0.9-0.5-0.9-1.1s0.4-1.1,0.9-1.1c0.5,0,0.9,0.5,0.9,1.1
	C-457.4,278-457.9,278.5-458.4,278.5z M-453.8,281.9c-0.5,0-0.9-0.5-0.9-1.1s0.4-1.1,0.9-1.1c0.3,0,0.5,0.1,0.7,0.3l0,0l0,0
	c0.2,0.2,0.3,0.5,0.3,0.8C-452.8,281.4-453.2,281.9-453.8,281.9z"/>
</svg>
