<?xml version="1.0" encoding="UTF-8" standalone="no"?>
<!DOCTYPE svg PUBLIC "-//W3C//DTD SVG 1.1//EN"
"http://www.w3.org/Graphics/SVG/1.1/DTD/svg11.dtd">


<!-- Page 2 -->
<svg x="0" y="0" width="80" height="80" viewBox="0 0 80 80" version="1.1" xmlns="http://www.w3.org/2000/svg" xmlns:xlink="http://www.w3.org/1999/xlink"
style="display: block;margin-left: auto;margin-right: auto;">
<defs>

<style type="text/css"><![CDATA[

.g1_2{
fill: #787877;
}


]]></style>

</defs>
<path d="M0,0
L0,80
L80,80
L80,0 Z " 
fill="#FFFFFF" stroke="none" />
<path d="M36.4,16.2c0.8,0.1,1.4,0.8,1.3,1.6l-0.2,2c0,0.4,0.2,0.7,0.6,0.7c0.1,0,0.3,0,0.4,-0.1C45.9,13.9,57,13.6,64.4,19.6c0.6,0.6,1.3,1.2,1.9,1.8c0.3,0.3,0.4,0.7,0.4,1.1c-0.1,0.4,-0.3,0.8,-0.6,1c-0.6,0.4,-1.3,0.4,-1.8,-0.1L64.2,23.3c-0.5,-0.5,-1.1,-1,-1.6,-1.5c-6.4,-5.2,-16,-4.9,-22.3,0.8c-0.3,0.2,-0.3,0.6,0,0.9c0.1,0.1,0.2,0.1,0.3,0.1l2,0.2c0.8,0.1,1.3,0.7,1.4,1.5c0,0.8,-0.7,1.4,-1.5,1.4l-0.1,0L35.5,26C34.7,25.9,34.1,25.2,34.2,24.4l0.7,-6.9c0.1,-0.8,0.8,-1.3,1.5,-1.3Z" class="g1_2" />
<path d="M70.2,26.7c0.8,-0.2,1.5,0.3,1.7,1.1l1.4,6.8c0.1,0.8,-0.4,1.5,-1.1,1.7l-6.9,1.4c0,0,-0.1,0,-0.1,0c-0.8,0.1,-1.5,-0.5,-1.6,-1.3c0,-0.7,0.5,-1.4,1.2,-1.5l2,-0.4c0.1,-0.1,0.2,-0.1,0.3,-0.3C67.3,34,67.3,33.6,67,33.4C60.2,28.4,50.6,29.1,44.8,35c-0.5,0.5,-1,1,-1.5,1.6l0,0.1C42.8,37.2,42,37.3,41.5,37C41.1,36.8,40.9,36.4,40.8,36c-0.1,-0.4,0,-0.8,0.3,-1.1c0.5,-0.7,1,-1.4,1.7,-2C49.5,26.2,60.6,25.3,68.5,31c0.2,0.1,0.3,0.1,0.5,0.1c0.3,-0.1,0.5,-0.4,0.5,-0.7l-0.4,-2c0,-0.1,0,-0.1,0,-0.1c-0.2,-0.7,0.3,-1.5,1.1,-1.6Z" class="g1_2" />
<path d="M16.1,49.6l0,5.2C14.8,53.3,14.1,51.7,14.2,50l0,-2.3c0.5,0.7,1.2,1.3,1.9,1.9M57.3,47.7l0,2.3c0,1.7,-0.7,3.4,-2,5l0,-5.3c0.4,-0.3,0.9,-0.7,1.3,-1.1c0.2,-0.3,0.5,-0.6,0.7,-0.9M49.8,59l0,-6.1c1,-0.3,1.9,-0.8,2.8,-1.3l0,5.8c-0.4,0.3,-0.9,0.6,-1.3,0.8c-0.5,0.3,-1,0.5,-1.5,0.8M47.1,54l0,6.2c-1.1,0.4,-2.2,0.7,-3.4,0.9l0,-6.2C44.9,54.5,46,54.3,47.1,54m-6.2,1.2l0,6.4c-1.2,0.2,-2.5,0.2,-3.8,0.3l0,-6.3c1.3,-0.1,2.6,-0.2,3.8,-0.4m-10.5,0c1.3,0.2,2.6,0.3,4,0.4l0,6.3C33,61.8,31.7,61.8,30.4,61.6ZM18.8,57.3l0,-5.8c0.9,0.5,1.8,1,2.8,1.4l0,6c-1,-0.5,-1.9,-1,-2.8,-1.6M24.3,60l0,-6.1c1.1,0.4,2.2,0.6,3.3,0.9l0,6.2C26.5,60.7,25.4,60.4,24.3,60M56.6,57.7c2.2,-2.2,3.5,-4.9,3.5,-7.7l0,-9c0,-3,-1.5,-5.8,-4.1,-8.3c-0.6,-0.4,-1.4,-0.4,-1.9,0.1c-0.5,0.6,-0.5,1.5,0.1,2c2,1.8,3.1,4,3.1,6.2c0,6.5,-9.8,11.9,-21.5,11.9C24.1,52.9,14.2,47.4,14.2,41c0,-5.5,7,-10.4,16.6,-11.7c0.8,-0.1,1.3,-0.7,1.2,-1.5C31.9,27,31.2,26.5,30.4,26.6C19.2,28.1,11.4,34,11.4,41l0,9c0,8.3,10.7,14.7,24.3,14.7c8.9,0,16.7,-2.8,20.9,-7Z" class="g1_2" />

</svg>
