<?xml version="1.0" encoding="UTF-8" standalone="no"?>
<!DOCTYPE svg PUBLIC "-//W3C//DTD SVG 1.1//EN"
"http://www.w3.org/Graphics/SVG/1.1/DTD/svg11.dtd">


<!-- Page 31 -->
<svg x="0" y="0" width="280" height="280" viewBox="0 0 280 280" version="1.1" xmlns="http://www.w3.org/2000/svg" xmlns:xlink="http://www.w3.org/1999/xlink"
style="display: block;margin-left: auto;margin-right: auto;">
<defs>

<style type="text/css"><![CDATA[

.g1_31{
fill: #F69322;
}
.g2_31{
fill: #1F1F1E;
}


]]></style>

</defs>
<path d="M0,0
L0,280
L280,280
L280,0 Z " 
fill="#FFFFFF" stroke="none" />
<path d="M215.7,172.1c0,15.1,-12.2,27.3,-27.3,27.3c-15,0,-27.2,-12.2,-27.2,-27.3c0,-15,12.2,-27.2,27.2,-27.2c15.1,0,27.3,12.2,27.3,27.2Z" class="g1_31" />
<path d="M221.8,176.3c0,13,-10.5,23.6,-23.5,23.6c-13.1,0,-23.6,-10.6,-23.6,-23.6c0,-13,10.5,-23.6,23.6,-23.6c13,0,23.5,10.6,23.5,23.6M171.1,192l1.3,2.2l-2.6,0.3c-0.1,0.1,-0.3,0.1,-0.5,0.1c-0.2,0,-0.5,0.1,-0.7,0.1l-29.5,5.5l-0.7,0.1c-3.6,1.2,-6.5,1.7,-8.9,1.7c-6,0,-8.7,-2.9,-9.8,-4c-9.4,-9.8,-7,-35.7,-4.4,-42.5c0.1,-0.3,0.3,-1.1,3.6,-15.6l0.3,-1.1l1,-0.2C126.6,137,139,133,149.3,124.3l0.7,-0.6l30.3,9.8l0.4,0.4c1.7,2.1,5.1,6.1,9.1,9.4l2.6,2l-3.2,1c-13.1,3.9,-22.3,16.3,-22.3,30c0,5.5,1.5,10.9,4.2,15.7M140,82c-13.9,3,-27.8,6.6,-37,9l-5.3,1.4l56.7,-69l1.3,0.9c5.2,3.4,8.6,7.5,10,12.1c1.9,6.4,-0.7,12.3,-1.3,13.4L164.2,50L140.7,81.8ZM84.7,96.1l-0.1,0l-0.8,1.1c-0.8,1,-2.7,3.6,-5.3,7.3l-4.9,6.8l20,-94.1l1.6,0.2c6.2,0.7,11,2.9,14.3,6.3c4.5,4.8,4.9,10.8,4.9,12.5l0,0.2l-5.2,29.8l-0.3,0.3Zm115.6,0L158.7,78.3l-6.6,1.2L171,53.9c0.2,-0.3,5.2,-9.1,2.2,-19.6C170.9,26.5,164.8,20,155.2,15l-2.8,-1.5L119.2,54l2.9,-17.1c0.1,-0.3,0.6,-10.4,-6.8,-18.4C109.7,12.5,101.4,9.4,90.5,9.3l-3.2,0L62.7,125.4c-0.1,0.4,-0.1,0.8,0,1.2l0,0.7l-0.3,0.5C51.9,143.5,45.5,155,43.6,160.8L14,238.6l7.3,2.8L51,163.2c4,-13.2,36.5,-58,37.9,-59.9l0.4,-0.4l0.5,-0.2C99,100.1,131.1,91.2,157.3,86.4l0.5,-0.1l38.4,16.5l33.1,27.4l-1.9,1.3c-5.9,4.2,-20.7,13.4,-29.8,7.8C192,135.9,185.8,127.9,185.8,127.8L185,126.9l-37,-12l-1.6,1.6c-12.3,11.7,-30.3,15,-31.1,15.2l-2.6,0.4l-0.6,2.6c-1.3,5.7,-3.8,16.9,-4.1,17.9l0,0.2c-2.9,7.7,-6.4,37.5,6.1,50.6c4.3,4.5,12.4,8.9,26.5,4.4l0.2,0L170,202.4c5.6,-1,10.3,0,14.2,2.9c5.5,4.1,8.4,11.1,9.8,16.2l0.5,1.8l-68.6,15.9l-0.6,0.5C114.3,248,105.1,249,97,249.9c-7.3,0.8,-14.2,1.6,-18.8,8.2l-5.4,9.6l6.7,3.8l5.2,-9.1c2.6,-3.6,6.5,-4.1,13.1,-4.8c8,-0.9,18.9,-2.1,31.2,-11l0.3,-0.2l74,-17.2l-0.4,-3.5c0,-0.1,-1,-7.8,-5.1,-15.6l-1.2,-2.4l2.7,-0.1c17,-0.6,30.3,-14.3,30.3,-31.3c0,-10.7,-5.4,-20.6,-14.5,-26.4l-3.1,-2l3.4,-1.1C227,142.7,236.9,134.1,238,133.1l3.3,-3Z" class="g2_31" />

</svg>
