<?xml version="1.0" encoding="UTF-8" standalone="no"?>
<!DOCTYPE svg PUBLIC "-//W3C//DTD SVG 1.1//EN"
"http://www.w3.org/Graphics/SVG/1.1/DTD/svg11.dtd">


<!-- Page 29 -->
<svg x="0" y="0" width="280" height="280" viewBox="0 0 280 280" version="1.1" xmlns="http://www.w3.org/2000/svg" xmlns:xlink="http://www.w3.org/1999/xlink"
style="display: block;margin-left: auto;margin-right: auto;">
<defs>

<style type="text/css"><![CDATA[

.trade-history-1{
fill: #F7931D;
}
.trade-history-2{
fill: none;
stroke: #F7931D;
stroke-width: 2.0197222;
stroke-linecap: butt;
stroke-linejoin: miter;
}
.trade-history-3{
fill: #231F20;
}
.trade-history-4{
fill: none;
stroke: #231F20;
stroke-width: 2.0197222;
stroke-linecap: butt;
stroke-linejoin: miter;
}
.trade-history-5{
fill: none;
stroke: #F7931D;
stroke-width: 2.0609722;
stroke-linecap: butt;
stroke-linejoin: miter;
}


]]></style>

</defs>
<path d="M119.3,46.6c3.3,0.3,5.6,3.2,5.3,6.4l0,0.1l-0.8,8.4c-0.2,1.4,0.9,2.7,2.2,2.8c0.7,0.1,1.4,-0.2,2,-0.6C158.5,37,204.6,35.6,235.2,60.6c2.8,2.3,5.5,4.7,7.9,7.3c1.2,1.3,1.8,3,1.6,4.7c-0.1,1.7,-0.9,3.2,-2.3,4.2c-2.3,1.7,-5.5,1.5,-7.6,-0.4l-0.3,-0.3c-2.1,-2.2,-4.4,-4.3,-6.7,-6.3C201.2,48.1,161.4,49.5,135.3,73c-1,0.9,-1.1,2.5,-0.1,3.5c0.4,0.5,1,0.8,1.6,0.8l8.1,0.8c3.1,0.3,5.6,2.8,5.7,6c0,3.3,-2.7,5.9,-6,5.9c-0.2,0,-0.4,0,-0.5,0L115.3,87.1c-3.3,-0.3,-5.7,-3.2,-5.4,-6.5l2.9,-28.8c0.3,-3.2,3.2,-5.6,6.5,-5.2Z" class="trade-history-1" />
<path d="M119.3,46.6c3.3,0.3,5.6,3.2,5.3,6.4l0,0.1l-0.8,8.4c-0.2,1.4,0.9,2.7,2.2,2.8c0.7,0.1,1.4,-0.2,2,-0.6C158.5,37,204.6,35.6,235.2,60.6c2.8,2.3,5.5,4.7,7.9,7.3c1.2,1.3,1.8,3,1.6,4.7c-0.1,1.7,-0.9,3.2,-2.3,4.2c-2.3,1.7,-5.5,1.5,-7.6,-0.4l-0.3,-0.3c-2.1,-2.2,-4.4,-4.3,-6.7,-6.3C201.2,48.1,161.4,49.5,135.3,73c-1,0.9,-1.1,2.5,-0.1,3.5c0.4,0.5,1,0.8,1.6,0.8l8.1,0.8c3.1,0.3,5.6,2.8,5.7,6c0,3.3,-2.7,5.9,-6,5.9c-0.2,0,-0.4,0,-0.5,0L115.3,87.1c-3.3,-0.3,-5.7,-3.2,-5.4,-6.5l2.9,-28.8c0.3,-3.2,3.2,-5.6,6.5,-5.2Z" class="trade-history-2" />
<path d="M259.4,89.9c3.2,-0.7,6.3,1.3,7,4.5l5.8,28.4c0.7,3.2,-1.4,6.3,-4.6,7l-28.3,5.8c-0.2,0,-0.4,0.1,-0.6,0.1c-3.3,0.3,-6.2,-2,-6.5,-5.3c-0.2,-3.1,1.9,-5.9,5,-6.5l8,-1.7c0.6,-0.1,1.1,-0.4,1.5,-0.9c0.8,-1.1,0.6,-2.7,-0.5,-3.5C217.8,97.1,178.1,99.9,153.9,124.3c-2.1,2.1,-4.1,4.4,-6,6.9l-0.3,0.3c-1.9,2.2,-5,2.7,-7.5,1.2c-1.5,-0.8,-2.5,-2.3,-2.8,-3.9c-0.3,-1.7,0.1,-3.5,1.1,-4.8c2.2,-2.9,4.6,-5.6,7.1,-8.1c27.9,-28.1,73.9,-31.5,107,-8.1c0.6,0.4,1.3,0.5,2,0.4c1.4,-0.3,2.3,-1.6,2,-3l-1.7,-8.3c0,-0.1,0,-0.1,0,-0.1c-0.7,-3.2,1.4,-6.3,4.6,-7Z" class="trade-history-3" />
<path d="M259.4,89.9c3.2,-0.7,6.3,1.3,7,4.5l5.8,28.4c0.7,3.2,-1.4,6.3,-4.6,7l-28.3,5.8c-0.2,0,-0.4,0.1,-0.6,0.1c-3.3,0.3,-6.2,-2,-6.5,-5.3c-0.2,-3.1,1.9,-5.9,5,-6.5l8,-1.7c0.6,-0.1,1.1,-0.4,1.5,-0.9c0.8,-1.1,0.6,-2.7,-0.5,-3.5C217.8,97.1,178.1,99.9,153.9,124.3c-2.1,2.1,-4.1,4.4,-6,6.9l-0.3,0.3c-1.9,2.2,-5,2.7,-7.5,1.2c-1.5,-0.8,-2.5,-2.3,-2.8,-3.9c-0.3,-1.7,0.1,-3.5,1.1,-4.8c2.2,-2.9,4.6,-5.6,7.1,-8.1c27.9,-28.1,73.9,-31.5,107,-8.1c0.6,0.4,1.3,0.5,2,0.4c1.4,-0.3,2.3,-1.6,2,-3l-1.7,-8.3c0,-0.1,0,-0.1,0,-0.1c-0.7,-3.2,1.4,-6.3,4.6,-7l0,0.1Z" class="trade-history-4" />
<path d="M213,166.9c0,0,-35.1,36.3,-93.4,36.3c-58.4,0,-93.7,-23.1,-98.4,-43c-3.2,23.2,-5,29.8,2,42.8c7,13,37.4,39.7,96.7,39.7c59.2,0,89.1,-20.9,91.4,-55.5c2.3,-34.5,1.7,-20.3,1.7,-20.3Z" class="trade-history-1" />
<path d="M213,166.9c0,0,-35.1,36.3,-93.4,36.3c-58.4,0,-93.7,-23.1,-98.4,-43c-3.2,23.2,-5,29.8,2,42.8c7,13,37.4,39.7,96.7,39.7c59.2,0,89.1,-20.9,91.4,-55.5c2.3,-34.5,1.7,-20.3,1.7,-20.3Z" class="trade-history-5" />
<path d="M34.7,185.2l0,21.4c-5.1,-6.2,-8.1,-12.9,-7.9,-20l0,-9.3c2.4,2.9,5,5.5,7.9,7.9m171.1,-7.9l0,9.3c0,7.3,-2.8,14.2,-8.2,20.8l0,-21.8c1.8,-1.4,3.6,-3.2,5.2,-4.8c1,-1,2.2,-2.3,3,-3.5M174.9,224l0,-25c4.1,-1.7,7.7,-3.7,11.3,-5.7l0,24.2c-1.6,1.3,-3.4,2.3,-5.2,3.3c-2,1.2,-4.3,2.2,-6.1,3.2M163.4,203.2l0,25.9c-4.4,1.6,-8.9,2.8,-13.9,3.8l0,-25.9c5,-1.4,9.5,-2.6,13.9,-3.8m-25.5,5.3l0,26.2c-5.2,0.8,-10.5,1.2,-15.9,1.4l0,-26.2c5.6,-0.4,10.9,-0.8,15.9,-1.4m-43.6,0c5.2,0.8,10.7,1,16.4,1.4l0,26.2c-5.5,-0.2,-11.2,-0.6,-16.4,-1.4Zm-48.1,8.4l0,-23.8c3.6,2,7.3,4,11.3,5.7l0,25c-4,-2,-7.7,-4.4,-11.3,-6.9M69,228.5L69,203c4.3,1.4,9.1,2.6,13.8,3.6l0,25.9c-4.9,-1.2,-9.3,-2.4,-13.8,-4m133.8,-9.7c9.3,-9.3,14.6,-20.2,14.6,-32l0,-37.6c0,-12.1,-5.9,-24,-16.8,-34.1c-2.4,-2,-5.9,-1.8,-8.1,0.4c-2,2.4,-2,6.1,0.4,8.1c8.5,7.7,12.9,16.5,13.1,25.6c0,27.1,-41,49.6,-89.5,49.6C68,198.8,27,175.9,27,149.2c0,-22.6,28.9,-43,68.9,-48.3c3.2,-0.4,5.3,-3.2,4.9,-6.4c-0.5,-3.3,-3.3,-5.3,-6.5,-4.9c-46.5,6.1,-78.8,30.7,-79,59.6l0,37.6c0,34.4,44.4,61.1,101,61.1c37,-0.2,69.1,-11.8,86.5,-29.1Z" class="trade-history-3" />

</svg>
