<?xml version="1.0" encoding="utf-8"?>
<!-- Generator: Adobe Illustrator 26.4.1, SVG Export Plug-In . SVG Version: 6.00 Build 0)  -->
<svg version="1.1" id="Layer_1" xmlns="http://www.w3.org/2000/svg" xmlns:xlink="http://www.w3.org/1999/xlink" x="0px" y="0px"
	 viewBox="0 0 50 50" style="enable-background:new 0 0 50 50;" xml:space="preserve">
<style type="text/css">
	.st0{fill:#FFFFFF;}
    .icon-plus-1{fill:#0000FF;}
</style>
<circle id="XMLID_134_" class="icon-plus-1" cx="25" cy="25" r="25"/>
<path id="Union_1" class="st0" d="M4.9,36.6c-0.8-1.1-0.8-2.5,0-3.6l11.1-14.3c0.3-0.5,0.9-0.8,1.5-0.7c0.6-0.1,1.2,0.2,1.6,0.6
	l9.4,10.2l13.4-16.2c0.7-1,2.1-1.2,3-0.4c0.2,0.1,0.3,0.3,0.4,0.4c1,1.2,1,3,0,4.2l-14,16.9c-0.4,0.5-1.1,0.9-1.7,0.9
	c-0.1,0-0.2,0-0.3,0c-0.1,0-0.2,0-0.3,0c-0.5,0-1.1-0.2-1.4-0.6l-9.8-10.6L7.6,36.6c-0.3,0.4-0.8,0.7-1.4,0.7
	C5.7,37.3,5.2,37,4.9,36.6z"/>
</svg>
