<?xml version="1.0" encoding="utf-8"?>
<!-- Generator: Adobe Illustrator 19.0.0, SVG Export Plug-In . SVG Version: 6.00 Build 0)  -->
<svg version="1.1" id="Layer_1" xmlns="http://www.w3.org/2000/svg" xmlns:xlink="http://www.w3.org/1999/xlink" x="0px" y="0px"
	 viewBox="-469 271.8 19.1 18.2" style="enable-background:new -469 271.8 19.1 18.2;" xml:space="preserve">
<path id="XMLID_97_" class="trade-active-2 sidebar-svg" d="M-450.5,276.4l-2.3,2.7c-0.3-0.2-0.6-0.3-0.9-0.3c-0.5,0-0.9,0.2-1.2,0.6l-1.9-1.4
	c0.1-0.2,0.1-0.4,0.1-0.6c0-1.1-0.7-1.9-1.7-1.9s-1.7,0.9-1.7,1.9c0,0.6,0.3,1.2,0.7,1.6l-1.6,4.2c-0.1,0-0.2,0-0.3,0
	c-0.4,0-0.7,0.1-1,0.4l-1.8-1.8c0.1-0.3,0.2-0.6,0.2-0.9c0-1.1-0.7-1.9-1.7-1.9s-1.7,0.9-1.7,1.9c0,0.4,0.1,0.7,0.3,1l-1.9,2.2
	c-0.1,0.2-0.1,0.4,0,0.6c0.1,0.1,0.2,0.1,0.3,0.1c0.1,0,0.2,0,0.3-0.1l1.9-2.2c0.3,0.2,0.6,0.3,0.9,0.3c0.4,0,0.7-0.1,1-0.4l1.8,1.8
	c-0.1,0.3-0.2,0.6-0.2,0.9c0,1.1,0.7,1.9,1.7,1.9s1.7-0.9,1.7-1.9c0-0.6-0.3-1.2-0.7-1.6l1.6-4.2c0.1,0,0.2,0,0.3,0
	c0.5,0,0.9-0.2,1.2-0.6l1.9,1.4c-0.1,0.2-0.1,0.4-0.1,0.6c0,1.1,0.7,1.9,1.7,1.9s1.7-0.9,1.7-1.9c0-0.4-0.1-0.7-0.3-1l2.3-2.7
	c0.1-0.2,0.1-0.4,0-0.6C-450.2,276.3-450.4,276.3-450.5,276.4z"/>
</svg>
