<svg xmlns="http://www.w3.org/2000/svg" width="31.528" height="31.528" viewBox="0 0 31.528 31.528"><g transform="translate(-609.48 -1325.635)"><path d="M26.564,5.2A15.9,15.9,0,0,0,10.8,20.964,15.9,15.9,0,0,0,26.564,36.728,15.9,15.9,0,0,0,42.328,20.964,15.718,15.718,0,0,0,26.564,5.2Zm0,28.662a12.9,12.9,0,1,1,12.9-12.9A12.844,12.844,0,0,1,26.564,33.862Z" transform="translate(598.68 1320.435)" fill="#999" fill-rule="evenodd"/><path d="M18.666,17.232V7.2H15.8V18.665h0v.287L23.825,24.4l1.72-2.293Z" transform="translate(608.011 1324.167)" fill="#999" fill-rule="evenodd"/></g></svg>