<svg xmlns="http://www.w3.org/2000/svg" width="126.124" height="130.521" viewBox="0 0 126.124 130.521">
  <path id="Path_22" data-name="Path 22" d="M216.77,152.833c.553.561,1,1.013,1.446,1.462,1.011,1.014,2.03,2.02,3.036,3.04a4.224,4.224,0,0,0,3.3,1.326,4.617,4.617,0,0,0,3.391-1.466,24.2,24.2,0,0,0,1.7-1.849,4.675,4.675,0,0,0-.52-5.736q-24.753-24.662-49.44-49.391c-.945-.949-1.9-1.9-2.871-2.867.155-.173.288-.322.423-.467.635-.678,1.3-1.331,1.9-2.039a3.583,3.583,0,0,0,.751-2.807,4.421,4.421,0,0,0-1.5-2.813,4.152,4.152,0,0,0-1.644-.928,9.607,9.607,0,0,0-2.059-.406,3,3,0,0,0-2.365.836c-.538.522-1.06,1.06-1.6,1.588-.141.14-.3.268-.4.366-.648-.651-1.268-1.271-1.923-1.93a4.341,4.341,0,0,1,.291-.346c.512-.517,1.019-1.037,1.543-1.542a3.784,3.784,0,0,0,1.136-2.669,5.06,5.06,0,0,0-3.659-4.842,3.941,3.941,0,0,0-3.948,1c-.506.52-1.023,1.03-1.54,1.543-.128.124-.265.237-.34.305q-3.809-3.811-7.553-7.557c.352,0,.778-.009,1.2,0a15.853,15.853,0,0,0,5.273-.836,20.734,20.734,0,0,0,12.2-10.691,20.914,20.914,0,0,0,1.643-5.3,19.945,19.945,0,0,0-1.382-11.24,20.288,20.288,0,0,0-4.413-6.407,19.878,19.878,0,0,0-7.389-4.609,16.681,16.681,0,0,0-4.9-1.037c-.653-.022-1.309-.122-1.963-.114a20.128,20.128,0,0,0-7.347,1.462,20.739,20.739,0,0,0-4.938,2.845c-.662.512-1.261,1.1-1.915,1.673-4.429-5.455-10.145-8.209-17.168-7.859a19.294,19.294,0,0,0-13.61,6.423,20.133,20.133,0,0,0,2.557,29.672,22.485,22.485,0,0,0-3.046,3.872A20.1,20.1,0,0,0,106.2,81.87a18.88,18.88,0,0,0,.352,4.929,19.975,19.975,0,0,0,1.509,4.71,19.046,19.046,0,0,0,2.629,4.2,20.121,20.121,0,0,0,21.7,6.509,19.722,19.722,0,0,0,10.272-7.481,18.791,18.791,0,0,0,3.727-12.13c.474.289,6.766,6.519,7.607,7.521-.489.49-.96,1.013-1.483,1.475a4.288,4.288,0,0,0-.211,5.8,4.993,4.993,0,0,0,2.938,1.824,3.759,3.759,0,0,0,3.63-1c.516-.541,1.054-1.06,1.534-1.542.662.664,1.3,1.3,1.976,1.981-.315.316-.685.745-1.114,1.106a4.461,4.461,0,0,0-1.037,5.116,5.416,5.416,0,0,0,1.8,2.349,3.437,3.437,0,0,0,1.835.656,4.25,4.25,0,0,0,3.7-1.328c.453-.473.926-.928,1.382-1.382.536.316,23.628,23.321,25.131,25.015-.158.171-.32.35-.49.521-2.714,2.718-5.392,5.471-8.159,8.132a4.36,4.36,0,0,0-.556,5.1,2.563,2.563,0,0,0,.439.516c.944.952,1.9,1.9,2.842,2.847a2.744,2.744,0,0,0,2.017.835,3.981,3.981,0,0,0,2.307-.423,5.786,5.786,0,0,0,.859-.654q4.132-4.111,8.249-8.236c.174-.175.352-.343.52-.509.531.34,5.982,5.725,7.389,7.287-.158.168-.319.349-.487.519-2.716,2.718-5.42,5.448-8.158,8.142a4.314,4.314,0,0,0-1.355,2.881,2.765,2.765,0,0,0,.752,2.254c.752.724,1.479,1.476,2.217,2.214.32.32.63.653.972.946a1.958,1.958,0,0,0,1.251.456,4.32,4.32,0,0,0,3.411-1.373c2.7-2.758,5.455-5.471,8.185-8.206.159-.159.285-.351.492-.609ZM124.388,62.768a10.153,10.153,0,1,1,.016-20.306,10.153,10.153,0,1,1-.016,20.306Zm12.056,20.224A10.14,10.14,0,1,1,126.4,72.834a10.041,10.041,0,0,1,10.047,10.158ZM154.8,64.679A10.141,10.141,0,1,1,164.917,54.5,10.124,10.124,0,0,1,154.8,64.679Z" transform="translate(-104.271 -32.502)" fill="#fff" opacity="0.06"/>
</svg>
