<?xml version="1.0" encoding="UTF-8" standalone="no"?>
<!DOCTYPE svg PUBLIC "-//W3C//DTD SVG 1.1//EN"
"http://www.w3.org/Graphics/SVG/1.1/DTD/svg11.dtd">


<!-- Page 28 -->
<svg x="0" y="0" width="280" height="280" viewBox="0 0 280 280" version="1.1" xmlns="http://www.w3.org/2000/svg" xmlns:xlink="http://www.w3.org/1999/xlink"
style="display: block;margin-left: auto;margin-right: auto;">
<defs>

<style type="text/css"><![CDATA[

.transaction-history-1{
fill: #F7931D;
}
.transaction-history-2{
fill: #050604;
}
.transaction-history-3{
fill: #231F20;
}
.transaction-history-4{
fill: none;
stroke: #231F20;
stroke-width: 4.1372223;
stroke-linecap: butt;
stroke-linejoin: miter;
}

.transaction-history-5{
fill: #F7931D;
}

]]></style>

</defs>
<path d="M154.5,201.9c-0.1,0,-0.3,0,-0.4,0.1c-4.5,0.4,-9.1,0.7,-13.7,0.7c-2.3,0,-4.6,-0.1,-6.8,-0.2c-0.1,0,-0.2,0,-0.3,0c-2.4,0,-4.4,1.9,-4.5,4.3c-0.2,2.5,1.8,4.7,4.3,4.8l0.1,0l0.1,0c0,0,0.1,0,0.1,0c1.8,0.1,3.6,0.2,5.5,0.2c0,0,0.1,0,0.2,0l0.1,0l0.1,0l0.1,0l0.1,0l0.1,0l0.1,0l0.1,0l0.1,0l0.1,0l0.1,0l0.1,0l0.1,0l0.1,0l0.1,0l0.1,0l0.1,0l0.1,0l0.1,0l0.1,0l0.1,0l0.1,0l0.1,0c0.1,0,0.1,0,0.1,0l0.1,0l0.1,0l0.1,0l0.1,0l0.1,0l0.1,0l0.1,0c0.1,0,0.1,0,0.1,0l0.1,0l0.1,0l0.1,0l0.1,0l0.1,0l0.1,0l0.1,0l0.1,0l0.1,0l0.2,0l0.1,0c3.9,-0.1,7.8,-0.4,11.6,-0.8c2.5,-0.2,4.4,-2.5,4.1,-5c-0.3,-2.3,-2.3,-4.1,-4.6,-4.1Z" class="transaction-history-1" />
<path d="M113.3,199.8c-6.7,-1.4,-13.2,-3.4,-19.4,-5.9c-0.6,-0.2,-1.2,-0.3,-1.7,-0.3c-1.9,0,-3.6,1,-4.3,2.8c-0.9,2.4,0.2,5,2.5,6c6.7,2.6,13.7,4.8,21,6.3c0.3,0.1,0.6,0.1,1,0.1c2.1,0,4,-1.4,4.4,-3.6c0.6,-2.4,-1,-4.8,-3.5,-5.4Z" class="transaction-history-1" />
<path d="M195.1,190.7c-0.6,0,-1.3,0.2,-1.9,0.5c-6.1,2.8,-12.5,5.2,-19.1,7c-2.4,0.7,-3.8,3.2,-3.2,5.6c0.6,2.1,2.4,3.4,4.4,3.4c0.4,0,0.8,-0.1,1.2,-0.2c1.9,-0.5,3.7,-1,5.5,-1.6c0.1,0,0.1,0,0.1,0c0,0,0,-0.1,0.1,-0.1c0.1,0,0.1,0,0.1,0c0.2,-0.1,0.3,-0.1,0.4,-0.1c0.1,-0.1,0.1,-0.1,0.1,-0.1c0,0,0.1,0,0.1,0c0.1,0,0.1,0,0.1,0c0.1,0,0.1,0,0.1,-0.1c0.1,0,0.1,0,0.1,0c0.1,0,0.1,0,0.1,0l0.1,-0.1c0.1,0,0.1,0,0.1,0l0.1,0l0.1,-0.1l0.1,0l0.1,0c0,0,0.1,0,0.1,0c0,-0.1,0,-0.1,0,-0.1c0,0,0.1,0,0.1,0c0.1,0,0.1,0,0.2,-0.1c0.1,0,0.1,0,0.1,0c0.1,0,0.1,0,0.1,0l0.1,-0.1c0,0,0.1,0,0.1,0l0.1,0c0,0,0,-0.1,0,-0.1c0.1,0,0.1,0,0.1,0l0.1,0l0.1,0c0,-0.1,0,-0.1,0,-0.1c0.1,0,0.1,0,0.1,0l0.1,0l0.1,0l0,-0.1c0,0,0.1,0,0.1,0l0.1,0l0.1,0c0,-0.1,0,-0.1,0,-0.1c0.1,0,0.2,0,0.2,0L186,204c0,0,0.1,0,0.1,0c0,0,0.1,0,0.1,0c0,-0.1,0,-0.1,0,-0.1l0.1,0c0,0,0.1,0,0.1,0l0.1,0c0,0,0,-0.1,0,-0.1c0,0,0.1,0,0.1,0c0,0,0.1,0,0.1,0c0,0,0.1,0,0.1,0c0,-0.1,0,-0.1,0,-0.1c0.1,0,0.1,0,0.1,0c0,0,0.1,0,0.1,0c0.1,-0.1,0.1,-0.1,0.1,-0.1c0,0,0.1,0,0.1,0c0,0,0.1,0,0.1,0l0,-0.1c0.1,0,0.2,0,0.3,0c0,-0.1,0,-0.1,0,-0.1l0.1,0c0.1,0,0.1,0,0.1,0c0,0,0.1,0,0.1,0l0,-0.1c0.1,0,0.1,0,0.1,0c0,0,0.1,0,0.1,0c0,0,0,-0.1,0,-0.1c0.2,0,0.3,0,0.4,-0.1c3,-1.1,5.9,-2.4,8.7,-3.7c2.3,-1.1,3.2,-3.8,2.2,-6.1c-0.9,-1.6,-2.6,-2.6,-4.3,-2.6Z" class="transaction-history-1" />
<path d="M260.7,181.2l1.4,7.9L256,201.2c0,0,-39.2,59.8,-114.2,59.8C66.8,261,25.3,214.1,20.2,196.4C15,178.7,14.7,175.3,14.7,175.3l8.6,9.1c0,0,27.5,21.6,35,26.5c7.6,4.9,39.9,23.6,83.5,23.6c43.6,0,109.4,-46.6,114.2,-49.9Z" class="transaction-history-5" />
<path d="M140.4,230C69,230,11.1,183.9,11.1,127.1C11.1,70.3,69,24.2,140.4,24.2c71.4,0,129.3,46.1,129.3,102.9C269.7,183.9,211.8,230,140.4,230M256,192.2c-3.3,5.9,-7.1,11.5,-11.4,16.8l0,-8.1c4.1,-3.8,8,-7.8,11.4,-12.1ZM235.4,219c-3.5,3.6,-7.4,6.9,-11.4,9.9l0,-12.3c0,-0.1,0,-0.1,0,-0.2c4,-2.4,7.8,-5,11.4,-7.8Zm-31.9,22.9l0,-13.3c0,-0.6,-0.1,-1.1,-0.3,-1.6c4,-1.6,7.9,-3.4,11.7,-5.4l0,11.9c0,0.6,0.1,1.1,0.3,1.6c-3.8,2.5,-7.7,4.7,-11.7,6.8m-9.2,4.2c-3.7,1.5,-7.5,2.9,-11.4,4.2l0,-16.5c3.9,-1.1,7.7,-2.2,11.4,-3.5Zm-31.9,9l0,-17.4c3.8,-0.5,7.6,-1.1,11.4,-1.8l0,15.5c0,0.5,0.1,0.9,0.2,1.4c-3.8,0.9,-7.7,1.6,-11.6,2.3m-9.2,1.1c-3.7,0.3,-7.5,0.5,-11.4,0.5l0,-17.6c3.8,0,7.7,-0.2,11.4,-0.5Zm-20.5,0.3c-3.9,-0.2,-7.8,-0.5,-11.6,-1c0.1,-0.5,0.2,-0.9,0.2,-1.3l0,-16.1c3.7,0.4,7.5,0.7,11.4,0.8l0,17.6Zm-20.6,-2.6c-3.9,-0.8,-7.8,-1.7,-11.6,-2.8c0.1,-0.5,0.2,-0.9,0.2,-1.3l0,-15.3c3.8,0.9,7.6,1.6,11.4,2.3ZM91.6,248.1c-4,-1.5,-7.8,-3.1,-11.5,-4.9c0,-0.2,0.1,-0.5,0.1,-0.7l0,-14.5c3.7,1.5,7.5,2.8,11.4,4l0,16.1ZM71,238.4C67,236.1,63.2,233.7,59.6,231c0,-0.2,0,-0.3,0,-0.5l0,-12.4c3.7,2.2,7.5,4.2,11.4,6ZM50.5,212.5l0,11.2c-4.1,-3.5,-7.9,-7.4,-11.4,-11.4l0,-8.9c1.3,1.3,2.8,2.4,4.2,3.6c2.3,1.9,4.7,3.6,7.2,5.3c0,0.1,0,0.1,0,0.2m-20.6,-12c-3.8,-5.6,-7,-11.6,-9.7,-17.8c2.9,4.1,6.1,8.1,9.7,12ZM278.8,127.1c0,-30.3,-14.6,-58.7,-41.3,-79.9C211.5,26.5,177,15,140.4,15C103.8,15,69.3,26.5,43.3,47.2C16.7,68.4,2,96.8,2,127.1c0,3.6,0.2,7.2,0.6,10.7c-0.3,0.7,-0.5,1.4,-0.5,2.2c0,69.4,62,125.9,138.3,125.9c21.5,0,41.8,-4.5,60,-12.4c0.3,-0.1,0.6,-0.3,1,-0.5c15.2,-6.8,28.9,-16.2,40.4,-27.4c1.1,-0.5,2,-1.4,2.4,-2.5c7.6,-7.8,14.1,-16.5,19.4,-25.9c0.7,-0.6,1.3,-1.5,1.4,-2.5c8.8,-16.6,13.8,-35.1,13.8,-54.7c0,-0.8,-0.2,-1.5,-0.6,-2.2c0.4,-3.5,0.6,-7.1,0.6,-10.7Z" class="transaction-history-2" />
<path d="M75.9,184.7C70.1,181,64.9,176.8,60.3,172.3c-0.9,-0.9,-2.1,-1.4,-3.2,-1.4c-1.2,0,-2.4,0.5,-3.3,1.4c-1.8,1.8,-1.7,4.7,0,6.5c1.3,1.2,2.5,2.3,3.8,3.5c0.1,0,0.1,0,0.1,0.1c0,0,0.1,0.1,0.1,0.1c0,0,0.1,0,0.1,0l0,0.1c0.1,0,0.1,0.1,0.2,0.1c0,0,0,0.1,0,0.1l0.1,0c0,0,0,0.1,0.1,0.1c0.1,0.1,0.1,0.1,0.2,0.2l0.1,0c0,0,0,0.1,0,0.1c0,0,0.1,0,0.1,0.1c0.1,0,0.1,0,0.1,0c0,0,0,0.1,0,0.1c0.1,0,0.1,0.1,0.2,0.1l0,0.1c0,0,0.1,0,0.1,0c0,0,0.1,0.1,0.1,0.1l0.1,0.1c0.1,0,0.1,0.1,0.1,0.1l0.1,0l0,0.1l0.1,0c0,0,0,0.1,0,0.1c0.1,0,0.1,0,0.1,0c0,0.1,0,0.1,0,0.1c0,0,0.1,0,0.1,0c0,0,0,0.1,0.1,0.1c0,0,0,0.1,0.1,0.1c0,0,0.1,0.1,0.1,0.1l0.1,0l0,0.1c0.1,0,0.1,0.1,0.1,0.1c0.1,0,0.1,0,0.1,0c0,0,0,0.1,0,0.1c0.1,0,0.1,0.1,0.2,0.1c0,0.1,0.1,0.1,0.1,0.1c0,0,0.1,0,0.1,0.1c0,0,0.1,0,0.1,0l0,0.1l0.1,0c0,0,0,0.1,0,0.1l0.1,0c0,0.1,0,0.1,0,0.1l0.1,0l0.1,0.1c0,0,0.1,0,0.1,0c0,0.1,0,0.1,0,0.1c0,0,0.1,0,0.1,0.1l0.1,0c0,0,0,0.1,0,0.1c0.1,0,0.1,0,0.1,0c0,0.1,0,0.1,0,0.1l0.1,0l0,0.1c0.1,0,0.1,0,0.1,0c0,0,0.1,0,0.1,0.1c0,0,0.1,0,0.1,0c0,0.1,0,0.1,0,0.1c0,0,0.1,0,0.1,0l0,0.1c0,0,0.1,0,0.1,0c0,0,0,0.1,0,0.1l0.1,0c0,0.1,0,0.1,0,0.1c0,0,0.1,0,0.1,0l0.1,0c0,0.1,0,0.1,0,0.1c0,0,0.1,0,0.1,0c0,0,0,0.1,0,0.1l0.1,0c0,0.1,0,0.1,0,0.1l0.1,0c0,0.1,0,0.1,0,0.1c0,0,0.1,0,0.1,0c0,0,0.1,0,0.1,0c0,0.1,0,0.1,0,0.1c0,0,0.1,0,0.1,0c0,0.1,0,0.1,0,0.1c0,0,0.1,0,0.1,0l0,0.1l0.1,0c0,0.1,0,0.1,0.1,0.1c0,0,0.1,0,0.1,0.1c0.1,0,0.1,0,0.1,0l0,0.1l0.1,0c0,0.1,0,0.1,0,0.1c0.1,0,0.1,0,0.1,0c0,0.1,0,0.1,0,0.1l0.1,0c0.1,0.1,0.1,0.1,0.2,0.1l0,0.1c0.1,0,0.1,0,0.1,0c0,0.1,0.1,0.1,0.1,0.1l0.1,0.1c0.1,0,0.1,0.1,0.2,0.1c0,0,0,0.1,0,0.1c2,1.4,4,2.8,6.1,4.2c0.8,0.5,1.6,0.7,2.5,0.7c1.5,0,3,-0.8,3.8,-2.1c1.5,-2.2,0.9,-5.1,-1.2,-6.4Z" class="transaction-history-1" />
<path d="M103.1,44.9c-0.6,-2,-2.4,-3.2,-4.3,-3.2c-0.5,0,-1,0.1,-1.5,0.3c0,0,-0.1,0,-0.1,0l-0.1,0c0,0,0,0.1,0,0.1c-0.1,0,-0.1,0,-0.1,0c-0.1,0,-0.1,0,-0.1,0c-0.1,0,0,0,0,0c-0.1,0,-0.1,0,-0.1,0c0,0.1,0,0.1,0,0.1c0,0,-0.1,0,-0.1,0c0,0,-0.1,0,-0.1,0c0,0,-0.1,0,-0.1,0l0,0.1c0,0,-0.1,0,-0.1,0c0,0,-0.1,0,-0.1,0l-0.1,0.1l-0.1,0l-0.1,0l0,0.1c-0.1,0,-0.1,0,-0.1,0l-0.1,0c-0.1,0,-0.1,0,-0.1,0c0,0.1,0,0.1,-0.1,0.1c0,0,-0.1,0,-0.1,0c0,0,-0.1,0,-0.1,0c0,0,0,0.1,0,0.1l-0.1,0c0,0,-0.1,0,-0.1,0l0,0.1c-0.1,0,-0.1,0,-0.1,0l-0.1,0c-0.1,0,-0.1,0,-0.1,0c0,0,0,0.1,0,0.1c-0.1,0,-0.1,0,-0.1,0c-0.1,0,-0.1,0,-0.1,0c0,0,-0.1,0,-0.1,0c0,0.1,0,0.1,0,0.1c0,0,-0.1,0,-0.1,0l-0.1,0c0,0,-0.1,0,-0.1,0c0,0.1,0,0.1,0,0.1c0,0,-0.1,0,-0.1,0l-0.1,0c0,0,0,0.1,0,0.1l-0.1,0l-0.1,0c0,0,-0.1,0,-0.1,0c0,0.1,0,0.1,0,0.1c0,0,-0.1,0,-0.1,0c0,0,-0.1,0,-0.1,0c0,0.1,-0.1,0.1,-0.1,0.1c-0.1,0,-0.1,0,-0.1,0c-0.1,0,-0.1,0,-0.1,0c0,0,0,0.1,0,0.1c-0.1,0,-0.1,0,-0.1,0c0,0,-0.1,0,-0.1,0L93,43.6c0,0,-0.1,0,-0.1,0c0,0,-0.1,0,-0.1,0c0,0,0,0.1,0,0.1c-0.1,0,-0.1,0,-0.2,0c0,0,-0.1,0,-0.1,0c0,0.1,0,0.1,0,0.1c-0.1,0,-0.1,0,-0.1,0c0,0,-0.1,0,-0.1,0c0,0.1,0,0.1,-0.1,0.1c0,0,-0.1,0,-0.2,0.1l-0.1,0c-0.1,0,-0.1,0,-0.1,0l-0.1,0l0,0.1c-0.1,0,-0.1,0,-0.1,0c-5,2,-9.8,4.2,-14.3,6.7c-2.2,1.2,-3,4,-1.8,6.2c0.8,1.5,2.4,2.4,4,2.4c0.7,0,1.5,-0.2,2.2,-0.6c5.8,-3.2,12,-5.9,18.5,-8.1c2.4,-0.9,3.7,-3.5,2.9,-5.8Z" class="transaction-history-1" />
<path d="M65.2,70.1c1.9,-1.6,2.1,-4.5,0.5,-6.4C64.8,62.6,63.5,62.1,62.2,62.1c-1.1,0,-2.1,0.3,-3,1.1C53.5,68,48.5,73.4,44.3,79.2c-1.5,2,-1,4.9,1,6.3c0.8,0.6,1.8,0.9,2.7,0.9c1.4,0,2.8,-0.6,3.7,-1.9C55.5,79.4,60,74.5,65.2,70.1Z" class="transaction-history-1" />
<path d="M34.1,124.6c2.4,0,4.4,-1.9,4.5,-4.4c0.3,-6.3,1.6,-12.6,3.9,-18.6c0.9,-2.4,-0.3,-5,-2.7,-5.9C39.3,95.5,38.7,95.4,38.2,95.4c-1.8,0,-3.6,1.2,-4.3,3c0,0.1,0,0.1,0,0.1l0,0.1c0,0,-0.1,0,-0.1,0c0,0.1,0,0.1,0,0.1c0,0,0,0.1,0,0.1l0,0.1c-0.1,0,-0.1,0,-0.1,0.1c0,0,0,0.1,0,0.1c0,0,0,0.1,0,0.1c-0.1,0,-0.1,0,-0.1,0c0,0,0,0.1,0,0.1c0,0.1,0,0.1,0,0.1l0,0.1c0,0,-0.1,0,-0.1,0l0,0.1c0,0,0,0.1,0,0.1c0,0,0,0.1,0,0.1c-0.1,0,-0.1,0.1,-0.1,0.1c0,0,0,0.1,0,0.1l0,0.1c0,0.1,0,0.1,0,0.1c-0.1,0,-0.1,0,-0.1,0c0,0,0,0.1,0,0.1l0,0.1c0,0,0,0.1,0,0.1c-0.1,0,-0.1,0,-0.1,0c0,0.1,0,0.1,0,0.1c0,0,0,0.1,0,0.1c0,0,0,0.1,0,0.1c0,0,-0.1,0,-0.1,0c0,0,0,0.1,0,0.1c0,0,0,0.1,0,0.1c0,0.1,0,0.1,0,0.1c0,0.1,0,0.1,0,0.1c0,0,-0.1,0,-0.1,0l-0.1,0c0,0,0,0.1,0,0.1c0,0.1,0,0.1,0,0.1c0,0,0,0.1,0,0.1l0,0.1c0,0,-0.1,0,-0.1,0c0,0.1,0,0.1,0,0.1l0,0.1c0,0.1,0,0.1,0,0.1c-0.1,0,-0.1,0,-0.1,0c0,0.1,0,0.1,0,0.1l0,0.1c0,0,0,0.1,0,0.1c-0.1,0,-0.1,0,-0.1,0.1c0,0,0,0.1,0,0.1l0,0.1l0,0.1c0,0,-0.1,0,-0.1,0c0,0,0,0.1,0,0.1l0,0.1c0,0.1,0,0.1,0,0.2l-0.1,0c0,0,0,0.1,0,0.1l0,0.1c0,0,0,0.1,-0.1,0.1c0,0,0,0.1,0,0.1c0,0,0,0.1,0,0.1c0,0,0,0.1,0,0.1c0,0,0,0.1,-0.1,0.1c0,0.1,0,0.1,0,0.2c0,0.1,0,0.1,0,0.1c-0.1,0,-0.1,0.1,-0.1,0.1c0,0.1,0,0.1,0,0.1c0,0,0,0.1,0,0.1c0,0.1,0,0.1,-0.1,0.1c0,0.1,0,0.1,0,0.1c0,0,0,0.1,0,0.1c0,0.1,0,0.1,0,0.2c0,0,-0.1,0,-0.1,0l0,0.1l0,0.1c0,0.1,0,0.1,0,0.1c0,0.1,0,0.1,0,0.1l-0.1,0c0,0.1,0,0.1,0,0.1c0,0.1,0,0.1,0,0.1c0,0,0,0.1,0,0.1l0,0.1c-0.1,0,-0.1,0.1,-0.1,0.1l0,0.1l0,0.1c0,0,0,0.1,0,0.1l-0.1,0.1c0,0.1,0,0.1,0,0.2c0,0.1,0,0.1,0,0.1c0,0.1,0,0.1,0,0.1c-0.1,0,-0.1,0.1,-0.1,0.1l0,0.1c0,0.1,0,0.1,0,0.1c0,0,0,0.1,0,0.1c0,0,0,0.1,-0.1,0.1l0,0.1c0,0,0,0.1,0,0.1c0,0,0,0.1,0,0.1l0,0.1c-0.1,0.1,-0.1,0.1,-0.1,0.2c0,0.1,0,0.1,0,0.1c0,0,0,0.1,0,0.1c0,0,0,0.1,0,0.1l0,0.1l-0.1,0c0,0,0,0.1,0,0.1c0,0,0,0.1,0,0.1c0,0,0,0.1,0,0.1c0,0,0,0.1,0,0.1l0,0.1c0,0,-0.1,0,-0.1,0c0,0.1,0,0.1,0,0.1l0,0.1c0,0,0,0.1,0,0.1l0,0.1l0,0.1c0,0.1,0,0.1,0,0.1l-0.1,0c0,0.1,0,0.1,0,0.1c0,0,0,0.1,0,0.1c0,0,0,0.1,0,0.1l0,0.1c0,0.1,0,0.1,0,0.1c0,0.1,0,0.1,0,0.1l-0.1,0l0,0.1c0,0,0,0.1,0,0.1c0,0,0,0.1,0,0.1l0,0.1c0,0.1,0,0.1,0,0.1c0,0.1,0,0.1,0,0.1l-0.1,0.1l0,0.1l0,0.1l0,0.1c0,0.1,0,0.1,0,0.1c0,0,0,0.1,0,0.1l0,0.1c-0.1,0.1,-0.1,0.1,-0.1,0.1c0,0,0,0.1,0,0.1l0,0.1c0,0.1,0,0.1,0,0.1c0,0.1,0,0.1,0,0.1l0,0.1c0,0.1,-0.1,0.1,-0.1,0.2c0,0.1,0,0.1,0,0.1c0,0.1,0,0.1,0,0.1c0,0,0,0.1,0,0.1l0,0.1c0,0,0,0.1,-0.1,0.2c-0.4,2.4,-0.6,5,-0.7,7.5c-0.2,2.5,1.8,4.7,4.3,4.8c-0.2,-0.1,-0.1,-0.1,0,-0.1Z" class="transaction-history-1" />
<path d="M40.6,139.2c-0.6,-2.1,-2.4,-3.4,-4.4,-3.4c-0.4,0,-0.8,0,-1.2,0.1c-2.4,0.7,-3.9,3.2,-3.3,5.6c1.7,6.4,4.2,12.5,7.5,18.3c0,0,0.1,0.1,0.1,0.1l0,0.1c0,0,0.1,0.1,0.1,0.1c0,0.1,0,0.1,0,0.1l0.1,0.1c0,0.1,0,0.1,0.1,0.1c0,0.1,0,0.1,0,0.1l0,0.1c0,0,0.1,0,0.1,0c0,0,0,0.1,0,0.1c0,0,0,0.1,0,0.1c0.1,0,0.1,0,0.1,0c0,0.1,0,0.1,0,0.1l0,0.1c0.1,0,0.1,0,0.1,0c0,0,0,0.1,0,0.1l0.1,0c0,0.1,0,0.1,0,0.1l0,0.1c0,0,0.1,0,0.1,0c0,0.1,0,0.1,0,0.1c0,0.1,0,0.1,0,0.1c0.1,0,0.1,0.1,0.1,0.1c0.9,1.5,2.4,2.2,4,2.2c0.8,0,1.6,-0.2,2.3,-0.6c2.2,-1.3,2.9,-4.1,1.6,-6.3c-3.4,-5.6,-5.9,-11.6,-7.5,-17.7Z" class="transaction-history-1" />
<path d="M217.6,60.4c-0.8,-0.5,-1.8,-0.8,-2.7,-0.8c-1.3,0,-2.7,0.6,-3.6,1.8c-1.4,2,-1,4.8,1,6.2c5.3,4,10.1,8.4,14.3,13.2c0.8,1,2.1,1.6,3.3,1.6c1.1,0,2.1,-0.4,3,-1.1c1.8,-1.6,2,-4.4,0.4,-6.3C228.8,69.7,223.5,64.8,217.6,60.4Z" class="transaction-history-3" />
<path d="M247.8,129.5c-0.2,0,-0.4,0,-0.7,0c-2.1,0,-4,1.5,-4.4,3.7c-0.9,6.2,-2.8,12.2,-5.6,17.9c-1.1,2.2,-0.2,4.9,2.1,6c0.6,0.3,1.3,0.4,1.9,0.4c1.7,0,3.3,-0.9,4,-2.5c0,0,0.1,0,0.1,0c0,-0.1,0,-0.1,0,-0.2l0.1,0c0,0,0,-0.1,0,-0.1l0,-0.1l0.1,0c0,0,0,-0.1,0,-0.1c0,-0.1,0,-0.1,0,-0.1c0.1,0,0.1,0,0.1,0c0,-0.1,0,-0.1,0,-0.1c0,0,0,-0.1,0,-0.1c0,0,0.1,0,0.1,0c0,0,0,-0.1,0,-0.1c0,-0.1,0,-0.1,0,-0.1c0,0,0.1,-0.1,0.1,-0.1c0,-0.1,0,-0.1,0,-0.1c0.1,-0.1,0.1,-0.1,0.1,-0.2c0,0,0.1,-0.1,0.1,-0.1c2.7,-6,4.7,-12.3,5.7,-18.9c0.3,-2.4,-1.3,-4.7,-3.8,-5.1Z" class="transaction-history-3" />
<path d="M239.2,90.7c-2.2,1.1,-3.2,3.8,-2.1,6c2.8,5.8,4.7,11.8,5.6,17.9c0.4,2.2,2.3,3.8,4.4,3.8c0.3,0,0.5,0,0.7,-0.1c2.5,-0.3,4.1,-2.6,3.8,-5.1c-0.2,-0.8,-0.3,-1.6,-0.5,-2.4c0,-0.1,0,-0.1,0,-0.2c0,-0.1,0,-0.1,0,-0.1c0,0,0,-0.1,0,-0.1c0,0,-0.1,-0.1,-0.1,-0.1c0,-0.1,0,-0.1,0,-0.1c0,0,0,-0.1,0,-0.1c0,0,0,-0.1,0,-0.1l0,-0.1c0,-0.1,-0.1,-0.1,-0.1,-0.1c0,0,0,-0.1,0,-0.1l0,-0.1c0,0,0,-0.1,0,-0.1c0,-0.1,0,-0.1,-0.1,-0.1c0,-0.1,0,-0.1,0,-0.1c0,0,0,-0.1,0,-0.1c-0.9,-4.4,-2.3,-8.6,-4,-12.7c0,-0.1,-0.1,-0.1,-0.1,-0.2c0,-0.1,0,-0.1,0,-0.2c-0.1,0,-0.1,0,-0.1,0c0,-0.1,0,-0.1,0,-0.1l0,-0.1c-0.1,0,-0.1,0,-0.1,0c0,0,0,-0.1,0,-0.1l0,-0.1l-0.1,0l0,-0.1c0,-0.1,0,-0.1,0,-0.1l-0.1,-0.1c0,0,0,-0.1,0,-0.1c0,0,0,-0.1,0,-0.1c-0.1,0,-0.1,0,-0.1,0c0,-0.1,0,-0.1,0,-0.1c0,-0.1,-0.1,-0.1,-0.1,-0.2c0,0,0,-0.1,-0.1,-0.1c-0.3,-0.7,-0.6,-1.4,-0.9,-2c-0.7,-1.6,-2.3,-2.5,-4,-2.5c-0.6,0,-1.3,0.1,-1.9,0.4Z" class="transaction-history-3" />
<path d="M229.9,165.5c-1.2,0,-2.5,0.5,-3.3,1.5c-4.2,4.8,-9,9.2,-14.3,13.2c-2,1.5,-2.5,4.3,-1,6.3c0.9,1.1,2.2,1.8,3.6,1.8c0.9,0,1.9,-0.3,2.7,-0.9c0.2,-0.1,0.3,-0.3,0.5,-0.4c0,0,0.1,-0.1,0.1,-0.1c0.1,0,0.1,-0.1,0.2,-0.1l0,-0.1c0,0,0.1,0,0.1,0c0.1,0,0.1,0,0.1,-0.1c0.1,0,0.1,0,0.1,0c0,-0.1,0,-0.1,0.1,-0.1c0,-0.1,0,-0.1,0,-0.1c0.1,0,0.1,0,0.1,0l0.1,0c0,-0.1,0,-0.1,0,-0.1l0.1,0c0,0,0,-0.1,0,-0.1c0,0,0.1,0,0.1,0c0,-0.1,0,-0.1,0,-0.1l0.1,0c0.1,0,0.1,-0.1,0.1,-0.1c0,0,0.1,0,0.1,0c0,0,0,-0.1,0,-0.1l0.1,0c0,0,0,-0.1,0.1,-0.1c5.1,-4,9.7,-8.3,13.7,-13c1.6,-1.8,1.4,-4.6,-0.5,-6.3c-0.9,-0.7,-1.9,-1,-3,-1Z" class="transaction-history-1" />
<path d="M199.2,49.5c-0.1,0,-0.1,-0.1,-0.1,-0.1c-0.1,0,-0.1,0,-0.1,0c0,0,-0.1,0,-0.1,0l0,-0.1l-0.1,0c0,0,-0.1,0,-0.1,0c0,0,0,-0.1,0,-0.1c0,0,-0.1,0,-0.1,0l-0.1,0c0,0,-0.1,-0.1,-0.2,-0.1c0,0,-0.1,-0.1,-0.1,-0.1l-0.1,0C198,49,198,49,198,49c0,0,0,-0.1,0,-0.1c0,0,-0.1,0,-0.1,0c-0.1,0,-0.1,0,-0.1,0c0,-0.1,0,-0.1,0,-0.1c-0.1,0,-0.1,0,-0.1,0c0,0,-0.1,0,-0.1,0c0,-0.1,0,-0.1,0,-0.1l-0.1,0c0,0,-0.1,0,-0.1,0l0,-0.1c-0.1,0,-0.1,0,-0.1,0c-0.1,0,-0.1,0,-0.1,0c0,0,-0.1,0,-0.1,-0.1c-0.2,0,-0.3,-0.1,-0.4,-0.1c0,-0.1,0,-0.1,0,-0.1c0,0,-0.1,0,-0.1,0c-0.1,0,-0.1,0,-0.1,0c0,-0.1,0,-0.1,0,-0.1l-0.1,0c0,0,-0.1,0,-0.1,0C196.2,48.1,196.1,48.1,196,48l-0.1,0c0,0,-0.1,0,-0.1,0c0,-0.1,0,-0.1,0,-0.1c-0.1,0,-0.1,0,-0.1,0l-0.1,0c-0.1,-0.1,-0.2,-0.1,-0.3,-0.2c-0.1,0,-0.1,0,-0.1,0l-0.1,0l0,-0.1c-0.1,0,-0.1,0,-0.1,0C189.9,45.4,184.5,43.5,179,42c-0.4,-0.1,-0.8,-0.1,-1.2,-0.1c-2,0,-3.8,1.3,-4.3,3.3c-0.7,2.3,0.7,4.8,3.1,5.5c6.5,1.7,12.8,4,18.7,6.8c0.6,0.3,1.2,0.5,1.9,0.5c1.7,0,3.3,-1,4,-2.6c1.1,-2.2,0.2,-4.9,-2,-5.9Z" class="transaction-history-3" />
<path d="M200.2,148.4c0,-2.2,-1.5,-3.9,-3.6,-4.4l-3.2,-1.3L144.3,124.8l0,-79.7c0,-2.6,-2.1,-4.6,-4.6,-4.6c-2.6,0,-4.6,2,-4.6,4.6l0,84.3c0,2.5,2,4.5,4.6,4.5c0.1,0,0.1,0,0.2,0l52.4,17.7l4.3,1.2c2.1,-0.5,3.6,-2.2,3.6,-4.4Z" class="transaction-history-3" />
<path d="M200.2,148.4c0,-2.2,-1.5,-3.9,-3.6,-4.4l-3.2,-1.3L144.3,124.8l0,-79.7c0,-2.6,-2.1,-4.6,-4.6,-4.6c-2.6,0,-4.6,2,-4.6,4.6l0,84.3c0,2.5,2,4.5,4.6,4.5c0.1,0,0.1,0,0.2,0l52.4,17.7l4.3,1.2c2.1,-0.5,3.6,-2.2,3.6,-4.4Z" class="transaction-history-4" />

</svg>
