<svg xmlns="http://www.w3.org/2000/svg" width="66" height="66" viewBox="0 0 66 66"><g transform="translate(462 -7795)"><path d="M64.471,63.435H6.341a.969.969,0,0,1-.8-1.512Q20.051,36.782,34.569,11.64a.965.965,0,0,1,1.7.053Q50.792,36.842,65.307,61.986a.966.966,0,0,1-.836,1.446ZM22.55,38.265,35.407,60.533,48.264,38.265Zm25.715-1.937L35.407,14.056,22.55,36.327ZM33.73,61.5,20.873,39.229,8.018,61.5Zm29.066,0L49.939,39.226,37.082,61.5Z" transform="translate(-464.871 7791.343)" fill-rule="evenodd"/><path d="M0,0H66V66H0Z" transform="translate(-462 7795)" fill="none"/></g></svg>