<svg xmlns="http://www.w3.org/2000/svg" width="66" height="66" viewBox="0 0 66 66"><g transform="translate(1024 -7795)"><path d="M6.028,59.211A.971.971,0,0,1,5.5,57.817L34.679,5.868a.972.972,0,0,1,1.7.005l29.253,52.1a.973.973,0,0,1-.6,1.235L46.032,65.68H25.022ZM48.407,50.9,39.244,21.52,44.533,50.9ZM39.2,14.877,50.522,51.161,62.46,56.273ZM20.532,51.161,31.85,14.877,8.591,56.274ZM31.81,21.52,22.646,50.9h3.875ZM44.884,52.847l1.9,10.573,15.224-5.231L49.537,52.847Zm-.011,10.888L42.915,52.847H28.142L26.183,63.735ZM42.563,50.9,35.527,11.814,28.493,50.9ZM24.27,63.421l1.9-10.573H21.519L9.045,58.19Z" transform="translate(-1026.871 7792.127)" fill-rule="evenodd"/><path d="M0,0H66V66H0Z" transform="translate(-1024 7795)" fill="none"/></g></svg>