<?xml version="1.0" encoding="utf-8"?>
<!-- Generator: Adobe Illustrator 24.1.3, SVG Export Plug-In . SVG Version: 6.00 Build 0)  -->
<svg version="1.2" baseProfile="tiny" id="Layer_1" xmlns="http://www.w3.org/2000/svg" xmlns:xlink="http://www.w3.org/1999/xlink"
	 x="0px" y="0px" viewBox="0 0 77.5 71.5" overflow="visible" xml:space="preserve">
	<style type="text/css">
		.trx-icon{fill:#a22d25;}
	</style>
<g>
	<g>
		<g transform="matrix(0.26458333,0,0,0.26458333,-33.403463,56.772625)">
			<path d="M271.9-199.5c-66.2,0-120,53.8-120,120s53.8,120,120,120s120-53.8,120-120S338.1-199.5,271.9-199.5z
				 M271.9-187.5c59.7,0,108,48.3,108,108s-48.3,108-108,108s-108-48.3-108-108S212.2-187.5,271.9-187.5z" class="trx-icon"/>
		</g>
	</g>
</g>
<path d="M60.6,27.9c-1.9-1.3-3.9-2.7-5.8-4.1c0,0-0.1-0.1-0.1-0.1c-0.2-0.2-0.5-0.3-0.8-0.4l0,0
	c-5.2-1.3-10.5-2.5-15.6-3.8c-4.6-1.1-9.3-2.3-13.9-3.4c-0.1,0-0.2-0.1-0.4-0.1c-0.4-0.1-0.9-0.2-1.4-0.2c-0.2,0-0.3,0.1-0.4,0.2
	L22,16.1c-0.2,0.2-0.3,0.4-0.4,0.6l0,0.1v0.5l0,0.1c2.9,8.2,5.9,16.6,8.9,24.7c2.2,6.2,4.6,12.7,6.8,19c0.1,0.4,0.5,0.7,1,0.8h0.1
	c0.5,0,0.9-0.2,1.1-0.6L48,48.7c2.1-3,4.2-6.1,6.2-9.1c0.8-1.2,1.7-2.5,2.5-3.7c1.4-2,2.8-4.2,4.3-6.2l0.1-0.1v-0.1
	C61.2,29.1,61.2,28.3,60.6,27.9 M50.6,32.4c-2,1-4,2.1-6.1,3.2c1.2-1.3,2.4-2.6,3.6-3.9c1.5-1.6,3.1-3.3,4.6-4.9l0,0
	c0.1-0.2,0.3-0.3,0.5-0.5c0.1-0.1,0.2-0.2,0.4-0.4c0.8,0.5,1.6,1.1,2.4,1.7c0.6,0.4,1.1,0.8,1.7,1.2C55.2,30,52.9,31.2,50.6,32.4
	 M45.4,31.9c-1.5,1.7-3.1,3.4-4.7,5.1c-3.1-3.7-6.2-7.5-9.2-11.1c-1.4-1.7-2.8-3.3-4.1-5l0,0c-0.3-0.4-0.6-0.7-0.9-1.1
	c-0.2-0.2-0.4-0.5-0.6-0.7c1.2,0.3,2.5,0.6,3.7,0.9c1.1,0.3,2.2,0.5,3.3,0.8c6.2,1.5,12.5,3,18.7,4.5C49.5,27.5,47.4,29.7,45.4,31.9
	 M40,52.9c0.1-1.1,0.2-2.3,0.4-3.4c0.1-0.9,0.2-1.9,0.3-2.7c0.2-1.4,0.3-2.9,0.4-4.4l0-0.3c0.1-0.9,0.2-1.9,0.3-2.8
	c0.1-0.1,0.2-0.1,0.4-0.2c0.2-0.1,0.3-0.1,0.5-0.2c2.5-1.3,5-2.6,7.5-3.9c2.5-1.3,5-2.6,7.6-3.9c-2.3,3.3-4.6,6.7-6.9,10
	c-1.9,2.8-3.9,5.7-5.9,8.6c-0.8,1.1-1.6,2.3-2.3,3.4c-0.9,1.2-1.7,2.5-2.6,3.8C39.7,55.4,39.9,54.1,40,52.9 M25,21.5
	c-0.1-0.4-0.3-0.8-0.4-1.2c2.9,3.5,5.8,7,8.7,10.5c1.5,1.8,2.9,3.5,4.4,5.3c0.3,0.3,0.6,0.7,0.9,1c0.4,0.4,0.7,0.9,1.1,1.3
	c-0.1,1.1-0.2,2.2-0.4,3.3c-0.1,0.8-0.2,1.5-0.2,2.3v0c0,0.5-0.1,1-0.2,1.4c-0.1,0.7-0.2,2.1-0.2,2.1l0,0.1
	c-0.2,2.2-0.4,4.4-0.7,6.5c-0.1,0.9-0.2,1.8-0.3,2.7c-0.1-0.2-0.1-0.3-0.2-0.5c-0.2-0.4-0.3-0.9-0.5-1.3L36,52
	C32.3,41.8,28.7,31.7,25,21.5" class="trx-icon"/>
</svg>
