<?xml version="1.0" encoding="utf-8"?>
<!-- Generator: Adobe Illustrator 24.1.3, SVG Export Plug-In . SVG Version: 6.00 Build 0)  -->
<svg version="1.2" baseProfile="tiny" id="Layer_1" xmlns="http://www.w3.org/2000/svg" xmlns:xlink="http://www.w3.org/1999/xlink"
	 x="0px" y="0px" viewBox="0 0 77.5 71.5" overflow="visible" xml:space="preserve">
	<style type="text/css">
		.tusd-icon{fill:#002868;}
	</style>
<g>
	<g>
		<g transform="matrix(0.26458333,0,0,0.26458333,-33.403463,56.772625)">
			<path d="M271.9-199.5c-66.2,0-120,53.8-120,120s53.8,120,120,120s120-53.8,120-120S338.1-199.5,271.9-199.5z
				 M271.9-187.5c59.7,0,108,48.3,108,108s-48.3,108-108,108s-108-48.3-108-108S212.2-187.5,271.9-187.5z" class="tusd-icon"/>
		</g>
	</g>
</g>
<g>
	<polygon points="46.7,21.1 40.2,21.1 38.5,21.1 30.3,21.1 30.3,24.6 36.8,24.6 36.8,36.1 40.2,36.1 40.2,24.6 
		46.7,24.6 	" class="tusd-icon"/>
</g>
<g>
	<path d="M26.7,49.7h-2.4v-7h-2.2v-2h6.8v2h-2.2V49.7z" class="tusd-icon"/>
	<path d="M37.8,40.7v5.4c0,1.2-0.3,2.1-1,2.7s-1.6,1-2.9,1c-1.2,0-2.2-0.3-2.8-0.9c-0.7-0.6-1-1.5-1-2.7v-5.5h2.4V46
		c0,0.6,0.1,1.1,0.4,1.4c0.2,0.3,0.6,0.4,1.1,0.4c0.5,0,0.9-0.1,1.1-0.4c0.2-0.3,0.3-0.8,0.3-1.4v-5.3H37.8z"  class="tusd-icon"/>
	<path d="M45.6,47c0,0.6-0.1,1.1-0.4,1.5c-0.3,0.4-0.7,0.8-1.2,1c-0.5,0.2-1.2,0.4-1.9,0.4c-0.6,0-1.1,0-1.5-0.1
		s-0.8-0.2-1.3-0.4v-2.2c0.5,0.2,0.9,0.4,1.4,0.6c0.5,0.1,1,0.2,1.4,0.2c0.4,0,0.6-0.1,0.8-0.2c0.2-0.1,0.3-0.3,0.3-0.5
		c0-0.1,0-0.2-0.1-0.3c-0.1-0.1-0.2-0.2-0.3-0.3c-0.1-0.1-0.5-0.3-1.2-0.6c-0.6-0.3-1-0.5-1.3-0.8c-0.3-0.3-0.5-0.5-0.7-0.9
		c-0.1-0.3-0.2-0.7-0.2-1.1c0-0.8,0.3-1.5,0.9-1.9c0.6-0.5,1.4-0.7,2.5-0.7c0.9,0,1.9,0.2,2.8,0.6l-0.7,1.9
		c-0.8-0.4-1.6-0.6-2.2-0.6c-0.3,0-0.5,0.1-0.7,0.2c-0.1,0.1-0.2,0.2-0.2,0.4c0,0.2,0.1,0.3,0.3,0.5c0.2,0.1,0.7,0.4,1.5,0.8
		c0.8,0.3,1.3,0.7,1.6,1.1C45.4,45.9,45.6,46.4,45.6,47z"  class="tusd-icon"/>
	<path d="M54.6,45c0,1.5-0.4,2.7-1.2,3.5c-0.8,0.8-2,1.2-3.5,1.2H47v-9h3.1c1.4,0,2.6,0.4,3.3,1.1
		C54.2,42.6,54.6,43.6,54.6,45z M52.1,45.1c0-0.8-0.2-1.4-0.5-1.8s-0.8-0.6-1.5-0.6h-0.7v5h0.5c0.7,0,1.3-0.2,1.6-0.6
		C51.9,46.6,52.1,46,52.1,45.1z" class="tusd-icon"/>
</g>
</svg>
