<?xml version="1.0" encoding="utf-8"?>
<!-- Generator: Adobe Illustrator 24.3.0, SVG Export Plug-In . SVG Version: 6.00 Build 0)  -->
<svg version="1.2" baseProfile="tiny" id="Layer_1" xmlns="http://www.w3.org/2000/svg" xmlns:xlink="http://www.w3.org/1999/xlink"
	 x="0px" y="0px" viewBox="0 0 60 60" overflow="visible" xml:space="preserve">
<g>
	<g id="Group_2692" transform="translate(-1124.139 -287)">
		<path id="Path_7167" fill="#FFFFFF" d="M1170.1,336.6h-42.2c-0.4,0-0.7-0.3-0.7-0.7v-26.6l14.3,11l-8.4,9.7l0.2,0.3l9.9-8.7l0,0
			l5.8,4.4l5.7-4.4l9.8,8.7l0.2-0.3l-8.4-9.7l14.4-11v26.6C1170.8,336.2,1170.5,336.6,1170.1,336.6 M1170.1,307.9L1170.1,307.9
			l-21.1,16.2l-21.1-16.2H1170.1z M1170.1,306.5h-42.2c-1.2,0-2.2,1-2.2,2.2v27.2c0,1.2,1,2.2,2.2,2.2h42.2c1.2,0,2.2-1,2.2-2.2
			v-27.2C1172.2,307.5,1171.3,306.5,1170.1,306.5L1170.1,306.5z"/>
	</g>
</g>
<g id="Component_30_2" transform="translate(32.905)">
	<circle id="Ellipse_110_1_" fill="#288500" cx="13.7" cy="21" r="12"/>
	<polygon fill="#FFFFFF" points="13.5,27.8 8,23.6 9.5,21.6 12.7,24.1 17.9,15.2 20.1,16.4 	"/>
</g>
</svg>
