<?xml version="1.0" encoding="utf-8"?>
<!-- Generator: Adobe Illustrator 24.3.0, SVG Export Plug-In . SVG Version: 6.00 Build 0)  -->
<svg version="1.2" baseProfile="tiny" id="Layer_1" xmlns="http://www.w3.org/2000/svg" xmlns:xlink="http://www.w3.org/1999/xlink"
	 x="0px" y="0px" viewBox="0 0 50 50" overflow="visible" xml:space="preserve">
<path id="Path_7168" fill="#FFFFFF" d="M40.9,35.8H9.1c-0.3,0-0.5-0.2-0.5-0.5v-20l10.8,8.2l-6.3,7.3l0.2,0.2l7.4-6.5l0,0l4.3,3.3
	l4.3-3.3l7.4,6.5l0.2-0.2l-6.3-7.3l10.8-8.2v20C41.4,35.5,41.2,35.8,40.9,35.8 M40.9,14.2C40.9,14.2,40.9,14.2,40.9,14.2L25,26.4
	L9.1,14.2H40.9z M40.9,13.2H9.1c-0.9,0-1.6,0.7-1.6,1.6v20.4c0,0.9,0.7,1.6,1.6,1.6h31.7c0.9,0,1.6-0.7,1.6-1.6V14.8
	C42.5,13.9,41.8,13.2,40.9,13.2L40.9,13.2z"/>
</svg>
