<?xml version="1.0" encoding="utf-8"?>
<!-- Generator: Adobe Illustrator 24.3.0, SVG Export Plug-In . SVG Version: 6.00 Build 0)  -->
<svg version="1.2" baseProfile="tiny" id="Layer_1" xmlns="http://www.w3.org/2000/svg" xmlns:xlink="http://www.w3.org/1999/xlink"
	 x="0px" y="0px" viewBox="0 0 100 100" overflow="visible" xml:space="preserve">
<circle id="Ellipse_650" fill="#01259E" cx="21" cy="51.5" r="19.5"/>
<g id="Group_3479" transform="translate(-379 -439.347)">
	<g id="Group_3478" transform="translate(392.279 439.347)">
		<path id="Path_4263" fill="#FFFFFF" d="M42.8,71.3l0.1-23.2c0-10,8.2-18.1,18.2-18.1c4.8,0,9.4,1.9,12.8,5.3
			c3.5,3.5,5.4,8.3,5.3,13.2L79,71.6c0,1.3-0.2,1,1,1.6c0.4,0.2,0.9,0.5,1.3,0.8c2.6,1.5,5,5,1.9,7.3c-4.7,3.5-39.9,3.7-44.5-0.1
			c-2.1-1.7-1.2-4.8,0.5-6.5c0.7-0.7,1.6-1.3,2.5-1.7C43,72.4,42.8,72.8,42.8,71.3L42.8,71.3z M9.4,51h5.4c0.6,0,0.5,1.9,0,1.9H9.4
			v5.3c0,0.7-2,0.7-2.1,0v-5.3H2.1c-0.8,0-0.8-1.9,0-1.9h5.2v-5.4c0-0.6,2.1-0.5,2.1,0V51z M24.2,53.2c-0.7-1.6-1.3-3.2-1.8-4.9
			c-0.4-1.4,0-1.3-1-2.5c-1.6-1.9-2.7-6.5-1.4-8.7c0.6-1.1,0.7-0.5,0.4-1.7c-0.9-4.5-0.3-9.2,2.8-12.9c5.5-6.4,16.4-6.7,23-2
			c2.9,2.1,5.1,5.2,6.2,8.6c0.1,0.4-0.1,0.9-0.5,1c-0.4,0.1-0.9-0.1-1-0.5c-1-3.1-3-5.9-5.6-7.8c-5.9-4.2-15.8-4.1-20.7,1.7
			c-2.8,3.3-3.3,7.7-2.4,11.8c0.3,1.2,0.4,0.9-0.3,1.9c-1.4,2-0.7,5.7,0.8,7.5c1.2,1.4,0.9,1.5,1.3,3.1c0.4,1.5,1,3,1.6,4.4
			c0.9,2.1,1.7,3.7,3.9,5c1.5,0.9,3.3,1.4,5.1,1.3c0.5,0,0.8,0.4,0.8,0.8c0,0.4-0.3,0.8-0.8,0.8c-2.1,0.1-4.2-0.5-6-1.5
			c-2-1.2-1-1.2-1.6,0.4c-0.6,1.5-2.1,1.8-4.2,2.2c-2.8,0.6-7,1.7-9.1,3.3c-2.9,2.2-3.4,5.3,0.9,6.2c7.3,1.4,14.7,2,22.1,1.9
			c0.5,0,0.8,0.4,0.8,0.8c0,0.5-0.4,0.8-0.8,0.8c-7.5,0.1-15-0.5-22.4-1.9c-5.7-1.1-5.7-6.1-1.6-9.1c2.6-1.9,6.6-2.9,9.8-3.5
			c2.9-0.6,3.8-1.4,2.6-4.3C24.8,54.6,24.4,53.7,24.2,53.2L24.2,53.2z M51.7,67.5c-3.4-5-4.6-11.1-4.8-17c0-0.5,0.4-0.8,0.8-0.8
			c0.4,0,0.8,0.3,0.8,0.8c0.3,6.1,1.4,12,5.1,17c0.8,0.8,1.7,1.4,2.7,1.8c1.1,0.4,2.3,0.6,3.4,0.6c0.5,0,0.8,0.4,0.8,0.8
			c0,0.4-0.3,0.8-0.8,0.8c-1.4,0-2.8-0.2-4.1-0.7c-1.5-0.6-1.5-1.2-2.4-0.4c-1.5,1.3-5.1,2.3-7.5,3c-2,0.4-3.9,1.3-5.5,2.6
			c-1,0.9-1.9,3-0.6,4c4.1,3.3,38.6,2.9,42.5,0c2.1-1.5-0.6-3.8-1.8-4.6c-1.4-0.9-2.9-1.5-4.4-2c-1.6-0.5-3.9-1-5.5-1.6
			c-2.9-1.2-2.4-2.9-1.1-5.1c4-7,4.9-9.9,4.5-18.2c0-0.5,0.4-0.8,0.8-0.8c0.4,0,0.8,0.3,0.8,0.8c0.4,8.6-0.5,11.8-4.7,19.1
			c-0.6,1.1-1.3,2.1,0.3,2.7c1.5,0.6,3.5,1,5,1.4c1.4,0.4,1.2,0.7,1.2-0.7l0.1-22.5c0.2-9.1-7-16.6-16.1-16.8
			c-9.1-0.2-16.6,7-16.8,16.1c0,0.1,0,0.2,0,0.3l-0.1,22.9c0,1.2-0.2,1.1,1,0.8c2.1-0.5,4.2-1.2,6.1-2.1
			C53.1,68.7,52.5,68.6,51.7,67.5L51.7,67.5z M47.1,32.9c0.5,0,0.9,0.3,0.9,0.8s-0.3,0.9-0.8,0.9c-3.6,0.3-7.9-1.4-9.6-4.8
			c-0.4-0.9-0.2-0.8-1.3-0.3c-0.4,0.2-0.8,0.4-1.3,0.7c-2.7,1.4-5.9,3.1-11.4,2.4c-0.5-0.1-0.8-0.5-0.7-0.9c0.1-0.5,0.5-0.8,0.9-0.7
			l0,0c4.9,0.6,7.9-0.9,10.4-2.2c1.9-1,3.5-1.8,5.5-1.8c0.5,0,0.8,0.4,0.8,0.9c0,0.4-0.4,0.8-0.8,0.8c-1,0-0.9,0.1-0.4,0.9
			C40.9,31.9,44.3,33.1,47.1,32.9z M63,44.8c2.3,2.1,5.4,3.1,8.4,2.8c0.5,0,0.8,0.4,0.9,0.8c0,0.4-0.3,0.8-0.8,0.8
			c-3.5,0.3-7-0.9-9.6-3.2c-1.3-1.3-0.5-1.2-2.1-0.2c-3.5,2.2-8.3,2.8-12.2,2.7c-0.5,0-0.8-0.4-0.8-0.8s0.4-0.8,0.8-0.8
			c4.9,0.1,12.7-1,14.5-6.4c0.2-0.4,0.6-0.6,1.1-0.5c0.4,0.2,0.6,0.6,0.5,1c-0.2,0.7-0.6,1.3-0.9,1.9C62.1,44,61.9,43.7,63,44.8z"/>
	</g>
</g>
</svg>
