<?xml version="1.0" encoding="utf-8"?>
<!-- Generator: Adobe Illustrator 24.3.0, SVG Export Plug-In . SVG Version: 6.00 Build 0)  -->
<svg version="1.2" baseProfile="tiny" id="Layer_1" xmlns="http://www.w3.org/2000/svg" xmlns:xlink="http://www.w3.org/1999/xlink"
	 x="0px" y="0px" viewBox="0 0 40 40" overflow="visible" xml:space="preserve">
<g>
	<path fill="#ffffff" d="M31.1,25.4c0.2-0.2,0.3-0.5,0.3-0.8c0-0.3-0.1-0.6-0.3-0.8s-0.5-0.3-0.8-0.3c-0.3,0-0.6,0.1-0.8,0.3
		c-0.2,0.2-0.3,0.5-0.3,0.8c0,0.3,0.1,0.6,0.3,0.8c0.2,0.2,0.5,0.3,0.8,0.3C30.6,25.7,30.9,25.6,31.1,25.4z"/>
	<polygon fill="#ffffff" points="31.2,27.7 26.5,27.7 26.5,29.3 29.4,29.3 29.4,36.8 26.5,36.8 26.5,38.4 34.2,38.4 34.2,36.8 31.2,36.8 	"/>
	<path fill="#ffffff" d="M21.5,1.6L21.5,1.6C21.5,1.6,21.5,1.6,21.5,1.6c-2.1,0-4.2,0.5-6.1,1.4c-4.9,2.3-8.2,7.4-8.2,12.8v1.9l-2.5,4.7
		c-0.5,0.8-0.6,1.9-0.1,2.8c0.6,0.8,1.5,1.3,2.5,1.2h0.1v3.7c0,2.1,1.7,3.9,3.9,3.9l2.6-0.4v2.6c0,0.6,0.5,1.1,1.1,1.1c0,0,0,0,0,0
		h6c0.6,0,1.1-0.5,1.1-1.1c0-0.6-0.5-1.1-1.1-1.1H16v-2.7c0-0.3-0.1-0.6-0.4-0.9c-0.2-0.2-0.6-0.3-0.9-0.3L11,31.7
		c-0.9,0-1.6-0.7-1.6-1.6v-4.8c0-0.6-0.5-1.1-1.1-1.1H7.1c-0.4,0-0.5-0.1-0.5-0.1c-0.1-0.2,0-0.4,0.1-0.6l2.7-5.1
		c0.1-0.2,0.1-0.3,0.1-0.5v-2.2c0-4.6,2.7-8.8,6.9-10.8c1.6-0.7,3.3-1.1,5.1-1.1c6.5,0,11.9,5.3,11.9,11.9c0,1.2-0.2,2.4-0.6,3.6
		c-0.1,0.3-0.1,0.6,0.1,0.9c0.1,0.3,0.4,0.5,0.7,0.5c0.3,0.1,0.6,0.1,0.9-0.1c0.3-0.1,0.5-0.4,0.5-0.7c0.5-1.4,0.7-2.8,0.7-4.3
		C35.6,8,29.3,1.6,21.5,1.6z"/>
</g>
</svg>
