<?xml version="1.0" encoding="utf-8"?>
<!-- Generator: Adobe Illustrator 23.0.0, SVG Export Plug-In . SVG Version: 6.00 Build 0)  -->
<svg version="1.2" baseProfile="tiny" id="Layer_1" xmlns="http://www.w3.org/2000/svg" xmlns:xlink="http://www.w3.org/1999/xlink"
	 x="0px" y="0px" viewBox="0 0 85 85" xml:space="preserve">
<style type="text/css">
	.verification-phone{fill:#BBBDBF;}
</style>
<path class="verification-phone" d="M59.1,12.85H28.19c-1.51,0-2.74,1.23-2.74,2.74v0v54.59c0,1.51,1.23,2.74,2.74,2.74H59.1
	c1.51,0,2.73-1.22,2.74-2.73V15.58C61.84,14.07,60.61,12.85,59.1,12.85z M39,16.16c0-0.14,0.11-0.26,0.26-0.26l0,0h8.79
	c0.14,0,0.26,0.11,0.26,0.26l0,0v0.34c0,0.14-0.11,0.26-0.26,0.26l0,0h-8.8c-0.14,0-0.26-0.11-0.26-0.26l0,0L39,16.16z M47.61,70.35
	H38.2c-0.7,0-1.27-0.57-1.27-1.27c0-0.7,0.57-1.27,1.27-1.27h9.41c0.7,0,1.27,0.57,1.27,1.27C48.88,69.78,48.31,70.35,47.61,70.35z
	 M59.3,66.12H28V19.62h31.29L59.3,66.12z"/>
</svg>
