<?xml version="1.0" encoding="utf-8"?>
<!-- Generator: Adobe Illustrator 23.0.0, SVG Export Plug-In . SVG Version: 6.00 Build 0)  -->
<svg version="1.2" baseProfile="tiny" id="Layer_1" xmlns="http://www.w3.org/2000/svg" xmlns:xlink="http://www.w3.org/1999/xlink"
	 x="0px" y="0px" viewBox="0 0 85 85" xml:space="preserve">
<style type="text/css">
	.verification-id{fill:#BBBDBF;}
</style>
<g>
	<path class="verification-id" d="M66.35,24.76H50.13V21.1c0-3.86-3.14-6.93-6.93-6.93c-3.79,0-6.93,3.07-6.93,6.93v3.66H20.03
		c-4.38,0-7.92,3.53-7.92,7.92v25.45c0,4.38,3.53,7.92,7.92,7.92h46.31c4.38,0,7.92-3.53,7.92-7.92V32.68
		C74.26,28.29,70.73,24.76,66.35,24.76z M39.4,21.1c0-2.09,1.7-3.79,3.79-3.79c2.09,0,3.79,1.7,3.79,3.79v3.66H39.4V21.1z
		 M71.12,58.12c0,2.62-2.16,4.78-4.78,4.78H20.03c-2.62,0-4.78-2.16-4.78-4.78V32.68c0-2.62,2.16-4.78,4.78-4.78h46.31
		c2.62,0,4.78,2.16,4.78,4.78V58.12z"/>
	<path class="verification-id" d="M63.86,34.31H46.72c-0.85,0-1.57,0.72-1.57,1.57s0.72,1.57,1.57,1.57H63.8c0.85,0,1.57-0.72,1.57-1.57
		C65.43,34.97,64.71,34.31,63.86,34.31z"/>
	<path class="verification-id" d="M63.86,43.8H46.72c-0.85,0-1.57,0.72-1.57,1.57c0,0.85,0.72,1.57,1.57,1.57H63.8
		c0.85,0,1.57-0.72,1.57-1.57C65.43,44.52,64.71,43.8,63.86,43.8z"/>
	<path class="verification-id" d="M63.86,53.35H46.72c-0.85,0-1.57,0.72-1.57,1.57c0,0.85,0.72,1.57,1.57,1.57H63.8
		c0.85,0,1.57-0.72,1.57-1.57C65.43,54.07,64.71,53.35,63.86,53.35z"/>
	<path class="verification-id" d="M34.69,43.99c1.18-1.18,1.9-2.75,1.9-4.51c0-3.53-2.88-6.41-6.41-6.41s-6.41,2.88-6.41,6.41
		c0,1.77,0.72,3.4,1.9,4.51c-2.94,1.77-4.97,5.23-4.97,9.16c0,1.05,0.46,2.94,3.47,4.19c1.64,0.65,3.79,1.05,6.08,1.05
		c4.78,0,9.55-1.64,9.55-5.23C39.66,49.23,37.63,45.76,34.69,43.99z M26.9,39.48c0-1.83,1.44-3.27,3.27-3.27
		c1.83,0,3.27,1.44,3.27,3.27s-1.44,3.27-3.27,3.27C28.34,42.75,26.9,41.31,26.9,39.48z M30.17,55.25c-3.92,0-6.35-1.24-6.35-2.09
		c0-3.99,2.88-7.26,6.35-7.26c3.53,0,6.35,3.27,6.35,7.26C36.52,54.07,34.1,55.25,30.17,55.25z"/>
</g>
</svg>
