<?xml version="1.0" encoding="utf-8"?>
<!-- Generator: Adobe Illustrator 23.0.0, SVG Export Plug-In . SVG Version: 6.00 Build 0)  -->
<svg version="1.2" baseProfile="tiny" id="Layer_1" xmlns="http://www.w3.org/2000/svg" xmlns:xlink="http://www.w3.org/1999/xlink"
	 x="0px" y="0px" viewBox="0 0 85 85" xml:space="preserve">
<style type="text/css">
	.verification-document{fill:#BBBDBF;}
</style>
<path class="verification-document" d="M66.9,26.64L55.18,13.43c-0.32-0.36-0.79-0.57-1.27-0.57H21.79c-0.94,0-1.7,0.76-1.7,1.7v56.67
	c0,0.94,0.76,1.7,1.7,1.7h43.84c0.94,0,1.7-0.76,1.7-1.7V27.77C67.33,27.35,67.18,26.95,66.9,26.64z M55.58,19l6.35,7.15h-6.35V19z
	 M63.93,69.53H23.49V16.25h28.69v11.6c0,0.94,0.76,1.7,1.7,1.7h10.05V69.53z M29.58,44.53c0,0.94,0.76,1.7,1.7,1.7h24.87
	c0.94,0,1.7-0.76,1.7-1.7c0-0.94-0.76-1.7-1.7-1.7H31.27C30.34,42.83,29.58,43.59,29.58,44.53z M56.14,51.34H31.27
	c-0.94,0-1.7,0.76-1.7,1.7c0,0.94,0.76,1.7,1.7,1.7h24.87c0.94,0,1.7-0.76,1.7-1.7C57.84,52.1,57.08,51.34,56.14,51.34z
	 M56.14,59.84H31.27c-0.94,0-1.7,0.76-1.7,1.7c0,0.94,0.76,1.7,1.7,1.7h24.87c0.94,0,1.7-0.76,1.7-1.7
	C57.84,60.6,57.08,59.84,56.14,59.84z M43.71,36.48c3.47,0,6.29-2.82,6.29-6.29s-2.82-6.29-6.29-6.29c-3.47,0-6.29,2.82-6.29,6.29
	S40.24,36.48,43.71,36.48z M43.71,27.31c1.59,0,2.89,1.3,2.89,2.89c0,1.59-1.3,2.89-2.89,2.89s-2.89-1.3-2.89-2.89
	C40.82,28.6,42.12,27.31,43.71,27.31z"/>
</svg>
