<?xml version="1.0" encoding="utf-8"?>
<!-- Generator: Adobe Illustrator 23.0.0, SVG Export Plug-In . SVG Version: 6.00 Build 0)  -->
<svg version="1.1" id="Layer_1" xmlns="http://www.w3.org/2000/svg" xmlns:xlink="http://www.w3.org/1999/xlink" x="0px" y="0px"
	 viewBox="0 0 48.86 48.86" style="enable-background:new 0 0 48.86 48.86;" xml:space="preserve">
<style type="text/css">
	.verification-doc{fill:#454162;}
</style>
<path class="verification-doc" d="M41.89,12.18l-8.65-9.75C33,2.16,32.66,2.01,32.3,2.01H8.6c-0.69,0-1.25,0.56-1.25,1.25v41.81
	c0,0.69,0.56,1.25,1.25,1.25h32.35c0.69,0,1.25-0.56,1.25-1.25V13.01C42.2,12.7,42.09,12.41,41.89,12.18z M33.53,6.54l4.68,5.28
	h-4.68V6.54z M39.7,43.82H9.86V4.52h21.17v8.56c0,0.69,0.56,1.25,1.25,1.25h7.42V43.82z M14.35,25.38c0,0.69,0.56,1.25,1.25,1.25
	h18.35c0.69,0,1.25-0.56,1.25-1.25c0-0.69-0.56-1.25-1.25-1.25H15.6C14.91,24.13,14.35,24.69,14.35,25.38z M33.95,30.4H15.6
	c-0.69,0-1.25,0.56-1.25,1.25s0.56,1.25,1.25,1.25h18.35c0.69,0,1.25-0.56,1.25-1.25S34.64,30.4,33.95,30.4z M33.95,36.68H15.6
	c-0.69,0-1.25,0.56-1.25,1.25s0.56,1.25,1.25,1.25h18.35c0.69,0,1.25-0.56,1.25-1.25S34.64,36.68,33.95,36.68z M24.78,19.44
	c2.56,0,4.64-2.08,4.64-4.64s-2.08-4.64-4.64-4.64s-4.64,2.08-4.64,4.64S22.22,19.44,24.78,19.44z M24.78,12.67
	c1.18,0,2.13,0.96,2.13,2.13s-0.96,2.13-2.13,2.13c-1.18,0-2.13-0.96-2.13-2.13S23.6,12.67,24.78,12.67z"/>
</svg>
