<svg xmlns="http://www.w3.org/2000/svg" width="20" height="20" viewBox="0 0 17.61 18.198">
  <g id="Group_1084" data-name="Group 1084" transform="translate(-3115 -8235.688)">
    <path class="fill_main-color" id="Path_559" data-name="Path 559" d="M23.969,55.8h-.088a.889.889,0,0,0-.881.881v1.468a2.642,2.642,0,0,0,2.642,2.642H37.088a2.642,2.642,0,0,0,2.642-2.642V52.92a.916.916,0,0,0-.792-.93.881.881,0,0,0-.969.881v5.283a.881.881,0,0,1-.881.881H34.74V55.561a.916.916,0,0,0-.792-.93.881.881,0,0,0-.969.881v3.522H29.751V53.8a.916.916,0,0,0-.792-.93.881.881,0,0,0-.969.881v5.283H25.642a.881.881,0,0,1-.881-.881V56.735A.916.916,0,0,0,23.969,55.8Z" transform="translate(3092.879 8193.092)" fill="#fff"/>
    <path class="fill_main-color" id="Path_560" data-name="Path 560" d="M21.5,30.307l4.661-4.661,2.4,2.4a1.588,1.588,0,0,0,2.248,0L35.851,23v2.521a.916.916,0,0,0,.792.93.881.881,0,0,0,.969-.881V22.054A2.055,2.055,0,0,0,35.558,20H32.086a.916.916,0,0,0-.93.792.881.881,0,0,0,.881.969h2.571l-4.919,4.919-2.4-2.4a1.588,1.588,0,0,0-2.248,0L20.26,29.063a.881.881,0,0,0,0,1.244A.9.9,0,0,0,21.5,30.307Z" transform="translate(3094.997 8215.689)" fill="#fff"/>
  </g>
</svg>
