<?xml version="1.0" encoding="utf-8"?>
<!-- Generator: Adobe Illustrator 23.0.0, SVG Export Plug-In . SVG Version: 6.00 Build 0)  -->
<svg version="1.2" baseProfile="tiny" id="Layer_1" xmlns="http://www.w3.org/2000/svg" xmlns:xlink="http://www.w3.org/1999/xlink"
	 x="0px" y="0px" viewBox="0 0 19 19" xml:space="preserve">
<path class="volume-pending" fill="#C4C4C4" d="M12.7,18.3"/>
<path class="volume-pending" fill="#C4C4C4" d="M13.2,8v4l1.9,1.8c0.5,0.5-0.2,1.2-0.7,0.7c-0.7-0.6-1.4-1.3-2.1-2c-0.1-0.1-0.1-0.2-0.1-0.4V8
	C12.2,7.3,13.2,7.3,13.2,8z"/>
<path class="volume-pending" fill="#C4C4C4" d="M12.7,5.9L12.7,5.9l0-2.1c0-1.7-1.4-3.1-3-3.1H3.5c-1.7,0-3.1,1.4-3.1,3.1V10c0,1.7,1.4,3.1,3.1,3.1h3.2
	c0.5,2.9,3,5.2,6.1,5.2c3.4,0,6.2-2.8,6.2-6.2C18.9,8.7,16.2,5.9,12.7,5.9z M6.5,12.1L6.5,12.1l-3.1,0c-1.1,0-2.1-0.9-2.1-2.1V4.4
	h10.3V6C8.8,6.5,6.5,9,6.5,12.1z M12.7,17.3c-2.8,0-5.2-2.3-5.2-5.2s2.3-5.2,5.2-5.2c2.8,0,5.2,2.3,5.2,5.2S15.6,17.3,12.7,17.3z"/>
</svg>
