<?xml version="1.0" encoding="utf-8"?>
<!-- Generator: Adobe Illustrator 24.3.0, SVG Export Plug-In . SVG Version: 6.00 Build 0)  -->
<svg version="1.2" baseProfile="tiny" id="Layer_1" xmlns="http://www.w3.org/2000/svg" xmlns:xlink="http://www.w3.org/1999/xlink"
	 x="0px" y="0px" viewBox="0 0 38.6 36.3" overflow="visible" xml:space="preserve">
<path id="XMLID_96_" fill="#FFFFFF" d="M26.8,3.2L26.8,3.2l-0.2-0.9c0-0.1-0.1-0.3-0.2-0.4c-0.2-0.2-0.4-0.2-0.7,0L5.4,7L26.8,3.2z"/>
<path id="XMLID_95_" fill="#FFFFFF" d="M7.9,7.5L7.9,7.5l20.4-1.4l0,0L28,4.7c0-0.1-0.1-0.3-0.2-0.4c-0.2-0.2-0.5-0.2-1.1-0.2L7.9,7.5L7.9,7.5z"/>
<path id="XMLID_90_" stroke="#FFFFFF" fill="#050596" d="M36.5,26.9L31.6,8.1c0,0-0.2-1.2-2.3-1.1L3.6,9c0,0-2,0.2-1.6,2.6l3.3,21c0,0,0.2,1.8,2.8,1.8
	c2.8,0,23.9-2.1,24.6-2.3c0.7,0,2-0.7,1.8-1.8v-1.6l1.1-0.2c0.7-0.1,1.1-0.7,1-1.4C36.6,27,36.5,27,36.5,26.9z M32.9,30
	c-0.3,0.5-0.9,0.8-1.4,0.7L8.3,33c-0.4,0-0.7,0-1.1-0.2C7,32.6,7,32.6,7,32.4s0-0.4,0.2-0.4c0.4-0.5,1.6-0.5,1.6-0.5l24.1-2.8l0,0
	C33.2,29.1,33.3,29.5,32.9,30C33,29.9,32.9,29.9,32.9,30L32.9,30z"/>
<g>
	<path fill="#FFFFFF" d="M9.8,16.9l3.2-0.3c0.7-0.1,1.3,0,1.7,0.4c0.4,0.3,0.6,0.7,0.7,1.2c0.1,0.7-0.3,1.3-1,1.6l0,0
		c0.9,0.1,1.5,0.7,1.6,1.6c0.1,0.6-0.1,1.1-0.5,1.5c-0.4,0.4-0.9,0.7-1.7,0.8L10.5,24L9.8,16.9z M13.1,19.5c0.7-0.1,1.1-0.5,1-1.1
		c-0.1-0.6-0.5-0.9-1.1-0.8l-1.8,0.2l0.2,1.9L13.1,19.5z M13.6,22.6c0.4,0,0.7-0.2,0.9-0.4c0.2-0.2,0.2-0.4,0.2-0.8
		c-0.1-0.7-0.6-1-1.3-0.9l-1.9,0.2l0.2,2.1L13.6,22.6z"/>
	<path fill="#FFFFFF" d="M15.9,16.3l5.7-0.6l0.1,1.1L19.5,17l0.6,5.9l-1.3,0.1l-0.6-5.9L16,17.4L15.9,16.3z"/>
	<path fill="#FFFFFF" d="M22.3,19.2c-0.2-2.1,0.9-3.8,3-4.1c0.8-0.1,1.5,0.1,2,0.4c0.6,0.4,1,1,1.2,1.7l-1.3,0.1
		c-0.2-0.7-0.9-1.2-1.8-1.1c-1.4,0.1-1.9,1.3-1.8,2.8c0.2,1.5,1.1,2.5,2.3,2.3c1.1-0.1,1.6-0.9,1.5-1.7l1.3-0.1c0,0.7-0.2,1.5-0.7,2
		c-0.5,0.6-1.2,0.9-2.1,1C24,22.7,22.5,21.3,22.3,19.2z"/>
</g>
</svg>
