<svg xmlns="http://www.w3.org/2000/svg" width="20" height="20" viewBox="0 0 17.023 18.197">
  <g id="Group_1083" data-name="Group 1083" transform="translate(-281.488 -140.813)">
    <path class="fill_main-color" id="Path_519" data-name="Path 519" d="M32.447,19H24.229A3.229,3.229,0,0,0,21,22.229v11.74A3.229,3.229,0,0,0,24.229,37.2H35.382a2.642,2.642,0,0,0,2.642-2.642V26.338A2.642,2.642,0,0,0,35.382,23.7h-.293V21.642A2.642,2.642,0,0,0,32.447,19Zm-8.165,1.761h8.165a.881.881,0,0,1,.881.881V23.7h-9.1a1.468,1.468,0,0,1-1.468-1.614A1.509,1.509,0,0,1,24.281,20.761Zm11.1,4.7a.881.881,0,0,1,.881.881v8.218a.881.881,0,0,1-.881.881H24.229a1.468,1.468,0,0,1-1.468-1.468v-8.84l.39.138a3.205,3.205,0,0,0,1.077.191Z" transform="translate(260.488 121.813)" fill="#fff"/>
    <circle class="fill_main-color" id="Ellipse_389" data-name="Ellipse 389" cx="0.881" cy="0.881" r="0.881" transform="translate(292.641 151.38)" fill="#fff"/>
  </g>
</svg>
