<svg xmlns="http://www.w3.org/2000/svg" width="110.98" height="125.657" viewBox="0 0 90.98 75.657">
<style type="text/css"><![CDATA[
.wallet-graphic-1{
fill: #FBB040;
}
.wallet-graphic{
fill: #050604;
}
]]></style>
  <g id="Group_54" data-name="Group 54" transform="translate(-2.5 -10.5)">
    <path class="wallet-graphic" id="Path_29" data-name="Path 29" d="M85.914,40.763h-.67V33.006a8.747,8.747,0,0,0-8.715-8.715H75.476V20.077A9.605,9.605,0,0,0,65.9,10.5H12.077A9.605,9.605,0,0,0,2.5,20.077V77.442a8.747,8.747,0,0,0,8.715,8.715H76.529a8.747,8.747,0,0,0,8.715-8.715V67.674h.67a7.521,7.521,0,0,0,7.566-7.566V48.329A7.582,7.582,0,0,0,85.914,40.763Zm-73.838-24.9H65.8a4.251,4.251,0,0,1,4.214,4.214v4.214H12.077a4.214,4.214,0,1,1,0-8.428Zm67.8,61.579a3.393,3.393,0,0,1-3.352,3.352H11.215a3.393,3.393,0,0,1-3.352-3.352V28.7a8.807,8.807,0,0,0,4.214.958H76.433a3.393,3.393,0,0,1,3.352,3.352v7.757H69.921a11.771,11.771,0,0,0-11.78,11.78V55.99a11.771,11.771,0,0,0,11.78,11.78h9.864v9.673Zm8.236-17.334a2.167,2.167,0,0,1-2.2,2.2H69.921A6.315,6.315,0,0,1,63.6,55.99V52.542a6.315,6.315,0,0,1,6.321-6.321H85.914a2.167,2.167,0,0,1,2.2,2.2Z" fill="#fff"/>
    <circle id="Ellipse_7" data-name="Ellipse 7" cx="4.214" cy="4.214" r="4.214" transform="translate(68.293 50.052)" fill="#fff"/>
  </g>
</svg>
