<svg id="Group_64" data-name="Group 64" xmlns="http://www.w3.org/2000/svg" width="34" height="34" viewBox="0 0 34 34">
  <path id="Path_17" data-name="Path 17" d="M17,0A17,17,0,1,1,0,17,17,17,0,0,1,17,0Z" fill="#fff"/>
  <path id="Path_13" data-name="Path 13" d="M118.883,48.131l.188.19c.131.132.264.262.394.395a.549.549,0,0,0,.428.172.6.6,0,0,0,.44-.19,3.142,3.142,0,0,0,.221-.24.607.607,0,0,0-.068-.745q-3.215-3.2-6.422-6.415l-.373-.372.055-.061c.082-.088.169-.173.247-.265a.465.465,0,0,0,.1-.365.574.574,0,0,0-.2-.365.539.539,0,0,0-.213-.121,1.248,1.248,0,0,0-.267-.053.389.389,0,0,0-.307.109c-.07.068-.138.138-.207.206-.018.018-.038.035-.053.048l-.25-.251a.564.564,0,0,1,.038-.045c.067-.067.132-.135.2-.2a.492.492,0,0,0,.148-.347.657.657,0,0,0-.475-.629.512.512,0,0,0-.513.13c-.066.067-.133.134-.2.2-.017.016-.034.031-.044.04l-.981-.982c.046,0,.1,0,.156,0a2.059,2.059,0,0,0,.685-.109,2.693,2.693,0,0,0,1.585-1.389,2.716,2.716,0,0,0,.213-.689,2.591,2.591,0,0,0-.179-1.46,2.635,2.635,0,0,0-.573-.832,2.582,2.582,0,0,0-.96-.6,2.167,2.167,0,0,0-.636-.135c-.085,0-.17-.016-.255-.015a2.614,2.614,0,0,0-.954.19,2.694,2.694,0,0,0-.641.37c-.086.067-.164.143-.249.217a2.582,2.582,0,0,0-2.23-1.021,2.506,2.506,0,0,0-1.768.834,2.615,2.615,0,0,0,.332,3.854,2.92,2.92,0,0,0-.4.5,2.61,2.61,0,0,0-.382,1.217,2.452,2.452,0,0,0,.046.64,2.594,2.594,0,0,0,.2.612,2.474,2.474,0,0,0,.341.546,2.613,2.613,0,0,0,2.818.845,2.562,2.562,0,0,0,1.334-.972,2.441,2.441,0,0,0,.484-1.576c.062.038.879.847.988.977-.064.064-.125.132-.193.192a.557.557,0,0,0-.027.754.649.649,0,0,0,.382.237.488.488,0,0,0,.472-.13c.067-.07.137-.138.2-.2l.257.257c-.041.041-.089.1-.145.144a.579.579,0,0,0-.135.665.7.7,0,0,0,.234.305.446.446,0,0,0,.238.085.552.552,0,0,0,.48-.173c.059-.061.12-.121.179-.179.07.041,3.069,3.029,3.264,3.249-.021.022-.042.045-.064.068-.352.353-.7.711-1.06,1.056a.566.566,0,0,0-.072.662.333.333,0,0,0,.057.067l.369.37a.356.356,0,0,0,.262.108.517.517,0,0,0,.3-.055.751.751,0,0,0,.112-.085q.537-.534,1.071-1.07l.067-.066c.069.044.777.744.96.946-.021.022-.041.045-.063.067-.353.353-.7.708-1.06,1.058a.56.56,0,0,0-.176.374.359.359,0,0,0,.1.293c.1.094.192.192.288.288.042.042.082.085.126.123a.254.254,0,0,0,.162.059.561.561,0,0,0,.443-.178c.351-.358.709-.711,1.063-1.066.021-.021.037-.046.064-.079Zm-12-11.7a1.319,1.319,0,1,1,0-2.637,1.319,1.319,0,1,1,0,2.637Zm1.566,2.627a1.317,1.317,0,1,1-1.305-1.319,1.3,1.3,0,0,1,1.305,1.319Zm2.384-2.379a1.317,1.317,0,1,1,1.314-1.323A1.315,1.315,0,0,1,110.834,36.681Z" transform="translate(-95.271 -23.502)"/>
</svg>
