<svg width="134" height="129" viewBox="0 0 134 129" fill="none" xmlns="http://www.w3.org/2000/svg">
<path d="M42.9552 122.397C43.4987 122.299 44.0194 122.661 44.1173 123.204C44.2148 123.748 43.853 124.268 43.3097 124.365C40.9804 124.785 38.8073 125.025 36.755 125.087C36.2031 125.104 35.7417 124.67 35.7247 124.118C35.7079 123.566 36.1416 123.105 36.6934 123.088C38.6334 123.029 40.708 122.801 42.9552 122.397ZM23.2559 121.263C23.4844 120.76 24.0766 120.538 24.5792 120.766C26.4723 121.626 28.4188 122.253 30.4864 122.64C31.029 122.742 31.3866 123.264 31.2852 123.807C31.1837 124.35 30.661 124.708 30.1182 124.607C27.8853 124.189 25.786 123.51 23.753 122.587C23.2502 122.359 23.0275 121.766 23.2559 121.263ZM52.2149 120.046C52.7417 119.881 53.3033 120.174 53.4688 120.7C53.6343 121.227 53.3413 121.789 52.8145 121.954C51.7426 122.291 50.7007 122.6 49.6876 122.882C49.1557 123.03 48.6044 122.72 48.4561 122.188C48.308 121.656 48.6194 121.104 49.1515 120.956C50.1418 120.681 51.1624 120.377 52.2149 120.046ZM13.0655 113.782C13.4565 113.393 14.0896 113.394 14.4796 113.784C15.1552 114.462 15.8748 115.108 16.6388 115.719C17.4899 116.4 18.3306 117.035 19.1681 117.623C19.6199 117.941 19.7294 118.564 19.4122 119.016C19.0948 119.468 18.4706 119.577 18.0186 119.26C17.143 118.645 16.2683 117.985 15.3888 117.281C14.5661 116.623 13.7916 115.927 13.0636 115.196C12.6738 114.805 12.6744 114.172 13.0655 113.782ZM6.98934 103.471C7.50525 103.274 8.08257 103.533 8.27938 104.049C8.97719 105.878 9.83813 107.622 10.8702 109.254C11.1653 109.721 11.0265 110.339 10.5597 110.634C10.0929 110.929 9.47492 110.79 9.17977 110.323C8.07221 108.572 7.15347 106.708 6.41122 104.762C6.21437 104.246 6.47333 103.668 6.98934 103.471ZM4.95419 91.6408C5.50575 91.6157 5.97375 92.0424 5.99911 92.5939C6.08962 94.5767 6.31557 96.529 6.68563 98.426C6.79122 98.9679 6.43757 99.4931 5.89559 99.5988C5.35363 99.7045 4.82854 99.3507 4.72274 98.8088C4.33276 96.8098 4.09577 94.7602 4.00106 92.6857C3.97588 92.134 4.40247 91.666 4.95419 91.6408ZM4.99618 80.4621C5.10627 79.9209 5.63466 79.5708 6.17586 79.6809C6.71685 79.7911 7.0662 80.3195 6.95614 80.8605C6.5618 82.7991 6.2799 84.7544 6.11727 86.7043C6.07128 87.2546 5.58749 87.6633 5.03719 87.6174C4.48695 87.5715 4.07843 87.0885 4.12411 86.5383C4.29344 84.5081 4.58672 82.475 4.99618 80.4621ZM7.58211 71.6389C7.78157 71.1242 8.36025 70.8685 8.87508 71.0676C9.39012 71.267 9.64673 71.8465 9.44735 72.3615C9.09258 73.278 8.76209 74.2068 8.45809 75.1457C8.28797 75.6711 7.72376 75.9594 7.19833 75.7893C6.67331 75.619 6.38589 75.0556 6.55575 74.5305C6.8713 73.5558 7.21369 72.5906 7.58211 71.6389Z" fill="#273B57"/>
<rect x="36.5137" y="84" width="34" height="2" rx="1" fill="#273B57"/>
<rect x="36.5137" y="92" width="34" height="2" rx="1" fill="#273B57"/>
<path d="M122.514 110C125.275 110 127.514 112.239 127.514 115C127.514 117.761 125.275 120 122.514 120C119.752 120 117.514 117.761 117.514 115C117.514 112.239 119.752 110 122.514 110ZM122.514 112C120.857 112 119.514 113.343 119.514 115C119.514 116.657 120.857 118 122.514 118C124.171 118 125.514 116.657 125.514 115C125.514 113.343 124.171 112 122.514 112Z" fill="#273B57"/>
<path fill-rule="evenodd" clip-rule="evenodd" d="M80.3447 23.0723C84.763 23.0723 88.3447 26.654 88.3447 31.0723V65.0723C88.3447 69.4905 84.763 73.0723 80.3447 73.0723H42.3447C37.9264 73.0723 34.3447 69.4905 34.3447 65.0723V31.0723C34.3447 26.654 37.9264 23.0723 42.3447 23.0723H80.3447ZM36.3447 65C36.3447 68.3137 39.031 71 42.3447 71H80.3447C83.6584 71 86.3447 68.3137 86.3447 65V59H75.5137C73.1762 59 71.5105 57.9573 70.459 56.5303C69.4358 55.1416 69.0137 53.4238 69.0137 52C69.0137 49.1009 71.0833 45.5 75.5137 45.5H86.3447V39.2441C86.338 39.2175 86.3317 39.1906 86.3271 39.1631C85.9421 36.8369 84.9763 35.3225 83.79 34.3818C82.5925 33.4323 81.0844 33 79.5137 33H36.3447V65ZM75.5137 47.5C72.4712 47.5 71.0137 49.8991 71.0137 52C71.0137 53.0761 71.3416 54.3584 72.0684 55.3447C72.7669 56.2927 73.8512 57 75.5137 57H86.3447V47.5H75.5137ZM42.3447 25C39.031 25 36.3447 27.6863 36.3447 31H79.5137C81.4429 31 83.4156 31.5318 85.0332 32.8145C85.5116 33.1938 85.9504 33.634 86.3447 34.1348V31C86.3447 27.6863 83.6584 25 80.3447 25H42.3447Z" fill="#273B57"/>
<circle cx="76.5137" cy="52" r="2" fill="#273B57"/>
<path d="M53.2139 40.7002C53.7661 40.7002 54.2139 41.1479 54.2139 41.7002V43.4473C55.3253 43.5992 56.4314 44.0276 57.2002 44.8223C57.5841 45.2192 57.5737 45.8524 57.1767 46.2363C56.7798 46.6203 56.1466 46.6099 55.7627 46.2129C55.285 45.7191 54.3508 45.3812 53.2607 45.3818C52.1724 45.3825 51.2245 45.7208 50.7305 46.2197L50.7256 46.2246L50.7246 46.2236C50.2498 46.6978 50.0707 47.2308 50.0078 47.6582C49.9762 47.8732 49.975 48.0568 49.9814 48.1816C49.9846 48.2432 49.9898 48.2893 49.9932 48.3154L49.9951 48.3301V48.335L49.9961 48.3369L49.9971 48.3408L49.999 48.3525C50.0732 48.7969 50.2673 49.0397 50.584 49.2373C50.9622 49.4733 51.5114 49.6376 52.291 49.8066C53.6361 50.0982 55.623 50.3675 57.2637 51.4795L57.5869 51.7139L57.6377 51.7529L57.6826 51.7979C59.672 53.7874 58.9726 56.4313 57.6826 57.7158C57.2658 58.1308 56.6687 58.4089 56.0674 58.5918C55.517 58.7591 54.8846 58.8699 54.2139 58.916V60C54.2139 60.5523 53.7661 61 53.2139 61C52.6616 61 52.2139 60.5523 52.2139 60V58.8604C51.1433 58.729 50.0321 58.4269 49.0107 57.8906C48.5217 57.6339 48.3331 57.029 48.5898 56.54C48.8466 56.0512 49.4515 55.8634 49.9404 56.1201C51.1529 56.7567 52.595 56.9867 53.8603 56.9336C54.4886 56.9072 55.0469 56.812 55.4853 56.6787C55.9462 56.5386 56.1871 56.3827 56.2715 56.2988C56.9757 55.5976 57.2735 54.2658 56.3086 53.2559C55.074 52.331 53.5292 52.122 51.8672 51.7617C51.0861 51.5924 50.2267 51.3729 49.5244 50.9346C48.7661 50.4613 48.2103 49.7463 48.0303 48.7031L48.0293 48.7021V48.7002C48.029 48.6988 48.0286 48.6969 48.0283 48.6953C48.0277 48.6922 48.027 48.6885 48.0264 48.6846C48.0249 48.6765 48.0233 48.6666 48.0215 48.6553C48.0178 48.6326 48.0132 48.6035 48.0088 48.5684C47.9998 48.4977 47.9904 48.4019 47.9844 48.2861C47.9724 48.0554 47.975 47.7364 48.0293 47.3672C48.1382 46.6271 48.4603 45.6613 49.3086 44.8125C50.0639 44.0495 51.1322 43.6232 52.2139 43.46V41.7002C52.2139 41.1479 52.6616 40.7002 53.2139 40.7002Z" fill="#348BE4"/>
<circle cx="105.514" cy="89" r="24" fill="#273B57"/>
<path fill-rule="evenodd" clip-rule="evenodd" d="M111.514 4C115.932 4 119.514 7.58172 119.514 12V65.5049C118.87 65.0419 118.203 64.6096 117.514 64.2109V24H105.514C101.095 24 97.5137 20.4183 97.5137 16V6H23.5137C20.2 6 17.5137 8.68629 17.5137 12V104C17.5137 107.314 20.2 110 23.5137 110H87.8887C89.3828 110.829 90.9746 111.502 92.6426 112H23.5137C19.0954 112 15.5137 108.418 15.5137 104V12C15.5137 7.58172 19.0954 4 23.5137 4H111.514ZM99.5137 16C99.5137 19.3137 102.2 22 105.514 22H115.165L99.5137 8.25879V16ZM117.514 21.4004V12C117.514 8.68629 114.827 6 111.514 6H99.9727L117.514 21.4004Z" fill="#273B57"/>
<circle cx="105.514" cy="89" r="22" fill="#327BEC"/>
<path d="M111.933 78.8055C113.007 77.7318 114.748 77.7318 115.822 78.8055C116.896 79.8794 116.896 81.6212 115.822 82.6951L109.46 89.0564L115.822 95.4187C116.895 96.4926 116.895 98.2335 115.822 99.3074C114.748 100.381 113.006 100.381 111.932 99.3074L105.571 92.9461L99.2086 99.3084C98.1347 100.382 96.3938 100.382 95.3199 99.3084C94.246 98.2344 94.246 96.4927 95.3199 95.4187L101.681 89.0564L95.3189 82.6941C94.2453 81.6202 94.2453 79.8793 95.3189 78.8055C96.3929 77.7315 98.1346 77.7315 99.2086 78.8055L105.571 85.1678L111.933 78.8055Z" fill="white"/>
<path d="M63.0137 45V53.5M63.0137 45L59.5137 48.5M63.0137 45L66.0137 48.5" stroke="#348BE4" stroke-width="2" stroke-linecap="round" stroke-linejoin="round"/>
</svg>
