<?xml version="1.0" encoding="UTF-8" standalone="no"?>
<!DOCTYPE svg PUBLIC "-//W3C//DTD SVG 1.1//EN"
"http://www.w3.org/Graphics/SVG/1.1/DTD/svg11.dtd">


<!-- Page 9 -->
<svg x="0" y="0" width="280" height="280" viewBox="0 0 280 280" version="1.1" xmlns="http://www.w3.org/2000/svg" xmlns:xlink="http://www.w3.org/1999/xlink"
style="display: block;margin-left: auto;margin-right: auto;">
<defs>
<clipPath id="withdraw-clip"><path d="M0,280.3L0,0L280.3,0l0,280.3Z" /></clipPath>

<style type="text/css"><![CDATA[

.withdraw-1{
fill: #FBB040;
}
.withdraw-2{
fill: #050604;
}


]]></style>

</defs>
<g clip-path="url(#withdraw-clip)">
<path d="M156.2,210.6l12.3,0.5c0,0,-7.6,21.8,-28.9,27c-21.2,5.2,-51,-5.2,-56.2,-9C78.2,225.3,46.1,207.3,34.3,187C22.4,166.7,-3,129.4,7.8,106.2c10.9,-23.1,26.9,-34,26.9,-34l7.1,-3.3c0,0,-6.6,18.4,-4.7,34c1.9,15.6,16.1,48.2,23.1,55.8c7.1,7.5,37.8,34.5,52,41.1c14.2,6.6,37.8,10.4,44,10.8Z" class="withdraw-1" />
<path d="M29,97.8L13.3,113.5c0.9,-8.3,3.6,-15.4,8.9,-20.4L29,86.3c-0.3,3.8,-0.3,7.7,0,11.5M160.1,217.4l-6.8,6.8c-5.3,5.3,-12.4,8.3,-21.3,9.2l16,-16c2.4,0.3,5,0.3,7.4,0.3c1.5,0,3.3,0,4.7,-0.3m-56.8,11.5l18.3,-18.3c4.2,1.8,8.3,3,12.5,4.1l-17.8,17.8c-2.1,-0.3,-4.1,-0.9,-6.2,-1.5c-2.4,-0.6,-4.7,-1.5,-6.8,-2.1m6.8,-23.6L91.2,224.2c-4.5,-2.1,-8.6,-4.4,-13.1,-7.4l19,-18.9c4.7,2.6,8.9,5,13,7.4M87.6,190.5L68.4,209.7C63.9,206.4,59.8,202.9,55.6,199L74.9,179.8c4.4,3.9,8.6,7.4,12.7,10.7m-32,-32c3.3,4.4,7.1,8.6,11,13L47.3,190.8c-3.8,-4.2,-7.6,-8.6,-10.9,-13.1Zm-41.4,-29L31.7,112c1.1,4.2,2.3,8.3,4.1,12.5L17.4,142.8C16,138.4,15.1,133.9,14.2,129.5m8.3,25.1L41.1,136c2.1,4.1,4.8,8.6,7.4,12.7l-18.9,19c-2.7,-4.5,-5,-8.6,-7.1,-13.1m105.1,90.9c13.6,0,25.4,-4.1,34,-12.7l27.5,-27.5c8.9,-8.9,13.4,-21.9,12.8,-37.3c-0.3,-3.3,-3,-5.7,-6.2,-5.7c-3.3,0.3,-6,3,-5.7,6.3c0.6,11.8,-2.6,21.6,-9.1,28.4C161,216.8,114.5,203.2,79,167.7C43.5,132.1,30.2,85.4,49.7,65.8C66.3,49.3,102.4,55.5,135.6,80.9c2.6,2.1,6.2,1.5,8.2,-1.1c2.1,-2.7,1.5,-6.3,-1.1,-8.3C104.2,41.9,62.4,36.2,41.1,57.3L13.6,84.8C-11.5,109.9,1.5,162,42.9,203.5c27.2,26.9,59.2,42,84.7,42Z" class="withdraw-3" />
</g>
<path d="M277.7,117.3L222.3,61.4C219.9,59,216.4,59,214,61.4c-1.2,1.2,-1.8,3,-1.8,4.7l0,0.6l0,28.4l-18.9,0c-3.3,0,-5.9,2.7,-5.9,6c0,3.2,2.6,5.9,5.9,5.9l24.9,0c3.2,0,5.9,-2.7,5.9,-5.9l0,-21.1l41.1,41.5l-41.1,41.4l0,-19.8c0,-3.3,-2.7,-5.9,-5.9,-5.9l-24.9,0c-3.3,0,-5.9,2.6,-5.9,5.9c0,3.3,2.6,5.9,5.9,5.9l18.9,0l0,28.4l0,1.2c0,0.3,0,0.3,0.3,0.6c0,0.3,0,0.3,0.3,0.6c0,0.3,0.3,0.3,0.3,0.6c0,0,0,0.3,0.3,0.3c0.3,0.3,0.6,0.6,0.9,0.9c0.3,0.3,0.6,0.6,0.9,0.6l0.3,0.3c0.3,0,0.3,0.3,0.6,0.3c0.3,0,0.3,0,0.6,0.3c0.3,0,0.3,0,0.6,0.3l1.1,0l1.2,0c0.3,0,0.3,0,0.6,-0.3c0.3,0,0.3,0,0.6,-0.3c0.3,0,0.3,-0.3,0.6,-0.3c0.3,0,0.3,0,0.6,-0.3c0.3,-0.3,0.6,-0.6,0.9,-0.9l55.3,-55.7c1.8,-2.3,1.8,-6.2,-0.5,-8.3Z" class="withdraw-2" />
<path d="M173.2,136.9l-12.5,0c-3.2,0,-5.9,2.6,-5.9,5.9c0,3.3,2.7,5.9,5.9,5.9l12.5,0c3.2,0,5.9,-2.6,5.9,-5.9c0,-3.3,-2.7,-5.9,-5.9,-5.9Z" class="withdraw-2" />
<path d="M173.2,95.1l-12.5,0c-3.2,0,-5.9,2.7,-5.9,6c0,3.2,2.7,5.9,5.9,5.9l12.5,0c3.2,0,5.9,-2.7,5.9,-5.9c0,-3.3,-2.7,-6,-5.9,-6Z" class="withdraw-2" />
<path d="M132.9,136.9l-5.3,0c-3.3,0,-6,2.6,-6,5.9c0,3.3,2.7,5.9,6,5.9l5.3,0c3.3,0,5.9,-2.6,5.9,-5.9c0,-3.3,-2.6,-5.9,-5.9,-5.9Z" class="withdraw-2" />
<path d="M132.9,95.1l-5.3,0c-3.3,0,-6,2.7,-6,6c0,3.2,2.7,5.9,6,5.9l5.3,0c3.3,0,5.9,-2.7,5.9,-5.9c0,-3.3,-2.6,-6,-5.9,-6Z" class="withdraw-2" />
<path d="M95,136.9l-0.6,0c-3.2,0,-5.9,2.6,-5.9,5.9c0,3.3,2.7,5.9,5.9,5.9l0.6,0c3.3,0,5.9,-2.6,5.9,-5.9c0,-3.3,-2.6,-5.9,-5.9,-5.9Z" class="withdraw-2" />
<path d="M95,95.1l-0.6,0c-3.2,0,-5.9,2.7,-5.9,6c0,3.2,2.7,5.9,5.9,5.9l0.6,0c3.3,0,5.9,-2.7,5.9,-5.9c0,-3.3,-2.6,-6,-5.9,-6Z" class="withdraw-2" />

</svg>
