<?xml version="1.0" encoding="utf-8"?>
<!-- Generator: Adobe Illustrator 25.0.0, SVG Export Plug-In . SVG Version: 6.00 Build 0)  -->
<svg version="1.1" id="Layer_1" xmlns="http://www.w3.org/2000/svg" xmlns:xlink="http://www.w3.org/1999/xlink" x="0px" y="0px"
	 viewBox="0 0 20 20" style="enable-background:new 0 0 20 20;" xml:space="preserve">
<style type="text/css">
	.withdraw_st0{fill:#F28041;}
</style>
<g id="Group_2595">
	<path class="withdraw_st0" d="M18,10c0-4.4-3.6-8-8-8c0,0,0,0-0.1,0C7.9,2,5.8,2.8,4.2,4.4C1,7.5,1,12.6,4.2,15.8c3.2,3.2,8.3,3.2,11.4,0
		C17.2,14.2,18,12.1,18,10C18,10.1,18,10,18,10z"/>
	<path id="Path_109" d="M11.8,11.4l1.3,0V6.9H8.6v1.3h2.2l-3.6,3.6l1,1l3.6-3.6L11.8,11.4z"/>
</g>
</svg>
