<svg xmlns="http://www.w3.org/2000/svg" width="20" height="20" viewBox="0 0 18.783 18.785">
  <g id="Group_1089" data-name="Group 1089" transform="translate(-23.609 -568.995)">
    <path class="fill_main-color" id="Path_544" data-name="Path 544" d="M24.262,53.493a1.673,1.673,0,0,0-.546-.379,1.6,1.6,0,0,0-1.732.346l-2.727,2.727a.881.881,0,0,0,.147,1.365.9.9,0,0,0,1.121-.153l1.7-1.7v4.931a.881.881,0,0,0,1.761,0V55.709L25.667,57.4a.927.927,0,0,0,1.174.15.881.881,0,0,0,.123-1.35Z" transform="translate(4.902 526.271)" fill="#fff"/>
    <path class="fill_main-color" id="Path_545" data-name="Path 545" d="M59.562,54.6a2.055,2.055,0,0,0-2.906,0L54.6,56.656a2.055,2.055,0,0,0,0,2.906l2.055,2.055a2.055,2.055,0,0,0,2.906,0l2.055-2.055a2.055,2.055,0,0,0,0-2.906Zm.81,3.716-2.055,2.055a.294.294,0,0,1-.414,0l-2.055-2.055a.293.293,0,0,1,0-.414L57.9,55.849a.293.293,0,0,1,.414,0L60.372,57.9A.294.294,0,0,1,60.372,58.317Z" transform="translate(-19.826 525.562)" fill="#fff"/>
    <path class="fill_main-color" id="Path_546" data-name="Path 546" d="M56.485,26.391a1.6,1.6,0,0,0,1.732-.346l2.727-2.727a.881.881,0,0,0-.147-1.365.9.9,0,0,0-1.121.156l-1.7,1.691V18.881a.881.881,0,0,0-1.761,0V23.8l-1.679-1.691a.927.927,0,0,0-1.174-.15.881.881,0,0,0-.123,1.35l2.7,2.7A1.673,1.673,0,0,0,56.485,26.391Z" transform="translate(95.073 595.505) rotate(180)" fill="#fff"/>
    <path class="fill_main-color" id="Path_547" data-name="Path 547" d="M20.656,25.616a2.055,2.055,0,0,0,2.906,0l2.055-2.055a2.055,2.055,0,0,0,0-2.906L23.562,18.6a2.055,2.055,0,0,0-2.906,0L18.6,20.656a2.055,2.055,0,0,0,0,2.906Zm-.81-3.716L21.9,19.846a.294.294,0,0,1,.414,0L24.369,21.9a.294.294,0,0,1,0,.414l-2.055,2.055a.294.294,0,0,1-.414,0l-2.055-2.055A.294.294,0,0,1,19.846,21.9Z" transform="translate(5.609 550.995)" fill="#fff"/>
  </g>
</svg>
