<?xml version="1.0" encoding="utf-8"?>
<!-- Generator: Adobe Illustrator 23.0.0, SVG Export Plug-In . SVG Version: 6.00 Build 0)  -->
<svg version="1.1" id="Layer_1" xmlns="http://www.w3.org/2000/svg" xmlns:xlink="http://www.w3.org/1999/xlink" x="0px" y="0px"
	 viewBox="0 0 172.01 172.01" style="enable-background:new 0 0 172.01 172.01;" xml:space="preserve">
<style type="text/css">
	.email-confirmation{fill:#010101;}
</style>
<g>
	<g>
		<g>
			<path d="M11.61,172c0.01,0,0.01,0.01,0.02,0.01C11.62,172.01,11.61,172,11.61,172z M12.31,169.54c0.06,0.01,0.12,0.03,0.19,0.06
				c0.51,0.18,0.94,0.27,1.35,0.27h146.24c0.74,0,1.47-0.26,2.23-0.81c0.04-0.03,0.13-0.09,0.21-0.14c0.25-0.2,0.46-0.44,0.68-0.76
				l1.05,0.73l-1.06-0.71l1.06,0.71l-1.04-0.74c0.04-0.06,0.07-0.11,0.11-0.16c0.46-0.69,0.69-1.36,0.69-2.05
				c0-0.13-0.03-0.28-0.06-0.47l-0.04-0.36V92.87c0-0.38-0.08-0.79-0.25-1.28c-0.01-0.02-0.02-0.05-0.04-0.08l-0.08-0.19
				c-0.24-0.54-0.52-0.98-0.86-1.29l-0.4-0.39l-19.24-18.19v-26.6c0-2.17-1.77-3.94-3.94-3.94c-2.17,0-3.94,1.77-3.94,3.94v59.57
				l-18.81,12.33L89.7,90.08c-0.75-0.74-1.73-1.16-2.78-1.16s-2.04,0.41-2.78,1.16l-26.65,26.65L38.66,104.4V10.29h67
				c2.17,0,3.94-1.77,3.94-3.94s-1.77-3.94-3.94-3.94H34.73c-2.17,0-3.94,1.77-3.94,3.94v65.09L11.14,90.02
				c-0.34,0.32-0.62,0.75-0.87,1.32l-0.05,0.12c-0.02,0.03-0.03,0.07-0.05,0.1c-0.17,0.52-0.25,0.93-0.25,1.31v72.98
				c0.02,0.09,0.03,0.17,0.03,0.25c0.01,0.17,0.04,0.31,0.07,0.45l0.03,0.16c0.04,0.19,0.08,0.4,0.14,0.57
				c0.02,0.04,0.04,0.11,0.05,0.19l0.02,0.01c0.05,0.08,0.1,0.16,0.15,0.24c0.13,0.25,0.22,0.41,0.32,0.54
				c0.11,0.15,0.23,0.27,0.35,0.39c0.16,0.16,0.3,0.3,0.47,0.43c0.12,0.09,0.28,0.18,0.48,0.28
				C12.15,169.44,12.22,169.49,12.31,169.54C12.3,169.54,12.31,169.54,12.31,169.54z M7.74,168.07c0.01,0.02,0.02,0.06,0.03,0.09
				C7.76,168.14,7.75,168.1,7.74,168.07z M150.48,162H23.36l63.56-63.56L150.48,162z M17.79,156.43v-56.27l34,22.27L17.79,156.43z
				 M156.05,156.42l-34-34l34-22.27V156.42z M143.05,99.25V82.28l10.61,10.02L143.05,99.25z M30.79,99.25l-10.61-6.94l10.61-10.03
				V99.25z" class="email-confirmation"/>
		</g>
		<g>
			<path d="M64.15,26.25c-0.05,0-0.09,0-0.14,0c-1.05,0.04-2.02,0.48-2.74,1.24c-0.72,0.77-1.1,1.77-1.07,2.82
				c0.03,1.05,0.47,2.03,1.24,2.75l24.7,26c0.68,0.63,1.64,1.01,2.64,1.01c1,0,1.96-0.38,2.7-1.06l55.01-52.18
				c1.59-1.49,1.67-3.99,0.19-5.58c-1.49-1.58-3.99-1.66-5.57-0.18L88.74,50.79L66.81,27.28C66.08,26.61,65.14,26.25,64.15,26.25z"
				class="email-confirmation" />
		</g>
	</g>
</g>
</svg>
