<svg xmlns="http://www.w3.org/2000/svg" width="83.081" height="88.664" viewBox="0 0 83.081 88.664">
  <g id="Group_271" data-name="Group 271" transform="translate(-10352.996 13410.512)">
    <path id="Path_91" data-name="Path 91" d="M77.469,34.286a37.493,37.493,0,1,0-32.657,43.45" transform="translate(10354.001 -13408)" fill="none" stroke="#fff" stroke-linecap="round" stroke-linejoin="round" stroke-width="8"/>
    <path id="Path_92" data-name="Path 92" d="M3.6,9H73.587" transform="translate(10355.899 -13389.005)" fill="none" stroke="#fff" stroke-linecap="round" stroke-linejoin="round" stroke-width="8"/>
    <path id="Path_93" data-name="Path 93" d="M3.6,15H44.843" transform="translate(10355.899 -13370.009)" fill="none" stroke="#fff" stroke-linecap="round" stroke-linejoin="round" stroke-width="8"/>
    <path id="Path_94" data-name="Path 94" d="M19.661,3a70.821,70.821,0,0,0,0,74.986" transform="translate(10372.749 -13408)" fill="none" stroke="#fff" stroke-linecap="round" stroke-linejoin="round" stroke-width="8"/>
    <path id="Path_95" data-name="Path 95" d="M12.5,3A70.765,70.765,0,0,1,23.24,40.576" transform="translate(10384.076 -13408)" fill="none" stroke="#fff" stroke-linecap="round" stroke-linejoin="round" stroke-width="8"/>
    <path id="Path_96" data-name="Path 96" d="M33.664,15H23.249a6.249,6.249,0,1,0,0,12.5h4.166a6.249,6.249,0,1,1,0,12.5H17" transform="translate(10398.322 -13370.009)" fill="none" stroke="#fff" stroke-linecap="round" stroke-linejoin="round" stroke-width="8"/>
    <path id="Path_97" data-name="Path 97" d="M19,43.161v4.166M19,14v4.166" transform="translate(10404.654 -13373.175)" fill="none" stroke="#fff" stroke-linecap="round" stroke-linejoin="round" stroke-width="8"/>
  </g>
</svg>
