<?xml version="1.0" encoding="utf-8"?>
<!-- Generator: Adobe Illustrator 23.0.3, SVG Export Plug-In . SVG Version: 6.00 Build 0)  -->
<svg version="1.2" baseProfile="tiny" id="Layer_1" xmlns="http://www.w3.org/2000/svg" xmlns:xlink="http://www.w3.org/1999/xlink"
	 x="0px" y="0px" viewBox="0 0 110 110" xml:space="preserve">
	<style type="text/css">
		.xht-faq{fill:#292B2C;}
	</style>
<g>
	<path class="xht-faq" d="M73.5,60.5c0.7,0,1.4-0.2,2-0.8l10.9-10.9c1.1-1.1,1.1-2.8,0-3.8c-1.1-1.1-2.8-1.1-3.8,0l-9.1,9L70,50.3
		c-1.1-1.1-2.8-1.1-3.8,0c-1.1,1.1-1.1,2.8,0,3.8l5.5,5.5C72.1,60.2,72.8,60.5,73.5,60.5z"/>
	<path class="xht-faq" d="M59.3,46.7C56.4,33.3,43.6,24.3,30,26C16.5,27.7,6.7,39.5,7,52.7c0,1.2-0.3,25.9-0.4,34.1c0,1.1,1.2,1.7,2.1,1.1L24.2,77
		c4.5,1.6,9.2,2.1,13.9,1.3C52.8,75.8,62.5,61.4,59.3,46.7z M35.1,64.3c-0.4,0.5-1,0.7-1.6,0.7c-1.2,0-2.3-1-2.3-2.3s1-2.3,2.3-2.3
		c1.3,0,2.3,0.9,2.3,2.2C35.7,63.3,35.6,63.9,35.1,64.3z M37.6,51.4L36.8,52c-0.7,0.6-1.4,1.2-1.5,2.3c-0.1,0.8-0.1,1.6-0.1,2.4
		c0,0.2,0,0.3-0.1,0.4c0,0-0.1,0.1-0.4,0.1c-0.2,0-0.4,0-0.5,0h-0.9c-0.5,0-1.2,0-1.7,0c-0.2,0-0.3-0.1-0.3-0.3
		c-0.1-1.7,0-3.7,0.6-5.1c0.5-1,1.3-1.7,2.2-2.3c0.7-0.5,1.3-1,1.9-1.7c0.9-1.3,0.8-2.3,0.5-3c-0.5-1-1.7-1.6-3-1.6
		c-1.7,0-3,1-3.6,2.7c-0.2,0.5-0.2,0.6-0.5,0.6c-0.2,0-0.2,0-0.5,0c-0.9-0.2-1.9-0.2-2.9-0.4c-0.3,0-0.4-0.2-0.4-0.4
		c0.4-4.1,4.3-6.2,8-6.2c2.1,0,4.1,0.7,5.5,1.9c1.3,1.2,2.1,2.7,2.1,4.4C41.2,48.1,39.3,49.9,37.6,51.4z"/>
	<path class="xht-faq" d="M102.6,52.7c0.2-13.1-9.5-24.9-23.1-26.6c-8-1-15.7,1.6-21.3,6.7c1.1,1.3,2,2.8,2.9,4.3c4.5-4.5,11-6.9,17.7-6
		c10.8,1.4,18.8,10.6,18.7,21.6c0,0.9,0.2,15.9,0.3,26.9l-11.6-8.1l-2.5,0.9c-3.5,1.3-7.4,1.7-11.3,1c-4.4-0.7-8.3-2.7-11.3-5.8
		c-0.5,0.8-0.9,1.6-1.5,2.3c-0.5,0.6-0.9,1.3-1.4,2c3.6,3.3,8.1,5.6,13.3,6.6c4.7,0.8,9.5,0.4,13.9-1.3l15.5,10.9
		c0.9,0.6,2.1,0,2.1-1.1C102.9,78.6,102.6,53.8,102.6,52.7z"/>
</g>
</svg>
