<?xml version="1.0" encoding="utf-8"?>
<!-- Generator: Adobe Illustrator 23.0.3, SVG Export Plug-In . SVG Version: 6.00 Build 0)  -->
<svg version="1.2" baseProfile="tiny" id="Layer_1" xmlns="http://www.w3.org/2000/svg" xmlns:xlink="http://www.w3.org/1999/xlink"
	 x="0px" y="0px" viewBox="0 0 110 110" xml:space="preserve">
	<style type="text/css">
		.xht-pdf{fill:#292B2C;}
	</style>
<g>
	<path class="xht-pdf" d="M79.4,71.2c-1.2,0.4-3.1,0.4-5,0.1c-2.1-0.3-4.2-0.9-6.3-1.9c3.7-0.5,6.6-0.4,9.1,0.5C77.8,70.1,78.7,70.7,79.4,71.2
		 M58.6,67.8c-0.2,0-0.3,0.1-0.5,0.1c-1,0.3-2,0.5-2.9,0.8L53.9,69c-2.6,0.6-5.2,1.3-7.7,2.1c1-2.4,1.9-4.8,2.8-7.1
		c0.7-1.7,1.3-3.5,2-5.2c0.4,0.6,0.7,1.2,1.1,1.8C53.8,63.2,56,65.6,58.6,67.8 M52.1,41.1c0.2,2.9-0.5,5.7-1.4,8.4
		c-1.1-3.3-1.7-7-0.2-10c0.4-0.8,0.7-1.2,0.9-1.4C51.6,38.6,52,39.7,52.1,41.1 M38.7,78.1c-0.6,1.1-1.3,2.2-2,3.2
		c-1.6,2.4-4.3,5-5.6,5c-0.1,0-0.3,0-0.5-0.3c-0.2-0.2-0.2-0.3-0.2-0.4c0-0.9,1.2-2.5,2.9-4C35,80.3,36.7,79.1,38.7,78.1 M83.7,71.3
		c-0.2-3-5.2-4.9-5.3-4.9c-1.9-0.7-4-1-6.4-1c-2.6,0-5.3,0.4-8.9,1.2c-3.2-2.2-5.9-5-7.9-8.1c-0.9-1.4-1.7-2.7-2.4-4.1
		c1.7-4.1,3.3-8.5,3-13.5c-0.2-4-2-6.6-4.5-6.6c-1.7,0-3.1,1.2-4.3,3.7c-2.1,4.4-1.5,9.9,1.6,16.6c-1.1,2.7-2.2,5.5-3.2,8.1
		c-1.3,3.3-2.6,6.8-4.1,10.1c-4.2,1.6-7.6,3.6-10.4,6.1c-1.9,1.6-4.1,4.1-4.2,6.6c-0.1,1.2,0.3,2.3,1.2,3.2c0.9,0.9,2,1.4,3.2,1.4
		c4.1,0,8-5.6,8.7-6.7c1.5-2.3,2.9-4.8,4.3-7.7c3.5-1.2,7.1-2.2,10.7-3.1l1.3-0.3c1-0.2,2-0.5,3-0.8c1.1-0.3,2.2-0.6,3.3-0.9
		c3.7,2.3,7.6,3.8,11.4,4.4c3.2,0.5,6.1,0.2,8-0.8C83.6,73.3,83.7,71.9,83.7,71.3 M91.6,96.9c0,5.5-4.8,5.8-5.8,5.8h-62
		c-5.4,0-5.8-4.8-5.8-5.8V14.5c0-5.5,4.8-5.8,5.8-5.8h41.9l0,0v16.3c0,3.3,2,9.5,9.5,9.5h16.2l0.1,0.1
		C91.6,34.7,91.6,96.9,91.6,96.9z M87.7,30.9H75.2c-5.4,0-5.8-4.8-5.8-5.8V12.5L87.7,30.9z M95.3,96.9V33.2l-25.9-26V7.1h-0.1
		L67.2,5H23.8c-3.3,0-9.5,2-9.5,9.5v82.4c0,3.3,2,9.5,9.5,9.5h62C89.1,106.4,95.3,104.5,95.3,96.9"/>
</g>
</svg>
