<?xml version="1.0" encoding="utf-8"?>
<!-- Generator: Adobe Illustrator 23.1.0, SVG Export Plug-In . SVG Version: 6.00 Build 0)  -->
<svg version="1.2" baseProfile="tiny" id="Layer_1" xmlns="http://www.w3.org/2000/svg" xmlns:xlink="http://www.w3.org/1999/xlink"
	 x="0px" y="0px" viewBox="0 0 36 34.7" xml:space="preserve">
<style type="text/css">
	.xht-coin-stack{fill:#292B2C;}
</style>
<path class="xht-coin-stack" d="M19.7,14.1c-1.7-1-5.3-0.9-5.3-0.9c-0.1,0-0.2,0-0.3,0c-4.6,0-8.3,1.6-8.3,3.6c0,0.6,0,2.6,0,3.1c0,0.8,0.5,1.5,1.5,2.1
	c0,0.3,0,0.9,0,1.5c-1.8,0.7-3,1.7-3,2.8c0,0.6,0,2.6,0,3.1c0,2,3.7,3.6,8.3,3.6s8.3-1.6,8.3-3.6c0-0.3,0-1,0-1.7
	c1.8-0.7,3-1.7,3-2.8c0-0.6,0-2.6,0-3.1c0-0.8-0.5-1.5-1.5-2.1c0-0.6,0-2,0-2.7 M14.1,14.1c4.5,0,7.4,1.6,7.4,2.7s-2.9,2.7-7.4,2.7
	s-7.4-1.6-7.4-2.7S9.6,14.1,14.1,14.1z M21.5,18.5v1.4c0,0.3-0.2,0.6-0.5,0.9v-1.9C21.2,18.7,21.3,18.6,21.5,18.5z M20.3,19.2v2.1
	c-0.2,0.1-0.4,0.2-0.6,0.3v-2.1C19.9,19.4,20.1,19.3,20.3,19.2z M19.1,19.7v2.1c-0.2,0.1-0.4,0.1-0.6,0.2v-2.1
	C18.7,19.8,18.9,19.8,19.1,19.7z M17.9,20v2.2c-0.2,0-0.4,0.1-0.6,0.1v-2.2C17.4,20.1,17.6,20.1,17.9,20z M16.6,20.3v2.2
	c-0.2,0-0.5,0.1-0.7,0.1h-0.6c-0.3,0-0.5,0-0.8,0v-2.2c0.3,0,0.6,0,0.8,0h0.6C16.1,20.3,16.4,20.3,16.6,20.3z M13.8,20.4v2.2
	c-0.3,0-0.6,0-0.8,0h-0.6c-0.2,0-0.5-0.1-0.7-0.1v-2.2c0.2,0,0.5,0.1,0.7,0.1H13C13.2,20.4,13.5,20.4,13.8,20.4z M11,20.2v2.2
	c-0.2,0-0.4-0.1-0.6-0.1L9.8,22c-0.2-0.1-0.4-0.1-0.6-0.2v-2.1c0.2,0.1,0.4,0.1,0.6,0.2l0.6,0.2C10.6,20.1,10.8,20.1,11,20.2z
	 M7.3,20.8c-0.3-0.3-0.5-0.6-0.5-0.9v-1.4c0.2,0.1,0.3,0.3,0.5,0.4l0.6,0.3c0.2,0.1,0.4,0.2,0.6,0.3v2.1c-0.2-0.1-0.4-0.2-0.6-0.3
	L7.3,20.8z M8.7,23.8l0.6,0.3c0.2,0.1,0.4,0.2,0.6,0.3v2.1c-0.2-0.1-0.4-0.2-0.6-0.3l-0.6-0.4c-0.3-0.3-0.5-0.6-0.5-0.9v-1.4
	C8.4,23.6,8.5,23.7,8.7,23.8z M5.7,30.3c-0.3-0.3-0.5-0.6-0.5-0.9V28c0.2,0.1,0.3,0.3,0.5,0.4V30.3z M8.2,31.5
	c-0.2-0.1-0.4-0.1-0.6-0.2L7,31c-0.2-0.1-0.4-0.2-0.6-0.3v-2.1c0.2,0.1,0.4,0.2,0.6,0.3l0.6,0.2c0.2,0.1,0.4,0.1,0.6,0.2V31.5z
	 M9.4,31.8c-0.2,0-0.4-0.1-0.6-0.1v-2.2c0.2,0,0.4,0.1,0.6,0.1V31.8z M12.2,32.1c-0.3,0-0.6,0-0.8,0h-0.6c-0.2,0-0.5-0.1-0.7-0.1
	v-2.2c0.2,0,0.5,0.1,0.7,0.1h0.6c0.3,0,0.5,0,0.8,0V32.1z M5.2,26.3c0-0.6,0.7-1.3,2.1-1.8c0,0.2,0,0.3,0,0.4c0,2,3.7,3.6,8.3,3.6
	c0.3,0,0.5,0,0.8,0C15.3,28.8,14,29,12.6,29C8.1,29,5.2,27.4,5.2,26.3z M10.6,26.8v-2.1c0.2,0.1,0.4,0.1,0.6,0.2V27
	C11,27,10.8,26.9,10.6,26.8z M11.8,27.2V25c0.2,0,0.4,0.1,0.6,0.1l0.6,0.1c0.2,0,0.5,0.1,0.7,0.1v2.2c-0.2,0-0.5-0.1-0.7-0.1
	l-0.6-0.1C12.2,27.3,12,27.2,11.8,27.2z M14.4,27.6v-2.2c0.3,0,0.5,0,0.8,0h0.6c0.3,0,0.6,0,0.8,0v2.2c-0.3,0-0.5,0-0.8,0h-0.6
	C15,27.6,14.7,27.6,14.4,27.6z M15,31.9c-0.2,0-0.5,0.1-0.7,0.1h-0.6c-0.3,0-0.5,0-0.8,0v-2.2c0.3,0,0.6,0,0.8,0h0.6
	c0.2,0,0.5-0.1,0.7-0.1V31.9z M17.5,31.3c-0.2,0.1-0.4,0.1-0.6,0.2l-0.6,0.2c-0.2,0-0.4,0.1-0.6,0.1v-2.2c0.2,0,0.4-0.1,0.6-0.1
	l0.6-0.2c0.2-0.1,0.4-0.1,0.6-0.2V31.3z M18.1,27.4c-0.2,0-0.5,0.1-0.7,0.1v-2.2c0.2,0,0.5-0.1,0.7-0.1V27.4z M18.8,30.7
	c-0.2,0.1-0.4,0.2-0.6,0.3v-2.1c0.2-0.1,0.4-0.2,0.6-0.3V30.7z M19.3,27.2c-0.2,0-0.4,0.1-0.6,0.1v-2.2c0.2,0,0.4-0.1,0.6-0.1V27.2z
	 M19.9,29.4L19.9,29.4c0,0.3-0.2,0.6-0.5,0.9v-1.9c0.1-0.1,0.3-0.2,0.4-0.3h0.1V29.4z M20.5,26.8c-0.2,0.1-0.4,0.1-0.6,0.2v-2.1
	c0.2-0.1,0.4-0.1,0.6-0.2V26.8z M21.8,26.2c-0.2,0.1-0.4,0.2-0.6,0.3v-2.1c0.2-0.1,0.4-0.2,0.6-0.3V26.2z M22.9,24.9
	c0,0.3-0.2,0.6-0.5,0.9v-1.9c0.2-0.1,0.4-0.2,0.5-0.4V24.9z M22.9,21.8c0,1.1-2.9,2.7-7.4,2.7c-3.4,0-5.8-0.9-6.8-1.8
	c1.5,0.5,3.3,0.9,5.4,0.9c3.9,0,7.2-1.2,8.1-2.8C22.7,21.1,22.9,21.5,22.9,21.8z"/>
<path class="xht-coin-stack" d="M27.4,1.7H18l-4.7,8.1l2.5,4.4c3.5,0.3,5.7,1.7,5.7,2.6c0,0.4-0.3,0.8-0.9,1.2h6.8l4.7-8.1L27.4,1.7z M19.1,10.4H18v1.2
	h-1.3V8H18v1.3h1.1V10.4z M20.6,11.7h-1.3v-1.2V9.2V8h1.3V11.7z M24.3,11.7h-3.4V9.3h3.4v1h-2.1v0.2h0.2h2v1.2l1.5-1.9L24.3,8v1.1
	h-0.9h-1.2h-1.3V8h3.4h1.6l0.7,0.9L27.3,8h1.5l-3,3.7H24.3z M27.3,11.7L26.7,11l0.8-1l1.4,1.7H27.3z"/>
</svg>
