<?xml version="1.0" encoding="utf-8"?>
<!-- Generator: Adobe Illustrator 23.0.3, SVG Export Plug-In . SVG Version: 6.00 Build 0)  -->
<svg version="1.2" baseProfile="tiny" id="Layer_1" xmlns="http://www.w3.org/2000/svg" xmlns:xlink="http://www.w3.org/1999/xlink"
	 x="0px" y="0px" viewBox="0 0 110 110" xml:space="preserve">
<style type="text/css">
	.xht-email{fill:#292B2C;}
</style>
<g>
	<path class="xht-email" d="M14.1,63.7c0.6,1.2,1.3,2.3,2.3,3.3s2.3,1.8,3.8,2.3c1.4,0.7,3.2,0.9,5.1,0.9c1.6,0,2.9-0.1,4.1-0.4c1.2-0.2,2.2-0.7,3.1-1
		l0,0c1-0.4,1-1.9,0-2.4l-0.2-0.1c-0.8-0.4-1.8-0.4-2.7-0.1l0,0c-0.4,0.1-1,0.3-1.8,0.4c-0.7,0.1-1.6,0.1-2.7,0.1
		c-1.3,0-2.5-0.1-3.5-0.4c-0.9-0.3-1.8-0.8-2.5-1.4c-0.7-0.7-1.2-1.4-1.7-2.3c-0.4-0.8-0.7-1.8-0.8-2.8c-0.1-0.3-0.1-0.7-0.1-1.2
		c0-0.4-0.1-1-0.1-1.4c0-0.4,0.1-1,0.1-1.4c0-0.4,0-0.9,0.1-1.2c0.1-1,0.4-2,0.7-2.8c0.4-0.9,0.9-1.7,1.6-2.3
		c0.7-0.6,1.6-1.1,2.5-1.4s2.2-0.6,3.7-0.6c1.8,0,3.1,0.1,4.2,0.4c1.1,0.2,2,0.7,2.7,1.2c0.7,0.7,1.2,1.3,1.6,2.2s0.6,2,0.7,3.1
		c0.1,0.7,0.1,1.2,0.1,1.7c0,0.6,0,1.1-0.1,1.8c0,0.7-0.1,1.2-0.4,1.4c-0.2,0.2-0.7,0.4-1.1,0.4s-0.9-0.1-1.2-0.4
		c-0.3-0.3-0.4-0.7-0.4-1.2v-6.6c0-0.2-0.1-0.4-0.2-0.7c-0.1-0.1-0.4-0.2-0.7-0.2h-2c-0.2,0-0.4,0.1-0.7,0.2
		c-0.1,0.1-0.2,0.4-0.2,0.7v0.3c-0.3-0.4-0.7-0.8-1.1-1c-0.4-0.3-1.1-0.4-2-0.4c-0.8,0-1.4,0.1-2.1,0.4c-0.7,0.3-1.2,0.8-1.7,1.3
		c-0.4,0.7-0.8,1.3-1,2.1c-0.2,0.8-0.3,1.8-0.3,2.8c0,0.9,0.1,1.9,0.3,2.7c0.2,0.9,0.7,1.6,1.1,2.1c0.4,0.7,1,1,1.7,1.3
		c0.7,0.3,1.4,0.4,2.2,0.4c0.7,0,1.2,0,1.8-0.1c0.4-0.1,0.8-0.2,1.1-0.4c0.3-0.1,0.6-0.4,0.8-0.7c0.1-0.1,0.4-0.4,0.6-0.7
		c0.3,0.4,0.8,0.7,1.4,1c0.7,0.3,1.4,0.4,2.7,0.4c0.6,0,1.2-0.1,1.8-0.3c0.7-0.2,1.2-0.6,1.7-0.9c0.4-0.4,0.9-0.9,1.2-1.6
		c0.3-0.7,0.4-1.4,0.6-2.2c0-0.7,0.1-1.2,0.1-2c0-0.7-0.1-1.4-0.1-2c-0.1-1.4-0.4-2.8-0.9-4c-0.4-1.3-1.2-2.4-2.2-3.3
		c-1-1-2.3-1.8-3.9-2.3c-1.7-0.6-3.7-0.9-6.1-0.9c-2,0-3.8,0.3-5.3,0.9c-1.4,0.7-2.8,1.4-3.7,2.3c-1,1-1.8,2.1-2.3,3.3
		c-0.6,1.2-0.9,2.5-0.9,3.9c-0.1,0.3-0.1,0.7-0.1,1.2v3.2c0,0.4,0,0.9,0.1,1.2C13.2,61,13.6,62.4,14.1,63.7z M27,59.2
		c-0.4,0.4-0.9,0.7-1.7,0.7c-0.6,0-1.1-0.2-1.4-0.7c-0.4-0.4-0.7-1.2-0.7-2.3c0-1.1,0.2-1.9,0.7-2.3c0.4-0.4,1-0.7,1.4-0.7
		c0.7,0,1.2,0.2,1.7,0.7c0.4,0.4,0.7,1.2,0.7,2.3C27.6,57.9,27.3,58.6,27,59.2z"/>
	<path class="xht-email" d="M100.2,33.7H10.5c-4.3,0-7.8,3.5-7.8,7.8v30.8c0,4.3,3.5,7.8,7.8,7.8h89.8c4.3,0,7.8-3.5,7.8-7.8V41.4
		C108,37.1,104.5,33.7,100.2,33.7z M44,75.4H10.5c-1.8,0-3.1-1.4-3.1-3.1V41.4c0-1.8,1.4-3.1,3.1-3.1H44V75.4z M97.8,70.1
		c-0.4,0.6-1.1,0.8-1.8,0.8c-0.6,0-1.1-0.2-1.6-0.6L82.4,59.6l-4.9,4.2c-0.4,0.3-1,0.6-1.6,0.6c-0.6,0-1.1-0.2-1.6-0.6l-5-4.2
		L57.4,70.3c-0.4,0.4-1,0.6-1.6,0.6c-0.7,0-1.3-0.2-1.8-0.8c-0.9-1-0.8-2.4,0.2-3.3l11.6-10.3l-11.5-9.6c-1-0.8-1.1-2.3-0.2-3.3
		c0.8-1,2.3-1.1,3.3-0.2L76,59l18.6-15.7c1-0.8,2.4-0.7,3.3,0.2c0.8,1,0.7,2.4-0.2,3.3l-11.5,9.8l11.6,10.3
		C98.6,67.7,98.7,69.2,97.8,70.1z"/>
</g>
</svg>
