<?xml version="1.0" encoding="utf-8"?>
<!-- Generator: Adobe Illustrator 24.1.3, SVG Export Plug-In . SVG Version: 6.00 Build 0)  -->
<svg version="1.2" baseProfile="tiny" id="Layer_1" xmlns="http://www.w3.org/2000/svg" xmlns:xlink="http://www.w3.org/1999/xlink"
	 x="0px" y="0px" viewBox="0 0 77.5 71.5" overflow="visible" xml:space="preserve">
	<style type="text/css">
		.xlm-icon{fill:#808285;}
	</style>
<polygon points="66.9,48.4 52.2,48.4 52.2,30.8 38.5,44.4 24.9,30.8 24.9,48.4 10,48.4 10,44.4 20.9,44.4 20.9,21.2 
	38.5,38.8 56.2,21.1 56.2,44.4 66.9,44.4 " class="xlm-icon"/>
<g>
	<g>
		<g transform="matrix(0.26458333,0,0,0.26458333,-33.403463,56.772625)">
			<path d="M271.9-199.5c-66.2,0-120,53.8-120,120s53.8,120,120,120s120-53.8,120-120S338.1-199.5,271.9-199.5z
				 M271.9-187.5c59.7,0,108,48.3,108,108s-48.3,108-108,108s-108-48.3-108-108S212.2-187.5,271.9-187.5z" class="xlm-icon"/>
		</g>
	</g>
</g>
</svg>
