<?xml version="1.0" encoding="utf-8"?>
<!-- Generator: Adobe Illustrator 23.0.3, SVG Export Plug-In . SVG Version: 6.00 Build 0)  -->
<svg version="1.1" id="Layer_1" xmlns="http://www.w3.org/2000/svg" xmlns:xlink="http://www.w3.org/1999/xlink" x="0px" y="0px"
	 viewBox="0 0 77.5 71.5" style="enable-background:new 0 0 77.5 71.5;" xml:space="preserve">
	<style type="text/css">
		.xrp-icon{fill:#414042;}
	</style>
<g>
	<g transform="matrix(0.26458333,0,0,0.26458333,-33.403463,56.772625)">
		<path class="xrp-icon" d="M271.9-199.5c-66.2,0-120,53.8-120,120s53.8,120,120,120s120-53.8,120-120S338.1-199.5,271.9-199.5z M271.9-187.5
			c59.7,0,108,48.3,108,108s-48.3,108-108,108s-108-48.3-108-108S212.2-187.5,271.9-187.5z"/>
	</g>
</g>
<path class="xrp-icon" d="M20.6,50.6h5.1l8.5-8.4c0,0,1.7-1.6,4.3-1.6c2.6,0,4.2,1.6,4.2,1.6l8.6,8.5h5.2L45.8,40c0,0-2.8-3-7.2-3s-7,2.9-7,2.9
	L20.6,50.6z"/>
<path class="xrp-icon" d="M56.5,20.8h-5.1l-8.5,8.4c0,0-1.7,1.6-4.3,1.6s-4.2-1.6-4.2-1.6l-8.6-8.5h-5.2l10.8,10.6c0,0,2.8,3,7.2,3s7-2.9,7-2.9
	L56.5,20.8z"/>
</svg>
