<?xml version="1.0" encoding="utf-8"?>
<!-- Generator: Adobe Illustrator 23.0.3, SVG Export Plug-In . SVG Version: 6.00 Build 0)  -->
<svg version="1.2" baseProfile="tiny" id="Layer_1" xmlns="http://www.w3.org/2000/svg" xmlns:xlink="http://www.w3.org/1999/xlink"
	 x="0px" y="0px" viewBox="0 0 62 62" xml:space="preserve">
<style type="text/css">
	.account-summary{fill:none;stroke:#B7B5CD;stroke-miterlimit:10;}
	.account-summary1{fill:#BBBDBF;}
</style>
<path class="account-summary" stroke-miterlimit="10" d="M-113.3,71.2"/>
<path class="account-summary1" d="M31.1,58.9c-6.8,0-13.6-2.1-19.3-6.4l-0.9-0.7l0-9.9c0-8.3,6.7-15,15-15h3.3c-5.9-0.7-10.4-5.7-10.4-11.8
	c0-6.5,5.3-11.8,11.8-11.8c6.4,0,11.7,5.2,11.8,11.6l0,0l0,0.3c0,6-4.6,11-10.4,11.7h4.4c8.3,0,15,6.7,15,15v9.8l-0.9,0.7
	C44.8,56.8,38,58.9,31.1,58.9z M15.5,49.5c9.4,6.4,22,6.4,31.3-0.1V42c0-5.7-4.6-10.4-10.4-10.4H25.9c-5.7,0-10.4,4.6-10.4,10.4
	L15.5,49.5z M30.6,8c-3.9,0-7.2,3.2-7.2,7.1c0,4,3.2,7.2,7.1,7.2c0,0,0,0,0,0c3.9,0,7-3.1,7.2-6.9l0,0v-0.2C37.8,11.3,34.6,8,30.6,8
	z"/>
</svg>
