<?xml version="1.0" encoding="utf-8"?>
<!-- Generator: Adobe Illustrator 22.1.0, SVG Export Plug-In . SVG Version: 6.00 Build 0)  -->
<svg version="1.1" id="Layer_1" xmlns="http://www.w3.org/2000/svg" xmlns:xlink="http://www.w3.org/1999/xlink" x="0px" y="0px"
	 viewBox="0 0 107 107" style="enable-background:new 0 0 107 107;" xml:space="preserve">
<style type="text/css">
	.st0{fill:#F6921E;stroke:#F6921E;stroke-width:0.3184;stroke-miterlimit:10;}
	.st1{fill:#231F20;stroke:#231F20;stroke-width:0.3184;stroke-miterlimit:10;}
	.st2{fill:#F6921E;stroke:#F6921E;stroke-width:0.3248;stroke-miterlimit:10;}
	.st3{fill:#231F20;}
	.st4{fill:#F6921E;}
	.st5{fill:#454162;}
	.st6{fill:#B6B5CD;}
	.st7{fill:#454162;stroke:#F6921E;stroke-width:0.3248;stroke-miterlimit:10;}
	.st8{fill:#B6B5CD;stroke:#B6B5CD;stroke-width:2;stroke-miterlimit:10;}
	.st9{stroke:#000000;stroke-width:2;stroke-miterlimit:10;}
	.st10{fill:#29ABE2;}
</style>
<g>
	<g transform="translate(0,-952.36218)">
		<path class="st9" d="M98.8,1003.7c-0.2,0.1-0.4,0.2-0.6,0.3c-3.6,3.7-12,10.9-16.7,15.6c-0.6,0.4-0.7,1.3-0.2,1.8s1.4,0.4,1.8-0.1
			c4.5-4.4,12.4-11.2,16.4-15.2c1,0.1,1.7,0.4,2.2,1c0.6,0.7,0.9,1.8,1,3.1c0.2,2.6-0.9,5.8-2,6.9c0,0,0,0,0,0.1
			c-9.8,11.4-17.1,17.5-27.1,27.1H32c-0.3,0-0.6,0.1-0.8,0.3l-9.6,8.4c-0.5,0.4-0.6,1.3-0.2,1.8c0.4,0.5,1.3,0.5,1.8,0l9.2-8.1h41.5
			c0.3,0,0.6-0.1,0.8-0.3c10.1-9.8,17.6-16,27.6-27.6c0,0,0-0.1,0-0.1c1.9-2,2.9-5.5,2.7-8.7c-0.1-1.6-0.5-3.2-1.5-4.5
			c-1-1.2-2.6-2-4.5-2C98.9,1003.7,98.9,1003.7,98.8,1003.7L98.8,1003.7z M25.8,1020.4c-0.2,0-0.3,0.1-0.5,0.2
			c-19.7,14.3-14.6,10.5-22.8,16.8c-0.6,0.3-0.8,1.2-0.4,1.8c0.4,0.5,1.3,0.6,1.8,0.2c8.1-6.2,3.6-2.9,22.5-16.5h46.7
			c1,1.5,0.8,3.5-0.2,5.2c-1.2,1.9-3.2,3.3-4.9,3.1c-6.4,0-12.9,0-19.3,0c-0.6,0-1.2,0.6-1.2,1.2c0,0.6,0.6,1.2,1.2,1.2h19.2
			c0.8,0,1.9-0.2,2.5-0.4c1.9-0.7,3.5-2.2,4.6-3.9c1.5-2.5,2-5.9-0.2-8.5c-0.2-0.3-0.6-0.4-0.9-0.4
			C57.9,1020.4,41.8,1020.4,25.8,1020.4L25.8,1020.4z"/>
	</g>
	<path class="st10" d="M57.3,20.1L44.7,4c-0.5-0.6-1.3-0.9-2.1-0.8l0,0c-0.5,0.1-1,0.4-1.3,0.8L28.7,20.1c-0.5,0.6-0.6,1.5-0.2,2.2
		s1.1,1.2,1.9,1.2h5.9v22c0,1.1,1,2.1,2.2,2.1l2.4,0c2.3,0,4.6,0,6.8,0c1.1,0,2.1-1,2.1-2.1v-22h5.9c0.8,0,1.5-0.5,1.9-1.2
		C57.9,21.5,57.8,20.7,57.3,20.1z M47.6,20.3c-0.6,0-1.1,0.5-1.1,1.1v23c-2.3,0-4.6,0-6.9,0v-23c0-0.6-0.5-1.1-1.1-1.1h-5.7L43,7.1
		l10.3,13.1H47.6z"/>
	<path class="st4" d="M84.2,37.5c-0.4-0.7-1.1-1.2-1.8-1.2h-5.9v-22c0-1.1-1-2.1-2.2-2.1c-2.5,0-5.1,0-7.4,0l-2,0l-0.2,0
		c-1,0.2-1.8,1.1-1.7,2.1v22l-5.9,0c-0.8,0-1.5,0.5-1.8,1.2s-0.3,1.6,0.2,2.2L68,55.8c0.4,0.5,1,0.8,1.7,0.8s1.3-0.3,1.7-0.8
		l12.7-16.1C84.5,39.1,84.6,38.2,84.2,37.5z M69.7,52.6L59.4,39.6h5.7c0.6,0,1.1-0.5,1.1-1.1v-23c2.3,0,4.6,0,6.9,0v23
		c0,0.6,0.5,1.1,1.1,1.1H80L69.7,52.6z"/>
</g>
</svg>
