<?xml version="1.0" encoding="utf-8"?>
<!-- Generator: Adobe Illustrator 23.0.0, SVG Export Plug-In . SVG Version: 6.00 Build 0)  -->
<svg version="1.1" id="Layer_1" xmlns="http://www.w3.org/2000/svg" xmlns:xlink="http://www.w3.org/1999/xlink" x="0px" y="0px"
	 viewBox="0 0 124.77 118.57" style="enable-background:new 0 0 124.77 118.57;" xml:space="preserve">
<g>
	<path d="M58.27,84.51l3.87-1.18l1.46,4.82c0.35,1.15,1.57,1.8,2.71,1.44c1.15-0.35,1.8-1.57,1.44-2.71l-1.46-4.82l1.38-0.41
		l1.46,4.82c0.35,1.15,1.57,1.8,2.71,1.44c1.15-0.35,1.8-1.57,1.44-2.71l-1.46-4.82l0.55-0.17c4.86-1.47,7.6-6.61,6.13-11.46
		l-0.24-0.81c-1.04-3.43-3.91-5.8-7.22-6.38c1.23-2.12,1.61-4.72,0.84-7.24c-1.31-4.33-5.54-6.98-9.89-6.46l-1.5-4.95
		c-0.35-1.15-1.57-1.8-2.71-1.44c-1.15,0.35-1.8,1.57-1.44,2.71l1.46,4.82l-1.38,0.41l-1.46-4.82c-0.35-1.15-1.57-1.8-2.71-1.44
		c-1.15,0.35-1.8,1.57-1.44,2.71l1.46,4.82l-3.87,1.18c-1.15,0.35-1.8,1.57-1.44,2.71L51.02,68c0.04,0.14,0.09,0.26,0.16,0.4
		c0.01,0.14,0.04,0.27,0.08,0.41l4.32,14.25C55.92,84.2,57.13,84.85,58.27,84.51z M51.72,55.39l9.95-3.02
		c2.55-0.78,5.28,0.67,6.06,3.24c0.78,2.57-0.67,5.28-3.24,6.06l-9.95,3.02L51.72,55.39z M56.02,69.63l12.01-3.64
		c2.55-0.77,5.28,0.67,6.06,3.24l0.24,0.81c0.78,2.55-0.67,5.28-3.24,6.06l-12.01,3.64L56.02,69.63z" class="bch-icon-nav" />
</g>
<path d="M56.17,25.7v-4.36H4.07H0v4.36v78.48v4.36h56.17v-4.36c-20.24,0-36.6-17.55-36.6-39.25S35.93,25.7,56.17,25.7z M15.51,64.93
	c0,17.24,9.37,32.17,22.94,39.25H4.07V25.7h34.38C24.87,32.76,15.51,47.69,15.51,64.93z" class="bch-icon-nav"/>
<path d="M68.6,104.18v4.36h52.1h4.07v-4.36V25.7v-4.36H68.6v4.36c20.24,0,36.6,17.55,36.6,39.25S88.84,104.18,68.6,104.18z
	 M109.26,64.93c0-17.24-9.37-32.17-22.94-39.25h34.38v78.48H86.32C99.9,97.11,109.26,82.18,109.26,64.93z" class="bch-icon-nav"/>
</svg>
