<?xml version="1.0" encoding="utf-8"?>
<!-- Generator: Adobe Illustrator 22.1.0, SVG Export Plug-In . SVG Version: 6.00 Build 0)  -->
<svg version="1.1" id="Layer_1" xmlns="http://www.w3.org/2000/svg" xmlns:xlink="http://www.w3.org/1999/xlink" x="0px" y="0px"
	 viewBox="0 0 207 207" style="enable-background:new 0 0 207 207;" xml:space="preserve">
<style type="text/css">
	.st0{fill:#B6B5CD;}
	.st1{fill:#ED507B;}
</style>
<path class="st0" d="M202.8,161.3h-10.3v-54.9c0-1.6-1.2-2.8-2.8-2.8c-1.6,0-2.8,1.2-2.8,2.8v54.9H19.3V60c0-3.4,2.6-5.9,5.9-5.9
	h35.9c1.6,0,2.8-1.2,2.8-2.8s-1.2-2.8-2.8-2.8H25.2c-6.3,0-11.5,5.1-11.5,11.5v101.3H3.7c-1.6,0-2.8,1.2-2.8,2.8v8.7
	c0,11.1,8.9,19.9,19.9,19.9h164.5c11.1,0,19.9-9.1,19.9-20.1v-8.5C205.5,162.5,204.3,161.3,202.8,161.3z M200,172.8
	c0,8.1-6.5,14.6-14.6,14.6H20.8c-8.1,0-14.6-6.5-14.6-14.6v-5.9H200L200,172.8z"/>
<path class="st0" d="M154.8,51.3H153v-7.1c0-7.7-6.3-14-14-14s-14,6.3-14,14v7.1h-2c-1.6,0-2.8,1.2-2.8,2.8v23.7
	c0,1.6,1.2,2.8,2.8,2.8h31.8c1.6,0,2.8-1.2,2.8-2.8V54.1C157.5,52.5,156.3,51.3,154.8,51.3z M130.3,44.2c0-4.7,4-8.7,8.7-8.7
	c4.7,0,8.7,4,8.7,8.7v7.1h-17.4V44.2z M152.2,74.8H152h-26.3V56.7h26.5V74.8z"/>
<path class="st1" d="M138.8,67.7c1.6,0,2.8-1.2,2.8-2.8v-3c0-1.6-1.2-2.8-2.8-2.8c-1.6,0-2.8,1.2-2.8,2.8v3
	C136.2,66.5,137.4,67.7,138.8,67.7z"/>
<path class="st0" d="M189.7,14H85.8C77.1,14,70,21.1,70,29.8v37.1c0,1.6,1.2,2.8,2.8,2.8c1.6,0,2.8-1.2,2.8-2.8V29.8
	c0-5.7,4.5-10.3,10.3-10.3h103.9c5.7,0,10.3,4.5,10.3,10.3v51.9c0,5.7-4.5,10.3-10.3,10.3h-34.6c-0.8,0-1.4,0.2-2,0.8l-31.6,31.6
	c-0.6,0.6-1.6,0.6-2.4,0c-0.4-0.4-0.4-0.8-0.4-1.2V94.8c0-1.6-1.2-2.8-2.8-2.8h-15.4c-1.6,0-2.8,1.2-2.8,2.8c0,1.6,1.2,2.8,2.8,2.8
	h12.8v25.9c0,4,3.2,7.1,7.1,7.1c1.8,0,3.8-0.8,4.9-2l30.8-30.8h33.6c8.7,0,15.8-7.1,15.8-15.8V29.8C205.5,21.1,198.4,14,189.7,14z"
	/>
<path class="st0" d="M106.5,156.2c1.5,0,2.7-1.1,2.7-2.7v-5.7c0-14.7-27.6-21.1-36.2-21.1c-10.5,0-36.2,7.5-36.2,21.1v5.7
	c0,1.5,1.1,2.7,2.7,2.7s2.7-1.1,2.7-2.7v-5.7c0-9.2,21.6-15.9,31-15.9c9.2,0,31,6.7,31,15.9v5.7C103.8,155.1,105,156.2,106.5,156.2z
	"/>
<path class="st0" d="M73,76.6C61.9,76.6,53,85.5,53,96.6v4.5c0,11.1,9.1,19.9,20.1,19.9c11.1,0,19.9-8.9,19.9-19.9v-4.5
	C92.9,85.7,83.9,76.6,73,76.6z M87.4,101.1c0,8.1-6.5,14.6-14.6,14.6c-8.1,0-14.6-6.5-14.6-14.6v-4.5c0-8.1,6.5-14.6,14.6-14.6
	c8.1,0,14.6,6.5,14.6,14.6V101.1z"/>
<path class="st0" d="M94.5,179.9h21.7c1.6,0,2.8-1.2,2.8-2.8c0-1.6-1.2-2.8-2.8-2.8H94.5c-1.6,0-2.8,1.2-2.8,2.8
	C91.8,178.5,93.1,179.9,94.5,179.9z"/>
</svg>
