<?xml version="1.0" encoding="utf-8"?>
<!-- Generator: Adobe Illustrator 23.0.0, SVG Export Plug-In . SVG Version: 6.00 Build 0)  -->
<svg version="1.2" baseProfile="tiny" id="Layer_1" xmlns="http://www.w3.org/2000/svg" xmlns:xlink="http://www.w3.org/1999/xlink"
	 x="0px" y="0px" viewBox="0 0 32.7 32.7" xml:space="preserve">
<style type="text/css">
	.eur {fill:#00A551}
</style>
<g>
	<g>
		<g transform="matrix(0.26458333,0,0,0.26458333,-33.403463,56.772625)">
			<path class="eur" d="M188.05-214.57c-34.1,0-61.8,27.71-61.8,61.8s27.71,61.8,61.8,61.8s61.8-27.71,61.8-61.8
				S222.15-214.57,188.05-214.57z M188.05-208.39c30.76,0,55.62,24.87,55.62,55.62s-24.87,55.62-55.62,55.62
				s-55.62-24.87-55.62-55.62S157.3-208.39,188.05-208.39z"/>
		</g>
	</g>
	<g>
		<path class="eur" d="M9.32,17.19h1.26v-1.51H8.97l0.35-2.25h1.51c0.15-0.84,0.38-1.63,0.7-2.37c0.32-0.74,0.74-1.38,1.26-1.93
			c0.52-0.54,1.14-0.98,1.88-1.3c0.73-0.32,1.59-0.48,2.56-0.48c1.78,0,3.1,0.42,3.97,1.25c0.87,0.83,1.41,2.07,1.62,3.72
			l-3.09,0.49c-0.18-0.89-0.46-1.52-0.83-1.89c-0.37-0.37-0.97-0.56-1.79-0.56c-0.79,0-1.41,0.29-1.87,0.87
			c-0.45,0.58-0.77,1.31-0.95,2.2h3.96l-0.35,2.25h-3.88v1.51h3.71l-0.37,2.25h-3.07c0.18,0.87,0.49,1.58,0.94,2.11
			c0.45,0.54,1.05,0.8,1.83,0.8c0.89,0,1.55-0.21,1.97-0.64c0.42-0.43,0.68-1.09,0.78-1.98h3.24c-0.13,1.85-0.69,3.24-1.67,4.19
			c-0.98,0.95-2.44,1.42-4.39,1.42c-0.94,0-1.76-0.14-2.47-0.42c-0.71-0.28-1.32-0.68-1.82-1.19c-0.5-0.51-0.91-1.13-1.22-1.85
			c-0.31-0.73-0.54-1.54-0.69-2.45H8.97L9.32,17.19z"/>
	</g>
</g>
</svg>
