<?xml version="1.0" encoding="utf-8"?>
<!-- Generator: Adobe Illustrator 23.0.3, SVG Export Plug-In . SVG Version: 6.00 Build 0)  -->
<svg version="1.2" baseProfile="tiny" id="Layer_1" xmlns="http://www.w3.org/2000/svg" xmlns:xlink="http://www.w3.org/1999/xlink"
	 x="0px" y="0px" viewBox="0 0 77.5 71.5" xml:space="preserve">
<style type="text/css">
	.hex_icon{fill:#a3a1ca;}
</style>
<g>
	<path class="hex_icon" d="M54.4,63H22.8L6.9,35.6L22.8,8.2h31.6l15.8,27.4L54.4,63z M24.9,59.3h27.4l13.7-23.7L52.3,11.8H24.9
		L11.2,35.6L24.9,59.3z"/>
	<path class="hex_icon" d="M48.1,52.1H29l-9.6-16.6L29,19h19.1l9.6,16.6L48.1,52.1z M30,50.4h17.1l8.5-14.8l-8.5-14.8H30l-8.5,14.8
		L30,50.4z"/>
	<path class="hex_icon" d="M42.6,42.6h-8.1l-4-7l4-7h8.1l4,7L42.6,42.6z M35.6,40.8h6l3-5.2l-3-5.2h-6l-3,5.2L35.6,40.8z"/>
</g>
</svg>
