<?xml version="1.0" encoding="utf-8"?>
<!-- Generator: Adobe Illustrator 22.1.0, SVG Export Plug-In . SVG Version: 6.00 Build 0)  -->
<svg version="1.1" id="Layer_1" xmlns="http://www.w3.org/2000/svg" xmlns:xlink="http://www.w3.org/1999/xlink" x="0px" y="0px"
	 viewBox="0 0 148.4 148.4" style="enable-background:new 0 0 148.4 148.4;" xml:space="preserve">
<style type="text/css">
	.st0{fill:#5D5D5D;}
	.st1{opacity:0.5;fill:#D0D2D3;}
	.st2{fill:#929497;}
	.st3{fill:#FFFFFF;}
	.st4{fill:none;stroke:#21201F;stroke-miterlimit:10;}
	.st5{fill:none;stroke:#CBCACA;stroke-miterlimit:10;}
	.st6{fill:#1F212A;}
	.st7{fill:#454162;}
	.st8{opacity:0.44;fill:#231F20;}
	.st9{fill:#231F20;}
	.st10{fill:none;stroke:#B6B5CD;stroke-width:0.9815;stroke-miterlimit:10;}
	.st11{fill:#B6B5CD;}
	.st12{fill:none;stroke:#B6B5CD;stroke-width:2;stroke-miterlimit:10;}
	.st13{fill:#21201F;}
	.st14{fill:none;stroke:#231F20;stroke-width:2;stroke-miterlimit:10;}
	.st15{fill:none;stroke:#FFFFFF;stroke-width:2;stroke-miterlimit:10;}
	.st16{fill:none;stroke:#231F20;stroke-miterlimit:10;}
</style>
<g>
	<path class="st9" d="M74.2,0C33.2,0,0,33.2,0,74.2s33.2,74.2,74.2,74.2s74.2-33.2,74.2-74.2l0,0C148.4,33.2,115.2,0,74.2,0z
		 M74.2,130.6c-31.2,0-56.4-25.5-56.4-56.6c0-31.2,25.3-56.4,56.4-56.4s56.4,25.3,56.4,56.4c0,0.1,0,0.1,0,0.2
		C130.6,105.3,105.3,130.6,74.2,130.6L74.2,130.6L74.2,130.6z"/>
	<path class="st9" d="M90.6,45.1c-5-3.4-11-5.1-17.1-4.9c-4.7-0.1-9.3,1.1-13.3,3.6c-5.8,3.7-8.8,9.8-9.1,18.4h13.3
		c0-2.6,0.8-5.2,2.2-7.3c1.7-2.5,4.6-3.8,7.6-3.6c3.6,0,6,1,7.3,2.9c1.3,1.9,2,4.1,2,6.4c0,2-0.6,3.9-1.8,5.6
		c-0.7,1-1.6,1.9-2.7,2.7l-3.3,2.7c-2.6,1.7-4.8,4.1-6.2,6.9c-1.1,3.5-1.6,7-1.6,10.7h12.4c0-1.8,0.2-3.6,0.7-5.3
		c0.5-2,1.7-3.8,3.3-5.1l3.3-2.4c2.5-1.8,4.7-3.9,6.7-6.2c2-2.9,3-6.4,2.9-10C97.8,54.2,95.2,48.6,90.6,45.1z"/>
	<rect x="67.7" y="95.1" class="st9" width="13.8" height="13.2"/>
</g>
</svg>
