<?xml version="1.0" encoding="utf-8"?>
<!-- Generator: Adobe Illustrator 19.0.0, SVG Export Plug-In . SVG Version: 6.00 Build 0)  -->
<svg version="1.1" id="Layer_1" xmlns="http://www.w3.org/2000/svg" xmlns:xlink="http://www.w3.org/1999/xlink" x="0px" y="0px"
	 viewBox="0 0 72 72.1" style="enable-background:new 0 0 72 72.1;" xml:space="preserve">
<g id="XMLID_4_">
	<path id="XMLID_57_" d="M0,0v72.1h35.9H72V0H0z M43.8,29c-1.9-1.9-4.5-3.1-7.4-3.1c-2.9,0-5.5,1.2-7.4,3.1H16.2v-5.3
		c0-2.7,1.3-5.1,3.4-6.5v8.6h1.6v-9.5c0.4-0.1,0.8-0.3,1.2-0.4v9.9H24V15.7c0.1,0,0.1,0,0.2,0h0.9v10.1h1.6V15.7h21.9
		c4.4,0,8,3.6,8,8h0V29H43.8z M44.4,36.2c0,4.4-3.6,8-8,8c-4.4,0-8-3.6-8-8c0-2.4,1.1-4.5,2.7-6c0.6-0.5,1.2-0.9,2-1.3
		c1-0.5,2.1-0.7,3.3-0.7c1.2,0,2.3,0.3,3.3,0.7c0.7,0.3,1.4,0.8,2,1.3C43.3,31.7,44.4,33.9,44.4,36.2z M24.2,56.4c-4.4,0-8-3.6-8-8
		V30.2h11.8c-1.2,1.7-1.9,3.8-1.9,6c0,5.7,4.6,10.4,10.4,10.4c5.7,0,10.4-4.6,10.4-10.4c0-2.2-0.7-4.3-1.9-6h11.8v18.2
		c0,4.4-3.6,8-8,8H24.2z"/>
	<circle id="XMLID_6_" cx="36.4" cy="36.2" r="5.9"/>
	<path id="XMLID_5_" d="M51.7,19.1h-4.3c-0.7,0-1.3,0.6-1.3,1.3v4.4c0,0.7,0.6,1.3,1.3,1.3h4.3c0.7,0,1.3-0.6,1.3-1.3v-4.4
		C53,19.6,52.4,19.1,51.7,19.1z"/>
</g>
</svg>
