<?xml version="1.0" encoding="utf-8"?>
<!-- Generator: Adobe Illustrator 19.0.0, SVG Export Plug-In . SVG Version: 6.00 Build 0)  -->
<svg version="1.1" id="Layer_1" xmlns="http://www.w3.org/2000/svg" xmlns:xlink="http://www.w3.org/1999/xlink" x="0px" y="0px"
	 viewBox="-443 244.9 72 72.1" style="enable-background:new -443 244.9 72 72.1;" xml:space="preserve">
<style type="text/css">
	.st0{fill:#3A3A3A;}
	.st1{fill:#FFFFFF;}
</style>
<path id="XMLID_4_" class="st0" d="M-371,244.9h-72V317h72V244.9z"/>
<g id="g3885" transform="translate(297.22034,0)">
	<path id="path9" class="st1" d="M-686.3,265l-37.5,14.4c-2.6,1-2.5,2.5-0.5,3.1l9.3,2.9l3.6,11c0.4,1.2,0.2,1.7,1.5,1.7
		c1,0,1.4-0.4,1.9-1c0.3-0.3,2.4-2.3,4.7-4.5l9.7,7.2c1.8,1,3.1,0.5,3.5-1.7l6.4-30.1C-682.9,265.4-684.6,264.2-686.3,265z
		 M-713.4,284.8l21.1-13.3c1.1-0.6,2-0.3,1.2,0.4l-18,16.3l-0.7,7.5L-713.4,284.8z"/>
</g>
</svg>
