<?xml version="1.0" encoding="utf-8"?>
<!-- Generator: Adobe Illustrator 22.1.0, SVG Export Plug-In . SVG Version: 6.00 Build 0)  -->
<svg version="1.1" id="Layer_1" xmlns="http://www.w3.org/2000/svg" xmlns:xlink="http://www.w3.org/1999/xlink" x="0px" y="0px"
	 viewBox="0 0 189 189" style="enable-background:new 0 0 189 189;" xml:space="preserve">
<style type="text/css">
	.st0{fill:#5D5D5D;}
	.st1{opacity:0.5;fill:#D0D2D3;}
	.st2{fill:#FFFFFF;}
	.st3{fill:#21201F;}
	.st4{fill:none;stroke:#B6B5CD;stroke-width:0.9815;stroke-miterlimit:10;}
	.st5{fill:#FAAF40;}
	.st6{fill:none;stroke:#000000;stroke-width:9;stroke-linecap:round;stroke-miterlimit:10;}
	.st7{fill:none;stroke:#FFFFFF;stroke-width:9;stroke-linecap:round;stroke-miterlimit:10;}
	.st8{fill:#00A651;}
	.st9{fill:#1F212A;}
	.st10{fill:#454162;}
	.st11{fill:#B6B5CD;}
	.st12{fill:none;stroke:#454162;stroke-width:9;stroke-linecap:round;stroke-miterlimit:10;}
	.st13{fill:none;stroke:#1F212A;stroke-width:9;stroke-linecap:round;stroke-miterlimit:10;}
</style>
<g>
	<path id="XMLID_48_" class="st5" d="M107.2,149.1l8.4,0.3c0,0-5.2,14.9-19.8,18.5c-14.6,3.6-35-3.6-38.6-6.2
		c-3.6-2.6-25.6-14.9-33.7-28.9S-2.1,93.3,5.4,77.4s18.5-23.3,18.5-23.3l4.9-2.3c0,0-4.5,12.6-3.2,23.3s11,33.1,15.9,38.3
		c4.9,5.2,25.9,23.7,35.7,28.2C86.8,146.2,103,148.7,107.2,149.1z"/>
	<path id="XMLID_47_" d="M187.3,85.2l-34.4-34.8c-1.5-1.5-3.5-1.5-4.9,0c-0.7,0.7-0.9,1.8-0.9,2.9c0,0.2,0,0.2,0,0.4v18h-14.2
		c-2,0-3.7,1.3-3.7,3.3s1.7,3.3,3.7,3.3h17.5c2,0,3.4-1.2,3.4-3.3V62l25.6,25.8l-25.6,25.8v-12.3c0-2-1.4-3.9-3.4-3.9h-14.5
		c-2,0-3.7,1.8-3.7,3.8c0,2,1.7,3.8,3.7,3.8H147v17.6l0,0c0,0.2,0,0.6,0,0.7c0,0.2-0.2,0.2,0,0.4c0,0.2-0.1,0.2,0.1,0.4
		c0,0.2,0.1,0.2,0.1,0.4c0,0,0,0.2,0.2,0.2c0.2,0.2,0.4,0.4,0.5,0.6l0,0l0,0c0.2,0.2,0.4,0.4,0.5,0.4l0.2,0.2c0.2,0,0.2,0.2,0.4,0.2
		c0.2,0,0.2-0.2,0.4,0c0.2,0,0.2,0,0.4,0s0.6,0,0.7,0c0.2,0,0.6,0,0.7,0s0.2,0.2,0.4,0c0.2,0,0.2,0.1,0.4-0.1c0.2,0,0.2-0.1,0.4-0.1
		s0.2,0,0.4-0.2c0.2-0.2,0.4-0.4,0.6-0.5l0,0l34.4-34.6C188.7,88.9,188.7,86.5,187.3,85.2z"/>
	<path id="XMLID_46_" d="M123.3,97.3h-9.7c-2,0-3.7,1.8-3.7,3.8c0,2,1.7,3.8,3.7,3.8h9.7c2,0,3.7-1.8,3.7-3.8
		C127,99.1,125.3,97.3,123.3,97.3z"/>
	<path id="XMLID_45_" d="M121.3,71.7h-10.7c-2,0-3.7,1.3-3.7,3.3s1.7,3.3,3.7,3.3h10.7c2,0,3.7-1.3,3.7-3.3
		C125,73,123.3,71.7,121.3,71.7z"/>
	<path id="XMLID_44_" d="M96.2,71.7h-3.3c-2,0-3.7,1.3-3.7,3.3s1.7,3.3,3.7,3.3h3.3c2,0,3.7-1.3,3.7-3.3
		C99.9,73,98.3,71.7,96.2,71.7z"/>
	<path d="M144.6,181.5c-1.3,0-2.6-0.6-3.5-1.7L8.7,14.8C7.1,12.8,7.5,10,9.4,8.5c1.9-1.6,4.8-1.2,6.3,0.7l132.3,165.1
		c1.6,1.9,1.2,4.8-0.7,6.3C146.5,181.2,145.5,181.5,144.6,181.5z"/>
	<g>
		<path d="M127.8,134.5l5.4,6.8c3.8-5.7,5.7-13.1,5.4-21.5c-0.2-2.2-2-3.9-4.3-3.9c-2.2,0.2-4.1,2-3.9,4.3
			C130.7,125.7,129.8,130.5,127.8,134.5z"/>
		<path d="M121.9,141.6c-14.6,10.7-44.5,1.1-67.6-22C29.9,95.2,20.8,63.1,34.2,49.7c2.6-2.6,5.9-4.4,9.8-5.4l-5.5-6.9
			c-3.8,1.4-7.3,3.6-10.1,6.4L9.4,62.7c-17.3,17.3-8.3,53,20.1,81.5C48.2,162.6,70.1,173,87.6,173c9.3,0,17.5-2.8,23.4-8.7
			l16.2-16.2L121.9,141.6z M15.3,68.4l4.7-4.7c-0.2,2.6-0.2,5.3,0,7.9L9.2,82.4C9.8,76.7,11.6,71.8,15.3,68.4z M9.8,93.4l12-12
			c0.8,2.8,1.6,5.7,2.8,8.5L12,102.5C11,99.5,10.4,96.4,9.8,93.4z M15.5,110.6l12.8-12.8c1.4,2.8,3.2,5.9,5.1,8.7l-13,13
			C18.5,116.5,16.9,113.7,15.5,110.6z M25,126.5l13.2-13.2c2.2,3,4.9,5.9,7.5,8.9l-13.2,13.2C29.9,132.6,27.3,129.5,25,126.5z
			 M38.2,141.1l13.2-13.2c3,2.6,5.9,5.1,8.7,7.3L47,148.4C43.9,146.2,41.1,143.8,38.2,141.1z M53.7,153.3l13-13
			c3.3,1.8,6.1,3.5,8.9,5.1l-13,13C59.6,157,56.7,155.3,53.7,153.3z M79.9,164.1c-1.4-0.2-2.8-0.6-4.3-1c-1.6-0.4-3.2-1-4.7-1.4
			L83.5,149c2.8,1.2,5.7,2,8.5,2.8L79.9,164.1z M105.3,158.4c-3.7,3.7-8.5,5.7-14.6,6.3l11-11c1.6,0.2,3.5,0.2,5.1,0.2
			c1,0,2.2,0,3.2-0.2L105.3,158.4z"/>
		<path d="M54.8,43.5C66.3,44.4,80,50,93.1,60.1c1.8,1.4,4.3,1,5.7-0.8c1.4-1.8,1-4.3-0.8-5.7C80.8,40.4,62.8,34.2,48.3,35.3
			L54.8,43.5z"/>
	</g>
</g>
</svg>
