<?xml version="1.0" encoding="utf-8"?>
<!-- Generator: Adobe Illustrator 22.1.0, SVG Export Plug-In . SVG Version: 6.00 Build 0)  -->
<svg version="1.1" id="Layer_1" xmlns="http://www.w3.org/2000/svg" xmlns:xlink="http://www.w3.org/1999/xlink" x="0px" y="0px"
	 viewBox="0 0 207 207" style="enable-background:new 0 0 207 207;" xml:space="preserve">
<style type="text/css">
	.st0{fill:#F6921E;stroke:#F6921E;stroke-width:0.3184;stroke-miterlimit:10;}
	.st1{fill:#231F20;stroke:#231F20;stroke-width:0.3184;stroke-miterlimit:10;}
	.st2{fill:#F6921E;stroke:#F6921E;stroke-width:0.3248;stroke-miterlimit:10;}
	.st3{fill:#231F20;}
	.st4{fill:#F6921E;}
	.st5{fill:#454162;}
	.st6{fill:#B6B5CD;}
	.st7{fill:#454162;stroke:#F6921E;stroke-width:0.3248;stroke-miterlimit:10;}
	.st8{fill:#B6B5CD;stroke:#B6B5CD;stroke-width:2;stroke-miterlimit:10;}
	.st9{stroke:#000000;stroke-width:2;stroke-miterlimit:10;}
	.st10{fill:#29ABE2;}
</style>
<g>
	<path d="M203.1,161.6h-10.3v-58c0-1.6-1.2-2.8-2.8-2.8s-2.8,1.2-2.8,2.8v58h-168V60.1c0-3.4,2.6-5.9,5.9-5.9h39
		c1.6,0,2.8-1.2,2.8-2.8c0-1.6-1.2-2.8-2.8-2.8h-39c-6.3,0-11.5,5.1-11.5,11.5v101.5H3.7c-1.6,0-2.8,1.2-2.8,2.8v8.7
		c0,11.1,8.9,20,20,20h164.8c11.1,0,20-9.1,20-20.2v-8.5C205.9,162.8,204.7,161.6,203.1,161.6z M200.3,173c0,8.1-6.5,14.6-14.6,14.6
		H20.9c-8.1,0-14.6-6.5-14.6-14.6v-5.9h194.1L200.3,173z M94.7,180.2h21.8c1.6,0,2.8-1.2,2.8-2.8c0-1.6-1.2-2.8-2.8-2.8H94.7
		c-1.6,0-2.8,1.2-2.8,2.8C91.9,178.8,93.3,180.2,94.7,180.2z M107.8,158.4c1.6,0,2.8-1.2,2.8-2.8v-6.9c0-15.2-28.5-21.8-37.4-21.8
		c-10.9,0-37.4,7.7-37.4,21.8v6.9c0,1.6,1.2,2.8,2.8,2.8c1.6,0,2.8-1.2,2.8-2.8v-6.9c0-9.5,22.4-16.4,32.1-16.4
		c9.5,0,32.1,6.9,32.1,16.4v6.9C105,157.2,106.2,158.4,107.8,158.4z M190.1,14H86c-8.7,0-15.8,7.1-15.8,15.8V69
		c0,1.6,1.2,2.8,2.8,2.8c1.6,0,2.8-1.2,2.8-2.8V29.8c0-5.7,4.6-10.3,10.3-10.3h104.1c5.7,0,10.3,4.6,10.3,10.3v52
		c0,5.7-4.6,10.3-10.3,10.3h-34.6c-0.8,0-1.4,0.2-2,0.8l-31.7,31.7c-0.6,0.6-1.6,0.6-2.4,0c-0.4-0.4-0.4-0.8-0.4-1.2V94.9
		c0-1.6-1.2-2.8-2.8-2.8H98.9c-1.6,0-2.8,1.2-2.8,2.8c0,1.6,1.2,2.8,2.8,2.8h14.8v25.9c0,4,3.2,7.1,7.1,7.1c1.8,0,3.8-0.8,4.9-2
		l30.9-30.9h33.6c8.7,0,15.8-7.1,15.8-15.8V29.8C205.9,21.1,198.8,14,190.1,14z M73.1,74.7c-11.1,0-20,8.9-20,20v4.6
		c0,11.1,9.1,20,20.2,20s20-8.9,20-20v-4.6C93.1,83.8,84,74.7,73.1,74.7z M87.6,99.2c0,8.1-6.5,14.6-14.6,14.6s-14.6-6.5-14.6-14.6
		v-4.6c0-8.1,6.5-14.6,14.6-14.6s14.6,6.5,14.6,14.6V99.2z"/>
	<path class="st4" d="M155,51.4h-1.8v-7.1c0-7.7-6.3-14-14-14c-7.7,0-14,6.3-14,14v7.1h-2c-1.6,0-2.8,1.2-2.8,2.8v23.7
		c0,1.6,1.2,2.8,2.8,2.8H155c1.6,0,2.8-1.2,2.8-2.8V54.1C157.8,52.6,156.6,51.4,155,51.4z M130.5,44.2c0-4.7,4-8.7,8.7-8.7
		c4.7,0,8.7,4,8.7,8.7v7.1h-17.4V44.2z M152.5,74.9h-0.2H126V56.7h26.5V74.9z"/>
	<path class="st4" d="M139,67.8c1.6,0,2.8-1.2,2.8-2.8v-3c0-1.6-1.2-2.8-2.8-2.8s-2.8,1.2-2.8,2.8v3C136.4,66.6,137.6,67.8,139,67.8
		z"/>
</g>
</svg>
