<?xml version="1.0" encoding="utf-8"?>
<!-- Generator: Adobe Illustrator 23.0.1, SVG Export Plug-In . SVG Version: 6.00 Build 0)  -->
<svg version="1.1" id="Layer_1" xmlns="http://www.w3.org/2000/svg" xmlns:xlink="http://www.w3.org/1999/xlink" x="0px" y="0px"
	 viewBox="0 0 77.5 71.5" xml:space="preserve">
<style type="text/css">
	.eur {fill:#00A551}
</style>
<g>
	<g>
		<g transform="matrix(0.26458333,0,0,0.26458333,-33.403463,56.772625)">
			<path class="eur" d="M272-199.5c-66.2,0-120,53.8-120,120s53.8,120,120,120s120-53.8,120-120S338.2-199.5,272-199.5z M272-187.5
				c59.7,0,108,48.3,108,108s-48.3,108-108,108s-108-48.3-108-108S212.3-187.5,272-187.5z"/>
		</g>
	</g>
	<g>
		<path class="eur" d="M26.3,37.2h2.2v-2.6h-2.8l0.6-3.9h2.6c0.3-1.5,0.7-2.8,1.2-4.1c0.6-1.3,1.3-2.4,2.2-3.4c0.9-0.9,2-1.7,3.3-2.3
			c1.3-0.6,2.8-0.8,4.5-0.8c3.1,0,5.4,0.7,6.9,2.2c1.5,1.4,2.5,3.6,2.8,6.5l-5.4,0.9c-0.3-1.5-0.8-2.6-1.4-3.3c-0.6-0.6-1.7-1-3.1-1
			c-1.4,0-2.5,0.5-3.3,1.5c-0.8,1-1.3,2.3-1.7,3.8h6.9l-0.6,3.9h-6.7v2.6h6.5l-0.6,3.9h-5.3c0.3,1.5,0.9,2.7,1.6,3.7
			c0.8,0.9,1.8,1.4,3.2,1.4c1.5,0,2.7-0.4,3.4-1.1c0.7-0.7,1.2-1.9,1.4-3.4h5.6c-0.2,3.2-1.2,5.6-2.9,7.3c-1.7,1.7-4.2,2.5-7.6,2.5
			c-1.6,0-3.1-0.2-4.3-0.7s-2.3-1.2-3.2-2.1c-0.9-0.9-1.6-2-2.1-3.2c-0.5-1.3-0.9-2.7-1.2-4.3h-3.2L26.3,37.2z"/>
	</g>
</g>
</svg>
