<?xml version="1.0" encoding="utf-8"?>
<!-- Generator: Adobe Illustrator 22.1.0, SVG Export Plug-In . SVG Version: 6.00 Build 0)  -->
<svg version="1.1" id="Layer_1" xmlns="http://www.w3.org/2000/svg" xmlns:xlink="http://www.w3.org/1999/xlink" x="0px" y="0px"
	 viewBox="0 0 96 96" style="enable-background:new 0 0 96 96;" xml:space="preserve">
<style type="text/css">
	.st0{fill:#F6921E;stroke:#F6921E;stroke-width:0.3184;stroke-miterlimit:10;}
	.st1{fill:#231F20;stroke:#231F20;stroke-width:0.3184;stroke-miterlimit:10;}
	.st2{fill:#F6921E;stroke:#F6921E;stroke-width:0.3248;stroke-miterlimit:10;}
	.st3{fill:#231F20;}
	.st4{fill:#F6921E;}
	.st5{fill:#454162;}
	.st6{fill:#B6B5CD;}
	.st7{fill:#454162;stroke:#F6921E;stroke-width:0.3248;stroke-miterlimit:10;}
	.st8{fill:#B6B5CD;stroke:#B6B5CD;stroke-width:2;stroke-miterlimit:10;}
	.st9{stroke:#000000;stroke-width:2;stroke-miterlimit:10;}
	.st10{fill:#29ABE2;}
</style>
<g>
	<path id="XMLID_445_" class="st0" d="M38.9,11.6c1.2,0.1,2.1,1.2,2,2.4l0,0l-0.3,3.1c-0.1,0.5,0.3,1,0.8,1c0.3,0,0.5-0.1,0.7-0.2
		c11.3-9.9,28.3-10.3,39.6-1.1c1,0.8,2,1.7,2.9,2.7c0.4,0.5,0.7,1.1,0.6,1.7c-0.1,0.6-0.4,1.2-0.9,1.6c-0.8,0.6-2,0.6-2.8-0.2
		l-0.1-0.1c-0.8-0.8-1.6-1.6-2.5-2.3c-9.8-8-24.5-7.5-34.1,1.2c-0.4,0.4-0.4,0.9,0,1.3c0.2,0.2,0.4,0.3,0.6,0.3l3,0.3
		c1.2,0.1,2.1,1,2.1,2.2c0,1.2-1,2.2-2.2,2.2c-0.1,0-0.1,0-0.2,0l-10.6-1c-1.2-0.1-2.1-1.2-2-2.4l1-10.6
		C36.6,12.4,37.7,11.5,38.9,11.6L38.9,11.6L38.9,11.6z"/>
	<path id="XMLID_442_" class="st1" d="M90.6,27.6L90.6,27.6c1.2-0.3,2.4,0.5,2.6,1.7l2.1,10.5c0.2,1.2-0.5,2.3-1.7,2.6l-10.5,2.1
		c-0.1,0-0.1,0-0.2,0c-1.2,0.1-2.3-0.7-2.4-2c-0.1-1.2,0.7-2.2,1.9-2.4l2.9-0.6c0.2,0,0.4-0.2,0.5-0.3c0.3-0.4,0.2-1-0.2-1.3
		c-10.5-7.6-25.1-6.6-34.1,2.4c-0.8,0.8-1.5,1.7-2.2,2.5L49.3,43c-0.7,0.8-1.8,1-2.8,0.4c-0.5-0.3-0.9-0.8-1-1.5
		c-0.1-0.6,0-1.3,0.4-1.8c0.8-1.1,1.7-2.1,2.6-3c10.3-10.3,27.3-11.6,39.5-3c0.2,0.1,0.5,0.2,0.7,0.2c0.5-0.1,0.8-0.6,0.7-1.1
		l-0.6-3.1c0,0,0,0,0,0C88.6,29,89.4,27.9,90.6,27.6L90.6,27.6z"/>
	<path id="XMLID_440_" class="st2" d="M73.5,56.1c0,0-13,13.4-34.5,13.4S4.4,60.9,2.7,53.6c-1.2,8.6-1.8,11,0.7,15.8
		S17.2,84,39.1,84S72,76.3,72.8,63.6C73.7,50.8,73.5,56.1,73.5,56.1z"/>
	<path id="XMLID_168_" class="st3" d="M69.7,75.2c3.4-3.4,5.4-7.5,5.4-11.8V49.5c0-4.5-2.2-8.9-6.2-12.6c-0.9-0.7-2.2-0.7-3,0.1
		c-0.7,0.9-0.7,2.2,0.1,3c3.1,2.8,4.8,6.1,4.8,9.5c0,10-15.1,18.3-33,18.3s-33-8.4-33-18.3c0-8.4,10.7-15.9,25.4-17.8
		c1.2-0.1,1.9-1.2,1.8-2.4c-0.1-1.2-1.2-1.9-2.4-1.8c-17.1,2.2-29.1,11.3-29.2,22l0,13.9c0,12.7,16.4,22.5,37.3,22.5
		C51.4,85.8,63.3,81.6,69.7,75.2z M20.3,78.8l0-9.4c1.6,0.5,3.4,1,5.1,1.3l0,9.5C23.6,79.8,22,79.4,20.3,78.8z M11.9,74.5l0-8.8
		c1.3,0.7,2.7,1.5,4.2,2.1v9.2C14.6,76.3,13.2,75.4,11.9,74.5z M29.6,71.4c1.9,0.3,4,0.4,6,0.5v9.7c-2-0.1-4.1-0.2-6-0.5L29.6,71.4z
		 M45.8,71.4v9.7c-1.9,0.3-3.9,0.4-5.9,0.5v-9.7C41.9,71.8,43.9,71.6,45.8,71.4z M55.1,69.4V79c-1.6,0.6-3.3,1-5.1,1.4v-9.5
		C51.9,70.3,53.5,69.9,55.1,69.4z M59.4,77.1l0-9.2c1.5-0.6,2.8-1.3,4.2-2.1v8.9c-0.6,0.4-1.3,0.8-1.9,1.2
		C60.9,76.4,60.1,76.8,59.4,77.1z M70.8,59.9v3.4c0,2.7-1,5.2-3.1,7.7V63c0.7-0.5,1.3-1.2,1.9-1.8C70.1,60.8,70.5,60.3,70.8,59.9z
		 M7.7,62.8l0,7.9c-1.9-2.3-3-4.8-2.9-7.4l0-3.4C5.6,60.9,6.6,61.9,7.7,62.8z"/>
</g>
</svg>
