<svg xmlns="http://www.w3.org/2000/svg" width="70" height="48.454" viewBox="0 0 70 48.454">
    <g class="stake-pending" transform="translate(-12764.546 -5262)">
        <path d="M58.159,60.793,52.864,50.682a3.488,3.488,0,0,0-3.1-1.759H46.516a2.178,2.178,0,0,0-1.869,1.008,1.839,1.839,0,0,0-.057,1.818l5.144,9.822a1.689,1.689,0,0,1,0,1.61L44.589,73a1.839,1.839,0,0,0,.057,1.818,2.177,2.177,0,0,0,1.869,1.008h3.247a3.486,3.486,0,0,0,3.1-1.759L58.159,63.96A3.371,3.371,0,0,0,58.159,60.793Zm-1.79,2.23L51.074,73.134a1.478,1.478,0,0,1-1.313.676H46.515a.309.309,0,0,1-.065-.006l5.072-9.685a3.706,3.706,0,0,0,0-3.485L46.449,50.95a.309.309,0,0,1,.065-.006h3.247a1.478,1.478,0,0,1,1.313.676l5.295,10.111A1.357,1.357,0,0,1,56.369,63.023Z" transform="translate(12750.591 5234.623)" fill="#fff"/>
        <path d="M73.878,60.793,68.583,50.682a3.487,3.487,0,0,0-3.1-1.759H62.235a2.176,2.176,0,0,0-1.869,1.009,1.839,1.839,0,0,0-.057,1.818l5.144,9.822a1.689,1.689,0,0,1,0,1.61L60.309,73a1.839,1.839,0,0,0,.057,1.818,2.178,2.178,0,0,0,1.869,1.009h3.247a3.486,3.486,0,0,0,3.1-1.759l5.295-10.111A3.373,3.373,0,0,0,73.878,60.793Zm-1.79,2.23L66.793,73.134a1.478,1.478,0,0,1-1.313.676H62.234a.362.362,0,0,1-.065-.006l5.072-9.685a3.706,3.706,0,0,0,0-3.485l-5.072-9.685a.362.362,0,0,1,.065-.006H65.48a1.478,1.478,0,0,1,1.313.676l5.295,10.111A1.354,1.354,0,0,1,72.088,63.023Z" transform="translate(12747.572 5234.623)" fill="#fff"/>
        <path d="M89.6,60.793,84.3,50.682a3.487,3.487,0,0,0-3.1-1.759H77.953a2.177,2.177,0,0,0-1.869,1.009,1.837,1.837,0,0,0-.057,1.817l5.144,9.822a1.689,1.689,0,0,1,0,1.61L76.027,73a1.837,1.837,0,0,0,.057,1.817,2.176,2.176,0,0,0,1.869,1.009H81.2a3.486,3.486,0,0,0,3.1-1.759L89.6,63.96A3.372,3.372,0,0,0,89.6,60.793Zm-1.79,2.23L82.512,73.134a1.478,1.478,0,0,1-1.313.676H77.953a.362.362,0,0,1-.065-.006L82.96,64.12a3.706,3.706,0,0,0,0-3.485l-5.072-9.685a.362.362,0,0,1,.065-.006H81.2a1.478,1.478,0,0,1,1.313.676l5.295,10.111A1.354,1.354,0,0,1,87.807,63.023Z" transform="translate(12744.555 5234.623)" fill="#fff"/>
        <path d="M32.557,66.556A21.219,21.219,0,1,1,49.439,37.08a21.544,21.544,0,0,1,.848,2.323,1.01,1.01,0,1,0,1.934-.583,23.615,23.615,0,0,0-.928-2.541A23.236,23.236,0,1,0,30,68.733a22.856,22.856,0,0,0,2.809-.173,1.01,1.01,0,1,0-.248-2Z" transform="translate(12757.82 5239.743)" fill="#fff"/>
        <path d="M36.67,48.253a.875.875,0,0,0-.044-.107L29.1,37.053a2.488,2.488,0,0,0-4.335,2.43l5.654,12.039c0,.006,0,.012,0,.018s.011.016.015.025l.006.014c.006.012.015.02.021.032a3.536,3.536,0,0,0,6.26-3.288C36.711,48.295,36.686,48.278,36.67,48.253ZM35.018,50.4a1.516,1.516,0,0,1-2.78.246L26.574,38.588a.466.466,0,0,1,.184-.622.477.477,0,0,1,.649.189l7.518,11.081s0,0,0,0A1.512,1.512,0,0,1,35.018,50.4Z" transform="translate(12754.408 5237.126)" fill="#fff"/>
    </g>
</svg>