<svg xmlns="http://www.w3.org/2000/svg" width="228.35" height="131" viewBox="0 0 228.35 131">
    <g transform="translate(-62.15 -228.5)">
        <g transform="translate(0 46)">
            <path class="connect-desktop" d="M142.693,130h0a24.218,24.218,0,0,0,4.809-1.371c2.2-.912,4.846-2.541,4.913-5.127V120.25h-12.97V87.75h81.071V6.5H77.831V48.75h-6.42L71.346,4.972C71.346,2.7,74.036,0,76.309,0h145.73C224.311,0,227,2.7,227,4.972v97.3c0,2.278-2.689,4.974-4.961,4.974H158.9l2.854,13.423a9.148,9.148,0,0,0,8.9,7.136c.2,0,.4-.007.6-.02h.229a1.109,1.109,0,0,1,1.136,1.106,1.082,1.082,0,0,1-.781,1.038.164.164,0,0,1-.07.041c-.017.007-.036.014-.059.025Zm4.392-34.242v4.432h4.41V95.758ZM32.362,130c-.77,0-8.612-.285-16.635-.848a35.887,35.887,0,0,1-10.648-2.513,33.131,33.131,0,0,1-4.4-2.1c-.2,0-.389-.42-.544-.757-.05-.108-.1-.211-.137-.283H12.97V56.873a4.959,4.959,0,0,1,1.241-3.657A4.961,4.961,0,0,1,17.835,52h113.5a4.384,4.384,0,0,1,4.863,4.875v66.656h13a3.824,3.824,0,0,1-1.427,1.04,33.141,33.141,0,0,1-4.4,2.1,35.9,35.9,0,0,1-10.649,2.515c-8.208.543-15.908.809-15.985.812H32.428A.42.42,0,0,1,32.362,130ZM19.456,58.5v65H129.712v-65Zm131.127,41.68h0l-.9-.9h-1.691V96.667h2.591v3.51Z" transform="translate(63 183)" fill="#fff"/>
            <path class="connect-desktop" d="M142.23,130.5l-.071-.921.454-.073a23.665,23.665,0,0,0,4.7-1.34c2.065-.854,4.54-2.358,4.6-4.671V120.75h-12.97V87.25h81.071V7H78.331V49.25H70.912L70.846,4.973c0-2.558,2.91-5.473,5.463-5.473h145.73c2.552,0,5.461,2.915,5.461,5.472v97.3c0,2.558-2.909,5.474-5.461,5.474H159.515l2.726,12.819a8.644,8.644,0,0,0,8.411,6.74c.188,0,.379-.006.568-.019h.262a1.6,1.6,0,0,1,1.636,1.606,1.585,1.585,0,0,1-1.053,1.491.747.747,0,0,1-.117.055l-.021.008-.1.051Zm-2.285-10.75h12.97v3.764c-.058,2.259-1.864,4.187-5.222,5.576-.363.15-.727.287-1.084.41h24.947l.009-.009.134-.038a.58.58,0,0,0,.417-.557.608.608,0,0,0-.636-.606h-.212c-.2.013-.412.02-.617.02a9.651,9.651,0,0,1-9.388-7.529l-2.983-14.03h63.759c2,0,4.461-2.467,4.461-4.474V4.972C226.5,2.966,224.04.5,222.039.5H76.309c-2,0-4.463,2.466-4.463,4.472l.064,43.278h5.42V6H221.016V88.25H139.945ZM32.362,130.5c-.773,0-8.636-.285-16.67-.849a36.389,36.389,0,0,1-10.8-2.548,34.879,34.879,0,0,1-4.389-2.088c-.4-.11-.624-.593-.823-1.026-.044-.095-.089-.193-.12-.249L-.85,123H12.47V56.873a5.431,5.431,0,0,1,1.389-4.012A5.435,5.435,0,0,1,17.835,51.5h113.5a4.875,4.875,0,0,1,5.363,5.375v66.156h13.437l-.516.777a4.338,4.338,0,0,1-1.66,1.236,34.439,34.439,0,0,1-4.4,2.093,36.407,36.407,0,0,1-10.8,2.55c-8.226.544-15.925.81-16,.812h-84.3C32.422,130.5,32.39,130.5,32.362,130.5ZM.833,124.046l.107.064a32.933,32.933,0,0,0,4.325,2.064,35.382,35.382,0,0,0,10.5,2.479c7.753.544,15.328.828,16.505.846l0,0h84.466c.3-.01,7.873-.275,15.961-.811a35.4,35.4,0,0,0,10.5-2.481,32.359,32.359,0,0,0,4.325-2.064l.119-.072h.089a.808.808,0,0,0,.082-.04H135.7V56.873a4.467,4.467,0,0,0-1.1-3.256,4.418,4.418,0,0,0-3.268-1.119H17.835a4.491,4.491,0,0,0-3.272,1.073,4.488,4.488,0,0,0-1.093,3.3V124H.8ZM130.212,124H18.956V58H130.212ZM19.956,123H129.212V59H19.956Zm131.127-21.639-.69-.669h-3.807V95.258H152v5.432h-.913Zm-2.591-2.578h1.4l.193.193V97.167h-1.591Z" transform="translate(63 183)" fill="rgba(0,0,0,0)"/>
            <g transform="translate(127.843 264.387)">
                <g transform="translate(0 0)">
                    <path class="connect-desktop" d="M31.828,31.777V13.9H14V31.777H28.188L24.5,28.113H17.665V17.565H28.138V31.777Z" transform="translate(-14 -13.9)" fill="#fff"/>
                </g>
            </g>
            <g transform="translate(203.276 221.189)">
                <g transform="translate(0 0)">
                    <path class="connect-desktop" d="M31.827,31.776V13.9H14V31.776H28.187L24.5,28.112H17.664V17.564H28.138V31.776Z" transform="translate(-14 -13.9)" fill="#fff"/>
                </g>
            </g>
        </g>
    </g>
</svg>