<svg xmlns="http://www.w3.org/2000/svg" width="102.487" height="91.845" viewBox="0 0 102.487 91.845">
    <g transform="translate(-908.757 -1067.155)">
        <path class="stake-error-outline" d="M57,14.155a1.935,1.935,0,0,0-1.738,1.01L12.031,91.01A2,2,0,0,0,13.768,94h86.463a2,2,0,0,0,1.738-2.99L58.738,15.165A1.935,1.935,0,0,0,57,14.155m0-6a7.924,7.924,0,0,1,6.95,4.038l43.232,75.845A8,8,0,0,1,100.232,100H13.768a8,8,0,0,1-6.95-11.962L50.05,12.193A7.924,7.924,0,0,1,57,8.155Z" transform="translate(903 1059)" fill="#707070" opacity="0.2"/>
        <path class="stake-error-qmark" d="M-5.724-11.713A12.063,12.063,0,0,1-4.8-16.589a8.238,8.238,0,0,1,3.471-3.657q.9-.53,2.12-1.192A15.36,15.36,0,0,0,3.127-23a8.629,8.629,0,0,0,1.881-2.12,5.253,5.253,0,0,0,.769-2.862,5.026,5.026,0,0,0-.5-2.279,5.422,5.422,0,0,0-1.3-1.7A5.3,5.3,0,0,0,2.12-32.993a6.988,6.988,0,0,0-2.173-.345,6.593,6.593,0,0,0-2.332.4,8.086,8.086,0,0,0-1.961,1.06,9.367,9.367,0,0,0-1.616,1.51,11.028,11.028,0,0,0-1.192,1.7l-3.816-2.6a10.641,10.641,0,0,1,4.452-5.061A12.839,12.839,0,0,1,.106-38.107,12.9,12.9,0,0,1,4-37.5a10.445,10.445,0,0,1,3.472,1.855,9.006,9.006,0,0,1,2.464,3.207,10.82,10.82,0,0,1,.927,4.664,9.653,9.653,0,0,1-.477,3.207,8.952,8.952,0,0,1-1.3,2.438,9.143,9.143,0,0,1-1.961,1.908,22.19,22.19,0,0,1-2.412,1.51q-1.06.583-2.067,1.193a8.767,8.767,0,0,0-1.775,1.4A6.453,6.453,0,0,0-.371-14.257a6.168,6.168,0,0,0-.477,2.544ZM-5.724,0V-6.678H-.848V0Z" transform="translate(961 1142)" fill="#ff9100"/>
    </g>
</svg>