<svg xmlns="http://www.w3.org/2000/svg" width="35.518" height="38.446" viewBox="0 0 35.518 38.446">
  <g id="Group_5977" data-name="Group 5977" transform="translate(-471.09 -291.662)">
    <g id="Group_5588" data-name="Group 5588" transform="translate(471.09 291.662)">
      <g id="Group_5574" data-name="Group 5574" transform="translate(8.516 0)">
        <path class="fill_secondary-color" id="Path_1657" data-name="Path 1657" d="M29.459,37a4.222,4.222,0,0,0,4.355-4.148c0-2.592-2.9-6.014-3.422-6.74a1.442,1.442,0,0,0-1.97,0C27.8,26.736,25,30.262,25,32.854A4.368,4.368,0,0,0,29.459,37Zm0-7.881a9.022,9.022,0,0,1,1.763,3.733c0,1.555-1.763,1.555-1.866,1.555s-1.866,0-1.866-1.555A14.63,14.63,0,0,1,29.459,29.121Z" transform="translate(-15.668 -5.712)" fill="#fff"/>
        <path class="fill_secondary-color" id="Path_1658" data-name="Path 1658" d="M20.459,27.4a4.222,4.222,0,0,0,4.355-4.148c0-2.592-2.9-6.014-3.422-6.74a1.442,1.442,0,0,0-1.97,0C18.8,17.136,16,20.662,16,23.254A4.249,4.249,0,0,0,20.459,27.4Zm0-7.985a9.022,9.022,0,0,1,1.763,3.733c0,1.555-1.763,1.555-1.866,1.555s-1.866,0-1.866-1.555A11.9,11.9,0,0,1,20.459,19.417Z" transform="translate(-16 -6.067)" fill="#fff"/>
        <path class="fill_secondary-color" id="Path_1659" data-name="Path 1659" d="M29.459,17.7a4.222,4.222,0,0,0,4.355-4.148c0-2.592-2.9-6.014-3.422-6.74a1.442,1.442,0,0,0-1.97,0C27.8,7.436,25,10.962,25,13.554A4.368,4.368,0,0,0,29.459,17.7Zm0-7.881c.933,1.348,1.866,2.9,1.866,3.733,0,1.555-1.763,1.555-1.866,1.555s-1.866,0-1.866-1.555A10.357,10.357,0,0,1,29.459,9.821Z" transform="translate(-15.668 -6.425)" fill="#fff"/>
      </g>
      <path class="fill_secondary-color" id="Path_7363" data-name="Path 7363" d="M42.746,37.3c-1.037-1.867-3.422-2.489-5.7-2.8a1.262,1.262,0,0,0-.415,2.489c2.178.415,3.526.933,3.837,1.555.1.207.311.518.207.726-.415,1.037-4.251,1.659-6.014,1.97-1.659.311-3.526-.311-5.185-.83-2.074-.622-4.148-1.348-5.185.311-.415.415-3.215.83-5.807.207C16.822,40.622,16.3,40.1,16.2,39.9c-.726-1.659-2.592-2.178-4.044-2.489a6.26,6.26,0,0,1-1.659-.518v-.1c.518-1.452,4.044-2.178,6.222-2.281h.415a18.831,18.831,0,0,1,5.392-.207,1.305,1.305,0,0,0,.311-2.592,23.694,23.694,0,0,0-6.118.207h-.207c-1.037,0-7.259.415-8.5,3.94a2.287,2.287,0,0,0,.1,2.178c.622,1.141,1.97,1.555,3.318,1.867.933.207,2.074.518,2.281,1.037.933,2.281,4.77,2.8,6.325,2.9,1.141.1,4.977.207,6.222-1.555h0a8.455,8.455,0,0,1,2.281.622,15.251,15.251,0,0,0,5.081,1.037,5.912,5.912,0,0,0,1.348-.1c3.94-.726,6.948-1.452,7.881-3.526C43.368,39.793,43.575,38.652,42.746,37.3Z" transform="translate(-7.786 -5.495)" fill="#fff"/>
    </g>
  </g>
</svg>
