<svg xmlns="http://www.w3.org/2000/svg" width="26.418" height="33.05" viewBox="0 0 26.418 33.05">
    <path class="staking-unlock" d="M25.336,33.05H1.138a1.061,1.061,0,0,1-.8-.36A1.014,1.014,0,0,1,0,31.912V12.1a1.131,1.131,0,0,1,.333-.777,1.155,1.155,0,0,1,.8-.305H5.522v-3.3A7.441,7.441,0,0,1,7.77,2.275,7.458,7.458,0,0,1,13.209,0,7.583,7.583,0,0,1,18.7,2.275a7.558,7.558,0,0,1,1.819,2.832h-.149a19.059,19.059,0,0,0-2.218.145A5.6,5.6,0,0,0,17.094,3.83a5.21,5.21,0,0,0-3.884-1.637A5.331,5.331,0,0,0,9.324,3.83,5.363,5.363,0,0,0,7.742,7.715v3.3H18.731v-.053c.714.041,1.539.063,2.452.063.358,0,.728,0,1.1-.01h3.052a1.057,1.057,0,0,1,.777.305,1.186,1.186,0,0,1,.305.777V31.912a1.061,1.061,0,0,1-.305.778A.977.977,0,0,1,25.336,33.05ZM2.22,13.236V30.83H24.253V13.236Z" fill="#fff"/>
</svg>