<svg xmlns="http://www.w3.org/2000/svg" width="16.989" height="16.989" viewBox="0 0 16.989 16.989">
    <path class="stake-variable" d="M32.975,19H22.014A3.014,3.014,0,0,0,19,22.014v10.96a3.014,3.014,0,0,0,3.014,3.014h10.96a3.014,3.014,0,0,0,3.014-3.014V22.014A3.014,3.014,0,0,0,32.975,19Zm-10.96,1.644h10.96a1.37,1.37,0,0,1,1.37,1.37v1.3l-5.25,5.247-3.836-3.288-4.614,4.617V22.014A1.37,1.37,0,0,1,22.014,20.644Zm10.96,13.7H22.014a1.37,1.37,0,0,1-1.37-1.37v-.756l4.7-4.7,3.836,3.288,5.162-5.165v7.333A1.37,1.37,0,0,1,32.975,34.345Z" transform="translate(-19 -19)" fill="#fff"/>
</svg>