<?xml version="1.0" encoding="utf-8"?>
<!-- Generator: Adobe Illustrator 26.0.3, SVG Export Plug-In . SVG Version: 6.00 Build 0)  -->
<svg version="1.1" id="Layer_1" xmlns="http://www.w3.org/2000/svg" xmlns:xlink="http://www.w3.org/1999/xlink" x="0px" y="0px"
	 viewBox="0 0 86.7 47.9" style="enable-background:new 0 0 86.7 47.9;" xml:space="preserve">
<style type="text/css">
	.st000{fill:#FFFFFF;}
	.st100{fill:#6ECDDD;enable-background:new    ;}
</style>
<path id="Path_1722" class="move-xht" d="M60.9,32.8l-5.3-10.1C55,21.6,53.8,21,52.5,21h-3.2c-0.8,0-1.5,0.4-1.9,1
	c-0.3,0.6-0.4,1.2-0.1,1.8l5.1,9.8c0.3,0.5,0.3,1.1,0,1.6l-5.1,9.8c-0.3,0.6-0.3,1.3,0.1,1.8c0.4,0.6,1.1,1,1.9,1h3.2
	c1.3,0,2.5-0.6,3.1-1.8L60.9,36C61.4,35,61.4,33.8,60.9,32.8z M59.1,35.1l-5.3,10.1c-0.3,0.4-0.8,0.7-1.3,0.7h-3.2c0,0,0,0-0.1,0
	l5.1-9.7c0.6-1.1,0.6-2.4,0-3.5L49.2,23c0,0,0,0,0.1,0h3.2c0.5,0,1,0.2,1.3,0.7l5.3,10.1C59.3,34.2,59.3,34.7,59.1,35.1z"/>
<path id="Path_1723" class="move-xht" d="M73.6,32.8l-5.3-10.1c-0.6-1.1-1.8-1.8-3.1-1.8H62c-0.8,0-1.5,0.4-1.9,1
	c-0.3,0.6-0.4,1.2-0.1,1.8l5.1,9.8c0.3,0.5,0.3,1.1,0,1.6L60,45.1c-0.3,0.6-0.3,1.3,0.1,1.8c0.4,0.6,1.1,1,1.9,1h3.2
	c1.3,0,2.5-0.6,3.1-1.8L73.6,36C74.1,35,74.1,33.8,73.6,32.8z M71.8,35.1l-5.3,10.1c-0.3,0.4-0.8,0.7-1.3,0.7H62c0,0,0,0-0.1,0
	l5.1-9.7c0.6-1.1,0.6-2.4,0-3.5L61.9,23c0,0,0,0,0.1,0h3.2c0.5,0,1,0.2,1.3,0.7l5.3,10.1C72,34.2,72,34.7,71.8,35.1z"/>
<path id="Path_1724" class="move-xht" d="M86.3,32.8L81,22.7c-0.6-1.1-1.8-1.8-3.1-1.8h-3.2c-0.8,0-1.5,0.4-1.9,1
	c-0.3,0.6-0.4,1.2-0.1,1.8l5.1,9.8c0.3,0.5,0.3,1.1,0,1.6l-5.1,9.8c-0.3,0.6-0.3,1.3,0.1,1.8c0.4,0.6,1.1,1,1.9,1h3.2
	c1.3,0,2.5-0.6,3.1-1.8L86.3,36C86.8,35,86.8,33.8,86.3,32.8z M84.5,35.1l-5.3,10.1c-0.3,0.4-0.8,0.7-1.3,0.7h-3.2c0,0,0,0-0.1,0
	l5.1-9.7c0.6-1.1,0.6-2.4,0-3.5L74.6,23c0,0,0,0,0.1,0h3.2c0.5,0,1,0.2,1.3,0.7l5.3,10.1C84.7,34.2,84.7,34.7,84.5,35.1L84.5,35.1z"
	/>
<circle id="Ellipse_132" cx="22.8" cy="22.8" r="22.8"/>
<path d="M28.3,9.7H18L7.2,22.8L18,35.9h10.3L39,22.8L28.3,9.7L28.3,9.7z"/>
<path class="st000" d="M27.2,12.1l8.7,10.6l-8.7,10.6h-8.1l-8.8-10.6L19,12.1L27.2,12.1 M27.9,10.7h-9.5l-10,12.1l10,12.1h9.5l10-12.1
	L27.9,10.7L27.9,10.7z"/>
<path class="st100" d="M26.3,30.9h-6.4l-6.7-8.1l6.7-8.1h6.4l6.7,8.1L26.3,30.9z M20.1,30.4h6l6.3-7.6l-6.3-7.6h-6l-6.3,7.6L20.1,30.4
	z"/>
<path class="st100" d="M24.6,26.7h-3l0-0.1l-3.1-3.8l3.2-3.9h3l0,0l3.1,3.8L24.6,26.7z M21.7,26.4h2.8l2.9-3.6l-2.9-3.6h-2.8l-3,3.6
	L21.7,26.4z"/>
</svg>
