<?xml version="1.0" encoding="utf-8"?>
<!-- Generator: Adobe Illustrator 23.0.3, SVG Export Plug-In . SVG Version: 6.00 Build 0)  -->
<svg version="1.2" baseProfile="tiny" id="Layer_1" xmlns="http://www.w3.org/2000/svg" xmlns:xlink="http://www.w3.org/1999/xlink"
	 x="0px" y="0px" viewBox="0 0 228.7 74.7" xml:space="preserve">
<g class="logo-black">
	<path d="M183.8,56.7l11.3,13.9h29.6l-26.2-31.8L183.8,56.7z M223.1,4h-27.3l-12.8,16.1L169.8,4h-29.4l26.8,33l-26.8,33.7h28.2
		L223.1,4z"/>
	<path d="M51.9,48.4L51.9,48.4l0,22.2H75V4H51.9v22.8h0V48.4z M4,4v66.7h23.1V48.4h21.8V26.8H27.1V4H4z"/>
	<g>
		<polygon class="logo-black" points="78.6,4 78.6,24.4 102.1,24.4 124.6,24.4 140.3,24.4 140.3,4 		"/>
		<polygon class="logo-black" points="78.6,27.5 78.6,70.7 140.3,70.7 140.3,50.2 105.1,50.2 105.1,50.2 102.1,50.2 102.1,47.2 140.3,47.2 140.3,27.5 
					"/>
	</g>
</g>
</svg>
